<svg fill="currentColor" width="16" height="16" viewBox="0 0 16 16" xmlns="http://www.w3.org/2000/svg">
<path d="M12.1274 11.2567C12.1846 11.3139 12.23 11.3817 12.2609 11.4564C12.2919 11.5311 12.3078 11.6112 12.3078 11.6921C12.3078 11.773 12.2919 11.853 12.2609 11.9277C12.23 12.0024 12.1846 12.0703 12.1274 12.1274L8.43528 15.8195C8.37813 15.8767 8.31027 15.9221 8.23557 15.9531C8.16086 15.9841 8.08079 16 7.99992 16C7.91906 16 7.83898 15.9841 7.76428 15.9531C7.68958 15.9221 7.62171 15.8767 7.56457 15.8195L3.87248 12.1274C3.75702 12.012 3.69215 11.8554 3.69215 11.6921C3.69215 11.5288 3.75702 11.3722 3.87248 11.2567C3.98795 11.1413 4.14455 11.0764 4.30784 11.0764C4.47113 11.0764 4.62773 11.1413 4.7432 11.2567L7.99992 14.5142L11.2566 11.2567C11.3138 11.1995 11.3817 11.1541 11.4564 11.1232C11.5311 11.0922 11.6111 11.0763 11.692 11.0763C11.7729 11.0763 11.8529 11.0922 11.9276 11.1232C12.0024 11.1541 12.0702 11.1995 12.1274 11.2567Z"/>
<path d="M3.6886 4.19533C3.66488 4.31494 3.67715 4.43889 3.72388 4.55152C3.77051 4.66418 3.84951 4.76047 3.95087 4.82823C4.05223 4.89599 4.17141 4.93216 4.29333 4.93219H11.6909C11.8129 4.93229 11.9322 4.89618 12.0336 4.82845C12.1351 4.76072 12.2142 4.66441 12.2609 4.5517C12.3076 4.439 12.3198 4.31497 12.296 4.19533C12.2721 4.07568 12.2134 3.96579 12.127 3.87958L8.42826 0.1808C8.37101 0.123484 8.30302 0.078014 8.22818 0.0469909C8.15334 0.0159679 8.07313 0 7.99211 0C7.9111 0 7.83088 0.0159679 7.75604 0.0469909C7.68121 0.078014 7.61322 0.123484 7.55596 0.1808L3.85719 3.87958C3.771 3.96584 3.71233 4.07572 3.6886 4.19533Z"/>
</svg>
