<svg fill="currentColor" width="16" height="16" viewBox="0 0 16 16" xmlns="http://www.w3.org/2000/svg">
<path d="M4.74316 4.74327L7.99989 1.48578L11.2566 4.74327C11.3721 4.85874 11.5287 4.92361 11.692 4.92361C11.8553 4.92361 12.0119 4.85874 12.1273 4.74327C12.2428 4.62781 12.3077 4.47121 12.3077 4.30792C12.3077 4.14463 12.2428 3.98802 12.1273 3.87256L8.43525 0.180473C8.3781 0.12326 8.31023 0.0778728 8.23553 0.0469059C8.16083 0.015939 8.08076 0 7.99989 0C7.91902 0 7.83895 0.015939 7.76425 0.0469059C7.68955 0.0778728 7.62168 0.12326 7.56453 0.180473L3.87245 3.87256C3.75698 3.98802 3.69212 4.14463 3.69212 4.30792C3.69212 4.47121 3.75698 4.62781 3.87245 4.74327C3.98791 4.85874 4.14452 4.92361 4.30781 4.92361C4.4711 4.92361 4.6277 4.85874 4.74316 4.74327Z"/>
<path d="M12.3036 11.8047C12.3274 11.6851 12.3151 11.5611 12.2683 11.4485C12.2217 11.3358 12.1427 11.2395 12.0414 11.1718C11.94 11.104 11.8208 11.0678 11.6989 11.0678H4.30134C4.17934 11.0677 4.06006 11.1038 3.95859 11.1715C3.85713 11.2393 3.77804 11.3356 3.73134 11.4483C3.68464 11.561 3.67243 11.685 3.69626 11.8047C3.72009 11.9243 3.77888 12.0342 3.86519 12.1204L7.56397 15.8192C7.62122 15.8765 7.68921 15.922 7.76405 15.953C7.83888 15.984 7.9191 16 8.00011 16C8.08113 16 8.16135 15.984 8.23618 15.953C8.31102 15.922 8.37901 15.8765 8.43626 15.8192L12.135 12.1204C12.2212 12.0342 12.2799 11.9243 12.3036 11.8047Z"/>
</svg>
