<svg fill="currentColor" width="16" height="16" viewBox="0 0 16 16" xmlns="http://www.w3.org/2000/svg">
<path d="M12.5472 13.1578C12.6148 13.2382 12.658 13.3362 12.6718 13.4403C12.6856 13.5444 12.6693 13.6503 12.6249 13.7455C12.5806 13.8407 12.5099 13.9212 12.4213 13.9776C12.3327 14.034 12.2299 14.0639 12.1249 14.0638H0.551006C0.446047 14.0637 0.343277 14.0338 0.254783 13.9773C0.166289 13.9209 0.0957504 13.8403 0.0514637 13.7452C0.007177 13.65 -0.00901646 13.5442 0.00478771 13.4402C0.0185919 13.3361 0.0618196 13.2382 0.129387 13.1578C1.15863 11.9329 2.43865 11.0628 3.86126 10.5971C2.99729 10.059 2.33208 9.25416 1.96628 8.30432C1.60047 7.35448 1.55397 6.31134 1.83381 5.33272C2.11365 4.3541 2.7046 3.49324 3.51727 2.88039C4.32993 2.26754 5.32008 1.93604 6.33793 1.93604C7.35578 1.93604 8.34593 2.26754 9.1586 2.88039C9.97126 3.49324 10.5622 4.3541 10.8421 5.33272C11.1219 6.31134 11.0754 7.35448 10.7096 8.30432C10.3438 9.25416 9.67857 10.059 8.8146 10.5971C10.2372 11.0628 11.5172 11.9329 12.5472 13.1578ZM15.9263 10.3436C15.8779 10.4275 15.8082 10.4972 15.7242 10.5455C15.6403 10.5939 15.5451 10.6193 15.4482 10.6192C15.3514 10.6195 15.2563 10.594 15.1726 10.5455L14.8509 10.3595C14.6969 10.4915 14.5199 10.5941 14.3287 10.6619V11.0325C14.3287 11.1787 14.2706 11.3189 14.1673 11.4222C14.0639 11.5256 13.9237 11.5837 13.7776 11.5837C13.6314 11.5837 13.4912 11.5256 13.3879 11.4222C13.2845 11.3189 13.2264 11.1787 13.2264 11.0325V10.6619C13.0352 10.5941 12.8582 10.4915 12.7042 10.3595L12.3825 10.5455C12.2988 10.594 12.2037 10.6195 12.1069 10.6192C11.9856 10.6192 11.8676 10.5792 11.7713 10.5053C11.675 10.4315 11.6058 10.3279 11.5744 10.2107C11.543 10.0934 11.5511 9.96912 11.5976 9.85701C11.6441 9.74489 11.7262 9.65125 11.8314 9.59062L12.1524 9.4053C12.1147 9.2059 12.1147 9.00121 12.1524 8.80181L11.8314 8.61649C11.7687 8.5803 11.7137 8.53212 11.6696 8.47469C11.6256 8.41726 11.5932 8.35172 11.5745 8.2818C11.5558 8.21188 11.551 8.13895 11.5604 8.06718C11.5698 7.9954 11.5933 7.92619 11.6295 7.8635C11.6657 7.8008 11.7139 7.74585 11.7713 7.70177C11.8287 7.6577 11.8943 7.62537 11.9642 7.60662C12.0341 7.58788 12.1071 7.58309 12.1788 7.59253C12.2506 7.60197 12.3198 7.62546 12.3825 7.66164L12.7042 7.84765C12.8582 7.71556 13.0352 7.61303 13.2264 7.54522V7.17458C13.2264 7.02841 13.2845 6.88823 13.3879 6.78487C13.4912 6.68151 13.6314 6.62344 13.7776 6.62344C13.9237 6.62344 14.0639 6.68151 14.1673 6.78487C14.2706 6.88823 14.3287 7.02841 14.3287 7.17458V7.54522C14.5199 7.61303 14.6969 7.71556 14.8509 7.84765L15.1726 7.66164C15.2353 7.62546 15.3045 7.60197 15.3763 7.59253C15.4481 7.58309 15.521 7.58788 15.5909 7.60662C15.6609 7.62537 15.7264 7.6577 15.7838 7.70177C15.8413 7.74585 15.8894 7.8008 15.9256 7.8635C15.9618 7.92619 15.9853 7.9954 15.9947 8.06718C16.0042 8.13895 15.9994 8.21188 15.9806 8.2818C15.9619 8.35172 15.9296 8.41726 15.8855 8.47469C15.8414 8.53212 15.7865 8.5803 15.7238 8.61649L15.4027 8.80181C15.4404 9.00121 15.4404 9.2059 15.4027 9.4053L15.7238 9.59062C15.7865 9.62674 15.8416 9.67488 15.8857 9.73227C15.9299 9.78967 15.9623 9.85521 15.9811 9.92514C15.9999 9.99507 16.0047 10.068 15.9953 10.1398C15.9859 10.2116 15.9625 10.2809 15.9263 10.3436ZM13.7783 9.65469C13.8873 9.65469 13.9938 9.62237 14.0845 9.56181C14.1751 9.50125 14.2457 9.41517 14.2874 9.31446C14.3292 9.21376 14.3401 9.10294 14.3188 8.99603C14.2975 8.88912 14.2451 8.79092 14.168 8.71384C14.0909 8.63676 13.9927 8.58427 13.8858 8.56301C13.7789 8.54174 13.6681 8.55266 13.5674 8.59437C13.4666 8.63608 13.3806 8.70672 13.32 8.79736C13.2594 8.88799 13.2271 8.99455 13.2271 9.10355C13.2271 9.24972 13.2852 9.38991 13.3885 9.49327C13.4919 9.59662 13.6321 9.65469 13.7783 9.65469Z"/>
</svg>
