<svg fill="currentColor" width="16" height="16" viewBox="0 0 16 16" xmlns="http://www.w3.org/2000/svg">
<path d="M8.77431 4.90414C8.77431 4.76726 8.82869 4.63598 8.92548 4.53919C9.02227 4.4424 9.15355 4.38802 9.29043 4.38802H15.4839C15.6208 4.38802 15.752 4.4424 15.8488 4.53919C15.9456 4.63598 16 4.76726 16 4.90414C16 5.04103 15.9456 5.17231 15.8488 5.2691C15.752 5.36589 15.6208 5.42026 15.4839 5.42026H9.29043C9.15355 5.42026 9.02227 5.36589 8.92548 5.2691C8.82869 5.17231 8.77431 5.04103 8.77431 4.90414ZM15.4839 7.48475H9.29043C9.15355 7.48475 9.02227 7.53912 8.92548 7.63592C8.82869 7.73271 8.77431 7.86398 8.77431 8.00087C8.77431 8.13775 8.82869 8.26903 8.92548 8.36582C9.02227 8.46261 9.15355 8.51699 9.29043 8.51699H15.4839C15.6208 8.51699 15.752 8.46261 15.8488 8.36582C15.9456 8.26903 16 8.13775 16 8.00087C16 7.86398 15.9456 7.73271 15.8488 7.63592C15.752 7.53912 15.6208 7.48475 15.4839 7.48475ZM15.4839 10.5815H10.8388C10.7019 10.5815 10.5706 10.6358 10.4738 10.7326C10.377 10.8294 10.3227 10.9607 10.3227 11.0976C10.3227 11.2345 10.377 11.3658 10.4738 11.4625C10.5706 11.5593 10.7019 11.6137 10.8388 11.6137H15.4839C15.6208 11.6137 15.752 11.5593 15.8488 11.4625C15.9456 11.3658 16 11.2345 16 11.0976C16 10.9607 15.9456 10.8294 15.8488 10.7326C15.752 10.6358 15.6208 10.5815 15.4839 10.5815ZM6.53499 8.90408C7.04722 8.50954 7.42312 7.96458 7.60995 7.3456C7.79679 6.72663 7.78521 6.0647 7.57682 5.45264C7.36843 4.84059 6.97369 4.30911 6.44797 3.93274C5.92225 3.55638 5.2919 3.354 4.64535 3.354C3.99879 3.354 3.36845 3.55638 2.84272 3.93274C2.317 4.30911 1.92226 4.84059 1.71387 5.45264C1.50549 6.0647 1.4939 6.72663 1.68074 7.3456C1.86758 7.96458 2.24347 8.50954 2.7557 8.90408C1.4254 9.4673 0.377028 10.6008 0.016389 12.0008C-0.0033088 12.0771 -0.00527853 12.1569 0.0106307 12.234C0.02654 12.3112 0.0599059 12.3837 0.108171 12.446C0.156436 12.5083 0.218319 12.5587 0.289077 12.5933C0.359835 12.628 0.43759 12.646 0.516381 12.646H8.77431C8.8531 12.646 8.93086 12.628 9.00161 12.5933C9.07237 12.5587 9.13426 12.5083 9.18252 12.446C9.23079 12.3837 9.26415 12.3112 9.28006 12.234C9.29597 12.1569 9.294 12.0771 9.2743 12.0008C8.91366 10.6002 7.86529 9.46665 6.53499 8.90408Z"/>
</svg>
