<svg fill="currentColor" width="16" height="16" viewBox="0 0 16 16" xmlns="http://www.w3.org/2000/svg">
<path d="M15.9179 15.386C15.8639 15.4796 15.7862 15.5573 15.6926 15.6113C15.599 15.6653 15.4929 15.6937 15.3848 15.6937H0.614787C0.506812 15.6936 0.400767 15.6651 0.307299 15.611C0.213832 15.557 0.136232 15.4793 0.0822927 15.3857C0.0283531 15.2922 -2.77002e-05 15.1861 2.02871e-08 15.0781C2.77407e-05 14.9702 0.028463 14.8641 0.0824506 14.7706C1.25405 12.7451 3.05954 11.2927 5.16657 10.6042C4.12434 9.98374 3.31459 9.03832 2.86167 7.91312C2.40875 6.78792 2.33772 5.54515 2.65947 4.37567C2.98122 3.20618 3.67797 2.17465 4.64272 1.43948C5.60747 0.70431 6.78687 0.306152 7.99981 0.306152C9.21274 0.306152 10.3921 0.70431 11.3569 1.43948C12.3216 2.17465 13.0184 3.20618 13.3401 4.37567C13.6619 5.54515 13.5909 6.78792 13.1379 7.91312C12.685 9.03832 11.8753 9.98374 10.833 10.6042C12.9401 11.2927 14.7456 12.7451 15.9172 14.7706C15.9713 14.8641 15.9999 14.9702 16 15.0782C16.0001 15.1862 15.9718 15.2924 15.9179 15.386Z"/>
</svg>
