<svg fill="currentColor" width="16" height="16" viewBox="0 0 16 16" xmlns="http://www.w3.org/2000/svg">
<path d="M8 0C6.41775 0 4.87103 0.469192 3.55544 1.34824C2.23985 2.22729 1.21447 3.47672 0.608967 4.93853C0.00346628 6.40034 -0.15496 8.00887 0.153721 9.56072C0.462403 11.1126 1.22433 12.538 2.34315 13.6569C3.46197 14.7757 4.88743 15.5376 6.43928 15.8463C7.99113 16.155 9.59966 15.9965 11.0615 15.391C12.5233 14.7855 13.7727 13.7602 14.6518 12.4446C15.5308 11.129 16 9.58225 16 8C15.9974 5.87908 15.1536 3.84579 13.6539 2.34607C12.1542 0.84635 10.1209 0.00264619 8 0ZM11.0769 8.61538H8.61539V11.0769C8.61539 11.2401 8.55055 11.3967 8.43514 11.5121C8.31974 11.6275 8.16321 11.6923 8 11.6923C7.83679 11.6923 7.68027 11.6275 7.56486 11.5121C7.44945 11.3967 7.38462 11.2401 7.38462 11.0769V8.61538H4.92308C4.75987 8.61538 4.60334 8.55055 4.48794 8.43514C4.37253 8.31973 4.30769 8.16321 4.30769 8C4.30769 7.83679 4.37253 7.68026 4.48794 7.56486C4.60334 7.44945 4.75987 7.38461 4.92308 7.38461H7.38462V4.92308C7.38462 4.75987 7.44945 4.60334 7.56486 4.48793C7.68027 4.37253 7.83679 4.30769 8 4.30769C8.16321 4.30769 8.31974 4.37253 8.43514 4.48793C8.55055 4.60334 8.61539 4.75987 8.61539 4.92308V7.38461H11.0769C11.2401 7.38461 11.3967 7.44945 11.5121 7.56486C11.6275 7.68026 11.6923 7.83679 11.6923 8C11.6923 8.16321 11.6275 8.31973 11.5121 8.43514C11.3967 8.55055 11.2401 8.61538 11.0769 8.61538Z"/>
</svg>
