<svg fill="currentColor" width="16" height="16" viewBox="0 0 16 16" xmlns="http://www.w3.org/2000/svg">
<path d="M2.12926 4.56132C2.10029 4.60704 2.07184 4.65314 2.04393 4.69961C1.44426 5.69805 1.11331 6.83474 1.08328 7.99904C1.05325 9.16334 1.32517 10.3156 1.87257 11.3436L1.13635 13.5523C1.07536 13.7352 1.06651 13.9314 1.11079 14.119C1.15506 14.3066 1.25071 14.4782 1.38702 14.6145C1.52333 14.7508 1.6949 14.8465 1.88251 14.8907C2.07013 14.935 2.26636 14.9262 2.44923 14.8652L4.65791 14.1289C5.56263 14.6102 6.5651 14.8789 7.58921 14.9149C8.61332 14.9508 9.63215 14.7529 10.5684 14.3363C10.8702 14.202 11.1608 14.0462 11.4382 13.8703L7.29769 9.72975H5.75284C5.61521 9.72975 5.48322 9.67508 5.3859 9.57776C5.28859 9.48044 5.23391 9.34845 5.23391 9.21082C5.23391 9.0732 5.28859 8.94121 5.3859 8.84389C5.48322 8.74657 5.61521 8.6919 5.75284 8.6919H6.25984L2.12926 4.56132Z"/>
<path d="M13.8577 11.1937C14.0784 10.753 14.2508 10.288 14.371 9.80677C14.6192 8.81253 14.6376 7.77483 14.4248 6.77241C14.2121 5.77 13.7738 4.82923 13.1431 4.02151C12.5125 3.21379 11.7062 2.56035 10.7853 2.11079C9.86446 1.66122 8.85328 1.42736 7.82854 1.42694C6.77744 1.42671 5.74244 1.67207 4.80547 2.14148L9.28018 6.61619H9.90425C10.0419 6.61619 10.1739 6.67087 10.2712 6.76818C10.3685 6.8655 10.4232 6.99749 10.4232 7.13512C10.4232 7.27275 10.3685 7.40474 10.2712 7.50206C10.2535 7.51975 10.2346 7.53604 10.2148 7.55084L13.8577 11.1937Z"/>
<path fill-rule="evenodd" clip-rule="evenodd" d="M0.316628 0.316628C0.738798 -0.105543 1.42327 -0.105543 1.84544 0.316628L15.6834 14.1546C16.1055 14.5767 16.1055 15.2612 15.6834 15.6834C15.2612 16.1055 14.5767 16.1055 14.1546 15.6834L0.316628 1.84544C-0.105543 1.42327 -0.105543 0.738798 0.316628 0.316628Z"/>
</svg>
