<svg fill="currentColor" width="16" height="16" viewBox="0 0 16 16" xmlns="http://www.w3.org/2000/svg">
<path d="M8 0C6.41775 0 4.87103 0.469192 3.55544 1.34824C2.23985 2.22729 1.21447 3.47672 0.608967 4.93853C0.00346628 6.40034 -0.15496 8.00887 0.153721 9.56072C0.462403 11.1126 1.22433 12.538 2.34315 13.6569C3.46197 14.7757 4.88743 15.5376 6.43928 15.8463C7.99113 16.155 9.59966 15.9965 11.0615 15.391C12.5233 14.7855 13.7727 13.7602 14.6518 12.4446C15.5308 11.129 16 9.58225 16 8C15.9978 5.87895 15.1542 3.84542 13.6544 2.34562C12.1546 0.845814 10.121 0.00223986 8 0ZM10.8969 7.82C10.8398 7.87721 10.7719 7.9226 10.6972 7.95357C10.6225 7.98454 10.5424 8.00048 10.4615 8.00048C10.3807 8.00048 10.3006 7.98454 10.2259 7.95357C10.1512 7.9226 10.0833 7.87721 10.0262 7.82L8.61539 6.40846V11.0769C8.61539 11.2401 8.55055 11.3967 8.43514 11.5121C8.31974 11.6275 8.16321 11.6923 8 11.6923C7.83679 11.6923 7.68027 11.6275 7.56486 11.5121C7.44945 11.3967 7.38462 11.2401 7.38462 11.0769V6.40846L5.97385 7.82C5.85838 7.93547 5.70176 8.00034 5.53846 8.00034C5.37516 8.00034 5.21855 7.93547 5.10308 7.82C4.98761 7.70453 4.92274 7.54791 4.92274 7.38461C4.92274 7.22131 4.98761 7.0647 5.10308 6.94923L7.56462 4.48769C7.62177 4.43047 7.68964 4.38508 7.76435 4.35412C7.83905 4.32315 7.91913 4.30721 8 4.30721C8.08087 4.30721 8.16095 4.32315 8.23566 4.35412C8.31036 4.38508 8.37823 4.43047 8.43539 4.48769L10.8969 6.94923C10.9541 7.00638 10.9995 7.07425 11.0305 7.14896C11.0615 7.22366 11.0774 7.30374 11.0774 7.38461C11.0774 7.46548 11.0615 7.54556 11.0305 7.62027C10.9995 7.69498 10.9541 7.76285 10.8969 7.82Z"/>
</svg>
