<svg fill="currentColor" width="16" height="16" viewBox="0 0 16 16" xmlns="http://www.w3.org/2000/svg">
<path d="M8 0C6.41775 0 4.87103 0.469192 3.55544 1.34824C2.23985 2.22729 1.21447 3.47672 0.608967 4.93853C0.00346628 6.40034 -0.15496 8.00887 0.153721 9.56072C0.462403 11.1126 1.22433 12.538 2.34315 13.6569C3.46197 14.7757 4.88743 15.5376 6.43928 15.8463C7.99113 16.155 9.59966 15.9965 11.0615 15.391C12.5233 14.7855 13.7727 13.7602 14.6518 12.4446C15.5308 11.129 16 9.58225 16 8C15.9978 5.87895 15.1542 3.84542 13.6544 2.34562C12.1546 0.845814 10.121 0.00223986 8 0ZM10.8969 9.05077L8.43539 11.5123C8.37823 11.5695 8.31036 11.6149 8.23566 11.6459C8.16095 11.6768 8.08087 11.6928 8 11.6928C7.91913 11.6928 7.83905 11.6768 7.76435 11.6459C7.68964 11.6149 7.62177 11.5695 7.56462 11.5123L5.10308 9.05077C4.98761 8.9353 4.92274 8.77868 4.92274 8.61538C4.92274 8.45208 4.98761 8.29547 5.10308 8.18C5.21855 8.06453 5.37516 7.99966 5.53846 7.99966C5.70176 7.99966 5.85838 8.06453 5.97385 8.18L7.38462 9.59154V4.92308C7.38462 4.75987 7.44945 4.60334 7.56486 4.48793C7.68027 4.37253 7.83679 4.30769 8 4.30769C8.16321 4.30769 8.31974 4.37253 8.43514 4.48793C8.55055 4.60334 8.61539 4.75987 8.61539 4.92308V9.59154L10.0262 8.18C10.1416 8.06453 10.2982 7.99966 10.4615 7.99966C10.6248 7.99966 10.7815 8.06453 10.8969 8.18C11.0124 8.29547 11.0773 8.45208 11.0773 8.61538C11.0773 8.77868 11.0124 8.9353 10.8969 9.05077Z"/>
</svg>
