<svg fill="currentColor" width="16" height="16" viewBox="0 0 16 16" xmlns="http://www.w3.org/2000/svg">
<path d="M8 0C6.41775 0 4.87103 0.469192 3.55544 1.34824C2.23985 2.22729 1.21447 3.47672 0.608967 4.93853C0.00346628 6.40034 -0.15496 8.00887 0.153721 9.56072C0.462403 11.1126 1.22433 12.538 2.34315 13.6569C3.46197 14.7757 4.88743 15.5376 6.43928 15.8463C7.99113 16.155 9.59966 15.9965 11.0615 15.391C12.5233 14.7855 13.7727 13.7602 14.6518 12.4446C15.5308 11.129 16 9.58225 16 8C15.9978 5.87895 15.1542 3.84542 13.6544 2.34562C12.1546 0.845814 10.121 0.00223986 8 0ZM11.0769 8.61538H6.40846L7.82 10.0262C7.87718 10.0833 7.92253 10.1512 7.95347 10.2259C7.98442 10.3006 8.00034 10.3807 8.00034 10.4615C8.00034 10.5424 7.98442 10.6225 7.95347 10.6972C7.92253 10.7719 7.87718 10.8397 7.82 10.8969C7.76283 10.9541 7.69495 10.9994 7.62025 11.0304C7.54554 11.0613 7.46548 11.0773 7.38462 11.0773C7.30376 11.0773 7.22369 11.0613 7.14899 11.0304C7.07429 10.9994 7.00641 10.9541 6.94923 10.8969L4.48769 8.43538C4.43048 8.37823 4.38509 8.31036 4.35412 8.23565C4.32315 8.16095 4.30721 8.08087 4.30721 8C4.30721 7.91913 4.32315 7.83905 4.35412 7.76434C4.38509 7.68964 4.43048 7.62177 4.48769 7.56461L6.94923 5.10308C7.0647 4.9876 7.22132 4.92273 7.38462 4.92273C7.54792 4.92273 7.70453 4.9876 7.82 5.10308C7.93547 5.21855 8.00034 5.37516 8.00034 5.53846C8.00034 5.70176 7.93547 5.85837 7.82 5.97385L6.40846 7.38461H11.0769C11.2401 7.38461 11.3967 7.44945 11.5121 7.56486C11.6275 7.68026 11.6923 7.83679 11.6923 8C11.6923 8.16321 11.6275 8.31973 11.5121 8.43514C11.3967 8.55055 11.2401 8.61538 11.0769 8.61538Z"/>
</svg>
