<svg fill="currentColor" width="16" height="16" viewBox="0 0 16 16" xmlns="http://www.w3.org/2000/svg">
<path d="M8 0C6.41775 0 4.87103 0.469192 3.55544 1.34824C2.23985 2.22729 1.21447 3.47672 0.608967 4.93853C0.00346628 6.40034 -0.15496 8.00887 0.153721 9.56072C0.462403 11.1126 1.22433 12.538 2.34315 13.6569C3.46197 14.7757 4.88743 15.5376 6.43928 15.8463C7.99113 16.155 9.59966 15.9965 11.0615 15.391C12.5233 14.7855 13.7727 13.7602 14.6518 12.4446C15.5308 11.129 16 9.58225 16 8C15.9978 5.87895 15.1542 3.84542 13.6544 2.34562C12.1546 0.845814 10.121 0.00223986 8 0ZM11.5123 8.43538L9.05077 10.8969C8.9353 11.0124 8.77869 11.0773 8.61539 11.0773C8.45209 11.0773 8.29547 11.0124 8.18 10.8969C8.06453 10.7814 7.99966 10.6248 7.99966 10.4615C7.99966 10.2982 8.06453 10.1416 8.18 10.0262L9.59154 8.61538H4.92308C4.75987 8.61538 4.60334 8.55055 4.48794 8.43514C4.37253 8.31973 4.30769 8.16321 4.30769 8C4.30769 7.83679 4.37253 7.68026 4.48794 7.56486C4.60334 7.44945 4.75987 7.38461 4.92308 7.38461H9.59154L8.18 5.97385C8.06453 5.85837 7.99966 5.70176 7.99966 5.53846C7.99966 5.37516 8.06453 5.21855 8.18 5.10308C8.29547 4.9876 8.45209 4.92273 8.61539 4.92273C8.77869 4.92273 8.9353 4.9876 9.05077 5.10308L11.5123 7.56461C11.5695 7.62177 11.6149 7.68964 11.6459 7.76434C11.6769 7.83905 11.6928 7.91913 11.6928 8C11.6928 8.08087 11.6769 8.16095 11.6459 8.23565C11.6149 8.31036 11.5695 8.37823 11.5123 8.43538Z"/>
</svg>
