<svg fill="currentColor" width="16" height="16" viewBox="0 0 16 16" xmlns="http://www.w3.org/2000/svg">
<path d="M8 0C6.41775 0 4.87103 0.469192 3.55544 1.34824C2.23985 2.22729 1.21447 3.47672 0.608967 4.93853C0.00346628 6.40034 -0.15496 8.00887 0.153721 9.56072C0.462403 11.1126 1.22433 12.538 2.34315 13.6569C3.46197 14.7757 4.88743 15.5376 6.43928 15.8463C7.99113 16.155 9.59966 15.9965 11.0615 15.391C12.5233 14.7855 13.7727 13.7602 14.6518 12.4446C15.5308 11.129 16 9.58225 16 8C15.9978 5.87895 15.1542 3.84542 13.6544 2.34562C12.1546 0.845814 10.121 0.00223986 8 0ZM10.8969 3.87231C10.8398 3.81509 10.7719 3.7697 10.6972 3.73873C10.6225 3.70776 10.5424 3.69182 10.4615 3.69182C10.3807 3.69182 10.3006 3.70776 10.2259 3.73873C10.1512 3.7697 10.0833 3.81509 10.0262 3.87231L4.85308 9.15384C4.68135 9.32512 4.54504 9.52854 4.45193 9.75249C4.35881 9.97645 4.31072 10.2165 4.3104 10.4591C4.31008 10.7016 4.35753 10.9419 4.45005 11.1661C4.54257 11.3903 4.67834 11.594 4.84962 11.7658C5.02089 11.9375 5.22431 12.0738 5.44827 12.1669C5.67222 12.26 5.91232 12.3081 6.15486 12.3084C6.3974 12.3088 6.63763 12.2613 6.86183 12.1688C7.08603 12.0763 7.28981 11.9405 7.46154 11.7692L11.2554 7.89846C11.3114 7.83854 11.3789 7.79044 11.4538 7.75697C11.5287 7.7235 11.6095 7.70535 11.6915 7.70358C11.7736 7.70181 11.8551 7.71646 11.9314 7.74667C12.0077 7.77687 12.0771 7.82202 12.1357 7.87947C12.1943 7.93691 12.2408 8.00549 12.2725 8.08116C12.3041 8.15684 12.3204 8.23809 12.3202 8.32013C12.32 8.40217 12.3035 8.48334 12.2715 8.55888C12.2394 8.63442 12.1927 8.7028 12.1338 8.76L8.33615 12.6354C8.0519 12.9266 7.71271 13.1586 7.3382 13.3178C6.96369 13.477 6.56132 13.5604 6.15437 13.5631C5.74743 13.5657 5.344 13.4876 4.96744 13.3333C4.59088 13.179 4.24867 12.9515 3.96063 12.664C3.67259 12.3765 3.44444 12.0348 3.28939 11.6585C3.13434 11.2823 3.05547 10.879 3.05734 10.472C3.05921 10.0651 3.14179 9.66255 3.3003 9.28774C3.45881 8.91292 3.6901 8.57328 3.98077 8.28846L9.15385 3.00692C9.32512 2.83519 9.52854 2.69888 9.7525 2.60577C9.97645 2.51266 10.2166 2.46457 10.4591 2.46424C10.7016 2.46392 10.9419 2.51138 11.1661 2.6039C11.3903 2.69641 11.594 2.83219 11.7658 3.00346C11.9375 3.17473 12.0738 3.37816 12.1669 3.60211C12.26 3.82606 12.3081 4.06617 12.3084 4.30871C12.3088 4.55124 12.2613 4.79147 12.1688 5.01567C12.0763 5.23987 11.9405 5.44365 11.7692 5.61538L6.59308 10.8923C6.53704 10.9522 6.46958 11.0003 6.39468 11.0338C6.31978 11.0673 6.23894 11.0854 6.15692 11.0872C6.07489 11.089 5.99335 11.0743 5.91707 11.0441C5.84079 11.0139 5.77133 10.9687 5.71275 10.9113C5.65418 10.8539 5.60769 10.7853 5.576 10.7096C5.54432 10.6339 5.52809 10.5527 5.52826 10.4706C5.52843 10.3886 5.54501 10.3074 5.57701 10.2319C5.60902 10.1563 5.6558 10.088 5.71462 10.0308L10.8923 4.74692C10.9504 4.69001 10.9966 4.62214 11.0284 4.54724C11.0601 4.47235 11.0766 4.39191 11.077 4.31058C11.0775 4.22925 11.0618 4.14864 11.0309 4.07341C10.9999 3.99818 10.9544 3.92983 10.8969 3.87231Z"/>
</svg>
