<svg fill="currentColor" width="16" height="16" viewBox="0 0 16 16" xmlns="http://www.w3.org/2000/svg">
<path d="M16 2.46138V6.15359C16 6.3168 15.9352 6.47332 15.8198 6.58872C15.7043 6.70413 15.5478 6.76896 15.3846 6.76896H11.6924C11.5706 6.76906 11.4516 6.73302 11.3503 6.66541C11.249 6.5978 11.17 6.50165 11.1234 6.38915C11.0768 6.27665 11.0646 6.15284 11.0884 6.03341C11.1122 5.91397 11.1709 5.80428 11.257 5.71822L12.5647 4.41056L11.7532 3.66827L11.7339 3.64981C10.8786 2.79483 9.79036 2.21082 8.60507 1.97074C7.41978 1.73066 6.19002 1.84515 5.06942 2.29992C3.94882 2.75469 2.98707 3.52957 2.3043 4.52776C1.62153 5.52595 1.24802 6.70319 1.23042 7.91242C1.21283 9.12166 1.55193 10.3093 2.20537 11.3269C2.85881 12.3445 3.79762 13.1471 4.90451 13.6342C6.01141 14.1214 7.23731 14.2716 8.42909 14.0661C9.62086 13.8607 10.7257 13.3085 11.6055 12.4788C11.6642 12.4233 11.7333 12.3798 11.8089 12.351C11.8844 12.3221 11.9649 12.3084 12.0457 12.3107C12.1265 12.3129 12.2061 12.3311 12.2799 12.3641C12.3537 12.3971 12.4203 12.4443 12.4758 12.503C12.5314 12.5618 12.5749 12.6309 12.6037 12.7064C12.6326 12.7819 12.6462 12.8624 12.644 12.9432C12.6417 13.0241 12.6236 13.1036 12.5906 13.1775C12.5576 13.2513 12.5104 13.3178 12.4516 13.3734C11.0833 14.6691 9.26923 15.389 7.38483 15.3841H7.28329C6.07389 15.3676 4.88707 15.0542 3.82715 14.4715C2.76723 13.8889 1.86665 13.0548 1.20457 12.0426C0.542496 11.0303 0.139188 9.871 0.0300985 8.66641C-0.0789914 7.46183 0.109477 6.24889 0.578937 5.1342C1.0484 4.01951 1.78448 3.0372 2.72248 2.27361C3.66049 1.51002 4.7717 0.988524 5.95844 0.754958C7.14519 0.521393 8.37115 0.58291 9.52855 0.934102C10.686 1.28529 11.7394 1.91541 12.5962 2.76906L13.437 3.53828L14.9492 2.02293C15.0355 1.93658 15.1455 1.87783 15.2652 1.85414C15.3849 1.83046 15.509 1.8429 15.6216 1.8899C15.7342 1.9369 15.8303 2.01632 15.8977 2.11808C15.9651 2.21984 16.0007 2.33934 16 2.46138Z"/>
<path d="M9.60232 10.3166L10.4653 9.45399C10.5232 9.39602 10.5558 9.31741 10.5558 9.23545C10.5558 9.15348 10.5232 9.07487 10.4653 9.01691C10.4073 8.95895 10.3287 8.92638 10.2467 8.92638C10.1648 8.92638 10.0862 8.95895 10.0282 9.01691L9.16563 9.87987L7.57678 8.29063C8.0809 8.2224 8.54033 7.96534 8.86222 7.57141C9.18411 7.17748 9.34447 6.67605 9.31088 6.16844C9.2773 5.66083 9.05227 5.18489 8.68129 4.8368C8.3103 4.48872 7.82101 4.29443 7.31229 4.29322H5.30451C5.22259 4.29322 5.14402 4.32576 5.08609 4.38369C5.02816 4.44162 4.99562 4.52018 4.99562 4.60211V10.471C4.99562 10.5529 5.02816 10.6315 5.08609 10.6894C5.14402 10.7473 5.22259 10.7799 5.30451 10.7799C5.38643 10.7799 5.465 10.7473 5.52293 10.6894C5.58085 10.6315 5.6134 10.5529 5.6134 10.471V8.30878H6.72115L8.72893 10.3166L7.86597 11.1791C7.80801 11.2371 7.77545 11.3157 7.77545 11.3977C7.77545 11.4796 7.80801 11.5582 7.86597 11.6162C7.92393 11.6742 8.00254 11.7067 8.08451 11.7067C8.16648 11.7067 8.24509 11.6742 8.30305 11.6162L9.16563 10.7533L10.0282 11.6162C10.0569 11.6449 10.091 11.6677 10.1285 11.6832C10.166 11.6987 10.2062 11.7067 10.2467 11.7067C10.2873 11.7067 10.3275 11.6987 10.365 11.6832C10.4025 11.6677 10.4366 11.6449 10.4653 11.6162C10.494 11.5875 10.5167 11.5534 10.5323 11.5159C10.5478 11.4784 10.5558 11.4383 10.5558 11.3977C10.5558 11.3571 10.5478 11.3169 10.5323 11.2794C10.5167 11.2419 10.494 11.2078 10.4653 11.1791L9.60232 10.3166ZM5.6134 4.91099H7.31229C7.68094 4.91099 8.03449 5.05744 8.29517 5.31812C8.55585 5.57879 8.70229 5.93235 8.70229 6.301C8.70229 6.66965 8.55585 7.0232 8.29517 7.28388C8.03449 7.54455 7.68094 7.691 7.31229 7.691H5.6134V4.91099Z"/>
</svg>
