<svg fill="currentColor" width="16" height="16" viewBox="0 0 16 16" xmlns="http://www.w3.org/2000/svg">
<path d="M16 2.46138V6.15359C16 6.3168 15.9352 6.47332 15.8198 6.58872C15.7043 6.70413 15.5478 6.76896 15.3846 6.76896H11.6924C11.5706 6.76906 11.4516 6.73302 11.3503 6.66541C11.249 6.5978 11.17 6.50165 11.1234 6.38915C11.0768 6.27665 11.0646 6.15284 11.0884 6.03341C11.1122 5.91397 11.1709 5.80428 11.257 5.71822L12.5647 4.41056L11.7532 3.66827L11.7339 3.64981C10.8786 2.79483 9.79036 2.21082 8.60507 1.97074C7.41978 1.73066 6.19002 1.84515 5.06942 2.29992C3.94882 2.75469 2.98707 3.52957 2.3043 4.52776C1.62153 5.52595 1.24802 6.70319 1.23042 7.91242C1.21283 9.12166 1.55193 10.3093 2.20537 11.3269C2.85881 12.3445 3.79762 13.1471 4.90451 13.6342C6.01141 14.1214 7.23731 14.2716 8.42909 14.0661C9.62086 13.8607 10.7257 13.3086 11.6055 12.4788C11.6642 12.4233 11.7333 12.3798 11.8089 12.351C11.8844 12.3221 11.9649 12.3084 12.0457 12.3107C12.1265 12.3129 12.2061 12.3311 12.2799 12.3641C12.3537 12.3971 12.4203 12.4443 12.4758 12.503C12.5314 12.5618 12.5749 12.6309 12.6037 12.7064C12.6326 12.7819 12.6462 12.8624 12.644 12.9432C12.6417 13.0241 12.6236 13.1036 12.5906 13.1775C12.5576 13.2513 12.5104 13.3178 12.4516 13.3734C11.0833 14.6691 9.26923 15.389 7.38483 15.3841H7.28329C6.07389 15.3676 4.88707 15.0542 3.82715 14.4715C2.76723 13.8889 1.86665 13.0548 1.20457 12.0426C0.542496 11.0303 0.139188 9.871 0.0300985 8.66641C-0.0789914 7.46183 0.109477 6.24889 0.578937 5.1342C1.0484 4.01951 1.78448 3.0372 2.72248 2.27361C3.66049 1.51002 4.7717 0.988524 5.95844 0.754958C7.14519 0.521393 8.37115 0.58291 9.52855 0.934102C10.686 1.28529 11.7394 1.91541 12.5962 2.76906L13.437 3.53828L14.9492 2.02293C15.0355 1.93658 15.1455 1.87783 15.2652 1.85414C15.3849 1.83046 15.509 1.8429 15.6216 1.8899C15.7342 1.9369 15.8303 2.01632 15.8977 2.11808C15.9651 2.21984 16.0007 2.33934 16 2.46138Z"/>
<path d="M7.86339 7.4908H7.42817V5.11429H7.57324C7.84257 5.11429 8.10087 5.23948 8.29132 5.46232C8.48177 5.68516 8.58876 5.9874 8.58876 6.30254C8.58876 6.43761 8.63461 6.56714 8.71623 6.66264C8.79785 6.75814 8.90855 6.8118 9.02398 6.8118C9.13941 6.8118 9.25011 6.75814 9.33173 6.66264C9.41335 6.56714 9.4592 6.43761 9.4592 6.30254C9.45863 5.71748 9.25974 5.15657 8.90618 4.74287C8.55262 4.32917 8.07325 4.09645 7.57324 4.09578H7.42817V3.58653C7.42817 3.45147 7.38231 3.32193 7.30069 3.22643C7.21907 3.13093 7.10837 3.07727 6.99295 3.07727C6.87752 3.07727 6.76682 3.13093 6.6852 3.22643C6.60358 3.32193 6.55772 3.45147 6.55772 3.58653V4.09578H6.41265C5.91246 4.09578 5.43276 4.32828 5.07908 4.74213C4.72539 5.15598 4.52669 5.71727 4.52669 6.30254C4.52669 6.88781 4.72539 7.44911 5.07908 7.86296C5.43276 8.27681 5.91246 8.50931 6.41265 8.50931H6.55772V10.8858H6.1225C5.85317 10.8858 5.59487 10.7606 5.40442 10.5378C5.21398 10.3149 5.10699 10.0127 5.10699 9.69757C5.10699 9.5625 5.06113 9.43297 4.97951 9.33747C4.89789 9.24197 4.78719 9.18831 4.67176 9.18831C4.55634 9.18831 4.44564 9.24197 4.36402 9.33747C4.2824 9.43297 4.23654 9.5625 4.23654 9.69757C4.23712 10.2826 4.436 10.8435 4.78956 11.2572C5.14313 11.6709 5.62249 11.9037 6.1225 11.9043H6.55772V12.4136C6.55772 12.5486 6.60358 12.6782 6.6852 12.7737C6.76682 12.8692 6.87752 12.9228 6.99295 12.9228C7.10837 12.9228 7.21907 12.8692 7.30069 12.7737C7.38231 12.6782 7.42817 12.5486 7.42817 12.4136V11.9043H7.86339C8.36358 11.9043 8.84328 11.6718 9.19696 11.258C9.55065 10.8441 9.74935 10.2828 9.74935 9.69757C9.74935 9.1123 9.55065 8.551 9.19696 8.13715C8.84328 7.7233 8.36358 7.4908 7.86339 7.4908ZM6.41265 7.4908C6.14332 7.4908 5.88502 7.36561 5.69457 7.14277C5.50413 6.91993 5.39713 6.61769 5.39713 6.30254C5.39713 5.9874 5.50413 5.68516 5.69457 5.46232C5.88502 5.23948 6.14332 5.11429 6.41265 5.11429H6.55772V7.4908H6.41265ZM7.86339 10.8858H7.42817V8.50931H7.86339C8.13272 8.50931 8.39102 8.6345 8.58147 8.85734C8.77191 9.08018 8.87891 9.38242 8.87891 9.69757C8.87891 10.0127 8.77191 10.3149 8.58147 10.5378C8.39102 10.7606 8.13272 10.8858 7.86339 10.8858Z"/>
</svg>
