<svg fill="currentColor" width="16" height="16" viewBox="0 0 16 16" xmlns="http://www.w3.org/2000/svg">
<path d="M15.7623 3.03216C16.7923 2.00214 14.0449 -0.836048 12.9694 0.239279L9.08494 4.12579H9.0785C8.78284 3.94224 8.44966 3.82762 8.10366 3.79042C7.75767 3.75321 7.40773 3.79438 7.07982 3.91088C6.7519 4.02737 6.45443 4.2162 6.20945 4.46335C5.96447 4.71051 5.77828 5.00964 5.66469 5.33857C5.64449 5.39705 5.62668 5.4562 5.61128 5.51588C5.55109 5.53138 5.49144 5.54931 5.43247 5.56968C5.10354 5.68327 4.8044 5.86946 4.55725 6.11444C4.3101 6.35942 4.12127 6.6569 4.00478 6.98481C3.88828 7.31273 3.84711 7.66266 3.88431 8.00866C3.92152 8.35466 4.03614 8.68784 4.21969 8.98349C4.21996 8.9852 4.21996 8.98694 4.21969 8.98864L0.108037 13.1023C0.108037 13.1023 -0.172684 13.4235 0.17089 13.7669C0.514463 14.1104 0.835518 13.8298 0.835518 13.8298L4.95183 9.7137C5.11624 9.54795 5.21948 9.33126 5.24463 9.09916C5.26978 8.86705 5.21536 8.63328 5.09027 8.43616C4.98063 8.25979 4.91527 8.05953 4.89975 7.85244C4.88424 7.64535 4.91903 7.43758 5.00117 7.24685C5.08331 7.05611 5.21035 6.88807 5.37147 6.75705C5.53259 6.62602 5.723 6.53591 5.92648 6.49439C6.12995 6.45286 6.34045 6.46116 6.54003 6.51857C6.7396 6.57598 6.92234 6.6808 7.07264 6.8241C7.13937 6.88771 7.19883 6.95807 7.25017 7.03385C7.52924 7.54058 7.60262 8.39951 7.60262 8.39951C7.64064 8.74543 7.75604 9.07834 7.94027 9.37356C8.12451 9.66879 8.37284 9.91874 8.66686 10.1049C8.89067 10.2466 9.13658 10.3485 9.39372 10.4069C9.34536 10.5 9.28555 10.5873 9.21525 10.6667L9.21782 10.6635C9.01638 10.8941 8.73935 11.0455 8.43642 11.0903C8.13349 11.1351 7.82449 11.0706 7.56487 10.9082C7.36721 10.7828 7.13274 10.7284 6.90006 10.754C6.66738 10.7797 6.45036 10.8838 6.28475 11.0492L2.16973 15.164C2.16973 15.164 1.8935 15.4841 2.23699 15.8275C2.58048 16.1709 2.90048 15.8948 2.90048 15.8948L7.01367 11.7813H7.02011C7.48792 12.076 8.04564 12.1937 8.59263 12.1134C9.13963 12.033 9.63988 11.7597 10.0031 11.3429C10.2445 11.0659 10.4149 10.7377 10.5034 10.3864C10.5573 10.372 10.6107 10.3557 10.6636 10.3375C10.9925 10.2239 11.2916 10.0377 11.5388 9.79269C11.7859 9.54771 11.9748 9.25024 12.0913 8.92232C12.2077 8.59441 12.2489 8.24447 12.2117 7.89847C12.1745 7.55248 12.0599 7.2193 11.8763 6.92364L11.8762 6.92109L11.8763 6.91849L15.7623 3.03216Z"/>
</svg>
