<svg fill="currentColor" width="16" height="16" viewBox="0 0 16 16" xmlns="http://www.w3.org/2000/svg">
<path d="M14.1538 1.23077H12.3077V0.615385C12.3077 0.452174 12.2428 0.295649 12.1274 0.180242C12.012 0.064835 11.8555 0 11.6923 0C11.5291 0 11.3725 0.064835 11.2571 0.180242C11.1417 0.295649 11.0769 0.452174 11.0769 0.615385V1.23077H4.92305V0.615385C4.92305 0.452174 4.85821 0.295649 4.74281 0.180242C4.6274 0.064835 4.47087 0 4.30766 0C4.14445 0 3.98793 0.064835 3.87252 0.180242C3.75711 0.295649 3.69228 0.452174 3.69228 0.615385V1.23077H1.84613C1.51971 1.23077 1.20665 1.36044 0.97584 1.59125C0.745026 1.82207 0.615356 2.13512 0.615356 2.46154V14.7692C0.615356 15.0957 0.745026 15.4087 0.97584 15.6395C1.20665 15.8703 1.51971 16 1.84613 16H14.1538C14.4802 16 14.7933 15.8703 15.0241 15.6395C15.2549 15.4087 15.3846 15.0957 15.3846 14.7692V2.46154C15.3846 2.13512 15.2549 1.82207 15.0241 1.59125C14.7933 1.36044 14.4802 1.23077 14.1538 1.23077ZM6.7692 12.9231C6.7692 13.0863 6.70437 13.2428 6.58896 13.3582C6.47355 13.4736 6.31703 13.5385 6.15382 13.5385C5.99061 13.5385 5.83408 13.4736 5.71868 13.3582C5.60327 13.2428 5.53843 13.0863 5.53843 12.9231V8.99539L5.19843 9.16615C5.05236 9.23919 4.88326 9.25121 4.72832 9.19956C4.57339 9.14792 4.44532 9.03684 4.37228 8.89077C4.29924 8.7447 4.28723 8.57559 4.33887 8.42066C4.39051 8.26573 4.50159 8.13765 4.64766 8.06462L5.87843 7.44923C5.97229 7.40227 6.0766 7.38008 6.18144 7.3848C6.28629 7.38951 6.38818 7.42095 6.47745 7.47615C6.56671 7.53134 6.64038 7.60845 6.69145 7.70013C6.74251 7.79182 6.76928 7.89505 6.7692 8V12.9231ZM11.0769 12.3077C11.2401 12.3077 11.3966 12.3725 11.512 12.4879C11.6274 12.6033 11.6923 12.7599 11.6923 12.9231C11.6923 13.0863 11.6274 13.2428 11.512 13.3582C11.3966 13.4736 11.2401 13.5385 11.0769 13.5385H8.61536C8.50107 13.5385 8.38905 13.5066 8.29183 13.4466C8.19461 13.3865 8.11605 13.3005 8.06494 13.1983C8.01383 13.0961 7.99219 12.9816 8.00246 12.8678C8.01272 12.754 8.05448 12.6453 8.12305 12.5538L10.3369 9.60231C10.3873 9.53527 10.4234 9.45865 10.4431 9.37715C10.4627 9.29565 10.4656 9.21098 10.4513 9.12836C10.4371 9.04573 10.4062 8.96687 10.3604 8.89664C10.3146 8.8264 10.2549 8.76626 10.1851 8.71991C10.1152 8.67356 10.0366 8.64198 9.95408 8.6271C9.87156 8.61222 9.78688 8.61436 9.70523 8.63338C9.62357 8.6524 9.54666 8.68791 9.47922 8.73773C9.41178 8.78755 9.35524 8.85062 9.31305 8.92308C9.27384 8.99529 9.22055 9.05893 9.15635 9.11022C9.09214 9.16151 9.01831 9.19942 8.93922 9.22172C8.86013 9.24401 8.77737 9.25024 8.69582 9.24004C8.61428 9.22983 8.53561 9.2034 8.46445 9.16229C8.39329 9.12119 8.33109 9.06625 8.2815 9.00072C8.23192 8.93519 8.19597 8.86038 8.17576 8.78073C8.15555 8.70108 8.15151 8.61818 8.16386 8.53694C8.17621 8.45569 8.2047 8.37774 8.24766 8.30769C8.45094 7.95591 8.76459 7.68102 9.13998 7.52562C9.51538 7.37021 9.93155 7.34298 10.324 7.44815C10.7164 7.55331 11.0632 7.785 11.3106 8.10729C11.558 8.42958 11.6921 8.82448 11.6923 9.23077C11.6936 9.63211 11.5627 10.0227 11.32 10.3423L9.84613 12.3077H11.0769ZM1.84613 4.92308V2.46154H3.69228V3.07692C3.69228 3.24013 3.75711 3.39666 3.87252 3.51207C3.98793 3.62747 4.14445 3.69231 4.30766 3.69231C4.47087 3.69231 4.6274 3.62747 4.74281 3.51207C4.85821 3.39666 4.92305 3.24013 4.92305 3.07692V2.46154H11.0769V3.07692C11.0769 3.24013 11.1417 3.39666 11.2571 3.51207C11.3725 3.62747 11.5291 3.69231 11.6923 3.69231C11.8555 3.69231 12.012 3.62747 12.1274 3.51207C12.2428 3.39666 12.3077 3.24013 12.3077 3.07692V2.46154H14.1538V4.92308H1.84613Z"/>
</svg>
