<svg fill="currentColor" width="16" height="16" viewBox="0 0 16 16" xmlns="http://www.w3.org/2000/svg">
<path d="M15.9907 12.0864C15.848 13.1705 15.3157 14.1655 14.493 14.8857C13.6703 15.606 12.6136 16.0021 11.5202 16.0001C5.1681 16.0001 7.23904e-06 10.832 7.23904e-06 4.47992C-0.00195278 3.38653 0.394164 2.32982 1.11437 1.50714C1.83458 0.684465 2.82963 0.152086 3.91367 0.00943827C4.1878 -0.0240336 4.4654 0.0320482 4.70504 0.169312C4.94467 0.306575 5.13349 0.517659 5.2433 0.771051L6.93293 4.54312V4.55272C7.017 4.74668 7.05172 4.95845 7.03399 5.16911C7.01626 5.37977 6.94663 5.58275 6.83133 5.75994C6.81692 5.78154 6.80172 5.80154 6.78572 5.82154L5.1201 7.79597C5.71931 9.01359 6.99293 10.276 8.22655 10.8768L10.1738 9.22C10.1929 9.20392 10.2129 9.18896 10.2338 9.1752C10.4108 9.05712 10.6145 8.98504 10.8264 8.96548C11.0383 8.94593 11.2517 8.97951 11.4474 9.06319L11.4578 9.068L15.2267 10.7568C15.4805 10.8662 15.6921 11.0549 15.8298 11.2946C15.9675 11.5342 16.024 11.812 15.9907 12.0864Z"/>
</svg>
