<svg fill="currentColor" width="16" height="16" viewBox="0 0 16 16" xmlns="http://www.w3.org/2000/svg">
<path d="M15.9445 11.9147C15.8895 12.0476 15.7963 12.1612 15.6767 12.2411C15.5571 12.321 15.4165 12.3637 15.2727 12.3637L0.727817 12.3637C0.583898 12.3638 0.443182 12.3213 0.323482 12.2413C0.203782 12.1614 0.110481 12.0478 0.0553905 11.9149C0.000299984 11.7819 -0.0141028 11.6356 0.0140055 11.4944C0.0421137 11.3533 0.111469 11.2237 0.213292 11.122L7.48573 3.84952C7.55327 3.7819 7.63348 3.72826 7.72176 3.69167C7.81005 3.65507 7.90468 3.63623 8.00026 3.63623C8.09583 3.63623 8.19046 3.65507 8.27875 3.69167C8.36703 3.72826 8.44724 3.7819 8.51478 3.84952L15.7872 11.122C15.8889 11.2237 15.9581 11.3534 15.9861 11.4945C16.0141 11.6356 15.9996 11.7818 15.9445 11.9147Z"/>
</svg>
