<svg fill="currentColor" width="16" height="17" viewBox="0 0 16 17" xmlns="http://www.w3.org/2000/svg">
<path d="M15.7867 8.51483L8.51425 15.7873C8.41254 15.8891 8.28291 15.9585 8.14176 15.9866C8.00061 16.0147 7.8543 16.0003 7.72134 15.9452C7.58838 15.8901 7.47476 15.7968 7.39486 15.6771C7.31496 15.5574 7.27236 15.4167 7.27248 15.2728V9.75569L1.24178 15.7873C1.14007 15.8891 1.01043 15.9585 0.869284 15.9866C0.728137 16.0147 0.581822 16.0003 0.448865 15.9452C0.315907 15.8901 0.202284 15.7968 0.122381 15.6771C0.042478 15.5574 -0.000113034 15.4167 2.25302e-07 15.2728V0.727821C-0.000113034 0.583901 0.042478 0.443184 0.122381 0.323484C0.202284 0.203783 0.315907 0.110482 0.448865 0.0553908C0.581822 0.000299985 0.728137 -0.0141029 0.869284 0.0140055C1.01043 0.0421139 1.14007 0.11147 1.24178 0.213293L7.27248 6.2449V0.727821C7.27236 0.583901 7.31496 0.443184 7.39486 0.323484C7.47476 0.203783 7.58838 0.110482 7.72134 0.0553908C7.8543 0.000299985 8.00061 -0.0141029 8.14176 0.0140055C8.28291 0.0421139 8.41254 0.11147 8.51425 0.213293L15.7867 7.48577C15.8543 7.55331 15.908 7.63352 15.9446 7.72181C15.9812 7.81009 16 7.90473 16 8.0003C16 8.09587 15.9812 8.1905 15.9446 8.27879C15.908 8.36708 15.8543 8.44728 15.7867 8.51483Z"/>
</svg>
