<svg fill="currentColor" width="16" height="16" viewBox="0 0 16 16" xmlns="http://www.w3.org/2000/svg">
<path d="M12.3636 0.727793V15.2722C12.3637 15.4161 12.3212 15.5568 12.2413 15.6765C12.1614 15.7962 12.0477 15.8895 11.9148 15.9446C11.7818 15.9997 11.6355 16.0141 11.4944 15.986C11.3532 15.9579 11.2236 15.8885 11.1219 15.7867L3.8497 8.51451C3.78208 8.44697 3.72844 8.36677 3.69185 8.27848C3.65525 8.1902 3.63641 8.09557 3.63641 8C3.63641 7.90443 3.65525 7.8098 3.69185 7.72152C3.72844 7.63323 3.78208 7.55303 3.8497 7.48549L11.1219 0.213285C11.2236 0.111466 11.3532 0.0421124 11.4944 0.014005C11.6355 -0.0141024 11.7818 0.000299974 11.9148 0.0553887C12.0477 0.110477 12.1614 0.203776 12.2413 0.323472C12.3212 0.443168 12.3637 0.58388 12.3636 0.727793Z"/>
</svg>
