<svg fill="currentColor" width="16" height="16" viewBox="0 0 16 16" xmlns="http://www.w3.org/2000/svg">
<path d="M15.7867 4.87812L8.51454 12.1503C8.447 12.2179 8.36679 12.2716 8.27851 12.3082C8.19023 12.3448 8.0956 12.3636 8.00003 12.3636C7.90446 12.3636 7.80983 12.3448 7.72155 12.3082C7.63327 12.2716 7.55306 12.2179 7.48552 12.1503L0.213345 4.87812C0.111526 4.77642 0.0421733 4.64679 0.014066 4.50565C-0.0140413 4.36451 0.000361008 4.2182 0.0554496 4.08525C0.110538 3.95229 0.203836 3.83868 0.323531 3.75878C0.443227 3.67888 0.583938 3.63629 0.727852 3.6364L15.2722 3.6364C15.4161 3.63629 15.5568 3.67888 15.6765 3.75878C15.7962 3.83868 15.8895 3.95229 15.9446 4.08525C15.9997 4.2182 16.0141 4.36451 15.986 4.50565C15.9579 4.64679 15.8885 4.77642 15.7867 4.87812Z"/>
</svg>
