<svg fill="currentColor" width="16" height="16" viewBox="0 0 16 16" xmlns="http://www.w3.org/2000/svg">
<path d="M16 6.15385V9.84615C16 10.1726 15.8703 10.4856 15.6395 10.7164C15.4087 10.9473 15.0957 11.0769 14.7692 11.0769H11.0769V14.7692C11.0769 15.0957 10.9473 15.4087 10.7164 15.6395C10.4856 15.8703 10.1726 16 9.84615 16H6.15385C5.82743 16 5.51438 15.8703 5.28356 15.6395C5.05275 15.4087 4.92308 15.0957 4.92308 14.7692V11.0769H1.23077C0.904349 11.0769 0.591298 10.9473 0.360484 10.7164C0.12967 10.4856 0 10.1726 0 9.84615V6.15385C0 5.82743 0.12967 5.51438 0.360484 5.28356C0.591298 5.05275 0.904349 4.92308 1.23077 4.92308H4.92308V1.23077C4.92308 0.904349 5.05275 0.591298 5.28356 0.360484C5.51438 0.12967 5.82743 0 6.15385 0H9.84615C10.1726 0 10.4856 0.12967 10.7164 0.360484C10.9473 0.591298 11.0769 0.904349 11.0769 1.23077V4.92308H14.7692C15.0957 4.92308 15.4087 5.05275 15.6395 5.28356C15.8703 5.51438 16 5.82743 16 6.15385Z"/>
</svg>
