<svg fill="currentColor" width="16" height="17" viewBox="0 0 16 17" xmlns="http://www.w3.org/2000/svg">
<path d="M16 0.727821V15.2728C16.0001 15.4167 15.9575 15.5574 15.8776 15.6771C15.7977 15.7968 15.6841 15.8901 15.5512 15.9452C15.4182 16.0003 15.2719 16.0147 15.1307 15.9866C14.9896 15.9585 14.86 15.8891 14.7582 15.7873L8.72754 9.75569V15.2728C8.72766 15.4167 8.68507 15.5574 8.60516 15.6771C8.52526 15.7968 8.41164 15.8901 8.27868 15.9452C8.14572 16.0003 7.99941 16.0147 7.85826 15.9866C7.71711 15.9585 7.58748 15.8891 7.48577 15.7873L0.213292 8.51483C0.145675 8.44728 0.0920341 8.36708 0.0554359 8.27879C0.0188376 8.1905 0 8.09587 0 8.0003C0 7.90473 0.0188376 7.81009 0.0554359 7.72181C0.0920341 7.63352 0.145675 7.55331 0.213292 7.48577L7.48577 0.213293C7.58748 0.11147 7.71711 0.0421139 7.85826 0.0140055C7.99941 -0.0141029 8.14572 0.000299985 8.27868 0.0553908C8.41164 0.110482 8.52526 0.203783 8.60516 0.323484C8.68507 0.443184 8.72766 0.583901 8.72754 0.727821V6.2449L14.7582 0.213293C14.86 0.11147 14.9896 0.0421139 15.1307 0.0140055C15.2719 -0.0141029 15.4182 0.000299985 15.5512 0.0553908C15.6841 0.110482 15.7977 0.203783 15.8776 0.323484C15.9575 0.443184 16.0001 0.583901 16 0.727821Z"/>
</svg>
