<svg fill="currentColor" width="16" height="16" viewBox="0 0 16 16" xmlns="http://www.w3.org/2000/svg">
<path d="M12.1503 8.51451L4.87814 15.7867C4.77643 15.8885 4.64681 15.9579 4.50566 15.986C4.36452 16.0141 4.21821 15.9997 4.08526 15.9446C3.95231 15.8895 3.83869 15.7962 3.75879 15.6765C3.67889 15.5568 3.6363 15.4161 3.63641 15.2722L3.63641 0.727793C3.6363 0.58388 3.67889 0.443168 3.75879 0.323472C3.83869 0.203776 3.95231 0.110478 4.08526 0.0553888C4.21821 0.000300076 4.36452 -0.0141022 4.50567 0.0140052C4.64681 0.0421126 4.77644 0.111466 4.87814 0.213285L12.1503 7.48549C12.218 7.55303 12.2716 7.63324 12.3082 7.72152C12.3448 7.8098 12.3636 7.90443 12.3636 8C12.3636 8.09557 12.3448 8.1902 12.3082 8.27848C12.2716 8.36677 12.218 8.44697 12.1503 8.51451Z"/>
</svg>
