<svg fill="currentColor" width="16" height="16" viewBox="0 0 16 16" xmlns="http://www.w3.org/2000/svg">
<path d="M15.8605 3.1752C15.8048 3.10864 15.7353 3.05511 15.6567 3.01838C15.5781 2.98165 15.4924 2.96262 15.4057 2.96263H3.45739L3.09521 0.973225C3.0456 0.70017 2.90174 0.453187 2.68869 0.275334C2.47565 0.0974807 2.20694 4.01099e-05 1.92942 0H0.592527C0.435379 0 0.284667 0.0624267 0.173547 0.173547C0.0624267 0.284667 0 0.435379 0 0.592527C0 0.749675 0.0624267 0.900386 0.173547 1.01151C0.284667 1.12263 0.435379 1.18505 0.592527 1.18505H1.92571L3.81884 11.5758C3.8746 11.8839 4.01079 12.1719 4.21361 12.4105C3.93367 12.6719 3.73162 13.0058 3.62986 13.3751C3.5281 13.7444 3.53061 14.1347 3.6371 14.5026C3.74359 14.8706 3.94991 15.2018 4.23318 15.4597C4.51645 15.7175 4.86559 15.8919 5.2419 15.9634C5.61822 16.0349 6.00699 16.0009 6.36511 15.8649C6.72323 15.729 7.03671 15.4965 7.27078 15.1933C7.50485 14.8901 7.65038 14.528 7.69121 14.1471C7.73205 13.7663 7.6666 13.3815 7.50213 13.0356H10.8662C10.7336 13.3131 10.665 13.6168 10.6655 13.9244C10.6655 14.3345 10.7871 14.7355 11.015 15.0765C11.2429 15.4176 11.5668 15.6834 11.9457 15.8404C12.3246 15.9973 12.7416 16.0384 13.1439 15.9584C13.5462 15.8784 13.9157 15.6808 14.2058 15.3908C14.4958 15.1008 14.6933 14.7313 14.7733 14.329C14.8533 13.9267 14.8123 13.5097 14.6553 13.1308C14.4983 12.7518 14.2325 12.4279 13.8915 12.2C13.5505 11.9722 13.1495 11.8505 12.7393 11.8505H5.56753C5.42877 11.8505 5.29441 11.8018 5.18789 11.7129C5.08137 11.6239 5.00944 11.5005 4.98463 11.3639L4.74984 10.073H13.3415C13.7578 10.0729 14.1608 9.92673 14.4804 9.65996C14.8 9.39318 15.0158 9.0227 15.0902 8.61312L15.9908 3.66107C16.0061 3.57548 16.0023 3.48759 15.9798 3.40362C15.9572 3.31965 15.9165 3.24167 15.8605 3.1752ZM12.7393 13.0356C12.9151 13.0356 13.087 13.0877 13.2331 13.1854C13.3793 13.283 13.4932 13.4219 13.5605 13.5843C13.6277 13.7467 13.6453 13.9254 13.611 14.0978C13.5767 14.2702 13.4921 14.4285 13.3678 14.5528C13.2435 14.6771 13.0851 14.7618 12.9127 14.7961C12.7403 14.8304 12.5616 14.8128 12.3992 14.7455C12.2368 14.6782 12.098 14.5643 12.0003 14.4182C11.9027 14.272 11.8505 14.1002 11.8505 13.9244C11.8505 13.6887 11.9442 13.4626 12.1109 13.2959C12.2775 13.1292 12.5036 13.0356 12.7393 13.0356ZM5.629 13.0356C5.80479 13.0356 5.97663 13.0877 6.12279 13.1854C6.26895 13.283 6.38287 13.4219 6.45014 13.5843C6.51741 13.7467 6.53501 13.9254 6.50072 14.0978C6.46642 14.2702 6.38177 14.4285 6.25747 14.5528C6.13317 14.6771 5.97481 14.7618 5.8024 14.7961C5.62999 14.8304 5.45128 14.8128 5.28888 14.7455C5.12647 14.6782 4.98766 14.5643 4.89 14.4182C4.79234 14.272 4.74021 14.1002 4.74021 13.9244C4.74021 13.6887 4.83385 13.4626 5.00054 13.2959C5.16722 13.1292 5.39328 13.0356 5.629 13.0356Z"/>
</svg>
