<svg fill="currentColor" width="16" height="16" viewBox="0 0 16 16" xmlns="http://www.w3.org/2000/svg">
<path d="M16 14.4616C16 14.6248 15.9352 14.7813 15.8198 14.8967C15.7044 15.0121 15.5478 15.0769 15.3846 15.0769H0.615385C0.452174 15.0769 0.295649 15.0121 0.180242 14.8967C0.064835 14.7813 0 14.6248 0 14.4616C0 14.2983 0.064835 14.1418 0.180242 14.0264C0.295649 13.911 0.452174 13.8462 0.615385 13.8462H1.23077V8.9231C1.23077 8.75989 1.2956 8.60336 1.41101 8.48795C1.52642 8.37255 1.68294 8.30771 1.84615 8.30771H3.69231C3.85552 8.30771 4.01204 8.37255 4.12745 8.48795C4.24286 8.60336 4.30769 8.75989 4.30769 8.9231V13.8462H5.53846V5.23079C5.53846 5.06758 5.6033 4.91105 5.7187 4.79565C5.83411 4.68024 5.99064 4.6154 6.15385 4.6154H8.61539C8.77859 4.6154 8.93512 4.68024 9.05053 4.79565C9.16594 4.91105 9.23077 5.06758 9.23077 5.23079V13.8462H10.4615V1.53848C10.4615 1.37527 10.5264 1.21874 10.6418 1.10334C10.7572 0.987931 10.9137 0.923096 11.0769 0.923096H14.1538C14.3171 0.923096 14.4736 0.987931 14.589 1.10334C14.7044 1.21874 14.7692 1.37527 14.7692 1.53848V13.8462H15.3846C15.5478 13.8462 15.7044 13.911 15.8198 14.0264C15.9352 14.1418 16 14.2983 16 14.4616Z"/>
</svg>
