<svg fill="currentColor" width="16" height="17" viewBox="0 0 16 17" xmlns="http://www.w3.org/2000/svg">
<path d="M8.00251 1.90538e-07C6.6212 -0.00030123 5.26334 0.357025 4.0611 1.0372C2.85886 1.71737 1.85319 2.69722 1.14199 3.88137C0.430785 5.06552 0.0382741 6.41363 0.00266021 7.79449C-0.0329537 9.17534 0.289543 10.5419 0.938759 11.7611L0.0655986 14.3806C-0.00672782 14.5975 -0.0172241 14.8302 0.0352863 15.0527C0.0877968 15.2752 0.201239 15.4787 0.362897 15.6404C0.524556 15.802 0.728043 15.9155 0.95055 15.968C1.17306 16.0205 1.40579 16.01 1.62267 15.9377L4.24215 15.0645C5.31516 15.6352 6.50407 15.954 7.71866 15.9966C8.93325 16.0392 10.1416 15.8046 11.252 15.3105C12.3623 14.8164 13.3455 14.0758 14.127 13.145C14.9084 12.2142 15.4675 11.1176 15.7618 9.93844C16.0562 8.75928 16.078 7.52857 15.8257 6.33971C15.5734 5.15086 15.0535 4.03511 14.3056 3.07715C13.5577 2.1192 12.6014 1.34422 11.5092 0.811043C10.4171 0.277864 9.21785 0.000498686 8.00251 1.90538e-07ZM4.61757 8.92393C4.43499 8.92393 4.2565 8.86979 4.10469 8.76835C3.95288 8.66691 3.83455 8.52273 3.76468 8.35405C3.69481 8.18536 3.67653 7.99974 3.71215 7.82067C3.74777 7.64159 3.83569 7.4771 3.9648 7.34799C4.0939 7.21888 4.2584 7.13096 4.43747 7.09534C4.61655 7.05972 4.80217 7.078 4.97085 7.14787C5.13954 7.21775 5.28372 7.33607 5.38516 7.48788C5.4866 7.6397 5.54074 7.81818 5.54074 8.00077C5.54074 8.24561 5.44348 8.48042 5.27035 8.65354C5.09722 8.82667 4.86241 8.92393 4.61757 8.92393ZM8.00251 8.92393C7.81993 8.92393 7.64144 8.86979 7.48963 8.76835C7.33782 8.66691 7.21949 8.52273 7.14962 8.35405C7.07975 8.18536 7.06147 7.99974 7.09709 7.82067C7.13271 7.64159 7.22063 7.4771 7.34974 7.34799C7.47884 7.21888 7.64334 7.13096 7.82241 7.09534C8.00149 7.05972 8.18711 7.078 8.35579 7.14787C8.52448 7.21775 8.66866 7.33607 8.7701 7.48788C8.87154 7.6397 8.92568 7.81818 8.92568 8.00077C8.92568 8.24561 8.82842 8.48042 8.65529 8.65354C8.48216 8.82667 8.24735 8.92393 8.00251 8.92393ZM11.3875 8.92393C11.2049 8.92393 11.0264 8.86979 10.8746 8.76835C10.7228 8.66691 10.6044 8.52273 10.5346 8.35405C10.4647 8.18536 10.4464 7.99974 10.482 7.82067C10.5176 7.64159 10.6056 7.4771 10.7347 7.34799C10.8638 7.21888 11.0283 7.13096 11.2074 7.09534C11.3864 7.05972 11.572 7.078 11.7407 7.14787C11.9094 7.21775 12.0536 7.33607 12.155 7.48788C12.2565 7.6397 12.3106 7.81818 12.3106 8.00077C12.3106 8.24561 12.2134 8.48042 12.0402 8.65354C11.8671 8.82667 11.6323 8.92393 11.3875 8.92393Z"/>
</svg>
