<svg fill="currentColor" width="16" height="17" viewBox="0 0 16 17" xmlns="http://www.w3.org/2000/svg">
<path d="M8.00251 1.90538e-07C6.6212 -0.00030123 5.26334 0.357025 4.0611 1.0372C2.85886 1.71737 1.85319 2.69722 1.14199 3.88137C0.430785 5.06552 0.0382741 6.41363 0.00266021 7.79449C-0.0329537 9.17534 0.289543 10.5419 0.938759 11.7611L0.0655986 14.3806C-0.00672782 14.5975 -0.0172241 14.8302 0.0352863 15.0527C0.0877968 15.2752 0.201239 15.4787 0.362897 15.6404C0.524556 15.802 0.728043 15.9155 0.95055 15.968C1.17306 16.0205 1.40579 16.01 1.62267 15.9377L4.24215 15.0645C5.31516 15.6352 6.50407 15.954 7.71866 15.9966C8.93325 16.0392 10.1416 15.8046 11.252 15.3105C12.3623 14.8164 13.3455 14.0758 14.127 13.145C14.9084 12.2142 15.4675 11.1176 15.7618 9.93844C16.0562 8.75928 16.078 7.52857 15.8257 6.33971C15.5734 5.15086 15.0535 4.03511 14.3056 3.07715C13.5577 2.1192 12.6014 1.34422 11.5092 0.811043C10.4171 0.277864 9.21785 0.000498686 8.00251 1.90538e-07ZM10.4643 9.8471H5.54074C5.37751 9.8471 5.22097 9.78226 5.10555 9.66684C4.99014 9.55142 4.9253 9.39488 4.9253 9.23166C4.9253 9.06843 4.99014 8.91189 5.10555 8.79647C5.22097 8.68105 5.37751 8.61621 5.54074 8.61621H10.4643C10.6275 8.61621 10.7841 8.68105 10.8995 8.79647C11.0149 8.91189 11.0797 9.06843 11.0797 9.23166C11.0797 9.39488 11.0149 9.55142 10.8995 9.66684C10.7841 9.78226 10.6275 9.8471 10.4643 9.8471ZM10.4643 7.38532H5.54074C5.37751 7.38532 5.22097 7.32048 5.10555 7.20506C4.99014 7.08965 4.9253 6.93311 4.9253 6.76988C4.9253 6.60665 4.99014 6.45011 5.10555 6.3347C5.22097 6.21928 5.37751 6.15444 5.54074 6.15444H10.4643C10.6275 6.15444 10.7841 6.21928 10.8995 6.3347C11.0149 6.45011 11.0797 6.60665 11.0797 6.76988C11.0797 6.93311 11.0149 7.08965 10.8995 7.20506C10.7841 7.32048 10.6275 7.38532 10.4643 7.38532Z"/>
</svg>
