<svg fill="currentColor" width="16" height="16" viewBox="0 0 16 16" xmlns="http://www.w3.org/2000/svg">
<path d="M8 0C6.41775 0 4.87103 0.469192 3.55544 1.34824C2.23985 2.22729 1.21447 3.47672 0.608967 4.93853C0.00346628 6.40034 -0.15496 8.00887 0.153721 9.56072C0.462403 11.1126 1.22433 12.538 2.34315 13.6569C3.46197 14.7757 4.88743 15.5376 6.43928 15.8463C7.99113 16.155 9.59966 15.9965 11.0615 15.391C12.5233 14.7855 13.7727 13.7602 14.6518 12.4446C15.5308 11.129 16 9.58225 16 8C15.9978 5.87895 15.1542 3.84542 13.6544 2.34562C12.1546 0.845814 10.121 0.00223986 8 0ZM11.5123 6.58923L7.20462 10.8969C7.14746 10.9541 7.07959 10.9995 7.00489 11.0305C6.93018 11.0615 6.8501 11.0774 6.76923 11.0774C6.68836 11.0774 6.60828 11.0615 6.53358 11.0305C6.45887 10.9995 6.391 10.9541 6.33385 10.8969L4.48769 9.05077C4.37222 8.9353 4.30735 8.77868 4.30735 8.61538C4.30735 8.45208 4.37222 8.29547 4.48769 8.18C4.60317 8.06453 4.75978 7.99966 4.92308 7.99966C5.08638 7.99966 5.24299 8.06453 5.35846 8.18L6.76923 9.59154L10.6415 5.71846C10.6987 5.66128 10.7666 5.61593 10.8413 5.58499C10.916 5.55404 10.9961 5.53812 11.0769 5.53812C11.1578 5.53812 11.2378 5.55404 11.3126 5.58499C11.3873 5.61593 11.4551 5.66128 11.5123 5.71846C11.5695 5.77564 11.6148 5.84351 11.6458 5.91822C11.6767 5.99292 11.6927 6.07299 11.6927 6.15384C11.6927 6.2347 11.6767 6.31477 11.6458 6.38947C11.6148 6.46418 11.5695 6.53205 11.5123 6.58923Z"/>
</svg>
