<svg fill="currentColor" width="16" height="16" viewBox="0 0 16 16" xmlns="http://www.w3.org/2000/svg">
<g clip-path="url(#clip0_3527_1275)">
<path d="M8 0C6.41775 0 4.87104 0.469192 3.55544 1.34824C2.23985 2.22729 1.21447 3.47672 0.608967 4.93853C0.00346628 6.40034 -0.15496 8.00887 0.153721 9.56072C0.462403 11.1126 1.22433 12.538 2.34315 13.6569C3.46197 14.7757 4.88743 15.5376 6.43928 15.8463C7.99113 16.155 9.59966 15.9965 11.0615 15.391C12.5233 14.7855 13.7727 13.7602 14.6518 12.4446C15.5308 11.129 16 9.58225 16 8C15.9978 5.87896 15.1542 3.84543 13.6544 2.34562C12.1546 0.845814 10.121 0.00223986 8 0ZM9.84616 11.0769C10.0094 11.0769 10.1659 11.1418 10.2813 11.2572C10.3967 11.3726 10.4615 11.5291 10.4615 11.6923C10.4615 11.8555 10.3967 12.012 10.2813 12.1275C10.1659 12.2429 10.0094 12.3077 9.84616 12.3077H6.15385C6.03957 12.3077 5.92754 12.2759 5.83032 12.2158C5.73311 12.1557 5.65454 12.0697 5.60343 11.9675C5.55232 11.8653 5.53069 11.7509 5.54095 11.637C5.55122 11.5232 5.59297 11.4145 5.66154 11.3231L8.98231 6.89538C9.08864 6.75368 9.16313 6.5907 9.20068 6.41756C9.23823 6.24443 9.23796 6.06523 9.19989 5.89221C9.16182 5.71919 9.08685 5.55642 8.98009 5.41504C8.87334 5.27366 8.73732 5.15699 8.58134 5.073C8.42535 4.98902 8.25307 4.9397 8.07627 4.92842C7.89947 4.91713 7.72232 4.94415 7.55692 5.00762C7.39152 5.07109 7.24177 5.16952 7.11791 5.29619C6.99405 5.42285 6.89899 5.57476 6.83923 5.74154C6.78476 5.89547 6.67138 6.02145 6.52402 6.09178C6.37666 6.1621 6.20739 6.17101 6.05347 6.11654C5.89954 6.06207 5.77355 5.94868 5.70323 5.80132C5.6329 5.65396 5.62399 5.4847 5.67847 5.33077C5.79718 4.99657 5.9867 4.69198 6.23407 4.43783C6.48143 4.18368 6.7808 3.98599 7.11166 3.85829C7.44252 3.73058 7.79708 3.67588 8.15105 3.69793C8.50501 3.71998 8.85004 3.81826 9.1625 3.98603C9.47496 4.15381 9.74747 4.38713 9.96138 4.67001C10.1753 4.95289 10.3256 5.27865 10.4019 5.62499C10.4782 5.97134 10.4788 6.33009 10.4036 6.67668C10.3284 7.02326 10.1792 7.34951 9.96616 7.63308L7.38462 11.0769H9.84616Z"/>
</g>
<defs>
<clipPath id="clip0_3527_1275">
<rect width="16" height="16"/>
</clipPath>
</defs>
</svg>
