<svg fill="currentColor" width="16" height="16" viewBox="0 0 16 16" xmlns="http://www.w3.org/2000/svg">
<g clip-path="url(#clip0_3527_1279)">
<path d="M9.53847 9.53846C9.53847 9.84274 9.44824 10.1402 9.27919 10.3932C9.11014 10.6462 8.86986 10.8434 8.58875 10.9598C8.30763 11.0763 7.9983 11.1067 7.69986 11.0474C7.40143 10.988 7.12731 10.8415 6.91215 10.6263C6.69699 10.4112 6.55047 10.137 6.4911 9.8386C6.43174 9.54017 6.46221 9.23083 6.57865 8.94972C6.69509 8.6686 6.89228 8.42833 7.14528 8.25928C7.39828 8.09023 7.69572 8 8 8C8.40803 8 8.79934 8.16209 9.08786 8.45061C9.37638 8.73912 9.53847 9.13044 9.53847 9.53846ZM16 8C16 9.58225 15.5308 11.129 14.6518 12.4446C13.7727 13.7602 12.5233 14.7855 11.0615 15.391C9.59966 15.9965 7.99113 16.155 6.43928 15.8463C4.88743 15.5376 3.46197 14.7757 2.34315 13.6569C1.22433 12.538 0.462403 11.1126 0.153721 9.56072C-0.15496 8.00887 0.00346628 6.40034 0.608967 4.93853C1.21447 3.47672 2.23985 2.22729 3.55544 1.34824C4.87104 0.469192 6.41775 0 8 0C10.121 0.00223986 12.1546 0.845814 13.6544 2.34562C15.1542 3.84543 15.9978 5.87896 16 8ZM10.7692 9.53846C10.7692 8.80402 10.4775 8.09965 9.95815 7.58032C9.43881 7.06099 8.73445 6.76923 8 6.76923C7.95308 6.76923 7.90616 6.76923 7.86 6.76923L9.14385 4.62308C9.18527 4.55368 9.21261 4.4768 9.22432 4.39684C9.23602 4.31687 9.23186 4.23538 9.21208 4.15702C9.19229 4.07867 9.15727 4.00497 9.109 3.94015C9.06073 3.87533 9.00017 3.82065 8.93077 3.77923C8.86137 3.73781 8.7845 3.71047 8.70453 3.69877C8.62457 3.68706 8.54308 3.69122 8.46472 3.711C8.38636 3.73079 8.31267 3.76582 8.24785 3.81408C8.18302 3.86235 8.12834 3.92291 8.08693 3.99231C8.08693 3.99231 5.59462 8.16769 5.58923 8.17846C5.38069 8.54741 5.25961 8.95931 5.23533 9.38242C5.21104 9.80553 5.28419 10.2286 5.44915 10.619C5.6141 11.0094 5.86646 11.3567 6.18679 11.6342C6.50712 11.9117 6.88686 12.1119 7.29678 12.2196C7.7067 12.3272 8.13585 12.3393 8.55118 12.2549C8.96651 12.1706 9.35694 11.992 9.69239 11.733C10.0278 11.474 10.2994 11.1415 10.4861 10.761C10.6728 10.3805 10.7696 9.96227 10.7692 9.53846Z"/>
</g>
<defs>
<clipPath id="clip0_3527_1279">
<rect width="16" height="16"/>
</clipPath>
</defs>
</svg>
