<svg fill="currentColor" width="16" height="16" viewBox="0 0 16 16" xmlns="http://www.w3.org/2000/svg">
<g clip-path="url(#clip0_3527_1278)">
<path d="M8 0C6.41775 0 4.87104 0.469192 3.55544 1.34824C2.23985 2.22729 1.21447 3.47672 0.608967 4.93853C0.00346628 6.40034 -0.15496 8.00887 0.153721 9.56072C0.462403 11.1126 1.22433 12.538 2.34315 13.6569C3.46197 14.7757 4.88743 15.5376 6.43928 15.8463C7.99113 16.155 9.59966 15.9965 11.0615 15.391C12.5233 14.7855 13.7727 13.7602 14.6518 12.4446C15.5308 11.129 16 9.58225 16 8C15.9978 5.87896 15.1542 3.84543 13.6544 2.34562C12.1546 0.845814 10.121 0.00223986 8 0ZM7.69231 6.76923C8.42676 6.76923 9.13112 7.06099 9.65045 7.58032C10.1698 8.09965 10.4615 8.80402 10.4615 9.53846C10.4615 10.2729 10.1698 10.9773 9.65045 11.4966C9.13112 12.0159 8.42676 12.3077 7.69231 12.3077C7.32587 12.3137 6.96196 12.246 6.62221 12.1086C6.28246 11.9711 5.97382 11.7668 5.71462 11.5077C5.6558 11.4505 5.60902 11.3821 5.57701 11.3066C5.54501 11.231 5.52843 11.1499 5.52826 11.0678C5.52809 10.9858 5.54432 10.9045 5.576 10.8289C5.60769 10.7532 5.65418 10.6846 5.71275 10.6272C5.77133 10.5697 5.84079 10.5246 5.91707 10.4944C5.99335 10.4642 6.0749 10.4495 6.15692 10.4513C6.23894 10.453 6.31978 10.4712 6.39468 10.5047C6.46958 10.5381 6.53704 10.5862 6.59308 10.6462C6.73824 10.7877 6.91029 10.8988 7.09909 10.9728C7.28789 11.0468 7.4896 11.0822 7.69231 11.0769C8.10034 11.0769 8.49165 10.9148 8.78017 10.6263C9.06869 10.3378 9.23077 9.94649 9.23077 9.53846C9.23077 9.13044 9.06869 8.73912 8.78017 8.45061C8.49165 8.16209 8.10034 8 7.69231 8C7.4896 7.99473 7.28789 8.03013 7.09909 8.10412C6.91029 8.1781 6.73824 8.28918 6.59308 8.43077C6.5014 8.52416 6.38234 8.58589 6.25318 8.607C6.12402 8.62811 5.9915 8.60749 5.87486 8.54814C5.75822 8.48879 5.66354 8.3938 5.60457 8.27697C5.54559 8.16014 5.5254 8.02755 5.54693 7.89846L6.16231 4.20615C6.18634 4.06255 6.2605 3.93211 6.37162 3.83803C6.48275 3.74395 6.62363 3.69231 6.76923 3.69231H9.84616C10.0094 3.69231 10.1659 3.75714 10.2813 3.87255C10.3967 3.98796 10.4615 4.14448 10.4615 4.30769C10.4615 4.4709 10.3967 4.62743 10.2813 4.74284C10.1659 4.85824 10.0094 4.92308 9.84616 4.92308H7.29077L6.96846 6.85692C7.20526 6.79822 7.44835 6.76877 7.69231 6.76923Z"/>
</g>
<defs>
<clipPath id="clip0_3527_1278">
<rect width="16" height="16"/>
</clipPath>
</defs>
</svg>
