<svg fill="currentColor" width="16" height="16" viewBox="0 0 16 16" xmlns="http://www.w3.org/2000/svg">
<g clip-path="url(#clip0_3527_1276)">
<path d="M8 0C6.41775 0 4.87104 0.469192 3.55544 1.34824C2.23985 2.22729 1.21447 3.47672 0.608967 4.93853C0.00346628 6.40034 -0.15496 8.00887 0.153721 9.56072C0.462403 11.1126 1.22433 12.538 2.34315 13.6569C3.46197 14.7757 4.88743 15.5376 6.43928 15.8463C7.99113 16.155 9.59966 15.9965 11.0615 15.391C12.5233 14.7855 13.7727 13.7602 14.6518 12.4446C15.5308 11.129 16 9.58225 16 8C15.9978 5.87896 15.1542 3.84543 13.6544 2.34562C12.1546 0.845814 10.121 0.00223986 8 0ZM7.69231 12.6154C7.32374 12.6166 6.95869 12.5435 6.61893 12.4007C6.27916 12.2578 5.97162 12.048 5.71462 11.7838C5.65449 11.727 5.60645 11.6585 5.57338 11.5826C5.54032 11.5068 5.5229 11.425 5.52217 11.3422C5.52144 11.2594 5.53742 11.1774 5.56915 11.1009C5.60089 11.0245 5.64771 10.9552 5.70684 10.8973C5.76596 10.8393 5.83617 10.7939 5.91325 10.7638C5.99033 10.7336 6.07271 10.7193 6.15545 10.7217C6.23819 10.7241 6.3196 10.7432 6.39479 10.7778C6.46999 10.8124 6.53743 10.8618 6.59308 10.9231C6.77062 11.1042 6.99019 11.2386 7.23224 11.3144C7.47429 11.3901 7.73132 11.4049 7.98044 11.3573C8.22956 11.3097 8.46306 11.2013 8.66014 11.0416C8.85722 10.882 9.01178 10.6761 9.11005 10.4423C9.20832 10.2084 9.24726 9.95395 9.2234 9.70144C9.19954 9.44894 9.11363 9.20625 8.97331 8.99497C8.83298 8.7837 8.6426 8.6104 8.41911 8.49049C8.19561 8.37058 7.94594 8.30778 7.69231 8.30769C7.57974 8.30766 7.46933 8.27675 7.3731 8.21832C7.27687 8.1599 7.19852 8.07619 7.14656 7.97633C7.0946 7.87646 7.07104 7.76425 7.07843 7.65192C7.08581 7.53959 7.12388 7.43143 7.18847 7.33923L8.66385 5.23077H6.15385C5.99064 5.23077 5.83411 5.16593 5.71871 5.05053C5.6033 4.93512 5.53847 4.77859 5.53847 4.61538C5.53847 4.45217 5.6033 4.29565 5.71871 4.18024C5.83411 4.06484 5.99064 4 6.15385 4H9.84616C9.95873 4.00003 10.0691 4.03094 10.1654 4.08937C10.2616 4.1478 10.34 4.2315 10.3919 4.33137C10.4439 4.43123 10.4674 4.54344 10.46 4.65577C10.4527 4.76811 10.4146 4.87626 10.35 4.96846L8.73462 7.27615C9.33253 7.51609 9.82807 7.95698 10.1359 8.52293C10.4438 9.08887 10.5447 9.74444 10.4212 10.3768C10.2978 11.0091 9.95774 11.5786 9.45964 11.9872C8.96154 12.3958 8.33656 12.6179 7.69231 12.6154Z"/>
</g>
<defs>
<clipPath id="clip0_3527_1276">
<rect width="16" height="16"/>
</clipPath>
</defs>
</svg>
