<svg fill="currentColor" width="16" height="16" viewBox="0 0 16 16" xmlns="http://www.w3.org/2000/svg">
<path d="M13.3334 1.18509H10.6474C10.3145 0.812287 9.90652 0.514013 9.45029 0.30979C8.99407 0.105567 8.49986 0 8.00001 0C7.50016 0 7.00595 0.105567 6.54972 0.30979C6.0935 0.514013 5.68555 0.812287 5.35258 1.18509H2.66664C2.35231 1.18509 2.05085 1.30995 1.82858 1.53222C1.60631 1.75449 1.48145 2.05595 1.48145 2.37028V14.8148C1.48145 15.1291 1.60631 15.4306 1.82858 15.6529C2.05085 15.8751 2.35231 16 2.66664 16H13.3334C13.6477 16 13.9492 15.8751 14.1714 15.6529C14.3937 15.4306 14.5186 15.1291 14.5186 14.8148V2.37028C14.5186 2.05595 14.3937 1.75449 14.1714 1.53222C13.9492 1.30995 13.6477 1.18509 13.3334 1.18509ZM8.00001 1.18509C8.62867 1.18509 9.23159 1.43482 9.67612 1.87936C10.1207 2.32389 10.3704 2.92681 10.3704 3.55547H5.62962C5.62962 2.92681 5.87936 2.32389 6.32389 1.87936C6.76842 1.43482 7.37134 1.18509 8.00001 1.18509ZM10.3704 10.6666H5.62962C5.47246 10.6666 5.32173 10.6042 5.21059 10.4931C5.09946 10.3819 5.03702 10.2312 5.03702 10.074C5.03702 9.91687 5.09946 9.76614 5.21059 9.65501C5.32173 9.54387 5.47246 9.48144 5.62962 9.48144H10.3704C10.5276 9.48144 10.6783 9.54387 10.7894 9.65501C10.9006 9.76614 10.963 9.91687 10.963 10.074C10.963 10.2312 10.9006 10.3819 10.7894 10.4931C10.6783 10.6042 10.5276 10.6666 10.3704 10.6666ZM10.3704 8.29624H5.62962C5.47246 8.29624 5.32173 8.23381 5.21059 8.12268C5.09946 8.01154 5.03702 7.86081 5.03702 7.70365C5.03702 7.54648 5.09946 7.39575 5.21059 7.28462C5.32173 7.17349 5.47246 7.11105 5.62962 7.11105H10.3704C10.5276 7.11105 10.6783 7.17349 10.7894 7.28462C10.9006 7.39575 10.963 7.54648 10.963 7.70365C10.963 7.86081 10.9006 8.01154 10.7894 8.12268C10.6783 8.23381 10.5276 8.29624 10.3704 8.29624Z"/>
</svg>
