<svg fill="currentColor" width="16" height="16" viewBox="0 0 16 16" xmlns="http://www.w3.org/2000/svg">
<path d="M7.07692 4.30769H7.38462V7.38461H7.07692C6.6689 7.38461 6.27759 7.22253 5.98907 6.93401C5.70055 6.64549 5.53846 6.25418 5.53846 5.84615C5.53846 5.43813 5.70055 5.04681 5.98907 4.7583C6.27759 4.46978 6.6689 4.30769 7.07692 4.30769ZM9.53846 8.61538H8.61539V11.6923H9.53846C9.94649 11.6923 10.3378 11.5302 10.6263 11.2417C10.9148 10.9532 11.0769 10.5619 11.0769 10.1538C11.0769 9.74582 10.9148 9.3545 10.6263 9.06599C10.3378 8.77747 9.94649 8.61538 9.53846 8.61538ZM16 8C16 9.58225 15.5308 11.129 14.6518 12.4446C13.7727 13.7602 12.5233 14.7855 11.0615 15.391C9.59966 15.9965 7.99113 16.155 6.43928 15.8463C4.88743 15.5376 3.46197 14.7757 2.34315 13.6569C1.22433 12.538 0.462403 11.1126 0.153721 9.56072C-0.15496 8.00887 0.00346628 6.40034 0.608967 4.93853C1.21447 3.47672 2.23985 2.22729 3.55544 1.34824C4.87103 0.469192 6.41775 0 8 0C10.121 0.00223986 12.1546 0.845814 13.6544 2.34562C15.1542 3.84542 15.9978 5.87895 16 8ZM12.3077 10.1538C12.3077 9.4194 12.0159 8.71503 11.4966 8.1957C10.9773 7.67637 10.2729 7.38461 9.53846 7.38461H8.61539V4.30769H8.92308C9.3311 4.30769 9.72242 4.46978 10.0109 4.7583C10.2995 5.04681 10.4615 5.43813 10.4615 5.84615C10.4615 6.00936 10.5264 6.16589 10.6418 6.28129C10.7572 6.3967 10.9137 6.46154 11.0769 6.46154C11.2401 6.46154 11.3967 6.3967 11.5121 6.28129C11.6275 6.16589 11.6923 6.00936 11.6923 5.84615C11.6923 5.11171 11.4006 4.40734 10.8812 3.88801C10.3619 3.36868 9.65752 3.07692 8.92308 3.07692H8.61539V2.46154C8.61539 2.29833 8.55055 2.1418 8.43514 2.0264C8.31974 1.91099 8.16321 1.84615 8 1.84615C7.83679 1.84615 7.68027 1.91099 7.56486 2.0264C7.44945 2.1418 7.38462 2.29833 7.38462 2.46154V3.07692H7.07692C6.34248 3.07692 5.63811 3.36868 5.11878 3.88801C4.59945 4.40734 4.30769 5.11171 4.30769 5.84615C4.30769 6.5806 4.59945 7.28496 5.11878 7.80429C5.63811 8.32362 6.34248 8.61538 7.07692 8.61538H7.38462V11.6923H6.76923C6.36121 11.6923 5.96989 11.5302 5.68138 11.2417C5.39286 10.9532 5.23077 10.5619 5.23077 10.1538C5.23077 9.99063 5.16594 9.83411 5.05053 9.7187C4.93512 9.60329 4.7786 9.53846 4.61539 9.53846C4.45218 9.53846 4.29565 9.60329 4.18024 9.7187C4.06484 9.83411 4 9.99063 4 10.1538C4 10.8883 4.29176 11.5927 4.81109 12.112C5.33042 12.6313 6.03479 12.9231 6.76923 12.9231H7.38462V13.5385C7.38462 13.7017 7.44945 13.8582 7.56486 13.9736C7.68027 14.089 7.83679 14.1538 8 14.1538C8.16321 14.1538 8.31974 14.089 8.43514 13.9736C8.55055 13.8582 8.61539 13.7017 8.61539 13.5385V12.9231H9.53846C10.2729 12.9231 10.9773 12.6313 11.4966 12.112C12.0159 11.5927 12.3077 10.8883 12.3077 10.1538Z"/>
</svg>
