<svg fill="currentColor" width="16" height="16" viewBox="0 0 16 16" xmlns="http://www.w3.org/2000/svg">
<path d="M11.4285 0H4.5714C4.11675 0 3.68071 0.180612 3.35922 0.502103C3.03773 0.823594 2.85712 1.25963 2.85712 1.71429V14.2857C2.85712 14.7404 3.03773 15.1764 3.35922 15.4979C3.68071 15.8194 4.11675 16 4.5714 16H11.4285C11.8832 16 12.3192 15.8194 12.6407 15.4979C12.9622 15.1764 13.1428 14.7404 13.1428 14.2857V1.71429C13.1428 1.25963 12.9622 0.823594 12.6407 0.502103C12.3192 0.180612 11.8832 0 11.4285 0ZM4.5714 1.14286H11.4285C11.5801 1.14286 11.7254 1.20306 11.8326 1.31022C11.9398 1.41739 12 1.56273 12 1.71429V2.28571H3.99997V1.71429C3.99997 1.56273 4.06018 1.41739 4.16734 1.31022C4.27451 1.20306 4.41985 1.14286 4.5714 1.14286ZM11.4285 14.8571H4.5714C4.41985 14.8571 4.27451 14.7969 4.16734 14.6898C4.06018 14.5826 3.99997 14.4373 3.99997 14.2857V13.7143H12V14.2857C12 14.4373 11.9398 14.5826 11.8326 14.6898C11.7254 14.7969 11.5801 14.8571 11.4285 14.8571Z"/>
</svg>
