<svg fill="currentColor" width="16" height="16" viewBox="0 0 16 16" xmlns="http://www.w3.org/2000/svg">
<path d="M15.6923 9.84615C15.6923 9.38552 15.5631 8.93412 15.3193 8.54329C15.0755 8.15245 14.727 7.83786 14.3133 7.63528C13.8996 7.43271 13.4373 7.35028 12.9791 7.39737C12.5209 7.44446 12.0851 7.61917 11.7212 7.90165C11.3574 8.18413 11.0801 8.56304 10.9209 8.99529C10.7617 9.42754 10.727 9.89578 10.8207 10.3468C10.9144 10.7978 11.1328 11.2134 11.451 11.5465C11.7692 11.8795 12.1745 12.1166 12.6208 12.2308C12.6174 12.2563 12.6156 12.282 12.6154 12.3077C12.6154 12.9605 12.356 13.5866 11.8944 14.0483C11.4328 14.5099 10.8067 14.7692 10.1538 14.7692H8.30768C7.65484 14.7692 7.02874 14.5099 6.56711 14.0483C6.10548 13.5866 5.84614 12.9605 5.84614 12.3077V9.19077C8.26691 8.88308 10.1538 6.77 10.1538 4.24385V1.23077C10.1538 0.904349 10.0242 0.591298 9.79335 0.360484C9.56253 0.12967 9.24948 0 8.92306 0H7.69229C7.52908 0 7.37256 0.064835 7.25715 0.180242C7.14174 0.295649 7.07691 0.452174 7.07691 0.615385C7.07691 0.778595 7.14174 0.93512 7.25715 1.05053C7.37256 1.16593 7.52908 1.23077 7.69229 1.23077H8.92306V4.24385C8.92306 6.28846 7.28845 7.97385 5.27999 8C4.79098 8.00652 4.30555 7.91583 3.85188 7.7332C3.39821 7.55056 2.98534 7.27962 2.63725 6.93611C2.28915 6.5926 2.01277 6.18335 1.82414 5.73214C1.63551 5.28093 1.5384 4.79674 1.53845 4.30769V1.23077H2.76922C2.93243 1.23077 3.08895 1.16593 3.20436 1.05053C3.31977 0.93512 3.3846 0.778595 3.3846 0.615385C3.3846 0.452174 3.31977 0.295649 3.20436 0.180242C3.08895 0.064835 2.93243 0 2.76922 0H1.53845C1.21203 0 0.898976 0.12967 0.668162 0.360484C0.437348 0.591298 0.307678 0.904349 0.307678 1.23077V4.30769C0.307829 5.50669 0.745534 6.66442 1.53865 7.56362C2.33177 8.46281 3.42578 9.04167 4.61537 9.19154V12.3077C4.61639 13.2866 5.00573 14.2252 5.69795 14.9174C6.39017 15.6096 7.32873 15.999 8.30768 16H10.1538C11.1328 15.999 12.0713 15.6096 12.7636 14.9174C13.4558 14.2252 13.8451 13.2866 13.8461 12.3077C13.846 12.282 13.8442 12.2563 13.8408 12.2308C14.3703 12.0953 14.8398 11.7874 15.175 11.3556C15.5103 10.9239 15.6923 10.3928 15.6923 9.84615ZM13.2308 10.4615C13.109 10.4615 12.9901 10.4254 12.8889 10.3578C12.7877 10.2902 12.7088 10.1941 12.6622 10.0817C12.6156 9.9692 12.6034 9.84547 12.6272 9.7261C12.6509 9.60672 12.7095 9.49707 12.7956 9.41101C12.8817 9.32495 12.9913 9.26634 13.1107 9.24259C13.2301 9.21885 13.3538 9.23104 13.4663 9.27761C13.5787 9.32419 13.6748 9.40306 13.7424 9.50426C13.81 9.60546 13.8461 9.72444 13.8461 9.84615C13.8461 10.0094 13.7813 10.1659 13.6659 10.2813C13.5505 10.3967 13.394 10.4615 13.2308 10.4615Z"/>
</svg>
