<svg fill="currentColor" width="16" height="16" viewBox="0 0 16 16" xmlns="http://www.w3.org/2000/svg">
<path d="M15.9956 7.63478C15.8743 4.50272 13.2716 2 10.1375 2C9.04731 2.00017 7.97864 2.30378 7.05117 2.87684C6.1237 3.4499 5.37404 4.26979 4.8861 5.24473C4.48055 6.05299 4.26852 6.94449 4.26675 7.84878C4.26884 7.98619 4.21898 8.11931 4.12714 8.22154C4.0353 8.32376 3.90825 8.38754 3.77141 8.40013C3.69824 8.40535 3.62478 8.39543 3.55562 8.37098C3.48646 8.34652 3.42309 8.30807 3.36946 8.25801C3.31584 8.20795 3.27312 8.14738 3.24397 8.08006C3.21482 8.01274 3.19988 7.94014 3.20006 7.86678C3.1995 7.12079 3.31972 6.37963 3.55607 5.67207C3.57164 5.6267 3.57469 5.57798 3.56489 5.53102C3.55509 5.48407 3.53281 5.44062 3.50039 5.40527C3.46797 5.36992 3.42662 5.34396 3.38068 5.33014C3.33475 5.31632 3.28594 5.31514 3.2394 5.32673C2.31526 5.55707 1.49457 6.08956 0.907671 6.83965C0.320769 7.58973 0.00129967 8.51441 0 9.46681C0 11.8129 1.98337 13.7336 4.33342 13.7336H10.1335C10.9233 13.7327 11.7047 13.5726 12.4311 13.2628C13.1575 12.953 13.814 12.4999 14.3612 11.9305C14.9085 11.3612 15.3353 10.6873 15.6161 9.94917C15.897 9.21107 16.026 8.42391 15.9956 7.63478ZM12.1109 10.3775L9.97753 12.5109C9.928 12.5605 9.86917 12.5998 9.80443 12.6266C9.73968 12.6535 9.67028 12.6673 9.60019 12.6673C9.5301 12.6673 9.4607 12.6535 9.39595 12.6266C9.3312 12.5998 9.27238 12.5605 9.22285 12.5109L7.08947 10.3775C6.9894 10.2774 6.93317 10.1417 6.93317 10.0002C6.93317 9.85863 6.9894 9.72289 7.08947 9.62282C7.18955 9.52274 7.32528 9.46652 7.46681 9.46652C7.60834 9.46652 7.74408 9.52274 7.84415 9.62282L9.06685 10.8462V6.80009C9.06685 6.65864 9.12304 6.52298 9.22306 6.42296C9.32308 6.32294 9.45874 6.26675 9.60019 6.26675C9.74164 6.26675 9.8773 6.32294 9.97732 6.42296C10.0773 6.52298 10.1335 6.65864 10.1335 6.80009V10.8462L11.3562 9.62282C11.4563 9.52274 11.592 9.46652 11.7336 9.46652C11.8751 9.46652 12.0108 9.52274 12.1109 9.62282C12.211 9.72289 12.2672 9.85863 12.2672 10.0002C12.2672 10.1417 12.211 10.2774 12.1109 10.3775Z"/>
</svg>
