<svg fill="currentColor" width="16" height="16" viewBox="0 0 16 16" xmlns="http://www.w3.org/2000/svg">
<path d="M4.195 7.13833C4.10166 7.0451 4.03808 6.92626 4.01231 6.79687C3.98655 6.66748 3.99975 6.53336 4.05025 6.41147C4.10075 6.28959 4.18628 6.18543 4.29601 6.11219C4.40574 6.03894 4.53474 5.9999 4.66667 6H7.33333V0.666667C7.33333 0.489856 7.40357 0.320287 7.5286 0.195262C7.65362 0.070238 7.82319 0 8 0C8.17681 0 8.34638 0.070238 8.47141 0.195262C8.59643 0.320287 8.66667 0.489856 8.66667 0.666667V6H11.3333C11.4653 5.9999 11.5943 6.03894 11.704 6.11219C11.8137 6.18543 11.8992 6.28959 11.9497 6.41147C12.0002 6.53336 12.0135 6.66748 11.9877 6.79687C11.9619 6.92626 11.8983 7.0451 11.805 7.13833L8.47167 10.4717C8.40975 10.5337 8.33623 10.5828 8.25529 10.6164C8.17436 10.6499 8.08761 10.6672 8 10.6672C7.91239 10.6672 7.82564 10.6499 7.74471 10.6164C7.66377 10.5828 7.59025 10.5337 7.52833 10.4717L4.195 7.13833ZM15.3333 9.33333C15.1565 9.33333 14.987 9.40357 14.8619 9.52859C14.7369 9.65362 14.6667 9.82319 14.6667 10V14.6667H1.33333V10C1.33333 9.82319 1.2631 9.65362 1.13807 9.52859C1.01305 9.40357 0.843478 9.33333 0.666667 9.33333C0.489856 9.33333 0.320287 9.40357 0.195262 9.52859C0.070238 9.65362 0 9.82319 0 10V14.6667C0 15.0203 0.140476 15.3594 0.390524 15.6095C0.640573 15.8595 0.979711 16 1.33333 16H14.6667C15.0203 16 15.3594 15.8595 15.6095 15.6095C15.8595 15.3594 16 15.0203 16 14.6667V10C16 9.82319 15.9298 9.65362 15.8047 9.52859C15.6797 9.40357 15.5101 9.33333 15.3333 9.33333Z"/>
</svg>
