<svg fill="currentColor" width="16" height="16" viewBox="0 0 16 16" xmlns="http://www.w3.org/2000/svg">
<path d="M15.6243 3.95007L12.05 0.374994C11.9311 0.256108 11.79 0.161801 11.6347 0.0974588C11.4794 0.0331167 11.3129 0 11.1448 0C10.9767 0 10.8103 0.0331167 10.6549 0.0974588C10.4996 0.161801 10.3585 0.256108 10.2397 0.374994L0.375194 10.2403C0.255821 10.3587 0.16118 10.4997 0.0967705 10.655C0.0323612 10.8103 -0.000530733 10.9769 6.47574e-06 11.145V14.7201C6.47574e-06 15.0596 0.134859 15.3851 0.374897 15.6252C0.614935 15.8652 0.940497 16.0001 1.27996 16.0001H4.85504C5.02319 16.0006 5.18977 15.9677 5.34509 15.9033C5.50041 15.8389 5.64139 15.7442 5.75981 15.6249L15.6243 5.76041C15.7432 5.64155 15.8375 5.50044 15.9018 5.34513C15.9662 5.18982 15.9993 5.02335 15.9993 4.85524C15.9993 4.68713 15.9662 4.52067 15.9018 4.36535C15.8375 4.21004 15.7432 4.06893 15.6243 3.95007ZM12.7996 6.77478L9.22449 3.2005L11.1444 1.28056L14.7195 4.85484L12.7996 6.77478Z"/>
</svg>
