<svg fill="currentColor" width="16" height="16" viewBox="0 0 16 16" xmlns="http://www.w3.org/2000/svg">
<path d="M10.0741 7.99998C10.0741 8.41019 9.95243 8.81119 9.72453 9.15227C9.49663 9.49335 9.1727 9.75919 8.79371 9.91617C8.41473 10.0732 7.9977 10.1142 7.59537 10.0342C7.19304 9.95417 6.82347 9.75663 6.53341 9.46657C6.24334 9.1765 6.04581 8.80694 5.96578 8.40461C5.88575 8.00228 5.92682 7.58525 6.08381 7.20626C6.24079 6.82728 6.50663 6.50335 6.84771 6.27545C7.18879 6.04755 7.58979 5.9259 8 5.9259C8.55008 5.9259 9.07763 6.14442 9.46659 6.53339C9.85556 6.92235 10.0741 7.4499 10.0741 7.99998ZM2.07407 5.9259C1.66386 5.9259 1.26286 6.04755 0.921781 6.27545C0.580702 6.50335 0.314862 6.82728 0.15788 7.20626C0.000898661 7.58525 -0.0401749 8.00228 0.0398537 8.40461C0.119882 8.80694 0.317419 9.1765 0.607483 9.46657C0.897548 9.75663 1.26711 9.95417 1.66944 10.0342C2.07177 10.1142 2.4888 10.0732 2.86779 9.91617C3.24678 9.75919 3.5707 9.49335 3.7986 9.15227C4.02651 8.81119 4.14815 8.41019 4.14815 7.99998C4.14815 7.4499 3.92963 6.92235 3.54067 6.53339C3.1517 6.14442 2.62415 5.9259 2.07407 5.9259ZM13.9259 5.9259C13.5157 5.9259 13.1147 6.04755 12.7736 6.27545C12.4326 6.50335 12.1667 6.82728 12.0097 7.20626C11.8527 7.58525 11.8117 8.00228 11.8917 8.40461C11.9717 8.80694 12.1693 9.1765 12.4593 9.46657C12.7494 9.75663 13.119 9.95417 13.5213 10.0342C13.9236 10.1142 14.3407 10.0732 14.7196 9.91617C15.0986 9.75919 15.4226 9.49335 15.6505 9.15227C15.8784 8.81119 16 8.41019 16 7.99998C16 7.72761 15.9464 7.4579 15.8421 7.20626C15.7379 6.95463 15.5851 6.72598 15.3925 6.53339C15.1999 6.34079 14.9713 6.18801 14.7196 6.08378C14.468 5.97955 14.1983 5.9259 13.9259 5.9259Z"/>
</svg>
