<svg fill="currentColor" width="16" height="16" viewBox="0 0 16 16" xmlns="http://www.w3.org/2000/svg">
<path d="M14.4006 0H1.59945C1.25994 0 0.934341 0.134869 0.694273 0.374937C0.454205 0.615005 0.319336 0.940608 0.319336 1.28012V5.98214C0.319336 13.1524 6.38548 15.5302 7.59999 15.9334C7.8593 16.0222 8.14076 16.0222 8.40006 15.9334C9.61617 15.5294 15.6807 13.1516 15.6807 5.98134V1.28012C15.6807 0.940608 15.5458 0.615005 15.3058 0.374937C15.0657 0.134869 14.7401 0 14.4006 0ZM7.35997 4.4804C7.35997 4.31065 7.4274 4.14785 7.54744 4.02781C7.66747 3.90778 7.83027 3.84035 8.00003 3.84035C8.16978 3.84035 8.33258 3.90778 8.45262 4.02781C8.57265 4.14785 8.64009 4.31065 8.64009 4.4804V7.68069C8.64009 7.85045 8.57265 8.01325 8.45262 8.13328C8.33258 8.25331 8.16978 8.32075 8.00003 8.32075C7.83027 8.32075 7.66747 8.25331 7.54744 8.13328C7.4274 8.01325 7.35997 7.85045 7.35997 7.68069V4.4804ZM8.00003 11.521C7.81014 11.521 7.62452 11.4647 7.46663 11.3592C7.30875 11.2537 7.18569 11.1038 7.11302 10.9284C7.04036 10.7529 7.02134 10.5599 7.05839 10.3736C7.09543 10.1874 7.18687 10.0163 7.32114 9.88207C7.45541 9.7478 7.62648 9.65636 7.81272 9.61931C7.99896 9.58227 8.192 9.60128 8.36744 9.67395C8.54287 9.74661 8.69281 9.86967 8.79831 10.0276C8.90381 10.1854 8.96011 10.3711 8.96011 10.561C8.96011 10.8156 8.85896 11.0598 8.67891 11.2398C8.49886 11.4199 8.25466 11.521 8.00003 11.521Z"/>
</svg>
