<svg fill="currentColor" width="16" height="16" viewBox="0 0 16 16" xmlns="http://www.w3.org/2000/svg">
<path d="M14.7692 3.46154H11.6923V2.84615C11.6923 2.35652 11.4978 1.88695 11.1516 1.54073C10.8054 1.19451 10.3358 1 9.84615 1H6.15385C5.66422 1 5.19464 1.19451 4.84842 1.54073C4.5022 1.88695 4.30769 2.35652 4.30769 2.84615V3.46154H1.23077C0.904349 3.46154 0.591298 3.59121 0.360484 3.82202C0.12967 4.05284 0 4.36589 0 4.69231V14.5385C0 14.8649 0.12967 15.1779 0.360484 15.4087C0.591298 15.6396 0.904349 15.7692 1.23077 15.7692H14.7692C15.0957 15.7692 15.4087 15.6396 15.6395 15.4087C15.8703 15.1779 16 14.8649 16 14.5385V4.69231C16 4.36589 15.8703 4.05284 15.6395 3.82202C15.4087 3.59121 15.0957 3.46154 14.7692 3.46154ZM9.84615 10.2308H8.61539V11.4615C8.61539 11.6247 8.55055 11.7813 8.43514 11.8967C8.31974 12.0121 8.16321 12.0769 8 12.0769C7.83679 12.0769 7.68026 12.0121 7.56486 11.8967C7.44945 11.7813 7.38462 11.6247 7.38462 11.4615V10.2308H6.15385C5.99064 10.2308 5.83411 10.1659 5.7187 10.0505C5.6033 9.93512 5.53846 9.77859 5.53846 9.61539C5.53846 9.45218 5.6033 9.29565 5.7187 9.18024C5.83411 9.06483 5.99064 9 6.15385 9H7.38462V7.76923C7.38462 7.60602 7.44945 7.4495 7.56486 7.33409C7.68026 7.21868 7.83679 7.15385 8 7.15385C8.16321 7.15385 8.31974 7.21868 8.43514 7.33409C8.55055 7.4495 8.61539 7.60602 8.61539 7.76923V9H9.84615C10.0094 9 10.1659 9.06483 10.2813 9.18024C10.3967 9.29565 10.4615 9.45218 10.4615 9.61539C10.4615 9.77859 10.3967 9.93512 10.2813 10.0505C10.1659 10.1659 10.0094 10.2308 9.84615 10.2308ZM10.4615 3.46154H5.53846V2.84615C5.53846 2.68294 5.6033 2.52642 5.7187 2.41101C5.83411 2.2956 5.99064 2.23077 6.15385 2.23077H9.84615C10.0094 2.23077 10.1659 2.2956 10.2813 2.41101C10.3967 2.52642 10.4615 2.68294 10.4615 2.84615V3.46154Z"/>
</svg>
