<svg fill="currentColor" width="16" height="16" viewBox="0 0 16 16" xmlns="http://www.w3.org/2000/svg">
<path d="M13.3333 8.66667V14.6667C13.3333 15.0203 13.1929 15.3594 12.9428 15.6095C12.6928 15.8595 12.3536 16 12 16H1.33333C0.979711 16 0.640573 15.8595 0.390524 15.6095C0.140476 15.3594 0 15.0203 0 14.6667V4C0 3.64638 0.140476 3.30724 0.390524 3.05719C0.640573 2.80714 0.979711 2.66667 1.33333 2.66667H7.33333C7.51014 2.66667 7.67971 2.73691 7.80474 2.86193C7.92976 2.98695 8 3.15652 8 3.33333C8 3.51014 7.92976 3.67971 7.80474 3.80474C7.67971 3.92976 7.51014 4 7.33333 4H1.33333V14.6667H12V8.66667C12 8.48986 12.0702 8.32029 12.1953 8.19526C12.3203 8.07024 12.4899 8 12.6667 8C12.8435 8 13.013 8.07024 13.1381 8.19526C13.2631 8.32029 13.3333 8.48986 13.3333 8.66667ZM16 0.666667C16 0.489856 15.9298 0.320287 15.8047 0.195262C15.6797 0.0702382 15.5101 2.06534e-07 15.3333 2.06534e-07H10C9.86807 -0.000103618 9.73907 0.0389395 9.62934 0.112187C9.51962 0.185434 9.43409 0.289591 9.38359 0.411473C9.33308 0.533356 9.31988 0.667482 9.34565 0.796871C9.37141 0.926261 9.43499 1.0451 9.52833 1.13833L11.7242 3.33333L8.195 6.86167C8.06991 6.98676 7.99963 7.15642 7.99963 7.33333C7.99963 7.51024 8.06991 7.67991 8.195 7.805C8.32009 7.93009 8.48976 8.00037 8.66667 8.00037C8.84358 8.00037 9.01324 7.93009 9.13833 7.805L12.6667 4.27583L14.8617 6.47167C14.9549 6.56501 15.0737 6.62859 15.2031 6.65435C15.3325 6.68012 15.4666 6.66692 15.5885 6.61642C15.7104 6.56591 15.8146 6.48038 15.8878 6.37065C15.9611 6.26093 16.0001 6.13193 16 6V0.666667Z"/>
</svg>
