<svg fill="currentColor" width="16" height="16" viewBox="0 0 16 16" xmlns="http://www.w3.org/2000/svg">
<path d="M15.9866 9.35684L15.1294 2.49994C15.0772 2.08559 14.8756 1.70454 14.5623 1.42836C14.249 1.15218 13.8457 0.999857 13.4281 1H1.14282C0.839722 1 0.549042 1.1204 0.334723 1.33472C0.120403 1.54904 0 1.83972 0 2.14282V8.4283C0 8.73139 0.120403 9.02207 0.334723 9.23639C0.549042 9.45071 0.839722 9.57111 1.14282 9.57111H4.21842L6.91689 14.9695C6.96439 15.0644 7.0374 15.1442 7.12773 15.2C7.21806 15.2558 7.32214 15.2853 7.4283 15.2852C8.18603 15.2852 8.91273 14.9842 9.44853 14.4484C9.98433 13.9126 10.2853 13.1859 10.2853 12.4282V11.2853H14.2852C14.5284 11.2854 14.7689 11.2337 14.9907 11.1337C15.2124 11.0337 15.4103 10.8876 15.5712 10.7052C15.7322 10.5228 15.8524 10.3082 15.924 10.0757C15.9957 9.84324 16.017 9.59818 15.9866 9.35684ZM3.99985 8.4283H1.14282V2.14282H3.99985V8.4283Z"/>
</svg>
