<svg fill="currentColor" width="16" height="16" viewBox="0 0 16 16" xmlns="http://www.w3.org/2000/svg">
<g clip-path="url(#clip0_3142_1387)">
<path d="M14.5892 4.48769L10.2815 0.18C10.2244 0.122871 10.1565 0.0775705 10.0818 0.0466855C10.0071 0.0158005 9.927 -6.33759e-05 9.84616 1.90276e-07H2.46154C2.13512 1.90276e-07 1.82207 0.12967 1.59126 0.360484C1.36044 0.591298 1.23077 0.904349 1.23077 1.23077V14.7692C1.23077 15.0957 1.36044 15.4087 1.59126 15.6395C1.82207 15.8703 2.13512 16 2.46154 16H13.5385C13.8649 16 14.1779 15.8703 14.4088 15.6395C14.6396 15.4087 14.7692 15.0957 14.7692 14.7692V4.92308C14.7693 4.84224 14.7534 4.76218 14.7226 4.68748C14.6917 4.61277 14.6464 4.54488 14.5892 4.48769ZM9.84616 4.92308V1.53846L13.2308 4.92308H9.84616Z"/>
</g>
<defs>
<clipPath id="clip0_3142_1387">
<rect width="16" height="16"/>
</clipPath>
</defs>
</svg>
