<svg fill="currentColor" width="16" height="16" viewBox="0 0 16 16" xmlns="http://www.w3.org/2000/svg">
<path d="M15.6778 2.67207L15.6716 2.67899L10.4608 8.24296V12.5121C10.4611 12.7151 10.4112 12.9151 10.3154 13.0942C10.2197 13.2732 10.0812 13.4259 9.91223 13.5384L7.4503 15.1802C7.26477 15.3038 7.04917 15.3747 6.8265 15.3853C6.60384 15.3959 6.38247 15.3459 6.18602 15.2405C5.98958 15.1351 5.82544 14.9784 5.71112 14.787C5.5968 14.5956 5.53659 14.3768 5.53692 14.1539V8.24296L0.326089 2.67899L0.319934 2.67207C0.159714 2.49575 0.0541042 2.27672 0.0159166 2.04155C-0.0222711 1.80639 0.00860456 1.56519 0.104798 1.34723C0.200991 1.12927 0.358368 0.943905 0.557837 0.813626C0.757307 0.683346 0.990296 0.613751 1.22854 0.613281H14.7692C15.0076 0.613304 15.2409 0.682577 15.4407 0.812683C15.6405 0.942789 15.7983 1.12813 15.8947 1.34618C15.9912 1.56423 16.0223 1.80561 15.9842 2.04098C15.9461 2.27636 15.8404 2.4956 15.6801 2.67207H15.6778Z"/>
</svg>
