<svg fill="currentColor" width="16" height="16" viewBox="0 0 16 16" xmlns="http://www.w3.org/2000/svg">
<path d="M5.59506e-08 15.04L1.28686e-06 0.959992C1.3017e-06 0.790253 0.0674299 0.627466 0.187453 0.507443C0.307476 0.387419 0.470263 0.319992 0.640002 0.319992C0.80974 0.319992 0.972527 0.387419 1.09255 0.507443C1.21257 0.627466 1.28 0.790253 1.28 0.959992L1.28 15.04C1.28 15.2097 1.21257 15.3725 1.09255 15.4925C0.972526 15.6126 0.809739 15.68 0.64 15.68C0.470262 15.68 0.307475 15.6126 0.187451 15.4925C0.0674286 15.3725 4.11116e-08 15.2097 5.59506e-08 15.04ZM8.5072 14.2128C8.59671 14.3024 8.71079 14.3634 8.835 14.3882C8.95922 14.4129 9.08798 14.4002 9.20499 14.3518C9.32199 14.3033 9.42198 14.2212 9.4923 14.1158C9.56262 14.0105 9.6001 13.8866 9.6 13.76L9.6 8.63999L15.36 8.63999C15.5297 8.63999 15.6925 8.57256 15.8125 8.45254C15.9326 8.33252 16 8.16973 16 7.99999C16 7.83025 15.9326 7.66747 15.8125 7.54744C15.6925 7.42742 15.5297 7.35999 15.36 7.35999L9.6 7.35999L9.6 2.23999C9.6001 2.11334 9.56262 1.9895 9.4923 1.88416C9.42198 1.77882 9.32199 1.69672 9.20499 1.64823C9.08798 1.59975 8.95922 1.58708 8.83501 1.61181C8.71079 1.63655 8.59671 1.69758 8.5072 1.78719L2.7472 7.54719C2.6877 7.60663 2.64049 7.67722 2.60828 7.75491C2.57607 7.8326 2.5595 7.91589 2.5595 7.99999C2.5595 8.0841 2.57607 8.16738 2.60828 8.24507C2.64049 8.32277 2.6877 8.39335 2.7472 8.45279L8.5072 14.2128Z"/>
</svg>
