<svg fill="currentColor" width="16" height="16" viewBox="0 0 16 16" xmlns="http://www.w3.org/2000/svg">
<path d="M13.159 9.93741C12.5197 10.326 11.7855 10.5304 11.0374 10.528C10.4106 10.523 9.79095 10.3948 9.21367 10.1507C8.76875 10.7788 8.53064 11.53 8.53245 12.2997V14.2653C8.53261 14.3384 8.51774 14.4108 8.48876 14.4779C8.45978 14.545 8.41731 14.6055 8.36399 14.6555C8.31067 14.7055 8.24764 14.744 8.17881 14.7686C8.10998 14.7932 8.03682 14.8034 7.96388 14.7986C7.82681 14.7867 7.69933 14.7234 7.60698 14.6214C7.51464 14.5194 7.46427 14.3863 7.46596 14.2487V13.4195L4.89173 10.8453C4.50906 10.988 4.10435 11.0627 3.69593 11.0659C3.13367 11.0673 2.58194 10.9134 2.10153 10.6213C0.649103 9.73877 -0.132765 7.70778 0.0185425 5.1862C0.0261609 5.05575 0.0814166 4.93263 0.173819 4.84023C0.266222 4.74783 0.389337 4.69257 0.519792 4.68495C3.04137 4.53631 5.07236 5.31551 5.95221 6.76794C6.2979 7.33723 6.44882 8.0036 6.38214 8.66628C6.378 8.71763 6.35907 8.76667 6.32764 8.80749C6.29622 8.8483 6.25364 8.87914 6.20506 8.89627C6.15649 8.91341 6.10399 8.9161 6.05391 8.90403C6.00383 8.89196 5.95832 8.86564 5.92289 8.82826L4.6431 7.48848C4.54228 7.3927 4.40804 7.34009 4.26899 7.34187C4.12994 7.34365 3.99709 7.39968 3.89876 7.49801C3.80043 7.59634 3.7444 7.7292 3.74262 7.86825C3.74084 8.0073 3.79345 8.14154 3.88923 8.24236L7.48063 11.9251C7.48462 11.8731 7.48929 11.8211 7.49462 11.7698C7.61123 10.7811 8.04749 9.85755 8.73708 9.13954L12.1092 5.57614C12.2092 5.47617 12.2655 5.34054 12.2656 5.1991C12.2656 5.05766 12.2095 4.92199 12.1095 4.82193C12.0095 4.72187 11.8739 4.66562 11.7325 4.66556C11.591 4.6655 11.4554 4.72163 11.3553 4.8216L8.08919 8.27568C8.0565 8.31031 8.01513 8.33555 7.96938 8.34878C7.92363 8.36201 7.87517 8.36274 7.82904 8.3509C7.78291 8.33907 7.7408 8.31509 7.70707 8.28146C7.67335 8.24784 7.64924 8.2058 7.63727 8.1597C7.32132 6.99457 7.46063 5.83476 8.06386 4.83893C9.25433 2.87392 12.0245 1.8221 15.4746 2.02473C15.6051 2.03235 15.7282 2.08761 15.8206 2.18001C15.913 2.27241 15.9682 2.39553 15.9759 2.52598C16.1758 5.97674 15.124 8.74694 13.159 9.93741Z"/>
</svg>
