<svg fill="currentColor" width="16" height="16" viewBox="0 0 16 16" xmlns="http://www.w3.org/2000/svg">
<path d="M7.27273 1.45455V5.81818C7.27273 6.20395 7.11948 6.57392 6.8467 6.8467C6.57392 7.11948 6.20395 7.27273 5.81818 7.27273H1.45455C1.06878 7.27273 0.698807 7.11948 0.426026 6.8467C0.153246 6.57392 0 6.20395 0 5.81818V1.45455C0 1.06878 0.153246 0.698807 0.426026 0.426026C0.698807 0.153246 1.06878 0 1.45455 0H5.81818C6.20395 0 6.57392 0.153246 6.8467 0.426026C7.11948 0.698807 7.27273 1.06878 7.27273 1.45455ZM14.5455 0H10.1818C9.79605 0 9.42608 0.153246 9.1533 0.426026C8.88052 0.698807 8.72727 1.06878 8.72727 1.45455V5.81818C8.72727 6.20395 8.88052 6.57392 9.1533 6.8467C9.42608 7.11948 9.79605 7.27273 10.1818 7.27273H14.5455C14.9312 7.27273 15.3012 7.11948 15.574 6.8467C15.8468 6.57392 16 6.20395 16 5.81818V1.45455C16 1.06878 15.8468 0.698807 15.574 0.426026C15.3012 0.153246 14.9312 0 14.5455 0ZM5.81818 8.72727H1.45455C1.06878 8.72727 0.698807 8.88052 0.426026 9.1533C0.153246 9.42608 0 9.79605 0 10.1818V14.5455C0 14.9312 0.153246 15.3012 0.426026 15.574C0.698807 15.8468 1.06878 16 1.45455 16H5.81818C6.20395 16 6.57392 15.8468 6.8467 15.574C7.11948 15.3012 7.27273 14.9312 7.27273 14.5455V10.1818C7.27273 9.79605 7.11948 9.42608 6.8467 9.1533C6.57392 8.88052 6.20395 8.72727 5.81818 8.72727ZM14.5455 8.72727H10.1818C9.79605 8.72727 9.42608 8.88052 9.1533 9.1533C8.88052 9.42608 8.72727 9.79605 8.72727 10.1818V14.5455C8.72727 14.9312 8.88052 15.3012 9.1533 15.574C9.42608 15.8468 9.79605 16 10.1818 16H14.5455C14.9312 16 15.3012 15.8468 15.574 15.574C15.8468 15.3012 16 14.9312 16 14.5455V10.1818C16 9.79605 15.8468 9.42608 15.574 9.1533C15.3012 8.88052 14.9312 8.72727 14.5455 8.72727Z"/>
</svg>
