<svg fill="currentColor" width="16" height="16" viewBox="0 0 16 16" xmlns="http://www.w3.org/2000/svg">
<path d="M16 5.5731C16 10.5731 8.58643 14.6202 8.27071 14.7874C8.1875 14.8322 8.09449 14.8556 8 14.8556C7.90551 14.8556 7.8125 14.8322 7.72929 14.7874C7.41357 14.6202 0 10.5731 0 5.5731C0.00132338 4.39898 0.468329 3.27332 1.29856 2.44309C2.12879 1.61286 3.25445 1.14585 4.42857 1.14453C5.90357 1.14453 7.195 1.77882 8 2.85096C8.805 1.77882 10.0964 1.14453 11.5714 1.14453C12.7456 1.14585 13.8712 1.61286 14.7014 2.44309C15.5317 3.27332 15.9987 4.39898 16 5.5731Z"/>
</svg>
