<svg fill="currentColor" width="16" height="16" viewBox="0 0 16 16" xmlns="http://www.w3.org/2000/svg">
<path d="M8 0C6.41775 0 4.87103 0.469192 3.55544 1.34824C2.23985 2.22729 1.21447 3.47672 0.608967 4.93853C0.00346628 6.40034 -0.15496 8.00887 0.153721 9.56072C0.462403 11.1126 1.22433 12.538 2.34315 13.6569C3.46197 14.7757 4.88743 15.5376 6.43928 15.8463C7.99113 16.155 9.59966 15.9965 11.0615 15.391C12.5233 14.7855 13.7727 13.7602 14.6518 12.4446C15.5308 11.129 16 9.58225 16 8C15.9978 5.87895 15.1542 3.84542 13.6544 2.34562C12.1546 0.845814 10.121 0.00223986 8 0ZM8 12.9231C7.81743 12.9231 7.63897 12.8689 7.48717 12.7675C7.33537 12.6661 7.21706 12.5219 7.14719 12.3532C7.07732 12.1846 7.05904 11.999 7.09466 11.8199C7.13028 11.6409 7.21819 11.4764 7.34729 11.3473C7.47638 11.2182 7.64086 11.1303 7.81992 11.0947C7.99898 11.059 8.18458 11.0773 8.35325 11.1472C8.52192 11.2171 8.66608 11.3354 8.76751 11.4872C8.86894 11.639 8.92308 11.8174 8.92308 12C8.92308 12.2448 8.82583 12.4796 8.65271 12.6527C8.4796 12.8258 8.24482 12.9231 8 12.9231ZM8.61539 9.17538V9.23077C8.61539 9.39398 8.55055 9.5505 8.43514 9.66591C8.31974 9.78132 8.16321 9.84615 8 9.84615C7.83679 9.84615 7.68027 9.78132 7.56486 9.66591C7.44945 9.5505 7.38462 9.39398 7.38462 9.23077V8.61538C7.38462 8.45217 7.44945 8.29565 7.56486 8.18024C7.68027 8.06483 7.83679 8 8 8C9.01769 8 9.84616 7.30769 9.84616 6.46154C9.84616 5.61538 9.01769 4.92308 8 4.92308C6.98231 4.92308 6.15385 5.61538 6.15385 6.46154V6.76923C6.15385 6.93244 6.08901 7.08896 5.97361 7.20437C5.8582 7.31978 5.70167 7.38461 5.53846 7.38461C5.37525 7.38461 5.21873 7.31978 5.10332 7.20437C4.98791 7.08896 4.92308 6.93244 4.92308 6.76923V6.46154C4.92308 4.93461 6.30308 3.69231 8 3.69231C9.69692 3.69231 11.0769 4.93461 11.0769 6.46154C11.0769 7.79846 10.0185 8.91769 8.61539 9.17538Z"/>
</svg>
