<svg fill="currentColor" width="16" height="16" viewBox="0 0 16 16" xmlns="http://www.w3.org/2000/svg">
<path d="M15.6806 7.32326V14.7199C15.6806 15.0594 15.5458 15.385 15.3057 15.6251C15.0656 15.8651 14.74 16 14.4005 16H11.2003C10.8608 16 10.5352 15.8651 10.2951 15.6251C10.055 15.385 9.92015 15.0594 9.92015 14.7199V11.5196C9.92015 11.3499 9.85272 11.1871 9.73269 11.067C9.61265 10.947 9.44985 10.8796 9.2801 10.8796H6.71988C6.55013 10.8796 6.38733 10.947 6.26729 11.067C6.14726 11.1871 6.07983 11.3499 6.07983 11.5196V14.7199C6.07983 15.0594 5.94496 15.385 5.70489 15.6251C5.46482 15.8651 5.13922 16 4.79972 16H1.59944C1.25994 16 0.934338 15.8651 0.694271 15.6251C0.454204 15.385 0.319336 15.0594 0.319336 14.7199V7.32326C0.319309 7.1461 0.356058 6.97085 0.427258 6.80862C0.498458 6.64639 0.602558 6.5007 0.732971 6.38078L7.13351 0.341869L7.14232 0.333068C7.37797 0.118756 7.68506 0 8.00359 0C8.32212 0 8.62921 0.118756 8.86486 0.333068C8.86759 0.336198 8.87053 0.339139 8.87366 0.341869L15.2742 6.38078C15.4033 6.50134 15.5061 6.64731 15.576 6.80951C15.646 6.97171 15.6816 7.14663 15.6806 7.32326Z"/>
</svg>
