<svg fill="currentColor" width="16" height="16" viewBox="0 0 16 16" xmlns="http://www.w3.org/2000/svg">
<path d="M6.76923 7.15385C6.76923 7.39727 6.69705 7.63523 6.56181 7.83763C6.42657 8.04002 6.23435 8.19777 6.00946 8.29093C5.78456 8.38408 5.5371 8.40846 5.29835 8.36097C5.0596 8.31348 4.8403 8.19626 4.66818 8.02413C4.49605 7.85201 4.37883 7.6327 4.33134 7.39396C4.28385 7.15521 4.30823 6.90775 4.40138 6.68285C4.49453 6.45796 4.65228 6.26574 4.85468 6.1305C5.05708 5.99526 5.29504 5.92308 5.53846 5.92308C5.86488 5.92308 6.17793 6.05275 6.40875 6.28356C6.63956 6.51438 6.76923 6.82743 6.76923 7.15385ZM16 2.23077V13.3077C16 13.6341 15.8703 13.9472 15.6395 14.178C15.4087 14.4088 15.0957 14.5385 14.7692 14.5385H1.23077C0.904349 14.5385 0.591298 14.4088 0.360484 14.178C0.12967 13.9472 0 13.6341 0 13.3077V2.23077C0 1.90435 0.12967 1.5913 0.360484 1.36048C0.591298 1.12967 0.904349 1 1.23077 1H14.7692C15.0957 1 15.4087 1.12967 15.6395 1.36048C15.8703 1.5913 16 1.90435 16 2.23077ZM8.59615 10.6923C8.39702 9.94877 7.92484 9.30767 7.27385 8.89692C7.61956 8.55326 7.85546 8.11468 7.95163 7.63679C8.04779 7.1589 7.9999 6.66322 7.81403 6.21258C7.62815 5.76194 7.31266 5.37663 6.90754 5.10551C6.50243 4.83438 6.02593 4.68964 5.53846 4.68964C5.05099 4.68964 4.5745 4.83438 4.16938 5.10551C3.76427 5.37663 3.44877 5.76194 3.2629 6.21258C3.07702 6.66322 3.02913 7.1589 3.1253 7.63679C3.22147 8.11468 3.45736 8.55326 3.80308 8.89692C3.1525 9.30812 2.68046 9.94904 2.48077 10.6923C2.43997 10.8504 2.46364 11.0183 2.54659 11.1589C2.62954 11.2996 2.76497 11.4015 2.92308 11.4423C3.08119 11.4831 3.24903 11.4594 3.38968 11.3765C3.53033 11.2935 3.63227 11.1581 3.67308 11C3.87615 10.2115 4.67769 9.61539 5.53846 9.61539C6.39923 9.61539 7.20154 10.21 7.40385 11C7.44465 11.1581 7.54659 11.2935 7.68724 11.3765C7.82789 11.4594 7.99574 11.4831 8.15385 11.4423C8.31196 11.4015 8.44738 11.2996 8.53033 11.1589C8.61328 11.0183 8.63696 10.8504 8.59615 10.6923ZM13.5385 9C13.5385 8.83679 13.4736 8.68026 13.3582 8.56486C13.2428 8.44945 13.0863 8.38462 12.9231 8.38462H9.84615C9.68294 8.38462 9.52642 8.44945 9.41101 8.56486C9.2956 8.68026 9.23077 8.83679 9.23077 9C9.23077 9.16321 9.2956 9.31974 9.41101 9.43514C9.52642 9.55055 9.68294 9.61539 9.84615 9.61539H12.9231C13.0863 9.61539 13.2428 9.55055 13.3582 9.43514C13.4736 9.31974 13.5385 9.16321 13.5385 9ZM13.5385 6.53846C13.5385 6.37525 13.4736 6.21873 13.3582 6.10332C13.2428 5.98791 13.0863 5.92308 12.9231 5.92308H9.84615C9.68294 5.92308 9.52642 5.98791 9.41101 6.10332C9.2956 6.21873 9.23077 6.37525 9.23077 6.53846C9.23077 6.70167 9.2956 6.8582 9.41101 6.9736C9.52642 7.08901 9.68294 7.15385 9.84615 7.15385H12.9231C13.0863 7.15385 13.2428 7.08901 13.3582 6.9736C13.4736 6.8582 13.5385 6.70167 13.5385 6.53846Z"/>
</svg>
