<svg fill="currentColor" width="16" height="16" viewBox="0 0 16 16" xmlns="http://www.w3.org/2000/svg">
<path d="M8 0C6.41775 0 4.87103 0.469192 3.55544 1.34824C2.23985 2.22729 1.21447 3.47672 0.608967 4.93853C0.00346628 6.40034 -0.15496 8.00887 0.153721 9.56072C0.462403 11.1126 1.22433 12.538 2.34315 13.6569C3.46197 14.7757 4.88743 15.5376 6.43928 15.8463C7.99113 16.155 9.59966 15.9965 11.0615 15.391C12.5233 14.7855 13.7727 13.7602 14.6518 12.4446C15.5308 11.129 16 9.58225 16 8C15.9978 5.87895 15.1542 3.84542 13.6544 2.34562C12.1546 0.845814 10.121 0.00223986 8 0ZM7.69231 3.69231C7.87488 3.69231 8.05334 3.74644 8.20514 3.84787C8.35694 3.9493 8.47526 4.09347 8.54512 4.26214C8.61499 4.43081 8.63327 4.61641 8.59765 4.79547C8.56203 4.97453 8.47412 5.139 8.34502 5.2681C8.21593 5.39719 8.05145 5.48511 7.87239 5.52072C7.69333 5.55634 7.50773 5.53806 7.33906 5.46819C7.17039 5.39833 7.02623 5.28002 6.9248 5.12822C6.82337 4.97642 6.76923 4.79795 6.76923 4.61538C6.76923 4.37057 6.86649 4.13578 7.0396 3.96267C7.21271 3.78956 7.44749 3.69231 7.69231 3.69231ZM8.61539 12.3077C8.28897 12.3077 7.97591 12.178 7.7451 11.9472C7.51429 11.7164 7.38462 11.4033 7.38462 11.0769V8C7.22141 8 7.06488 7.93516 6.94947 7.81976C6.83407 7.70435 6.76923 7.54782 6.76923 7.38461C6.76923 7.2214 6.83407 7.06488 6.94947 6.94947C7.06488 6.83406 7.22141 6.76923 7.38462 6.76923C7.71104 6.76923 8.02409 6.8989 8.2549 7.12971C8.48572 7.36053 8.61539 7.67358 8.61539 8V11.0769C8.7786 11.0769 8.93512 11.1418 9.05053 11.2572C9.16594 11.3726 9.23077 11.5291 9.23077 11.6923C9.23077 11.8555 9.16594 12.012 9.05053 12.1274C8.93512 12.2429 8.7786 12.3077 8.61539 12.3077Z"/>
</svg>
