<svg fill="currentColor" width="16" height="16" viewBox="0 0 16 16" xmlns="http://www.w3.org/2000/svg">
<path d="M16 0.960007V15.04C16 15.2097 15.9326 15.3725 15.8125 15.4926C15.6925 15.6126 15.5297 15.68 15.36 15.68C15.1903 15.68 15.0275 15.6126 14.9075 15.4926C14.7874 15.3725 14.72 15.2097 14.72 15.04V0.960007C14.72 0.790269 14.7874 0.627482 14.9075 0.507459C15.0275 0.387436 15.1903 0.320007 15.36 0.320007C15.5297 0.320007 15.6925 0.387436 15.8125 0.507459C15.9326 0.627482 16 0.790269 16 0.960007ZM7.4928 1.78721C7.40329 1.6976 7.28921 1.63656 7.165 1.61183C7.04078 1.58709 6.91202 1.59977 6.79501 1.64825C6.67801 1.69673 6.57802 1.77884 6.5077 1.88418C6.43738 1.98952 6.3999 2.11335 6.4 2.24001V7.36001H0.64C0.470261 7.36001 0.307475 7.42744 0.187452 7.54746C0.0674284 7.66748 0 7.83027 0 8.00001C0 8.16975 0.0674284 8.33253 0.187452 8.45256C0.307475 8.57258 0.470261 8.64001 0.64 8.64001H6.4V13.76C6.3999 13.8867 6.43738 14.0105 6.5077 14.1158C6.57802 14.2212 6.67801 14.3033 6.79501 14.3518C6.91202 14.4002 7.04078 14.4129 7.165 14.3882C7.28921 14.3634 7.40329 14.3024 7.4928 14.2128L13.2528 8.45281C13.3123 8.39337 13.3595 8.32278 13.3917 8.24509C13.4239 8.16739 13.4405 8.08411 13.4405 8.00001C13.4405 7.9159 13.4239 7.83262 13.3917 7.75493C13.3595 7.67723 13.3123 7.60665 13.2528 7.54721L7.4928 1.78721Z"/>
</svg>
