<svg fill="currentColor" width="16" height="16" viewBox="0 0 16 16" xmlns="http://www.w3.org/2000/svg">
<path d="M8 0C6.41775 0 4.87103 0.469192 3.55544 1.34824C2.23985 2.22729 1.21447 3.47672 0.608967 4.93853C0.00346628 6.40034 -0.15496 8.00887 0.153721 9.56072C0.462403 11.1126 1.22433 12.538 2.34315 13.6569C3.46197 14.7757 4.88743 15.5376 6.43928 15.8463C7.99113 16.155 9.59966 15.9965 11.0615 15.391C12.5233 14.7855 13.7727 13.7602 14.6518 12.4446C15.5308 11.129 16 9.58225 16 8C15.9978 5.87895 15.1542 3.84542 13.6544 2.34562C12.1546 0.845814 10.121 0.00223986 8 0ZM11.0769 9.23077C11.0769 9.39398 11.0121 9.5505 10.8967 9.66591C10.7813 9.78132 10.6247 9.84615 10.4615 9.84615C10.2983 9.84615 10.1418 9.78132 10.0264 9.66591C9.91099 9.5505 9.84616 9.39398 9.84616 9.23077V7.02384L5.97385 10.8969C5.91667 10.9541 5.8488 10.9994 5.77409 11.0304C5.69939 11.0613 5.61932 11.0773 5.53846 11.0773C5.45761 11.0773 5.37754 11.0613 5.30283 11.0304C5.22813 10.9994 5.16025 10.9541 5.10308 10.8969C5.0459 10.8397 5.00055 10.7719 4.96961 10.6972C4.93866 10.6225 4.92274 10.5424 4.92274 10.4615C4.92274 10.3807 4.93866 10.3006 4.96961 10.2259C5.00055 10.1512 5.0459 10.0833 5.10308 10.0262L8.97616 6.15384H6.76923C6.60602 6.15384 6.4495 6.08901 6.33409 5.9736C6.21868 5.8582 6.15385 5.70167 6.15385 5.53846C6.15385 5.37525 6.21868 5.21872 6.33409 5.10332C6.4495 4.98791 6.60602 4.92308 6.76923 4.92308H10.4615C10.6247 4.92308 10.7813 4.98791 10.8967 5.10332C11.0121 5.21872 11.0769 5.37525 11.0769 5.53846V9.23077Z"/>
</svg>
