<svg fill="currentColor" width="16" height="16" viewBox="0 0 16 16" xmlns="http://www.w3.org/2000/svg">
<path d="M11.7133 15.4286C11.7133 15.5802 11.6531 15.7255 11.5459 15.8327C11.4388 15.9398 11.2934 16 11.1419 16H5.42827C5.27674 16 5.13141 15.9398 5.02426 15.8327C4.91711 15.7255 4.85691 15.5802 4.85691 15.4286C4.85691 15.2771 4.91711 15.1318 5.02426 15.0246C5.13141 14.9175 5.27674 14.8573 5.42827 14.8573H11.1419C11.2934 14.8573 11.4388 14.9175 11.5459 15.0246C11.6531 15.1318 11.7133 15.2771 11.7133 15.4286ZM14.5701 6.28682C14.5726 7.23931 14.3574 8.17978 13.941 9.03644C13.5246 9.89311 12.918 10.6433 12.1675 11.2298C12.0272 11.3374 11.9133 11.4756 11.8346 11.6339C11.7558 11.7923 11.7144 11.9665 11.7133 12.1433V12.5718C11.7133 12.8749 11.5929 13.1655 11.3786 13.3798C11.1643 13.5942 10.8736 13.7145 10.5705 13.7145H5.99964C5.69657 13.7145 5.40591 13.5942 5.19161 13.3798C4.9773 13.1655 4.85691 12.8749 4.85691 12.5718V12.1433C4.85679 11.9686 4.81662 11.7963 4.73949 11.6395C4.66235 11.4828 4.55031 11.3458 4.41196 11.2391C3.66333 10.6561 3.05715 9.91037 2.63929 9.05844C2.22143 8.20652 2.00285 7.2707 2.00009 6.32182C1.98152 2.91792 4.73264 0.0832435 8.13368 0.00182421C8.97169 -0.0183701 9.80527 0.129276 10.5854 0.436073C11.3655 0.74287 12.0763 1.20262 12.6761 1.78826C13.2758 2.3739 13.7523 3.07359 14.0776 3.84616C14.4029 4.61873 14.5703 5.44857 14.5701 6.28682ZM12.2768 5.61976C12.1286 4.7922 11.7305 4.02991 11.1359 3.4355C10.5414 2.8411 9.77903 2.44311 8.95144 2.29513C8.87744 2.28266 8.80171 2.28488 8.72857 2.30168C8.65543 2.31847 8.58631 2.34951 8.52516 2.39301C8.46401 2.43652 8.41204 2.49164 8.37219 2.55524C8.33235 2.61883 8.30542 2.68965 8.29295 2.76365C8.28047 2.83765 8.2827 2.91339 8.29949 2.98653C8.31628 3.05967 8.34732 3.12879 8.39083 3.18993C8.43433 3.25108 8.48946 3.30306 8.55305 3.3429C8.61664 3.38275 8.68746 3.40967 8.76147 3.42215C9.9449 3.62141 10.9491 4.62558 11.1498 5.81116C11.1724 5.94423 11.2414 6.065 11.3445 6.15207C11.4477 6.23914 11.5783 6.28687 11.7133 6.28682C11.7456 6.28663 11.7778 6.284 11.8097 6.27897C11.959 6.25347 12.0921 6.1697 12.1797 6.04608C12.2673 5.92246 12.3022 5.76911 12.2768 5.61976Z"/>
</svg>
