<svg fill="currentColor" width="16" height="14" viewBox="0 0 16 14" xmlns="http://www.w3.org/2000/svg">
<path d="M16 0.666667V2C16 2.17681 15.9298 2.34638 15.8047 2.4714C15.6797 2.59643 15.5101 2.66667 15.3333 2.66667H5.33333C5.15652 2.66667 4.98695 2.59643 4.86193 2.4714C4.7369 2.34638 4.66667 2.17681 4.66667 2V0.666667C4.66667 0.489856 4.7369 0.320287 4.86193 0.195262C4.98695 0.070238 5.15652 0 5.33333 0H15.3333C15.5101 0 15.6797 0.070238 15.8047 0.195262C15.9298 0.320287 16 0.489856 16 0.666667ZM2 0H0.666667C0.489856 0 0.320287 0.070238 0.195262 0.195262C0.070238 0.320287 0 0.489856 0 0.666667V2C0 2.17681 0.070238 2.34638 0.195262 2.4714C0.320287 2.59643 0.489856 2.66667 0.666667 2.66667H2C2.17681 2.66667 2.34638 2.59643 2.4714 2.4714C2.59643 2.34638 2.66667 2.17681 2.66667 2V0.666667C2.66667 0.489856 2.59643 0.320287 2.4714 0.195262C2.34638 0.070238 2.17681 0 2 0ZM15.3333 5.33333H5.33333C5.15652 5.33333 4.98695 5.40357 4.86193 5.5286C4.7369 5.65362 4.66667 5.82319 4.66667 6V7.33333C4.66667 7.51014 4.7369 7.67971 4.86193 7.80474C4.98695 7.92976 5.15652 8 5.33333 8H15.3333C15.5101 8 15.6797 7.92976 15.8047 7.80474C15.9298 7.67971 16 7.51014 16 7.33333V6C16 5.82319 15.9298 5.65362 15.8047 5.5286C15.6797 5.40357 15.5101 5.33333 15.3333 5.33333ZM2 5.33333H0.666667C0.489856 5.33333 0.320287 5.40357 0.195262 5.5286C0.070238 5.65362 0 5.82319 0 6V7.33333C0 7.51014 0.070238 7.67971 0.195262 7.80474C0.320287 7.92976 0.489856 8 0.666667 8H2C2.17681 8 2.34638 7.92976 2.4714 7.80474C2.59643 7.67971 2.66667 7.51014 2.66667 7.33333V6C2.66667 5.82319 2.59643 5.65362 2.4714 5.5286C2.34638 5.40357 2.17681 5.33333 2 5.33333ZM15.3333 10.6667H5.33333C5.15652 10.6667 4.98695 10.7369 4.86193 10.8619C4.7369 10.987 4.66667 11.1565 4.66667 11.3333V12.6667C4.66667 12.8435 4.7369 13.013 4.86193 13.1381C4.98695 13.2631 5.15652 13.3333 5.33333 13.3333H15.3333C15.5101 13.3333 15.6797 13.2631 15.8047 13.1381C15.9298 13.013 16 12.8435 16 12.6667V11.3333C16 11.1565 15.9298 10.987 15.8047 10.8619C15.6797 10.7369 15.5101 10.6667 15.3333 10.6667ZM2 10.6667H0.666667C0.489856 10.6667 0.320287 10.7369 0.195262 10.8619C0.070238 10.987 0 11.1565 0 11.3333V12.6667C0 12.8435 0.070238 13.013 0.195262 13.1381C0.320287 13.2631 0.489856 13.3333 0.666667 13.3333H2C2.17681 13.3333 2.34638 13.2631 2.4714 13.1381C2.59643 13.013 2.66667 12.8435 2.66667 12.6667V11.3333C2.66667 11.1565 2.59643 10.987 2.4714 10.8619C2.34638 10.7369 2.17681 10.6667 2 10.6667Z"/>
</svg>
