<svg fill="currentColor" width="16" height="16" viewBox="0 0 16 16" xmlns="http://www.w3.org/2000/svg">
<path d="M8.00001 0C6.3335 0.00189054 4.73579 0.664747 3.55738 1.84315C2.37898 3.02155 1.71612 4.61927 1.71423 6.28578C1.71423 11.6644 7.42858 15.7266 7.67215 15.8966C7.76823 15.9639 7.8827 16 8.00001 16C8.11732 16 8.23179 15.9639 8.32787 15.8966C8.57144 15.7266 14.2858 11.6644 14.2858 6.28578C14.2839 4.61927 13.621 3.02155 12.4426 1.84315C11.2642 0.664747 9.66652 0.00189054 8.00001 0ZM8.00001 4.00004C8.45209 4.00004 8.89401 4.1341 9.2699 4.38526C9.64578 4.63642 9.93875 4.9934 10.1118 5.41106C10.2848 5.82873 10.33 6.28831 10.2418 6.7317C10.1536 7.17509 9.93594 7.58237 9.61627 7.90204C9.2966 8.2217 8.88933 8.4394 8.44594 8.5276C8.00255 8.61579 7.54296 8.57053 7.1253 8.39752C6.70763 8.22452 6.35065 7.93155 6.09949 7.55567C5.84833 7.17978 5.71427 6.73785 5.71427 6.28578C5.71427 5.67956 5.95509 5.09818 6.38375 4.66952C6.81241 4.24086 7.3938 4.00004 8.00001 4.00004Z"/>
</svg>
