<svg fill="currentColor" width="16" height="16" viewBox="0 0 16 16" xmlns="http://www.w3.org/2000/svg">
<path d="M14.7992 1.20271C14.029 0.432621 12.9844 0 11.8953 0C10.8062 0 9.76161 0.432621 8.99142 1.20271L1.16603 9.02732C0.412086 9.80067 -0.00681217 10.8399 8.38116e-05 11.92C0.0069798 13 0.439115 14.0338 1.20287 14.7975C1.96663 15.5611 3.00051 15.9931 4.08054 15.9999C5.16056 16.0066 6.19976 15.5876 6.97301 14.8335L14.7992 7.00891C15.5678 6.23829 15.9995 5.19426 15.9995 4.10581C15.9995 3.01736 15.5678 1.97334 14.7992 1.20271ZM13.9264 6.13694L10.0137 10.0489L5.95147 5.98737L9.86416 2.07468C10.405 1.54635 11.1323 1.25253 11.8883 1.25694C12.6444 1.26136 13.3682 1.56366 13.9028 2.09828C14.4374 2.63289 14.7397 3.35671 14.7442 4.11276C14.7486 4.86881 14.4548 5.59612 13.9264 6.13694ZM12.7368 4.49785C12.7942 4.55513 12.8397 4.62316 12.8707 4.69803C12.9017 4.77291 12.9177 4.85317 12.9177 4.93422C12.9177 5.01528 12.9017 5.09554 12.8707 5.17041C12.8397 5.24529 12.7942 5.31331 12.7368 5.37059L10.8865 7.22093C10.8292 7.27819 10.7611 7.32359 10.6863 7.35456C10.6114 7.38553 10.5312 7.40145 10.4502 7.40141C10.3692 7.40137 10.289 7.38538 10.2142 7.35435C10.1394 7.32332 10.0714 7.27785 10.0141 7.22055C9.95686 7.16324 9.91145 7.09522 9.88049 7.02037C9.84952 6.94551 9.8336 6.86529 9.83364 6.78429C9.83367 6.70328 9.84966 6.62308 9.8807 6.54825C9.91173 6.47342 9.9572 6.40544 10.0145 6.34819L11.8648 4.49785C11.9805 4.38227 12.1373 4.31734 12.3008 4.31734C12.4643 4.31734 12.6212 4.38227 12.7368 4.49785Z"/>
</svg>
