<svg fill="currentColor" width="16" height="16" viewBox="0 0 16 16" xmlns="http://www.w3.org/2000/svg">
<path d="M16 7.99998C16 8.25459 15.8989 8.49877 15.7188 8.6788C15.5388 8.85884 15.2946 8.95998 15.04 8.95998H0.96C0.705392 8.95998 0.461212 8.85884 0.281178 8.6788C0.101143 8.49877 0 8.25459 0 7.99998C0 7.74538 0.101143 7.50119 0.281178 7.32116C0.461212 7.14113 0.705392 7.03998 0.96 7.03998H15.04C15.2946 7.03998 15.5388 7.14113 15.7188 7.32116C15.8989 7.50119 16 7.74538 16 7.99998ZM0.96 3.83998H15.04C15.2946 3.83998 15.5388 3.73884 15.7188 3.55881C15.8989 3.37877 16 3.13459 16 2.87998C16 2.62538 15.8989 2.3812 15.7188 2.20116C15.5388 2.02113 15.2946 1.91998 15.04 1.91998H0.96C0.705392 1.91998 0.461212 2.02113 0.281178 2.20116C0.101143 2.3812 0 2.62538 0 2.87998C0 3.13459 0.101143 3.37877 0.281178 3.55881C0.461212 3.73884 0.705392 3.83998 0.96 3.83998ZM15.04 12.16H0.96C0.705392 12.16 0.461212 12.2611 0.281178 12.4412C0.101143 12.6212 0 12.8654 0 13.12C0 13.3746 0.101143 13.6188 0.281178 13.7988C0.461212 13.9788 0.705392 14.08 0.96 14.08H15.04C15.2946 14.08 15.5388 13.9788 15.7188 13.7988C15.8989 13.6188 16 13.3746 16 13.12C16 12.8654 15.8989 12.6212 15.7188 12.4412C15.5388 12.2611 15.2946 12.16 15.04 12.16Z"/>
</svg>
