<svg fill="currentColor" width="16" height="16" viewBox="0 0 16 16" xmlns="http://www.w3.org/2000/svg">
<path d="M15.7262 5.64179L8.34154 0.718711C8.24041 0.651241 8.12157 0.615234 8 0.615234C7.87843 0.615234 7.75959 0.651241 7.65846 0.718711L0.273846 5.64179C0.189547 5.69803 0.120442 5.77422 0.0726691 5.8636C0.0248963 5.95297 -6.56915e-05 6.05276 1.29834e-07 6.1541V14.1541C1.29834e-07 14.4805 0.12967 14.7936 0.360484 15.0244C0.591298 15.2552 0.904349 15.3849 1.23077 15.3849H14.7692C15.0957 15.3849 15.4087 15.2552 15.6395 15.0244C15.8703 14.7936 16 14.4805 16 14.1541V6.1541C16.0001 6.05276 15.9751 5.95297 15.9273 5.8636C15.8796 5.77422 15.8105 5.69803 15.7262 5.64179ZM5.59385 10.4618L1.23077 13.5387V7.34871L5.59385 10.4618ZM6.85308 11.0772H9.14692L13.5031 14.1541H2.49692L6.85308 11.0772ZM10.4062 10.4618L14.7692 7.34871V13.5387L10.4062 10.4618Z"/>
</svg>
