<svg fill="currentColor" width="16" height="16" viewBox="0 0 16 16" xmlns="http://www.w3.org/2000/svg">
<path d="M16 1.84625V11.6924C16 12.0188 15.8703 12.3319 15.6395 12.5627C15.4087 12.7935 15.0957 12.9232 14.7692 12.9232H4.50002L2.03233 15.0855C2.02936 15.0887 2.026 15.0915 2.02233 15.0939C1.80133 15.2817 1.52077 15.3847 1.23079 15.3847C1.05023 15.3844 0.87194 15.3445 0.708482 15.2678C0.495871 15.1698 0.315986 15.0126 0.190346 14.8151C0.0647061 14.6176 -0.00137007 14.388 2.15363e-05 14.1539V1.84625C2.15363e-05 1.51983 0.129691 1.20678 0.360505 0.975962C0.591319 0.745148 0.904369 0.615479 1.23079 0.615479H14.7692C15.0957 0.615479 15.4087 0.745148 15.6395 0.975962C15.8703 1.20678 16 1.51983 16 1.84625Z"/>
</svg>
