<svg fill="currentColor" width="16" height="16" viewBox="0 0 16 16" xmlns="http://www.w3.org/2000/svg">
<g clip-path="url(#clip0_3827_917)">
<path d="M4.2069 7.72414V3.31034C4.2069 2.43239 4.55566 1.59039 5.17647 0.969578C5.79728 0.348767 6.63928 0 7.51724 0C8.3952 0 9.2372 0.348767 9.85801 0.969578C10.4788 1.59039 10.8276 2.43239 10.8276 3.31034V7.72414C10.8276 8.6021 10.4788 9.4441 9.85801 10.0649C9.2372 10.6857 8.3952 11.0345 7.51724 11.0345C6.63928 11.0345 5.79728 10.6857 5.17647 10.0649C4.55566 9.4441 4.2069 8.6021 4.2069 7.72414ZM13.0345 7.72414C13.0345 7.57781 12.9764 7.43748 12.8729 7.33401C12.7694 7.23054 12.6291 7.17241 12.4828 7.17241C12.3364 7.17241 12.1961 7.23054 12.0926 7.33401C11.9892 7.43748 11.931 7.57781 11.931 7.72414C11.931 8.89475 11.466 10.0174 10.6383 10.8452C9.81052 11.6729 8.68785 12.1379 7.51724 12.1379C6.34663 12.1379 5.22396 11.6729 4.39622 10.8452C3.56847 10.0174 3.10345 8.89475 3.10345 7.72414C3.10345 7.57781 3.04532 7.43748 2.94185 7.33401C2.83838 7.23054 2.69805 7.17241 2.55172 7.17241C2.4054 7.17241 2.26506 7.23054 2.1616 7.33401C2.05813 7.43748 2 7.57781 2 7.72414C2.00168 9.09141 2.51029 10.4095 3.42748 11.4235C4.34467 12.4375 5.60527 13.0754 6.96552 13.2138V15.4483C6.96552 15.5946 7.02365 15.7349 7.12711 15.8384C7.23058 15.9419 7.37091 16 7.51724 16C7.66357 16 7.8039 15.9419 7.90737 15.8384C8.01084 15.7349 8.06897 15.5946 8.06897 15.4483V13.2138C9.42921 13.0754 10.6898 12.4375 11.607 11.4235C12.5242 10.4095 13.0328 9.09141 13.0345 7.72414Z"/>
</g>
<defs>
<clipPath id="clip0_3827_917">
<rect width="16" height="16"/>
</clipPath>
</defs>
</svg>
