<svg fill="currentColor" width="16" height="16" viewBox="0 0 16 16" xmlns="http://www.w3.org/2000/svg">
<g clip-path="url(#clip0_3142_1389)">
<path d="M14.1538 0H4.30766C3.98124 0 3.66819 0.12967 3.43738 0.360484C3.20656 0.591298 3.07689 0.904349 3.07689 1.23077V3.07692H1.84613C1.51971 3.07692 1.20665 3.20659 0.97584 3.43741C0.745026 3.66822 0.615356 3.98127 0.615356 4.30769V11.6923C0.615356 12.0187 0.745026 12.3318 0.97584 12.5626C1.20665 12.7934 1.51971 12.9231 1.84613 12.9231H3.07689V14.7692C3.07689 15.0957 3.20656 15.4087 3.43738 15.6395C3.66819 15.8703 3.98124 16 4.30766 16H14.1538C14.4802 16 14.7933 15.8703 15.0241 15.6395C15.2549 15.4087 15.3846 15.0957 15.3846 14.7692V1.23077C15.3846 0.904349 15.2549 0.591298 15.0241 0.360484C14.7933 0.12967 14.4802 0 14.1538 0ZM4.01843 9.99539L3.09536 6.30308C3.07419 6.22417 3.06894 6.14183 3.07993 6.06087C3.09091 5.97991 3.11791 5.90195 3.15934 5.83153C3.20077 5.76112 3.25581 5.69966 3.32125 5.65074C3.38668 5.60182 3.46121 5.56642 3.54047 5.5466C3.61973 5.52679 3.70214 5.52295 3.7829 5.53533C3.86366 5.5477 3.94115 5.57603 4.01084 5.61866C4.08054 5.66129 4.14105 5.71738 4.18884 5.78364C4.23663 5.84991 4.27075 5.92503 4.2892 6.00462L4.8092 8.08154L5.29536 7.10769C5.34639 7.00529 5.42497 6.91914 5.52226 6.85893C5.61955 6.79871 5.73171 6.76681 5.84613 6.76681C5.96054 6.76681 6.0727 6.79871 6.16999 6.85893C6.26728 6.91914 6.34586 7.00529 6.3969 7.10769L6.88305 8.08154L7.40305 6.00462C7.44487 5.84874 7.54624 5.71554 7.68534 5.6337C7.82443 5.55185 7.9901 5.52793 8.14667 5.56707C8.30323 5.60621 8.43816 5.70529 8.52237 5.84296C8.60658 5.98062 8.63335 6.14586 8.5969 6.30308L7.67382 9.99539C7.64315 10.1172 7.57593 10.2267 7.48118 10.3093C7.38644 10.3918 7.26871 10.4433 7.14382 10.4569C7.12159 10.4594 7.09925 10.4606 7.0769 10.4608C6.96257 10.4609 6.85048 10.4291 6.7532 10.369C6.65592 10.309 6.57729 10.223 6.52613 10.1208L5.84613 8.76077L5.16613 10.1215C5.10992 10.2341 5.02057 10.3267 4.91011 10.3869C4.79965 10.4472 4.67338 10.4721 4.54833 10.4583C4.42327 10.4446 4.30543 10.3928 4.21069 10.3101C4.11595 10.2273 4.04885 10.1175 4.01843 9.99539ZM14.1538 14.7692H4.30766V12.9231H9.84613C10.1725 12.9231 10.4856 12.7934 10.7164 12.5626C10.9472 12.3318 11.0769 12.0187 11.0769 11.6923V11.0769H14.1538V14.7692ZM14.1538 9.84615H11.0769V6.15385H14.1538V9.84615ZM14.1538 4.92308H11.0769V4.30769C11.0769 3.98127 10.9472 3.66822 10.7164 3.43741C10.4856 3.20659 10.1725 3.07692 9.84613 3.07692H4.30766V1.23077H14.1538V4.92308Z"/>
</g>
<defs>
<clipPath id="clip0_3142_1389">
<rect width="16" height="16"/>
</clipPath>
</defs>
</svg>
