<svg fill="currentColor" width="16" height="16" viewBox="0 0 16 16" xmlns="http://www.w3.org/2000/svg">
<path d="M10.5449 4.23722C10.0535 4.23693 9.56439 4.30284 9.09065 4.43318C8.90364 4.12805 8.67647 3.84945 8.41522 3.60486L9.09783 2.63083C9.1411 2.56904 9.17177 2.49934 9.18809 2.4257C9.20442 2.35206 9.20608 2.27592 9.19299 2.20164C9.17989 2.12735 9.15229 2.05638 9.11176 1.99276C9.07123 1.92914 9.01857 1.87413 8.95679 1.83087C8.895 1.7876 8.82529 1.75693 8.75165 1.7406C8.67801 1.72428 8.60188 1.72261 8.52759 1.73571C8.45331 1.74881 8.38233 1.77641 8.31872 1.81693C8.2551 1.85746 8.20009 1.91012 8.15682 1.97191L7.47421 2.94522C6.91288 2.6618 6.2928 2.51427 5.66397 2.51455C5.62162 2.51455 5.58071 2.51455 5.53908 2.51455L5.33164 1.34529C5.32075 1.2691 5.29466 1.19588 5.25491 1.12997C5.21517 1.06407 5.16258 1.00683 5.10028 0.961646C5.03797 0.916468 4.96722 0.884274 4.89222 0.86698C4.81723 0.849686 4.73952 0.847644 4.66373 0.860975C4.58793 0.874306 4.51558 0.902738 4.45099 0.944582C4.38639 0.986425 4.33087 1.04083 4.28772 1.10455C4.24457 1.16828 4.21467 1.24003 4.19979 1.31554C4.18492 1.39105 4.18537 1.46878 4.20114 1.54411L4.40786 2.71697C3.77101 2.9276 3.19687 3.294 2.73758 3.78287L1.75997 3.09882C1.69823 3.0545 1.6283 3.02286 1.55425 3.00576C1.48019 2.98866 1.40348 2.98644 1.32855 2.99921C1.25363 3.01198 1.18199 3.0395 1.11778 3.08017C1.05357 3.12085 0.998079 3.17386 0.954516 3.23614C0.910952 3.29842 0.880186 3.36873 0.864002 3.44299C0.847818 3.51725 0.846537 3.59399 0.860234 3.66875C0.873931 3.74351 0.902333 3.81481 0.943794 3.87851C0.985254 3.94221 1.03895 3.99704 1.10176 4.03983L2.07507 4.72316C1.79064 5.28438 1.64307 5.90494 1.6444 6.53412C1.6444 6.57503 1.6444 6.61666 1.6444 6.65758L0.47514 6.8643C0.333613 6.88909 0.206523 6.96604 0.118959 7.07996C0.0313941 7.19387 -0.0102822 7.33648 0.0021572 7.47962C0.0145966 7.62276 0.0802475 7.75604 0.18615 7.85315C0.292053 7.95025 0.430512 8.00412 0.574194 8.00413C0.607635 8.00409 0.641011 8.0012 0.673965 7.99552L1.84538 7.7888C1.94831 8.10216 2.08958 8.40159 2.266 8.68028C1.71675 9.19045 1.33384 9.85419 1.16715 10.5851C1.00046 11.3159 1.0577 12.08 1.33143 12.7779C1.60516 13.4758 2.08268 14.0751 2.70182 14.4977C3.32095 14.9204 4.053 15.1468 4.80264 15.1475H10.5449C11.9917 15.1475 13.3792 14.5727 14.4022 13.5497C15.4253 12.5267 16 11.1391 16 9.69235C16 8.24556 15.4253 6.85803 14.4022 5.83499C13.3792 4.81196 11.9917 4.23722 10.5449 4.23722ZM5.44289 7.73712C4.68804 7.60682 3.91137 7.71129 3.21778 8.03643C2.83398 7.4025 2.71015 6.64472 2.87221 5.9216C3.03426 5.19847 3.46964 4.56602 4.08728 4.15651C4.70492 3.74701 5.45698 3.59218 6.18614 3.72441C6.91531 3.85664 7.56511 4.26569 7.99963 4.866C6.82827 5.48243 5.91996 6.50243 5.44289 7.73712Z"/>
</svg>
