<svg fill="currentColor" width="16" height="16" viewBox="0 0 16 16" xmlns="http://www.w3.org/2000/svg">
<path d="M14.6667 0H1.33333C0.979711 0 0.640573 0.140476 0.390524 0.390524C0.140476 0.640573 0 0.979711 0 1.33333V14.6667C0 15.0203 0.140476 15.3594 0.390524 15.6095C0.640573 15.8595 0.979711 16 1.33333 16H14.6667C15.0203 16 15.3594 15.8595 15.6095 15.6095C15.8595 15.3594 16 15.0203 16 14.6667V1.33333C16 0.979711 15.8595 0.640573 15.6095 0.390524C15.3594 0.140476 15.0203 0 14.6667 0ZM12.6667 8.66667H3.33333C3.15652 8.66667 2.98695 8.59643 2.86193 8.47141C2.7369 8.34638 2.66667 8.17681 2.66667 8C2.66667 7.82319 2.7369 7.65362 2.86193 7.5286C2.98695 7.40357 3.15652 7.33333 3.33333 7.33333H12.6667C12.8435 7.33333 13.013 7.40357 13.1381 7.5286C13.2631 7.65362 13.3333 7.82319 13.3333 8C13.3333 8.17681 13.2631 8.34638 13.1381 8.47141C13.013 8.59643 12.8435 8.66667 12.6667 8.66667Z"/>
</svg>
