<svg fill="currentColor" width="16" height="16" viewBox="0 0 16 16" xmlns="http://www.w3.org/2000/svg">
<path d="M8 0C6.41775 0 4.87103 0.469192 3.55544 1.34824C2.23985 2.22729 1.21447 3.47672 0.608967 4.93853C0.00346628 6.40034 -0.15496 8.00887 0.153721 9.56072C0.462403 11.1126 1.22433 12.538 2.34315 13.6569C3.46197 14.7757 4.88743 15.5376 6.43928 15.8463C7.99113 16.155 9.59966 15.9965 11.0615 15.391C12.5233 14.7855 13.7727 13.7602 14.6518 12.4446C15.5308 11.129 16 9.58225 16 8C15.9974 5.87908 15.1536 3.84579 13.6539 2.34607C12.1542 0.84635 10.1209 0.00264619 8 0ZM4.61539 8.92307C4.43282 8.92307 4.25435 8.86894 4.10255 8.76751C3.95075 8.66608 3.83244 8.52191 3.76258 8.35324C3.69271 8.18457 3.67443 7.99897 3.71005 7.81991C3.74566 7.64085 3.83358 7.47638 3.96267 7.34728C4.09177 7.21819 4.25624 7.13027 4.4353 7.09466C4.61436 7.05904 4.79996 7.07732 4.96863 7.14719C5.1373 7.21705 5.28147 7.33537 5.3829 7.48716C5.48433 7.63896 5.53846 7.81743 5.53846 8C5.53846 8.24481 5.44121 8.4796 5.2681 8.65271C5.09499 8.82582 4.8602 8.92307 4.61539 8.92307ZM8 8.92307C7.81743 8.92307 7.63897 8.86894 7.48717 8.76751C7.33537 8.66608 7.21706 8.52191 7.14719 8.35324C7.07732 8.18457 7.05904 7.99897 7.09466 7.81991C7.13028 7.64085 7.21819 7.47638 7.34729 7.34728C7.47638 7.21819 7.64086 7.13027 7.81992 7.09466C7.99898 7.05904 8.18458 7.07732 8.35325 7.14719C8.52192 7.21705 8.66608 7.33537 8.76751 7.48716C8.86894 7.63896 8.92308 7.81743 8.92308 8C8.92308 8.24481 8.82583 8.4796 8.65271 8.65271C8.4796 8.82582 8.24482 8.92307 8 8.92307ZM11.3846 8.92307C11.202 8.92307 11.0236 8.86894 10.8718 8.76751C10.72 8.66608 10.6017 8.52191 10.5318 8.35324C10.4619 8.18457 10.4437 7.99897 10.4793 7.81991C10.5149 7.64085 10.6028 7.47638 10.7319 7.34728C10.861 7.21819 11.0255 7.13027 11.2045 7.09466C11.3836 7.05904 11.5692 7.07732 11.7379 7.14719C11.9065 7.21705 12.0507 7.33537 12.1521 7.48716C12.2536 7.63896 12.3077 7.81743 12.3077 8C12.3077 8.24481 12.2104 8.4796 12.0373 8.65271C11.8642 8.82582 11.6294 8.92307 11.3846 8.92307Z"/>
</svg>
