<svg fill="currentColor" width="16" height="16" viewBox="0 0 16 16" xmlns="http://www.w3.org/2000/svg">
<path d="M15.1103 4.08095C14.9708 4.15317 14.8083 4.16706 14.6586 4.11957C14.5088 4.07208 14.3841 3.96708 14.3117 3.82767C13.7461 2.71048 12.8899 1.76624 11.8331 1.09416C11.7673 1.05263 11.7102 0.998538 11.6653 0.934975C11.6203 0.871411 11.5884 0.799619 11.5712 0.723697C11.554 0.647775 11.5519 0.56921 11.5651 0.492487C11.5782 0.415765 11.6064 0.342388 11.6479 0.276546C11.6895 0.210704 11.7436 0.153687 11.8072 0.108749C11.8707 0.0638108 11.9426 0.0318326 12.0185 0.01464C12.0944 -0.00255247 12.173 -0.00462266 12.2498 0.00854767C12.3265 0.021718 12.3999 0.0498709 12.4658 0.0913991C13.6973 0.879783 14.6974 1.98106 15.3636 3.2826C15.4359 3.42206 15.4498 3.5845 15.4023 3.7342C15.3548 3.88391 15.2497 4.00863 15.1103 4.08095ZM1.16237 4.14761C1.27094 4.14756 1.37741 4.1177 1.47016 4.06128C1.56291 4.00486 1.63838 3.92405 1.68832 3.82767C2.25397 2.71048 3.11016 1.76624 4.16693 1.09416C4.29993 1.01029 4.39417 0.877028 4.4289 0.723697C4.46363 0.570365 4.43601 0.40952 4.35212 0.276546C4.26823 0.143572 4.13494 0.0493619 3.98157 0.01464C3.8282 -0.0200818 3.66732 0.00752924 3.53431 0.0913991C2.30271 0.879783 1.30266 1.98106 0.636428 3.2826C0.58964 3.37289 0.566884 3.4737 0.570352 3.57533C0.573819 3.67696 0.603393 3.77599 0.656227 3.86288C0.709061 3.94978 0.783377 4.02162 0.872023 4.07148C0.960668 4.12135 1.06066 4.14756 1.16237 4.14761ZM14.9481 11.8453C15.0531 12.0253 15.1087 12.2298 15.1094 12.4381C15.1101 12.6465 15.0559 12.8514 14.9521 13.0321C14.8484 13.2128 14.6988 13.363 14.5185 13.4674C14.3382 13.5719 14.1335 13.627 13.9251 13.6271H10.9027C10.7667 14.2968 10.4033 14.8989 9.87411 15.3313C9.34489 15.7638 8.68242 16 7.99892 16C7.31543 16 6.65295 15.7638 6.12374 15.3313C5.59452 14.8989 5.23112 14.2968 5.09511 13.6271H2.07278C1.86449 13.6267 1.65999 13.5715 1.47987 13.4669C1.29976 13.3623 1.15039 13.2121 1.04681 13.0314C0.943238 12.8508 0.889115 12.646 0.889896 12.4378C0.890676 12.2295 0.946332 12.0252 1.05126 11.8453C1.71869 10.6937 2.07278 9.05623 2.07278 7.10996C2.07278 5.53863 2.69714 4.03166 3.8085 2.92056C4.91987 1.80946 6.42721 1.18525 7.99892 1.18525C9.57063 1.18525 11.078 1.80946 12.1893 2.92056C13.3007 4.03166 13.9251 5.53863 13.9251 7.10996C13.9251 9.05549 14.2792 10.6929 14.9481 11.8453ZM9.67454 13.6271H6.3233C6.44608 13.9733 6.6731 14.2729 6.97315 14.4848C7.27321 14.6968 7.63155 14.8105 7.99892 14.8105C8.36629 14.8105 8.72463 14.6968 9.02469 14.4848C9.32474 14.2729 9.55176 13.9733 9.67454 13.6271Z"/>
</svg>
