<svg fill="currentColor" width="16" height="16" viewBox="0 0 16 16" xmlns="http://www.w3.org/2000/svg">
<path d="M14.72 3.51996H1.92C1.75026 3.51996 1.58748 3.45253 1.46745 3.33251C1.34743 3.21249 1.28 3.0497 1.28 2.87996C1.28 2.71022 1.34743 2.54744 1.46745 2.42741C1.58748 2.30739 1.75026 2.23996 1.92 2.23996H12.8C12.9697 2.23996 13.1325 2.17253 13.2525 2.05251C13.3726 1.93249 13.44 1.7697 13.44 1.59996C13.44 1.43022 13.3726 1.26744 13.2525 1.14741C13.1325 1.02739 12.9697 0.959961 12.8 0.959961H1.92C1.41078 0.959961 0.922425 1.16225 0.562355 1.52232C0.202285 1.88239 0 2.37075 0 2.87996V13.12C0 13.6292 0.202285 14.1175 0.562355 14.4776C0.922425 14.8377 1.41078 15.04 1.92 15.04H14.72C15.0595 15.04 15.385 14.9051 15.6251 14.6651C15.8651 14.425 16 14.0994 16 13.76V4.79996C16 4.46048 15.8651 4.13491 15.6251 3.89486C15.385 3.65482 15.0595 3.51996 14.72 3.51996ZM11.84 9.91996C11.6501 9.91996 11.4645 9.86366 11.3067 9.75817C11.1488 9.65269 11.0257 9.50275 10.9531 9.32734C10.8804 9.15192 10.8614 8.9589 10.8984 8.77267C10.9355 8.58645 11.0269 8.4154 11.1612 8.28114C11.2954 8.14688 11.4665 8.05545 11.6527 8.01841C11.8389 7.98137 12.032 8.00038 12.2074 8.07304C12.3828 8.1457 12.5327 8.26874 12.6382 8.42661C12.7437 8.58448 12.8 8.77009 12.8 8.95996C12.8 9.21457 12.6989 9.45875 12.5188 9.63878C12.3388 9.81882 12.0946 9.91996 11.84 9.91996Z"/>
</svg>
