<svg fill="currentColor" width="16" height="16" viewBox="0 0 16 16" xmlns="http://www.w3.org/2000/svg">
<g clip-path="url(#clip0_3142_1386)">
<path d="M0.99998 8H14.3333C14.5101 8 14.6797 7.92976 14.8047 7.80474C14.9297 7.67971 15 7.51014 15 7.33333V5.33333C15 5.24576 14.9829 5.15903 14.9494 5.0781C14.9159 4.99717 14.8669 4.92363 14.805 4.86167L10.1383 0.195C10.0764 0.133111 10.0028 0.0840347 9.92188 0.0505759C9.84095 0.0171172 9.75422 -6.86572e-05 9.66665 2.06132e-07H1.66665C1.31302 2.06132e-07 0.973886 0.140476 0.723837 0.390524C0.473789 0.640573 0.333313 0.979712 0.333313 1.33333V7.33333C0.333313 7.51014 0.403551 7.67971 0.528575 7.80474C0.6536 7.92976 0.823169 8 0.99998 8ZM9.66665 1.66667L13.3333 5.33333H9.66665V1.66667ZM15.6666 10.6667C15.6666 10.8435 15.5964 11.013 15.4714 11.1381C15.3464 11.2631 15.1768 11.3333 15 11.3333H13V12.6667H14.3333C14.5101 12.6667 14.6797 12.7369 14.8047 12.8619C14.9297 12.987 15 13.1565 15 13.3333C15 13.5101 14.9297 13.6797 14.8047 13.8047C14.6797 13.9298 14.5101 14 14.3333 14H13V15.3333C13 15.5101 12.9297 15.6797 12.8047 15.8047C12.6797 15.9298 12.5101 16 12.3333 16C12.1565 16 11.9869 15.9298 11.8619 15.8047C11.7369 15.6797 11.6666 15.5101 11.6666 15.3333V10.6667C11.6666 10.4899 11.7369 10.3203 11.8619 10.1953C11.9869 10.0702 12.1565 10 12.3333 10H15C15.1768 10 15.3464 10.0702 15.4714 10.1953C15.5964 10.3203 15.6666 10.4899 15.6666 10.6667ZM2.33331 10H0.99998C0.823169 10 0.6536 10.0702 0.528575 10.1953C0.403551 10.3203 0.333313 10.4899 0.333313 10.6667V15.3333C0.333313 15.5101 0.403551 15.6797 0.528575 15.8047C0.6536 15.9298 0.823169 16 0.99998 16C1.17679 16 1.34636 15.9298 1.47138 15.8047C1.59641 15.6797 1.66665 15.5101 1.66665 15.3333V14.6667H2.33331C2.95215 14.6667 3.54564 14.4208 3.98323 13.9832C4.42081 13.5457 4.66665 12.9522 4.66665 12.3333C4.66665 11.7145 4.42081 11.121 3.98323 10.6834C3.54564 10.2458 2.95215 10 2.33331 10ZM2.33331 13.3333H1.66665V11.3333H2.33331C2.59853 11.3333 2.85288 11.4387 3.04042 11.6262C3.22796 11.8138 3.33331 12.0681 3.33331 12.3333C3.33331 12.5985 3.22796 12.8529 3.04042 13.0404C2.85288 13.228 2.59853 13.3333 2.33331 13.3333ZM7.66665 10H6.33331C6.1565 10 5.98693 10.0702 5.86191 10.1953C5.73688 10.3203 5.66665 10.4899 5.66665 10.6667V15.3333C5.66665 15.5101 5.73688 15.6797 5.86191 15.8047C5.98693 15.9298 6.1565 16 6.33331 16H7.66665C8.4623 16 9.22536 15.6839 9.78797 15.1213C10.3506 14.5587 10.6666 13.7956 10.6666 13C10.6666 12.2044 10.3506 11.4413 9.78797 10.8787C9.22536 10.3161 8.4623 10 7.66665 10ZM7.66665 14.6667H6.99998V11.3333H7.66665C8.10867 11.3333 8.5326 11.5089 8.84516 11.8215C9.15772 12.134 9.33331 12.558 9.33331 13C9.33331 13.442 9.15772 13.866 8.84516 14.1785C8.5326 14.4911 8.10867 14.6667 7.66665 14.6667Z"/>
</g>
<defs>
<clipPath id="clip0_3142_1386">
<rect width="16" height="16"/>
</clipPath>
</defs>
</svg>
