<svg fill="currentColor" width="16" height="16" viewBox="0 0 16 16" xmlns="http://www.w3.org/2000/svg">
<path d="M10.7692 6.76923C10.7692 7.13437 10.6609 7.4913 10.4581 7.7949C10.2552 8.0985 9.9669 8.33512 9.62956 8.47486C9.29222 8.61459 8.92101 8.65115 8.5629 8.57991C8.20478 8.50868 7.87582 8.33285 7.61763 8.07466C7.35945 7.81647 7.18362 7.48752 7.11238 7.1294C7.04115 6.77128 7.07771 6.40008 7.21744 6.06274C7.35717 5.7254 7.5938 5.43707 7.8974 5.23421C8.20099 5.03135 8.55793 4.92308 8.92306 4.92308C9.41269 4.92308 9.88227 5.11758 10.2285 5.4638C10.5747 5.81002 10.7692 6.2796 10.7692 6.76923ZM15.6923 1.23077V14.7692C15.6923 15.0957 15.5626 15.4087 15.3318 15.6395C15.101 15.8703 14.7879 16 14.4615 16H3.3846C3.05818 16 2.74513 15.8703 2.51432 15.6395C2.2835 15.4087 2.15383 15.0957 2.15383 14.7692V12.9231H0.923063C0.759853 12.9231 0.603327 12.8582 0.48792 12.7428C0.372513 12.6274 0.307678 12.4709 0.307678 12.3077C0.307678 12.1445 0.372513 11.988 0.48792 11.8726C0.603327 11.7571 0.759853 11.6923 0.923063 11.6923H2.15383V8.61539H0.923063C0.759853 8.61539 0.603327 8.55055 0.48792 8.43514C0.372513 8.31974 0.307678 8.16321 0.307678 8C0.307678 7.83679 0.372513 7.68026 0.48792 7.56486C0.603327 7.44945 0.759853 7.38462 0.923063 7.38462H2.15383V4.30769H0.923063C0.759853 4.30769 0.603327 4.24286 0.48792 4.12745C0.372513 4.01204 0.307678 3.85552 0.307678 3.69231C0.307678 3.5291 0.372513 3.37257 0.48792 3.25717C0.603327 3.14176 0.759853 3.07692 0.923063 3.07692H2.15383V1.23077C2.15383 0.904349 2.2835 0.591298 2.51432 0.360484C2.74513 0.12967 3.05818 0 3.3846 0H14.4615C14.7879 0 15.101 0.12967 15.3318 0.360484C15.5626 0.591298 15.6923 0.904349 15.6923 1.23077ZM13.1077 10.7077C12.5628 9.97712 11.8361 9.40191 11 9.03923C11.4582 8.62088 11.7792 8.07376 11.921 7.46969C12.0627 6.86562 12.0185 6.23281 11.7941 5.65432C11.5697 5.07583 11.1757 4.57869 10.6638 4.22813C10.1518 3.87758 9.54584 3.68999 8.92537 3.68999C8.3049 3.68999 7.69892 3.87758 7.18697 4.22813C6.67501 4.57869 6.281 5.07583 6.05664 5.65432C5.83228 6.23281 5.78806 6.86562 5.92978 7.46969C6.0715 8.07376 6.39253 8.62088 6.85076 9.03923C6.01294 9.40122 5.28463 9.97649 4.73845 10.7077C4.68996 10.7723 4.65468 10.8459 4.63462 10.9242C4.61457 11.0025 4.61013 11.084 4.62156 11.164C4.63298 11.244 4.66006 11.3209 4.70123 11.3905C4.74241 11.46 4.79687 11.5207 4.86152 11.5692C4.92618 11.6177 4.99974 11.653 5.07803 11.6731C5.15631 11.6931 5.23778 11.6976 5.31778 11.6861C5.39779 11.6747 5.47475 11.6476 5.54429 11.6064C5.61383 11.5653 5.67457 11.5108 5.72306 11.4462C6.09565 10.9494 6.57879 10.5462 7.13421 10.2684C7.68963 9.99074 8.30208 9.84615 8.92306 9.84615C9.54404 9.84615 10.1565 9.99074 10.7119 10.2684C11.2673 10.5462 11.7505 10.9494 12.1231 11.4462C12.221 11.5767 12.3668 11.663 12.5283 11.6861C12.6899 11.7092 12.854 11.6672 12.9846 11.5692C13.1152 11.4713 13.2015 11.3255 13.2246 11.164C13.2477 11.0024 13.2056 10.8383 13.1077 10.7077Z"/>
</svg>
