<svg fill="currentColor" width="16" height="16" viewBox="0 0 16 16" xmlns="http://www.w3.org/2000/svg">
<path d="M16 6.56468C16 6.96024 15.8827 7.34692 15.6629 7.67582C15.4432 8.00472 15.1308 8.26106 14.7654 8.41244C14.3999 8.56381 13.9978 8.60342 13.6098 8.52625C13.2219 8.44908 12.8655 8.2586 12.5858 7.97889C12.3061 7.69919 12.1156 7.34282 12.0384 6.95486C11.9613 6.5669 12.0009 6.16477 12.1522 5.79931C12.3036 5.43386 12.56 5.1215 12.8889 4.90174C13.2178 4.68198 13.6044 4.56468 14 4.56468C14.5304 4.56468 15.0391 4.77539 15.4142 5.15047C15.7893 5.52554 16 6.03425 16 6.56468ZM4 6.56468C4 6.16912 3.8827 5.78244 3.66294 5.45354C3.44318 5.12464 3.13082 4.8683 2.76537 4.71692C2.39992 4.56555 1.99778 4.52594 1.60982 4.60311C1.22186 4.68028 0.865492 4.87076 0.585787 5.15047C0.306082 5.43017 0.115601 5.78654 0.0384303 6.1745C-0.0387401 6.56246 0.000866566 6.96459 0.152242 7.33005C0.303617 7.6955 0.559962 8.00786 0.88886 8.22762C1.21776 8.44738 1.60444 8.56468 2 8.56468C2.53043 8.56468 3.03914 8.35397 3.41421 7.97889C3.78929 7.60382 4 7.09511 4 6.56468ZM5.42857 5.13611C5.82413 5.13611 6.21081 5.01881 6.53971 4.79905C6.86861 4.57929 7.12496 4.26693 7.27633 3.90148C7.42771 3.53602 7.46731 3.13389 7.39014 2.74593C7.31297 2.35797 7.12249 2.0016 6.84279 1.7219C6.56308 1.44219 6.20672 1.25171 5.81875 1.17454C5.43079 1.09737 5.02866 1.13697 4.66321 1.28835C4.29775 1.43973 3.9854 1.69607 3.76563 2.02497C3.54587 2.35387 3.42857 2.74055 3.42857 3.13611C3.42857 3.66654 3.63929 4.17525 4.01436 4.55032C4.38943 4.9254 4.89814 5.13611 5.42857 5.13611ZM10.5714 5.13611C10.967 5.13611 11.3537 5.01881 11.6826 4.79905C12.0115 4.57929 12.2678 4.26693 12.4192 3.90148C12.5706 3.53602 12.6102 3.13389 12.533 2.74593C12.4558 2.35797 12.2653 2.0016 11.9856 1.7219C11.7059 1.44219 11.3496 1.25171 10.9616 1.17454C10.5736 1.09737 10.1715 1.13697 9.80606 1.28835C9.44061 1.43973 9.12825 1.69607 8.90849 2.02497C8.68873 2.35387 8.57143 2.74055 8.57143 3.13611C8.57143 3.66654 8.78214 4.17525 9.15722 4.55032C9.53229 4.9254 10.041 5.13611 10.5714 5.13611ZM12.2229 9.48325C11.9326 9.32313 11.6768 9.10734 11.47 8.84823C11.2632 8.58913 11.1096 8.2918 11.0179 7.97325C10.8279 7.31986 10.4309 6.74578 9.88674 6.33728C9.34254 5.92878 8.68046 5.70794 8 5.70794C7.31954 5.70794 6.65746 5.92878 6.11326 6.33728C5.56906 6.74578 5.17214 7.31986 4.98214 7.97325C4.79861 8.61423 4.36834 9.15624 3.78571 9.48039C3.2268 9.78282 2.78466 10.263 2.52923 10.8449C2.27381 11.4268 2.21966 12.0772 2.37537 12.6933C2.53108 13.3094 2.88776 13.8561 3.38898 14.2467C3.8902 14.6374 4.50737 14.8498 5.14286 14.8504C5.52369 14.8515 5.90079 14.7754 6.25143 14.6268C7.36933 14.1658 8.62424 14.1658 9.74214 14.6268C10.4193 14.9213 11.1841 14.9422 11.8763 14.6852C12.5685 14.4281 13.1343 13.9131 13.4551 13.2481C13.7759 12.583 13.8267 11.8196 13.597 11.1179C13.3673 10.4161 12.8748 9.83057 12.2229 9.48396V9.48325Z"/>
</svg>
