<svg fill="currentColor" width="16" height="16" viewBox="0 0 16 16" xmlns="http://www.w3.org/2000/svg">
<path d="M8 7.33333H5.33333V3.33333H8C8.53043 3.33333 9.03914 3.54405 9.41421 3.91912C9.78929 4.29419 10 4.8029 10 5.33333C10 5.86377 9.78929 6.37247 9.41421 6.74755C9.03914 7.12262 8.53043 7.33333 8 7.33333ZM16 1.33333V14.6667C16 15.0203 15.8595 15.3594 15.6095 15.6095C15.3594 15.8595 15.0203 16 14.6667 16H1.33333C0.979711 16 0.640573 15.8595 0.390524 15.6095C0.140476 15.3594 0 15.0203 0 14.6667V1.33333C0 0.979711 0.140476 0.640573 0.390524 0.390524C0.640573 0.140476 0.979711 0 1.33333 0H14.6667C15.0203 0 15.3594 0.140476 15.6095 0.390524C15.8595 0.640573 16 0.979711 16 1.33333ZM13.1383 12.8617L11.9425 11.6667L13.1383 10.4717C13.2634 10.3466 13.3337 10.1769 13.3337 10C13.3337 9.82309 13.2634 9.65343 13.1383 9.52833C13.0132 9.40324 12.8436 9.33296 12.6667 9.33296C12.4898 9.33296 12.3201 9.40324 12.195 9.52833L11 10.7242L8.83333 8.5575C9.61594 8.35215 10.2971 7.86917 10.7499 7.19862C11.2027 6.52807 11.3961 5.71573 11.2941 4.91309C11.1921 4.11045 10.8016 3.3723 10.1955 2.83631C9.58944 2.30032 8.80909 2.00307 8 2H4.66667C4.48986 2 4.32029 2.07024 4.19526 2.19526C4.07024 2.32029 4 2.48986 4 2.66667V12C4 12.1768 4.07024 12.3464 4.19526 12.4714C4.32029 12.5964 4.48986 12.6667 4.66667 12.6667C4.84348 12.6667 5.01305 12.5964 5.13807 12.4714C5.2631 12.3464 5.33333 12.1768 5.33333 12V8.66667H7.0575L10.0575 11.6667L8.86167 12.8617C8.73657 12.9868 8.6663 13.1564 8.6663 13.3333C8.6663 13.5102 8.73657 13.6799 8.86167 13.805C8.98676 13.9301 9.15642 14.0004 9.33333 14.0004C9.51024 14.0004 9.67991 13.9301 9.805 13.805L11 12.6092L12.195 13.805C12.2569 13.8669 12.3305 13.9161 12.4114 13.9496C12.4923 13.9831 12.5791 14.0004 12.6667 14.0004C12.7543 14.0004 12.841 13.9831 12.9219 13.9496C13.0029 13.9161 13.0764 13.8669 13.1383 13.805C13.2003 13.7431 13.2494 13.6695 13.2829 13.5886C13.3165 13.5077 13.3337 13.4209 13.3337 13.3333C13.3337 13.2457 13.3165 13.159 13.2829 13.0781C13.2494 12.9971 13.2003 12.9236 13.1383 12.8617Z"/>
</svg>
