<svg fill="currentColor" width="16" height="16" viewBox="0 0 16 16" xmlns="http://www.w3.org/2000/svg">
<path fill-rule="evenodd" clip-rule="evenodd" d="M12.1482 1.18519H13.3334C13.6477 1.18519 13.9491 1.31005 14.1714 1.53232C14.3937 1.75458 14.5185 2.05604 14.5185 2.37037V13.6296C14.5185 14.2583 14.2688 14.8612 13.8243 15.3057C13.3797 15.7503 12.7768 16 12.1482 16H3.85188C3.22322 16 2.6203 15.7503 2.17577 15.3057C1.73124 14.8612 1.48151 14.2583 1.48151 13.6296V2.37037C1.48151 2.05604 1.60637 1.75458 1.82864 1.53232C2.0509 1.31005 2.35236 1.18519 2.66669 1.18519H3.85188V0.592593C3.85188 0.435427 3.91431 0.284699 4.02544 0.173566C4.13658 0.0624337 4.2873 0 4.44447 0C4.60163 0 4.75236 0.0624337 4.8635 0.173566C4.97463 0.284699 5.03706 0.435427 5.03706 0.592593V1.18519H7.40743V0.592593C7.40743 0.435427 7.46987 0.284699 7.581 0.173566C7.69213 0.0624337 7.84286 0 8.00002 0C8.15719 0 8.30792 0.0624337 8.41905 0.173566C8.53018 0.284699 8.59262 0.435427 8.59262 0.592593V1.18519H10.963V0.592593C10.963 0.435427 11.0254 0.284699 11.1366 0.173566C11.2477 0.0624337 11.3984 0 11.5556 0C11.7127 0 11.8635 0.0624337 11.9746 0.173566C12.0857 0.284699 12.1482 0.435427 12.1482 0.592593V1.18519ZM5.21063 11.0857C5.32176 11.1968 5.47249 11.2593 5.62965 11.2593H10.3704C10.5276 11.2593 10.6783 11.1968 10.7894 11.0857C10.9006 10.9746 10.963 10.8238 10.963 10.6667C10.963 10.5095 10.9006 10.3588 10.7894 10.2476C10.6783 10.1365 10.5276 10.0741 10.3704 10.0741H5.62965C5.47249 10.0741 5.32176 10.1365 5.21063 10.2476C5.0995 10.3588 5.03706 10.5095 5.03706 10.6667C5.03706 10.8238 5.0995 10.9746 5.21063 11.0857ZM5.62965 8.88889H10.3704C10.5276 8.88889 10.6783 8.82646 10.7894 8.71532C10.9006 8.60419 10.963 8.45346 10.963 8.2963C10.963 8.13913 10.9006 7.9884 10.7894 7.87727C10.6783 7.76614 10.5276 7.7037 10.3704 7.7037H5.62965C5.47249 7.7037 5.32176 7.76614 5.21063 7.87727C5.0995 7.9884 5.03706 8.13913 5.03706 8.2963C5.03706 8.45346 5.0995 8.60419 5.21063 8.71532C5.32176 8.82646 5.47249 8.88889 5.62965 8.88889ZM8.04009 6.50962C8.08687 6.48795 9.18517 5.9632 9.18517 5.3149C9.18498 5.16266 9.11579 5.01671 8.99279 4.90906C8.8698 4.80141 8.70303 4.74086 8.52909 4.74069C8.31057 4.74069 8.11925 4.82293 7.99999 4.96194C7.88073 4.82293 7.68941 4.74069 7.47089 4.74069C7.29694 4.74086 7.13018 4.80141 7.00718 4.90906C6.88419 5.01671 6.815 5.16266 6.8148 5.3149C6.8148 5.9632 7.91311 6.48795 7.95988 6.50962C7.97221 6.51543 7.98599 6.51846 7.99999 6.51846C8.01399 6.51846 8.02777 6.51543 8.04009 6.50962Z"/>
</svg>
