<svg fill="currentColor" width="16" height="16" viewBox="0 0 16 16" xmlns="http://www.w3.org/2000/svg">
<path d="M8 0C6.41775 0 4.87103 0.469192 3.55544 1.34824C2.23985 2.22729 1.21447 3.47672 0.608967 4.93853C0.00346628 6.40034 -0.15496 8.00887 0.153721 9.56072C0.462403 11.1126 1.22433 12.538 2.34315 13.6569C3.46197 14.7757 4.88743 15.5376 6.43928 15.8463C7.99113 16.155 9.59966 15.9965 11.0615 15.391C12.5233 14.7855 13.7727 13.7602 14.6518 12.4446C15.5308 11.129 16 9.58225 16 8C15.9974 5.87908 15.1536 3.84579 13.6539 2.34607C12.1542 0.84635 10.1209 0.00264619 8 0ZM10.8031 8.51231L7.11077 10.9738C7.0095 11.041 6.89073 11.0768 6.76923 11.0769C6.60602 11.0769 6.4495 11.0121 6.33409 10.8967C6.21868 10.7813 6.15385 10.6247 6.15385 10.4615V5.53846C6.15378 5.42702 6.18396 5.31766 6.24119 5.22204C6.29842 5.12642 6.38054 5.04813 6.47878 4.99553C6.57702 4.94294 6.68771 4.918 6.79901 4.9234C6.91032 4.92879 7.01807 4.9643 7.11077 5.02615L10.8031 7.48769C10.8875 7.54386 10.9567 7.62003 11.0046 7.7094C11.0525 7.79878 11.0775 7.8986 11.0775 8C11.0775 8.10139 11.0525 8.20121 11.0046 8.29059C10.9567 8.37997 10.8875 8.45613 10.8031 8.51231Z"/>
</svg>
