<svg fill="currentColor" width="16" height="16" viewBox="0 0 16 16" xmlns="http://www.w3.org/2000/svg">
<path d="M14.7689 8C14.7694 8.20893 14.7158 8.41444 14.6134 8.59654C14.511 8.77864 14.3631 8.93113 14.1843 9.03918L3.10176 15.8189C2.91491 15.9333 2.70091 15.9957 2.48185 15.9998C2.26279 16.0038 2.04662 15.9493 1.85566 15.8419C1.66653 15.7362 1.50897 15.582 1.3992 15.3951C1.28942 15.2083 1.2314 14.9956 1.23108 14.7789V1.22109C1.2314 1.0044 1.28942 0.791702 1.3992 0.604871C1.50897 0.41804 1.66653 0.263819 1.85566 0.158069C2.04662 0.0506496 2.26279 -0.00384561 2.48185 0.000211026C2.70091 0.00426766 2.91491 0.0667292 3.10176 0.181145L14.1843 6.96082C14.3631 7.06887 14.511 7.22136 14.6134 7.40346C14.7158 7.58556 14.7694 7.79107 14.7689 8Z"/>
</svg>
