<svg fill="currentColor" width="17" height="16" viewBox="0 0 17 16" xmlns="http://www.w3.org/2000/svg">
<path d="M16.0045 5.71358V11.4295C16.0045 11.5811 15.9443 11.7265 15.8371 11.8336C15.7299 11.9408 15.5845 12.0011 15.4329 12.0011H13.1465V14.2874C13.1465 14.439 13.0863 14.5844 12.9791 14.6916C12.8719 14.7988 12.7266 14.859 12.575 14.859H3.42953C3.27794 14.859 3.13255 14.7988 3.02536 14.6916C2.91817 14.5844 2.85795 14.439 2.85795 14.2874V12.0011H0.571589C0.419994 12.0011 0.274608 11.9408 0.167415 11.8336C0.0602208 11.7265 0 11.5811 0 11.4295V5.71358C0 4.76832 0.811657 3.99882 1.80979 3.99882H2.85795V1.71246C2.85795 1.56086 2.91817 1.41548 3.02536 1.30828C3.13255 1.20109 3.27794 1.14087 3.42953 1.14087H12.575C12.7266 1.14087 12.8719 1.20109 12.9791 1.30828C13.0863 1.41548 13.1465 1.56086 13.1465 1.71246V3.99882H14.1947C15.1928 3.99882 16.0045 4.76832 16.0045 5.71358ZM4.00112 3.99882H12.0034V2.28405H4.00112V3.99882ZM12.0034 10.2863H4.00112V13.7158H12.0034V10.2863ZM13.1465 7.14256C13.1465 6.97298 13.0963 6.80721 13.0021 6.66622C12.9078 6.52522 12.7739 6.41533 12.6173 6.35044C12.4606 6.28554 12.2882 6.26856 12.1219 6.30165C11.9556 6.33473 11.8028 6.41639 11.6829 6.53629C11.563 6.6562 11.4813 6.80897 11.4483 6.97529C11.4152 7.1416 11.4322 7.314 11.497 7.47066C11.5619 7.62733 11.6718 7.76123 11.8128 7.85544C11.9538 7.94965 12.1196 7.99994 12.2892 7.99994C12.5166 7.99994 12.7346 7.90961 12.8954 7.74882C13.0562 7.58803 13.1465 7.36995 13.1465 7.14256Z"/>
</svg>
