<svg fill="currentColor" width="16" height="16" viewBox="0 0 16 16" xmlns="http://www.w3.org/2000/svg">
<path d="M14.7692 1.23071H1.23077C0.904349 1.23071 0.591298 1.36038 0.360484 1.5912C0.12967 1.82201 0 2.13506 0 2.46148V13.5384C0 13.8648 0.12967 14.1779 0.360484 14.4087C0.591298 14.6395 0.904349 14.7692 1.23077 14.7692H14.7692C15.0957 14.7692 15.4087 14.6395 15.6395 14.4087C15.8703 14.1779 16 13.8648 16 13.5384V2.46148C16 2.13506 15.8703 1.82201 15.6395 1.5912C15.4087 1.36038 15.0957 1.23071 14.7692 1.23071ZM14.1538 8.61533H12.6646L10.3846 12.6153C10.3305 12.7091 10.2525 12.787 10.1586 12.841C10.0648 12.895 9.95831 12.9233 9.85 12.923H9.81462C9.7004 12.9164 9.59029 12.878 9.49667 12.8122C9.40305 12.7465 9.32961 12.6559 9.28462 12.5507L6.07692 5.07071L4.23077 8.30764C4.17629 8.402 4.09774 8.48021 4.00313 8.53427C3.90853 8.58833 3.80127 8.6163 3.69231 8.61533H1.84615C1.68294 8.61533 1.52642 8.55049 1.41101 8.43509C1.2956 8.31968 1.23077 8.16315 1.23077 7.99994C1.23077 7.83673 1.2956 7.68021 1.41101 7.5648C1.52642 7.44939 1.68294 7.38456 1.84615 7.38456H3.33538L5.61923 3.38456C5.67602 3.28517 5.75941 3.2036 5.86002 3.149C5.96064 3.0944 6.07448 3.06895 6.18876 3.07551C6.30304 3.08206 6.41323 3.12036 6.50694 3.1861C6.60065 3.25183 6.67417 3.34241 6.71923 3.44764L9.92308 10.9292L11.7692 7.69456C11.8234 7.60076 11.9013 7.52292 11.9952 7.46889C12.0891 7.41487 12.1955 7.38657 12.3038 7.38687H14.15C14.3132 7.38687 14.4697 7.4517 14.5851 7.56711C14.7006 7.68252 14.7654 7.83904 14.7654 8.00225C14.7654 8.16546 14.7006 8.32199 14.5851 8.43739C14.4697 8.5528 14.3132 8.61764 14.15 8.61764L14.1538 8.61533Z"/>
</svg>
