<svg fill="currentColor" width="16" height="16" viewBox="0 0 16 16" xmlns="http://www.w3.org/2000/svg">
<path d="M13.805 12.8617C13.867 12.9236 13.9162 12.9971 13.9497 13.078C13.9833 13.159 14.0005 13.2457 14.0005 13.3333C14.0005 13.4209 13.9833 13.5077 13.9497 13.5886C13.9162 13.6696 13.867 13.7431 13.805 13.805C13.715 13.8942 11.5683 16 8 16C6.05333 16 4.15583 15.2417 2.47667 13.7992L1.13833 15.1383C1.0451 15.2317 0.926261 15.2953 0.796871 15.321C0.667482 15.3468 0.533356 15.3336 0.411473 15.2831C0.289591 15.2326 0.185434 15.1471 0.112187 15.0373C0.0389395 14.9276 -0.000103618 14.7986 2.06534e-07 14.6667V10.6667C2.06534e-07 10.4899 0.0702382 10.3203 0.195262 10.1953C0.320287 10.0702 0.489856 10 0.666667 10H4.66667C4.7986 9.9999 4.92759 10.0389 5.03732 10.1122C5.14705 10.1854 5.23258 10.2896 5.28308 10.4115C5.33358 10.5334 5.34679 10.6675 5.32102 10.7969C5.29525 10.9263 5.23168 11.0451 5.13833 11.1383L3.42333 12.8533C4.50667 13.7625 6.06917 14.6667 8 14.6667C11.0225 14.6667 12.8442 12.88 12.8617 12.8617C12.9236 12.7997 12.9971 12.7505 13.078 12.717C13.159 12.6834 13.2457 12.6661 13.3333 12.6661C13.4209 12.6661 13.5077 12.6834 13.5886 12.717C13.6696 12.7505 13.7431 12.7997 13.805 12.8617ZM15.5883 0.7175C15.4665 0.666968 15.3325 0.653693 15.2031 0.679355C15.0738 0.705017 14.955 0.768462 14.8617 0.861667L13.5233 2.20083C11.8442 0.758333 9.94667 0 8 0C4.43167 0 2.285 2.10583 2.195 2.195C2.06991 2.32009 1.99963 2.48976 1.99963 2.66667C1.99963 2.84358 2.06991 3.01324 2.195 3.13833C2.32009 3.26343 2.48976 3.3337 2.66667 3.3337C2.84358 3.3337 3.01324 3.26343 3.13833 3.13833C3.15583 3.12 4.9775 1.33333 8 1.33333C9.93083 1.33333 11.4933 2.2375 12.5767 3.14667L10.8617 4.86167C10.7683 4.9549 10.7047 5.07374 10.679 5.20313C10.6532 5.33252 10.6664 5.46665 10.7169 5.58853C10.7674 5.71041 10.8529 5.81457 10.9627 5.88781C11.0724 5.96106 11.2014 6.0001 11.3333 6H15.3333C15.5101 6 15.6797 5.92976 15.8047 5.80474C15.9298 5.67971 16 5.51014 16 5.33333V1.33333C16 1.20148 15.9608 1.0726 15.8876 0.962978C15.8143 0.853361 15.7102 0.767934 15.5883 0.7175Z"/>
</svg>
