<svg fill="currentColor" width="16" height="16" viewBox="0 0 16 16" xmlns="http://www.w3.org/2000/svg">
<path d="M8 0C6.41775 0 4.87103 0.469192 3.55544 1.34824C2.23985 2.22729 1.21447 3.47672 0.608967 4.93853C0.00346628 6.40034 -0.15496 8.00887 0.153721 9.56072C0.462403 11.1126 1.22433 12.538 2.34315 13.6569C3.46197 14.7757 4.88743 15.5376 6.43928 15.8463C7.99113 16.155 9.59966 15.9965 11.0615 15.391C12.5233 14.7855 13.7727 13.7602 14.6518 12.4446C15.5308 11.129 16 9.58225 16 8C15.9978 5.87895 15.1542 3.84542 13.6544 2.34562C12.1546 0.845814 10.121 0.00223986 8 0ZM11.2592 9.17077L12.7162 8.65077C12.7923 8.62359 12.8731 8.61169 12.9539 8.61573C13.0346 8.61977 13.1138 8.63968 13.1869 8.67433C13.26 8.70897 13.3255 8.75767 13.3797 8.81764C13.434 8.87761 13.4759 8.94768 13.5031 9.02384C13.5302 9.10001 13.5422 9.18078 13.5381 9.26155C13.5341 9.34232 13.5142 9.4215 13.4795 9.49457C13.4449 9.56765 13.3962 9.63318 13.3362 9.68743C13.2762 9.74168 13.2062 9.78359 13.13 9.81077L11.9392 10.2354L12.2869 11.5331C12.3079 11.6112 12.3132 11.6926 12.3027 11.7728C12.2921 11.8529 12.2659 11.9302 12.2254 12.0002C12.185 12.0702 12.1312 12.1316 12.067 12.1808C12.0029 12.23 11.9296 12.266 11.8515 12.2869C11.7996 12.3006 11.7461 12.3076 11.6923 12.3077C11.5568 12.3077 11.4251 12.263 11.3176 12.1806C11.21 12.0981 11.1328 11.9824 11.0977 11.8515L10.6692 10.2515L8.61539 9.06615V11.4377L9.66615 12.4877C9.72333 12.5449 9.76868 12.6127 9.79963 12.6874C9.83057 12.7621 9.8465 12.8422 9.8465 12.9231C9.8465 13.0039 9.83057 13.084 9.79963 13.1587C9.76868 13.2334 9.72333 13.3013 9.66615 13.3585C9.60898 13.4156 9.5411 13.461 9.4664 13.4919C9.3917 13.5229 9.31163 13.5388 9.23077 13.5388C9.14991 13.5388 9.06985 13.5229 8.99514 13.4919C8.92044 13.461 8.85256 13.4156 8.79539 13.3585L8 12.5623L7.20462 13.3585C7.14744 13.4156 7.07956 13.461 7.00486 13.4919C6.93016 13.5229 6.85009 13.5388 6.76923 13.5388C6.68837 13.5388 6.60831 13.5229 6.5336 13.4919C6.4589 13.461 6.39102 13.4156 6.33385 13.3585C6.27667 13.3013 6.23132 13.2334 6.20038 13.1587C6.16943 13.084 6.15351 13.0039 6.15351 12.9231C6.15351 12.8422 6.16943 12.7621 6.20038 12.6874C6.23132 12.6127 6.27667 12.5449 6.33385 12.4877L7.38462 11.4377V9.06615L5.33077 10.2515L4.90231 11.8515C4.86725 11.9824 4.78996 12.0981 4.68245 12.1806C4.57493 12.263 4.4432 12.3077 4.30769 12.3077C4.25395 12.3076 4.20044 12.3006 4.14846 12.2869C4.07037 12.266 3.99715 12.23 3.933 12.1808C3.86884 12.1316 3.81501 12.0702 3.77458 12.0002C3.73415 11.9302 3.70791 11.8529 3.69735 11.7728C3.6868 11.6926 3.69214 11.6112 3.71308 11.5331L4.06077 10.2354L2.87 9.81077C2.71618 9.75589 2.59045 9.64215 2.52049 9.49457C2.45052 9.347 2.44205 9.17767 2.49693 9.02384C2.55181 8.87002 2.66554 8.74429 2.81312 8.67433C2.9607 8.60436 3.13002 8.59589 3.28385 8.65077L4.74077 9.17077L6.76923 8L4.74077 6.82923L3.28385 7.34923C3.21734 7.37253 3.14739 7.38449 3.07693 7.38461C2.9317 7.38491 2.79105 7.33384 2.67985 7.24043C2.56865 7.14702 2.49407 7.01729 2.4693 6.87419C2.44453 6.7311 2.47116 6.58385 2.54449 6.4585C2.61783 6.33314 2.73313 6.23776 2.87 6.18923L4.06077 5.76461L3.71308 4.46692C3.67085 4.30922 3.69299 4.1412 3.77464 3.99983C3.8563 3.85845 3.99076 3.75531 4.14846 3.71308C4.30617 3.67085 4.47418 3.69299 4.61556 3.77464C4.75693 3.85629 4.86008 3.99076 4.90231 4.14846L5.33077 5.74846L7.38462 6.93384V4.56231L6.33385 3.51231C6.21838 3.39684 6.15351 3.24022 6.15351 3.07692C6.15351 2.91362 6.21838 2.75701 6.33385 2.64154C6.44932 2.52607 6.60593 2.4612 6.76923 2.4612C6.93253 2.4612 7.08915 2.52607 7.20462 2.64154L8 3.43769L8.79539 2.64154C8.85256 2.58436 8.92044 2.53901 8.99514 2.50806C9.06985 2.47712 9.14991 2.4612 9.23077 2.4612C9.31163 2.4612 9.3917 2.47712 9.4664 2.50806C9.5411 2.53901 9.60898 2.58436 9.66615 2.64154C9.72333 2.69871 9.76868 2.76659 9.79963 2.84129C9.83057 2.916 9.8465 2.99606 9.8465 3.07692C9.8465 3.15778 9.83057 3.23785 9.79963 3.31255C9.76868 3.38725 9.72333 3.45513 9.66615 3.51231L8.61539 4.56231V6.93384L10.6692 5.74846L11.0977 4.14846C11.1399 3.99076 11.2431 3.85629 11.3844 3.77464C11.5258 3.69299 11.6938 3.67085 11.8515 3.71308C12.0092 3.75531 12.1437 3.85845 12.2254 3.99983C12.307 4.1412 12.3292 4.30922 12.2869 4.46692L11.9392 5.76461L13.13 6.18923C13.2669 6.23776 13.3822 6.33314 13.4555 6.4585C13.5288 6.58385 13.5555 6.7311 13.5307 6.87419C13.5059 7.01729 13.4314 7.14702 13.3202 7.24043C13.209 7.33384 13.0683 7.38491 12.9231 7.38461C12.8526 7.38449 12.7827 7.37253 12.7162 7.34923L11.2592 6.82923L9.23077 8L11.2592 9.17077Z"/>
</svg>
