<svg fill="currentColor" width="16" height="16" viewBox="0 0 16 16" xmlns="http://www.w3.org/2000/svg">
<path d="M14.8572 1.71436H4.3237C4.1265 1.7152 3.93282 1.76668 3.76122 1.86386C3.58962 1.96104 3.44586 2.10066 3.34371 2.26935L0.0816047 7.70572C0.0282091 7.79459 0 7.89632 0 8C0 8.10368 0.0282091 8.20541 0.0816047 8.29428L3.34371 13.7306C3.44581 13.8994 3.58956 14.039 3.76117 14.1362C3.93278 14.2334 4.12648 14.2849 4.3237 14.2856H14.8572C15.1603 14.2856 15.4509 14.1652 15.6653 13.9509C15.8796 13.7366 16 13.4459 16 13.1428V2.8572C16 2.5541 15.8796 2.26341 15.6653 2.04909C15.4509 1.83476 15.1603 1.71436 14.8572 1.71436ZM11.2615 9.30999C11.3146 9.36308 11.3567 9.4261 11.3854 9.49547C11.4142 9.56484 11.4289 9.63918 11.4289 9.71427C11.4289 9.78935 11.4142 9.8637 11.3854 9.93306C11.3567 10.0024 11.3146 10.0655 11.2615 10.1185C11.2084 10.1716 11.1454 10.2138 11.076 10.2425C11.0066 10.2712 10.9323 10.286 10.8572 10.286C10.7821 10.286 10.7078 10.2712 10.6384 10.2425C10.569 10.2138 10.506 10.1716 10.4529 10.1185L9.14293 8.80785L7.83223 10.1185C7.72501 10.2257 7.57962 10.2858 7.42806 10.2858C7.27649 10.2857 7.13116 10.2254 7.02403 10.1182C6.9169 10.011 6.85676 9.86558 6.85682 9.71401C6.85689 9.56245 6.91716 9.41711 7.02438 9.30999L8.33509 8L7.02438 6.69001C6.91716 6.58289 6.85689 6.43755 6.85682 6.28599C6.85679 6.21094 6.87154 6.13662 6.90023 6.06727C6.92892 5.99792 6.97098 5.9349 7.02403 5.88181C7.07707 5.82872 7.14005 5.78659 7.20938 5.75784C7.2787 5.72909 7.35301 5.71428 7.42806 5.71425C7.57962 5.71418 7.72501 5.77432 7.83223 5.88145L9.14293 7.19215L10.4529 5.88145C10.506 5.82836 10.569 5.78625 10.6384 5.75751C10.7078 5.72878 10.7821 5.71399 10.8572 5.71399C10.9323 5.71399 11.0066 5.72878 11.076 5.75751C11.1454 5.78625 11.2084 5.82836 11.2615 5.88145C11.3146 5.93454 11.3567 5.99757 11.3854 6.06694C11.4142 6.1363 11.4289 6.21065 11.4289 6.28573C11.4289 6.36082 11.4142 6.43516 11.3854 6.50453C11.3567 6.5739 11.3146 6.63692 11.2615 6.69001L9.95078 8L11.2615 9.30999Z"/>
</svg>
