<svg fill="currentColor" width="16" height="16" viewBox="0 0 16 16" xmlns="http://www.w3.org/2000/svg">
<path d="M16 1.33333V10C16 10.3536 15.8595 10.6928 15.6095 10.9428C15.3594 11.1929 15.0203 11.3333 14.6667 11.3333H6.66667V12.6667C6.66677 12.7986 6.62773 12.9276 6.55448 13.0373C6.48123 13.1471 6.37708 13.2326 6.25519 13.2831C6.13331 13.3336 5.99919 13.3468 5.8698 13.321C5.74041 13.2953 5.62157 13.2317 5.52833 13.1383L3.52833 11.1383C3.46635 11.0764 3.41718 11.0029 3.38363 10.922C3.35008 10.841 3.33281 10.7543 3.33281 10.6667C3.33281 10.5791 3.35008 10.4923 3.38363 10.4114C3.41718 10.3304 3.46635 10.2569 3.52833 10.195L5.52833 8.195C5.62157 8.10166 5.74041 8.03808 5.8698 8.01231C5.99919 7.98655 6.13331 7.99975 6.25519 8.05025C6.37708 8.10075 6.48123 8.18628 6.55448 8.29601C6.62773 8.40574 6.66677 8.53474 6.66667 8.66667V10H14.6667V1.33333H5.33333V2C5.33333 2.17681 5.2631 2.34638 5.13807 2.4714C5.01305 2.59643 4.84348 2.66667 4.66667 2.66667C4.48986 2.66667 4.32029 2.59643 4.19526 2.4714C4.07024 2.34638 4 2.17681 4 2V1.33333C4 0.979711 4.14048 0.640573 4.39052 0.390524C4.64057 0.140476 4.97971 0 5.33333 0H14.6667C15.0203 0 15.3594 0.140476 15.6095 0.390524C15.8595 0.640573 16 0.979711 16 1.33333ZM11.3333 13.3333C11.1565 13.3333 10.987 13.4036 10.8619 13.5286C10.7369 13.6536 10.6667 13.8232 10.6667 14V14.6667H1.33333V6H9.33333V7.33333C9.33323 7.46526 9.37227 7.59426 9.44552 7.70399C9.51877 7.81372 9.62292 7.89925 9.74481 7.94975C9.86669 8.00025 10.0008 8.01345 10.1302 7.98769C10.2596 7.96192 10.3784 7.89834 10.4717 7.805L12.4717 5.805C12.5337 5.74308 12.5828 5.66956 12.6164 5.58863C12.6499 5.50769 12.6672 5.42094 12.6672 5.33333C12.6672 5.24572 12.6499 5.15897 12.6164 5.07804C12.5828 4.99711 12.5337 4.92358 12.4717 4.86167L10.4717 2.86167C10.3784 2.76833 10.2596 2.70475 10.1302 2.67898C10.0008 2.65321 9.86669 2.66642 9.74481 2.71692C9.62292 2.76742 9.51877 2.85295 9.44552 2.96268C9.37227 3.07241 9.33323 3.2014 9.33333 3.33333V4.66667H1.33333C0.979711 4.66667 0.640573 4.80714 0.390524 5.05719C0.140476 5.30724 0 5.64638 0 6V14.6667C0 15.0203 0.140476 15.3594 0.390524 15.6095C0.640573 15.8595 0.979711 16 1.33333 16H10.6667C11.0203 16 11.3594 15.8595 11.6095 15.6095C11.8595 15.3594 12 15.0203 12 14.6667V14C12 13.8232 11.9298 13.6536 11.8047 13.5286C11.6797 13.4036 11.5101 13.3333 11.3333 13.3333Z"/>
</svg>
