<svg fill="currentColor" width="16" height="16" viewBox="0 0 16 16" xmlns="http://www.w3.org/2000/svg">
<path d="M8 0C6.41775 0 4.87103 0.469192 3.55544 1.34824C2.23985 2.22729 1.21447 3.47672 0.608967 4.93853C0.00346628 6.40034 -0.15496 8.00887 0.153721 9.56072C0.462403 11.1126 1.22433 12.538 2.34315 13.6569C3.46197 14.7757 4.88743 15.5376 6.43928 15.8463C7.99113 16.155 9.59966 15.9965 11.0615 15.391C12.5233 14.7855 13.7727 13.7602 14.6518 12.4446C15.5308 11.129 16 9.58225 16 8C15.9978 5.87895 15.1542 3.84542 13.6544 2.34562C12.1546 0.845814 10.121 0.00223986 8 0ZM5.23077 5.53846C5.41334 5.53846 5.59181 5.5926 5.74361 5.69403C5.8954 5.79546 6.01372 5.93962 6.08358 6.10829C6.15345 6.27696 6.17173 6.46256 6.13611 6.64162C6.10049 6.82068 6.01258 6.98516 5.88349 7.11425C5.75439 7.24335 5.58991 7.33126 5.41085 7.36688C5.2318 7.40249 5.0462 7.38421 4.87753 7.31435C4.70886 7.24448 4.56469 7.12617 4.46326 6.97437C4.36183 6.82257 4.30769 6.6441 4.30769 6.46154C4.30769 6.21672 4.40495 5.98193 4.57806 5.80882C4.75117 5.63571 4.98596 5.53846 5.23077 5.53846ZM11.3846 12.2246C11.2434 12.3061 11.0756 12.3282 10.9182 12.2861C10.7607 12.2439 10.6263 12.1411 10.5446 12C9.97 11.0069 9.06692 10.4615 8 10.4615C6.93308 10.4615 6.03 11.0077 5.45539 12C5.41692 12.0735 5.36397 12.1385 5.29972 12.1911C5.23548 12.2436 5.16127 12.2826 5.08156 12.3058C5.00185 12.3289 4.91829 12.3357 4.8359 12.3256C4.75351 12.3156 4.67399 12.2891 4.60214 12.2475C4.53028 12.206 4.46757 12.1504 4.41778 12.084C4.36798 12.0176 4.33214 11.9418 4.31239 11.8612C4.29264 11.7805 4.28941 11.6968 4.30288 11.6149C4.31635 11.533 4.34625 11.4547 4.39077 11.3846C5.18231 10.0162 6.49769 9.23077 8 9.23077C9.50231 9.23077 10.8177 10.0154 11.6092 11.3846C11.6907 11.5258 11.7128 11.6936 11.6707 11.8511C11.6286 12.0086 11.5257 12.1429 11.3846 12.2246ZM10.7692 7.38461C10.5867 7.38461 10.4082 7.33048 10.2564 7.22905C10.1046 7.12762 9.98629 6.98345 9.91642 6.81478C9.84655 6.64611 9.82827 6.46051 9.86389 6.28145C9.89951 6.10239 9.98742 5.93792 10.1165 5.80882C10.2456 5.67973 10.4101 5.59181 10.5891 5.5562C10.7682 5.52058 10.9538 5.53886 11.1225 5.60873C11.2911 5.67859 11.4353 5.7969 11.5367 5.9487C11.6382 6.1005 11.6923 6.27897 11.6923 6.46154C11.6923 6.70635 11.5951 6.94114 11.4219 7.11425C11.2488 7.28736 11.014 7.38461 10.7692 7.38461Z"/>
</svg>
