<svg fill="currentColor" width="16" height="17" viewBox="0 0 16 17" xmlns="http://www.w3.org/2000/svg">
<path d="M11.0766 6.77364C11.0766 7.62559 10.824 8.45841 10.3506 9.16679C9.87732 9.87516 9.20457 10.4273 8.41747 10.7533C7.63037 11.0793 6.76426 11.1646 5.92868 10.9984C5.09309 10.8322 4.32556 10.422 3.72314 9.81954C3.12072 9.21712 2.71046 8.44958 2.54425 7.614C2.37804 6.77842 2.46335 5.91231 2.78938 5.12521C3.11541 4.3381 3.66752 3.66536 4.37589 3.19204C5.08426 2.71871 5.91709 2.46608 6.76904 2.46608C7.91147 2.46608 9.00712 2.91991 9.81494 3.72774C10.6228 4.53556 11.0766 5.6312 11.0766 6.77364ZM15.8195 15.8241C15.7624 15.8813 15.6945 15.9267 15.6198 15.9577C15.5451 15.9887 15.465 16.0046 15.3842 16.0046C15.3033 16.0046 15.2232 15.9887 15.1485 15.9577C15.0738 15.9267 15.0059 15.8813 14.9488 15.8241L11.0981 11.9727C9.75903 13.0868 8.04199 13.6417 6.30418 13.5221C4.56637 13.4024 2.94156 12.6175 1.76773 11.3305C0.593898 10.0434 -0.0385905 8.35343 0.00182406 6.61197C0.0422387 4.87051 0.752445 3.21167 1.98472 1.98049C3.21699 0.749303 4.87646 0.0405633 6.61795 0.00168777C8.35944 -0.0371878 10.0489 0.596794 11.3349 1.77176C12.6209 2.94673 13.4044 4.57223 13.5225 6.31015C13.6405 8.04807 13.0841 9.76461 11.9689 11.1027L15.8195 14.9534C15.8767 15.0105 15.9221 15.0784 15.9531 15.1531C15.9841 15.2278 16 15.3079 16 15.3888C16 15.4696 15.9841 15.5497 15.9531 15.6244C15.9221 15.6991 15.8767 15.767 15.8195 15.8241ZM6.76904 12.3119C7.86441 12.3119 8.93518 11.9871 9.84595 11.3786C10.7567 10.77 11.4666 9.90504 11.8857 8.89305C12.3049 7.88106 12.4146 6.76749 12.2009 5.69317C11.9872 4.61885 11.4597 3.63202 10.6852 2.85748C9.91066 2.08293 8.92383 1.55546 7.84951 1.34177C6.77518 1.12807 5.66162 1.23775 4.64963 1.65693C3.63764 2.07611 2.77268 2.78596 2.16412 3.69673C1.55557 4.6075 1.23075 5.67827 1.23075 6.77364C1.23238 8.24198 1.8164 9.64972 2.85468 10.688C3.89296 11.7263 5.3007 12.3103 6.76904 12.3119Z"/>
</svg>
