<svg fill="currentColor" width="16" height="16" viewBox="0 0 16 16" xmlns="http://www.w3.org/2000/svg">
<g clip-path="url(#clip0_3142_1388)">
<path d="M9.23077 9.53846C9.23077 9.84274 9.14055 10.1402 8.9715 10.3932C8.80245 10.6462 8.56217 10.8434 8.28106 10.9598C7.99994 11.0763 7.69061 11.1067 7.39217 11.0474C7.09374 10.988 6.81961 10.8415 6.60446 10.6263C6.3893 10.4112 6.24277 10.137 6.18341 9.8386C6.12405 9.54017 6.15452 9.23083 6.27096 8.94972C6.3874 8.6686 6.58459 8.42833 6.83759 8.25928C7.09059 8.09023 7.38803 8 7.69231 8C8.10034 8 8.49165 8.16209 8.78017 8.45061C9.06869 8.73912 9.23077 9.13044 9.23077 9.53846ZM14.7692 4.92308V14.7692C14.7692 15.0957 14.6396 15.4087 14.4088 15.6395C14.1779 15.8703 13.8649 16 13.5385 16H2.46154C2.13512 16 1.82207 15.8703 1.59126 15.6395C1.36044 15.4087 1.23077 15.0957 1.23077 14.7692V1.23077C1.23077 0.904349 1.36044 0.591298 1.59126 0.360484C1.82207 0.12967 2.13512 1.90276e-07 2.46154 1.90276e-07H9.84616C9.927 -6.33759e-05 10.0071 0.0158005 10.0818 0.0466855C10.1565 0.0775705 10.2244 0.122871 10.2815 0.18L14.5892 4.48769C14.6464 4.54488 14.6917 4.61277 14.7226 4.68748C14.7534 4.76218 14.7693 4.84224 14.7692 4.92308ZM10.8969 11.8723L10.0354 11.0115C10.3986 10.4344 10.5364 9.74375 10.4225 9.07146C10.3087 8.39916 9.95109 7.79239 9.41813 7.36706C8.88517 6.94174 8.21419 6.72768 7.53338 6.76579C6.85258 6.80391 6.20968 7.09152 5.72753 7.57368C5.24537 8.05583 4.95776 8.69873 4.91965 9.37953C4.88153 10.0603 5.09559 10.7313 5.52091 11.2643C5.94624 11.7972 6.55301 12.1548 7.22531 12.2687C7.89761 12.3825 8.58829 12.2447 9.16539 11.8815L10.0262 12.7431C10.0833 12.8003 10.1512 12.8456 10.2259 12.8765C10.3006 12.9075 10.3807 12.9234 10.4615 12.9234C10.5424 12.9234 10.6225 12.9075 10.6972 12.8765C10.7719 12.8456 10.8398 12.8003 10.8969 12.7431C10.9541 12.6859 10.9995 12.618 11.0304 12.5433C11.0613 12.4686 11.0773 12.3886 11.0773 12.3077C11.0773 12.2268 11.0613 12.1468 11.0304 12.0721C10.9995 11.9974 10.9541 11.9295 10.8969 11.8723ZM13.2308 4.92308L9.84616 1.53846V4.92308H13.2308Z"/>
</g>
<defs>
<clipPath id="clip0_3142_1388">
<rect width="16" height="16"/>
</clipPath>
</defs>
</svg>
