<svg fill="currentColor" width="16" height="16" viewBox="0 0 16 16" xmlns="http://www.w3.org/2000/svg">
<path d="M15.6528 7.70379L8.29639 0.347417C8.18674 0.236882 8.0562 0.149247 7.91237 0.0896063C7.76855 0.0299654 7.61431 -0.000491442 7.45861 5.99632e-06H0.592605C0.435438 5.99632e-06 0.284708 0.0624405 0.173574 0.173574C0.0624405 0.284708 5.99632e-06 0.435438 5.99632e-06 0.592605V7.45861C-0.000491442 7.61431 0.0299654 7.76855 0.0896063 7.91237C0.149247 8.0562 0.236882 8.18674 0.347417 8.29639L7.70379 15.6528C7.81385 15.7629 7.94452 15.8502 8.08833 15.9098C8.23214 15.9693 8.38628 16 8.54195 16C8.69762 16 8.85176 15.9693 8.99557 15.9098C9.13938 15.8502 9.27005 15.7629 9.38011 15.6528L15.6528 9.38011C15.7629 9.27005 15.8502 9.13938 15.9098 8.99557C15.9693 8.85176 16 8.69762 16 8.54195C16 8.38628 15.9693 8.23214 15.9098 8.08833C15.8502 7.94452 15.7629 7.81385 15.6528 7.70379ZM3.8519 4.7408C3.67609 4.7408 3.50423 4.68866 3.35805 4.59099C3.21188 4.49332 3.09794 4.35449 3.03066 4.19207C2.96339 4.02964 2.94578 3.85091 2.98008 3.67848C3.01438 3.50605 3.09904 3.34767 3.22335 3.22335C3.34767 3.09904 3.50605 3.01438 3.67848 2.98008C3.85091 2.94578 4.02964 2.96339 4.19207 3.03066C4.35449 3.09794 4.49332 3.21188 4.59099 3.35805C4.68866 3.50423 4.7408 3.67609 4.7408 3.8519C4.7408 4.08765 4.64715 4.31374 4.48045 4.48045C4.31374 4.64715 4.08765 4.7408 3.8519 4.7408Z"/>
</svg>
