<svg fill="currentColor" width="16" height="16" viewBox="0 0 16 16" xmlns="http://www.w3.org/2000/svg">
<path d="M14.7256 8.16397C14.7287 8.05389 14.7287 7.94382 14.7256 7.83374L15.8661 6.40888C15.9259 6.33407 15.9673 6.24626 15.987 6.15252C16.0066 6.05878 16.004 5.96174 15.9793 5.86921C15.792 5.16653 15.5123 4.49179 15.1476 3.86264C15.0998 3.78033 15.0335 3.71031 14.9538 3.65815C14.8742 3.606 14.7835 3.57315 14.689 3.56223L12.8758 3.36042C12.8004 3.28092 12.7239 3.20448 12.6465 3.1311L12.4324 1.31334C12.4214 1.21871 12.3885 1.12797 12.3362 1.04834C12.2839 0.96871 12.2137 0.902399 12.1312 0.854691C11.5021 0.490259 10.8274 0.211096 10.1247 0.0245438C10.0321 -0.000177089 9.9351 -0.00281874 9.84136 0.0168317C9.74762 0.0364821 9.65981 0.0778752 9.585 0.137676L8.16397 1.27206C8.05389 1.27206 7.94382 1.27206 7.83374 1.27206L6.40888 0.133854C6.33407 0.0740532 6.24626 0.0326602 6.15252 0.0130097C6.05878 -0.00664072 5.96174 -0.00399922 5.86921 0.0207216C5.16653 0.208022 4.49179 0.487686 3.86264 0.852398C3.78033 0.900193 3.71031 0.966544 3.65815 1.04617C3.606 1.12579 3.57315 1.21649 3.56223 1.31104L3.36042 3.12728C3.28092 3.20321 3.20448 3.27965 3.1311 3.3566L1.31334 3.56528C1.21871 3.57629 1.12797 3.60926 1.04834 3.66155C0.96871 3.71384 0.902399 3.78401 0.854691 3.86646C0.490334 4.49569 0.210933 5.17042 0.0237793 5.87303C-0.000836977 5.96562 -0.00335472 6.0627 0.016429 6.15644C0.0362127 6.25018 0.0777444 6.33796 0.137676 6.41271L1.27206 7.83374C1.27206 7.94382 1.27206 8.05389 1.27206 8.16397L0.133854 9.58882C0.0740532 9.66363 0.0326602 9.75145 0.0130097 9.84518C-0.00664072 9.93892 -0.00399922 10.036 0.0207216 10.1285C0.208022 10.8312 0.487686 11.5059 0.852398 12.1351C0.900193 12.2174 0.966544 12.2874 1.04617 12.3396C1.12579 12.3917 1.21649 12.4246 1.31104 12.4355L3.12422 12.6373C3.20015 12.7168 3.27659 12.7932 3.35354 12.8666L3.56528 14.6844C3.57629 14.779 3.60926 14.8697 3.66155 14.9494C3.71384 15.029 3.78401 15.0953 3.86646 15.143C4.49569 15.5074 5.17042 15.7868 5.87303 15.9739C5.96562 15.9985 6.0627 16.0011 6.15644 15.9813C6.25018 15.9615 6.33796 15.92 6.41271 15.86L7.83374 14.7256C7.94382 14.7287 8.05389 14.7287 8.16397 14.7256L9.58882 15.8661C9.66363 15.9259 9.75145 15.9673 9.84518 15.987C9.93892 16.0066 10.036 16.004 10.1285 15.9793C10.8313 15.7923 11.5061 15.5126 12.1351 15.1476C12.2174 15.0998 12.2874 15.0335 12.3396 14.9538C12.3917 14.8742 12.4246 14.7835 12.4355 14.689L12.6373 12.8758C12.7168 12.8004 12.7932 12.7239 12.8666 12.6465L14.6844 12.4324C14.779 12.4214 14.8697 12.3885 14.9494 12.3362C15.029 12.2839 15.0953 12.2137 15.143 12.1312C15.5074 11.502 15.7868 10.8273 15.9739 10.1247C15.9985 10.0321 16.0011 9.93501 15.9813 9.84127C15.9615 9.74753 15.92 9.65975 15.86 9.585L14.7256 8.16397ZM7.99885 11.0565C7.39411 11.0565 6.80295 10.8772 6.30012 10.5412C5.7973 10.2052 5.40539 9.72767 5.17397 9.16896C4.94254 8.61025 4.88199 7.99546 4.99997 7.40234C5.11795 6.80922 5.40916 6.2644 5.83678 5.83678C6.2644 5.40916 6.80922 5.11795 7.40234 4.99997C7.99546 4.88199 8.61025 4.94254 9.16896 5.17397C9.72767 5.40539 10.2052 5.7973 10.5412 6.30012C10.8772 6.80295 11.0565 7.39411 11.0565 7.99885C11.0565 8.80979 10.7343 9.58751 10.1609 10.1609C9.58751 10.7343 8.80979 11.0565 7.99885 11.0565Z"/>
</svg>
