<svg fill="currentColor" width="16" height="16" viewBox="0 0 16 16" xmlns="http://www.w3.org/2000/svg">
<path d="M15.8324 8.11777L10.1183 13.8319C10.0384 13.9119 9.9365 13.9664 9.8256 13.9885C9.71469 14.0106 9.59973 13.9993 9.49527 13.956C9.3908 13.9127 9.30152 13.8394 9.23874 13.7453C9.17596 13.6513 9.14249 13.5407 9.14258 13.4276V10.587C5.06411 10.8184 2.26776 13.4633 1.48278 14.3012C1.35952 14.4328 1.19788 14.5222 1.02086 14.5567C0.843845 14.5911 0.660473 14.5689 0.496842 14.4931C0.33321 14.4173 0.197656 14.2918 0.109471 14.1345C0.0212857 13.9772 -0.0150375 13.7961 0.00567072 13.6169C0.270664 11.3127 1.53277 9.09632 3.55987 7.37636C5.2434 5.94783 7.28977 5.04142 9.14258 4.88285V1.99935C9.14249 1.88627 9.17596 1.77571 9.23874 1.68166C9.30152 1.58761 9.3908 1.5143 9.49527 1.47101C9.59973 1.42773 9.71469 1.41641 9.8256 1.43849C9.9365 1.46058 10.0384 1.51507 10.1183 1.59508L15.8324 7.30922C15.8855 7.36229 15.9277 7.42531 15.9564 7.49468C15.9852 7.56405 16 7.6384 16 7.71349C16 7.78859 15.9852 7.86294 15.9564 7.93231C15.9277 8.00168 15.8855 8.0647 15.8324 8.11777Z"/>
</svg>
