<svg fill="currentColor" width="16" height="16" viewBox="0 0 16 16" xmlns="http://www.w3.org/2000/svg">
<path d="M14.4006 0H1.59945C1.25994 0 0.934341 0.134869 0.694273 0.374937C0.454205 0.615005 0.319336 0.940608 0.319336 1.28012V5.98214C0.319336 13.1524 6.38548 15.5302 7.59999 15.9334C7.8593 16.0222 8.14076 16.0222 8.40006 15.9334C9.61617 15.5294 15.6807 13.1516 15.6807 5.98134V1.28012C15.6807 0.940608 15.5458 0.615005 15.3058 0.374937C15.0657 0.134869 14.7401 0 14.4006 0ZM10.5603 7.68069H8.64009V9.60086C8.64009 9.77062 8.57265 9.93342 8.45262 10.0535C8.33258 10.1735 8.16978 10.2409 8.00003 10.2409C7.83027 10.2409 7.66747 10.1735 7.54744 10.0535C7.4274 9.93342 7.35997 9.77062 7.35997 9.60086V7.68069H5.4398C5.27004 7.68069 5.10724 7.61326 4.98721 7.49322C4.86717 7.37319 4.79974 7.21039 4.79974 7.04063C4.79974 6.87088 4.86717 6.70808 4.98721 6.58805C5.10724 6.46801 5.27004 6.40058 5.4398 6.40058H7.35997V4.4804C7.35997 4.31065 7.4274 4.14785 7.54744 4.02781C7.66747 3.90778 7.83027 3.84035 8.00003 3.84035C8.16978 3.84035 8.33258 3.90778 8.45262 4.02781C8.57265 4.14785 8.64009 4.31065 8.64009 4.4804V6.40058H10.5603C10.73 6.40058 10.8928 6.46801 11.0128 6.58805C11.1329 6.70808 11.2003 6.87088 11.2003 7.04063C11.2003 7.21039 11.1329 7.37319 11.0128 7.49322C10.8928 7.61326 10.73 7.68069 10.5603 7.68069Z"/>
</svg>
