<svg fill="currentColor" width="16" height="16" viewBox="0 0 16 16" xmlns="http://www.w3.org/2000/svg">
<path d="M14.1538 0H1.84614C1.43812 0 1.0468 0.162088 0.758284 0.450605C0.469766 0.739123 0.307678 1.13044 0.307678 1.53846V6.06154C0.307678 13.1662 6.31538 15.5231 7.51999 15.9216C7.83144 16.0261 8.16854 16.0261 8.47999 15.9216C9.68461 15.5216 15.6923 13.1662 15.6923 6.06154V1.53846C15.6923 1.13044 15.5302 0.739123 15.2417 0.450605C14.9532 0.162088 14.5619 0 14.1538 0ZM13.8462 6.06154C13.8462 11.72 9.18999 13.7177 7.99999 14.1385C6.80999 13.7215 2.15383 11.7239 2.15383 6.06539V1.84616H13.8462V6.06154ZM4.26999 8.34539C4.18412 8.25953 4.11601 8.15759 4.06954 8.0454C4.02307 7.93322 3.99916 7.81298 3.99916 7.69155C3.99916 7.57011 4.02307 7.44987 4.06954 7.33769C4.11601 7.2255 4.18412 7.12356 4.26999 7.0377C4.35585 6.95183 4.45779 6.88372 4.56998 6.83725C4.68216 6.79078 4.80241 6.76687 4.92384 6.76687C5.04527 6.76687 5.16551 6.79078 5.2777 6.83725C5.38988 6.88372 5.49182 6.95183 5.57768 7.0377L6.76922 8.23078L10.4238 4.57616C10.5973 4.40275 10.8324 4.30533 11.0777 4.30533C11.3229 4.30533 11.5581 4.40275 11.7315 4.57616C11.9049 4.74957 12.0024 4.98476 12.0024 5.23C12.0024 5.47524 11.9049 5.71044 11.7315 5.88385L7.42384 10.1915C7.33808 10.2776 7.23618 10.3459 7.12398 10.3925C7.01178 10.4391 6.89148 10.463 6.76999 10.463C6.6485 10.463 6.52821 10.4391 6.416 10.3925C6.3038 10.3459 6.2019 10.2776 6.11614 10.1915L4.26999 8.34539Z"/>
</svg>
