<svg fill="currentColor" width="16" height="16" viewBox="0 0 16 16" xmlns="http://www.w3.org/2000/svg">
<path d="M15.962 6.46462L15.0287 4.13128C14.9494 3.93376 14.8127 3.76459 14.6362 3.64572C14.4597 3.52684 14.2515 3.46375 14.0387 3.46462H11.7333V2.93128C11.7333 2.78983 11.6771 2.65418 11.5771 2.55416C11.4771 2.45414 11.3414 2.39795 11.2 2.39795H1.06667C0.783769 2.39795 0.512458 2.51033 0.312419 2.71037C0.112381 2.91041 0 3.18172 0 3.46462V10.9313C0 11.2142 0.112381 11.4855 0.312419 11.6855C0.512458 11.8856 0.783769 11.9979 1.06667 11.9979H2.2C2.31749 12.4568 2.58437 12.8636 2.95857 13.154C3.33276 13.4445 3.79298 13.6021 4.26667 13.6021C4.74036 13.6021 5.20058 13.4445 5.57477 13.154C5.94896 12.8636 6.21584 12.4568 6.33333 11.9979H9.66667C9.78416 12.4568 10.051 12.8636 10.4252 13.154C10.7994 13.4445 11.2596 13.6021 11.7333 13.6021C12.207 13.6021 12.6672 13.4445 13.0414 13.154C13.4156 12.8636 13.6825 12.4568 13.8 11.9979H14.9333C15.2162 11.9979 15.4875 11.8856 15.6876 11.6855C15.8876 11.4855 16 11.2142 16 10.9313V6.66462C16.0001 6.59615 15.9872 6.52828 15.962 6.46462ZM4.26667 12.5313C4.0557 12.5313 3.84947 12.4687 3.67406 12.3515C3.49865 12.2343 3.36193 12.0677 3.2812 11.8728C3.20046 11.6779 3.17934 11.4634 3.2205 11.2565C3.26165 11.0496 3.36324 10.8595 3.51242 10.7104C3.6616 10.5612 3.85166 10.4596 4.05857 10.4184C4.26548 10.3773 4.47995 10.3984 4.67486 10.4791C4.86977 10.5599 5.03636 10.6966 5.15357 10.872C5.27077 11.0474 5.33333 11.2536 5.33333 11.4646C5.33333 11.7475 5.22095 12.0188 5.02091 12.2189C4.82088 12.4189 4.54956 12.5313 4.26667 12.5313ZM1.06667 7.73128V3.46462H10.6667V7.73128H1.06667ZM11.7333 12.5313C11.5224 12.5313 11.3161 12.4687 11.1407 12.3515C10.9653 12.2343 10.8286 12.0677 10.7479 11.8728C10.6671 11.6779 10.646 11.4634 10.6872 11.2565C10.7283 11.0496 10.8299 10.8595 10.9791 10.7104C11.1283 10.5612 11.3183 10.4596 11.5252 10.4184C11.7322 10.3773 11.9466 10.3984 12.1415 10.4791C12.3364 10.5599 12.503 10.6966 12.6202 10.872C12.7374 11.0474 12.8 11.2536 12.8 11.4646C12.8 11.7475 12.6876 12.0188 12.4876 12.2189C12.2875 12.4189 12.0162 12.5313 11.7333 12.5313ZM11.7333 6.13128V4.53128H14.0387L14.6787 6.13128H11.7333Z"/>
</svg>
