<svg fill="currentColor" width="16" height="16" viewBox="0 0 16 16" xmlns="http://www.w3.org/2000/svg">
<path d="M6.66645 15.3331C6.66645 15.5099 6.59621 15.6794 6.47119 15.8045C6.34617 15.9295 6.17661 15.9997 5.9998 15.9997H1.33329C0.979679 15.9997 0.640552 15.8593 0.390511 15.6092C0.140471 15.3592 0 15.02 0 14.6664V1.33353C0 0.979923 0.140471 0.640796 0.390511 0.390756C0.640552 0.140715 0.979679 0.000244141 1.33329 0.000244141H5.9998C6.17661 0.000244141 6.34617 0.0704799 6.47119 0.1955C6.59621 0.32052 6.66645 0.490084 6.66645 0.666889C6.66645 0.843694 6.59621 1.01326 6.47119 1.13828C6.34617 1.2633 6.17661 1.33353 5.9998 1.33353H1.33329V14.6664H5.9998C6.17661 14.6664 6.34617 14.7367 6.47119 14.8617C6.59621 14.9867 6.66645 15.1563 6.66645 15.3331ZM15.8045 7.52833L12.4713 4.19511C12.378 4.10177 12.2592 4.03819 12.1298 4.01243C12.0004 3.98666 11.8663 3.99986 11.7444 4.05036C11.6225 4.10086 11.5184 4.18639 11.4451 4.29612C11.3719 4.40584 11.3329 4.53483 11.333 4.66676V7.33334H5.9998C5.823 7.33334 5.65343 7.40357 5.52841 7.52859C5.40339 7.65361 5.33316 7.82318 5.33316 7.99998C5.33316 8.17679 5.40339 8.34635 5.52841 8.47137C5.65343 8.59639 5.823 8.66663 5.9998 8.66663H11.333V11.3332C11.3329 11.4651 11.3719 11.5941 11.4451 11.7038C11.5184 11.8136 11.6225 11.8991 11.7444 11.9496C11.8663 12.0001 12.0004 12.0133 12.1298 11.9875C12.2592 11.9618 12.378 11.8982 12.4713 11.8049L15.8045 8.47163C15.8665 8.40972 15.9156 8.3362 15.9492 8.25527C15.9827 8.17434 16 8.08759 16 7.99998C16 7.91237 15.9827 7.82563 15.9492 7.7447C15.9156 7.66377 15.8665 7.59024 15.8045 7.52833Z"/>
</svg>
