<svg fill="currentColor" width="16" height="16" viewBox="0 0 16 16" xmlns="http://www.w3.org/2000/svg">
<g clip-path="url(#clip0_3142_1366)">
<path d="M15.8324 4.39989C15.7793 4.45302 15.7163 4.49517 15.6469 4.52392C15.5776 4.55268 15.5032 4.56748 15.4281 4.56748C15.353 4.56748 15.2787 4.55268 15.2093 4.52392C15.1399 4.49517 15.0769 4.45302 15.0238 4.39989L13.7138 3.08916L11.6638 5.14275L14.1174 7.59634C14.2246 7.70357 14.2849 7.84899 14.2849 8.00063C14.2849 8.15227 14.2246 8.2977 14.1174 8.40492C14.0102 8.51215 13.8647 8.57238 13.7131 8.57238C13.5615 8.57238 13.416 8.51215 13.3088 8.40492L12.8567 7.94777L6.85662 13.9478C6.75044 14.0548 6.62415 14.1398 6.48501 14.1977C6.34587 14.2557 6.19664 14.2856 6.0459 14.2857H2.51801L0.970857 15.8328C0.915291 15.8885 0.848842 15.932 0.775665 15.9608C0.702489 15.9896 0.624161 16.003 0.545582 16.0001C0.467004 15.9972 0.389865 15.9781 0.318995 15.9441C0.248124 15.91 0.185046 15.8617 0.133707 15.8021C0.0402209 15.6886 -0.00718631 15.5441 0.000884178 15.3972C0.00895467 15.2503 0.0719136 15.1119 0.177279 15.0093L1.70943 13.4764V9.94851C1.71014 9.6462 1.8306 9.35648 2.04444 9.14279L3.12873 8.05849C3.15527 8.03193 3.18678 8.01085 3.22146 7.99647C3.25615 7.98209 3.29333 7.97469 3.33088 7.97469C3.36842 7.97469 3.4056 7.98209 3.44029 7.99647C3.47497 8.01085 3.50648 8.03193 3.53302 8.05849L5.59232 10.1164C5.64542 10.1695 5.70844 10.2116 5.77781 10.2403C5.84718 10.269 5.92153 10.2838 5.99661 10.2838C6.0717 10.2838 6.14604 10.269 6.21541 10.2403C6.28478 10.2116 6.34781 10.1695 6.4009 10.1164C6.45399 10.0633 6.49611 10.0002 6.52484 9.93087C6.55357 9.86151 6.56836 9.78716 6.56836 9.71208C6.56836 9.63699 6.55357 9.56264 6.52484 9.49328C6.49611 9.42391 6.45399 9.36088 6.4009 9.30779L4.34088 7.24777C4.31432 7.22123 4.29324 7.18972 4.27887 7.15504C4.26449 7.12035 4.25709 7.08317 4.25709 7.04562C4.25709 7.00808 4.26449 6.9709 4.27887 6.93621C4.29324 6.90153 4.31432 6.87002 4.34088 6.84348L5.12661 6.05776C5.15314 6.03119 5.18465 6.01012 5.21934 5.99574C5.25402 5.98136 5.2912 5.97396 5.32875 5.97396C5.3663 5.97396 5.40348 5.98136 5.43816 5.99574C5.47285 6.01012 5.50436 6.03119 5.53089 6.05776L7.59091 8.11778C7.644 8.17087 7.70703 8.21298 7.7764 8.24172C7.84577 8.27045 7.92012 8.28524 7.9952 8.28524C8.07028 8.28524 8.14463 8.27045 8.214 8.24172C8.28337 8.21298 8.3464 8.17087 8.39949 8.11778C8.45258 8.06468 8.4947 8.00165 8.52343 7.93229C8.55216 7.86292 8.56695 7.78857 8.56695 7.71349C8.56695 7.6384 8.55216 7.56406 8.52343 7.49469C8.4947 7.42532 8.45258 7.36229 8.39949 7.3092L6.34162 5.24704C6.31505 5.2205 6.29398 5.18899 6.2796 5.15431C6.26522 5.11962 6.25782 5.08244 6.25782 5.04489C6.25782 5.00735 6.26522 4.97017 6.2796 4.93548C6.29398 4.9008 6.31505 4.86929 6.34162 4.84275L8.04663 3.13845L7.59305 2.68488C7.53891 2.63074 7.49619 2.56628 7.46744 2.49532C7.43868 2.42436 7.42449 2.34835 7.42569 2.27179C7.42689 2.19524 7.44346 2.1197 7.47442 2.04968C7.50538 1.97965 7.55009 1.91656 7.60591 1.86415C7.71893 1.76336 7.86653 1.71013 8.01787 1.71558C8.16921 1.72104 8.31259 1.78476 8.41806 1.89344L10.8567 4.3306L12.906 2.28059L11.5945 0.969861C11.5403 0.915778 11.4975 0.851356 11.4687 0.780421C11.4399 0.709486 11.4257 0.633484 11.4268 0.556929C11.4279 0.480374 11.4444 0.404828 11.4753 0.334776C11.5062 0.264724 11.5509 0.201596 11.6067 0.14914C11.7198 0.048297 11.8675 -0.00495321 12.019 0.000503601C12.1704 0.00596041 12.3139 0.0697026 12.4195 0.178426L15.8324 3.59131C15.8855 3.64438 15.9277 3.7074 15.9564 3.77678C15.9852 3.84615 16 3.92051 16 3.9956C16 4.0707 15.9852 4.14505 15.9564 4.21443C15.9277 4.2838 15.8855 4.34682 15.8324 4.39989Z"/>
</g>
<defs>
<clipPath id="clip0_3142_1366">
<rect width="16" height="16"/>
</clipPath>
</defs>
</svg>
