<svg fill="currentColor" width="16" height="16" viewBox="0 0 16 16" xmlns="http://www.w3.org/2000/svg">
<path d="M8 0C6.41775 0 4.87103 0.469192 3.55544 1.34824C2.23985 2.22729 1.21447 3.47672 0.608967 4.93853C0.00346628 6.40034 -0.15496 8.00887 0.153721 9.56072C0.462403 11.1126 1.22433 12.538 2.34315 13.6569C3.46197 14.7757 4.88743 15.5376 6.43928 15.8463C7.99113 16.155 9.59966 15.9965 11.0615 15.391C12.5233 14.7855 13.7727 13.7602 14.6518 12.4446C15.5308 11.129 16 9.58225 16 8C15.9978 5.87895 15.1542 3.84542 13.6544 2.34562C12.1546 0.845814 10.121 0.00223986 8 0ZM10.8969 10.2815L8.43539 12.7431C8.37823 12.8003 8.31036 12.8457 8.23566 12.8766C8.16095 12.9076 8.08087 12.9236 8 12.9236C7.91913 12.9236 7.83905 12.9076 7.76435 12.8766C7.68964 12.8457 7.62177 12.8003 7.56462 12.7431L5.10308 10.2815C4.98761 10.1661 4.92274 10.0095 4.92274 9.84615C4.92274 9.68285 4.98761 9.52624 5.10308 9.41077C5.21855 9.2953 5.37516 9.23042 5.53846 9.23042C5.70176 9.23042 5.85838 9.2953 5.97385 9.41077L8 11.4377L10.0262 9.41077C10.1416 9.2953 10.2982 9.23042 10.4615 9.23042C10.6248 9.23042 10.7815 9.2953 10.8969 9.41077C11.0124 9.52624 11.0773 9.68285 11.0773 9.84615C11.0773 10.0095 11.0124 10.1661 10.8969 10.2815ZM10.8969 6.58923C10.8398 6.64645 10.7719 6.69184 10.6972 6.7228C10.6225 6.75377 10.5424 6.76971 10.4615 6.76971C10.3807 6.76971 10.3006 6.75377 10.2259 6.7228C10.1512 6.69184 10.0833 6.64645 10.0262 6.58923L8 4.56231L5.97385 6.58923C5.85838 6.7047 5.70176 6.76957 5.53846 6.76957C5.37516 6.76957 5.21855 6.7047 5.10308 6.58923C4.98761 6.47376 4.92274 6.31715 4.92274 6.15384C4.92274 5.99054 4.98761 5.83393 5.10308 5.71846L7.56462 3.25692C7.62177 3.19971 7.68964 3.15432 7.76435 3.12335C7.83905 3.09238 7.91913 3.07644 8 3.07644C8.08087 3.07644 8.16095 3.09238 8.23566 3.12335C8.31036 3.15432 8.37823 3.19971 8.43539 3.25692L10.8969 5.71846C10.9541 5.77561 10.9995 5.84348 11.0305 5.91819C11.0615 5.9929 11.0774 6.07297 11.0774 6.15384C11.0774 6.23472 11.0615 6.31479 11.0305 6.3895C10.9995 6.46421 10.9541 6.53208 10.8969 6.58923Z"/>
</svg>
