<svg fill="currentColor" width="16" height="16" viewBox="0 0 16 16" xmlns="http://www.w3.org/2000/svg">
<path d="M7.99997 2.28571C6.64375 2.28571 5.31799 2.68788 4.19034 3.44135C3.06269 4.19482 2.18379 5.26576 1.66479 6.51874C1.14579 7.77172 1.01 9.15046 1.27458 10.4806C1.53917 11.8108 2.19225 13.0326 3.15124 13.9916C4.11022 14.9506 5.33205 15.6037 6.6622 15.8682C7.99236 16.1328 9.3711 15.997 10.6241 15.478C11.8771 14.959 12.948 14.0801 13.7015 12.9525C14.4549 11.8248 14.8571 10.4991 14.8571 9.14286C14.855 7.32487 14.1319 5.58193 12.8464 4.29642C11.5609 3.01091 9.81796 2.28779 7.99997 2.28571ZM11.2614 6.69L8.40425 9.54714C8.35116 9.60023 8.28813 9.64235 8.21876 9.67108C8.1494 9.69981 8.07505 9.7146 7.99997 9.7146C7.92488 9.7146 7.85054 9.69981 7.78117 9.67108C7.7118 9.64235 7.64877 9.60023 7.59568 9.54714C7.54259 9.49405 7.50047 9.43102 7.47174 9.36165C7.44301 9.29229 7.42822 9.21794 7.42822 9.14286C7.42822 9.06777 7.44301 8.99343 7.47174 8.92406C7.50047 8.85469 7.54259 8.79166 7.59568 8.73857L10.4528 5.88143C10.5059 5.82834 10.5689 5.78622 10.6383 5.75749C10.7077 5.72876 10.782 5.71397 10.8571 5.71397C10.9322 5.71397 11.0065 5.72876 11.0759 5.75749C11.1453 5.78622 11.2083 5.82834 11.2614 5.88143C11.3145 5.93452 11.3566 5.99755 11.3853 6.06692C11.4141 6.13628 11.4289 6.21063 11.4289 6.28571C11.4289 6.3608 11.4141 6.43514 11.3853 6.50451C11.3566 6.57388 11.3145 6.63691 11.2614 6.69ZM5.71425 0.571428C5.71425 0.419876 5.77446 0.274531 5.88162 0.167368C5.98878 0.0602039 6.13413 0 6.28568 0H9.71425C9.8658 0 10.0111 0.0602039 10.1183 0.167368C10.2255 0.274531 10.2857 0.419876 10.2857 0.571428C10.2857 0.722981 10.2255 0.868326 10.1183 0.975489C10.0111 1.08265 9.8658 1.14286 9.71425 1.14286H6.28568C6.13413 1.14286 5.98878 1.08265 5.88162 0.975489C5.77446 0.868326 5.71425 0.722981 5.71425 0.571428Z"/>
</svg>
