<svg fill="currentColor" width="16" height="16" viewBox="0 0 16 16" xmlns="http://www.w3.org/2000/svg">
<path d="M14.7692 2.46154H11.6923V1.84615C11.6923 1.35652 11.4978 0.886947 11.1516 0.540726C10.8053 0.194505 10.3358 0 9.84612 0H6.15382C5.66419 0 5.19461 0.194505 4.84839 0.540726C4.50217 0.886947 4.30766 1.35652 4.30766 1.84615V2.46154H1.23074C1.06753 2.46154 0.911006 2.52637 0.795599 2.64178C0.680192 2.75719 0.615356 2.91371 0.615356 3.07692C0.615356 3.24013 0.680192 3.39666 0.795599 3.51207C0.911006 3.62747 1.06753 3.69231 1.23074 3.69231H1.84613V14.7692C1.84613 15.0957 1.9758 15.4087 2.20661 15.6395C2.43742 15.8703 2.75047 16 3.07689 16H12.923C13.2495 16 13.5625 15.8703 13.7933 15.6395C14.0241 15.4087 14.1538 15.0957 14.1538 14.7692V3.69231H14.7692C14.9324 3.69231 15.0889 3.62747 15.2043 3.51207C15.3198 3.39666 15.3846 3.24013 15.3846 3.07692C15.3846 2.91371 15.3198 2.75719 15.2043 2.64178C15.0889 2.52637 14.9324 2.46154 14.7692 2.46154ZM6.7692 11.6923C6.7692 11.8555 6.70437 12.012 6.58896 12.1275C6.47355 12.2429 6.31703 12.3077 6.15382 12.3077C5.99061 12.3077 5.83408 12.2429 5.71868 12.1275C5.60327 12.012 5.53843 11.8555 5.53843 11.6923V6.76923C5.53843 6.60602 5.60327 6.4495 5.71868 6.33409C5.83408 6.21868 5.99061 6.15385 6.15382 6.15385C6.31703 6.15385 6.47355 6.21868 6.58896 6.33409C6.70437 6.4495 6.7692 6.60602 6.7692 6.76923V11.6923ZM10.4615 11.6923C10.4615 11.8555 10.3967 12.012 10.2813 12.1275C10.1659 12.2429 10.0093 12.3077 9.84612 12.3077C9.68291 12.3077 9.52639 12.2429 9.41098 12.1275C9.29558 12.012 9.23074 11.8555 9.23074 11.6923V6.76923C9.23074 6.60602 9.29558 6.4495 9.41098 6.33409C9.52639 6.21868 9.68291 6.15385 9.84612 6.15385C10.0093 6.15385 10.1659 6.21868 10.2813 6.33409C10.3967 6.4495 10.4615 6.60602 10.4615 6.76923V11.6923ZM10.4615 2.46154H5.53843V1.84615C5.53843 1.68294 5.60327 1.52642 5.71868 1.41101C5.83408 1.2956 5.99061 1.23077 6.15382 1.23077H9.84612C10.0093 1.23077 10.1659 1.2956 10.2813 1.41101C10.3967 1.52642 10.4615 1.68294 10.4615 1.84615V2.46154Z"/>
</svg>
