<svg fill="currentColor" width="16" height="16" viewBox="0 0 16 16" xmlns="http://www.w3.org/2000/svg">
<path d="M16 7.99948C16.0002 9.94093 15.2358 11.8044 13.8723 13.1864C12.5088 14.5685 10.6559 15.358 8.71462 15.3841H8.61539C6.72942 15.3888 4.91407 14.6671 3.54616 13.3687C3.48742 13.3132 3.4402 13.2466 3.40719 13.1728C3.37418 13.0989 3.35603 13.0194 3.35378 12.9385C3.35153 12.8577 3.36523 12.7772 3.39408 12.7017C3.42293 12.6262 3.46637 12.5571 3.52193 12.4983C3.57749 12.4396 3.64408 12.3924 3.71788 12.3594C3.79169 12.3263 3.87128 12.3082 3.9521 12.3059C4.03293 12.3037 4.1134 12.3174 4.18893 12.3462C4.26446 12.3751 4.33357 12.4185 4.39231 12.4741C5.27216 13.3039 6.37699 13.856 7.5688 14.0615C8.7606 14.267 9.98654 14.1167 11.0935 13.6295C12.2004 13.1424 13.1392 12.3398 13.7927 11.3222C14.4461 10.3045 14.7852 9.11686 14.7676 7.90759C14.75 6.69833 14.3765 5.52106 13.6937 4.52284C13.011 3.52463 12.0492 2.74973 10.9285 2.29495C9.80792 1.84017 8.57813 1.72567 7.39281 1.96576C6.20749 2.20584 5.11918 2.78987 4.26385 3.64487C4.25757 3.65167 4.25089 3.65809 4.24385 3.6641L3.43308 4.40641L4.74078 5.7141C4.82813 5.79982 4.88794 5.90963 4.91256 6.02951C4.93719 6.14939 4.92551 6.27389 4.87902 6.3871C4.83253 6.50031 4.75334 6.59708 4.65157 6.66506C4.54981 6.73304 4.43008 6.76913 4.3077 6.76872H0.615395C0.452185 6.76872 0.295659 6.70388 0.180252 6.58847C0.0648453 6.47307 1.0368e-05 6.31654 1.0368e-05 6.15333V2.46103C-0.000697928 2.33898 0.0348993 2.21948 0.102277 2.11772C0.169655 2.01596 0.265769 1.93653 0.378403 1.88953C0.491036 1.84253 0.615101 1.83009 0.734827 1.85377C0.854552 1.87746 0.964529 1.93622 1.05078 2.02257L2.56232 3.53795L3.40385 2.76872C4.43769 1.7389 5.75344 1.03846 7.18503 0.755821C8.61661 0.473178 10.0998 0.621002 11.4475 1.18063C12.7951 1.74026 13.9468 2.68661 14.757 3.90022C15.5673 5.11382 15.9998 6.54026 16 7.99948Z"/>
</svg>
