<svg fill="currentColor" width="16" height="16" viewBox="0 0 16 16" xmlns="http://www.w3.org/2000/svg">
<path d="M15.1111 6.51852V14.8148C15.1111 15.1291 14.9863 15.4306 14.764 15.6529C14.5417 15.8751 14.2403 16 13.926 16H2.0741C1.75977 16 1.45831 15.8751 1.23605 15.6529C1.01378 15.4306 0.888916 15.1291 0.888916 14.8148V6.51852C0.888916 6.20419 1.01378 5.90273 1.23605 5.68047C1.45831 5.4582 1.75977 5.33333 2.0741 5.33333H4.44447V3.55556C4.44545 2.61286 4.82037 1.70906 5.48695 1.04248C6.15354 0.375897 7.05734 0.000980439 8.00003 0C9.71855 0 11.2089 1.1963 11.5437 2.84519C11.5732 2.99852 11.5411 3.1573 11.4541 3.28703C11.3672 3.41675 11.2326 3.50693 11.0796 3.53797C10.9266 3.56901 10.7675 3.53839 10.6369 3.45277C10.5063 3.36715 10.4148 3.23346 10.3822 3.08074C10.163 2 9.13855 1.18519 8.00003 1.18519C7.37137 1.18519 6.76845 1.43492 6.32392 1.87945C5.87939 2.32398 5.62966 2.92689 5.62966 3.55556V5.33333H13.926C14.2403 5.33333 14.5417 5.4582 14.764 5.68047C14.9863 5.90273 15.1111 6.20419 15.1111 6.51852Z"/>
</svg>
