<svg fill="currentColor" width="16" height="16" viewBox="0 0 16 16" xmlns="http://www.w3.org/2000/svg">
<path d="M15.9956 7.76802C15.8743 4.63596 13.2716 2.13324 10.1375 2.13324C9.04731 2.13341 7.97864 2.43702 7.05117 3.01008C6.1237 3.58314 5.37404 4.40303 4.8861 5.37797C4.48055 6.18623 4.26852 7.07773 4.26675 7.98202C4.26884 8.11943 4.21898 8.25255 4.12714 8.35478C4.0353 8.457 3.90825 8.52078 3.77141 8.53337C3.69824 8.53859 3.62478 8.52867 3.55562 8.50422C3.48646 8.47976 3.42309 8.44131 3.36946 8.39125C3.31584 8.34119 3.27312 8.28062 3.24397 8.2133C3.21482 8.14598 3.19988 8.07338 3.20006 8.00002C3.1995 7.25403 3.31972 6.51287 3.55607 5.80531C3.57164 5.75994 3.57469 5.71121 3.56489 5.66426C3.55509 5.6173 3.53281 5.57386 3.50039 5.53851C3.46797 5.50316 3.42662 5.4772 3.38068 5.46338C3.33475 5.44956 3.28594 5.44838 3.2394 5.45997C2.31526 5.69031 1.49457 6.2228 0.907671 6.97289C0.320769 7.72297 0.00129967 8.64765 0 9.60005C0 11.9461 1.98337 13.8668 4.33342 13.8668H10.1335C10.9233 13.866 11.7047 13.7058 12.4311 13.396C13.1575 13.0862 13.814 12.6331 14.3612 12.0637C14.9085 11.4944 15.3353 10.8205 15.6161 10.0824C15.897 9.34431 16.026 8.55715 15.9956 7.76802ZM12.1109 9.44405C12.0614 9.49364 12.0026 9.53298 11.9378 9.55982C11.8731 9.58666 11.8037 9.60047 11.7336 9.60047C11.6635 9.60047 11.5941 9.58666 11.5293 9.55982C11.4646 9.53298 11.4058 9.49364 11.3562 9.44405L10.1335 8.22069V12.2668C10.1335 12.4082 10.0773 12.5439 9.97732 12.6439C9.8773 12.7439 9.74164 12.8001 9.60019 12.8001C9.45874 12.8001 9.32308 12.7439 9.22306 12.6439C9.12304 12.5439 9.06685 12.4082 9.06685 12.2668V8.22069L7.84415 9.44405C7.7946 9.4936 7.73577 9.53291 7.67103 9.55973C7.60629 9.58655 7.53689 9.60035 7.46681 9.60035C7.39674 9.60035 7.32734 9.58655 7.2626 9.55973C7.19785 9.53291 7.13903 9.4936 7.08947 9.44405C7.03992 9.3945 7.00061 9.33567 6.97379 9.27093C6.94698 9.20618 6.93317 9.13679 6.93317 9.06671C6.93317 8.99663 6.94698 8.92724 6.97379 8.86249C7.00061 8.79775 7.03992 8.73892 7.08947 8.68937L9.22285 6.55599C9.27238 6.5064 9.3312 6.46707 9.39595 6.44023C9.4607 6.41339 9.5301 6.39957 9.60019 6.39957C9.67028 6.39957 9.73968 6.41339 9.80443 6.44023C9.86917 6.46707 9.928 6.5064 9.97753 6.55599L12.1109 8.68937C12.1605 8.7389 12.1998 8.79772 12.2267 8.86247C12.2535 8.92722 12.2673 8.99662 12.2673 9.06671C12.2673 9.1368 12.2535 9.2062 12.2267 9.27095C12.1998 9.3357 12.1605 9.39452 12.1109 9.44405Z"/>
</svg>
