<svg fill="currentColor" width="16" height="16" viewBox="0 0 16 16" xmlns="http://www.w3.org/2000/svg">
<g clip-path="url(#clip0_3550_8343)">
<path d="M16 9.06811C16 9.20959 15.9438 9.34527 15.8438 9.44532C15.7437 9.54536 15.608 9.60156 15.4666 9.60156H14.3997V10.6685C14.3997 10.8099 14.3435 10.9456 14.2434 11.0457C14.1434 11.1457 14.0077 11.2019 13.8662 11.2019C13.7247 11.2019 13.589 11.1457 13.489 11.0457C13.389 10.9456 13.3328 10.8099 13.3328 10.6685V9.60156H12.2659C12.1244 9.60156 11.9887 9.54536 11.8887 9.44532C11.7886 9.34527 11.7324 9.20959 11.7324 9.06811C11.7324 8.92663 11.7886 8.79095 11.8887 8.69091C11.9887 8.59086 12.1244 8.53466 12.2659 8.53466H13.3328V7.46777C13.3328 7.32629 13.389 7.1906 13.489 7.09056C13.589 6.99052 13.7247 6.93432 13.8662 6.93432C14.0077 6.93432 14.1434 6.99052 14.2434 7.09056C14.3435 7.1906 14.3997 7.32629 14.3997 7.46777V8.53466H15.4666C15.608 8.53466 15.7437 8.59086 15.8438 8.69091C15.9438 8.79095 16 8.92663 16 9.06811ZM8.53172 10.5138C9.36797 9.99291 10.0118 9.21388 10.3659 8.29453C10.72 7.37517 10.765 6.36551 10.4941 5.41829C10.2233 4.47108 9.65127 3.63785 8.86468 3.04466C8.0781 2.45148 7.11972 2.13062 6.13454 2.13062C5.14936 2.13062 4.19098 2.45148 3.4044 3.04466C2.61781 3.63785 2.04583 4.47108 1.77497 5.41829C1.50411 6.36551 1.54912 7.37517 1.90318 8.29453C2.25725 9.21388 2.90111 9.99291 3.73736 10.5138C2.36039 10.9645 1.12146 11.8067 0.125244 12.9923C0.0600242 13.0698 0.0182281 13.1643 0.00474546 13.2647C-0.00873721 13.3651 0.00665105 13.4673 0.04911 13.5593C0.091569 13.6513 0.159343 13.7293 0.244504 13.7841C0.329665 13.839 0.428691 13.8685 0.529998 13.8691H11.7324C11.8341 13.8692 11.9336 13.8403 12.0194 13.7857C12.1051 13.7312 12.1735 13.6532 12.2164 13.5611C12.2594 13.469 12.2751 13.3665 12.2618 13.2657C12.2485 13.1649 12.2066 13.0701 12.1412 12.9923C11.1443 11.8067 9.90535 10.9645 8.53172 10.5138Z"/>
</g>
<defs>
<clipPath id="clip0_3550_8343">
<rect width="16" height="16"/>
</clipPath>
</defs>
</svg>
