<svg fill="currentColor" width="16" height="16" viewBox="0 0 16 16" xmlns="http://www.w3.org/2000/svg">
<g clip-path="url(#clip0_3263_154)">
<path d="M11.7333 4.26661V11.7332C11.7333 12.0161 11.6209 12.2874 11.4209 12.4875C11.2208 12.6875 10.9495 12.7999 10.6666 12.7999H1.06666C0.783765 12.7999 0.512456 12.6875 0.312418 12.4875C0.11238 12.2874 0 12.0161 0 11.7332V4.26661C0 3.98372 0.11238 3.71241 0.312418 3.51237C0.512456 3.31233 0.783765 3.19995 1.06666 3.19995H10.6666C10.9495 3.19995 11.2208 3.31233 11.4209 3.51237C11.6209 3.71241 11.7333 3.98372 11.7333 4.26661ZM15.5999 4.28328C15.5247 4.26487 15.4464 4.2626 15.3702 4.27661C15.294 4.29063 15.2217 4.32062 15.1579 4.36461L12.9186 5.85727C12.8821 5.88164 12.8521 5.91466 12.8314 5.95339C12.8107 5.99212 12.7999 6.03536 12.7999 6.07927V9.92058C12.7999 9.9645 12.8107 10.0077 12.8314 10.0465C12.8521 10.0852 12.8821 10.1182 12.9186 10.1426L15.1706 11.6439C15.2549 11.7001 15.3534 11.7312 15.4548 11.7334C15.556 11.7357 15.6559 11.709 15.7426 11.6566C15.8228 11.6056 15.8886 11.5349 15.9336 11.4512C15.9787 11.3675 16.0015 11.2736 15.9999 11.1786V4.79994C16 4.68166 15.9607 4.56671 15.8883 4.47318C15.8159 4.37965 15.7145 4.31285 15.5999 4.28328Z"/>
</g>
<defs>
<clipPath id="clip0_3263_154">
<rect width="16" height="16"/>
</clipPath>
</defs>
</svg>
