<svg fill="currentColor" width="16" height="16" viewBox="0 0 16 16" xmlns="http://www.w3.org/2000/svg">
<g clip-path="url(#clip0_3133_13)">
<path d="M15.4667 7.46667H14.3773C14.2675 6.14133 13.7456 4.88362 12.8847 3.87L13.7107 3.044C13.8107 2.94393 13.867 2.80819 13.867 2.66667C13.867 2.52514 13.8107 2.38941 13.7107 2.28933C13.6106 2.18926 13.4749 2.13304 13.3333 2.13304C13.1918 2.13304 13.0561 2.18926 12.956 2.28933L12.1333 3.11533C11.1188 2.25378 9.85984 1.73178 8.53333 1.62267V0.533333C8.53333 0.391885 8.47714 0.256229 8.37712 0.15621C8.27711 0.0561903 8.14145 0 8 0C7.85855 0 7.7229 0.0561903 7.62288 0.15621C7.52286 0.256229 7.46667 0.391885 7.46667 0.533333V1.62267C6.14133 1.73246 4.88362 2.25442 3.87 3.11533L3.044 2.28933C2.94393 2.18926 2.80819 2.13304 2.66667 2.13304C2.52514 2.13304 2.38941 2.18926 2.28933 2.28933C2.18926 2.38941 2.13304 2.52514 2.13304 2.66667C2.13304 2.80819 2.18926 2.94393 2.28933 3.044L3.11533 3.87C2.25378 4.88452 1.73178 6.1435 1.62267 7.47H0.533333C0.391885 7.47 0.256229 7.52619 0.15621 7.62621C0.0561903 7.72623 0 7.86189 0 8.00333C0 8.14478 0.0561903 8.28044 0.15621 8.38046C0.256229 8.48048 0.391885 8.53667 0.533333 8.53667H1.62267C1.73246 9.86201 2.25442 11.1197 3.11533 12.1333L2.28933 12.956C2.18926 13.0561 2.13304 13.1918 2.13304 13.3333C2.13304 13.4749 2.18926 13.6106 2.28933 13.7107C2.38941 13.8107 2.52514 13.867 2.66667 13.867C2.80819 13.867 2.94393 13.8107 3.044 13.7107L3.87 12.8847C4.88452 13.7462 6.1435 14.2682 7.47 14.3773V15.4667C7.47 15.6081 7.52619 15.7438 7.62621 15.8438C7.72623 15.9438 7.86189 16 8.00333 16C8.14478 16 8.28044 15.9438 8.38046 15.8438C8.48048 15.7438 8.53667 15.6081 8.53667 15.4667V14.3773C9.86201 14.2675 11.1197 13.7456 12.1333 12.8847L12.9593 13.7107C13.0594 13.8107 13.1951 13.867 13.3367 13.867C13.4782 13.867 13.6139 13.8107 13.714 13.7107C13.8141 13.6106 13.8703 13.4749 13.8703 13.3333C13.8703 13.1918 13.8141 13.0561 13.714 12.956L12.8847 12.1333C13.7462 11.1188 14.2682 9.85984 14.3773 8.53333H15.4667C15.6081 8.53333 15.7438 8.47714 15.8438 8.37712C15.9438 8.27711 16 8.14145 16 8C16 7.85855 15.9438 7.7229 15.8438 7.62288C15.7438 7.52286 15.6081 7.46667 15.4667 7.46667ZM4.8 6.66667C4.8 6.29748 4.90948 5.93657 5.11459 5.6296C5.3197 5.32263 5.61124 5.08337 5.95232 4.94209C6.29341 4.80081 6.66874 4.76384 7.03084 4.83587C7.39293 4.90789 7.72554 5.08568 7.9866 5.34673C8.24766 5.60779 8.42544 5.9404 8.49747 6.3025C8.56949 6.6646 8.53253 7.03992 8.39124 7.38101C8.24996 7.7221 8.0107 8.01363 7.70373 8.21874C7.39676 8.42385 7.03586 8.53333 6.66667 8.53333C6.1716 8.53333 5.6968 8.33667 5.34673 7.9866C4.99667 7.63653 4.8 7.16174 4.8 6.66667ZM8 12.2667C7.78903 12.2667 7.5828 12.2041 7.40739 12.0869C7.23198 11.9697 7.09526 11.8031 7.01453 11.6082C6.9338 11.4133 6.91267 11.1988 6.95383 10.9919C6.99499 10.785 7.09658 10.5949 7.24575 10.4458C7.39493 10.2966 7.58499 10.195 7.7919 10.1538C7.99882 10.1127 8.21329 10.1338 8.4082 10.2145C8.6031 10.2953 8.76969 10.432 8.8869 10.6074C9.00411 10.7828 9.06667 10.989 9.06667 11.2C9.06667 11.4829 8.95429 11.7542 8.75425 11.9542C8.55421 12.1543 8.2829 12.2667 8 12.2667ZM11.2 9.06667C10.989 9.06667 10.7828 9.00411 10.6074 8.8869C10.432 8.76969 10.2953 8.6031 10.2145 8.4082C10.1338 8.21329 10.1127 7.99882 10.1538 7.7919C10.195 7.58499 10.2966 7.39493 10.4458 7.24575C10.5949 7.09658 10.785 6.99499 10.9919 6.95383C11.1988 6.91267 11.4133 6.9338 11.6082 7.01453C11.8031 7.09526 11.9697 7.23198 12.0869 7.40739C12.2041 7.5828 12.2667 7.78903 12.2667 8C12.2667 8.2829 12.1543 8.55421 11.9542 8.75425C11.7542 8.95429 11.4829 9.06667 11.2 9.06667Z"/>
</g>
<defs>
<clipPath id="clip0_3133_13">
<rect width="16" height="16"/>
</clipPath>
</defs>
</svg>
