<svg fill="currentColor" width="16" height="16" viewBox="0 0 16 16" xmlns="http://www.w3.org/2000/svg">
<path d="M15.954 7.78396C15.9307 7.7313 15.366 6.47863 14.1107 5.22329C12.438 3.55063 10.3253 2.66663 8 2.66663C5.67466 2.66663 3.562 3.55063 1.88933 5.22329C0.633994 6.47863 0.0666603 7.7333 0.0459936 7.78396C0.0156691 7.85217 0 7.92598 0 8.00063C0 8.07527 0.0156691 8.14909 0.0459936 8.2173C0.069327 8.26996 0.633994 9.52196 1.88933 10.7773C3.562 12.4493 5.67466 13.3333 8 13.3333C10.3253 13.3333 12.438 12.4493 14.1107 10.7773C15.366 9.52196 15.9307 8.26996 15.954 8.2173C15.9843 8.14909 16 8.07527 16 8.00063C16 7.92598 15.9843 7.85217 15.954 7.78396ZM8 10.6666C7.47258 10.6666 6.95701 10.5102 6.51848 10.2172C6.07995 9.9242 5.73815 9.50772 5.53632 9.02045C5.33449 8.53318 5.28168 7.997 5.38457 7.47972C5.48746 6.96244 5.74144 6.48728 6.11438 6.11434C6.48732 5.7414 6.96247 5.48743 7.47976 5.38453C7.99704 5.28164 8.53322 5.33445 9.02049 5.53628C9.50776 5.73812 9.92424 6.07991 10.2173 6.51844C10.5103 6.95697 10.6667 7.47255 10.6667 7.99996C10.6667 8.70721 10.3857 9.38549 9.88562 9.88558C9.38552 10.3857 8.70724 10.6666 8 10.6666Z"/>
</svg>
