<svg fill="currentColor" width="16" height="16" viewBox="0 0 16 16" xmlns="http://www.w3.org/2000/svg">
<path d="M3.06133 1.77461C3.01449 1.72182 2.95764 1.67884 2.89408 1.64818C2.83051 1.61752 2.76149 1.59978 2.69101 1.59598C2.62054 1.59219 2.55001 1.60243 2.48352 1.62609C2.41703 1.64976 2.3559 1.68639 2.30367 1.73385C2.25144 1.78132 2.20915 1.83868 2.17925 1.90261C2.14935 1.96654 2.13244 2.03577 2.12949 2.10628C2.12655 2.1768 2.13763 2.2472 2.16209 2.3134C2.18655 2.3796 2.22391 2.44029 2.272 2.49195L3.55466 3.90328C1.13333 5.38928 0.0919937 7.67995 0.0459936 7.78395C0.0156691 7.85216 0 7.92597 0 8.00062C0 8.07526 0.0156691 8.14908 0.0459936 8.21728C0.069327 8.26995 0.633994 9.52195 1.88933 10.7773C3.562 12.4493 5.67466 13.3333 8 13.3333C9.19508 13.3401 10.3781 13.094 11.4713 12.6113L12.938 14.2253C12.9848 14.2781 13.0417 14.3211 13.1053 14.3517C13.1688 14.3824 13.2378 14.4001 13.3083 14.4039C13.3788 14.4077 13.4493 14.3975 13.5158 14.3738C13.5823 14.3501 13.6434 14.3135 13.6957 14.2661C13.7479 14.2186 13.7902 14.1612 13.8201 14.0973C13.85 14.0334 13.8669 13.9641 13.8698 13.8936C13.8728 13.8231 13.8617 13.7527 13.8372 13.6865C13.8128 13.6203 13.7754 13.5596 13.7273 13.508L3.06133 1.77461ZM8.99467 9.88729C8.57633 10.1074 8.09674 10.1823 7.63122 10.1002C7.1657 10.0182 6.7406 9.7839 6.42268 9.43409C6.10476 9.08428 5.91202 8.63879 5.87473 8.16756C5.83745 7.69634 5.95772 7.22608 6.21667 6.83062L8.99467 9.88729ZM15.954 8.21728C15.926 8.27995 15.2507 9.77529 13.73 11.1373C13.6252 11.2313 13.4875 11.2801 13.3468 11.273C13.2062 11.2659 13.0741 11.2034 12.9793 11.0993L6.22666 3.67128C6.16207 3.60039 6.11778 3.5134 6.09846 3.41946C6.07915 3.32552 6.08552 3.22811 6.11691 3.13749C6.1483 3.04686 6.20355 2.96638 6.27683 2.90451C6.35012 2.84265 6.43873 2.80169 6.53333 2.78595C7.01811 2.7059 7.50866 2.66599 8 2.66661C10.3253 2.66661 12.438 3.55062 14.1107 5.22328C15.366 6.47862 15.9307 7.73129 15.954 7.78395C15.9843 7.85216 16 7.92597 16 8.00062C16 8.07526 15.9843 8.14908 15.954 8.21728Z"/>
</svg>
