<svg fill="currentColor" width="16" height="16" viewBox="0 0 16 16" xmlns="http://www.w3.org/2000/svg">
<path d="M9.62138 0.883578C9.5286 0.838368 9.425 0.820088 9.32235 0.830817C9.2197 0.841545 9.12212 0.880851 9.04069 0.944268L4.22414 4.68978H1.10345C0.810795 4.68978 0.530129 4.80604 0.323192 5.01298C0.116256 5.21991 0 5.50058 0 5.79323V10.207C0 10.4997 0.116256 10.7803 0.323192 10.9873C0.530129 11.1942 0.810795 11.3105 1.10345 11.3105H4.22414L9.04069 15.056C9.12219 15.1194 9.21984 15.1586 9.32253 15.1692C9.42522 15.1798 9.52883 15.1614 9.62158 15.1161C9.71434 15.0708 9.79251 15.0003 9.84721 14.9128C9.90191 14.8252 9.93096 14.7241 9.93103 14.6208V1.37944C9.93105 1.27608 9.90203 1.17479 9.84728 1.08712C9.79253 0.999455 9.71426 0.928927 9.62138 0.883578ZM3.86207 10.207H1.10345V5.79323H3.86207V10.207ZM12.5517 6.17668C12.9955 6.68046 13.2403 7.32877 13.2403 8.00013C13.2403 8.67149 12.9955 9.3198 12.5517 9.82358C12.4542 9.93068 12.3186 9.99517 12.174 10.0031C12.0294 10.0111 11.8874 9.96185 11.7788 9.86607C11.6702 9.7703 11.6036 9.63565 11.5933 9.49119C11.5831 9.34674 11.6301 9.20405 11.7241 9.09392C11.9902 8.79169 12.137 8.40282 12.137 8.00013C12.137 7.59744 11.9902 7.20857 11.7241 6.90634C11.6301 6.79621 11.5831 6.65352 11.5933 6.50906C11.6036 6.36461 11.6702 6.22996 11.7788 6.13419C11.8874 6.03841 12.0294 5.98919 12.174 5.99714C12.3186 6.00509 12.4542 6.06958 12.5517 6.17668ZM16 8.00013C16.0008 9.35751 15.5005 10.6674 14.5952 11.6787C14.4969 11.7851 14.3607 11.8485 14.2161 11.8554C14.0714 11.8622 13.9299 11.8119 13.822 11.7154C13.7141 11.6188 13.6485 11.4837 13.6394 11.3391C13.6302 11.1946 13.6782 11.0523 13.7731 10.9429C14.4968 10.1337 14.8969 9.08611 14.8969 8.00047C14.8969 6.91483 14.4968 5.86727 13.7731 5.05806C13.7234 5.00431 13.6849 4.94121 13.6599 4.87244C13.6348 4.80367 13.6237 4.7306 13.6272 4.65749C13.6306 4.58438 13.6486 4.51269 13.6801 4.4466C13.7115 4.3805 13.7558 4.32132 13.8103 4.27251C13.8648 4.22369 13.9285 4.18621 13.9977 4.16226C14.0669 4.1383 14.1401 4.12835 14.2131 4.13297C14.2862 4.1376 14.3576 4.15671 14.4232 4.1892C14.4888 4.22168 14.5472 4.26689 14.5952 4.3222C15.5008 5.33311 16.0011 6.6429 16 8.00013Z"/>
</svg>
