<svg fill="currentColor" width="16" height="16" viewBox="0 0 16 16" xmlns="http://www.w3.org/2000/svg">
<path d="M15.7714 12.5776L9.52528 1.73028C9.36919 1.46453 9.14637 1.24418 8.87889 1.09107C8.61141 0.937966 8.30856 0.857422 8.00036 0.857422C7.69216 0.857422 7.38931 0.937966 7.12182 1.09107C6.85434 1.24418 6.63152 1.46453 6.47543 1.73028L0.229326 12.5776C0.079145 12.8346 0 13.127 0 13.4247C0 13.7224 0.079145 14.0147 0.229326 14.2718C0.383411 14.5391 0.605857 14.7607 0.873837 14.9137C1.14182 15.0667 1.44568 15.1457 1.75425 15.1425H14.2465C14.5548 15.1454 14.8584 15.0663 15.1261 14.9133C15.3938 14.7603 15.616 14.5389 15.77 14.2718C15.9204 14.0149 15.9997 13.7226 16 13.4249C16.0002 13.1272 15.9214 12.8348 15.7714 12.5776ZM7.42896 6.57146C7.42896 6.41992 7.48916 6.27458 7.59632 6.16742C7.70347 6.06026 7.84881 6.00006 8.00036 6.00006C8.1519 6.00006 8.29724 6.06026 8.4044 6.16742C8.51155 6.27458 8.57176 6.41992 8.57176 6.57146V9.42846C8.57176 9.58 8.51155 9.72534 8.4044 9.8325C8.29724 9.93966 8.1519 9.99986 8.00036 9.99986C7.84881 9.99986 7.70347 9.93966 7.59632 9.8325C7.48916 9.72534 7.42896 9.58 7.42896 9.42846V6.57146ZM8.00036 12.8569C7.83084 12.8569 7.66513 12.8066 7.52418 12.7124C7.38323 12.6182 7.27337 12.4844 7.2085 12.3278C7.14363 12.1711 7.12665 11.9988 7.15973 11.8325C7.1928 11.6663 7.27443 11.5136 7.3943 11.3937C7.51416 11.2738 7.66688 11.1922 7.83314 11.1591C7.9994 11.1261 8.17174 11.143 8.32835 11.2079C8.48497 11.2728 8.61883 11.3826 8.71301 11.5236C8.80719 11.6645 8.85746 11.8302 8.85746 11.9998C8.85746 12.2271 8.76715 12.4451 8.60642 12.6058C8.44568 12.7666 8.22767 12.8569 8.00036 12.8569Z"/>
</svg>
