<svg fill="currentColor" width="16" height="16" viewBox="0 0 16 16" xmlns="http://www.w3.org/2000/svg">
<path d="M15.3525 9.13707C15.1781 9.00269 14.9782 8.9052 14.765 8.85054C14.5517 8.79588 14.3296 8.78519 14.1121 8.81913C15.3639 7.55536 15.9971 6.29893 15.9971 5.06715C15.9971 3.30281 14.578 1.86774 12.8336 1.86774C12.3708 1.86483 11.9129 1.96327 11.4922 2.15614C11.0714 2.34902 10.698 2.63165 10.3981 2.9842C10.0982 2.63165 9.72476 2.34902 9.30401 2.15614C8.88325 1.96327 8.42538 1.86483 7.96254 1.86774C6.21819 1.86774 4.79912 3.30281 4.79912 5.06715C4.79912 5.80035 5.01508 6.51289 5.46966 7.26675C5.09736 7.36107 4.75759 7.55457 4.48651 7.82665L2.97879 9.33304H1.06647C0.783625 9.33304 0.512364 9.4454 0.312362 9.6454C0.11236 9.8454 0 10.1167 0 10.3995L0 13.0657C0 13.3485 0.11236 13.6198 0.312362 13.8198C0.512364 14.0198 0.783625 14.1322 1.06647 14.1322H7.99853C8.04213 14.1322 8.08557 14.1268 8.12784 14.1162L12.3937 13.0497C12.4209 13.0432 12.4475 13.0343 12.473 13.023L15.0639 11.9206L15.0932 11.9072C15.3422 11.7828 15.5555 11.597 15.7128 11.3674C15.8702 11.1378 15.9665 10.8719 15.9927 10.5948C16.0189 10.3177 15.9741 10.0385 15.8626 9.78344C15.7511 9.52841 15.5764 9.30597 15.3552 9.13707H15.3525ZM14.626 10.9467L12.0931 12.0252L7.93188 13.0657H3.73265V10.0869L5.24104 8.57917C5.33971 8.47971 5.45717 8.40086 5.58659 8.34719C5.716 8.29352 5.8548 8.26612 5.9949 8.26657H9.33162C9.54376 8.26657 9.7472 8.35084 9.8972 8.50084C10.0472 8.65084 10.1315 8.85428 10.1315 9.06642C10.1315 9.27855 10.0472 9.482 9.8972 9.632C9.7472 9.782 9.54376 9.86627 9.33162 9.86627H7.4653C7.32388 9.86627 7.18825 9.92245 7.08824 10.0225C6.98824 10.1225 6.93206 10.2581 6.93206 10.3995C6.93206 10.5409 6.98824 10.6766 7.08824 10.7766C7.18825 10.8766 7.32388 10.9327 7.4653 10.9327H9.59824C9.63838 10.9326 9.67838 10.9282 9.71755 10.9194L14.1834 9.89227L14.2041 9.88694C14.3404 9.84909 14.4859 9.863 14.6126 9.92598C14.7393 9.98897 14.8382 10.0966 14.8903 10.2281C14.9424 10.3597 14.9441 10.5058 14.8949 10.6385C14.8457 10.7711 14.7492 10.8809 14.624 10.9467H14.626Z"/>
</svg>
