<svg fill="currentColor" width="16" height="16" viewBox="0 0 16 16" xmlns="http://www.w3.org/2000/svg">
<path d="M10.1817 5.09112V0.727793C10.1815 0.58388 10.2241 0.443168 10.304 0.323472C10.3839 0.203776 10.4976 0.110477 10.6305 0.0553887C10.7635 0.000299974 10.9098 -0.0141024 11.0509 0.014005C11.1921 0.0421124 11.3217 0.111466 11.4234 0.213285L15.7867 4.57661C15.8885 4.67831 15.9579 4.80794 15.986 4.94909C16.0141 5.09023 15.9997 5.23654 15.9446 5.36949C15.8895 5.50244 15.7962 5.61606 15.6765 5.69596C15.5568 5.77586 15.4161 5.81845 15.2722 5.81834H10.9089C10.716 5.81834 10.531 5.74172 10.3947 5.60534C10.2583 5.46896 10.1817 5.28399 10.1817 5.09112ZM5.09112 10.1817H0.727793C0.58388 10.1815 0.443168 10.2241 0.323472 10.304C0.203776 10.3839 0.110477 10.4976 0.0553887 10.6305C0.000299974 10.7635 -0.0141024 10.9098 0.014005 11.0509C0.0421124 11.1921 0.111466 11.3217 0.213285 11.4234L4.57661 15.7867C4.67831 15.8885 4.80794 15.9579 4.94909 15.986C5.09023 16.0141 5.23654 15.9997 5.36949 15.9446C5.50244 15.8895 5.61606 15.7962 5.69596 15.6765C5.77586 15.5568 5.81845 15.4161 5.81834 15.2722V10.9089C5.81834 10.716 5.74172 10.531 5.60534 10.3947C5.46896 10.2583 5.28399 10.1817 5.09112 10.1817ZM5.36928 0.0560233C5.23641 0.000901277 5.09019 -0.0135792 4.94909 0.0144135C4.80799 0.0424062 4.67837 0.111614 4.57661 0.213285L0.213285 4.57661C0.111466 4.67831 0.0421124 4.80794 0.014005 4.94909C-0.0141024 5.09023 0.000299974 5.23654 0.0553887 5.36949C0.110477 5.50244 0.203776 5.61606 0.323472 5.69596C0.443168 5.77586 0.58388 5.81845 0.727793 5.81834H5.09112C5.28399 5.81834 5.46896 5.74172 5.60534 5.60534C5.74172 5.46896 5.81834 5.28399 5.81834 5.09112V0.727793C5.81831 0.583964 5.77563 0.443372 5.6957 0.323798C5.61577 0.204224 5.50217 0.111038 5.36928 0.0560233ZM15.2722 10.1817H10.9089C10.716 10.1817 10.531 10.2583 10.3947 10.3947C10.2583 10.531 10.1817 10.716 10.1817 10.9089V15.2722C10.1815 15.4161 10.2241 15.5568 10.304 15.6765C10.3839 15.7962 10.4976 15.8895 10.6305 15.9446C10.7635 15.9997 10.9098 16.0141 11.0509 15.986C11.1921 15.9579 11.3217 15.8885 11.4234 15.7867L15.7867 11.4234C15.8885 11.3217 15.9579 11.1921 15.986 11.0509C16.0141 10.9098 15.9997 10.7635 15.9446 10.6305C15.8895 10.4976 15.7962 10.3839 15.6765 10.304C15.5568 10.2241 15.4161 10.1815 15.2722 10.1817Z"/>
</svg>
