<svg fill="currentColor" width="16" height="16" viewBox="0 0 16 16" xmlns="http://www.w3.org/2000/svg">
<path d="M14.7692 1.23071H1.23077C0.904349 1.23071 0.591298 1.36038 0.360484 1.5912C0.12967 1.82201 0 2.13506 0 2.46148V13.5384C0 13.8648 0.12967 14.1779 0.360484 14.4087C0.591298 14.6395 0.904349 14.7692 1.23077 14.7692H14.7692C15.0957 14.7692 15.4087 14.6395 15.6395 14.4087C15.8703 14.1779 16 13.8648 16 13.5384V2.46148C16 2.13506 15.8703 1.82201 15.6395 1.5912C15.4087 1.36038 15.0957 1.23071 14.7692 1.23071ZM4.92308 12.923H2.46154C2.29833 12.923 2.1418 12.8582 2.0264 12.7428C1.91099 12.6274 1.84615 12.4708 1.84615 12.3076V9.8461C1.84615 9.68289 1.91099 9.52636 2.0264 9.41095C2.1418 9.29555 2.29833 9.23071 2.46154 9.23071C2.62475 9.23071 2.78127 9.29555 2.89668 9.41095C3.01209 9.52636 3.07692 9.68289 3.07692 9.8461V11.6923H4.92308C5.08629 11.6923 5.24281 11.7571 5.35822 11.8725C5.47363 11.9879 5.53846 12.1444 5.53846 12.3076C5.53846 12.4708 5.47363 12.6274 5.35822 12.7428C5.24281 12.8582 5.08629 12.923 4.92308 12.923ZM14.1538 6.15379C14.1538 6.317 14.089 6.47353 13.9736 6.58893C13.8582 6.70434 13.7017 6.76917 13.5385 6.76917C13.3753 6.76917 13.2187 6.70434 13.1033 6.58893C12.9879 6.47353 12.9231 6.317 12.9231 6.15379V4.30764H11.0769C10.9137 4.30764 10.7572 4.2428 10.6418 4.12739C10.5264 4.01199 10.4615 3.85546 10.4615 3.69225C10.4615 3.52904 10.5264 3.37252 10.6418 3.25711C10.7572 3.1417 10.9137 3.07687 11.0769 3.07687H13.5385C13.7017 3.07687 13.8582 3.1417 13.9736 3.25711C14.089 3.37252 14.1538 3.52904 14.1538 3.69225V6.15379Z"/>
</svg>
