<svg fill="currentColor" width="16" height="17" viewBox="0 0 16 17" xmlns="http://www.w3.org/2000/svg">
<path d="M15.82 14.9553L11.9759 11.1113C13.0923 9.77241 13.6495 8.05469 13.5316 6.31546C13.4137 4.57624 12.6298 2.94942 11.343 1.77344C10.0562 0.597464 8.36552 -0.0371289 6.62274 0.00168068C4.87995 0.0404903 3.21923 0.749714 1.98604 1.98181C0.752858 3.2139 0.0421666 4.874 0.00181674 6.61675C-0.0385331 8.3595 0.594565 10.0507 1.76941 11.3386C2.94425 12.6264 4.57037 13.4117 6.30949 13.5312C8.04861 13.6506 9.76682 13.0949 11.1067 11.9798L14.9507 15.8246C15.0078 15.8816 15.0756 15.9269 15.1501 15.9578C15.2247 15.9887 15.3046 16.0046 15.3853 16.0046C15.4661 16.0046 15.546 15.9887 15.6206 15.9578C15.6951 15.9269 15.7629 15.8816 15.82 15.8246C15.877 15.7675 15.9223 15.6997 15.9532 15.6252C15.9841 15.5506 16 15.4707 16 15.3899C16 15.3092 15.9841 15.2293 15.9532 15.1547C15.9223 15.0802 15.877 15.0124 15.82 14.9553ZM9.24225 7.40391H7.39932V9.24685C7.39932 9.40977 7.33459 9.56602 7.21939 9.68123C7.10418 9.79643 6.94793 9.86116 6.78501 9.86116C6.62208 9.86116 6.46583 9.79643 6.35062 9.68123C6.23542 9.56602 6.1707 9.40977 6.1707 9.24685V7.40391H4.32777C4.16484 7.40391 4.00859 7.33919 3.89338 7.22399C3.77818 7.10878 3.71346 6.95253 3.71346 6.7896C3.71346 6.62668 3.77818 6.47043 3.89338 6.35522C4.00859 6.24002 4.16484 6.17529 4.32777 6.17529H6.1707V4.33236C6.1707 4.16944 6.23542 4.01319 6.35062 3.89798C6.46583 3.78278 6.62208 3.71805 6.78501 3.71805C6.94793 3.71805 7.10418 3.78278 7.21939 3.89798C7.33459 4.01319 7.39932 4.16944 7.39932 4.33236V6.17529H9.24225C9.40517 6.17529 9.56142 6.24002 9.67663 6.35522C9.79183 6.47043 9.85656 6.62668 9.85656 6.7896C9.85656 6.95253 9.79183 7.10878 9.67663 7.22399C9.56142 7.33919 9.40517 7.40391 9.24225 7.40391Z"/>
</svg>
