<svg width="223" height="114" viewBox="0 0 223 114" fill="none" xmlns="http://www.w3.org/2000/svg">
<path d="M211.608 7.1989C215.419 10.6716 218.502 15.7312 218.928 20.9651C219.193 31.1368 218.097 39.3454 210.826 47.0476C205.863 52.139 205.863 52.139 203.053 54.108C203.55 54.4428 204.048 54.7776 204.56 55.1226C212.641 60.6565 219.171 66.5275 221.892 76.2927C223.278 84.5785 222.335 93.7372 217.702 100.872C212.277 108.134 204.741 112.241 195.843 113.652C185.875 114.637 175.951 113.801 167.694 107.591C162.169 102.866 158.572 97.3608 157.851 89.9812C157.249 80.3163 159.205 72.4032 165.374 64.7778C168.879 60.9289 173.377 58.0861 177.699 55.2348C177.31 55.0024 176.922 54.77 176.521 54.5306C168.618 49.6739 162.756 44.1215 160.233 34.9517C158.769 27.5823 159.357 19.5035 163.371 13.007C168.043 6.30628 174.396 2.50335 182.343 0.741582C192.786 -1.05821 203.175 0.471224 211.608 7.1989ZM175.445 18.0491C172.336 22.166 172.217 26.5791 172.628 31.5712C173.618 35.4933 176.021 38.3328 178.826 41.1493C179.094 41.4311 179.363 41.7129 179.64 42.0033C183.301 45.4914 188.68 48.566 193.475 50.1641C199.206 46.6888 203.703 40.034 205.87 33.8249C207.019 29.0582 206.806 24.2246 204.743 19.7394C202.326 15.9987 198.898 13.4201 194.645 12.0716C187.363 10.7027 180.677 12.8502 175.445 18.0491ZM177.84 67.1723C173.893 71.2754 170.999 76.5752 170.374 82.279C170.305 82.8833 170.235 83.4875 170.163 84.1101C170.684 89.3147 172.142 93.7835 175.844 97.5618C181.43 102.13 187.679 102.549 194.601 101.999C199.407 101.059 203.932 98.5457 206.79 94.4982C209.507 89.7772 209.938 84.825 209.25 79.4619C206.988 71.9422 201.146 67.4515 194.601 63.6861C193.754 63.1937 193.754 63.1937 192.889 62.6914C186.17 58.8973 183.175 62.2224 177.84 67.1723Z" fill="#0357A3"/>
<path d="M119.249 39.9585C119.948 39.9586 120.647 39.9586 121.368 39.9587C122.125 39.9616 122.882 39.9645 123.639 39.9675C124.418 39.9685 125.198 39.9693 125.977 39.9699C128.021 39.972 130.065 39.9776 132.109 39.9838C134.198 39.9896 136.286 39.9922 138.375 39.995C142.468 40.001 146.561 40.0109 150.655 40.0225C150.655 42.2537 150.655 44.4848 150.655 46.7835C149.15 46.7959 149.15 46.7959 147.614 46.8084C144.288 46.8376 140.962 46.8744 137.636 46.9164C135.621 46.9415 133.606 46.9636 131.59 46.9787C129.643 46.9935 127.696 47.0163 125.749 47.0445C124.649 47.0584 123.55 47.0641 122.451 47.0696C117.364 47.0139 117.364 47.0139 112.906 49.0372C112.162 51.0824 111.418 53.1277 110.652 55.2348C123.853 55.2348 137.054 55.2348 150.655 55.2348C150.655 57.466 150.655 59.6971 150.655 61.9959C137.64 61.9959 124.625 61.9959 111.215 61.9959C111.838 66.7261 111.838 66.7261 113.598 68.4912C115.447 69.473 116.648 69.6112 118.737 69.6279C119.803 69.6446 119.803 69.6446 120.89 69.6616C121.66 69.6625 122.429 69.6632 123.199 69.6637C123.991 69.6721 124.783 69.6815 125.574 69.6919C127.652 69.7165 129.729 69.7278 131.807 69.7363C133.93 69.7473 136.052 69.771 138.175 69.7935C142.335 69.8359 146.495 69.8631 150.655 69.8838C150.655 72.1149 150.655 74.346 150.655 76.6448C145.884 76.6959 141.114 76.7371 136.343 76.7616C134.127 76.7733 131.912 76.7892 129.697 76.8148C127.556 76.8394 125.415 76.8528 123.274 76.8586C122.46 76.8628 121.646 76.8709 120.832 76.8831C115.74 76.9565 111.98 76.7751 107.841 73.5064C104.062 69.0695 103.612 63.9416 103.68 58.2984C103.673 57.7483 103.667 57.1981 103.66 56.6313C103.681 51.2223 104.739 47.1864 108.493 43.2116C111.652 40.3489 115.15 39.9502 119.249 39.9585Z" fill="#0357A3"/>
<path d="M15.5799 39.9585C16.2791 39.9586 16.9782 39.9586 17.6986 39.9587C18.4557 39.9616 19.2128 39.9645 19.9699 39.9675C20.7491 39.9685 21.5283 39.9693 22.3074 39.9699C24.3516 39.972 26.3958 39.9776 28.44 39.9838C30.5286 39.9896 32.6172 39.9922 34.7058 39.995C38.799 40.001 42.8922 40.0109 46.9855 40.0225C46.9855 42.2537 46.9855 44.4848 46.9855 46.7835C45.4804 46.7959 45.4804 46.7959 43.9449 46.8084C40.6188 46.8376 37.2928 46.8744 33.9669 46.9164C31.9516 46.9415 29.9363 46.9636 27.921 46.9787C25.9737 46.9935 24.0267 47.0163 22.0795 47.0445C20.9802 47.0584 19.8807 47.0641 18.7813 47.0696C13.7743 47.1509 13.7743 47.1509 9.23635 49.0372C7.30193 52.1284 7.28701 55.0741 7.33481 58.6506C7.32827 59.1419 7.32173 59.6332 7.315 60.1395C7.32819 63.0441 7.56735 65.1492 9.23635 67.6301C11.0993 69.4012 12.4726 69.5386 15.0042 69.564C15.7147 69.5751 16.4252 69.5863 17.1572 69.5977C17.9297 69.6016 18.7022 69.6052 19.4747 69.6087C20.2673 69.6181 21.0599 69.6284 21.8525 69.6393C23.9347 69.666 26.0168 69.6829 28.0991 69.6976C30.2255 69.7144 32.3517 69.7406 34.478 69.766C38.6471 69.8145 42.8162 69.8516 46.9855 69.8838C46.9855 72.1149 46.9855 74.346 46.9855 76.6448C42.2149 76.6959 37.4445 76.7371 32.6738 76.7616C30.4582 76.7733 28.2427 76.7892 26.0273 76.8148C23.8865 76.8394 21.7459 76.8528 19.605 76.8586C18.7909 76.8628 17.9769 76.8709 17.163 76.8831C12.0711 76.9565 8.31091 76.7751 4.17217 73.5064C0.393054 69.0695 -0.0569665 63.9416 0.0103473 58.2984C0.00381073 57.7483 -0.00272582 57.1981 -0.00946045 56.6313C0.0122477 51.2223 1.07001 47.1864 4.82363 43.2116C7.98261 40.3489 11.4807 39.9502 15.5799 39.9585Z" fill="#0357A3"/>
<path d="M67.978 39.9585C68.6771 39.9586 69.3763 39.9586 70.0966 39.9587C70.8537 39.9616 71.6109 39.9645 72.368 39.9675C73.1471 39.9685 73.9263 39.9693 74.7055 39.9699C76.7497 39.972 78.7939 39.9776 80.8381 39.9838C82.9267 39.9896 85.0153 39.9922 87.1038 39.995C91.1971 40.001 95.2903 40.0109 99.3835 40.0225C99.3835 42.2537 99.3835 44.4848 99.3835 46.7835C97.8784 46.7959 97.8784 46.7959 96.3429 46.8084C93.0168 46.8376 89.6909 46.8744 86.3649 46.9164C84.3496 46.9415 82.3344 46.9636 80.319 46.9787C78.3717 46.9935 76.4247 47.0163 74.4776 47.0445C73.3782 47.0584 72.2788 47.0641 71.1793 47.0696C66.1355 47.0787 66.1355 47.0787 61.6344 49.0372C59.7356 52.097 59.6814 55.0083 59.6558 58.5427C59.6457 59.0624 59.6356 59.5821 59.6252 60.1175C59.5948 61.7648 59.5756 63.412 59.5568 65.0595C59.5381 66.1816 59.5186 67.3036 59.4985 68.4257C59.4508 71.1653 59.4131 73.9049 59.3807 76.6448C57.1496 76.6448 54.9184 76.6448 52.6197 76.6448C52.5777 73.2071 52.5471 69.7696 52.5268 66.3317C52.5184 65.1639 52.5069 63.9962 52.4922 62.8285C52.4715 61.1431 52.462 59.4579 52.4546 57.7724C52.4459 57.2563 52.4372 56.7403 52.4282 56.2085C52.4268 50.9952 53.6163 47.0295 57.2217 43.2116C60.3807 40.3489 63.8787 39.9502 67.978 39.9585Z" fill="#0357A3"/>
</svg>
