<svg width="16" height="16" viewBox="0 0 16 16" fill="none" xmlns="http://www.w3.org/2000/svg">
<g clip-path="url(#clip0_4403_6)">
<path opacity="0.2" d="M16 8C16 9.58225 15.5308 11.129 14.6518 12.4446C13.7727 13.7602 12.5233 14.7855 11.0615 15.391C9.59966 15.9965 7.99113 16.155 6.43928 15.8463C4.88743 15.5376 3.46197 14.7757 2.34315 13.6569C1.22433 12.538 0.462403 11.1126 0.153721 9.56072C-0.15496 8.00887 0.00346625 6.40034 0.608967 4.93853C1.21447 3.47672 2.23985 2.22729 3.55544 1.34824C4.87103 0.469192 6.41775 0 8 0C10.1217 0 12.1566 0.842855 13.6569 2.34315C15.1571 3.84344 16 5.87827 16 8Z" fill="black"/>
<path d="M8 0C6.41775 0 4.87103 0.469192 3.55544 1.34824C2.23985 2.22729 1.21447 3.47672 0.608967 4.93853C0.00346625 6.40034 -0.15496 8.00887 0.153721 9.56072C0.462403 11.1126 1.22433 12.538 2.34315 13.6569C3.46197 14.7757 4.88743 15.5376 6.43928 15.8463C7.99113 16.155 9.59966 15.9965 11.0615 15.391C12.5233 14.7855 13.7727 13.7602 14.6518 12.4446C15.5308 11.129 16 9.58225 16 8C15.9978 5.87895 15.1542 3.84542 13.6544 2.34562C12.1546 0.845814 10.121 0.00223986 8 0ZM8 14.7692C6.66118 14.7692 5.35241 14.3722 4.23922 13.6284C3.12603 12.8846 2.2584 11.8274 1.74605 10.5905C1.2337 9.35356 1.09965 7.99249 1.36084 6.67939C1.62203 5.36629 2.26674 4.16012 3.21343 3.21343C4.16013 2.26674 5.36629 1.62203 6.67939 1.36084C7.99249 1.09965 9.35356 1.2337 10.5905 1.74605C11.8274 2.25839 12.8846 3.12602 13.6284 4.23922C14.3722 5.35241 14.7692 6.66117 14.7692 8C14.7672 9.79469 14.0534 11.5153 12.7843 12.7843C11.5153 14.0534 9.79469 14.7672 8 14.7692Z" fill="black"/>
<path d="M11.6459 6.53359C11.6149 6.45889 11.5695 6.39102 11.5123 6.33387C11.4552 6.27665 11.3873 6.23126 11.3126 6.20029C11.2379 6.16932 11.1578 6.15338 11.0769 6.15338C10.9961 6.15338 10.916 6.16932 10.8413 6.20029C10.7666 6.23126 10.6987 6.27665 10.6416 6.33387L8.00002 8.97617L5.35848 6.33387C5.24301 6.21839 5.0864 6.15352 4.9231 6.15352C4.7598 6.15352 4.60319 6.21839 4.48771 6.33387C4.37224 6.44934 4.30737 6.60595 4.30737 6.76925C4.30737 6.93255 4.37224 7.08916 4.48771 7.20463L7.56464 10.2816C7.62179 10.3388 7.68966 10.3842 7.76437 10.4151C7.83907 10.4461 7.91915 10.462 8.00002 10.462C8.08089 10.462 8.16097 10.4461 8.23568 10.4151C8.31038 10.3842 8.37825 10.3388 8.43541 10.2816L11.5123 7.20463C11.5695 7.14748 11.6149 7.07961 11.6459 7.00491C11.6769 6.9302 11.6928 6.85012 11.6928 6.76925C11.6928 6.68838 11.6769 6.6083 11.6459 6.53359Z" fill="black"/>
</g>
<defs>
<clipPath id="clip0_4403_6">
<rect width="16" height="16" fill="white"/>
</clipPath>
</defs>
</svg>
