<svg width="16" height="16" viewBox="0 0 16 16" fill="none" xmlns="http://www.w3.org/2000/svg">
<g clip-path="url(#clip0_4403_7)">
<path opacity="0.2" d="M16 8C16 9.58225 15.5308 11.129 14.6518 12.4446C13.7727 13.7602 12.5233 14.7855 11.0615 15.391C9.59966 15.9965 7.99113 16.155 6.43928 15.8463C4.88743 15.5376 3.46197 14.7757 2.34315 13.6569C1.22433 12.538 0.462403 11.1126 0.153721 9.56072C-0.15496 8.00887 0.00346629 6.40034 0.608967 4.93853C1.21447 3.47672 2.23985 2.22729 3.55544 1.34824C4.87103 0.469192 6.41775 0 8 0C10.1217 0 12.1566 0.842855 13.6569 2.34315C15.1571 3.84344 16 5.87827 16 8Z" fill="black"/>
<path d="M7.93061 0C6.34836 0 4.80164 0.469192 3.48604 1.34824C2.17045 2.22729 1.14507 3.47672 0.53957 4.93853C-0.0659307 6.40034 -0.224357 8.00887 0.0843244 9.56072C0.393006 11.1126 1.15493 12.538 2.27375 13.6569C3.39257 14.7757 4.81804 15.5376 6.36988 15.8463C7.92173 16.155 9.53026 15.9965 10.9921 15.391C12.4539 14.7855 13.7033 13.7602 14.5824 12.4446C15.4614 11.129 15.9306 9.58225 15.9306 8C15.9284 5.87895 15.0848 3.84542 13.585 2.34562C12.0852 0.845814 10.0517 0.00223986 7.93061 0ZM7.93061 14.7692C6.59178 14.7692 5.28302 14.3722 4.16982 13.6284C3.05663 12.8846 2.189 11.8274 1.67665 10.5905C1.16431 9.35356 1.03025 7.99249 1.29144 6.67939C1.55264 5.36629 2.19734 4.16012 3.14404 3.21343C4.09073 2.26674 5.29689 1.62203 6.60999 1.36084C7.9231 1.09965 9.28416 1.2337 10.5211 1.74605C11.758 2.25839 12.8152 3.12602 13.559 4.23922C14.3028 5.35241 14.6998 6.66117 14.6998 8C14.6978 9.79469 13.984 11.5153 12.7149 12.7843C11.4459 14.0534 9.72529 14.7672 7.93061 14.7692Z" fill="black"/>
<path d="M11.5764 8.99513C11.5455 8.92042 11.5001 8.85255 11.4429 8.79537L8.36601 5.71845C8.30886 5.66123 8.24099 5.61584 8.16628 5.58487C8.09157 5.5539 8.0115 5.53796 7.93063 5.53796C7.84975 5.53796 7.76968 5.5539 7.69497 5.58487C7.62026 5.61584 7.55239 5.66123 7.49524 5.71845L4.41832 8.79537C4.36114 8.85255 4.31579 8.92042 4.28485 8.99513C4.2539 9.06983 4.23798 9.1499 4.23798 9.23076C4.23798 9.31161 4.2539 9.39168 4.28485 9.46638C4.31579 9.54109 4.36114 9.60896 4.41832 9.66614C4.47549 9.72332 4.54337 9.76867 4.61807 9.79961C4.69278 9.83056 4.77284 9.84648 4.8537 9.84648C4.93456 9.84648 5.01463 9.83056 5.08933 9.79961C5.16403 9.76867 5.23191 9.72332 5.28909 9.66614L7.93063 7.02383L10.5722 9.66614C10.6293 9.72332 10.6972 9.76867 10.7719 9.79961C10.8466 9.83056 10.9267 9.84648 11.0075 9.84648C11.0884 9.84648 11.1685 9.83056 11.2432 9.79961C11.3179 9.76867 11.3858 9.72332 11.4429 9.66614C11.5001 9.60896 11.5455 9.54109 11.5764 9.46638C11.6073 9.39168 11.6233 9.31161 11.6233 9.23076C11.6233 9.1499 11.6073 9.06983 11.5764 8.99513Z" fill="black"/>
</g>
<defs>
<clipPath id="clip0_4403_7">
<rect width="16" height="16" fill="white"/>
</clipPath>
</defs>
</svg>
