<svg fill="currentColor" width="16" height="16" viewBox="0 0 16 16" xmlns="http://www.w3.org/2000/svg">
<path d="M15.6003 7.31415L12.381 10.1237L13.3453 14.3066C13.3964 14.5253 13.3818 14.7541 13.3035 14.9646C13.2251 15.175 13.0865 15.3577 12.9049 15.4898C12.7233 15.6219 12.5068 15.6975 12.2825 15.7072C12.0582 15.7169 11.8359 15.6602 11.6436 15.5443L7.99536 13.3315L4.35495 15.5443C4.16263 15.6602 3.94041 15.7169 3.71607 15.7072C3.49174 15.6975 3.27524 15.6219 3.09365 15.4898C2.91206 15.3577 2.77343 15.175 2.6951 14.9646C2.61676 14.7541 2.6022 14.5253 2.65323 14.3066L3.61616 10.128L0.396178 7.31415C0.22587 7.16727 0.10272 6.97337 0.0421704 6.75678C-0.0183792 6.54018 -0.0136323 6.31053 0.0558155 6.09662C0.125263 5.88271 0.256321 5.69407 0.432553 5.55435C0.608785 5.41463 0.822346 5.33005 1.04646 5.31121L5.29075 4.9436L6.94749 0.991972C7.03401 0.784622 7.17994 0.607507 7.36692 0.482926C7.55389 0.358346 7.77354 0.29187 7.99822 0.29187C8.22289 0.29187 8.44254 0.358346 8.62952 0.482926C8.81649 0.607507 8.96242 0.784622 9.04894 0.991972L10.7107 4.9436L14.9535 5.31121C15.1777 5.33005 15.3912 5.41463 15.5674 5.55435C15.7437 5.69407 15.8747 5.88271 15.9442 6.09662C16.0136 6.31053 16.0184 6.54018 15.9578 6.75678C15.8973 6.97337 15.7741 7.16727 15.6038 7.31415H15.6003Z"/>
</svg>
