<svg fill="currentColor" width="16" height="16" viewBox="0 0 16 16" xmlns="http://www.w3.org/2000/svg">
<path d="M8.81945 10.5927C9.68322 10.0547 10.3483 9.25004 10.714 8.30042C11.0797 7.3508 11.1262 6.3079 10.8464 5.3295C10.5667 4.3511 9.97584 3.49044 9.16337 2.87773C8.35089 2.26502 7.36096 1.93359 6.34335 1.93359C5.32573 1.93359 4.33581 2.26502 3.52333 2.87773C2.71085 3.49044 2.12003 4.3511 1.84026 5.3295C1.56048 6.3079 1.60697 7.3508 1.9727 8.30042C2.33842 9.25004 3.00348 10.0547 3.86725 10.5927C2.44496 11.0583 1.16524 11.9282 0.136227 13.1528C0.0880142 13.208 0.0512761 13.2722 0.0281612 13.3417C0.00504636 13.4112 -0.00398146 13.4846 0.00160559 13.5576C0.00719265 13.6306 0.0272825 13.7018 0.0607005 13.767C0.0941185 13.8321 0.140194 13.89 0.196233 13.9372C0.252272 13.9843 0.31715 14.0198 0.387074 14.0416C0.456998 14.0634 0.530565 14.071 0.603473 14.0641C0.67638 14.0571 0.747166 14.0356 0.811692 14.001C0.876218 13.9663 0.933188 13.9192 0.979272 13.8623C2.3623 12.212 4.26742 11.3035 6.3399 11.3035C8.41239 11.3035 10.3175 12.212 11.7033 13.8623C11.7974 13.9742 11.9321 14.0443 12.0778 14.0569C12.2235 14.0696 12.3682 14.0238 12.4802 13.9298C12.5922 13.8357 12.6622 13.701 12.6749 13.5553C12.6875 13.4096 12.6418 13.2648 12.5477 13.1528C11.518 11.9282 10.2383 11.0583 8.81945 10.5927ZM2.75834 6.61993C2.75834 5.91156 2.9684 5.2191 3.36194 4.63012C3.75549 4.04113 4.31486 3.58208 4.9693 3.311C5.62374 3.03992 6.34388 2.96899 7.03863 3.10719C7.73339 3.24538 8.37156 3.58649 8.87245 4.08738C9.37334 4.58827 9.71445 5.22645 9.85265 5.9212C9.99084 6.61595 9.91991 7.33609 9.64883 7.99053C9.37775 8.64498 8.9187 9.20434 8.32971 9.59789C7.74073 9.99143 7.04827 10.2015 6.3399 10.2015C5.39035 10.2004 4.48 9.8227 3.80857 9.15127C3.13713 8.47983 2.75944 7.56948 2.75834 6.61993ZM15.7243 9.58642L15.4033 9.40115C15.441 9.20179 15.441 8.99715 15.4033 8.79779L15.7243 8.61251C15.8509 8.53945 15.9433 8.41908 15.9811 8.2779C16.0189 8.13672 15.9992 7.98629 15.9261 7.8597C15.853 7.73311 15.7327 7.64073 15.5915 7.60288C15.4503 7.56504 15.2999 7.58482 15.1733 7.65789L14.8516 7.84386C14.6977 7.71179 14.5207 7.60928 14.3295 7.54149V7.17094C14.3295 7.0248 14.2715 6.88465 14.1682 6.78131C14.0648 6.67798 13.9247 6.61993 13.7785 6.61993C13.6324 6.61993 13.4922 6.67798 13.3889 6.78131C13.2856 6.88465 13.2275 7.0248 13.2275 7.17094V7.54149C13.0364 7.60928 12.8594 7.71179 12.7054 7.84386L12.3838 7.65789C12.3211 7.62171 12.2519 7.59823 12.1802 7.58879C12.1084 7.57936 12.0355 7.58414 11.9656 7.60288C11.8957 7.62162 11.8301 7.65395 11.7727 7.69801C11.7153 7.74208 11.6672 7.79702 11.631 7.8597C11.5948 7.92238 11.5713 7.99157 11.5619 8.06333C11.5524 8.13509 11.5572 8.208 11.576 8.2779C11.5947 8.34781 11.627 8.41334 11.6711 8.47075C11.7152 8.52816 11.7701 8.57633 11.8328 8.61251L12.1537 8.79779C12.1161 8.99715 12.1161 9.20179 12.1537 9.40115L11.8328 9.58642C11.7062 9.65949 11.6138 9.77986 11.576 9.92104C11.5381 10.0622 11.5579 10.2127 11.631 10.3392C11.704 10.4658 11.8244 10.5582 11.9656 10.5961C12.1068 10.6339 12.2572 10.6141 12.3838 10.541L12.7054 10.3551C12.8594 10.4871 13.0364 10.5897 13.2275 10.6574V11.028C13.2275 11.1741 13.2856 11.3143 13.3889 11.4176C13.4922 11.521 13.6324 11.579 13.7785 11.579C13.9247 11.579 14.0648 11.521 14.1682 11.4176C14.2715 11.3143 14.3295 11.1741 14.3295 11.028V10.6574C14.5207 10.5897 14.6977 10.4871 14.8516 10.3551L15.1733 10.541C15.2569 10.5896 15.352 10.615 15.4488 10.6147C15.5701 10.6148 15.6881 10.5748 15.7843 10.5009C15.8806 10.4271 15.9498 10.3235 15.9812 10.2063C16.0126 10.0891 16.0045 9.96484 15.958 9.85275C15.9115 9.74066 15.8294 9.64705 15.7243 9.58642ZM13.2275 9.09947C13.2275 8.99049 13.2598 8.88396 13.3204 8.79335C13.3809 8.70273 13.467 8.63211 13.5677 8.5904C13.6684 8.5487 13.7791 8.53779 13.886 8.55905C13.9929 8.58031 14.0911 8.63279 14.1682 8.70985C14.2452 8.78691 14.2977 8.88509 14.319 8.99197C14.3402 9.09886 14.3293 9.20965 14.2876 9.31033C14.2459 9.41102 14.1753 9.49707 14.0847 9.55762C13.994 9.61816 13.8875 9.65048 13.7785 9.65048C13.6324 9.65048 13.4922 9.59243 13.3889 9.48909C13.2856 9.38576 13.2275 9.24561 13.2275 9.09947Z"/>
</svg>
