<svg fill="currentColor" width="16" height="16" viewBox="0 0 16 16" xmlns="http://www.w3.org/2000/svg">
<path d="M8.7746 4.90408C8.7746 4.7672 8.82897 4.63593 8.92576 4.53914C9.02255 4.44236 9.15382 4.38798 9.2907 4.38798H15.4839C15.6208 4.38798 15.7521 4.44236 15.8488 4.53914C15.9456 4.63593 16 4.7672 16 4.90408C16 5.04096 15.9456 5.17223 15.8488 5.26902C15.7521 5.36581 15.6208 5.42018 15.4839 5.42018H9.2907C9.15382 5.42018 9.02255 5.36581 8.92576 5.26902C8.82897 5.17223 8.7746 5.04096 8.7746 4.90408ZM15.4839 7.48458H9.2907C9.15382 7.48458 9.02255 7.53896 8.92576 7.63574C8.82897 7.73253 8.7746 7.8638 8.7746 8.00068C8.7746 8.13756 8.82897 8.26883 8.92576 8.36562C9.02255 8.46241 9.15382 8.51678 9.2907 8.51678H15.4839C15.6208 8.51678 15.7521 8.46241 15.8488 8.36562C15.9456 8.26883 16 8.13756 16 8.00068C16 7.8638 15.9456 7.73253 15.8488 7.63574C15.7521 7.53896 15.6208 7.48458 15.4839 7.48458ZM15.4839 10.5812H10.839C10.7021 10.5812 10.5708 10.6356 10.4741 10.7323C10.3773 10.8291 10.3229 10.9604 10.3229 11.0973C10.3229 11.2342 10.3773 11.3654 10.4741 11.4622C10.5708 11.559 10.7021 11.6134 10.839 11.6134H15.4839C15.6208 11.6134 15.7521 11.559 15.8488 11.4622C15.9456 11.3654 16 11.2342 16 11.0973C16 10.9604 15.9456 10.8291 15.8488 10.7323C15.7521 10.6356 15.6208 10.5812 15.4839 10.5812ZM9.27457 12.0005C9.29144 12.0661 9.29521 12.1345 9.28567 12.2016C9.27612 12.2687 9.25345 12.3333 9.21894 12.3916C9.18444 12.45 9.13877 12.5009 9.08456 12.5416C9.03034 12.5823 8.96864 12.612 8.90298 12.6288C8.86092 12.6401 8.81752 12.6458 8.77395 12.6456C8.65949 12.6456 8.54826 12.6076 8.45775 12.5376C8.36724 12.4675 8.3026 12.3693 8.27398 12.2585C7.87659 10.7141 6.31667 9.54898 4.64515 9.54898C2.97363 9.54898 1.41372 10.7134 1.01633 12.2585C0.982106 12.3911 0.896612 12.5047 0.778652 12.5743C0.660693 12.6438 0.519929 12.6637 0.387328 12.6295C0.254728 12.5952 0.141151 12.5097 0.0715854 12.3918C0.00201941 12.2738 -0.0178381 12.1331 0.0163815 12.0005C0.377006 10.5999 1.42533 9.46576 2.75558 8.90386C2.24337 8.50934 1.8675 7.96439 1.68066 7.34544C1.49383 6.72649 1.50542 6.06459 1.7138 5.45256C1.92218 4.84053 2.3169 4.30907 2.8426 3.93272C3.3683 3.55637 3.99862 3.354 4.64515 3.354C5.29169 3.354 5.922 3.55637 6.44771 3.93272C6.97341 4.30907 7.36813 4.84053 7.57651 5.45256C7.78489 6.06459 7.79647 6.72649 7.60964 7.34544C7.42281 7.96439 7.04693 8.50934 6.53473 8.90386C7.86562 9.46576 8.91395 10.5999 9.27457 12.0005ZM4.6458 8.51678C5.0541 8.51678 5.45323 8.39571 5.79272 8.16887C6.13221 7.94203 6.39681 7.61961 6.55306 7.24239C6.70931 6.86517 6.75019 6.45009 6.67053 6.04964C6.59088 5.64918 6.39426 5.28134 6.10555 4.99263C5.81684 4.70392 5.449 4.5073 5.04854 4.42765C4.64809 4.34799 4.23301 4.38888 3.85579 4.54513C3.47857 4.70137 3.15615 4.96597 2.92931 5.30546C2.70247 5.64495 2.5814 6.04408 2.5814 6.45238C2.5814 6.9999 2.7989 7.52498 3.18605 7.91213C3.5732 8.29928 4.09829 8.51678 4.6458 8.51678Z"/>
</svg>
