<svg fill="currentColor" width="16" height="16" viewBox="0 0 16 16" xmlns="http://www.w3.org/2000/svg">
<path d="M15.9093 14.4497C14.7389 12.4263 12.9352 10.9753 10.8303 10.2875C11.8715 9.66773 12.6804 8.72327 13.1329 7.59922C13.5854 6.47516 13.6563 5.23366 13.3349 4.06537C13.0135 2.89708 12.3174 1.86659 11.3537 1.13217C10.3899 0.397752 9.2117 0 8 0C6.7883 0 5.6101 0.397752 4.64633 1.13217C3.68257 1.86659 2.98653 2.89708 2.6651 4.06537C2.34368 5.23366 2.41464 6.47516 2.8671 7.59922C3.31955 8.72327 4.12848 9.66773 5.16965 10.2875C3.06476 10.9746 1.26112 12.4255 0.0907097 14.4497C0.0477887 14.5197 0.0193195 14.5975 0.00698187 14.6787C-0.00535579 14.7599 -0.00131202 14.8427 0.0188746 14.9223C0.0390612 15.0018 0.0749818 15.0766 0.124517 15.142C0.174052 15.2075 0.236198 15.2624 0.307289 15.3035C0.37838 15.3445 0.456975 15.3709 0.538437 15.3811C0.6199 15.3913 0.702579 15.3851 0.781598 15.3628C0.860616 15.3406 0.934373 15.3027 0.998516 15.2514C1.06266 15.2002 1.11589 15.1366 1.15507 15.0645C2.6029 12.5623 5.16197 11.0683 8 11.0683C10.838 11.0683 13.3971 12.5623 14.8449 15.0645C14.8841 15.1366 14.9373 15.2002 15.0015 15.2514C15.0656 15.3027 15.1394 15.3406 15.2184 15.3628C15.2974 15.3851 15.3801 15.3913 15.4616 15.3811C15.543 15.3709 15.6216 15.3445 15.6927 15.3035C15.7638 15.2624 15.8259 15.2075 15.8755 15.142C15.925 15.0766 15.9609 15.0018 15.9811 14.9223C16.0013 14.8427 16.0054 14.7599 15.993 14.6787C15.9807 14.5975 15.9522 14.5197 15.9093 14.4497ZM3.69646 5.53521C3.69646 4.68405 3.94886 3.85201 4.42174 3.14429C4.89462 2.43658 5.56674 1.88499 6.35311 1.55926C7.13948 1.23354 8.00478 1.14831 8.83958 1.31436C9.67438 1.48042 10.4412 1.89029 11.0431 2.49215C11.6449 3.09401 12.0548 3.86083 12.2208 4.69563C12.3869 5.53044 12.3017 6.39574 11.976 7.18211C11.6502 7.96848 11.0986 8.6406 10.3909 9.11347C9.6832 9.58635 8.85116 9.83875 8 9.83875C6.85901 9.83753 5.76509 9.38373 4.95829 8.57693C4.15148 7.77012 3.69768 6.67621 3.69646 5.53521Z"/>
</svg>
