<svg fill="currentColor" width="16" height="16" viewBox="0 0 16 16" xmlns="http://www.w3.org/2000/svg">
<path d="M15.8045 8.47172L9.80468 14.4715C9.67959 14.5966 9.50993 14.6669 9.33303 14.6669C9.15612 14.6669 8.98647 14.5966 8.86138 14.4715C8.73629 14.3464 8.66601 14.1768 8.66601 13.9999C8.66601 13.823 8.73629 13.6533 8.86138 13.5282L13.7237 8.66672H0.666645C0.48984 8.66672 0.320276 8.59648 0.195256 8.47146C0.0702357 8.34644 0 8.17688 0 8.00007C0 7.82327 0.0702357 7.6537 0.195256 7.52868C0.320276 7.40366 0.48984 7.33343 0.666645 7.33343H13.7237L8.86138 2.47192C8.73629 2.34683 8.66601 2.17717 8.66601 2.00027C8.66601 1.82336 8.73629 1.65371 8.86138 1.52862C8.98647 1.40353 9.15612 1.33325 9.33303 1.33325C9.50993 1.33325 9.67959 1.40353 9.80468 1.52862L15.8045 7.52842C15.8665 7.59033 15.9156 7.66386 15.9492 7.74479C15.9827 7.82572 16 7.91246 16 8.00007C16 8.08768 15.9827 8.17443 15.9492 8.25536C15.9156 8.33629 15.8665 8.40981 15.8045 8.47172Z"/>
</svg>
