<svg fill="currentColor" width="16" height="16" viewBox="0 0 16 16" xmlns="http://www.w3.org/2000/svg">
<path d="M16 8.00007C16 8.17688 15.9298 8.34644 15.8047 8.47146C15.6797 8.59648 15.5102 8.66672 15.3334 8.66672H2.27628L7.13862 13.5282C7.20056 13.5902 7.24969 13.6637 7.28322 13.7446C7.31674 13.8255 7.33399 13.9123 7.33399 13.9999C7.33399 14.0875 7.31674 14.1742 7.28322 14.2551C7.24969 14.3361 7.20056 14.4096 7.13862 14.4715C7.07669 14.5335 7.00315 14.5826 6.92223 14.6161C6.8413 14.6496 6.75457 14.6669 6.66697 14.6669C6.57938 14.6669 6.49264 14.6496 6.41172 14.6161C6.33079 14.5826 6.25726 14.5335 6.19532 14.4715L0.195518 8.47172C0.133536 8.40981 0.0843647 8.33629 0.0508163 8.25536C0.0172679 8.17443 0 8.08768 0 8.00007C0 7.91246 0.0172679 7.82572 0.0508163 7.74479C0.0843647 7.66386 0.133536 7.59033 0.195518 7.52842L6.19532 1.52862C6.32041 1.40353 6.49007 1.33325 6.66697 1.33325C6.84388 1.33325 7.01353 1.40353 7.13862 1.52862C7.26371 1.65371 7.33399 1.82336 7.33399 2.00027C7.33399 2.17717 7.26371 2.34683 7.13862 2.47192L2.27628 7.33343H15.3334C15.5102 7.33343 15.6797 7.40366 15.8047 7.52868C15.9298 7.6537 16 7.82327 16 8.00007Z"/>
</svg>
