<svg fill="currentColor" width="16" height="16" viewBox="0 0 16 16" xmlns="http://www.w3.org/2000/svg">
<path d="M14.4715 9.80468L8.47166 15.8045C8.40975 15.8665 8.33622 15.9156 8.25529 15.9492C8.17437 15.9827 8.08762 16 8.00001 16C7.9124 16 7.82565 15.9827 7.74472 15.9492C7.66379 15.9156 7.59027 15.8665 7.52836 15.8045L1.52856 9.80468C1.40347 9.67959 1.33319 9.50993 1.33319 9.33303C1.33319 9.15612 1.40347 8.98647 1.52856 8.86138C1.65364 8.73629 1.8233 8.66601 2.00021 8.66601C2.17711 8.66601 2.34677 8.73629 2.47186 8.86138L7.33336 13.7237V0.666645C7.33336 0.48984 7.4036 0.320276 7.52862 0.195256C7.65364 0.0702357 7.8232 0 8.00001 0C8.17682 0 8.34638 0.0702357 8.4714 0.195256C8.59642 0.320276 8.66665 0.48984 8.66665 0.666645V13.7237L13.5282 8.86138C13.6533 8.73629 13.8229 8.66601 13.9998 8.66601C14.1767 8.66601 14.3464 8.73629 14.4715 8.86138C14.5966 8.98647 14.6668 9.15612 14.6668 9.33303C14.6668 9.50993 14.5966 9.67959 14.4715 9.80468Z"/>
</svg>
