<svg fill="currentColor" width="16" height="16" viewBox="0 0 16 16" xmlns="http://www.w3.org/2000/svg">
<path d="M14.4713 7.13862C14.4094 7.20061 14.3359 7.24978 14.255 7.28333C14.174 7.31687 14.0873 7.33414 13.9997 7.33414C13.9121 7.33414 13.8253 7.31687 13.7444 7.28333C13.6635 7.24978 13.59 7.20061 13.528 7.13862L8.66653 2.27628V15.3334C8.66653 15.5102 8.5963 15.6797 8.47128 15.8047C8.34626 15.9298 8.17669 16 7.99989 16C7.82308 16 7.65352 15.9298 7.5285 15.8047C7.40348 15.6797 7.33324 15.5102 7.33324 15.3334V2.27628L2.47174 7.13862C2.34665 7.26371 2.17699 7.33399 2.00008 7.33399C1.82318 7.33399 1.65352 7.26371 1.52843 7.13862C1.40334 7.01353 1.33307 6.84388 1.33307 6.66697C1.33307 6.49007 1.40334 6.32041 1.52843 6.19532L7.52824 0.195518C7.59015 0.133536 7.66367 0.0843647 7.7446 0.0508163C7.82553 0.0172679 7.91228 0 7.99989 0C8.08749 0 8.17424 0.0172679 8.25517 0.0508163C8.3361 0.0843647 8.40963 0.133536 8.47154 0.195518L14.4713 6.19532C14.5333 6.25723 14.5825 6.33076 14.616 6.41169C14.6496 6.49262 14.6669 6.57937 14.6669 6.66697C14.6669 6.75458 14.6496 6.84133 14.616 6.92226C14.5825 7.00319 14.5333 7.07671 14.4713 7.13862Z"/>
</svg>
