<svg fill="currentColor" width="16" height="16" viewBox="0 0 16 16" xmlns="http://www.w3.org/2000/svg">
<path d="M14.5877 7.56251C14.6449 7.61964 14.6902 7.68749 14.7212 7.76218C14.7522 7.83686 14.7681 7.91691 14.7681 7.99776C14.7681 8.0786 14.7522 8.15866 14.7212 8.23334C14.6902 8.30802 14.6449 8.37587 14.5877 8.43301L8.27808 14.7387C7.47034 15.5464 6.37485 16.0001 5.2326 16C4.09035 15.9999 2.99492 15.5461 2.18728 14.7384C1.37964 13.9306 0.925953 12.8351 0.926025 11.6929C0.926097 10.5506 1.37992 9.4552 2.18766 8.64756L9.82068 0.902267C10.3973 0.324988 11.1797 0.000433075 11.9957 4.33095e-07C12.8116 -0.000432209 13.5944 0.323293 14.1716 0.89996C14.7489 1.47663 15.0735 2.259 15.0739 3.07496C15.0743 3.89092 14.7506 4.67364 14.1739 5.25092L6.53939 12.9962C6.19268 13.3429 5.72243 13.5377 5.2321 13.5377C4.74178 13.5377 4.27153 13.3429 3.92482 12.9962C3.5781 12.6495 3.38332 12.1792 3.38332 11.6889C3.38332 11.1986 3.5781 10.7283 3.92482 10.3816L10.3305 3.87442C10.3866 3.81456 10.4542 3.76653 10.5291 3.73316C10.6041 3.69978 10.6849 3.68174 10.767 3.68009C10.849 3.67844 10.9305 3.69321 11.0068 3.72354C11.083 3.75387 11.1524 3.79915 11.2109 3.8567C11.2694 3.91425 11.3157 3.98292 11.3473 4.05867C11.3788 4.13441 11.3949 4.2157 11.3945 4.29775C11.3942 4.3798 11.3774 4.46094 11.3453 4.53642C11.3131 4.6119 11.2661 4.68017 11.2072 4.73723L4.8007 11.2514C4.74334 11.3083 4.69775 11.3759 4.66653 11.4504C4.63532 11.525 4.61908 11.6049 4.61876 11.6857C4.61844 11.7665 4.63404 11.8466 4.66466 11.9213C4.69528 11.9961 4.74033 12.0641 4.79724 12.1215C4.85414 12.1788 4.92179 12.2244 4.99632 12.2556C5.07084 12.2869 5.15078 12.3031 5.23158 12.3034C5.31238 12.3037 5.39245 12.2881 5.46722 12.2575C5.54199 12.2269 5.60999 12.1818 5.66735 12.1249L13.3011 4.38349C13.6479 4.03749 13.8429 3.56793 13.8434 3.07811C13.8439 2.58829 13.6498 2.11833 13.3038 1.77161C12.9578 1.4249 12.4883 1.22983 11.9984 1.22933C11.5086 1.22882 11.0387 1.42292 10.6919 1.76892L3.06047 9.51114C2.77458 9.79657 2.54771 10.1355 2.39281 10.5086C2.23792 10.8817 2.15803 11.2817 2.15771 11.6857C2.15739 12.0897 2.23664 12.4898 2.39094 12.8631C2.54524 13.2365 2.77157 13.5758 3.05701 13.8617C3.34245 14.1476 3.6814 14.3745 4.05451 14.5294C4.42762 14.6843 4.82759 14.7642 5.23158 14.7645C5.63557 14.7648 6.03566 14.6855 6.40902 14.5312C6.78238 14.3769 7.12169 14.1506 7.40758 13.8652L13.7179 7.55943C13.8337 7.44456 13.9903 7.38035 14.1534 7.38093C14.3165 7.3815 14.4727 7.44682 14.5877 7.56251Z"/>
</svg>
