<svg fill="currentColor" width="16" height="16" viewBox="0 0 16 16" xmlns="http://www.w3.org/2000/svg">
<path d="M16 2.46138V6.1536C16 6.3168 15.9352 6.47332 15.8198 6.58873C15.7044 6.70413 15.5478 6.76897 15.3846 6.76897H11.6924C11.5292 6.76897 11.3727 6.70413 11.2573 6.58873C11.1419 6.47332 11.077 6.3168 11.077 6.1536C11.077 5.99039 11.1419 5.83387 11.2573 5.71846C11.3727 5.60306 11.5292 5.53823 11.6924 5.53823H13.8001L11.7547 3.66443L11.7355 3.64597C10.8802 2.79098 9.79191 2.20697 8.60661 1.96689C7.42132 1.72681 6.19156 1.84131 5.07097 2.29608C3.95037 2.75085 2.98861 3.52573 2.30584 4.52392C1.62307 5.52211 1.24956 6.69935 1.23196 7.90858C1.21437 9.11782 1.55347 10.3054 2.20691 11.3231C2.86035 12.3407 3.79916 13.1432 4.90606 13.6304C6.01295 14.1176 7.23886 14.2678 8.43063 14.0623C9.62241 13.8568 10.7272 13.3047 11.607 12.475C11.7257 12.3628 11.884 12.3023 12.0472 12.3068C12.2105 12.3114 12.3652 12.3806 12.4774 12.4992C12.5896 12.6178 12.6501 12.7762 12.6455 12.9394C12.641 13.1026 12.5718 13.2574 12.4532 13.3696C11.0851 14.667 9.27029 15.3884 7.38484 15.3841H7.2833C6.0739 15.3676 4.88708 15.0542 3.82715 14.4715C2.76723 13.8889 1.86665 13.0548 1.20457 12.0426C0.542497 11.0304 0.139188 9.87101 0.0300985 8.66642C-0.0789914 7.46184 0.109477 6.24889 0.578938 5.1342C1.0484 4.01951 1.78448 3.03721 2.72248 2.27361C3.66049 1.51002 4.7717 0.988524 5.95845 0.754959C7.1452 0.521393 8.37115 0.58291 9.52856 0.934103C10.686 1.28529 11.7394 1.91541 12.5962 2.76907L14.7693 4.75363V2.46138C14.7693 2.29818 14.8341 2.14165 14.9495 2.02625C15.0649 1.91085 15.2214 1.84601 15.3846 1.84601C15.5478 1.84601 15.7044 1.91085 15.8198 2.02625C15.9352 2.14165 16 2.29818 16 2.46138Z"/>
<path d="M9.56528 10.3166L10.4282 9.45399C10.4862 9.39602 10.5188 9.31741 10.5188 9.23545C10.5188 9.15348 10.4862 9.07487 10.4282 9.01691C10.3703 8.95895 10.2917 8.92638 10.2097 8.92638C10.1277 8.92638 10.0491 8.95895 9.99116 9.01691L9.12859 9.87987L7.53974 8.29063C8.04386 8.2224 8.50329 7.96534 8.82518 7.57141C9.14707 7.17748 9.30743 6.67605 9.27384 6.16844C9.24026 5.66083 9.01524 5.18489 8.64425 4.8368C8.27326 4.48872 7.78397 4.29443 7.27525 4.29322H5.26747C5.18555 4.29322 5.10698 4.32576 5.04905 4.38369C4.99112 4.44162 4.95858 4.52018 4.95858 4.60211V10.471C4.95858 10.5529 4.99112 10.6315 5.04905 10.6894C5.10698 10.7473 5.18555 10.7799 5.26747 10.7799C5.34939 10.7799 5.42796 10.7473 5.48589 10.6894C5.54382 10.6315 5.57636 10.5529 5.57636 10.471V8.30878H6.68411L8.69189 10.3166L7.82894 11.1791C7.77098 11.2371 7.73841 11.3157 7.73841 11.3977C7.73841 11.4796 7.77098 11.5582 7.82894 11.6162C7.8869 11.6742 7.96551 11.7067 8.04747 11.7067C8.12944 11.7067 8.20805 11.6742 8.26601 11.6162L9.12859 10.7533L9.99116 11.6162C10.0199 11.6449 10.0539 11.6677 10.0914 11.6832C10.1289 11.6987 10.1691 11.7067 10.2097 11.7067C10.2503 11.7067 10.2905 11.6987 10.328 11.6832C10.3655 11.6677 10.3995 11.6449 10.4282 11.6162C10.4569 11.5875 10.4797 11.5534 10.4952 11.5159C10.5108 11.4784 10.5188 11.4383 10.5188 11.3977C10.5188 11.3571 10.5108 11.3169 10.4952 11.2794C10.4797 11.2419 10.4569 11.2078 10.4282 11.1791L9.56528 10.3166ZM5.57636 4.91099H7.27525C7.6439 4.91099 7.99746 5.05744 8.25813 5.31812C8.51881 5.57879 8.66525 5.93235 8.66525 6.301C8.66525 6.66965 8.51881 7.0232 8.25813 7.28388C7.99746 7.54455 7.6439 7.691 7.27525 7.691H5.57636V4.91099Z"/>
</svg>
