<svg fill="currentColor" width="16" height="16" viewBox="0 0 16 16" xmlns="http://www.w3.org/2000/svg">
<path d="M16 2.46138V6.1536C16 6.3168 15.9352 6.47332 15.8198 6.58873C15.7044 6.70413 15.5478 6.76897 15.3846 6.76897H11.6924C11.5292 6.76897 11.3727 6.70413 11.2573 6.58873C11.1419 6.47332 11.077 6.3168 11.077 6.1536C11.077 5.99039 11.1419 5.83387 11.2573 5.71846C11.3727 5.60306 11.5292 5.53823 11.6924 5.53823H13.8001L11.7547 3.66443L11.7355 3.64597C10.8802 2.79098 9.79191 2.20697 8.60661 1.96689C7.42132 1.72681 6.19156 1.84131 5.07097 2.29608C3.95037 2.75085 2.98861 3.52573 2.30584 4.52392C1.62307 5.5221 1.24956 6.69935 1.23196 7.90858C1.21437 9.11782 1.55347 10.3054 2.20691 11.3231C2.86035 12.3407 3.79916 13.1432 4.90606 13.6304C6.01295 14.1176 7.23886 14.2678 8.43063 14.0623C9.62241 13.8568 10.7272 13.3047 11.607 12.475C11.7257 12.3628 11.884 12.3023 12.0472 12.3068C12.2105 12.3114 12.3652 12.3806 12.4774 12.4992C12.5896 12.6178 12.6501 12.7762 12.6455 12.9394C12.641 13.1026 12.5718 13.2574 12.4532 13.3696C11.0851 14.667 9.27029 15.3884 7.38484 15.3841H7.2833C6.0739 15.3676 4.88708 15.0542 3.82715 14.4715C2.76723 13.8889 1.86665 13.0548 1.20457 12.0426C0.542497 11.0304 0.139188 9.87101 0.0300985 8.66642C-0.0789914 7.46184 0.109477 6.24889 0.578938 5.1342C1.0484 4.01951 1.78448 3.03721 2.72248 2.27361C3.66049 1.51002 4.7717 0.988524 5.95845 0.754959C7.1452 0.521393 8.37115 0.58291 9.52856 0.934103C10.686 1.28529 11.7394 1.91541 12.5962 2.76907L14.7693 4.75363V2.46138C14.7693 2.29818 14.8341 2.14165 14.9495 2.02625C15.0649 1.91085 15.2214 1.84601 15.3846 1.84601C15.5478 1.84601 15.7044 1.91085 15.8198 2.02625C15.9352 2.14165 16 2.29818 16 2.46138Z"/>
<path d="M7.88227 7.64843H7.26973V4.83541H7.576C7.90091 4.83541 8.21251 4.9836 8.44226 5.24737C8.672 5.51114 8.80107 5.86889 8.80107 6.24192C8.80107 6.33518 8.83334 6.42462 8.89077 6.49056C8.94821 6.5565 9.02611 6.59355 9.10734 6.59355C9.18856 6.59355 9.26647 6.5565 9.3239 6.49056C9.38134 6.42462 9.4136 6.33518 9.4136 6.24192C9.4131 5.68256 9.21933 5.14627 8.87482 4.75074C8.53032 4.3552 8.06321 4.13274 7.576 4.13216H7.26973V3.4289C7.26973 3.33564 7.23747 3.24621 7.18003 3.18026C7.12259 3.11432 7.04469 3.07727 6.96347 3.07727C6.88224 3.07727 6.80434 3.11432 6.7469 3.18026C6.68947 3.24621 6.6572 3.33564 6.6572 3.4289V4.13216H6.35093C5.86357 4.13216 5.39617 4.35444 5.05155 4.75009C4.70693 5.14575 4.51333 5.68238 4.51333 6.24192C4.51333 6.80147 4.70693 7.33809 5.05155 7.73375C5.39617 8.12941 5.86357 8.35169 6.35093 8.35169H6.6572V11.1647H6.04467C5.71976 11.1647 5.40816 11.0165 5.17841 10.7527C4.94867 10.489 4.8196 10.1312 4.8196 9.7582C4.8196 9.66494 4.78733 9.5755 4.72989 9.50956C4.67246 9.44361 4.59456 9.40657 4.51333 9.40657C4.4321 9.40657 4.3542 9.44361 4.29677 9.50956C4.23933 9.5755 4.20706 9.66494 4.20706 9.7582C4.20757 10.3176 4.40134 10.8539 4.74584 11.2494C5.09035 11.6449 5.55746 11.8674 6.04467 11.868H6.6572V12.5712C6.6572 12.6645 6.68947 12.7539 6.7469 12.8199C6.80434 12.8858 6.88224 12.9228 6.96347 12.9228C7.04469 12.9228 7.12259 12.8858 7.18003 12.8199C7.23747 12.7539 7.26973 12.6645 7.26973 12.5712V11.868H7.88227C8.36963 11.868 8.83703 11.6457 9.18165 11.25C9.52627 10.8544 9.71987 10.3177 9.71987 9.7582C9.71987 9.19865 9.52627 8.66202 9.18165 8.26637C8.83703 7.87071 8.36963 7.64843 7.88227 7.64843ZM6.35093 7.64843C6.02602 7.64843 5.71442 7.50025 5.48468 7.23647C5.25493 6.9727 5.12586 6.61495 5.12586 6.24192C5.12586 5.86889 5.25493 5.51114 5.48468 5.24737C5.71442 4.9836 6.02602 4.83541 6.35093 4.83541H6.6572V7.64843H6.35093ZM7.88227 11.1647H7.26973V8.35169H7.88227C8.20718 8.35169 8.51878 8.49987 8.74852 8.76364C8.97827 9.02742 9.10734 9.38517 9.10734 9.7582C9.10734 10.1312 8.97827 10.489 8.74852 10.7527C8.51878 11.0165 8.20718 11.1647 7.88227 11.1647Z"/>
</svg>
