<svg fill="currentColor" width="16" height="16" viewBox="0 0 16 16" xmlns="http://www.w3.org/2000/svg">
<path d="M15.8922 2.92537C15.8922 2.92537 16.1716 2.60175 15.8254 2.25554C15.4792 1.90933 15.1556 2.18871 15.1556 2.18871L11.2361 6.10815C11.0697 6.27545 10.9652 6.49441 10.9398 6.729C10.9145 6.96359 10.9697 7.19982 11.0965 7.39882C11.207 7.57664 11.2729 7.77856 11.2886 7.98735C11.3042 8.19615 11.2691 8.40563 11.1863 8.59794C11.1035 8.79024 10.9754 8.95967 10.813 9.09177C10.6505 9.22387 10.4585 9.31473 10.2534 9.3566C10.0482 9.39847 9.83601 9.3901 9.63478 9.33222C9.43356 9.27433 9.24932 9.16865 9.09778 9.02417C8.94623 8.87969 8.83187 8.70071 8.76445 8.50248C8.75011 8.46032 8.73331 8.41623 8.71606 8.37095C8.69905 8.32632 8.68159 8.28048 8.66562 8.23424C8.64134 8.09956 8.62219 7.97031 8.60735 7.85655C8.60884 7.84704 8.6075 7.83836 8.60397 7.83031C8.5745 7.59879 8.56343 7.43772 8.56343 7.43772C8.52511 7.08896 8.40875 6.7533 8.223 6.45564C8.03725 6.15799 7.78687 5.90597 7.49042 5.71828C7.26691 5.57677 7.02154 5.47458 6.76496 5.41545C6.80564 5.33629 6.8545 5.26123 6.91094 5.19158C7.04259 5.02908 7.21153 4.90079 7.40342 4.81762C7.5953 4.73444 7.80443 4.69884 8.01302 4.71385C8.22162 4.72886 8.4235 4.79403 8.6015 4.90382C8.80078 5.03028 9.03719 5.08509 9.27179 5.05925C9.50638 5.03341 9.72519 4.92844 9.89217 4.76164L13.8103 0.843498C13.8103 0.843498 14.0941 0.518256 13.7479 0.171966C13.4016 -0.174324 13.0763 0.109469 13.0763 0.109469L9.15983 4.02801H9.15334C8.85525 3.84295 8.51933 3.72739 8.17048 3.68988C7.82163 3.65237 7.46881 3.69388 7.13819 3.81133C6.80757 3.92878 6.50764 4.11917 6.26065 4.36836C6.01365 4.61755 5.82592 4.91915 5.71139 5.25079C5.69103 5.30975 5.67308 5.36939 5.65755 5.42956C5.59686 5.44519 5.53672 5.46327 5.47726 5.4838C5.14562 5.59833 4.84402 5.78606 4.59483 6.03305C4.34564 6.28005 4.15526 6.57998 4.0378 6.9106C3.92035 7.24122 3.87884 7.59404 3.91635 7.94288C3.95386 8.29173 4.06943 8.62766 4.25448 8.92575C4.25476 8.92747 4.25476 8.92923 4.25448 8.93095L0.108948 13.0785C0.108948 13.0785 -0.174088 13.4024 0.172318 13.7486C0.518723 14.0949 0.842424 13.812 0.842424 13.812L4.99266 9.66198C5.15843 9.49486 5.26252 9.27639 5.28788 9.04237C5.31324 8.80835 5.25836 8.57266 5.13225 8.37391C5.0217 8.19609 4.9558 7.99417 4.94015 7.78538C4.92451 7.57658 4.95959 7.3671 5.04241 7.17479C5.12522 6.98249 5.25332 6.81306 5.41576 6.68096C5.57821 6.54885 5.77019 6.458 5.97535 6.41613C6.1805 6.37426 6.39273 6.38263 6.59395 6.44051C6.79517 6.4984 6.97941 6.60408 7.13096 6.74856C7.19823 6.8127 7.25818 6.88363 7.30995 6.96004C7.59131 7.47095 7.66531 8.33696 7.66531 8.33696C7.70363 8.68572 7.81998 9.02138 8.00574 9.31904C8.19149 9.61669 8.44187 9.86871 8.73831 10.0564C8.96397 10.1993 9.2119 10.3021 9.47116 10.3609C9.4224 10.4547 9.3621 10.5428 9.29122 10.6228L9.29382 10.6196C9.09072 10.8521 8.8114 11.0047 8.50597 11.0499C8.20055 11.0951 7.889 11.03 7.62724 10.8663C7.42796 10.7399 7.19155 10.685 6.95695 10.7109C6.72235 10.7367 6.50355 10.8417 6.33657 11.0085L2.18763 15.1572C2.18763 15.1572 1.90913 15.4799 2.25545 15.8262C2.60177 16.1724 2.92441 15.894 2.92441 15.894L7.0715 11.7467H7.07799C7.54966 12.0437 8.11197 12.1625 8.66348 12.0814C9.21498 12.0004 9.71935 11.7249 10.0856 11.3046C10.329 11.0254 10.5007 10.6944 10.59 10.3402C10.6443 10.3257 10.6982 10.3093 10.7515 10.2909C11.0831 10.1763 11.3847 9.98862 11.6339 9.74162C11.8831 9.49463 12.0735 9.1947 12.1909 8.86408C12.3084 8.53346 12.3499 8.18064 12.3124 7.83179C12.2749 7.48294 12.1593 7.14702 11.9743 6.84893L11.9742 6.84635L11.9743 6.84373L15.8922 2.92537Z"/>
</svg>
