<svg fill="currentColor" width="16" height="16" viewBox="0 0 16 16" xmlns="http://www.w3.org/2000/svg">
<g clip-path="url(#clip0_3133_4)">
<path d="M14.1538 1.23077H12.3077V0.615385C12.3077 0.452174 12.2428 0.295649 12.1274 0.180242C12.012 0.064835 11.8555 0 11.6923 0C11.5291 0 11.3725 0.064835 11.2571 0.180242C11.1417 0.295649 11.0769 0.452174 11.0769 0.615385V1.23077H4.92305V0.615385C4.92305 0.452174 4.85821 0.295649 4.74281 0.180242C4.6274 0.064835 4.47087 0 4.30766 0C4.14445 0 3.98793 0.064835 3.87252 0.180242C3.75711 0.295649 3.69228 0.452174 3.69228 0.615385V1.23077H1.84613C1.51971 1.23077 1.20665 1.36044 0.97584 1.59125C0.745026 1.82207 0.615356 2.13512 0.615356 2.46154V14.7692C0.615356 15.0957 0.745026 15.4087 0.97584 15.6395C1.20665 15.8703 1.51971 16 1.84613 16H14.1538C14.4802 16 14.7933 15.8703 15.0241 15.6395C15.2549 15.4087 15.3846 15.0957 15.3846 14.7692V2.46154C15.3846 2.13512 15.2549 1.82207 15.0241 1.59125C14.7933 1.36044 14.4802 1.23077 14.1538 1.23077ZM3.69228 2.46154V3.07692C3.69228 3.24013 3.75711 3.39666 3.87252 3.51207C3.98793 3.62747 4.14445 3.69231 4.30766 3.69231C4.47087 3.69231 4.6274 3.62747 4.74281 3.51207C4.85821 3.39666 4.92305 3.24013 4.92305 3.07692V2.46154H11.0769V3.07692C11.0769 3.24013 11.1417 3.39666 11.2571 3.51207C11.3725 3.62747 11.5291 3.69231 11.6923 3.69231C11.8555 3.69231 12.012 3.62747 12.1274 3.51207C12.2428 3.39666 12.3077 3.24013 12.3077 3.07692V2.46154H14.1538V4.92308H1.84613V2.46154H3.69228ZM14.1538 14.7692H1.84613V6.15385H14.1538V14.7692Z"/>
</g>
<defs>
<clipPath id="clip0_3133_4">
<rect width="16" height="16"/>
</clipPath>
</defs>
</svg>
