<svg fill="currentColor" width="16" height="16" viewBox="0 0 16 16" xmlns="http://www.w3.org/2000/svg">
<path d="M15.2297 10.7567L11.4609 9.0679L11.4505 9.0631C11.2548 8.97942 11.0414 8.94584 10.8295 8.96539C10.6176 8.98495 10.4139 9.05703 10.2369 9.1751C10.216 9.18887 10.196 9.20383 10.1769 9.2199L8.22966 10.8799C6.99606 10.2807 5.72245 9.0167 5.12324 7.79909L6.78566 5.82228C6.80166 5.80228 6.81686 5.78228 6.83126 5.76068C6.9468 5.58412 7.0169 5.38173 7.03533 5.17153C7.05375 4.96133 7.01992 4.74984 6.93686 4.55587V4.54627L5.24324 0.771043C5.13344 0.517654 4.94462 0.306572 4.70499 0.16931C4.46536 0.0320479 4.18776 -0.0240333 3.91363 0.00943818C2.8296 0.152085 1.83456 0.684458 1.11436 1.50713C0.39416 2.32979 -0.00195276 3.38649 7.23896e-06 4.47987C7.23896e-06 10.8319 5.16804 16 11.5201 16C12.6135 16.0019 13.6702 15.6058 14.4928 14.8856C15.3155 14.1654 15.8479 13.1704 15.9905 12.0863C16.0241 11.8123 15.9681 11.5348 15.831 11.2951C15.6939 11.0555 15.483 10.8667 15.2297 10.7567ZM11.5201 14.7199C8.80516 14.717 6.20228 13.6372 4.28254 11.7174C2.36279 9.79768 1.28298 7.1948 1.28002 4.47987C1.27701 3.69866 1.55846 2.94306 2.07181 2.35418C2.58516 1.7653 3.29531 1.38342 4.06964 1.27985C4.06932 1.28304 4.06932 1.28626 4.06964 1.28945L5.74965 5.04947L4.09604 7.02869C4.07925 7.048 4.06401 7.0686 4.05044 7.09029C3.93005 7.27502 3.85942 7.48773 3.84541 7.70778C3.83139 7.92784 3.87446 8.14778 3.97044 8.3463C4.69524 9.82871 6.18885 11.3111 7.68726 12.0351C7.88723 12.1302 8.10845 12.1718 8.3293 12.1558C8.55015 12.1398 8.76307 12.0668 8.94727 11.9439C8.96781 11.9301 8.98757 11.9151 9.00647 11.8991L10.9513 10.2399L14.7113 11.9239C14.7113 11.9239 14.7177 11.9239 14.7201 11.9239C14.6178 12.6993 14.2365 13.4109 13.6475 13.9255C13.0585 14.4402 12.3022 14.7226 11.5201 14.7199Z"/>
</svg>
