<svg fill="currentColor" width="16" height="16" viewBox="0 0 16 16" xmlns="http://www.w3.org/2000/svg">
<path d="M15.7867 12.1506C15.7192 12.2183 15.639 12.2719 15.5507 12.3085C15.4624 12.3451 15.3678 12.3639 15.2722 12.3639C15.1766 12.3639 15.082 12.3451 14.9937 12.3085C14.9054 12.2719 14.8252 12.2183 14.7577 12.1506L7.99992 5.39197L1.24215 12.1506C1.10569 12.2871 0.920613 12.3638 0.727633 12.3638C0.534652 12.3638 0.349576 12.2871 0.213119 12.1506C0.076661 12.0142 3.8041e-09 11.8291 0 11.6361C-3.8041e-09 11.4432 0.076661 11.2581 0.213119 11.1216L7.4854 3.84933C7.55294 3.78172 7.63315 3.72808 7.72143 3.69148C7.80972 3.65488 7.90435 3.63605 7.99992 3.63605C8.09548 3.63605 8.19012 3.65488 8.2784 3.69148C8.36668 3.72808 8.44689 3.78172 8.51443 3.84933L15.7867 11.1216C15.8543 11.1892 15.908 11.2694 15.9446 11.3576C15.9812 11.4459 16 11.5406 16 11.6361C16 11.7317 15.9812 11.8263 15.9446 11.9146C15.908 12.0029 15.8543 12.0831 15.7867 12.1506Z"/>
</svg>
