<svg fill="currentColor" width="16" height="16" viewBox="0 0 16 16" xmlns="http://www.w3.org/2000/svg">
<path d="M12.1508 14.7578C12.2184 14.8254 12.272 14.9056 12.3085 14.9939C12.3451 15.0822 12.3639 15.1768 12.3639 15.2724C12.3639 15.3679 12.3451 15.4625 12.3085 15.5508C12.272 15.6391 12.2184 15.7193 12.1508 15.7869C12.0832 15.8544 12.003 15.908 11.9147 15.9446C11.8265 15.9812 11.7318 16 11.6363 16C11.5407 16 11.4461 15.9812 11.3578 15.9446C11.2695 15.908 11.1893 15.8544 11.1218 15.7869L3.8494 8.51452C3.78178 8.44698 3.72814 8.36677 3.69154 8.27849C3.65495 8.1902 3.63611 8.09557 3.63611 8C3.63611 7.90443 3.65495 7.8098 3.69154 7.72151C3.72814 7.63323 3.78178 7.55302 3.8494 7.48548L11.1218 0.213121C11.2582 0.0766618 11.4433 -3.80414e-09 11.6363 0C11.8293 3.80414e-09 12.0143 0.0766618 12.1508 0.213121C12.2873 0.34958 12.3639 0.534658 12.3639 0.72764C12.3639 0.920622 12.2873 1.1057 12.1508 1.24216L5.39205 8L12.1508 14.7578Z"/>
</svg>
