<svg fill="currentColor" width="16" height="16" viewBox="0 0 16 16" xmlns="http://www.w3.org/2000/svg">
<path d="M15.7869 4.87827L8.51452 12.1506C8.44698 12.2182 8.36677 12.2719 8.27849 12.3085C8.1902 12.3451 8.09557 12.3639 8 12.3639C7.90443 12.3639 7.8098 12.3451 7.72151 12.3085C7.63323 12.2719 7.55302 12.2182 7.48548 12.1506L0.213121 4.87827C0.0766618 4.74181 0 4.55673 0 4.36375C0 4.17077 0.0766618 3.98569 0.213121 3.84923C0.34958 3.71277 0.534658 3.63611 0.72764 3.63611C0.920622 3.63611 1.1057 3.71277 1.24216 3.84923L8 10.608L14.7578 3.84923C14.8254 3.78166 14.9056 3.72806 14.9939 3.6915C15.0822 3.65493 15.1768 3.63611 15.2724 3.63611C15.3679 3.63611 15.4625 3.65493 15.5508 3.6915C15.6391 3.72806 15.7193 3.78166 15.7869 3.84923C15.8544 3.9168 15.908 3.99701 15.9446 4.08529C15.9812 4.17357 16 4.26819 16 4.36375C16 4.4593 15.9812 4.55392 15.9446 4.6422C15.908 4.73049 15.8544 4.8107 15.7869 4.87827Z"/>
</svg>
