<svg fill="currentColor" width="16" height="16" viewBox="0 0 16 16" xmlns="http://www.w3.org/2000/svg">
<path d="M15.7869 14.7577C15.8544 14.8253 15.908 14.9055 15.9446 14.9937C15.9812 15.082 16 15.1766 16 15.2722C16 15.3678 15.9812 15.4624 15.9446 15.5507C15.908 15.6389 15.8544 15.7191 15.7869 15.7867C15.7193 15.8543 15.6391 15.9079 15.5508 15.9444C15.4625 15.981 15.3679 15.9998 15.2724 15.9998C15.1768 15.9998 15.0822 15.981 14.9939 15.9444C14.9056 15.9079 14.8254 15.8543 14.7579 15.7867L7.48557 8.51443C7.41795 8.44689 7.36432 8.36669 7.32772 8.2784C7.29112 8.19012 7.27228 8.09549 7.27228 7.99992C7.27228 7.90435 7.29112 7.80972 7.32772 7.72143C7.36432 7.63315 7.41795 7.55294 7.48557 7.4854L14.7579 0.213119C14.8943 0.076661 15.0794 -3.8041e-09 15.2724 0C15.4653 3.8041e-09 15.6504 0.076661 15.7869 0.213119C15.9233 0.349576 16 0.534653 16 0.727633C16 0.920613 15.9233 1.10569 15.7869 1.24215L9.0282 7.99992L15.7869 14.7577ZM1.75592 7.99992L8.5146 1.24215C8.65106 1.10569 8.72772 0.920613 8.72772 0.727633C8.72772 0.534653 8.65106 0.349576 8.5146 0.213119C8.37814 0.076661 8.19306 1.43782e-09 8.00008 0C7.8071 -1.43781e-09 7.62203 0.076661 7.48557 0.213119L0.213286 7.4854C0.145671 7.55294 0.0920317 7.63315 0.0554344 7.72143C0.0188371 7.80972 0 7.90435 0 7.99992C0 8.09549 0.0188371 8.19012 0.0554344 8.2784C0.0920317 8.36669 0.145671 8.44689 0.213286 8.51443L7.48557 15.7867C7.55314 15.8543 7.63335 15.9079 7.72163 15.9444C7.80991 15.981 7.90453 15.9998 8.00008 15.9998C8.09564 15.9998 8.19026 15.981 8.27854 15.9444C8.36682 15.9079 8.44703 15.8543 8.5146 15.7867C8.58217 15.7191 8.63576 15.6389 8.67233 15.5507C8.7089 15.4624 8.72772 15.3678 8.72772 15.2722C8.72772 15.1766 8.7089 15.082 8.67233 14.9937C8.63576 14.9055 8.58217 14.8253 8.5146 14.7577L1.75592 7.99992Z"/>
</svg>
