<svg fill="currentColor" width="16" height="16" viewBox="0 0 16 16" xmlns="http://www.w3.org/2000/svg">
<path d="M8.51443 8.51443L1.24215 15.7867C1.10569 15.9232 0.920613 15.9998 0.727633 15.9998C0.534653 15.9998 0.349576 15.9232 0.213119 15.7867C0.076661 15.6503 3.8041e-09 15.4652 0 15.2722C-3.8041e-09 15.0792 0.076661 14.8941 0.213119 14.7577L6.9718 7.99992L0.213119 1.24215C0.076661 1.10569 0 0.920613 0 0.727633C0 0.534653 0.076661 0.349576 0.213119 0.213119C0.349576 0.076661 0.534653 0 0.727633 0C0.920613 0 1.10569 0.076661 1.24215 0.213119L8.51443 7.4854C8.58205 7.55294 8.63569 7.63315 8.67228 7.72143C8.70888 7.80972 8.72772 7.90435 8.72772 7.99992C8.72772 8.09549 8.70888 8.19012 8.67228 8.2784C8.63569 8.36669 8.58205 8.44689 8.51443 8.51443ZM15.7867 7.4854L8.51443 0.213119C8.37797 0.076661 8.1929 0 7.99992 0C7.80694 0 7.62186 0.076661 7.4854 0.213119C7.34894 0.349576 7.27228 0.534653 7.27228 0.727633C7.27228 0.920613 7.34894 1.10569 7.4854 1.24215L14.2441 7.99992L7.4854 14.7577C7.34894 14.8941 7.27228 15.0792 7.27228 15.2722C7.27228 15.4652 7.34894 15.6503 7.4854 15.7867C7.62186 15.9232 7.80694 15.9998 7.99992 15.9998C8.1929 15.9998 8.37797 15.9232 8.51443 15.7867L15.7867 8.51443C15.8543 8.44689 15.908 8.36669 15.9446 8.2784C15.9812 8.19012 16 8.09549 16 7.99992C16 7.90435 15.9812 7.80972 15.9446 7.72143C15.908 7.63315 15.8543 7.55294 15.7867 7.4854Z"/>
</svg>
