<svg fill="currentColor" width="16" height="16" viewBox="0 0 16 16" xmlns="http://www.w3.org/2000/svg">
<path d="M12.1506 8.51452L4.87827 15.7869C4.8107 15.8544 4.73049 15.908 4.6422 15.9446C4.55392 15.9812 4.4593 16 4.36375 16C4.26819 16 4.17357 15.9812 4.08529 15.9446C3.99701 15.908 3.9168 15.8544 3.84923 15.7869C3.78166 15.7193 3.72806 15.6391 3.6915 15.5508C3.65493 15.4625 3.63611 15.3679 3.63611 15.2724C3.63611 15.1768 3.65493 15.0822 3.6915 14.9939C3.72806 14.9056 3.78166 14.8254 3.84923 14.7578L10.608 8L3.84923 1.24216C3.71277 1.1057 3.63611 0.920622 3.63611 0.72764C3.63611 0.534658 3.71277 0.34958 3.84923 0.213121C3.98569 0.0766618 4.17077 1.43783e-09 4.36375 0C4.55673 -1.43783e-09 4.74181 0.0766618 4.87827 0.213121L12.1506 7.48548C12.2182 7.55302 12.2719 7.63323 12.3085 7.72151C12.3451 7.8098 12.3639 7.90443 12.3639 8C12.3639 8.09557 12.3451 8.1902 12.3085 8.27849C12.2719 8.36677 12.2182 8.44698 12.1506 8.51452Z"/>
</svg>
