<svg fill="currentColor" width="16" height="16" viewBox="0 0 16 16" xmlns="http://www.w3.org/2000/svg">
<path d="M14.7692 4.92308H11.0769V1.23077C11.0769 0.904349 10.9473 0.591298 10.7164 0.360484C10.4856 0.12967 10.1726 0 9.84615 0H6.15385C5.82743 0 5.51438 0.12967 5.28356 0.360484C5.05275 0.591298 4.92308 0.904349 4.92308 1.23077V4.92308H1.23077C0.904349 4.92308 0.591298 5.05275 0.360484 5.28356C0.12967 5.51438 0 5.82743 0 6.15385V9.84615C0 10.1726 0.12967 10.4856 0.360484 10.7164C0.591298 10.9473 0.904349 11.0769 1.23077 11.0769H4.92308V14.7692C4.92308 15.0957 5.05275 15.4087 5.28356 15.6395C5.51438 15.8703 5.82743 16 6.15385 16H9.84615C10.1726 16 10.4856 15.8703 10.7164 15.6395C10.9473 15.4087 11.0769 15.0957 11.0769 14.7692V11.0769H14.7692C15.0957 11.0769 15.4087 10.9473 15.6395 10.7164C15.8703 10.4856 16 10.1726 16 9.84615V6.15385C16 5.82743 15.8703 5.51438 15.6395 5.28356C15.4087 5.05275 15.0957 4.92308 14.7692 4.92308ZM14.7692 9.84615H10.4615C10.2983 9.84615 10.1418 9.91099 10.0264 10.0264C9.91099 10.1418 9.84615 10.2983 9.84615 10.4615V14.7692H6.15385V10.4615C6.15385 10.2983 6.08901 10.1418 5.9736 10.0264C5.8582 9.91099 5.70167 9.84615 5.53846 9.84615H1.23077V6.15385H5.53846C5.70167 6.15385 5.8582 6.08901 5.9736 5.9736C6.08901 5.8582 6.15385 5.70167 6.15385 5.53846V1.23077H9.84615V5.53846C9.84615 5.70167 9.91099 5.8582 10.0264 5.9736C10.1418 6.08901 10.2983 6.15385 10.4615 6.15385H14.7692V9.84615Z"/>
</svg>
