<svg fill="currentColor" width="16" height="16" viewBox="0 0 16 16" xmlns="http://www.w3.org/2000/svg">
<path d="M15.8605 3.1752C15.8048 3.10864 15.7353 3.05511 15.6567 3.01838C15.5781 2.98165 15.4924 2.96262 15.4057 2.96263H3.45739L3.09521 0.973225C3.0456 0.70017 2.90174 0.453187 2.68869 0.275334C2.47565 0.0974807 2.20694 4.01099e-05 1.92942 0H0.592527C0.435379 0 0.284667 0.0624267 0.173547 0.173547C0.0624267 0.284667 0 0.435379 0 0.592527C0 0.749675 0.0624267 0.900386 0.173547 1.01151C0.284667 1.12263 0.435379 1.18505 0.592527 1.18505H1.92571L3.81884 11.5758C3.8746 11.8839 4.01079 12.1719 4.21361 12.4105C3.93367 12.6719 3.73162 13.0058 3.62986 13.3751C3.5281 13.7444 3.53061 14.1347 3.6371 14.5026C3.74359 14.8706 3.94991 15.2018 4.23318 15.4597C4.51645 15.7175 4.86559 15.8919 5.2419 15.9634C5.61822 16.0349 6.00699 16.0009 6.36511 15.8649C6.72323 15.729 7.03671 15.4965 7.27078 15.1933C7.50485 14.8901 7.65038 14.528 7.69121 14.1471C7.73205 13.7663 7.6666 13.3815 7.50213 13.0356H10.8662C10.7336 13.3131 10.665 13.6168 10.6655 13.9244C10.6655 14.3345 10.7871 14.7355 11.015 15.0765C11.2429 15.4176 11.5668 15.6834 11.9457 15.8404C12.3246 15.9973 12.7416 16.0384 13.1439 15.9584C13.5462 15.8784 13.9157 15.6808 14.2058 15.3908C14.4958 15.1008 14.6933 14.7313 14.7733 14.329C14.8533 13.9267 14.8123 13.5097 14.6553 13.1308C14.4983 12.7518 14.2325 12.4279 13.8915 12.2C13.5505 11.9722 13.1495 11.8505 12.7393 11.8505H5.56753C5.42877 11.8505 5.29441 11.8018 5.18789 11.7129C5.08137 11.6239 5.00944 11.5005 4.98463 11.3639L4.74984 10.073H13.3415C13.7578 10.0729 14.1608 9.92673 14.4804 9.65996C14.8 9.39318 15.0158 9.0227 15.0902 8.61312L15.9908 3.66107C16.0061 3.57548 16.0023 3.48759 15.9798 3.40362C15.9572 3.31965 15.9165 3.24167 15.8605 3.1752ZM6.51779 13.9244C6.51779 14.1002 6.46567 14.272 6.36801 14.4182C6.27035 14.5643 6.13154 14.6782 5.96913 14.7455C5.80672 14.8128 5.62802 14.8304 5.45561 14.7961C5.2832 14.7618 5.12483 14.6771 5.00054 14.5528C4.87624 14.4285 4.79159 14.2702 4.75729 14.0978C4.723 13.9254 4.7406 13.7467 4.80787 13.5843C4.87514 13.4219 4.98906 13.283 5.13522 13.1854C5.28138 13.0877 5.45322 13.0356 5.629 13.0356C5.86473 13.0356 6.09079 13.1292 6.25747 13.2959C6.42415 13.4626 6.51779 13.6887 6.51779 13.9244ZM13.6281 13.9244C13.6281 14.1002 13.576 14.272 13.4783 14.4182C13.3807 14.5643 13.2419 14.6782 13.0795 14.7455C12.917 14.8128 12.7383 14.8304 12.5659 14.7961C12.3935 14.7618 12.2352 14.6771 12.1109 14.5528C11.9866 14.4285 11.9019 14.2702 11.8676 14.0978C11.8333 13.9254 11.8509 13.7467 11.9182 13.5843C11.9855 13.4219 12.0994 13.283 12.2455 13.1854C12.3917 13.0877 12.5635 13.0356 12.7393 13.0356C12.975 13.0356 13.2011 13.1292 13.3678 13.2959C13.5345 13.4626 13.6281 13.6887 13.6281 13.9244ZM13.9244 8.40129C13.8995 8.53819 13.8273 8.66198 13.7203 8.75095C13.6133 8.83992 13.4784 8.8884 13.3393 8.8879H4.53431L3.67293 4.14769H14.6954L13.9244 8.40129Z"/>
</svg>
