<svg fill="currentColor" width="16" height="16" viewBox="0 0 16 16" xmlns="http://www.w3.org/2000/svg">
<path d="M15.3846 13.8462H14.7692V1.53848C14.7692 1.37527 14.7044 1.21874 14.589 1.10334C14.4736 0.987931 14.3171 0.923096 14.1538 0.923096H9.84615C9.68294 0.923096 9.52642 0.987931 9.41101 1.10334C9.2956 1.21874 9.23077 1.37527 9.23077 1.53848V4.6154H5.53846C5.37525 4.6154 5.21873 4.68024 5.10332 4.79565C4.98791 4.91105 4.92308 5.06758 4.92308 5.23079V8.30771H1.84615C1.68294 8.30771 1.52642 8.37255 1.41101 8.48795C1.2956 8.60336 1.23077 8.75989 1.23077 8.9231V13.8462H0.615385C0.452174 13.8462 0.295649 13.911 0.180242 14.0264C0.064835 14.1418 0 14.2983 0 14.4616C0 14.6248 0.064835 14.7813 0.180242 14.8967C0.295649 15.0121 0.452174 15.0769 0.615385 15.0769H15.3846C15.5478 15.0769 15.7044 15.0121 15.8198 14.8967C15.9352 14.7813 16 14.6248 16 14.4616C16 14.2983 15.9352 14.1418 15.8198 14.0264C15.7044 13.911 15.5478 13.8462 15.3846 13.8462ZM10.4615 2.15386H13.5385V13.8462H10.4615V2.15386ZM6.15385 5.84617H9.23077V13.8462H6.15385V5.84617ZM2.46154 9.53848H4.92308V13.8462H2.46154V9.53848Z"/>
</svg>
