<svg fill="currentColor" width="16" height="16" viewBox="0 0 16 16" xmlns="http://www.w3.org/2000/svg">
<path d="M11.0769 6.76595C11.0769 6.92916 11.0121 7.08569 10.8967 7.20109C10.7813 7.3165 10.6247 7.38133 10.4615 7.38133H5.53846C5.37525 7.38133 5.21873 7.3165 5.10332 7.20109C4.98791 7.08569 4.92308 6.92916 4.92308 6.76595C4.92308 6.60274 4.98791 6.44621 5.10332 6.33081C5.21873 6.2154 5.37525 6.15057 5.53846 6.15057H10.4615C10.6247 6.15057 10.7813 6.2154 10.8967 6.33081C11.0121 6.44621 11.0769 6.60274 11.0769 6.76595ZM10.4615 8.6121H5.53846C5.37525 8.6121 5.21873 8.67694 5.10332 8.79235C4.98791 8.90775 4.92308 9.06428 4.92308 9.22749C4.92308 9.3907 4.98791 9.54722 5.10332 9.66263C5.21873 9.77804 5.37525 9.84287 5.53846 9.84287H10.4615C10.6247 9.84287 10.7813 9.77804 10.8967 9.66263C11.0121 9.54722 11.0769 9.3907 11.0769 9.22749C11.0769 9.06428 11.0121 8.90775 10.8967 8.79235C10.7813 8.67694 10.6247 8.6121 10.4615 8.6121ZM16 7.99672C16.0003 9.3779 15.643 10.7356 14.9629 11.9378C14.2828 13.1399 13.303 14.1455 12.119 14.8566C10.935 15.5677 9.58698 15.9602 8.20626 15.9958C6.82554 16.0314 5.45912 15.709 4.24 15.0598L1.62077 15.9329C1.40391 16.0052 1.1712 16.0157 0.948713 15.9632C0.726227 15.9107 0.522759 15.7972 0.361116 15.6356C0.199473 15.474 0.0860419 15.2705 0.0335365 15.048C-0.0189689 14.8255 -0.00847359 14.5928 0.0638459 14.3759L0.936923 11.7567C0.366268 10.6838 0.0475362 9.49502 0.00492103 8.28054C-0.0376941 7.06607 0.196927 5.85785 0.690976 4.74759C1.18503 3.63733 1.92552 2.65422 2.85624 1.87287C3.78697 1.09152 4.88347 0.53247 6.06251 0.238161C7.24156 -0.0561481 8.47215 -0.0779843 9.6609 0.17431C10.8496 0.426604 11.9653 0.946397 12.9231 1.69423C13.881 2.44207 14.6559 3.3983 15.189 4.49033C15.7222 5.58236 15.9995 6.7815 16 7.99672ZM14.7692 7.99672C14.7689 6.95835 14.5298 5.93397 14.0702 5.00283C13.6107 4.07169 12.9431 3.25875 12.1191 2.6269C11.2951 1.99505 10.3368 1.56124 9.31829 1.35902C8.2998 1.1568 7.24845 1.19159 6.24556 1.46072C5.24268 1.72984 4.31515 2.22607 3.53473 2.91102C2.75432 3.59597 2.14194 4.45128 1.74497 5.41077C1.348 6.37026 1.17709 7.40821 1.24546 8.44433C1.31382 9.48044 1.61963 10.4869 2.13923 11.3859C2.18284 11.4614 2.20992 11.5453 2.21867 11.632C2.22742 11.7188 2.21765 11.8064 2.19 11.889L1.23077 14.7659L4.10769 13.8067C4.17035 13.7854 4.2361 13.7744 4.30231 13.7744C4.41039 13.7746 4.51651 13.8033 4.61 13.8575C5.63908 14.4529 6.80682 14.7668 7.99572 14.7675C9.18463 14.7683 10.3528 14.4559 11.3826 13.8618C12.4124 13.2677 13.2676 12.4128 13.8621 11.3832C14.4566 10.3536 14.7695 9.18563 14.7692 7.99672Z"/>
</svg>
