<svg fill="currentColor" width="16" height="16" viewBox="0 0 16 16" xmlns="http://www.w3.org/2000/svg">
<path d="M8.92308 7.99745C8.92308 8.18002 8.86894 8.35849 8.76751 8.51028C8.66608 8.66208 8.52192 8.7804 8.35325 8.85026C8.18458 8.92013 7.99898 8.93841 7.81992 8.90279C7.64086 8.86717 7.47638 8.77926 7.34729 8.65016C7.21819 8.52107 7.13028 8.35659 7.09466 8.17753C7.05904 7.99847 7.07732 7.81287 7.14719 7.6442C7.21705 7.47553 7.33537 7.33137 7.48717 7.22994C7.63897 7.12851 7.81743 7.07437 8 7.07437C8.24482 7.07437 8.4796 7.17163 8.65271 7.34474C8.82582 7.51785 8.92308 7.75264 8.92308 7.99745ZM4.61538 7.07437C4.43282 7.07437 4.25435 7.12851 4.10255 7.22994C3.95075 7.33137 3.83244 7.47553 3.76257 7.6442C3.69271 7.81287 3.67443 7.99847 3.71004 8.17753C3.74566 8.35659 3.83358 8.52107 3.96267 8.65016C4.09176 8.77926 4.25624 8.86717 4.4353 8.90279C4.61436 8.93841 4.79996 8.92013 4.96863 8.85026C5.1373 8.7804 5.28147 8.66208 5.3829 8.51028C5.48432 8.35849 5.53846 8.18002 5.53846 7.99745C5.53846 7.75264 5.44121 7.51785 5.2681 7.34474C5.09499 7.17163 4.8602 7.07437 4.61538 7.07437ZM11.3846 7.07437C11.202 7.07437 11.0236 7.12851 10.8718 7.22994C10.72 7.33137 10.6017 7.47553 10.5318 7.6442C10.4619 7.81287 10.4437 7.99847 10.4793 8.17753C10.5149 8.35659 10.6028 8.52107 10.7319 8.65016C10.861 8.77926 11.0255 8.86717 11.2045 8.90279C11.3836 8.93841 11.5692 8.92013 11.7379 8.85026C11.9065 8.7804 12.0507 8.66208 12.1521 8.51028C12.2536 8.35849 12.3077 8.18002 12.3077 7.99745C12.3077 7.75264 12.2104 7.51785 12.0373 7.34474C11.8642 7.17163 11.6294 7.07437 11.3846 7.07437ZM16 7.99745C16.0003 9.37863 15.643 10.7364 14.9629 11.9385C14.2828 13.1406 13.303 14.1462 12.119 14.8573C10.935 15.5685 9.58698 15.9609 8.20626 15.9965C6.82554 16.0321 5.45912 15.7097 4.24 15.0605L1.62077 15.9336C1.40391 16.0059 1.1712 16.0164 0.948713 15.9639C0.726227 15.9114 0.522759 15.798 0.361116 15.6363C0.199473 15.4747 0.0860419 15.2712 0.0335365 15.0487C-0.0189689 14.8263 -0.00847359 14.5935 0.0638459 14.3767L0.936923 11.7575C0.366268 10.6846 0.0475362 9.49575 0.00492103 8.28127C-0.0376941 7.0668 0.196927 5.85858 0.690976 4.74832C1.18503 3.63806 1.92552 2.65495 2.85624 1.8736C3.78697 1.09225 4.88347 0.533202 6.06251 0.238893C7.24156 -0.0554157 8.47215 -0.0772518 9.6609 0.175042C10.8496 0.427336 11.9653 0.947129 12.9231 1.69497C13.881 2.4428 14.6559 3.39903 15.189 4.49106C15.7222 5.58309 15.9995 6.78223 16 7.99745ZM14.7692 7.99745C14.7689 6.95908 14.5298 5.9347 14.0702 5.00356C13.6107 4.07242 12.9431 3.25948 12.1191 2.62763C11.2951 1.99578 10.3368 1.56197 9.31829 1.35975C8.2998 1.15753 7.24845 1.19233 6.24556 1.46145C5.24268 1.73057 4.31515 2.2268 3.53473 2.91175C2.75432 3.5967 2.14194 4.45201 1.74497 5.4115C1.348 6.37099 1.17709 7.40894 1.24546 8.44506C1.31382 9.48117 1.61963 10.4877 2.13923 11.3867C2.18284 11.4622 2.20992 11.546 2.21867 11.6328C2.22742 11.7195 2.21765 11.8071 2.19 11.8898L1.23077 14.7667L4.10769 13.8074C4.17035 13.7861 4.2361 13.7752 4.30231 13.7751C4.41039 13.7753 4.51651 13.804 4.61 13.8582C5.63908 14.4536 6.80682 14.7675 7.99572 14.7682C9.18463 14.769 10.3528 14.4566 11.3826 13.8625C12.4124 13.2684 13.2676 12.4135 13.8621 11.384C14.4566 10.3544 14.7695 9.18636 14.7692 7.99745Z"/>
</svg>
