<svg fill="currentColor" width="16" height="16" viewBox="0 0 16 16" xmlns="http://www.w3.org/2000/svg">
<path d="M15.8125 3.33285L5.57291 13.5724C5.51347 13.6319 5.44289 13.6791 5.3652 13.7113C5.28751 13.7435 5.20423 13.7601 5.12013 13.7601C5.03603 13.7601 4.95275 13.7435 4.87506 13.7113C4.79737 13.6791 4.72678 13.6319 4.66735 13.5724L0.187547 9.0926C0.0674628 8.97251 0 8.80964 0 8.63982C0 8.46999 0.0674628 8.30712 0.187547 8.18704C0.307632 8.06695 0.470502 7.99949 0.640327 7.99949C0.810153 7.99949 0.973022 8.06695 1.09311 8.18704L5.12013 12.2149L14.9069 2.42729C15.027 2.30721 15.1898 2.23975 15.3597 2.23975C15.5295 2.23975 15.6924 2.30721 15.8125 2.42729C15.9325 2.54738 16 2.71025 16 2.88007C16 3.0499 15.9325 3.21277 15.8125 3.33285Z"/>
</svg>
