<svg fill="currentColor" width="16" height="16" viewBox="0 0 16 16" xmlns="http://www.w3.org/2000/svg">
<g clip-path="url(#clip0_3526_1271)">
<path d="M8 0C6.41775 0 4.87104 0.469192 3.55544 1.34824C2.23985 2.22729 1.21447 3.47672 0.608967 4.93853C0.00346628 6.40034 -0.15496 8.00887 0.153721 9.56072C0.462403 11.1126 1.22433 12.538 2.34315 13.6569C3.46197 14.7757 4.88743 15.5376 6.43928 15.8463C7.99113 16.155 9.59966 15.9965 11.0615 15.391C12.5233 14.7855 13.7727 13.7602 14.6518 12.4446C15.5308 11.129 16 9.58225 16 8C15.9978 5.87896 15.1542 3.84543 13.6544 2.34562C12.1546 0.845814 10.121 0.00223986 8 0ZM8 14.7692C6.66118 14.7692 5.35241 14.3722 4.23922 13.6284C3.12603 12.8846 2.2584 11.8274 1.74605 10.5905C1.2337 9.35356 1.09965 7.99249 1.36084 6.67939C1.62203 5.36629 2.26674 4.16013 3.21343 3.21343C4.16013 2.26674 5.36629 1.62203 6.67939 1.36084C7.99249 1.09965 9.35356 1.2337 10.5905 1.74605C11.8274 2.25839 12.8846 3.12602 13.6284 4.23922C14.3722 5.35241 14.7692 6.66117 14.7692 8C14.7672 9.79469 14.0534 11.5153 12.7843 12.7843C11.5153 14.0534 9.79469 14.7672 8 14.7692ZM10.4615 9.23077H9.84616V4.30769C9.84603 4.17956 9.80592 4.05466 9.7314 3.95042C9.65689 3.84618 9.55169 3.7678 9.43049 3.72621C9.30929 3.68463 9.17814 3.68191 9.05532 3.71844C8.9325 3.75498 8.82415 3.82893 8.74539 3.93L4.4377 9.46846C4.36702 9.55937 4.32327 9.66829 4.31143 9.78283C4.29958 9.89736 4.3201 10.0129 4.37066 10.1164C4.42123 10.2198 4.49981 10.307 4.59746 10.368C4.69512 10.4291 4.80793 10.4615 4.92308 10.4615H8.61539V11.6923C8.61539 11.8555 8.68022 12.012 8.79563 12.1275C8.91104 12.2429 9.06756 12.3077 9.23077 12.3077C9.39398 12.3077 9.55051 12.2429 9.66592 12.1275C9.78132 12.012 9.84616 11.8555 9.84616 11.6923V10.4615H10.4615C10.6248 10.4615 10.7813 10.3967 10.8967 10.2813C11.0121 10.1659 11.0769 10.0094 11.0769 9.84615C11.0769 9.68294 11.0121 9.52642 10.8967 9.41101C10.7813 9.2956 10.6248 9.23077 10.4615 9.23077ZM8.61539 9.23077H6.18154L8.61539 6.10154V9.23077Z"/>
</g>
<defs>
<clipPath id="clip0_3526_1271">
<rect width="16" height="16"/>
</clipPath>
</defs>
</svg>
