<svg fill="currentColor" width="16" height="16" viewBox="0 0 16 16" xmlns="http://www.w3.org/2000/svg">
<g clip-path="url(#clip0_3526_1273)">
<path d="M8 0C6.41775 0 4.87104 0.469192 3.55544 1.34824C2.23985 2.22729 1.21447 3.47672 0.608967 4.93853C0.00346625 6.40034 -0.15496 8.00887 0.153721 9.56072C0.462403 11.1126 1.22433 12.538 2.34315 13.6569C3.46197 14.7757 4.88743 15.5376 6.43928 15.8463C7.99113 16.155 9.59966 15.9965 11.0615 15.391C12.5233 14.7855 13.7727 13.7602 14.6518 12.4446C15.5308 11.129 16 9.58225 16 8C15.9978 5.87896 15.1542 3.84543 13.6544 2.34562C12.1546 0.845814 10.121 0.00223986 8 0ZM8 14.7692C6.66118 14.7692 5.35242 14.3722 4.23922 13.6284C3.12603 12.8846 2.2584 11.8274 1.74605 10.5905C1.2337 9.35356 1.09965 7.99249 1.36084 6.67939C1.62203 5.36629 2.26674 4.16013 3.21343 3.21343C4.16013 2.26674 5.36629 1.62203 6.67939 1.36084C7.99249 1.09965 9.35356 1.2337 10.5905 1.74605C11.8274 2.25839 12.8846 3.12602 13.6284 4.23922C14.3722 5.35241 14.7692 6.66117 14.7692 8C14.7672 9.79469 14.0534 11.5153 12.7843 12.7843C11.5153 14.0534 9.79469 14.7672 8 14.7692ZM8 6.76923C7.95308 6.76923 7.90616 6.76923 7.86 6.76923L9.14385 4.62308C9.18527 4.55368 9.21261 4.4768 9.22432 4.39684C9.23602 4.31687 9.23186 4.23538 9.21208 4.15702C9.19229 4.07867 9.15727 4.00497 9.109 3.94015C9.06073 3.87533 9.00017 3.82065 8.93077 3.77923C8.86137 3.73781 8.7845 3.71047 8.70453 3.69877C8.62457 3.68706 8.54308 3.69122 8.46472 3.711C8.38636 3.73079 8.31267 3.76582 8.24785 3.81408C8.18302 3.86235 8.12834 3.92291 8.08693 3.99231L5.6077 8.14615C5.30098 8.67349 5.17697 9.28734 5.25494 9.89239C5.33291 10.4974 5.60848 11.0598 6.03887 11.4921C6.46925 11.9245 7.03036 12.2026 7.63504 12.2833C8.23972 12.3641 8.85414 12.2429 9.38286 11.9385C9.91158 11.6342 10.325 11.1638 10.559 10.6004C10.7929 10.037 10.8343 9.41214 10.6766 8.82282C10.519 8.2335 10.1711 7.71273 9.68713 7.34138C9.20313 6.97004 8.61005 6.76891 8 6.76923ZM8 11.0769C7.69572 11.0769 7.39828 10.9867 7.14528 10.8176C6.89228 10.6486 6.69509 10.4083 6.57865 10.1272C6.46221 9.84609 6.43174 9.53675 6.4911 9.23832C6.55047 8.93989 6.69699 8.66576 6.91215 8.45061C7.1273 8.23545 7.40143 8.08892 7.69986 8.02956C7.9983 7.9702 8.30763 8.00067 8.58875 8.11711C8.86987 8.23355 9.11014 8.43074 9.27919 8.68374C9.44824 8.93674 9.53847 9.23418 9.53847 9.53846C9.53847 9.94649 9.37638 10.3378 9.08786 10.6263C8.79934 10.9148 8.40803 11.0769 8 11.0769Z"/>
</g>
<defs>
<clipPath id="clip0_3526_1273">
<rect width="16" height="16"/>
</clipPath>
</defs>
</svg>
