<svg fill="currentColor" width="16" height="16" viewBox="0 0 16 16" xmlns="http://www.w3.org/2000/svg">
<g clip-path="url(#clip0_3526_1268)">
<path d="M8 0C6.41775 0 4.87104 0.469192 3.55544 1.34824C2.23985 2.22729 1.21447 3.47672 0.608967 4.93853C0.00346628 6.40034 -0.15496 8.00887 0.153721 9.56072C0.462403 11.1126 1.22433 12.538 2.34315 13.6569C3.46197 14.7757 4.88743 15.5376 6.43928 15.8463C7.99113 16.155 9.59966 15.9965 11.0615 15.391C12.5233 14.7855 13.7727 13.7602 14.6518 12.4446C15.5308 11.129 16 9.58225 16 8C15.9978 5.87896 15.1542 3.84543 13.6544 2.34562C12.1546 0.845814 10.121 0.00223986 8 0ZM8 14.7692C6.66118 14.7692 5.35241 14.3722 4.23922 13.6284C3.12603 12.8846 2.2584 11.8274 1.74605 10.5905C1.2337 9.35356 1.09965 7.99249 1.36084 6.67939C1.62203 5.36629 2.26674 4.16013 3.21343 3.21343C4.16013 2.26674 5.36629 1.62203 6.67939 1.36084C7.99249 1.09965 9.35356 1.2337 10.5905 1.74605C11.8274 2.25839 12.8846 3.12602 13.6284 4.23922C14.3722 5.35241 14.7692 6.66117 14.7692 8C14.7672 9.79469 14.0534 11.5153 12.7843 12.7843C11.5153 14.0534 9.79469 14.7672 8 14.7692ZM8.92308 4.30769V11.6923C8.92308 11.8555 8.85825 12.012 8.74284 12.1275C8.62743 12.2429 8.47091 12.3077 8.3077 12.3077C8.14449 12.3077 7.98796 12.2429 7.87255 12.1275C7.75715 12.012 7.69231 11.8555 7.69231 11.6923V5.46154L6.80308 6.05462C6.7358 6.09947 6.66035 6.13063 6.58103 6.14632C6.50171 6.16201 6.42008 6.16193 6.34079 6.14607C6.2615 6.13021 6.18612 6.09889 6.11893 6.0539C6.05175 6.00891 5.99409 5.95112 5.94923 5.88385C5.90438 5.81657 5.87322 5.74112 5.85753 5.6618C5.84184 5.58248 5.84192 5.50084 5.85778 5.42156C5.87364 5.34227 5.90496 5.26688 5.94995 5.1997C5.99494 5.13251 6.05273 5.07485 6.12 5.03L7.96616 3.79923C8.05859 3.73756 8.16599 3.70207 8.27696 3.69652C8.38793 3.69096 8.49834 3.71556 8.59646 3.7677C8.69458 3.81984 8.77675 3.89757 8.83426 3.99264C8.89177 4.08771 8.92246 4.19658 8.92308 4.30769Z"/>
</g>
<defs>
<clipPath id="clip0_3526_1268">
<rect width="16" height="16"/>
</clipPath>
</defs>
</svg>
