<svg fill="currentColor" width="16" height="16" viewBox="0 0 16 16" xmlns="http://www.w3.org/2000/svg">
<path d="M10.963 10.074C10.963 10.2312 10.9006 10.3819 10.7894 10.4931C10.6783 10.6042 10.5276 10.6666 10.3704 10.6666H5.62962C5.47246 10.6666 5.32173 10.6042 5.21059 10.4931C5.09946 10.3819 5.03702 10.2312 5.03702 10.074C5.03702 9.91687 5.09946 9.76614 5.21059 9.65501C5.32173 9.54387 5.47246 9.48144 5.62962 9.48144H10.3704C10.5276 9.48144 10.6783 9.54387 10.7894 9.65501C10.9006 9.76614 10.963 9.91687 10.963 10.074ZM10.3704 7.11105H5.62962C5.47246 7.11105 5.32173 7.17349 5.21059 7.28462C5.09946 7.39575 5.03702 7.54648 5.03702 7.70365C5.03702 7.86081 5.09946 8.01154 5.21059 8.12268C5.32173 8.23381 5.47246 8.29624 5.62962 8.29624H10.3704C10.5276 8.29624 10.6783 8.23381 10.7894 8.12268C10.9006 8.01154 10.963 7.86081 10.963 7.70365C10.963 7.54648 10.9006 7.39575 10.7894 7.28462C10.6783 7.17349 10.5276 7.11105 10.3704 7.11105ZM14.5186 2.37028V14.8148C14.5186 15.1291 14.3937 15.4306 14.1714 15.6529C13.9492 15.8751 13.6477 16 13.3334 16H2.66664C2.35231 16 2.05085 15.8751 1.82858 15.6529C1.60631 15.4306 1.48145 15.1291 1.48145 14.8148V2.37028C1.48145 2.05595 1.60631 1.75449 1.82858 1.53222C2.05085 1.30995 2.35231 1.18509 2.66664 1.18509H5.35258C5.68555 0.812287 6.0935 0.514013 6.54972 0.30979C7.00595 0.105567 7.50016 0 8.00001 0C8.49986 0 8.99407 0.105567 9.45029 0.30979C9.90652 0.514013 10.3145 0.812287 10.6474 1.18509H13.3334C13.6477 1.18509 13.9492 1.30995 14.1714 1.53222C14.3937 1.75449 14.5186 2.05595 14.5186 2.37028ZM5.62962 3.55547H10.3704C10.3704 2.92681 10.1207 2.32389 9.67612 1.87936C9.23159 1.43482 8.62867 1.18509 8.00001 1.18509C7.37134 1.18509 6.76842 1.43482 6.32389 1.87936C5.87936 2.32389 5.62962 2.92681 5.62962 3.55547ZM13.3334 2.37028H11.3519C11.4867 2.75089 11.5556 3.1517 11.5556 3.55547V4.14807C11.5556 4.30524 11.4932 4.45596 11.382 4.5671C11.2709 4.67823 11.1202 4.74067 10.963 4.74067H5.03702C4.87986 4.74067 4.72913 4.67823 4.618 4.5671C4.50686 4.45596 4.44443 4.30524 4.44443 4.14807V3.55547C4.44444 3.1517 4.51333 2.75089 4.64813 2.37028H2.66664V14.8148H13.3334V2.37028Z"/>
</svg>
