<svg fill="currentColor" width="16" height="16" viewBox="0 0 16 16" xmlns="http://www.w3.org/2000/svg">
<path d="M9.71426 7.42857H8.5714V2.85714H9.14283C9.74904 2.85714 10.3304 3.09796 10.7591 3.52661C11.1877 3.95527 11.4285 4.53665 11.4285 5.14286C11.4285 5.29441 11.4887 5.43975 11.5959 5.54692C11.7031 5.65408 11.8484 5.71429 12 5.71429C12.1515 5.71429 12.2969 5.65408 12.404 5.54692C12.5112 5.43975 12.5714 5.29441 12.5714 5.14286C12.5705 4.23383 12.2089 3.36231 11.5662 2.71954C10.9234 2.07676 10.0519 1.71523 9.14283 1.71429H8.5714V0.571429C8.5714 0.419876 8.5112 0.274531 8.40404 0.167368C8.29687 0.0602039 8.15153 0 7.99997 0C7.84842 0 7.70308 0.0602039 7.59591 0.167368C7.48875 0.274531 7.42854 0.419876 7.42854 0.571429V1.71429H6.85712C5.9478 1.71429 5.07573 2.07551 4.43275 2.71849C3.78977 3.36147 3.42855 4.23354 3.42855 5.14286C3.42855 6.05217 3.78977 6.92424 4.43275 7.56722C5.07573 8.21021 5.9478 8.57143 6.85712 8.57143H7.42854V13.1429H6.28569C5.67948 13.1429 5.0981 12.902 4.66944 12.4734C4.24079 12.0447 3.99997 11.4634 3.99997 10.8571C3.99997 10.7056 3.93977 10.5602 3.83261 10.4531C3.72544 10.3459 3.5801 10.2857 3.42855 10.2857C3.27699 10.2857 3.13165 10.3459 3.02448 10.4531C2.91732 10.5602 2.85712 10.7056 2.85712 10.8571C2.85806 11.7662 3.21959 12.6377 3.86237 13.2805C4.50514 13.9232 5.37666 14.2848 6.28569 14.2857H7.42854V15.4286C7.42854 15.5801 7.48875 15.7255 7.59591 15.8326C7.70308 15.9398 7.84842 16 7.99997 16C8.15153 16 8.29687 15.9398 8.40404 15.8326C8.5112 15.7255 8.5714 15.5801 8.5714 15.4286V14.2857H9.71426C10.6236 14.2857 11.4956 13.9245 12.1386 13.2815C12.7816 12.6385 13.1428 11.7665 13.1428 10.8571C13.1428 9.94783 12.7816 9.07576 12.1386 8.43278C11.4956 7.78979 10.6236 7.42857 9.71426 7.42857ZM6.85712 7.42857C6.25091 7.42857 5.66953 7.18776 5.24087 6.7591C4.81222 6.33045 4.5714 5.74907 4.5714 5.14286C4.5714 4.53665 4.81222 3.95527 5.24087 3.52661C5.66953 3.09796 6.25091 2.85714 6.85712 2.85714H7.42854V7.42857H6.85712ZM9.71426 13.1429H8.5714V8.57143H9.71426C10.3205 8.57143 10.9018 8.81225 11.3305 9.2409C11.7592 9.66955 12 10.2509 12 10.8571C12 11.4634 11.7592 12.0447 11.3305 12.4734C10.9018 12.902 10.3205 13.1429 9.71426 13.1429Z"/>
</svg>
