<svg fill="currentColor" width="16" height="16" viewBox="0 0 16 16" xmlns="http://www.w3.org/2000/svg">
<g clip-path="url(#clip0_4467_11)">
<path d="M15.6766 7.21934L8.78066 0.323373C8.67815 0.220852 8.55644 0.139527 8.42249 0.0840421C8.28855 0.0285576 8.14498 0 8 0C7.85502 0 7.71145 0.0285576 7.57751 0.0840421C7.44356 0.139527 7.32185 0.220852 7.21934 0.323373L0.323373 7.21934C0.220852 7.32185 0.139527 7.44356 0.0840421 7.57751C0.0285576 7.71145 0 7.85502 0 8C0 8.14498 0.0285576 8.28855 0.0840421 8.42249C0.139527 8.55644 0.220852 8.67815 0.323373 8.78066L7.21934 15.6766C7.32185 15.7791 7.44356 15.8605 7.57751 15.916C7.71145 15.9714 7.85502 16 8 16C8.14498 16 8.28855 15.9714 8.42249 15.916C8.55644 15.8605 8.67815 15.7791 8.78066 15.6766L15.6766 8.78066C15.7791 8.67815 15.8605 8.55644 15.916 8.42249C15.9714 8.28855 16 8.14498 16 8C16 7.85502 15.9714 7.71145 15.916 7.57751C15.8605 7.44356 15.7791 7.32185 15.6766 7.21934ZM14.9226 8.026L8.02667 14.9226C8.01948 14.9295 8.00993 14.9333 8 14.9333C7.99007 14.9333 7.98052 14.9295 7.97333 14.9226L1.07737 8.026C1.07061 8.01903 1.06683 8.00971 1.06683 8C1.06683 7.99029 1.07061 7.98097 1.07737 7.974L7.97333 1.07737C7.98052 1.07052 7.99007 1.0667 8 1.0667C8.00993 1.0667 8.01948 1.07052 8.02667 1.07737L14.9226 7.974C14.9294 7.98097 14.9332 7.99029 14.9332 8C14.9332 8.00971 14.9294 8.01903 14.9226 8.026ZM11.044 7.09267C11.0936 7.1422 11.1329 7.20102 11.1597 7.26577C11.1866 7.33051 11.2004 7.39992 11.2004 7.47C11.2004 7.54009 11.1866 7.60949 11.1597 7.67424C11.1329 7.73898 11.0936 7.7978 11.044 7.84733L9.44399 9.44733C9.34392 9.5474 9.20819 9.60362 9.06666 9.60362C8.92513 9.60362 8.7894 9.5474 8.68933 9.44733C8.58926 9.34725 8.53303 9.21152 8.53303 9.06999C8.53303 8.92847 8.58926 8.79274 8.68933 8.69266L9.37933 8H6.93334C6.65044 8 6.37913 8.11238 6.1791 8.31242C5.97906 8.51246 5.86668 8.78376 5.86668 9.06666V9.59999C5.86668 9.74144 5.81049 9.8771 5.71047 9.97711C5.61045 10.0771 5.4748 10.1333 5.33335 10.1333C5.1919 10.1333 5.05624 10.0771 4.95623 9.97711C4.85621 9.8771 4.80002 9.74144 4.80002 9.59999V9.06666C4.80002 8.50087 5.02478 7.95825 5.42485 7.55817C5.82493 7.1581 6.36755 6.93334 6.93334 6.93334H9.37933L8.68933 6.24401C8.58926 6.14394 8.53303 6.0082 8.53303 5.86668C8.53303 5.72515 8.58926 5.58942 8.68933 5.48935C8.7894 5.38927 8.92513 5.33305 9.06666 5.33305C9.20819 5.33305 9.34392 5.38927 9.44399 5.48935L11.044 7.09267Z"/>
</g>
<defs>
<clipPath id="clip0_4467_11">
<rect width="16" height="16"/>
</clipPath>
</defs>
</svg>
