<svg fill="currentColor" width="16" height="16" viewBox="0 0 16 16" xmlns="http://www.w3.org/2000/svg">
<path d="M13.8462 9.84619C13.8462 10.0288 13.7921 10.2072 13.6906 10.359C13.5892 10.5108 13.445 10.6291 13.2764 10.699C13.1077 10.7689 12.9221 10.7871 12.743 10.7515C12.564 10.7159 12.3995 10.628 12.2704 10.4989C12.1413 10.3698 12.0534 10.2053 12.0178 10.0263C11.9822 9.84721 12.0004 9.66161 12.0703 9.49294C12.1402 9.32427 12.2585 9.1801 12.4103 9.07868C12.5621 8.97725 12.7406 8.92311 12.9231 8.92311C13.1679 8.92311 13.4027 9.02036 13.5758 9.19347C13.7489 9.36658 13.8462 9.60137 13.8462 9.84619ZM13.4962 12.8685C13.361 13.7399 12.919 14.5343 12.2497 15.1085C11.5804 15.6827 10.728 15.9989 9.84619 16.0001H8.00003C7.02108 15.999 6.08251 15.6097 5.39029 14.9175C4.69806 14.2253 4.30873 13.2867 4.30771 12.3077V9.19157C3.11811 9.04169 2.0241 8.46284 1.23098 7.56364C0.437857 6.66444 0.000150466 5.50671 0 4.30771V1.23077C0 0.904352 0.12967 0.5913 0.360485 0.360485C0.5913 0.12967 0.904352 0 1.23077 0H2.46155C2.62476 0 2.78128 0.0648352 2.89669 0.180243C3.0121 0.29565 3.07693 0.452176 3.07693 0.615387C3.07693 0.778597 3.0121 0.935123 2.89669 1.05053C2.78128 1.16594 2.62476 1.23077 2.46155 1.23077H1.23077V4.30771C1.23073 4.79676 1.32784 5.28095 1.51647 5.73216C1.7051 6.18337 1.98148 6.59262 2.32958 6.93613C2.67767 7.27965 3.09054 7.55059 3.54421 7.73322C3.99788 7.91586 4.48332 8.00655 4.97232 8.00003C6.98079 7.97387 8.61541 6.28848 8.61541 4.24386V1.23077H7.38464C7.22143 1.23077 7.0649 1.16594 6.9495 1.05053C6.83409 0.935123 6.76925 0.778597 6.76925 0.615387C6.76925 0.452176 6.83409 0.29565 6.9495 0.180243C7.0649 0.0648352 7.22143 0 7.38464 0H8.61541C8.94184 0 9.25489 0.12967 9.4857 0.360485C9.71652 0.5913 9.84619 0.904352 9.84619 1.23077V4.24386C9.84619 6.77002 7.95926 8.88157 5.53848 9.1908V12.3077C5.53848 12.9606 5.79782 13.5867 6.25945 14.0483C6.72108 14.5099 7.34718 14.7693 8.00003 14.7693H9.84619C10.4052 14.7684 10.9473 14.5776 11.3836 14.2281C11.8199 13.8787 12.1246 13.3915 12.2477 12.8462C11.5045 12.6793 10.8497 12.2426 10.4099 11.6206C9.97004 10.9987 9.77656 10.2358 9.86684 9.4794C9.95711 8.72305 10.3247 8.02706 10.8986 7.52612C11.4724 7.02518 12.2116 6.75489 12.9733 6.76756C13.7349 6.78023 14.4647 7.07496 15.0216 7.59471C15.5784 8.11446 15.9227 8.82229 15.9878 9.58123C16.0528 10.3402 15.8341 11.0963 15.3738 11.7032C14.9136 12.3102 14.2445 12.7248 13.4962 12.867V12.8685ZM14.7693 9.84619C14.7693 9.48105 14.661 9.12412 14.4581 8.82052C14.2553 8.51692 13.967 8.28029 13.6296 8.14056C13.2923 8.00083 12.9211 7.96427 12.563 8.0355C12.2048 8.10674 11.8759 8.28257 11.6177 8.54075C11.3595 8.79895 11.1837 9.1279 11.1124 9.48602C11.0412 9.84414 11.0778 10.2153 11.2175 10.5527C11.3572 10.89 11.5939 11.1784 11.8975 11.3812C12.201 11.5841 12.558 11.6923 12.9231 11.6923C13.4128 11.6923 13.8823 11.4978 14.2286 11.1516C14.5748 10.8054 14.7693 10.3358 14.7693 9.84619Z"/>
</svg>
