<svg fill="currentColor" width="16" height="16" viewBox="0 0 16 16" xmlns="http://www.w3.org/2000/svg">
<path d="M16 9.42836V13.9998C16 14.3029 15.8796 14.5936 15.6653 14.8079C15.4509 15.0222 15.1602 15.1426 14.8571 15.1426H1.14286C0.839753 15.1426 0.549062 15.0222 0.334735 14.8079C0.120408 14.5936 0 14.3029 0 13.9998V9.42836C0 9.12526 0.120408 8.83457 0.334735 8.62024C0.549062 8.40591 0.839753 8.2855 1.14286 8.2855H4C4.15155 8.2855 4.2969 8.34571 4.40406 8.45287C4.51122 8.56004 4.57143 8.70538 4.57143 8.85693C4.57143 9.00849 4.51122 9.15383 4.40406 9.26099C4.2969 9.36816 4.15155 9.42836 4 9.42836H1.14286V13.9998H14.8571V9.42836H12C11.8484 9.42836 11.7031 9.36816 11.5959 9.26099C11.4888 9.15383 11.4286 9.00849 11.4286 8.85693C11.4286 8.70538 11.4888 8.56004 11.5959 8.45287C11.7031 8.34571 11.8484 8.2855 12 8.2855H14.8571C15.1602 8.2855 15.4509 8.40591 15.6653 8.62024C15.8796 8.83457 16 9.12526 16 9.42836ZM7.59571 9.26122C7.64878 9.31435 7.71181 9.3565 7.78118 9.38525C7.85055 9.41401 7.92491 9.42881 8 9.42881C8.0751 9.42881 8.14945 9.41401 8.21882 9.38525C8.28819 9.3565 8.35122 9.31435 8.40429 9.26122L11.8329 5.83265C11.9401 5.72542 12.0003 5.58 12.0003 5.42836C12.0003 5.27673 11.9401 5.1313 11.8329 5.02408C11.7256 4.91685 11.5802 4.85662 11.4286 4.85662C11.2769 4.85662 11.1315 4.91685 11.0243 5.02408L8.57143 7.47765V1.42836C8.57143 1.27681 8.51123 1.13146 8.40406 1.0243C8.2969 0.917137 8.15155 0.856934 8 0.856934C7.84845 0.856934 7.7031 0.917137 7.59594 1.0243C7.48878 1.13146 7.42857 1.27681 7.42857 1.42836V7.47765L4.97571 5.02408C4.86849 4.91685 4.72307 4.85662 4.57143 4.85662C4.41979 4.85662 4.27437 4.91685 4.16714 5.02408C4.05992 5.1313 3.99968 5.27673 3.99968 5.42836C3.99968 5.58 4.05992 5.72542 4.16714 5.83265L7.59571 9.26122ZM13.1429 11.7141C13.1429 11.5445 13.0926 11.3788 12.9984 11.2379C12.9042 11.0969 12.7704 10.9871 12.6137 10.9222C12.4571 10.8573 12.2848 10.8403 12.1185 10.8734C11.9522 10.9065 11.7995 10.9881 11.6796 11.108C11.5598 11.2279 11.4781 11.3806 11.445 11.5469C11.412 11.7131 11.4289 11.8855 11.4938 12.0421C11.5587 12.1987 11.6686 12.3326 11.8095 12.4268C11.9505 12.5209 12.1162 12.5712 12.2857 12.5712C12.513 12.5712 12.7311 12.4809 12.8918 12.3202C13.0526 12.1594 13.1429 11.9414 13.1429 11.7141Z"/>
</svg>
