<svg fill="currentColor" width="16" height="16" viewBox="0 0 16 16" xmlns="http://www.w3.org/2000/svg">
<path d="M16 7.99868C16.0033 9.26872 15.5913 10.505 14.8267 11.5191C14.7846 11.5752 14.7319 11.6223 14.6715 11.658C14.6112 11.6936 14.5444 11.7171 14.475 11.7269C14.4056 11.7367 14.335 11.7328 14.2671 11.7154C14.1992 11.6979 14.1355 11.6672 14.0794 11.6251C14.0234 11.583 13.9762 11.5303 13.9406 11.4699C13.9049 11.4096 13.8815 11.3428 13.8717 11.2734C13.8618 11.204 13.8657 11.1334 13.8832 11.0655C13.9007 10.9976 13.9313 10.9339 13.9734 10.8778C14.5993 10.0487 14.9364 9.03749 14.9334 7.99868C14.9334 6.72572 14.4277 5.5049 13.5276 4.60478C12.6275 3.70467 11.4066 3.19898 10.1337 3.19898C8.86072 3.19898 7.6399 3.70467 6.73978 4.60478C5.83966 5.5049 5.33398 6.72572 5.33398 7.99868C5.33398 8.14012 5.27779 8.27577 5.17778 8.37578C5.07777 8.4758 4.94212 8.53198 4.80068 8.53198C4.65924 8.53198 4.52359 8.4758 4.42358 8.37578C4.32357 8.27577 4.26738 8.14012 4.26738 7.99868C4.26712 7.4605 4.34092 6.92484 4.4867 6.40678C4.41404 6.39878 4.34071 6.39878 4.26738 6.39878C3.41874 6.39878 2.60486 6.7359 2.00478 7.33598C1.4047 7.93606 1.06758 8.74994 1.06758 9.59858C1.06758 10.4472 1.4047 11.2611 2.00478 11.8612C2.60486 12.4613 3.41874 12.7984 4.26738 12.7984H5.86728C6.00872 12.7984 6.14437 12.8546 6.24438 12.9546C6.34439 13.0546 6.40058 13.1902 6.40058 13.3317C6.40058 13.4731 6.34439 13.6088 6.24438 13.7088C6.14437 13.8088 6.00872 13.865 5.86728 13.865H4.26738C3.68087 13.8651 3.10063 13.7443 2.56289 13.5101C2.02516 13.276 1.54149 12.9334 1.14209 12.5039C0.74269 12.0744 0.436136 11.5671 0.241577 11.0138C0.0470172 10.4605 -0.0313695 9.87307 0.0113124 9.28811C0.0539943 8.70315 0.216828 8.13328 0.489644 7.61407C0.762459 7.09487 1.1394 6.6375 1.59691 6.27052C2.05443 5.90354 2.5827 5.63483 3.14873 5.48118C3.71476 5.32753 4.30639 5.29224 4.88667 5.37751C5.47757 4.19569 6.45014 3.24796 7.64685 2.68784C8.84356 2.12771 10.1943 1.98799 11.4803 2.29131C12.7664 2.59463 13.9123 3.32322 14.7326 4.35908C15.5529 5.39493 15.9995 6.67737 16 7.99868ZM11.3563 10.8212L10.1337 12.0444V7.99868C10.1337 7.85724 10.0775 7.7216 9.97748 7.62158C9.87747 7.52157 9.74182 7.46538 9.60038 7.46538C9.45894 7.46538 9.32329 7.52157 9.22328 7.62158C9.12327 7.7216 9.06708 7.85724 9.06708 7.99868V12.0444L7.84449 10.8212C7.74442 10.7211 7.6087 10.6649 7.46718 10.6649C7.32566 10.6649 7.18994 10.7211 7.08987 10.8212C6.9898 10.9212 6.93358 11.057 6.93358 11.1985C6.93358 11.34 6.9898 11.4757 7.08987 11.5758L9.22307 13.709C9.2726 13.7586 9.33142 13.7979 9.39616 13.8248C9.4609 13.8516 9.5303 13.8654 9.60038 13.8654C9.67046 13.8654 9.73986 13.8516 9.8046 13.8248C9.86934 13.7979 9.92816 13.7586 9.97769 13.709L12.1109 11.5758C12.211 11.4757 12.2672 11.34 12.2672 11.1985C12.2672 11.057 12.211 10.9212 12.1109 10.8212C12.0108 10.7211 11.8751 10.6649 11.7336 10.6649C11.5921 10.6649 11.4563 10.7211 11.3563 10.8212Z"/>
</svg>
