<svg fill="currentColor" width="16" height="16" viewBox="0 0 16 16" xmlns="http://www.w3.org/2000/svg">
<path d="M8 5.71423C7.54793 5.71423 7.10601 5.84829 6.73013 6.09945C6.35424 6.3506 6.06128 6.70758 5.88828 7.12524C5.71528 7.5429 5.67001 8.00248 5.75821 8.44587C5.8464 8.88925 6.06409 9.29653 6.38376 9.61619C6.70342 9.93585 7.11069 10.1535 7.55408 10.2417C7.99747 10.3299 8.45705 10.2847 8.87471 10.1117C9.29237 9.93867 9.64934 9.64571 9.9005 9.26982C10.1517 8.89394 10.2857 8.45202 10.2857 7.99995C10.2857 7.39374 10.0449 6.81236 9.61624 6.3837C9.18759 5.95505 8.60621 5.71423 8 5.71423ZM8 9.1428C7.77396 9.1428 7.55301 9.07578 7.36506 8.9502C7.17712 8.82462 7.03064 8.64613 6.94414 8.4373C6.85764 8.22847 6.83501 7.99868 6.8791 7.77699C6.9232 7.55529 7.03205 7.35166 7.19188 7.19183C7.35171 7.03199 7.55535 6.92315 7.77704 6.87905C7.99873 6.83495 8.22852 6.85759 8.43735 6.94409C8.64618 7.03059 8.82467 7.17707 8.95025 7.36501C9.07583 7.55295 9.14286 7.77391 9.14286 7.99995C9.14286 8.30305 9.02245 8.59374 8.80812 8.80807C8.59379 9.0224 8.30311 9.1428 8 9.1428ZM2.28572 5.71423C1.83364 5.71423 1.39172 5.84829 1.01584 6.09945C0.639957 6.3506 0.346991 6.70758 0.173991 7.12524C0.000990357 7.5429 -0.0442744 8.00248 0.0439204 8.44587C0.132115 8.88925 0.349808 9.29653 0.669471 9.61619C0.989134 9.93585 1.39641 10.1535 1.83979 10.2417C2.28318 10.3299 2.74276 10.2847 3.16042 10.1117C3.57808 9.93867 3.93506 9.64571 4.18622 9.26982C4.43737 8.89394 4.57143 8.45202 4.57143 7.99995C4.57143 7.39374 4.33061 6.81236 3.90196 6.3837C3.4733 5.95505 2.89192 5.71423 2.28572 5.71423ZM2.28572 9.1428C2.05968 9.1428 1.83872 9.07578 1.65078 8.9502C1.46284 8.82462 1.31635 8.64613 1.22985 8.4373C1.14335 8.22847 1.12072 7.99868 1.16482 7.77699C1.20891 7.55529 1.31776 7.35166 1.47759 7.19183C1.63742 7.03199 1.84106 6.92315 2.06275 6.87905C2.28445 6.83495 2.51424 6.85759 2.72307 6.94409C2.9319 7.03059 3.11039 7.17707 3.23597 7.36501C3.36154 7.55295 3.42857 7.77391 3.42857 7.99995C3.42857 8.30305 3.30816 8.59374 3.09384 8.80807C2.87951 9.0224 2.58882 9.1428 2.28572 9.1428ZM13.7143 5.71423C13.2622 5.71423 12.8203 5.84829 12.4444 6.09945C12.0685 6.3506 11.7756 6.70758 11.6026 7.12524C11.4296 7.5429 11.3843 8.00248 11.4725 8.44587C11.5607 8.88925 11.7784 9.29653 12.098 9.61619C12.4177 9.93585 12.825 10.1535 13.2684 10.2417C13.7118 10.3299 14.1713 10.2847 14.589 10.1117C15.0066 9.93867 15.3636 9.64571 15.6148 9.26982C15.8659 8.89394 16 8.45202 16 7.99995C16 7.39374 15.7592 6.81236 15.3305 6.3837C14.9019 5.95505 14.3205 5.71423 13.7143 5.71423ZM13.7143 9.1428C13.4882 9.1428 13.2673 9.07578 13.0793 8.9502C12.8914 8.82462 12.7449 8.64613 12.6584 8.4373C12.5719 8.22847 12.5493 7.99868 12.5934 7.77699C12.6375 7.55529 12.7463 7.35166 12.9062 7.19183C13.066 7.03199 13.2696 6.92315 13.4913 6.87905C13.713 6.83495 13.9428 6.85759 14.1516 6.94409C14.3605 7.03059 14.539 7.17707 14.6645 7.36501C14.7901 7.55295 14.8571 7.77391 14.8571 7.99995C14.8571 8.30305 14.7367 8.59374 14.5224 8.80807C14.3081 9.0224 14.0174 9.1428 13.7143 9.1428Z"/>
</svg>
