<svg fill="currentColor" width="16" height="16" viewBox="0 0 16 16" xmlns="http://www.w3.org/2000/svg">
<path d="M14.4006 0H1.59945C1.25994 0 0.934341 0.134869 0.694273 0.374937C0.454205 0.615005 0.319336 0.940608 0.319336 1.28012V5.98214C0.319336 13.1524 6.38548 15.5302 7.59999 15.9334C7.8593 16.0222 8.14076 16.0222 8.40006 15.9334C9.61617 15.5294 15.6807 13.1516 15.6807 5.98134V1.28012C15.6807 0.940608 15.5458 0.615005 15.3058 0.374937C15.0657 0.134869 14.7401 0 14.4006 0ZM14.4006 5.98374C14.4006 12.2579 9.09293 14.3541 8.00003 14.7189C6.91753 14.3589 1.59945 12.2643 1.59945 5.98374V1.28012H14.4006V5.98374ZM7.35997 7.68069V4.4804C7.35997 4.31065 7.4274 4.14785 7.54744 4.02781C7.66747 3.90778 7.83027 3.84035 8.00003 3.84035C8.16978 3.84035 8.33258 3.90778 8.45262 4.02781C8.57265 4.14785 8.64009 4.31065 8.64009 4.4804V7.68069C8.64009 7.85045 8.57265 8.01325 8.45262 8.13328C8.33258 8.25331 8.16978 8.32075 8.00003 8.32075C7.83027 8.32075 7.66747 8.25331 7.54744 8.13328C7.4274 8.01325 7.35997 7.85045 7.35997 7.68069ZM7.03994 10.561C7.03994 10.3711 7.09625 10.1854 7.20174 10.0276C7.30724 9.86967 7.45719 9.74661 7.63262 9.67395C7.80805 9.60128 8.00109 9.58227 8.18733 9.61931C8.37357 9.65636 8.54464 9.7478 8.67891 9.88207C8.81318 10.0163 8.90462 10.1874 8.94167 10.3736C8.97871 10.5599 8.9597 10.7529 8.88703 10.9284C8.81436 11.1038 8.69131 11.2537 8.53342 11.3592C8.37554 11.4647 8.18991 11.521 8.00003 11.521C7.7454 11.521 7.50119 11.4199 7.32114 11.2398C7.14109 11.0598 7.03994 10.8156 7.03994 10.561Z"/>
</svg>
