<svg fill="currentColor" width="16" height="16" viewBox="0 0 16 16" xmlns="http://www.w3.org/2000/svg">
<path d="M14.7692 3.07702H11.6923V2.46163C11.6923 1.972 11.4978 1.50243 11.1516 1.1562C10.8054 0.809984 10.3358 0.615479 9.84615 0.615479H6.15385C5.66422 0.615479 5.19464 0.809984 4.84842 1.1562C4.5022 1.50243 4.30769 1.972 4.30769 2.46163V3.07702H1.23077C0.904349 3.07702 0.591298 3.20669 0.360484 3.4375C0.12967 3.66832 0 3.98137 0 4.30779V14.1539C0 14.4804 0.12967 14.7934 0.360484 15.0242C0.591298 15.255 0.904349 15.3847 1.23077 15.3847H14.7692C15.0957 15.3847 15.4087 15.255 15.6395 15.0242C15.8703 14.7934 16 14.4804 16 14.1539V4.30779C16 3.98137 15.8703 3.66832 15.6395 3.4375C15.4087 3.20669 15.0957 3.07702 14.7692 3.07702ZM5.53846 2.46163C5.53846 2.29842 5.6033 2.1419 5.7187 2.02649C5.83411 1.91108 5.99064 1.84625 6.15385 1.84625H9.84615C10.0094 1.84625 10.1659 1.91108 10.2813 2.02649C10.3967 2.1419 10.4615 2.29842 10.4615 2.46163V3.07702H5.53846V2.46163ZM14.7692 14.1539H1.23077V4.30779H14.7692V14.1539ZM10.4615 9.23086C10.4615 9.39407 10.3967 9.5506 10.2813 9.66601C10.1659 9.78141 10.0094 9.84625 9.84615 9.84625H8.61539V11.077C8.61539 11.2402 8.55055 11.3968 8.43514 11.5122C8.31974 11.6276 8.16321 11.6924 8 11.6924C7.83679 11.6924 7.68026 11.6276 7.56486 11.5122C7.44945 11.3968 7.38462 11.2402 7.38462 11.077V9.84625H6.15385C5.99064 9.84625 5.83411 9.78141 5.7187 9.66601C5.6033 9.5506 5.53846 9.39407 5.53846 9.23086C5.53846 9.06765 5.6033 8.91113 5.7187 8.79572C5.83411 8.68031 5.99064 8.61548 6.15385 8.61548H7.38462V7.38471C7.38462 7.2215 7.44945 7.06497 7.56486 6.94957C7.68026 6.83416 7.83679 6.76932 8 6.76932C8.16321 6.76932 8.31974 6.83416 8.43514 6.94957C8.55055 7.06497 8.61539 7.2215 8.61539 7.38471V8.61548H9.84615C10.0094 8.61548 10.1659 8.68031 10.2813 8.79572C10.3967 8.91113 10.4615 9.06765 10.4615 9.23086Z"/>
</svg>
