<svg fill="currentColor" width="16" height="16" viewBox="0 0 16 16" xmlns="http://www.w3.org/2000/svg">
<path d="M8 0C6.41775 0 4.87103 0.469192 3.55544 1.34824C2.23985 2.22729 1.21447 3.47672 0.608967 4.93853C0.00346628 6.40034 -0.15496 8.00887 0.153721 9.56072C0.462403 11.1126 1.22433 12.538 2.34315 13.6569C3.46197 14.7757 4.88743 15.5376 6.43928 15.8463C7.99113 16.155 9.59966 15.9965 11.0615 15.391C12.5233 14.7855 13.7727 13.7602 14.6518 12.4446C15.5308 11.129 16 9.58225 16 8C15.9978 5.87895 15.1542 3.84542 13.6544 2.34562C12.1546 0.845814 10.121 0.00223986 8 0ZM8 14.7692C6.66117 14.7692 5.35241 14.3722 4.23922 13.6284C3.12603 12.8846 2.2584 11.8274 1.74605 10.5905C1.2337 9.35356 1.09965 7.99249 1.36084 6.67939C1.62203 5.36629 2.26674 4.16012 3.21343 3.21343C4.16013 2.26674 5.36629 1.62203 6.67939 1.36084C7.99249 1.09965 9.35356 1.2337 10.5905 1.74605C11.8274 2.25839 12.8846 3.12602 13.6284 4.23922C14.3722 5.35241 14.7692 6.66117 14.7692 8C14.7672 9.79468 14.0534 11.5153 12.7843 12.7843C11.5153 14.0534 9.79469 14.7672 8 14.7692ZM7.38462 8.61538V4.30769C7.38462 4.14448 7.44945 3.98796 7.56486 3.87255C7.68027 3.75714 7.83679 3.69231 8 3.69231C8.16321 3.69231 8.31974 3.75714 8.43514 3.87255C8.55055 3.98796 8.61539 4.14448 8.61539 4.30769V8.61538C8.61539 8.77859 8.55055 8.93512 8.43514 9.05053C8.31974 9.16593 8.16321 9.23077 8 9.23077C7.83679 9.23077 7.68027 9.16593 7.56486 9.05053C7.44945 8.93512 7.38462 8.77859 7.38462 8.61538ZM8.92308 11.3846C8.92308 11.5672 8.86894 11.7456 8.76751 11.8974C8.66608 12.0492 8.52192 12.1676 8.35325 12.2374C8.18458 12.3073 7.99898 12.3256 7.81992 12.29C7.64086 12.2543 7.47638 12.1664 7.34729 12.0373C7.21819 11.9082 7.13028 11.7438 7.09466 11.5647C7.05904 11.3856 7.07732 11.2 7.14719 11.0314C7.21706 10.8627 7.33537 10.7185 7.48717 10.6171C7.63897 10.5157 7.81743 10.4615 8 10.4615C8.24482 10.4615 8.4796 10.5588 8.65271 10.7319C8.82583 10.905 8.92308 11.1398 8.92308 11.3846Z"/>
</svg>
