<svg fill="currentColor" width="16" height="16" viewBox="0 0 16 16" xmlns="http://www.w3.org/2000/svg">
<path d="M15.5709 5.43726C15.41 5.25493 15.2121 5.10891 14.9905 5.00892C14.7688 4.90892 14.5284 4.85723 14.2852 4.85728H10.2854V3.71446C10.2854 2.95673 9.98435 2.23003 9.44855 1.69423C8.91275 1.15843 8.18605 0.857422 7.42831 0.857422C7.32216 0.857346 7.21808 0.886843 7.12775 0.942606C7.03742 0.998368 6.96441 1.07819 6.9169 1.17313L4.21842 6.57151H1.14282C0.839723 6.57151 0.549043 6.69191 0.334723 6.90623C0.120404 7.12055 0 7.41123 0 7.71432V13.9998C0 14.3029 0.120404 14.5936 0.334723 14.8079C0.549043 15.0222 0.839723 15.1426 1.14282 15.1426H13.4281C13.8457 15.1428 14.2491 14.9905 14.5623 14.7143C14.8756 14.4381 15.0773 14.057 15.1295 13.6427L15.9866 6.78579C16.017 6.54438 15.9956 6.29928 15.9239 6.06676C15.8523 5.83425 15.7319 5.61966 15.5709 5.43726ZM1.14282 7.71432H3.99986V13.9998H1.14282V7.71432ZM14.8523 6.64293L13.9952 13.4998C13.9778 13.638 13.9106 13.765 13.8062 13.857C13.7018 13.9491 13.5673 13.9999 13.4281 13.9998H5.14268V7.27791L7.76473 2.0331C8.15335 2.11087 8.50302 2.32091 8.75422 2.62746C9.00543 2.93401 9.14265 3.31814 9.14254 3.71446V5.42869C9.14254 5.58024 9.20274 5.72558 9.3099 5.83274C9.41706 5.9399 9.5624 6.0001 9.71395 6.0001H14.2852C14.3663 6.00007 14.4465 6.0173 14.5204 6.05064C14.5943 6.08399 14.6603 6.13268 14.7139 6.19348C14.7675 6.25429 14.8076 6.32581 14.8315 6.40331C14.8554 6.4808 14.8625 6.56248 14.8523 6.64293Z"/>
</svg>
