<svg fill="currentColor" width="16" height="16" viewBox="0 0 16 16" xmlns="http://www.w3.org/2000/svg">
<g clip-path="url(#clip0_3135_28)">
<path d="M1.95919 9.95905H0.653064C0.479861 9.95905 0.313751 10.0279 0.191278 10.1503C0.0688048 10.2728 0 10.4389 0 10.6121V15.1836C0 15.3568 0.0688048 15.5229 0.191278 15.6454C0.313751 15.7678 0.479861 15.8366 0.653064 15.8366H1.95919C2.73861 15.8366 3.4861 15.527 4.03723 14.9759C4.58836 14.4247 4.89798 13.6773 4.89798 12.8978C4.89798 12.1184 4.58836 11.3709 4.03723 10.8198C3.4861 10.2687 2.73861 9.95905 1.95919 9.95905ZM1.95919 14.5305H1.30613V11.2652H1.95919C2.3922 11.2652 2.80748 11.4372 3.11366 11.7434C3.41984 12.0496 3.59185 12.4648 3.59185 12.8978C3.59185 13.3308 3.41984 13.7461 3.11366 14.0523C2.80748 14.3585 2.3922 14.5305 1.95919 14.5305ZM15.7984 14.1297C15.9236 14.2494 15.996 14.4139 15.9998 14.5871C16.0037 14.7602 15.9386 14.9278 15.8189 15.053C15.5915 15.2977 15.3165 15.4935 15.0107 15.6283C14.705 15.763 14.375 15.8339 14.0409 15.8366C12.6001 15.8366 11.4286 14.5183 11.4286 12.8978C11.4286 11.2774 12.6001 9.95905 14.0409 9.95905C14.375 9.96176 14.705 10.0327 15.0107 10.1674C15.3165 10.3022 15.5915 10.4979 15.8189 10.7427C15.936 10.8683 15.9989 11.035 15.994 11.2067C15.9891 11.3784 15.9167 11.5412 15.7926 11.6599C15.6686 11.7787 15.5027 11.8437 15.331 11.841C15.1592 11.8384 14.9955 11.7681 14.8752 11.6456C14.7692 11.5289 14.6405 11.435 14.4971 11.3697C14.3537 11.3043 14.1985 11.2687 14.0409 11.2652C13.3209 11.2652 12.7348 11.9999 12.7348 12.8978C12.7348 13.7958 13.3209 14.5305 14.0409 14.5305C14.1985 14.527 14.3537 14.4914 14.4971 14.426C14.6405 14.3606 14.7692 14.2668 14.8752 14.1501C14.9949 14.025 15.1594 13.9525 15.3326 13.9487C15.5057 13.9449 15.6733 14.01 15.7984 14.1297ZM8.1633 9.95905C6.72248 9.95905 5.55105 11.2774 5.55105 12.8978C5.55105 14.5183 6.72248 15.8366 8.1633 15.8366C9.60413 15.8366 10.7756 14.5183 10.7756 12.8978C10.7756 11.2774 9.60413 9.95905 8.1633 9.95905ZM8.1633 14.5305C7.4433 14.5305 6.85718 13.7958 6.85718 12.8978C6.85718 11.9999 7.4433 11.2652 8.1633 11.2652C8.88331 11.2652 9.46943 11.9999 9.46943 12.8978C9.46943 13.7958 8.88331 14.5305 8.1633 14.5305ZM1.63266 7.99986C1.80586 7.99986 1.97197 7.93105 2.09445 7.80858C2.21692 7.68611 2.28573 7.52 2.28573 7.34679V1.46921H9.46943V5.3876C9.46943 5.5608 9.53824 5.72691 9.66071 5.84939C9.78318 5.97186 9.94929 6.04067 10.1225 6.04067H14.0409V7.34679C14.0409 7.52 14.1097 7.68611 14.2322 7.80858C14.3546 7.93105 14.5207 7.99986 14.6939 7.99986C14.8672 7.99986 15.0333 7.93105 15.1557 7.80858C15.2782 7.68611 15.347 7.52 15.347 7.34679V5.3876C15.3471 5.30181 15.3302 5.21685 15.2975 5.13758C15.2647 5.0583 15.2166 4.98625 15.156 4.92556L10.5845 0.354107C10.5238 0.293481 10.4518 0.245406 10.3725 0.21263C10.2932 0.179854 10.2083 0.163019 10.1225 0.163086H2.28573C1.93932 0.163086 1.6071 0.300696 1.36215 0.545642C1.11721 0.790589 0.979597 1.12281 0.979597 1.46921V7.34679C0.979597 7.52 1.0484 7.68611 1.17087 7.80858C1.29335 7.93105 1.45946 7.99986 1.63266 7.99986ZM10.7756 2.39248L13.1176 4.73454H10.7756V2.39248Z"/>
</g>
<defs>
<clipPath id="clip0_3135_28">
<rect width="16" height="16"/>
</clipPath>
</defs>
</svg>
