<svg fill="currentColor" width="16" height="16" viewBox="0 0 16 16" xmlns="http://www.w3.org/2000/svg">
<path d="M15.8918 1.34744C15.7971 1.12858 15.6401 0.942391 15.4404 0.812036C15.2407 0.681681 15.0071 0.61291 14.7686 0.614278H1.22849C0.990257 0.614747 0.757277 0.68434 0.557816 0.814614C0.358354 0.944889 0.200983 1.13025 0.104794 1.3482C0.00860422 1.56615 -0.0222702 1.80734 0.0159159 2.04249C0.0541021 2.27765 0.159708 2.49667 0.319922 2.67299L0.326076 2.67991L5.5367 8.24365V14.1544C5.53665 14.3771 5.59706 14.5958 5.71149 14.7869C5.82591 14.978 5.99007 15.1346 6.18646 15.2397C6.38285 15.3449 6.60409 15.3948 6.82662 15.3841C7.04914 15.3735 7.26459 15.3026 7.45001 15.1791L9.91184 13.5374C10.0806 13.4249 10.219 13.2726 10.3147 13.0938C10.4104 12.915 10.4604 12.7154 10.4604 12.5126V8.24365L15.6718 2.67991L15.6779 2.67299C15.8398 2.49747 15.9464 2.27816 15.9845 2.04242C16.0225 1.80669 15.9903 1.56497 15.8918 1.34744ZM9.56333 7.40586C9.34953 7.63249 9.23013 7.93208 9.22945 8.24365V12.5126L6.76762 14.1544V8.24365C6.76833 7.93097 6.64943 7.62985 6.43527 7.40201L1.22849 1.84519H14.7686L9.56333 7.40586Z"/>
</svg>
