<svg fill="currentColor" width="16" height="16" viewBox="0 0 16 16" xmlns="http://www.w3.org/2000/svg">
<path d="M16 8.00001C16 8.16975 15.9326 8.33253 15.8125 8.45256C15.6925 8.57258 15.5297 8.64001 15.36 8.64001H4.7448L9.4128 13.3072C9.47226 13.3667 9.51943 13.4373 9.55161 13.515C9.58379 13.5926 9.60036 13.6759 9.60036 13.76C9.60036 13.8441 9.58379 13.9274 9.55161 14.0051C9.51943 14.0828 9.47226 14.1533 9.4128 14.2128C9.35334 14.2723 9.28275 14.3194 9.20505 14.3516C9.12736 14.3838 9.04409 14.4004 8.96 14.4004C8.87591 14.4004 8.79264 14.3838 8.71495 14.3516C8.63725 14.3194 8.56666 14.2723 8.5072 14.2128L2.7472 8.45281C2.68769 8.39337 2.64049 8.32278 2.60828 8.24509C2.57607 8.16739 2.5595 8.08411 2.5595 8.00001C2.5595 7.9159 2.57607 7.83262 2.60828 7.75493C2.64049 7.67723 2.68769 7.60665 2.7472 7.54721L8.5072 1.78721C8.56666 1.72774 8.63725 1.68058 8.71495 1.6484C8.79264 1.61621 8.87591 1.59965 8.96 1.59965C9.04409 1.59965 9.12736 1.61621 9.20505 1.6484C9.28275 1.68058 9.35334 1.72774 9.4128 1.78721C9.47226 1.84667 9.51943 1.91726 9.55161 1.99495C9.58379 2.07265 9.60036 2.15591 9.60036 2.24001C9.60036 2.3241 9.58379 2.40737 9.55161 2.48506C9.51943 2.56275 9.47226 2.63334 9.4128 2.69281L4.7448 7.36001H15.36C15.5297 7.36001 15.6925 7.42744 15.8125 7.54746C15.9326 7.66748 16 7.83027 16 8.00001ZM0.64 0.320007C0.470261 0.320007 0.307475 0.387436 0.187452 0.507459C0.0674285 0.627482 0 0.790269 0 0.960007V15.04C0 15.2097 0.0674285 15.3725 0.187452 15.4926C0.307475 15.6126 0.470261 15.68 0.64 15.68C0.809739 15.68 0.972525 15.6126 1.09255 15.4926C1.21257 15.3725 1.28 15.2097 1.28 15.04V0.960007C1.28 0.790269 1.21257 0.627482 1.09255 0.507459C0.972525 0.387436 0.809739 0.320007 0.64 0.320007Z"/>
</svg>
