<svg fill="currentColor" width="16" height="16" viewBox="0 0 16 16" xmlns="http://www.w3.org/2000/svg">
<path d="M14.7692 3.6925H8.25462L6.15385 1.59173C6.03997 1.47695 5.90442 1.38594 5.75506 1.32401C5.60571 1.26207 5.44553 1.23045 5.28385 1.23096H1.23077C0.904349 1.23096 0.591298 1.36063 0.360484 1.59145C0.12967 1.82226 0 2.13531 0 2.46173V13.5863C0.000407069 13.9 0.125183 14.2007 0.346965 14.4225C0.568747 14.6442 0.86943 14.769 1.18308 14.7694H14.8377C15.1458 14.769 15.4412 14.6464 15.6591 14.4285C15.877 14.2107 15.9996 13.9153 16 13.6071V4.92327C16 4.59685 15.8703 4.2838 15.6395 4.05299C15.4087 3.82217 15.0957 3.6925 14.7692 3.6925ZM1.23077 2.46173H5.28385L6.51462 3.6925H1.23077V2.46173ZM14.7692 13.5387H1.23077V4.92327H14.7692V13.5387Z"/>
</svg>
