<svg fill="currentColor" width="16" height="16" viewBox="0 0 16 16" xmlns="http://www.w3.org/2000/svg">
<path d="M15.9753 2.12485C15.9676 1.99435 15.9124 1.87119 15.8199 1.77876C15.7275 1.68633 15.6043 1.63105 15.4738 1.62343C12.0226 1.4234 9.2515 2.4729 8.06064 4.43856C7.27384 5.7381 7.27518 7.31636 8.04997 8.82194C7.60896 9.34693 7.28666 9.96105 7.10515 10.6222L6.02031 9.53339C6.54173 8.44454 6.52172 7.30969 5.95363 6.36687C5.07349 4.91397 3.04182 4.13518 0.519413 4.2832C0.388916 4.29082 0.265759 4.34609 0.173326 4.43853C0.0808933 4.53096 0.0256193 4.65412 0.0179984 4.78461C-0.130692 7.30702 0.648768 9.33869 2.10167 10.2188C2.58113 10.5118 3.13207 10.6668 3.69393 10.6669C4.23928 10.6602 4.77616 10.531 5.26485 10.2888L6.93179 11.9558V13.8674C6.93179 14.0089 6.98799 14.1446 7.08802 14.2446C7.18806 14.3446 7.32374 14.4008 7.46521 14.4008C7.60668 14.4008 7.74236 14.3446 7.84239 14.2446C7.94243 14.1446 7.99863 14.0089 7.99863 13.8674V11.9011C7.99626 11.0525 8.28504 10.2288 8.81676 9.56739C9.50284 9.92594 10.2637 10.1178 11.0378 10.1275C11.7862 10.1299 12.5206 9.92545 13.1601 9.53672C15.1258 8.34719 16.178 5.57608 15.9753 2.12485ZM2.65176 9.30668C1.62893 8.68725 1.05017 7.22101 1.06417 5.3327C2.95248 5.3167 4.41871 5.89746 5.03815 6.92029C5.36153 7.45371 5.41421 8.07582 5.20217 8.71659L3.57458 7.08899C3.47373 6.99318 3.33944 6.94055 3.20034 6.94233C3.06125 6.94411 2.92835 7.00016 2.82999 7.09852C2.73162 7.19689 2.67558 7.32978 2.6738 7.46888C2.67202 7.60797 2.72464 7.74226 2.82045 7.84311L4.44805 9.47071C3.80728 9.68274 3.18585 9.63007 2.65176 9.30668ZM12.6074 8.62524C11.7139 9.16599 10.6637 9.20733 9.59689 8.75859L13.1768 5.17801C13.2726 5.07716 13.3252 4.94287 13.3235 4.80378C13.3217 4.66468 13.2656 4.53179 13.1673 4.43342C13.0689 4.33506 12.936 4.27901 12.7969 4.27723C12.6578 4.27545 12.5235 4.32808 12.4227 4.42389L8.8421 7.9998C8.39136 6.93296 8.43203 5.88213 8.97545 4.98931C9.90494 3.45573 12.1093 2.60093 14.9318 2.66694C14.9958 5.48873 14.1423 7.69576 12.6074 8.62524Z"/>
</svg>
