<svg fill="currentColor" width="16" height="16" viewBox="0 0 16 16" xmlns="http://www.w3.org/2000/svg">
<path d="M11.5714 1.14453C10.0964 1.14453 8.805 1.77882 8 2.85096C7.195 1.77882 5.90357 1.14453 4.42857 1.14453C3.25445 1.14585 2.12879 1.61286 1.29856 2.44309C0.468329 3.27332 0.00132338 4.39898 0 5.5731C0 10.5731 7.41357 14.6202 7.72929 14.7874C7.8125 14.8322 7.90551 14.8556 8 14.8556C8.09449 14.8556 8.1875 14.8322 8.27071 14.7874C8.58643 14.6202 16 10.5731 16 5.5731C15.9987 4.39898 15.5317 3.27332 14.7014 2.44309C13.8712 1.61286 12.7456 1.14585 11.5714 1.14453ZM8 13.6302C6.69571 12.8702 1.14286 9.4081 1.14286 5.5731C1.14399 4.70203 1.49053 3.86695 2.10647 3.251C2.72242 2.63506 3.55749 2.28852 4.42857 2.28739C5.81786 2.28739 6.98429 3.02739 7.47143 4.21596C7.51448 4.32077 7.58772 4.41041 7.68183 4.47349C7.77595 4.53658 7.8867 4.57026 8 4.57026C8.1133 4.57026 8.22405 4.53658 8.31817 4.47349C8.41228 4.41041 8.48552 4.32077 8.52857 4.21596C9.01571 3.02525 10.1821 2.28739 11.5714 2.28739C12.4425 2.28852 13.2776 2.63506 13.8935 3.251C14.5095 3.86695 14.856 4.70203 14.8571 5.5731C14.8571 9.40239 9.30286 12.8695 8 13.6302Z"/>
</svg>
