<svg fill="currentColor" width="16" height="16" viewBox="0 0 16 16" xmlns="http://www.w3.org/2000/svg">
<path d="M15.267 6.38078L8.86646 0.341869C8.86333 0.339139 8.86039 0.336198 8.85766 0.333068C8.62201 0.118756 8.31492 0 7.99639 0C7.67786 0 7.37077 0.118756 7.13512 0.333068L7.12632 0.341869L0.732971 6.38078C0.602558 6.5007 0.498458 6.64639 0.427258 6.80862C0.356058 6.97085 0.319309 7.1461 0.319336 7.32326V14.7199C0.319336 15.0594 0.454204 15.385 0.694271 15.6251C0.934338 15.8651 1.25994 16 1.59944 16H5.43977C5.77928 16 6.10488 15.8651 6.34494 15.6251C6.58501 15.385 6.71988 15.0594 6.71988 14.7199V10.8796H9.2801V14.7199C9.2801 15.0594 9.41497 15.385 9.65503 15.6251C9.8951 15.8651 10.2207 16 10.5602 16H14.4005C14.74 16 15.0656 15.8651 15.3057 15.6251C15.5458 15.385 15.6806 15.0594 15.6806 14.7199V7.32326C15.6807 7.1461 15.6439 6.97085 15.5727 6.80862C15.5015 6.64639 15.3974 6.5007 15.267 6.38078ZM14.4005 14.7199H10.5602V10.8796C10.5602 10.5401 10.4253 10.2145 10.1853 9.97439C9.9452 9.73432 9.6196 9.59946 9.2801 9.59946H6.71988C6.38037 9.59946 6.05477 9.73432 5.81471 9.97439C5.57464 10.2145 5.43977 10.5401 5.43977 10.8796V14.7199H1.59944V7.32326L1.60825 7.31526L7.99999 1.27875L14.3925 7.31366L14.4013 7.32166L14.4005 14.7199Z"/>
</svg>
