<svg fill="currentColor" width="16" height="16" viewBox="0 0 16 16" xmlns="http://www.w3.org/2000/svg">
<path d="M13.5385 6.53846C13.5385 6.70167 13.4736 6.8582 13.3582 6.9736C13.2428 7.08901 13.0863 7.15385 12.9231 7.15385L9.84615 7.15385C9.68294 7.15385 9.52642 7.08901 9.41101 6.9736C9.2956 6.8582 9.23077 6.70167 9.23077 6.53846C9.23077 6.37525 9.2956 6.21873 9.41101 6.10332C9.52642 5.98791 9.68294 5.92308 9.84615 5.92308L12.9231 5.92308C13.0863 5.92308 13.2428 5.98791 13.3582 6.10332C13.4736 6.21873 13.5385 6.37525 13.5385 6.53846ZM12.9231 8.38462L9.84615 8.38462C9.68294 8.38462 9.52642 8.44945 9.41101 8.56486C9.2956 8.68026 9.23077 8.83679 9.23077 9C9.23077 9.16321 9.2956 9.31974 9.41101 9.43514C9.52642 9.55055 9.68294 9.61539 9.84615 9.61539L12.9231 9.61539C13.0863 9.61539 13.2428 9.55055 13.3582 9.43514C13.4736 9.31974 13.5385 9.16321 13.5385 9C13.5385 8.83679 13.4736 8.68026 13.3582 8.56486C13.2428 8.44945 13.0863 8.38462 12.9231 8.38462ZM16 2.23077L16 13.3077C16 13.6341 15.8703 13.9472 15.6395 14.178C15.4087 14.4088 15.0957 14.5385 14.7692 14.5385L1.23077 14.5385C0.904349 14.5385 0.591298 14.4088 0.360484 14.178C0.12967 13.9472 9.88478e-08 13.6341 9.6294e-08 13.3077L9.6294e-09 2.23077C7.07552e-09 1.90435 0.12967 1.5913 0.360484 1.36048C0.591298 1.12967 0.904349 1 1.23077 1L14.7692 1C15.0957 1 15.4087 1.12967 15.6395 1.36048C15.8703 1.5913 16 1.90435 16 2.23077ZM14.7692 13.3077L14.7692 2.23077L1.23077 2.23077L1.23077 13.3077L14.7692 13.3077ZM8.59539 10.6923C8.63619 10.8504 8.61251 11.0183 8.52956 11.1589C8.44661 11.2996 8.31119 11.4015 8.15308 11.4423C7.99497 11.4831 7.82712 11.4594 7.68647 11.3765C7.54582 11.2935 7.44388 11.1581 7.40308 11C7.20077 10.2108 6.39846 9.61539 5.53769 9.61539C4.67692 9.61539 3.87538 10.2108 3.67231 11C3.63151 11.1581 3.52956 11.2935 3.38891 11.3765C3.24826 11.4594 3.08042 11.4831 2.92231 11.4423C2.7642 11.4015 2.62877 11.2996 2.54582 11.1589C2.46288 11.0183 2.4392 10.8504 2.48 10.6923C2.67969 9.94904 3.15173 9.30812 3.80231 8.89692C3.45659 8.55326 3.2207 8.11468 3.12453 7.63679C3.02836 7.1589 3.07625 6.66322 3.26213 6.21258C3.44801 5.76194 3.7635 5.37663 4.16861 5.10551C4.57373 4.83438 5.05022 4.68964 5.53769 4.68964C6.02516 4.68964 6.50166 4.83438 6.90677 5.10551C7.31189 5.37663 7.62738 5.76194 7.81326 6.21258C7.99913 6.66322 8.04702 7.1589 7.95086 7.63679C7.85469 8.11468 7.61879 8.55326 7.27308 8.89692C7.92436 9.30752 8.39683 9.94865 8.59615 10.6923L8.59539 10.6923ZM5.53846 8.38462C5.78188 8.38462 6.01984 8.31243 6.22224 8.17719C6.42464 8.04195 6.58239 7.84973 6.67554 7.62484C6.7687 7.39995 6.79307 7.15248 6.74558 6.91374C6.69809 6.67499 6.58087 6.45569 6.40875 6.28356C6.23662 6.11143 6.01732 5.99422 5.77857 5.94673C5.53983 5.89924 5.29236 5.92361 5.06747 6.01676C4.84257 6.10992 4.65035 6.26767 4.51511 6.47007C4.37988 6.67247 4.30769 6.91042 4.30769 7.15385C4.30769 7.48027 4.43736 7.79332 4.66818 8.02413C4.89899 8.25495 5.21204 8.38462 5.53846 8.38462Z"/>
</svg>
