<svg fill="currentColor" width="16" height="16" viewBox="0 0 16 16" xmlns="http://www.w3.org/2000/svg">
<g clip-path="url(#clip0_3135_30)">
<path d="M7.83335 10H6.50002C6.32321 10 6.15364 10.0702 6.02862 10.1953C5.90359 10.3203 5.83335 10.4899 5.83335 10.6667V15.3333C5.83335 15.5101 5.90359 15.6797 6.02862 15.8047C6.15364 15.9298 6.32321 16 6.50002 16C6.67683 16 6.8464 15.9298 6.97143 15.8047C7.09645 15.6797 7.16669 15.5101 7.16669 15.3333V14.6667H7.83335C8.45219 14.6667 9.04569 14.4208 9.48327 13.9832C9.92086 13.5457 10.1667 12.9522 10.1667 12.3333C10.1667 11.7145 9.92086 11.121 9.48327 10.6834C9.04569 10.2458 8.45219 10 7.83335 10ZM7.83335 13.3333H7.16669V11.3333H7.83335C8.09857 11.3333 8.35292 11.4387 8.54046 11.6262C8.728 11.8138 8.83335 12.0681 8.83335 12.3333C8.83335 12.5985 8.728 12.8529 8.54046 13.0404C8.35292 13.228 8.09857 13.3333 7.83335 13.3333ZM15.8334 13.3333V14.7392C15.8333 14.9109 15.7671 15.0759 15.6484 15.2C15.4162 15.4499 15.1355 15.6497 14.8234 15.7873C14.5113 15.9249 14.1744 15.9972 13.8334 16C12.3625 16 11.1667 14.6542 11.1667 13C11.1667 11.3458 12.3625 10 13.8334 10C14.3235 10.0015 14.8019 10.1502 15.2067 10.4267C15.3532 10.5261 15.4542 10.6797 15.4875 10.8537C15.5208 11.0276 15.4836 11.2076 15.3842 11.3542C15.2847 11.5007 15.1311 11.6017 14.9572 11.635C14.7833 11.6683 14.6032 11.6311 14.4567 11.5317C14.2738 11.4039 14.0564 11.3348 13.8334 11.3333C13.0984 11.3333 12.5 12.0833 12.5 13C12.5 13.9167 13.0984 14.6667 13.8334 14.6667C14.0739 14.6639 14.3073 14.5848 14.5 14.4408V14C14.3232 14 14.1536 13.9298 14.0286 13.8047C13.9036 13.6797 13.8334 13.5101 13.8334 13.3333C13.8334 13.1565 13.9036 12.987 14.0286 12.8619C14.1536 12.7369 14.3232 12.6667 14.5 12.6667H15.1667C15.3435 12.6667 15.5131 12.7369 15.6381 12.8619C15.7631 12.987 15.8334 13.1565 15.8334 13.3333ZM4.50002 10.6667V13.8333C4.50002 14.408 4.27175 14.9591 3.86542 15.3654C3.45909 15.7717 2.90799 16 2.33335 16C1.75872 16 1.20762 15.7717 0.801289 15.3654C0.39496 14.9591 0.166687 14.408 0.166687 13.8333C0.166687 13.6565 0.236925 13.487 0.361949 13.3619C0.486973 13.2369 0.656543 13.1667 0.833354 13.1667C1.01016 13.1667 1.17973 13.2369 1.30476 13.3619C1.42978 13.487 1.50002 13.6565 1.50002 13.8333C1.50002 14.0543 1.58782 14.2663 1.7441 14.4226C1.90038 14.5789 2.11234 14.6667 2.33335 14.6667C2.55437 14.6667 2.76633 14.5789 2.92261 14.4226C3.07889 14.2663 3.16669 14.0543 3.16669 13.8333V10.6667C3.16669 10.4899 3.23693 10.3203 3.36195 10.1953C3.48697 10.0702 3.65654 10 3.83335 10C4.01016 10 4.17973 10.0702 4.30476 10.1953C4.42978 10.3203 4.50002 10.4899 4.50002 10.6667ZM15.6384 4.86167L10.9717 0.195C10.9097 0.133111 10.8362 0.0840347 10.7553 0.0505759C10.6743 0.0171172 10.5876 -6.86572e-05 10.5 2.06132e-07H2.50002C2.1464 2.06132e-07 1.80726 0.140476 1.55721 0.390524C1.30716 0.640573 1.16669 0.979712 1.16669 1.33333V7.33333C1.16669 7.51014 1.23693 7.67971 1.36195 7.80474C1.48697 7.92976 1.65654 8 1.83335 8C2.01016 8 2.17973 7.92976 2.30476 7.80474C2.42978 7.67971 2.50002 7.51014 2.50002 7.33333V1.33333H9.83335V5.33333C9.83335 5.51014 9.90359 5.67971 10.0286 5.80474C10.1536 5.92976 10.3232 6 10.5 6H14.5V7.33333C14.5 7.51014 14.5703 7.67971 14.6953 7.80474C14.8203 7.92976 14.9899 8 15.1667 8C15.3435 8 15.5131 7.92976 15.6381 7.80474C15.7631 7.67971 15.8334 7.51014 15.8334 7.33333V5.33333C15.8334 5.24576 15.8162 5.15903 15.7828 5.0781C15.7493 4.99717 15.7002 4.92363 15.6384 4.86167ZM11.1667 4.66667V2.27583L13.5575 4.66667H11.1667Z"/>
</g>
<defs>
<clipPath id="clip0_3135_30">
<rect width="16" height="16"/>
</clipPath>
</defs>
</svg>
