<svg fill="currentColor" width="16" height="16" viewBox="0 0 16 16" xmlns="http://www.w3.org/2000/svg">
<path d="M13.2528 7.54721C13.3123 7.60665 13.3595 7.67723 13.3917 7.75493C13.4239 7.83262 13.4405 7.9159 13.4405 8.00001C13.4405 8.08411 13.4239 8.16739 13.3917 8.24509C13.3595 8.32278 13.3123 8.39337 13.2528 8.45281L7.4928 14.2128C7.43334 14.2723 7.36275 14.3194 7.28505 14.3516C7.20736 14.3838 7.12409 14.4004 7.04 14.4004C6.95591 14.4004 6.87264 14.3838 6.79495 14.3516C6.71725 14.3194 6.64666 14.2723 6.5872 14.2128C6.52774 14.1533 6.48057 14.0828 6.44839 14.0051C6.41621 13.9274 6.39964 13.8441 6.39964 13.76C6.39964 13.6759 6.41621 13.5926 6.44839 13.515C6.48057 13.4373 6.52774 13.3667 6.5872 13.3072L11.2552 8.64001H0.64C0.470261 8.64001 0.307475 8.57258 0.187452 8.45256C0.0674284 8.33253 0 8.16975 0 8.00001C0 7.83027 0.0674284 7.66748 0.187452 7.54746C0.307475 7.42744 0.470261 7.36001 0.64 7.36001H11.2552L6.5872 2.69281C6.46711 2.57272 6.39964 2.40984 6.39964 2.24001C6.39964 2.07017 6.46711 1.9073 6.5872 1.78721C6.70729 1.66712 6.87017 1.59965 7.04 1.59965C7.20983 1.59965 7.37271 1.66712 7.4928 1.78721L13.2528 7.54721ZM15.36 0.320007C15.1903 0.320007 15.0275 0.387436 14.9075 0.507459C14.7874 0.627482 14.72 0.790269 14.72 0.960007V15.04C14.72 15.2097 14.7874 15.3725 14.9075 15.4926C15.0275 15.6126 15.1903 15.68 15.36 15.68C15.5297 15.68 15.6925 15.6126 15.8125 15.4926C15.9326 15.3725 16 15.2097 16 15.04V0.960007C16 0.790269 15.9326 0.627482 15.8125 0.507459C15.6925 0.387436 15.5297 0.320007 15.36 0.320007Z"/>
</svg>
