<svg fill="currentColor" width="16" height="16" viewBox="0 0 16 16" xmlns="http://www.w3.org/2000/svg">
<path d="M8 0C6.41775 0 4.87103 0.469192 3.55544 1.34824C2.23985 2.22729 1.21447 3.47672 0.608967 4.93853C0.00346628 6.40034 -0.15496 8.00887 0.153721 9.56072C0.462403 11.1126 1.22433 12.538 2.34315 13.6569C3.46197 14.7757 4.88743 15.5376 6.43928 15.8463C7.99113 16.155 9.59966 15.9965 11.0615 15.391C12.5233 14.7855 13.7727 13.7602 14.6518 12.4446C15.5308 11.129 16 9.58225 16 8C15.9978 5.87895 15.1542 3.84542 13.6544 2.34562C12.1546 0.845814 10.121 0.00223986 8 0ZM11.0077 10.1377C11.4529 9.5138 11.6923 8.76646 11.6923 8C11.6923 7.23353 11.4529 6.48619 11.0077 5.86231L13.2 3.67077C14.2139 4.88555 14.7693 6.41768 14.7693 8C14.7693 9.58232 14.2139 11.1144 13.2 12.3292L11.0077 10.1377ZM5.53846 8C5.53846 7.51315 5.68283 7.03724 5.95331 6.63244C6.22378 6.22764 6.60822 5.91214 7.05801 5.72583C7.5078 5.53953 8.00273 5.49078 8.48022 5.58576C8.95772 5.68074 9.39632 5.91518 9.74057 6.25943C10.0848 6.60368 10.3193 7.04228 10.4142 7.51978C10.5092 7.99727 10.4605 8.4922 10.2742 8.94199C10.0879 9.39177 9.77236 9.77621 9.36756 10.0467C8.96276 10.3172 8.48685 10.4615 8 10.4615C7.34716 10.4615 6.72106 10.2022 6.25943 9.74057C5.7978 9.27894 5.53846 8.65284 5.53846 8ZM12.3292 2.8L10.1377 4.99231C9.51381 4.54707 8.76647 4.30775 8 4.30775C7.23354 4.30775 6.4862 4.54707 5.86231 4.99231L3.67077 2.8C4.88555 1.78607 6.41768 1.23069 8 1.23069C9.58232 1.23069 11.1144 1.78607 12.3292 2.8ZM2.8 3.67077L4.99231 5.86231C4.54707 6.48619 4.30775 7.23353 4.30775 8C4.30775 8.76646 4.54707 9.5138 4.99231 10.1377L2.8 12.3292C1.78608 11.1144 1.2307 9.58232 1.2307 8C1.2307 6.41768 1.78608 4.88555 2.8 3.67077ZM3.67077 13.2L5.86231 11.0077C6.4862 11.4529 7.23354 11.6922 8 11.6922C8.76647 11.6922 9.51381 11.4529 10.1377 11.0077L12.3292 13.2C11.1144 14.2139 9.58232 14.7693 8 14.7693C6.41768 14.7693 4.88555 14.2139 3.67077 13.2Z"/>
</svg>
