<svg fill="currentColor" width="16" height="16" viewBox="0 0 16 16" xmlns="http://www.w3.org/2000/svg">
<path d="M11.4282 15.4286C11.4282 15.5802 11.368 15.7255 11.2609 15.8327C11.1537 15.9398 11.0084 16 10.8569 16H5.14324C4.9917 16 4.84638 15.9398 4.73922 15.8327C4.63207 15.7255 4.57188 15.5802 4.57188 15.4286C4.57188 15.2771 4.63207 15.1318 4.73922 15.0246C4.84638 14.9175 4.9917 14.8573 5.14324 14.8573H10.8569C11.0084 14.8573 11.1537 14.9175 11.2609 15.0246C11.368 15.1318 11.4282 15.2771 11.4282 15.4286ZM14.2851 6.28682C14.2875 7.23931 14.0723 8.17978 13.656 9.03644C13.2396 9.89311 12.633 10.6433 11.8825 11.2298C11.7421 11.3374 11.6283 11.4756 11.5495 11.6339C11.4708 11.7923 11.4293 11.9665 11.4282 12.1433V12.5718C11.4282 12.8749 11.3078 13.1655 11.0935 13.3798C10.8792 13.5942 10.5886 13.7145 10.2855 13.7145H5.7146C5.41153 13.7145 5.12088 13.5942 4.90657 13.3798C4.69227 13.1655 4.57188 12.8749 4.57188 12.5718V12.1433C4.57176 11.9686 4.53159 11.7963 4.45445 11.6395C4.37732 11.4828 4.26527 11.3458 4.12693 11.2391C3.3783 10.6561 2.77211 9.91037 2.35426 9.05844C1.9364 8.20652 1.71782 7.2707 1.71506 6.32182C1.69649 2.91792 4.4476 0.0832435 7.84865 0.00182421C8.68666 -0.0183701 9.52024 0.129276 10.3003 0.436073C11.0804 0.74287 11.7913 1.20262 12.391 1.78826C12.9908 2.3739 13.4673 3.07359 13.7926 3.84616C14.1179 4.61873 14.2853 5.44857 14.2851 6.28682ZM13.1423 6.28682C13.1425 5.60094 13.0055 4.92196 12.7394 4.28983C12.4732 3.6577 12.0833 3.0852 11.5925 2.60604C11.1018 2.12687 10.5201 1.75072 9.88183 1.49973C9.24353 1.24874 8.56146 1.12798 7.87579 1.14455C5.09039 1.21026 2.84279 3.52928 2.85779 6.31468C2.8604 7.09072 3.03948 7.85601 3.38148 8.55263C3.72348 9.24926 4.21945 9.85897 4.83185 10.3356C5.10713 10.5496 5.3298 10.8238 5.48281 11.1371C5.63582 11.4504 5.7151 11.7946 5.7146 12.1433V12.5718H10.2855V12.1433C10.2863 11.7936 10.3669 11.4487 10.5213 11.135C10.6756 10.8212 10.8996 10.5468 11.1761 10.3328C11.7904 9.85272 12.2869 9.23865 12.6276 8.53744C12.9684 7.83624 13.1444 7.06644 13.1423 6.28682ZM11.9917 5.61976C11.8436 4.7922 11.4454 4.02991 10.8509 3.4355C10.2564 2.8411 9.49399 2.44311 8.66641 2.29513C8.59241 2.28266 8.51667 2.28488 8.44353 2.30168C8.37039 2.31847 8.30127 2.34951 8.24013 2.39301C8.17898 2.43652 8.127 2.49164 8.08716 2.55524C8.04731 2.61883 8.02039 2.68965 8.00791 2.76365C7.99544 2.83765 7.99766 2.91339 8.01446 2.98653C8.03125 3.05967 8.06229 3.12879 8.10579 3.18993C8.1493 3.25108 8.20442 3.30306 8.26802 3.3429C8.33161 3.38275 8.40243 3.40967 8.47643 3.42215C9.65987 3.62141 10.664 4.62558 10.8647 5.81116C10.8873 5.94423 10.9563 6.065 11.0595 6.15207C11.1626 6.23914 11.2933 6.28687 11.4282 6.28682C11.4605 6.28663 11.4928 6.284 11.5247 6.27897C11.674 6.25347 11.8071 6.1697 11.8947 6.04608C11.9823 5.92246 12.0172 5.76911 11.9917 5.61976Z"/>
</svg>
