<svg fill="currentColor" width="16" height="16" viewBox="0 0 16 16" xmlns="http://www.w3.org/2000/svg">
<path d="M4.66667 2.66667C4.66667 2.48986 4.7369 2.32029 4.86193 2.19526C4.98695 2.07024 5.15652 2 5.33333 2H15.3333C15.5101 2 15.6797 2.07024 15.8047 2.19526C15.9298 2.32029 16 2.48986 16 2.66667C16 2.84348 15.9298 3.01305 15.8047 3.13807C15.6797 3.2631 15.5101 3.33333 15.3333 3.33333H5.33333C5.15652 3.33333 4.98695 3.2631 4.86193 3.13807C4.7369 3.01305 4.66667 2.84348 4.66667 2.66667ZM15.3333 7.33333H5.33333C5.15652 7.33333 4.98695 7.40357 4.86193 7.5286C4.7369 7.65362 4.66667 7.82319 4.66667 8C4.66667 8.17681 4.7369 8.34638 4.86193 8.47141C4.98695 8.59643 5.15652 8.66667 5.33333 8.66667H15.3333C15.5101 8.66667 15.6797 8.59643 15.8047 8.47141C15.9298 8.34638 16 8.17681 16 8C16 7.82319 15.9298 7.65362 15.8047 7.5286C15.6797 7.40357 15.5101 7.33333 15.3333 7.33333ZM15.3333 12.6667H5.33333C5.15652 12.6667 4.98695 12.7369 4.86193 12.8619C4.7369 12.987 4.66667 13.1565 4.66667 13.3333C4.66667 13.5101 4.7369 13.6797 4.86193 13.8047C4.98695 13.9298 5.15652 14 5.33333 14H15.3333C15.5101 14 15.6797 13.9298 15.8047 13.8047C15.9298 13.6797 16 13.5101 16 13.3333C16 13.1565 15.9298 12.987 15.8047 12.8619C15.6797 12.7369 15.5101 12.6667 15.3333 12.6667ZM2 2H0.666667C0.489856 2 0.320287 2.07024 0.195262 2.19526C0.070238 2.32029 0 2.48986 0 2.66667C0 2.84348 0.070238 3.01305 0.195262 3.13807C0.320287 3.2631 0.489856 3.33333 0.666667 3.33333H2C2.17681 3.33333 2.34638 3.2631 2.4714 3.13807C2.59643 3.01305 2.66667 2.84348 2.66667 2.66667C2.66667 2.48986 2.59643 2.32029 2.4714 2.19526C2.34638 2.07024 2.17681 2 2 2ZM2 7.33333H0.666667C0.489856 7.33333 0.320287 7.40357 0.195262 7.5286C0.070238 7.65362 0 7.82319 0 8C0 8.17681 0.070238 8.34638 0.195262 8.47141C0.320287 8.59643 0.489856 8.66667 0.666667 8.66667H2C2.17681 8.66667 2.34638 8.59643 2.4714 8.47141C2.59643 8.34638 2.66667 8.17681 2.66667 8C2.66667 7.82319 2.59643 7.65362 2.4714 7.5286C2.34638 7.40357 2.17681 7.33333 2 7.33333ZM2 12.6667H0.666667C0.489856 12.6667 0.320287 12.7369 0.195262 12.8619C0.070238 12.987 0 13.1565 0 13.3333C0 13.5101 0.070238 13.6797 0.195262 13.8047C0.320287 13.9298 0.489856 14 0.666667 14H2C2.17681 14 2.34638 13.9298 2.4714 13.8047C2.59643 13.6797 2.66667 13.5101 2.66667 13.3333C2.66667 13.1565 2.59643 12.987 2.4714 12.8619C2.34638 12.7369 2.17681 12.6667 2 12.6667Z"/>
</svg>
