<svg fill="currentColor" width="16" height="16" viewBox="0 0 16 16" xmlns="http://www.w3.org/2000/svg">
<path d="M8.00001 3.42861C7.43492 3.42861 6.88251 3.59618 6.41265 3.91013C5.94279 4.22408 5.57658 4.67031 5.36033 5.19239C5.14408 5.71447 5.08749 6.28895 5.19774 6.84318C5.30798 7.39742 5.5801 7.90652 5.97968 8.3061C6.37927 8.70569 6.88837 8.97781 7.4426 9.08805C7.99684 9.19829 8.57132 9.14171 9.0934 8.92546C9.61548 8.70921 10.0617 8.343 10.3757 7.87314C10.6896 7.40328 10.8572 6.85087 10.8572 6.28578C10.8572 5.52801 10.5562 4.80128 10.0203 4.26545C9.48451 3.72963 8.75778 3.42861 8.00001 3.42861ZM8.00001 8.00008C7.66095 8.00008 7.32951 7.89954 7.04759 7.71117C6.76568 7.5228 6.54595 7.25506 6.4162 6.94181C6.28645 6.62856 6.2525 6.28388 6.31865 5.95133C6.38479 5.61879 6.54807 5.31333 6.78782 5.07358C7.02756 4.83383 7.33302 4.67056 7.66557 4.60441C7.99811 4.53827 8.3428 4.57222 8.65605 4.70197C8.96929 4.83172 9.23703 5.05145 9.4254 5.33336C9.61377 5.61528 9.71431 5.94672 9.71431 6.28578C9.71431 6.74044 9.5337 7.17648 9.21221 7.49797C8.89071 7.81947 8.45467 8.00008 8.00001 8.00008ZM8.00001 0C6.3335 0.00189054 4.73579 0.664747 3.55738 1.84315C2.37898 3.02155 1.71612 4.61927 1.71423 6.28578C1.71423 8.52866 2.75067 10.9058 4.71426 13.1608C5.59657 14.1798 6.58961 15.0974 7.67501 15.8966C7.77109 15.9639 7.88556 16 8.00287 16C8.12018 16 8.23465 15.9639 8.33073 15.8966C9.41413 15.0971 10.4052 14.1795 11.2858 13.1608C13.2465 10.9058 14.2858 8.52866 14.2858 6.28578C14.2839 4.61927 13.621 3.02155 12.4426 1.84315C11.2642 0.664747 9.66652 0.00189054 8.00001 0ZM8.00001 14.7144C6.81928 13.7859 2.8571 10.3751 2.8571 6.28578C2.8571 4.92179 3.39894 3.61367 4.36342 2.64919C5.32791 1.68471 6.63603 1.14287 8.00001 1.14287C9.36399 1.14287 10.6721 1.68471 11.6366 2.64919C12.6011 3.61367 13.1429 4.92179 13.1429 6.28578C13.1429 10.3737 9.18074 13.7859 8.00001 14.7144Z"/>
</svg>
