<svg fill="currentColor" width="16" height="16" viewBox="0 0 16 16" xmlns="http://www.w3.org/2000/svg">
<path d="M13.926 5.33333H11.5556V3.55556C11.5556 2.61256 11.181 1.70819 10.5142 1.0414C9.84739 0.374602 8.94302 0 8.00003 0C7.05704 0 6.15267 0.374602 5.48587 1.0414C4.81907 1.70819 4.44447 2.61256 4.44447 3.55556V5.33333H2.0741C1.75977 5.33333 1.45831 5.4582 1.23605 5.68047C1.01378 5.90273 0.888916 6.20419 0.888916 6.51852V14.8148C0.888916 15.1291 1.01378 15.4306 1.23605 15.6529C1.45831 15.8751 1.75977 16 2.0741 16H13.926C14.2403 16 14.5417 15.8751 14.764 15.6529C14.9863 15.4306 15.1111 15.1291 15.1111 14.8148V6.51852C15.1111 6.20419 14.9863 5.90273 14.764 5.68047C14.5417 5.4582 14.2403 5.33333 13.926 5.33333ZM5.62966 3.55556C5.62966 2.92689 5.87939 2.32398 6.32392 1.87945C6.76845 1.43492 7.37137 1.18519 8.00003 1.18519C8.62869 1.18519 9.2316 1.43492 9.67613 1.87945C10.1207 2.32398 10.3704 2.92689 10.3704 3.55556V5.33333H5.62966V3.55556ZM13.926 14.8148H2.0741V6.51852H13.926V14.8148Z"/>
</svg>
