<svg fill="currentColor" width="16" height="16" viewBox="0 0 16 16" xmlns="http://www.w3.org/2000/svg">
<path d="M13.8653 5.86873C13.8659 4.88031 13.6166 3.90776 13.1408 3.04143C12.6649 2.1751 11.9778 1.44309 11.1433 0.913376C10.3088 0.383666 9.35394 0.0734429 8.36745 0.0115217C7.38097 -0.0503994 6.39483 0.13799 5.50064 0.559191C4.60645 0.980392 3.83321 1.62074 3.25274 2.42077C2.67226 3.22079 2.30339 4.15454 2.18037 5.13528C2.05735 6.11602 2.18419 7.11194 2.54909 8.03055C2.91399 8.94915 3.50512 9.76064 4.26758 10.3896V15.4664C4.26752 15.5573 4.29071 15.6468 4.33496 15.7262C4.3792 15.8057 4.44303 15.8725 4.52038 15.9203C4.59772 15.9681 4.68601 15.9954 4.77685 15.9995C4.8677 16.0035 4.95808 15.9843 5.0394 15.9436L8.00002 14.4667L10.9613 15.947C11.0355 15.9825 11.1169 16.0005 11.1992 15.9996C11.3407 15.9996 11.4763 15.9434 11.5763 15.8434C11.6763 15.7435 11.7324 15.6078 11.7324 15.4664V10.3896C12.3996 9.84019 12.9368 9.14987 13.3055 8.36823C13.6743 7.58658 13.8654 6.73299 13.8653 5.86873ZM3.20118 5.86873C3.20118 4.91961 3.48262 3.9918 4.00993 3.20264C4.53723 2.41347 5.28671 1.79839 6.16358 1.43518C7.04045 1.07197 8.00534 0.976936 8.93622 1.1621C9.86711 1.34726 10.7222 1.80431 11.3933 2.47544C12.0644 3.14657 12.5215 4.00164 12.7066 4.93253C12.8918 5.86341 12.7968 6.8283 12.4336 7.70517C12.0704 8.58204 11.4553 9.33152 10.6661 9.85882C9.87694 10.3861 8.94914 10.6676 8.00002 10.6676C6.72772 10.6662 5.50793 10.1601 4.60828 9.26047C3.70863 8.36082 3.20259 7.14103 3.20118 5.86873ZM10.666 14.604L8.23796 13.3902C8.16388 13.3532 8.08218 13.3339 7.99935 13.3339C7.91651 13.3339 7.83482 13.3532 7.76074 13.3902L5.33399 14.604V11.0921C6.15937 11.514 7.07308 11.734 8.00002 11.734C8.92695 11.734 9.84066 11.514 10.666 11.0921V14.604ZM8.00002 9.60116C8.73822 9.60116 9.45985 9.38226 10.0736 8.97214C10.6874 8.56201 11.1658 7.97908 11.4483 7.29707C11.7308 6.61506 11.8047 5.86459 11.6607 5.14057C11.5167 4.41655 11.1612 3.75149 10.6392 3.2295C10.1173 2.70752 9.4522 2.35204 8.72818 2.20802C8.00416 2.064 7.25369 2.13792 6.57168 2.42042C5.88966 2.70291 5.30674 3.18131 4.89661 3.7951C4.48649 4.4089 4.26758 5.13053 4.26758 5.86873C4.26864 6.85831 4.66222 7.80705 5.36196 8.50679C6.06169 9.20653 7.01044 9.60011 8.00002 9.60116ZM8.00002 3.20271C8.52731 3.20271 9.04275 3.35907 9.48118 3.65202C9.9196 3.94496 10.2613 4.36134 10.4631 4.84849C10.6649 5.33564 10.7177 5.87169 10.6148 6.38885C10.5119 6.906 10.258 7.38104 9.88518 7.75389C9.51233 8.12674 9.03729 8.38066 8.52013 8.48353C8.00297 8.5864 7.46693 8.5336 6.97977 8.33182C6.49262 8.13003 6.07625 7.78832 5.7833 7.3499C5.49035 6.91147 5.33399 6.39602 5.33399 5.86873C5.33399 5.16166 5.61488 4.48355 6.11485 3.98357C6.61483 3.48359 7.29294 3.20271 8.00002 3.20271Z"/>
</svg>
