<svg fill="currentColor" width="16" height="16" viewBox="0 0 16 16" xmlns="http://www.w3.org/2000/svg">
<path d="M14.7985 1.20265C14.0284 0.432604 12.984 0 11.895 0C10.8059 0 9.76152 0.432604 8.99146 1.20265L1.16604 9.0273C0.412088 9.80065 -0.0068122 10.8399 8.3812e-05 11.9199C0.00697982 13 0.439117 14.0338 1.20288 14.7975C1.96664 15.5611 3.00052 15.9931 4.08055 15.9999C5.16058 16.0066 6.19979 15.5876 6.97304 14.8335L14.7992 7.00888C15.568 6.23824 15.9997 5.19412 15.9995 4.1056C15.9994 3.01708 15.5674 1.97308 14.7985 1.20265ZM6.10106 13.9616C5.56237 14.5003 4.83171 14.8031 4.06981 14.8031C3.30791 14.8032 2.57719 14.5006 2.0384 13.9619C1.4996 13.4232 1.19687 12.6926 1.1968 11.9307C1.19673 11.1688 1.49932 10.4381 2.03801 9.89927L5.51435 6.42293L9.5774 10.4852L6.10106 13.9616ZM13.9265 6.1369L10.4486 9.61324L6.38709 5.55096L9.8642 2.07462C10.405 1.54629 11.1323 1.25247 11.8884 1.25688C12.6444 1.2613 13.3683 1.5636 13.9029 2.09822C14.4375 2.63284 14.7398 3.35666 14.7442 4.11271C14.7486 4.86876 14.4548 5.59607 13.9265 6.1369ZM12.7369 4.4978C12.7942 4.55509 12.8397 4.62311 12.8707 4.69799C12.9018 4.77286 12.9178 4.85312 12.9178 4.93418C12.9178 5.01523 12.9018 5.09549 12.8707 5.17037C12.8397 5.24524 12.7942 5.31327 12.7369 5.37055L10.8865 7.2209C10.8292 7.27815 10.7612 7.32356 10.6863 7.35452C10.6115 7.38549 10.5313 7.40141 10.4503 7.40137C10.3693 7.40134 10.289 7.38535 10.2142 7.35432C10.1394 7.32328 10.0714 7.27782 10.0142 7.22051C9.9569 7.1632 9.9115 7.09518 9.88053 7.02033C9.84956 6.94548 9.83364 6.86526 9.83368 6.78425C9.83371 6.70324 9.84971 6.62304 9.88074 6.54821C9.91177 6.47339 9.95724 6.4054 10.0145 6.34815L11.8649 4.4978C11.9805 4.38222 12.1374 4.3173 12.3009 4.3173C12.4644 4.3173 12.6212 4.38222 12.7369 4.4978Z"/>
</svg>
