<svg fill="currentColor" width="16" height="16" viewBox="0 0 16 16" xmlns="http://www.w3.org/2000/svg">
<path d="M16 8C16 8.17681 15.9298 8.34638 15.8047 8.47141C15.6797 8.59643 15.5101 8.66667 15.3333 8.66667H0.666667C0.489856 8.66667 0.320287 8.59643 0.195262 8.47141C0.070238 8.34638 0 8.17681 0 8C0 7.82319 0.070238 7.65362 0.195262 7.5286C0.320287 7.40357 0.489856 7.33333 0.666667 7.33333H15.3333C15.5101 7.33333 15.6797 7.40357 15.8047 7.5286C15.9298 7.65362 16 7.82319 16 8ZM0.666667 3.33333H15.3333C15.5101 3.33333 15.6797 3.2631 15.8047 3.13807C15.9298 3.01305 16 2.84348 16 2.66667C16 2.48986 15.9298 2.32029 15.8047 2.19526C15.6797 2.07024 15.5101 2 15.3333 2H0.666667C0.489856 2 0.320287 2.07024 0.195262 2.19526C0.070238 2.32029 0 2.48986 0 2.66667C0 2.84348 0.070238 3.01305 0.195262 3.13807C0.320287 3.2631 0.489856 3.33333 0.666667 3.33333ZM15.3333 12.6667H0.666667C0.489856 12.6667 0.320287 12.7369 0.195262 12.8619C0.070238 12.987 0 13.1565 0 13.3333C0 13.5101 0.070238 13.6797 0.195262 13.8047C0.320287 13.9298 0.489856 14 0.666667 14H15.3333C15.5101 14 15.6797 13.9298 15.8047 13.8047C15.9298 13.6797 16 13.5101 16 13.3333C16 13.1565 15.9298 12.987 15.8047 12.8619C15.6797 12.7369 15.5101 12.6667 15.3333 12.6667Z"/>
</svg>
