<svg fill="currentColor" width="16" height="16" viewBox="0 0 16 16" xmlns="http://www.w3.org/2000/svg">
<path d="M15.3846 1.84619H0.615385C0.452174 1.84619 0.295649 1.91103 0.180242 2.02643C0.064835 2.14184 0 2.29837 0 2.46158V12.9231C0 13.2495 0.12967 13.5626 0.360484 13.7934C0.591298 14.0242 0.904349 14.1539 1.23077 14.1539H14.7692C15.0957 14.1539 15.4087 14.0242 15.6395 13.7934C15.8703 13.5626 16 13.2495 16 12.9231V2.46158C16 2.29837 15.9352 2.14184 15.8198 2.02643C15.7044 1.91103 15.5478 1.84619 15.3846 1.84619ZM8 8.39619L2.19769 3.07696H13.8023L8 8.39619ZM5.74692 8.00004L1.23077 12.1393V3.86081L5.74692 8.00004ZM6.65769 8.83465L7.58077 9.68465C7.6943 9.78887 7.84281 9.8467 7.99692 9.8467C8.15104 9.8467 8.29954 9.78887 8.41308 9.68465L9.33615 8.83465L13.7977 12.9231H2.19769L6.65769 8.83465ZM10.2531 8.00004L14.7692 3.86004V12.14L10.2531 8.00004Z"/>
</svg>
