<svg fill="currentColor" width="16" height="16" viewBox="0 0 16 16" xmlns="http://www.w3.org/2000/svg">
<path d="M14.7692 0.615479H1.23079C0.90437 0.615479 0.591319 0.745148 0.360506 0.975962C0.129692 1.20678 2.22879e-05 1.51983 2.22879e-05 1.84625V14.1539C-0.001397 14.3886 0.0649965 14.6187 0.191222 14.8166C0.317448 15.0145 0.498133 15.1717 0.71156 15.2693C0.874197 15.345 1.05139 15.3844 1.23079 15.3847C1.51972 15.384 1.79906 15.281 2.01925 15.0939C2.02292 15.0915 2.02628 15.0887 2.02925 15.0855L4.50002 12.9232H14.7692C15.0957 12.9232 15.4087 12.7935 15.6395 12.5627C15.8703 12.3319 16 12.0188 16 11.6924V1.84625C16 1.51983 15.8703 1.20678 15.6395 0.975962C15.4087 0.745148 15.0957 0.615479 14.7692 0.615479ZM14.7692 11.6924H4.50002C4.21019 11.6923 3.92961 11.7944 3.70771 11.9808L3.69848 11.9893L1.23079 14.1539V1.84625H14.7692V11.6924Z"/>
</svg>
