<svg fill="currentColor" width="16" height="16" viewBox="0 0 16 16" xmlns="http://www.w3.org/2000/svg">
<g clip-path="url(#clip0_3800_189)">
<path d="M7.51724 11.0345C8.39492 11.0336 9.23639 10.6845 9.857 10.0639C10.4776 9.44328 10.8267 8.60182 10.8276 7.72414V3.31034C10.8276 2.43239 10.4788 1.59039 9.85801 0.969578C9.2372 0.348767 8.3952 0 7.51724 0C6.63928 0 5.79728 0.348767 5.17647 0.969578C4.55566 1.59039 4.2069 2.43239 4.2069 3.31034V7.72414C4.20781 8.60182 4.55687 9.44328 5.17748 10.0639C5.79809 10.6845 6.63956 11.0336 7.51724 11.0345ZM5.31034 3.31034C5.31034 2.72504 5.54286 2.16371 5.95673 1.74983C6.3706 1.33596 6.93194 1.10345 7.51724 1.10345C8.10255 1.10345 8.66388 1.33596 9.07775 1.74983C9.49163 2.16371 9.72414 2.72504 9.72414 3.31034V7.72414C9.72414 8.30944 9.49163 8.87078 9.07775 9.28465C8.66388 9.69852 8.10255 9.93103 7.51724 9.93103C6.93194 9.93103 6.3706 9.69852 5.95673 9.28465C5.54286 8.87078 5.31034 8.30944 5.31034 7.72414V3.31034ZM8.06897 13.2138V15.4483C8.06897 15.5946 8.01084 15.7349 7.90737 15.8384C7.8039 15.9419 7.66357 16 7.51724 16C7.37091 16 7.23058 15.9419 7.12711 15.8384C7.02365 15.7349 6.96552 15.5946 6.96552 15.4483V13.2138C5.60527 13.0754 4.34467 12.4375 3.42748 11.4235C2.51029 10.4095 2.00168 9.09141 2 7.72414C2 7.57781 2.05813 7.43748 2.1616 7.33401C2.26506 7.23054 2.4054 7.17241 2.55172 7.17241C2.69805 7.17241 2.83838 7.23054 2.94185 7.33401C3.04532 7.43748 3.10345 7.57781 3.10345 7.72414C3.10345 8.89475 3.56847 10.0174 4.39622 10.8452C5.22396 11.6729 6.34663 12.1379 7.51724 12.1379C8.68785 12.1379 9.81052 11.6729 10.6383 10.8452C11.466 10.0174 11.931 8.89475 11.931 7.72414C11.931 7.57781 11.9892 7.43748 12.0926 7.33401C12.1961 7.23054 12.3364 7.17241 12.4828 7.17241C12.6291 7.17241 12.7694 7.23054 12.8729 7.33401C12.9764 7.43748 13.0345 7.57781 13.0345 7.72414C13.0328 9.09141 12.5242 10.4095 11.607 11.4235C10.6898 12.4375 9.42921 13.0754 8.06897 13.2138Z"/>
</g>
<defs>
<clipPath id="clip0_3800_189">
<rect width="16" height="16"/>
</clipPath>
</defs>
</svg>
