<svg fill="currentColor" width="16" height="16" viewBox="0 0 16 16" xmlns="http://www.w3.org/2000/svg">
<path d="M10.5449 4.23722C10.0535 4.23693 9.56439 4.30284 9.09065 4.43318C8.90364 4.12805 8.67647 3.84945 8.41522 3.60486L9.09783 2.63083C9.1411 2.56904 9.17177 2.49934 9.18809 2.4257C9.20442 2.35206 9.20608 2.27592 9.19299 2.20164C9.17989 2.12735 9.15229 2.05638 9.11176 1.99276C9.07123 1.92914 9.01857 1.87413 8.95679 1.83087C8.895 1.7876 8.82529 1.75693 8.75165 1.7406C8.67801 1.72428 8.60188 1.72261 8.52759 1.73571C8.45331 1.74881 8.38233 1.77641 8.31872 1.81693C8.2551 1.85746 8.20009 1.91012 8.15682 1.97191L7.47421 2.94522C6.91288 2.6618 6.2928 2.51427 5.66397 2.51455C5.62234 2.51455 5.58071 2.51455 5.53908 2.51455L5.33164 1.34529C5.32075 1.2691 5.29466 1.19588 5.25491 1.12997C5.21517 1.06407 5.16258 1.00683 5.10028 0.961646C5.03797 0.916468 4.96722 0.884274 4.89222 0.86698C4.81723 0.849686 4.73952 0.847644 4.66373 0.860975C4.58793 0.874306 4.51558 0.902738 4.45099 0.944582C4.38639 0.986425 4.33087 1.04083 4.28772 1.10455C4.24457 1.16828 4.21467 1.24003 4.19979 1.31554C4.18492 1.39105 4.18537 1.46878 4.20114 1.54411L4.40786 2.71697C3.77101 2.9276 3.19687 3.294 2.73758 3.78287L1.75997 3.09882C1.69823 3.0545 1.6283 3.02286 1.55425 3.00576C1.48019 2.98866 1.40348 2.98644 1.32855 2.99921C1.25363 3.01198 1.18199 3.0395 1.11778 3.08017C1.05357 3.12085 0.998079 3.17386 0.954516 3.23614C0.910952 3.29842 0.880186 3.36873 0.864002 3.44299C0.847818 3.51725 0.846537 3.59399 0.860234 3.66875C0.873931 3.74351 0.902333 3.81481 0.943794 3.87851C0.985254 3.94221 1.03895 3.99704 1.10176 4.03983L2.07507 4.72316C1.79064 5.28438 1.64307 5.90494 1.6444 6.53412C1.6444 6.57503 1.6444 6.61666 1.6444 6.65758L0.47514 6.8643C0.333613 6.88909 0.206523 6.96604 0.118959 7.07996C0.0313941 7.19387 -0.0102822 7.33648 0.0021572 7.47962C0.0145966 7.62276 0.0802475 7.75604 0.18615 7.85315C0.292053 7.95025 0.430512 8.00412 0.574194 8.00413C0.607635 8.00409 0.641011 8.0012 0.673965 7.99552L1.84538 7.7888C1.94831 8.10216 2.08958 8.40159 2.266 8.68028C1.71675 9.19045 1.33384 9.85419 1.16715 10.5851C1.00046 11.3159 1.0577 12.08 1.33143 12.7779C1.60516 13.4758 2.08268 14.0751 2.70182 14.4977C3.32095 14.9204 4.053 15.1468 4.80264 15.1475H10.5449C11.9917 15.1475 13.3792 14.5727 14.4022 13.5497C15.4253 12.5267 16 11.1391 16 9.69235C16 8.24556 15.4253 6.85803 14.4022 5.83499C13.3792 4.81196 11.9917 4.23722 10.5449 4.23722ZM2.79285 6.53412C2.79319 5.92606 2.98658 5.3338 3.34514 4.84271C3.7037 4.35161 4.20892 3.98703 4.78799 3.80151C5.36706 3.61599 5.99008 3.61911 6.56727 3.81042C7.14445 4.00172 7.646 4.37134 7.99963 4.866C6.82827 5.48243 5.91996 6.50243 5.44289 7.73712C4.68804 7.60682 3.91137 7.71129 3.21778 8.03643C2.94009 7.58452 2.79301 7.06453 2.79285 6.53412ZM10.5449 13.999H4.80264C4.44922 13.9984 4.09969 13.9252 3.77567 13.7841C3.45164 13.643 3.16001 13.4369 2.9188 13.1786C2.67759 12.9203 2.49193 12.6153 2.3733 12.2824C2.25467 11.9495 2.20559 11.5958 2.22911 11.2431C2.25262 10.8905 2.34822 10.5464 2.51 10.2322C2.67177 9.91798 2.89629 9.64029 3.16965 9.4163C3.44302 9.1923 3.75943 9.02677 4.09932 8.92992C4.43921 8.83308 4.79536 8.80699 5.14573 8.85327C5.11918 9.02338 5.10051 9.19708 5.09047 9.37222C5.08613 9.44763 5.09669 9.52315 5.12154 9.59448C5.14639 9.66581 5.18505 9.73154 5.2353 9.78793C5.28556 9.84432 5.34643 9.89025 5.41444 9.92312C5.48245 9.95598 5.55626 9.97513 5.63167 9.97946C5.70708 9.9838 5.7826 9.97324 5.85393 9.94839C5.92526 9.92354 5.99099 9.88488 6.04738 9.83462C6.10377 9.78437 6.1497 9.7235 6.18257 9.65549C6.21543 9.58748 6.23458 9.51367 6.23891 9.43826C6.25502 9.15184 6.30024 8.86782 6.37386 8.59056C6.37386 8.57907 6.38032 8.56759 6.38247 8.5561C6.59352 7.7805 7.01722 7.07936 7.60571 6.53184C8.1942 5.98431 8.92404 5.61223 9.71283 5.45759C10.5016 5.30295 11.3179 5.37192 12.0696 5.65671C12.8213 5.9415 13.4783 6.43077 13.9666 7.06927C14.4549 7.70777 14.7549 8.47006 14.8329 9.27008C14.9108 10.0701 14.7635 10.876 14.4076 11.5967C14.0518 12.3174 13.5015 12.9243 12.8189 13.3488C12.1363 13.7733 11.3487 13.9985 10.5449 13.999Z"/>
</svg>
