<svg fill="currentColor" width="16" height="16" viewBox="0 0 16 16" xmlns="http://www.w3.org/2000/svg">
<path d="M8 0C6.41775 0 4.87103 0.469192 3.55544 1.34824C2.23985 2.22729 1.21447 3.47672 0.608967 4.93853C0.00346628 6.40034 -0.15496 8.00887 0.153721 9.56072C0.462403 11.1126 1.22433 12.538 2.34315 13.6569C3.46197 14.7757 4.88743 15.5376 6.43928 15.8463C7.99113 16.155 9.59966 15.9965 11.0615 15.391C12.5233 14.7855 13.7727 13.7602 14.6518 12.4446C15.5308 11.129 16 9.58225 16 8C15.9978 5.87895 15.1542 3.84542 13.6544 2.34562C12.1546 0.845814 10.121 0.00223986 8 0ZM8 14.7692C6.66117 14.7692 5.35241 14.3722 4.23922 13.6284C3.12603 12.8846 2.2584 11.8274 1.74605 10.5905C1.2337 9.35356 1.09965 7.99249 1.36084 6.67939C1.62203 5.36629 2.26674 4.16012 3.21343 3.21343C4.16013 2.26674 5.36629 1.62203 6.67939 1.36084C7.99249 1.09965 9.35356 1.2337 10.5905 1.74605C11.8274 2.25839 12.8846 3.12602 13.6284 4.23922C14.3722 5.35241 14.7692 6.66117 14.7692 8C14.7672 9.79468 14.0534 11.5153 12.7843 12.7843C11.5153 14.0534 9.79469 14.7672 8 14.7692ZM8.92308 8C8.92308 8.18257 8.86894 8.36103 8.76751 8.51283C8.66608 8.66463 8.52192 8.78294 8.35325 8.85281C8.18458 8.92267 7.99898 8.94096 7.81992 8.90534C7.64086 8.86972 7.47638 8.78181 7.34729 8.65271C7.21819 8.52362 7.13028 8.35914 7.09466 8.18008C7.05904 8.00102 7.07732 7.81542 7.14719 7.64675C7.21706 7.47808 7.33537 7.33392 7.48717 7.23249C7.63897 7.13106 7.81743 7.07692 8 7.07692C8.24482 7.07692 8.4796 7.17417 8.65271 7.34728C8.82583 7.52039 8.92308 7.75518 8.92308 8ZM12.3077 8C12.3077 8.18257 12.2536 8.36103 12.1521 8.51283C12.0507 8.66463 11.9065 8.78294 11.7379 8.85281C11.5692 8.92267 11.3836 8.94096 11.2045 8.90534C11.0255 8.86972 10.861 8.78181 10.7319 8.65271C10.6028 8.52362 10.5149 8.35914 10.4793 8.18008C10.4437 8.00102 10.4619 7.81542 10.5318 7.64675C10.6017 7.47808 10.72 7.33392 10.8718 7.23249C11.0236 7.13106 11.202 7.07692 11.3846 7.07692C11.6294 7.07692 11.8642 7.17417 12.0373 7.34728C12.2104 7.52039 12.3077 7.75518 12.3077 8ZM5.53846 8C5.53846 8.18257 5.48433 8.36103 5.3829 8.51283C5.28147 8.66463 5.1373 8.78294 4.96863 8.85281C4.79996 8.92267 4.61436 8.94096 4.4353 8.90534C4.25624 8.86972 4.09177 8.78181 3.96267 8.65271C3.83358 8.52362 3.74566 8.35914 3.71005 8.18008C3.67443 8.00102 3.69271 7.81542 3.76258 7.64675C3.83244 7.47808 3.95075 7.33392 4.10255 7.23249C4.25435 7.13106 4.43282 7.07692 4.61539 7.07692C4.8602 7.07692 5.09499 7.17417 5.2681 7.34728C5.44121 7.52039 5.53846 7.75518 5.53846 8Z"/>
</svg>
