<svg fill="currentColor" width="16" height="16" viewBox="0 0 16 16" xmlns="http://www.w3.org/2000/svg">
<path d="M14.8361 3.5817L8.54869 0.141512C8.3807 0.0486893 8.19191 0 7.99998 0C7.80805 0 7.61925 0.0486893 7.45126 0.141512L1.1639 3.58313C0.984344 3.68137 0.834458 3.82602 0.729894 4.00197C0.62533 4.17792 0.569923 4.37872 0.569458 4.58339V11.4166C0.569923 11.6213 0.62533 11.8221 0.729894 11.998C0.834458 12.174 0.984344 12.3186 1.1639 12.4169L7.45126 15.8585C7.61925 15.9513 7.80805 16 7.99998 16C8.19191 16 8.3807 15.9513 8.54869 15.8585L14.8361 12.4169C15.0156 12.3186 15.1655 12.174 15.2701 11.998C15.3746 11.8221 15.43 11.6213 15.4305 11.4166V4.5841C15.4304 4.37907 15.3752 4.17782 15.2706 4.00146C15.166 3.8251 15.0159 3.68012 14.8361 3.5817ZM7.99998 1.14177L13.7401 4.28546L11.6131 5.45005L5.87228 2.30637L7.99998 1.14177ZM7.99998 7.42914L2.2599 4.28546L4.68196 2.95939L10.422 6.10308L7.99998 7.42914ZM1.71261 5.28572L7.4284 8.41368V14.5431L1.71261 11.4173V5.28572ZM14.2873 11.4145L8.57156 14.5431V8.41654L10.8579 7.1655V9.71545C10.8579 9.86704 10.9181 10.0124 11.0253 10.1196C11.1325 10.2268 11.2779 10.287 11.4294 10.287C11.581 10.287 11.7264 10.2268 11.8336 10.1196C11.9408 10.0124 12.001 9.86704 12.001 9.71545V6.53962L14.2873 5.28572V11.4138V11.4145Z"/>
</svg>
