<svg fill="currentColor" width="16" height="16" viewBox="0 0 16 16" xmlns="http://www.w3.org/2000/svg">
<g clip-path="url(#clip0_3135_27)">
<path d="M15.6666 10.6667C15.6666 10.8435 15.5964 11.013 15.4714 11.1381C15.3464 11.2631 15.1768 11.3333 15 11.3333H13V12.6667H14.3333C14.5101 12.6667 14.6797 12.7369 14.8047 12.8619C14.9297 12.987 15 13.1565 15 13.3333C15 13.5101 14.9297 13.6797 14.8047 13.8047C14.6797 13.9298 14.5101 14 14.3333 14H13V15.3333C13 15.5101 12.9297 15.6797 12.8047 15.8047C12.6797 15.9298 12.5101 16 12.3333 16C12.1565 16 11.9869 15.9298 11.8619 15.8047C11.7369 15.6797 11.6666 15.5101 11.6666 15.3333V10.6667C11.6666 10.4899 11.7369 10.3203 11.8619 10.1953C11.9869 10.0702 12.1565 10 12.3333 10H15C15.1768 10 15.3464 10.0702 15.4714 10.1953C15.5964 10.3203 15.6666 10.4899 15.6666 10.6667ZM4.66665 12.3333C4.66665 12.9522 4.42081 13.5457 3.98323 13.9832C3.54564 14.4208 2.95215 14.6667 2.33331 14.6667H1.66665V15.3333C1.66665 15.5101 1.59641 15.6797 1.47138 15.8047C1.34636 15.9298 1.17679 16 0.99998 16C0.823169 16 0.6536 15.9298 0.528575 15.8047C0.403551 15.6797 0.333313 15.5101 0.333313 15.3333V10.6667C0.333313 10.4899 0.403551 10.3203 0.528575 10.1953C0.6536 10.0702 0.823169 10 0.99998 10H2.33331C2.95215 10 3.54564 10.2458 3.98323 10.6834C4.42081 11.121 4.66665 11.7145 4.66665 12.3333ZM3.33331 12.3333C3.33331 12.0681 3.22796 11.8138 3.04042 11.6262C2.85288 11.4387 2.59853 11.3333 2.33331 11.3333H1.66665V13.3333H2.33331C2.59853 13.3333 2.85288 13.228 3.04042 13.0404C3.22796 12.8529 3.33331 12.5985 3.33331 12.3333ZM10.6666 13C10.6666 13.7956 10.3506 14.5587 9.78797 15.1213C9.22536 15.6839 8.4623 16 7.66665 16H6.33331C6.1565 16 5.98693 15.9298 5.86191 15.8047C5.73688 15.6797 5.66665 15.5101 5.66665 15.3333V10.6667C5.66665 10.4899 5.73688 10.3203 5.86191 10.1953C5.98693 10.0702 6.1565 10 6.33331 10H7.66665C8.4623 10 9.22536 10.3161 9.78797 10.8787C10.3506 11.4413 10.6666 12.2044 10.6666 13ZM9.33331 13C9.33331 12.558 9.15772 12.134 8.84516 11.8215C8.5326 11.5089 8.10867 11.3333 7.66665 11.3333H6.99998V14.6667H7.66665C8.10867 14.6667 8.5326 14.4911 8.84516 14.1785C9.15772 13.866 9.33331 13.442 9.33331 13ZM0.333313 7.33333V1.33333C0.333313 0.979712 0.473789 0.640573 0.723837 0.390524C0.973886 0.140476 1.31302 2.06132e-07 1.66665 2.06132e-07H9.66665C9.75422 -6.86572e-05 9.84095 0.0171172 9.92188 0.0505759C10.0028 0.0840347 10.0764 0.133111 10.1383 0.195L14.805 4.86167C14.8669 4.92363 14.9159 4.99717 14.9494 5.0781C14.9829 5.15903 15 5.24576 15 5.33333V7.33333C15 7.51014 14.9297 7.67971 14.8047 7.80474C14.6797 7.92976 14.5101 8 14.3333 8C14.1565 8 13.9869 7.92976 13.8619 7.80474C13.7369 7.67971 13.6666 7.51014 13.6666 7.33333V6H9.66665C9.48983 6 9.32026 5.92976 9.19524 5.80474C9.07022 5.67971 8.99998 5.51014 8.99998 5.33333V1.33333H1.66665V7.33333C1.66665 7.51014 1.59641 7.67971 1.47138 7.80474C1.34636 7.92976 1.17679 8 0.99998 8C0.823169 8 0.6536 7.92976 0.528575 7.80474C0.403551 7.67971 0.333313 7.51014 0.333313 7.33333ZM10.3333 4.66667H12.7241L10.3333 2.27583V4.66667Z"/>
</g>
<defs>
<clipPath id="clip0_3135_27">
<rect width="16" height="16"/>
</clipPath>
</defs>
</svg>
