<svg fill="currentColor" width="16" height="16" viewBox="0 0 16 16" xmlns="http://www.w3.org/2000/svg">
<path d="M4.86076 11.5692C4.92543 11.6178 4.99905 11.6532 5.07742 11.6733C5.15578 11.6935 5.23734 11.6979 5.31743 11.6865C5.39752 11.6751 5.47458 11.648 5.54418 11.6067C5.61378 11.5655 5.67457 11.5109 5.72306 11.4462C6.09565 10.9494 6.57879 10.5462 7.13421 10.2684C7.68963 9.99074 8.30208 9.84615 8.92306 9.84615C9.54404 9.84615 10.1565 9.99074 10.7119 10.2684C11.2673 10.5462 11.7505 10.9494 12.1231 11.4462C12.1716 11.5108 12.2323 11.5653 12.3018 11.6064C12.3714 11.6476 12.4483 11.6747 12.5283 11.6861C12.6083 11.6976 12.6898 11.6931 12.7681 11.6731C12.8464 11.653 12.92 11.6177 12.9846 11.5692C13.0493 11.5207 13.1037 11.46 13.1449 11.3905C13.1861 11.3209 13.2131 11.244 13.2246 11.164C13.236 11.084 13.2316 11.0025 13.2115 10.9242C13.1914 10.8459 13.1562 10.7723 13.1077 10.7077C12.5628 9.97712 11.8361 9.40191 11 9.03923C11.4582 8.62088 11.7792 8.07376 11.921 7.46969C12.0627 6.86562 12.0185 6.23281 11.7941 5.65432C11.5697 5.07583 11.1757 4.57869 10.6638 4.22813C10.1518 3.87758 9.54584 3.68999 8.92537 3.68999C8.3049 3.68999 7.69892 3.87758 7.18697 4.22813C6.67501 4.57869 6.281 5.07583 6.05664 5.65432C5.83228 6.23281 5.78806 6.86562 5.92978 7.46969C6.0715 8.07376 6.39253 8.62088 6.85076 9.03923C6.01294 9.40122 5.28463 9.97649 4.73845 10.7077C4.64044 10.8382 4.59827 11.0022 4.6212 11.1638C4.64414 11.3254 4.73031 11.4712 4.86076 11.5692ZM7.07691 6.76923C7.07691 6.4041 7.18518 6.04716 7.38804 5.74356C7.5909 5.43996 7.87923 5.20334 8.21657 5.06361C8.55391 4.92388 8.92511 4.88732 9.28323 4.95855C9.64135 5.02978 9.9703 5.20561 10.2285 5.4638C10.4867 5.72199 10.6625 6.05095 10.7337 6.40906C10.805 6.76718 10.7684 7.13838 10.6287 7.47572C10.489 7.81306 10.2523 8.10139 9.94873 8.30425C9.64513 8.50711 9.2882 8.61539 8.92306 8.61539C8.43343 8.61539 7.96386 8.42088 7.61763 8.07466C7.27141 7.72844 7.07691 7.25886 7.07691 6.76923ZM14.4615 0H3.3846C3.05818 0 2.74513 0.12967 2.51432 0.360484C2.2835 0.591298 2.15383 0.904349 2.15383 1.23077V3.07692H0.923063C0.759853 3.07692 0.603327 3.14176 0.48792 3.25717C0.372513 3.37257 0.307678 3.5291 0.307678 3.69231C0.307678 3.85552 0.372513 4.01204 0.48792 4.12745C0.603327 4.24286 0.759853 4.30769 0.923063 4.30769H2.15383V7.38462H0.923063C0.759853 7.38462 0.603327 7.44945 0.48792 7.56486C0.372513 7.68026 0.307678 7.83679 0.307678 8C0.307678 8.16321 0.372513 8.31974 0.48792 8.43514C0.603327 8.55055 0.759853 8.61539 0.923063 8.61539H2.15383V11.6923H0.923063C0.759853 11.6923 0.603327 11.7571 0.48792 11.8726C0.372513 11.988 0.307678 12.1445 0.307678 12.3077C0.307678 12.4709 0.372513 12.6274 0.48792 12.7428C0.603327 12.8582 0.759853 12.9231 0.923063 12.9231H2.15383V14.7692C2.15383 15.0957 2.2835 15.4087 2.51432 15.6395C2.74513 15.8703 3.05818 16 3.3846 16H14.4615C14.7879 16 15.101 15.8703 15.3318 15.6395C15.5626 15.4087 15.6923 15.0957 15.6923 14.7692V1.23077C15.6923 0.904349 15.5626 0.591298 15.3318 0.360484C15.101 0.12967 14.7879 0 14.4615 0ZM14.4615 14.7692H3.3846V1.23077H14.4615V14.7692Z"/>
</svg>
