<svg fill="currentColor" width="16" height="16" viewBox="0 0 16 16" xmlns="http://www.w3.org/2000/svg">
<path d="M14 4.56468C13.6044 4.56468 13.2178 4.68198 12.8889 4.90174C12.56 5.1215 12.3036 5.43386 12.1522 5.79931C12.0009 6.16477 11.9613 6.5669 12.0384 6.95486C12.1156 7.34282 12.3061 7.69919 12.5858 7.97889C12.8655 8.2586 13.2219 8.44908 13.6098 8.52625C13.9978 8.60342 14.3999 8.56381 14.7654 8.41244C15.1308 8.26106 15.4432 8.00472 15.6629 7.67582C15.8827 7.34692 16 6.96024 16 6.56468C16 6.03425 15.7893 5.52554 15.4142 5.15047C15.0391 4.77539 14.5304 4.56468 14 4.56468ZM14 7.42182C13.8305 7.42182 13.6648 7.37155 13.5238 7.27737C13.3828 7.18318 13.273 7.04932 13.2081 6.89269C13.1432 6.73607 13.1263 6.56373 13.1593 6.39746C13.1924 6.23119 13.274 6.07846 13.3939 5.95859C13.5138 5.83872 13.6665 5.75708 13.8328 5.72401C13.9991 5.69093 14.1714 5.70791 14.328 5.77278C14.4846 5.83766 14.6185 5.94752 14.7127 6.08848C14.8069 6.22943 14.8571 6.39515 14.8571 6.56468C14.8571 6.79201 14.7668 7.01003 14.6061 7.17077C14.4453 7.33152 14.2273 7.42182 14 7.42182ZM4 6.56468C4 6.16912 3.8827 5.78244 3.66294 5.45354C3.44318 5.12464 3.13082 4.8683 2.76537 4.71692C2.39992 4.56555 1.99778 4.52594 1.60982 4.60311C1.22186 4.68028 0.865492 4.87076 0.585787 5.15047C0.306082 5.43017 0.115601 5.78654 0.0384303 6.1745C-0.0387401 6.56246 0.000866566 6.96459 0.152242 7.33005C0.303617 7.6955 0.559962 8.00786 0.88886 8.22762C1.21776 8.44738 1.60444 8.56468 2 8.56468C2.53043 8.56468 3.03914 8.35397 3.41421 7.97889C3.78929 7.60382 4 7.09511 4 6.56468ZM2 7.42182C1.83047 7.42182 1.66475 7.37155 1.5238 7.27737C1.38284 7.18318 1.27298 7.04932 1.2081 6.89269C1.14323 6.73607 1.12625 6.56373 1.15933 6.39746C1.1924 6.23119 1.27404 6.07846 1.39391 5.95859C1.51378 5.83872 1.66651 5.75708 1.83278 5.72401C1.99905 5.69093 2.17139 5.70791 2.32802 5.77278C2.48464 5.83766 2.6185 5.94752 2.71269 6.08848C2.80687 6.22943 2.85714 6.39515 2.85714 6.56468C2.85714 6.79201 2.76684 7.01003 2.60609 7.17077C2.44535 7.33152 2.22733 7.42182 2 7.42182ZM5.42857 5.13611C5.82413 5.13611 6.21081 5.01881 6.53971 4.79905C6.86861 4.57929 7.12496 4.26693 7.27633 3.90148C7.42771 3.53602 7.46731 3.13389 7.39014 2.74593C7.31297 2.35797 7.12249 2.0016 6.84279 1.7219C6.56308 1.44219 6.20672 1.25171 5.81875 1.17454C5.43079 1.09737 5.02866 1.13697 4.66321 1.28835C4.29775 1.43973 3.9854 1.69607 3.76563 2.02497C3.54587 2.35387 3.42857 2.74055 3.42857 3.13611C3.42857 3.66654 3.63929 4.17525 4.01436 4.55032C4.38943 4.9254 4.89814 5.13611 5.42857 5.13611ZM5.42857 2.27897C5.5981 2.27897 5.76382 2.32924 5.90478 2.42342C6.04573 2.51761 6.15559 2.65147 6.22047 2.80809C6.28534 2.96472 6.30232 3.13706 6.26925 3.30333C6.23617 3.4696 6.15454 3.62233 6.03466 3.7422C5.91479 3.86207 5.76206 3.94371 5.59579 3.97678C5.42952 4.00986 5.25718 3.99288 5.10056 3.92801C4.94394 3.86313 4.81007 3.75327 4.71588 3.61231C4.6217 3.47136 4.57143 3.30564 4.57143 3.13611C4.57143 2.90878 4.66174 2.69076 4.82248 2.53002C4.98323 2.36927 5.20124 2.27897 5.42857 2.27897ZM10.5714 5.13611C10.967 5.13611 11.3537 5.01881 11.6826 4.79905C12.0115 4.57929 12.2678 4.26693 12.4192 3.90148C12.5706 3.53602 12.6102 3.13389 12.533 2.74593C12.4558 2.35797 12.2653 2.0016 11.9856 1.7219C11.7059 1.44219 11.3496 1.25171 10.9616 1.17454C10.5736 1.09737 10.1715 1.13697 9.80606 1.28835C9.44061 1.43973 9.12825 1.69607 8.90849 2.02497C8.68873 2.35387 8.57143 2.74055 8.57143 3.13611C8.57143 3.66654 8.78214 4.17525 9.15722 4.55032C9.53229 4.9254 10.041 5.13611 10.5714 5.13611ZM10.5714 2.27897C10.741 2.27897 10.9067 2.32924 11.0476 2.42342C11.1886 2.51761 11.2985 2.65147 11.3633 2.80809C11.4282 2.96472 11.4452 3.13706 11.4121 3.30333C11.379 3.4696 11.2974 3.62233 11.1775 3.7422C11.0576 3.86207 10.9049 3.94371 10.7386 3.97678C10.5724 4.00986 10.4 3.99288 10.2434 3.92801C10.0868 3.86313 9.95293 3.75327 9.85874 3.61231C9.76456 3.47136 9.71429 3.30564 9.71429 3.13611C9.71429 2.90878 9.80459 2.69076 9.96534 2.53002C10.1261 2.36927 10.3441 2.27897 10.5714 2.27897ZM12.2229 9.48325C11.9326 9.32313 11.6768 9.10734 11.47 8.84823C11.2632 8.58913 11.1096 8.2918 11.0179 7.97325C10.8279 7.31986 10.4309 6.74578 9.88674 6.33728C9.34254 5.92878 8.68046 5.70794 8 5.70794C7.31954 5.70794 6.65746 5.92878 6.11326 6.33728C5.56906 6.74578 5.17214 7.31986 4.98214 7.97325C4.79861 8.61423 4.36834 9.15624 3.78571 9.48039C3.2268 9.78282 2.78466 10.263 2.52923 10.8449C2.27381 11.4268 2.21966 12.0772 2.37537 12.6933C2.53108 13.3094 2.88776 13.8561 3.38898 14.2467C3.8902 14.6374 4.50737 14.8498 5.14286 14.8504C5.52369 14.8515 5.90079 14.7754 6.25143 14.6268C7.36933 14.1658 8.62424 14.1658 9.74214 14.6268C10.4193 14.9213 11.1841 14.9422 11.8763 14.6852C12.5685 14.4281 13.1343 13.9131 13.4551 13.2481C13.7759 12.583 13.8267 11.8196 13.597 11.1179C13.3673 10.4161 12.8748 9.83057 12.2229 9.48396V9.48325ZM10.8571 13.7075C10.6251 13.7077 10.3955 13.6608 10.1821 13.5697C8.78259 12.9916 7.21099 12.9916 5.81143 13.5697C5.40471 13.7448 4.94601 13.7557 4.53141 13.6002C4.1168 13.4447 3.77846 13.1348 3.58725 12.7354C3.39604 12.336 3.36681 11.8781 3.50566 11.4576C3.64451 11.0371 3.94069 10.6867 4.33214 10.4797C4.75303 10.2472 5.12397 9.93412 5.42376 9.55822C5.72355 9.18232 5.9463 8.75101 6.07929 8.28897C6.20004 7.87296 6.4526 7.50741 6.79898 7.24728C7.14535 6.98715 7.56682 6.84651 8 6.84651C8.43318 6.84651 8.85465 6.98715 9.20102 7.24728C9.5474 7.50741 9.79996 7.87296 9.92071 8.28897C10.0541 8.75187 10.2776 9.18391 10.5782 9.56032C10.8789 9.93673 11.2509 10.2501 11.6729 10.4825C12.0099 10.6633 12.2768 10.9516 12.4311 11.3015C12.5855 11.6514 12.6183 12.0429 12.5246 12.4136C12.4308 12.7844 12.2157 13.1131 11.9136 13.3476C11.6114 13.5821 11.2396 13.7088 10.8571 13.7075Z"/>
</svg>
