<svg fill="currentColor" width="16" height="16" viewBox="0 0 16 16" xmlns="http://www.w3.org/2000/svg">
<path d="M11.9422 12.9997L13.8047 11.1381C13.9298 11.013 14 10.8433 14 10.6664C14 10.4895 13.9298 10.3199 13.8047 10.1948C13.6796 10.0697 13.5099 9.9994 13.333 9.9994C13.1561 9.9994 12.9864 10.0697 12.8614 10.1948L10.9997 12.0572L7.57064 8.6273C8.65865 8.48004 9.6502 7.92526 10.3449 7.07507C11.0396 6.22488 11.3857 5.14268 11.3132 4.04714C11.2407 2.95161 10.7551 1.92443 9.95442 1.17318C9.15375 0.421933 8.09775 0.00262883 6.99982 0H2.66659C2.48978 0 2.32022 0.0702364 2.1952 0.195258C2.07018 0.320279 1.99994 0.489844 1.99994 0.666651V13.333C1.99994 13.5098 2.07018 13.6794 2.1952 13.8044C2.32022 13.9294 2.48978 13.9997 2.66659 13.9997C2.8434 13.9997 3.01296 13.9294 3.13798 13.8044C3.26301 13.6794 3.33324 13.5098 3.33324 13.333V8.66647H5.72402L10.0573 12.9997L8.1948 14.8613C8.0697 14.9864 7.99943 15.1561 7.99943 15.333C7.99943 15.5099 8.0697 15.6795 8.1948 15.8046C8.31989 15.9297 8.48955 16 8.66645 16C8.84336 16 9.01302 15.9297 9.13811 15.8046L10.9997 13.9422L12.8614 15.8046C12.9233 15.8666 12.9968 15.9157 13.0778 15.9492C13.1587 15.9827 13.2454 16 13.333 16C13.4206 16 13.5073 15.9827 13.5883 15.9492C13.6692 15.9157 13.7427 15.8666 13.8047 15.8046C13.8666 15.7427 13.9157 15.6692 13.9493 15.5882C13.9828 15.5073 14 15.4206 14 15.333C14 15.2454 13.9828 15.1586 13.9493 15.0777C13.9157 14.9968 13.8666 14.9233 13.8047 14.8613L11.9422 12.9997ZM3.33324 1.3333H6.99982C7.79545 1.3333 8.5585 1.64937 9.12109 2.21196C9.68369 2.77456 9.99975 3.5376 9.99975 4.33323C9.99975 5.12886 9.68369 5.89191 9.12109 6.4545C8.5585 7.0171 7.79545 7.33316 6.99982 7.33316H3.33324V1.3333Z"/>
</svg>
