<svg fill="currentColor" width="16" height="16" viewBox="0 0 16 16" xmlns="http://www.w3.org/2000/svg">
<path d="M10.963 8.2963C10.963 8.45346 10.9006 8.60419 10.7894 8.71532C10.6783 8.82646 10.5276 8.88889 10.3704 8.88889H5.62965C5.47249 8.88889 5.32176 8.82646 5.21063 8.71532C5.0995 8.60419 5.03706 8.45346 5.03706 8.2963C5.03706 8.13913 5.0995 7.9884 5.21063 7.87727C5.32176 7.76614 5.47249 7.7037 5.62965 7.7037H10.3704C10.5276 7.7037 10.6783 7.76614 10.7894 7.87727C10.9006 7.9884 10.963 8.13913 10.963 8.2963ZM10.3704 10.0741H5.62965C5.47249 10.0741 5.32176 10.1365 5.21063 10.2476C5.0995 10.3588 5.03706 10.5095 5.03706 10.6667C5.03706 10.8238 5.0995 10.9746 5.21063 11.0857C5.32176 11.1968 5.47249 11.2593 5.62965 11.2593H10.3704C10.5276 11.2593 10.6783 11.1968 10.7894 11.0857C10.9006 10.9746 10.963 10.8238 10.963 10.6667C10.963 10.5095 10.9006 10.3588 10.7894 10.2476C10.6783 10.1365 10.5276 10.0741 10.3704 10.0741ZM14.5185 2.37037V13.6296C14.5185 14.2583 14.2688 14.8612 13.8243 15.3057C13.3797 15.7503 12.7768 16 12.1482 16H3.85188C3.22322 16 2.6203 15.7503 2.17577 15.3057C1.73124 14.8612 1.48151 14.2583 1.48151 13.6296V2.37037C1.48151 2.05604 1.60637 1.75458 1.82864 1.53232C2.0509 1.31005 2.35236 1.18519 2.66669 1.18519H3.85188V0.592593C3.85188 0.435427 3.91431 0.284699 4.02544 0.173566C4.13658 0.0624337 4.2873 0 4.44447 0C4.60163 0 4.75236 0.0624337 4.8635 0.173566C4.97463 0.284699 5.03706 0.435427 5.03706 0.592593V1.18519H7.40743V0.592593C7.40743 0.435427 7.46987 0.284699 7.581 0.173566C7.69213 0.0624337 7.84286 0 8.00002 0C8.15719 0 8.30792 0.0624337 8.41905 0.173566C8.53018 0.284699 8.59262 0.435427 8.59262 0.592593V1.18519H10.963V0.592593C10.963 0.435427 11.0254 0.284699 11.1366 0.173566C11.2477 0.0624337 11.3984 0 11.5556 0C11.7127 0 11.8635 0.0624337 11.9746 0.173566C12.0857 0.284699 12.1482 0.435427 12.1482 0.592593V1.18519H13.3334C13.6477 1.18519 13.9491 1.31005 14.1714 1.53232C14.3937 1.75458 14.5185 2.05604 14.5185 2.37037ZM13.3334 2.37037H12.1482V2.96296C12.1482 3.12013 12.0857 3.27086 11.9746 3.38199C11.8635 3.49312 11.7127 3.55556 11.5556 3.55556C11.3984 3.55556 11.2477 3.49312 11.1366 3.38199C11.0254 3.27086 10.963 3.12013 10.963 2.96296V2.37037H8.59262V2.96296C8.59262 3.12013 8.53018 3.27086 8.41905 3.38199C8.30792 3.49312 8.15719 3.55556 8.00002 3.55556C7.84286 3.55556 7.69213 3.49312 7.581 3.38199C7.46987 3.27086 7.40743 3.12013 7.40743 2.96296V2.37037H5.03706V2.96296C5.03706 3.12013 4.97463 3.27086 4.8635 3.38199C4.75236 3.49312 4.60163 3.55556 4.44447 3.55556C4.2873 3.55556 4.13658 3.49312 4.02544 3.38199C3.91431 3.27086 3.85188 3.12013 3.85188 2.96296V2.37037H2.66669V13.6296C2.66669 13.944 2.79156 14.2454 3.01382 14.4677C3.23609 14.6899 3.53755 14.8148 3.85188 14.8148H12.1482C12.4625 14.8148 12.764 14.6899 12.9862 14.4677C13.2085 14.2454 13.3334 13.944 13.3334 13.6296V2.37037Z"/>
<path d="M9.18521 5.31495C9.18521 5.96325 8.0869 6.488 8.04013 6.50968C8.0278 6.51548 8.01402 6.51852 8.00002 6.51852C7.98603 6.51852 7.97225 6.51548 7.95992 6.50968C7.91315 6.488 6.81484 5.96325 6.81484 5.31495C6.81504 5.16271 6.88422 5.01676 7.00722 4.90911C7.13022 4.80146 7.29698 4.74091 7.47092 4.74074C7.68944 4.74074 7.88077 4.82298 8.00002 4.962C8.11928 4.82298 8.31061 4.74074 8.52913 4.74074C8.70307 4.74091 8.86983 4.80146 8.99283 4.90911C9.11583 5.01676 9.18501 5.16271 9.18521 5.31495Z"/>
</svg>
