<svg fill="currentColor" width="16" height="16" viewBox="0 0 16 16" xmlns="http://www.w3.org/2000/svg">
<path d="M14.1852 6.96098L3.10235 0.181149C2.9155 0.0667307 2.70149 0.00426776 2.48243 0.000211031C2.26336 -0.0038457 2.04719 0.0506508 1.85623 0.158072C1.66709 0.263826 1.50953 0.41805 1.39975 0.604885C1.28997 0.791721 1.23194 1.00442 1.23163 1.22112V14.7793C1.23305 15.1043 1.3635 15.4155 1.59428 15.6444C1.82507 15.8733 2.13731 16.0012 2.46237 16C2.68925 15.9999 2.91173 15.9374 3.10543 15.8192L14.1852 9.03939C14.3633 8.93084 14.5104 8.77831 14.6126 8.59645C14.7147 8.4146 14.7683 8.20953 14.7683 8.00096C14.7683 7.79238 14.7147 7.58732 14.6126 7.40546C14.5104 7.22361 14.3633 7.07107 14.1852 6.96252V6.96098ZM2.46237 14.7646V1.23112L13.5259 8.00019L2.46237 14.7646Z"/>
</svg>
