<svg fill="currentColor" width="16" height="16" viewBox="0 0 16 16" xmlns="http://www.w3.org/2000/svg">
<path d="M8 0C6.41775 0 4.87103 0.469192 3.55544 1.34824C2.23985 2.22729 1.21447 3.47672 0.608967 4.93853C0.00346629 6.40034 -0.15496 8.00887 0.153721 9.56072C0.462403 11.1126 1.22433 12.538 2.34315 13.6569C3.46197 14.7757 4.88743 15.5376 6.43928 15.8463C7.99113 16.155 9.59966 15.9965 11.0615 15.391C12.5233 14.7855 13.7727 13.7602 14.6518 12.4446C15.5308 11.129 16 9.58225 16 8C15.9976 5.87899 15.154 3.84553 13.6543 2.34574C12.1545 0.845963 10.121 0.00235276 8 0ZM8 14.2222C6.76936 14.2222 5.56636 13.8573 4.54312 13.1736C3.51988 12.4899 2.72236 11.5181 2.25142 10.3811C1.78047 9.24418 1.65725 7.9931 1.89734 6.7861C2.13743 5.57911 2.73003 4.47042 3.60023 3.60022C4.47042 2.73003 5.57911 2.13742 6.78611 1.89734C7.9931 1.65725 9.24418 1.78047 10.3811 2.25142C11.5181 2.72236 12.4899 3.51988 13.1736 4.54312C13.8573 5.56636 14.2222 6.76936 14.2222 8C14.2205 9.64969 13.5643 11.2313 12.3978 12.3978C11.2313 13.5643 9.6497 14.2205 8 14.2222ZM10.963 8C10.9629 8.14292 10.9285 8.28372 10.8624 8.41048C10.7964 8.53724 10.7008 8.64621 10.5837 8.72815L7.62074 10.8022C7.48754 10.8954 7.33132 10.9503 7.16909 10.9609C7.00685 10.9715 6.84482 10.9374 6.70061 10.8624C6.55641 10.7873 6.43556 10.6741 6.35121 10.5351C6.26686 10.3961 6.22225 10.2367 6.22222 10.0741V5.92592C6.22225 5.76335 6.26686 5.60389 6.35121 5.4649C6.43556 5.32591 6.55641 5.21272 6.70061 5.13764C6.84482 5.06256 7.00685 5.02846 7.16909 5.03907C7.33132 5.04967 7.48754 5.10456 7.62074 5.19778L10.5837 7.27185C10.7008 7.35379 10.7964 7.46276 10.8624 7.58952C10.9285 7.71627 10.9629 7.85708 10.963 8Z"/>
</svg>
