<svg fill="currentColor" width="16" height="16" viewBox="0 0 16 16" xmlns="http://www.w3.org/2000/svg">
<g clip-path="url(#clip0_3135_23)">
<path d="M14.5892 4.48769L10.2815 0.18C10.2244 0.122871 10.1565 0.0775705 10.0818 0.0466855C10.0071 0.0158005 9.927 -6.33759e-05 9.84616 1.90276e-07H2.46154C2.13512 1.90276e-07 1.82207 0.12967 1.59126 0.360484C1.36044 0.591298 1.23077 0.904349 1.23077 1.23077V14.7692C1.23077 15.0957 1.36044 15.4087 1.59126 15.6395C1.82207 15.8703 2.13512 16 2.46154 16H13.5385C13.8649 16 14.1779 15.8703 14.4088 15.6395C14.6396 15.4087 14.7692 15.0957 14.7692 14.7692V4.92308C14.7693 4.84224 14.7534 4.76218 14.7226 4.68748C14.6917 4.61277 14.6464 4.54488 14.5892 4.48769ZM10.4615 2.10077L12.6685 4.30769H10.4615V2.10077ZM13.5385 14.7692H2.46154V1.23077H9.23077V4.92308C9.23077 5.08629 9.29561 5.24281 9.41102 5.35822C9.52642 5.47363 9.68295 5.53846 9.84616 5.53846H13.5385V14.7692ZM10.4615 9.84615C10.4615 10.0094 10.3967 10.1659 10.2813 10.2813C10.1659 10.3967 10.0094 10.4615 9.84616 10.4615H8.61539V11.6923C8.61539 11.8555 8.55056 12.012 8.43515 12.1275C8.31974 12.2429 8.16322 12.3077 8 12.3077C7.83679 12.3077 7.68027 12.2429 7.56486 12.1275C7.44946 12.012 7.38462 11.8555 7.38462 11.6923V10.4615H6.15385C5.99064 10.4615 5.83412 10.3967 5.71871 10.2813C5.6033 10.1659 5.53847 10.0094 5.53847 9.84615C5.53847 9.68294 5.6033 9.52642 5.71871 9.41101C5.83412 9.2956 5.99064 9.23077 6.15385 9.23077H7.38462V8C7.38462 7.83679 7.44946 7.68026 7.56486 7.56486C7.68027 7.44945 7.83679 7.38462 8 7.38462C8.16322 7.38462 8.31974 7.44945 8.43515 7.56486C8.55056 7.68026 8.61539 7.83679 8.61539 8V9.23077H9.84616C10.0094 9.23077 10.1659 9.2956 10.2813 9.41101C10.3967 9.52642 10.4615 9.68294 10.4615 9.84615Z"/>
</g>
<defs>
<clipPath id="clip0_3135_23">
<rect width="16" height="16"/>
</clipPath>
</defs>
</svg>
