<svg fill="currentColor" width="16" height="16" viewBox="0 0 16 16" xmlns="http://www.w3.org/2000/svg">
<path d="M14.1907 3.99997H13.1429V1.71425C13.1429 1.5627 13.0827 1.41735 12.9755 1.31019C12.8683 1.20303 12.723 1.14282 12.5714 1.14282H3.42857C3.27702 1.14282 3.13167 1.20303 3.02451 1.31019C2.91735 1.41735 2.85714 1.5627 2.85714 1.71425V3.99997H1.80929C0.811429 3.99997 0 4.76925 0 5.71425V11.4285C0 11.5801 0.0602039 11.7254 0.167368 11.8326C0.274531 11.9398 0.419876 12 0.571429 12H2.85714V14.2857C2.85714 14.4372 2.91735 14.5826 3.02451 14.6897C3.13167 14.7969 3.27702 14.8571 3.42857 14.8571H12.5714C12.723 14.8571 12.8683 14.7969 12.9755 14.6897C13.0827 14.5826 13.1429 14.4372 13.1429 14.2857V12H15.4286C15.5801 12 15.7255 11.9398 15.8326 11.8326C15.9398 11.7254 16 11.5801 16 11.4285V5.71425C16 4.76925 15.1886 3.99997 14.1907 3.99997ZM4 2.28568H12V3.99997H4V2.28568ZM12 13.7143H4V10.2857H12V13.7143ZM14.8571 10.8571H13.1429V9.71425C13.1429 9.5627 13.0827 9.41735 12.9755 9.31019C12.8683 9.20303 12.723 9.14282 12.5714 9.14282H3.42857C3.27702 9.14282 3.13167 9.20303 3.02451 9.31019C2.91735 9.41735 2.85714 9.5627 2.85714 9.71425V10.8571H1.14286V5.71425C1.14286 5.39925 1.44214 5.14282 1.80929 5.14282H14.1907C14.5579 5.14282 14.8571 5.39925 14.8571 5.71425V10.8571ZM13.1429 7.14282C13.1429 7.31235 13.0926 7.47807 12.9984 7.61903C12.9042 7.75998 12.7704 7.86984 12.6137 7.93472C12.4571 7.99959 12.2848 8.01657 12.1185 7.9835C11.9522 7.95042 11.7995 7.86879 11.6796 7.74891C11.5598 7.62904 11.4781 7.47631 11.445 7.31004C11.412 7.14377 11.4289 6.97143 11.4938 6.81481C11.5587 6.65819 11.6686 6.52432 11.8095 6.43013C11.9505 6.33595 12.1162 6.28568 12.2857 6.28568C12.513 6.28568 12.7311 6.37599 12.8918 6.53673C13.0526 6.69748 13.1429 6.91549 13.1429 7.14282Z"/>
</svg>
