<svg fill="currentColor" width="16" height="16" viewBox="0 0 16 16" xmlns="http://www.w3.org/2000/svg">
<path d="M16 8.28576C16 8.43731 15.9398 8.58266 15.8326 8.68982C15.7255 8.79699 15.5801 8.85719 15.4286 8.85719H13.4957L10.7971 14.2558C10.7496 14.3507 10.6766 14.4305 10.5863 14.4863C10.496 14.5421 10.3919 14.5716 10.2857 14.5715H10.2571C10.1463 14.566 10.0395 14.5284 9.94965 14.4632C9.85985 14.398 9.79097 14.308 9.75143 14.2043L5.66786 3.4829L3.37714 8.52219C3.33176 8.62204 3.2586 8.70673 3.16639 8.76613C3.07418 8.82554 2.96683 8.85715 2.85714 8.85719H0.571429C0.419876 8.85719 0.274531 8.79699 0.167368 8.68982C0.0602039 8.58266 0 8.43731 0 8.28576C0 8.13421 0.0602039 7.98886 0.167368 7.8817C0.274531 7.77454 0.419876 7.71433 0.571429 7.71433H2.48929L5.19429 1.76362C5.24092 1.66093 5.3169 1.57434 5.41265 1.51474C5.5084 1.45515 5.61965 1.42523 5.73238 1.42874C5.8451 1.43226 5.95427 1.46905 6.04613 1.53449C6.13798 1.59992 6.20842 1.69108 6.24857 1.79647L10.3564 12.5822L12.6314 8.03147C12.6787 7.93627 12.7517 7.85615 12.842 7.80013C12.9324 7.7441 13.0365 7.71439 13.1429 7.71433H15.4286C15.5801 7.71433 15.7255 7.77454 15.8326 7.8817C15.9398 7.98886 16 8.13421 16 8.28576Z"/>
</svg>
