<svg fill="currentColor" width="16" height="16" viewBox="0 0 16 16" xmlns="http://www.w3.org/2000/svg">
<path d="M15.961 9.82838C15.9818 9.9133 15.9858 10.0015 15.9726 10.088C15.9594 10.1744 15.9293 10.2574 15.884 10.3322C15.8387 10.407 15.7791 10.4722 15.7086 10.524C15.6382 10.5757 15.5582 10.6131 15.4733 10.634L13.4226 11.1333L13.9602 13.1399C13.9829 13.2244 13.9887 13.3125 13.9772 13.3992C13.9658 13.4859 13.9374 13.5696 13.8937 13.6453C13.8499 13.721 13.7917 13.7874 13.7223 13.8406C13.6529 13.8939 13.5737 13.9329 13.4892 13.9555C13.4331 13.9717 13.3752 13.9806 13.3169 13.9821C13.1704 13.982 13.0281 13.9336 12.912 13.8443C12.7958 13.7551 12.7123 13.6301 12.6744 13.4886L12.0319 11.0917L8.65632 9.14344V13.0409L10.459 14.8427C10.5208 14.9045 10.5699 14.978 10.6034 15.0588C10.6368 15.1396 10.6541 15.2262 10.6541 15.3137C10.6541 15.4012 10.6368 15.4878 10.6034 15.5687C10.5699 15.6495 10.5208 15.7229 10.459 15.7848C10.3971 15.8466 10.3237 15.8957 10.2428 15.9292C10.162 15.9627 10.0754 15.9799 9.98791 15.9799C9.90043 15.9799 9.8138 15.9627 9.73298 15.9292C9.65216 15.8957 9.57872 15.8466 9.51686 15.7848L7.99052 14.2576L6.46418 15.7848C6.40232 15.8466 6.32888 15.8957 6.24806 15.9292C6.16723 15.9627 6.08061 15.9799 5.99312 15.9799C5.90564 15.9799 5.81902 15.9627 5.73819 15.9292C5.65737 15.8957 5.58393 15.8466 5.52207 15.7848C5.46021 15.7229 5.41114 15.6495 5.37767 15.5687C5.34419 15.4878 5.32696 15.4012 5.32696 15.3137C5.32696 15.2262 5.34419 15.1396 5.37767 15.0588C5.41114 14.978 5.46021 14.9045 5.52207 14.8427L7.32472 13.0409V9.14344L3.94996 11.0917L3.30746 13.4886C3.26953 13.6302 3.18591 13.7554 3.06959 13.8446C2.95327 13.9338 2.81074 13.9822 2.66414 13.9821C2.60571 13.982 2.54754 13.9745 2.49103 13.9597C2.40653 13.9371 2.32732 13.898 2.25791 13.8448C2.1885 13.7916 2.13026 13.7252 2.08651 13.6495C2.04277 13.5737 2.01438 13.4901 2.00296 13.4034C1.99154 13.3167 1.99733 13.2285 2.01998 13.1441L2.55761 11.1375L0.50695 10.6382C0.335446 10.596 0.187714 10.4874 0.096253 10.3364C0.00479205 10.1853 -0.0229056 10.004 0.019253 9.83254C0.0614116 9.66104 0.169973 9.5133 0.321055 9.42184C0.472138 9.33038 0.653365 9.30269 0.824869 9.34484L3.27584 9.94656L6.65892 7.98995L3.27667 6.03749L0.825701 6.63921C0.773699 6.65208 0.720312 6.65851 0.666741 6.65835C0.503945 6.65846 0.346749 6.59892 0.224873 6.49099C0.102998 6.38306 0.024889 6.23422 0.00531481 6.07261C-0.0142594 5.91099 0.0260575 5.7478 0.118643 5.6139C0.211229 5.47999 0.349666 5.38465 0.507782 5.3459L2.55844 4.84655L2.02081 2.83584C1.97512 2.66522 1.99908 2.48343 2.08742 2.33048C2.17576 2.17752 2.32124 2.06592 2.49186 2.02023C2.66248 1.97454 2.84426 1.9985 2.99722 2.08684C3.15017 2.17518 3.26177 2.32067 3.30746 2.49129L3.94996 4.88816L7.32472 6.83645V2.93904L5.52207 1.13722C5.39714 1.01229 5.32696 0.842847 5.32696 0.666168C5.32696 0.578686 5.34419 0.49206 5.37767 0.411236C5.41114 0.330413 5.46021 0.256976 5.52207 0.195116C5.58393 0.133257 5.65737 0.0841871 5.73819 0.050709C5.81902 0.017231 5.90564 0 5.99312 0C6.1698 0 6.33925 0.0701853 6.46418 0.195116L7.99052 1.72229L9.51686 0.195116C9.64179 0.0701853 9.81123 -4.16269e-09 9.98791 0C10.1646 4.16269e-09 10.334 0.0701853 10.459 0.195116C10.5839 0.320047 10.6541 0.489489 10.6541 0.666168C10.6541 0.842847 10.5839 1.01229 10.459 1.13722L8.65632 2.93904V6.83645L12.0311 4.88816L12.6736 2.49129C12.7193 2.32067 12.8309 2.17518 12.9838 2.08684C13.1368 1.9985 13.3186 1.97454 13.4892 2.02023C13.6598 2.06592 13.8053 2.17752 13.8936 2.33048C13.982 2.48343 14.0059 2.66522 13.9602 2.83584L13.4226 4.84239L15.4733 5.34173C15.6358 5.37644 15.7795 5.47068 15.876 5.60593C15.9726 5.74118 16.0151 5.90766 15.9952 6.07265C15.9753 6.23765 15.8944 6.38923 15.7684 6.4976C15.6424 6.60598 15.4804 6.66332 15.3143 6.65835C15.2607 6.65851 15.2073 6.65208 15.1553 6.63921L12.7044 6.03749L9.32211 7.98995L12.7044 9.9424L15.1553 9.34068C15.2403 9.31979 15.3285 9.31584 15.4149 9.32904C15.5014 9.34225 15.5844 9.37236 15.6592 9.41764C15.734 9.46293 15.7991 9.52252 15.8509 9.59299C15.9027 9.66347 15.9401 9.74345 15.961 9.82838Z"/>
</svg>
