<svg fill="currentColor" width="16" height="16" viewBox="0 0 16 16" xmlns="http://www.w3.org/2000/svg">
<path d="M13.8058 12.8642C13.9303 12.9891 14.0001 13.1583 14.0001 13.3346C14.0001 13.5109 13.9303 13.6801 13.8058 13.805C13.715 13.8942 11.5683 16 8 16C4.88417 16 2.6225 14.1333 1.33333 12.6792V14.6667C1.33333 14.8435 1.2631 15.013 1.13807 15.1381C1.01305 15.2631 0.843478 15.3333 0.666667 15.3333C0.489856 15.3333 0.320287 15.2631 0.195262 15.1381C0.070238 15.013 0 14.8435 0 14.6667V10.6667C0 10.4899 0.070238 10.3203 0.195262 10.1953C0.320287 10.0702 0.489856 10 0.666667 10H4.66667C4.84348 10 5.01305 10.0702 5.13807 10.1953C5.2631 10.3203 5.33333 10.4899 5.33333 10.6667C5.33333 10.8435 5.2631 11.013 5.13807 11.1381C5.01305 11.2631 4.84348 11.3333 4.66667 11.3333H1.95333C2.98 12.6125 5.08333 14.6667 8 14.6667C11 14.6667 12.845 12.8783 12.8633 12.86C12.9889 12.7356 13.1587 12.6662 13.3354 12.667C13.5122 12.6678 13.6814 12.7387 13.8058 12.8642ZM15.3333 0.666667C15.1565 0.666667 14.987 0.736905 14.8619 0.861929C14.7369 0.986953 14.6667 1.15652 14.6667 1.33333V3.32083C13.3775 1.86667 11.1158 0 8 0C4.43167 0 2.285 2.10583 2.195 2.195C2.06969 2.31987 1.99911 2.48941 1.9988 2.66632C1.99848 2.84323 2.06846 3.01302 2.19333 3.13833C2.31821 3.26365 2.48775 3.33422 2.66465 3.33454C2.84156 3.33485 3.01135 3.26487 3.13667 3.14C3.155 3.12167 5 1.33333 8 1.33333C10.9167 1.33333 13.02 3.3875 14.0467 4.66667H11.3333C11.1565 4.66667 10.987 4.7369 10.8619 4.86193C10.7369 4.98695 10.6667 5.15652 10.6667 5.33333C10.6667 5.51014 10.7369 5.67971 10.8619 5.80474C10.987 5.92976 11.1565 6 11.3333 6H15.3333C15.5101 6 15.6797 5.92976 15.8047 5.80474C15.9298 5.67971 16 5.51014 16 5.33333V1.33333C16 1.15652 15.9298 0.986953 15.8047 0.861929C15.6797 0.736905 15.5101 0.666667 15.3333 0.666667Z"/>
</svg>
