<svg fill="currentColor" width="16" height="16" viewBox="0 0 16 16" xmlns="http://www.w3.org/2000/svg">
<path d="M14.8572 1.71436H4.3237C4.12644 1.71492 3.93266 1.76629 3.76101 1.86349C3.58937 1.9607 3.44565 2.10047 3.34371 2.26935L0.0816047 7.70572C0.0282091 7.79459 0 7.89632 0 8C0 8.10368 0.0282091 8.20541 0.0816047 8.29428L3.34371 13.7306C3.44565 13.8995 3.58937 14.0393 3.76101 14.1365C3.93266 14.2337 4.12644 14.2851 4.3237 14.2856H14.8572C15.1603 14.2856 15.4509 14.1652 15.6653 13.9509C15.8796 13.7366 16 13.4459 16 13.1428V2.8572C16 2.5541 15.8796 2.26341 15.6653 2.04909C15.4509 1.83476 15.1603 1.71436 14.8572 1.71436ZM14.8572 13.1428H4.3237L1.23802 8L4.3237 2.8572H14.8572V13.1428ZM7.02438 9.30999L8.33509 8L7.02438 6.69001C6.91716 6.58279 6.85693 6.43737 6.85693 6.28573C6.85693 6.1341 6.91716 5.98867 7.02438 5.88145C7.13161 5.77423 7.27703 5.71399 7.42867 5.71399C7.5803 5.71399 7.72573 5.77423 7.83295 5.88145L9.14293 7.19215L10.4529 5.88145C10.506 5.82836 10.569 5.78625 10.6384 5.75751C10.7078 5.72878 10.7821 5.71399 10.8572 5.71399C10.9323 5.71399 11.0066 5.72878 11.076 5.75751C11.1454 5.78625 11.2084 5.82836 11.2615 5.88145C11.3146 5.93454 11.3567 5.99757 11.3854 6.06694C11.4142 6.1363 11.4289 6.21065 11.4289 6.28573C11.4289 6.36082 11.4142 6.43516 11.3854 6.50453C11.3567 6.5739 11.3146 6.63692 11.2615 6.69001L9.95078 8L11.2615 9.30999C11.3146 9.36308 11.3567 9.4261 11.3854 9.49547C11.4142 9.56484 11.4289 9.63918 11.4289 9.71427C11.4289 9.78935 11.4142 9.8637 11.3854 9.93306C11.3567 10.0024 11.3146 10.0655 11.2615 10.1185C11.2084 10.1716 11.1454 10.2138 11.076 10.2425C11.0066 10.2712 10.9323 10.286 10.8572 10.286C10.7821 10.286 10.7078 10.2712 10.6384 10.2425C10.569 10.2138 10.506 10.1716 10.4529 10.1185L9.14293 8.80785L7.83295 10.1185C7.77986 10.1716 7.71683 10.2138 7.64746 10.2425C7.5781 10.2712 7.50375 10.286 7.42867 10.286C7.35358 10.286 7.27924 10.2712 7.20987 10.2425C7.1405 10.2138 7.07748 10.1716 7.02438 10.1185C6.97129 10.0655 6.92918 10.0024 6.90045 9.93306C6.87172 9.8637 6.85693 9.78935 6.85693 9.71427C6.85693 9.63918 6.87172 9.56484 6.90045 9.49547C6.92918 9.4261 6.97129 9.36308 7.02438 9.30999Z"/>
</svg>
