<svg fill="currentColor" width="16" height="16" viewBox="0 0 16 16" xmlns="http://www.w3.org/2000/svg">
<path d="M16 1.33333V10C16 10.3536 15.8595 10.6928 15.6095 10.9428C15.3594 11.1929 15.0203 11.3333 14.6667 11.3333H5.60917L6.47167 12.195C6.53361 12.2569 6.58274 12.3305 6.61626 12.4114C6.64978 12.4923 6.66704 12.5791 6.66704 12.6667C6.66704 12.7543 6.64978 12.841 6.61626 12.9219C6.58274 13.0029 6.53361 13.0764 6.47167 13.1383C6.40973 13.2003 6.33619 13.2494 6.25526 13.2829C6.17434 13.3165 6.0876 13.3337 6 13.3337C5.9124 13.3337 5.82566 13.3165 5.74474 13.2829C5.66381 13.2494 5.59027 13.2003 5.52833 13.1383L3.52833 11.1383C3.46635 11.0764 3.41718 11.0029 3.38363 10.922C3.35008 10.841 3.33281 10.7543 3.33281 10.6667C3.33281 10.5791 3.35008 10.4923 3.38363 10.4114C3.41718 10.3304 3.46635 10.2569 3.52833 10.195L5.52833 8.195C5.65343 8.06991 5.82309 7.99963 6 7.99963C6.17691 7.99963 6.34657 8.06991 6.47167 8.195C6.59676 8.32009 6.66704 8.48976 6.66704 8.66667C6.66704 8.84358 6.59676 9.01324 6.47167 9.13833L5.60917 10H14.6667V1.33333H5.33333V2C5.33333 2.17681 5.2631 2.34638 5.13807 2.4714C5.01305 2.59643 4.84348 2.66667 4.66667 2.66667C4.48986 2.66667 4.32029 2.59643 4.19526 2.4714C4.07024 2.34638 4 2.17681 4 2V1.33333C4 0.979711 4.14048 0.640573 4.39052 0.390524C4.64057 0.140476 4.97971 0 5.33333 0H14.6667C15.0203 0 15.3594 0.140476 15.6095 0.390524C15.8595 0.640573 16 0.979711 16 1.33333ZM11.3333 13.3333C11.1565 13.3333 10.987 13.4036 10.8619 13.5286C10.7369 13.6536 10.6667 13.8232 10.6667 14V14.6667H1.33333V6H10.3908L9.52833 6.86167C9.40324 6.98676 9.33296 7.15642 9.33296 7.33333C9.33296 7.51024 9.40324 7.67991 9.52833 7.805C9.65343 7.93009 9.82309 8.00037 10 8.00037C10.1769 8.00037 10.3466 7.93009 10.4717 7.805L12.4717 5.805C12.5337 5.74308 12.5828 5.66956 12.6164 5.58863C12.6499 5.5077 12.6672 5.42094 12.6672 5.33333C12.6672 5.24572 12.6499 5.15897 12.6164 5.07804C12.5828 4.99711 12.5337 4.92358 12.4717 4.86167L10.4717 2.86167C10.3466 2.73657 10.1769 2.6663 10 2.6663C9.82309 2.6663 9.65343 2.73657 9.52833 2.86167C9.40324 2.98676 9.33296 3.15642 9.33296 3.33333C9.33296 3.51024 9.40324 3.67991 9.52833 3.805L10.3908 4.66667H1.33333C0.979711 4.66667 0.640573 4.80714 0.390524 5.05719C0.140476 5.30724 0 5.64638 0 6V14.6667C0 15.0203 0.140476 15.3594 0.390524 15.6095C0.640573 15.8595 0.979711 16 1.33333 16H10.6667C11.0203 16 11.3594 15.8595 11.6095 15.6095C11.8595 15.3594 12 15.0203 12 14.6667V14C12 13.8232 11.9298 13.6536 11.8047 13.5286C11.6797 13.4036 11.5101 13.3333 11.3333 13.3333Z"/>
</svg>
