<svg fill="currentColor" width="16" height="16" viewBox="0 0 16 16" xmlns="http://www.w3.org/2000/svg">
<path d="M8 0C6.41775 0 4.87103 0.469192 3.55544 1.34824C2.23985 2.22729 1.21447 3.47672 0.608967 4.93853C0.00346628 6.40034 -0.15496 8.00887 0.153721 9.56072C0.462403 11.1126 1.22433 12.538 2.34315 13.6569C3.46197 14.7757 4.88743 15.5376 6.43928 15.8463C7.99113 16.155 9.59966 15.9965 11.0615 15.391C12.5233 14.7855 13.7727 13.7602 14.6518 12.4446C15.5308 11.129 16 9.58225 16 8C15.9978 5.87895 15.1542 3.84542 13.6544 2.34562C12.1546 0.845814 10.121 0.00223986 8 0ZM8 14.7692C6.66117 14.7692 5.35241 14.3722 4.23922 13.6284C3.12603 12.8846 2.2584 11.8274 1.74605 10.5905C1.2337 9.35356 1.09965 7.99249 1.36084 6.67939C1.62203 5.36629 2.26674 4.16012 3.21343 3.21343C4.16013 2.26674 5.36629 1.62203 6.67939 1.36084C7.99249 1.09965 9.35356 1.2337 10.5905 1.74605C11.8274 2.25839 12.8846 3.12602 13.6284 4.23922C14.3722 5.35241 14.7692 6.66117 14.7692 8C14.7672 9.79468 14.0534 11.5153 12.7843 12.7843C11.5153 14.0534 9.79469 14.7672 8 14.7692ZM4.30769 6.46154C4.30769 6.27897 4.36183 6.1005 4.46326 5.9487C4.56469 5.7969 4.70886 5.67859 4.87753 5.60873C5.0462 5.53886 5.2318 5.52058 5.41085 5.5562C5.58991 5.59181 5.75439 5.67973 5.88349 5.80882C6.01258 5.93792 6.10049 6.10239 6.13611 6.28145C6.17173 6.46051 6.15345 6.64611 6.08358 6.81478C6.01372 6.98345 5.8954 7.12762 5.74361 7.22905C5.59181 7.33048 5.41334 7.38461 5.23077 7.38461C4.98596 7.38461 4.75117 7.28736 4.57806 7.11425C4.40495 6.94114 4.30769 6.70635 4.30769 6.46154ZM11.6923 6.46154C11.6923 6.6441 11.6382 6.82257 11.5367 6.97437C11.4353 7.12617 11.2911 7.24448 11.1225 7.31435C10.9538 7.38421 10.7682 7.40249 10.5891 7.36688C10.4101 7.33126 10.2456 7.24335 10.1165 7.11425C9.98742 6.98516 9.89951 6.82068 9.86389 6.64162C9.82827 6.46256 9.84655 6.27696 9.91642 6.10829C9.98629 5.93962 10.1046 5.79546 10.2564 5.69403C10.4082 5.5926 10.5867 5.53846 10.7692 5.53846C11.014 5.53846 11.2488 5.63571 11.4219 5.80882C11.5951 5.98193 11.6923 6.21672 11.6923 6.46154ZM11.6092 11.3846C11.6538 11.4547 11.6837 11.533 11.6971 11.6149C11.7106 11.6968 11.7074 11.7805 11.6876 11.8612C11.6679 11.9418 11.632 12.0176 11.5822 12.084C11.5324 12.1504 11.4697 12.206 11.3979 12.2475C11.326 12.2891 11.2465 12.3156 11.1641 12.3256C11.0817 12.3357 10.9981 12.3289 10.9184 12.3058C10.8387 12.2826 10.7645 12.2436 10.7003 12.1911C10.636 12.1385 10.5831 12.0735 10.5446 12C9.97 11.0069 9.06692 10.4615 8 10.4615C6.93308 10.4615 6.03 11.0077 5.45539 12C5.41692 12.0735 5.36397 12.1385 5.29972 12.1911C5.23548 12.2436 5.16127 12.2826 5.08156 12.3058C5.00185 12.3289 4.91829 12.3357 4.8359 12.3256C4.75351 12.3156 4.67399 12.2891 4.60214 12.2475C4.53028 12.206 4.46757 12.1504 4.41778 12.084C4.36798 12.0176 4.33214 11.9418 4.31239 11.8612C4.29264 11.7805 4.28941 11.6968 4.30288 11.6149C4.31635 11.533 4.34625 11.4547 4.39077 11.3846C5.18231 10.0162 6.49769 9.23077 8 9.23077C9.50231 9.23077 10.8177 10.0154 11.6092 11.3846Z"/>
</svg>
