<svg fill="currentColor" width="16" height="16" viewBox="0 0 16 16" xmlns="http://www.w3.org/2000/svg">
<g clip-path="url(#clip0_3135_25)">
<path d="M14.5892 4.48769L10.2815 0.18C10.2244 0.122871 10.1565 0.0775705 10.0818 0.0466855C10.0071 0.0158005 9.927 -6.33759e-05 9.84616 1.90276e-07H2.46154C2.13512 1.90276e-07 1.82207 0.12967 1.59126 0.360484C1.36044 0.591298 1.23077 0.904349 1.23077 1.23077V14.7692C1.23077 15.0957 1.36044 15.4087 1.59126 15.6395C1.82207 15.8703 2.13512 16 2.46154 16H13.5385C13.8649 16 14.1779 15.8703 14.4088 15.6395C14.6396 15.4087 14.7692 15.0957 14.7692 14.7692V4.92308C14.7693 4.84224 14.7534 4.76218 14.7226 4.68748C14.6917 4.61277 14.6464 4.54488 14.5892 4.48769ZM10.4615 2.10077L12.6685 4.30769H10.4615V2.10077ZM13.5385 14.7692H2.46154V1.23077H9.23077V4.92308C9.23077 5.08629 9.29561 5.24281 9.41102 5.35822C9.52642 5.47363 9.68295 5.53846 9.84616 5.53846H13.5385V14.7692ZM10.0354 11.0115C10.3986 10.4344 10.5364 9.74375 10.4225 9.07146C10.3087 8.39916 9.95109 7.79239 9.41813 7.36706C8.88517 6.94174 8.21419 6.72768 7.53338 6.76579C6.85258 6.80391 6.20968 7.09152 5.72753 7.57368C5.24537 8.05583 4.95776 8.69873 4.91965 9.37953C4.88153 10.0603 5.09559 10.7313 5.52091 11.2643C5.94624 11.7972 6.55301 12.1548 7.22531 12.2687C7.89761 12.3825 8.58829 12.2447 9.16539 11.8815L10.0262 12.7431C10.0833 12.8003 10.1512 12.8456 10.2259 12.8765C10.3006 12.9075 10.3807 12.9234 10.4615 12.9234C10.5424 12.9234 10.6225 12.9075 10.6972 12.8765C10.7719 12.8456 10.8398 12.8003 10.8969 12.7431C10.9541 12.6859 10.9995 12.618 11.0304 12.5433C11.0613 12.4686 11.0773 12.3886 11.0773 12.3077C11.0773 12.2268 11.0613 12.1468 11.0304 12.0721C10.9995 11.9974 10.9541 11.9295 10.8969 11.8723L10.0354 11.0115ZM6.15385 9.53846C6.15385 9.23418 6.24408 8.93674 6.41313 8.68374C6.58218 8.43074 6.82245 8.23355 7.10357 8.11711C7.38469 8.00067 7.69402 7.9702 7.99245 8.02956C8.29088 8.08892 8.56501 8.23545 8.78017 8.45061C8.99533 8.66576 9.14185 8.93989 9.20121 9.23832C9.26058 9.53675 9.23011 9.84609 9.11367 10.1272C8.99722 10.4083 8.80003 10.6486 8.54704 10.8176C8.29404 10.9867 7.99659 11.0769 7.69231 11.0769C7.28429 11.0769 6.89297 10.9148 6.60446 10.6263C6.31594 10.3378 6.15385 9.94649 6.15385 9.53846Z"/>
</g>
<defs>
<clipPath id="clip0_3135_25">
<rect width="16" height="16"/>
</clipPath>
</defs>
</svg>
