<svg fill="currentColor" width="16" height="16" viewBox="0 0 16 16" xmlns="http://www.w3.org/2000/svg">
<path d="M15.8331 7.31034L10.1187 1.59594C10.0388 1.51598 9.93705 1.46149 9.82621 1.43938C9.71537 1.41728 9.60046 1.42853 9.49602 1.47173C9.39157 1.51493 9.30229 1.58813 9.23945 1.68208C9.17661 1.77602 9.14304 1.8865 9.14299 1.99952V4.88172C7.2901 5.04029 5.24363 5.94745 3.56002 7.37534C1.53284 9.09537 0.270676 11.3118 0.00567097 13.6162C-0.0150382 13.7953 0.0212866 13.9764 0.109476 14.1338C0.197665 14.2911 0.333225 14.4166 0.496864 14.4924C0.660503 14.5682 0.843883 14.5904 1.02091 14.556C1.19793 14.5215 1.35958 14.4321 1.48284 14.3005C2.26857 13.464 5.06434 10.819 9.14299 10.5861V13.4283C9.14304 13.5413 9.17661 13.6518 9.23945 13.7458C9.30229 13.8397 9.39157 13.9129 9.49602 13.9561C9.60046 13.9993 9.71537 14.0106 9.82621 13.9884C9.93705 13.9663 10.0388 13.9119 10.1187 13.8319L15.8331 8.1175C15.94 8.01037 16 7.86523 16 7.71392C16 7.5626 15.94 7.41746 15.8331 7.31034ZM10.2859 12.049V9.99967C10.2859 9.84812 10.2257 9.70277 10.1185 9.5956C10.0113 9.48844 9.86598 9.42823 9.71443 9.42823C7.70868 9.42823 5.75507 9.95182 3.90789 10.9854C2.96712 11.5142 2.09058 12.1498 1.2957 12.8797C1.70999 11.1768 2.7543 9.55752 4.29933 8.24678C5.95793 6.84033 7.98225 5.9996 9.71443 5.9996C9.86598 5.9996 10.0113 5.93939 10.1185 5.83223C10.2257 5.72506 10.2859 5.57971 10.2859 5.42816V3.37955L14.621 7.71392L10.2859 12.049Z"/>
</svg>
