<svg fill="currentColor" width="16" height="16" viewBox="0 0 16 16" xmlns="http://www.w3.org/2000/svg">
<path d="M14.4001 0H1.59991C1.26042 0 0.934845 0.134859 0.694794 0.374909C0.454744 0.614959 0.319885 0.940537 0.319885 1.28002V5.98249C0.319885 13.1514 6.38558 15.5298 7.6 15.9338C7.85938 16.0221 8.14063 16.0221 8.40001 15.9338C9.61603 15.5298 15.6801 13.1514 15.6801 5.98249V1.28002C15.6801 0.940537 15.5453 0.614959 15.3052 0.374909C15.0652 0.134859 14.7396 0 14.4001 0ZM14.4001 5.98329C14.4001 12.257 9.09202 14.353 8 14.7178C6.91759 14.357 1.59991 12.2626 1.59991 5.98329V1.28002H14.4001V5.98329ZM4.34715 8.13293C4.22706 8.01283 4.15959 7.84995 4.15959 7.68012C4.15959 7.51028 4.22706 7.3474 4.34715 7.22731C4.46724 7.10722 4.63012 7.03975 4.79995 7.03975C4.96979 7.03975 5.13267 7.10722 5.25276 7.22731L6.71998 8.69453L10.7472 4.66727C10.8067 4.60781 10.8773 4.56064 10.955 4.52846C11.0327 4.49628 11.116 4.47971 11.2001 4.47971C11.2841 4.47971 11.3674 4.49628 11.4451 4.52846C11.5228 4.56064 11.5934 4.60781 11.6529 4.66727C11.7123 4.72674 11.7595 4.79733 11.7917 4.87502C11.8239 4.95271 11.8404 5.03598 11.8404 5.12008C11.8404 5.20417 11.8239 5.28744 11.7917 5.36514C11.7595 5.44283 11.7123 5.51342 11.6529 5.57289L7.17279 10.053C7.11335 10.1125 7.04277 10.1597 6.96507 10.1919C6.88737 10.2241 6.80409 10.2407 6.71998 10.2407C6.63588 10.2407 6.55259 10.2241 6.4749 10.1919C6.3972 10.1597 6.32662 10.1125 6.26718 10.053L4.34715 8.13293Z"/>
</svg>
