<svg fill="currentColor" width="16" height="16" viewBox="0 0 16 16" xmlns="http://www.w3.org/2000/svg">
<path d="M11.5123 5.71846C11.5695 5.77561 11.6149 5.84348 11.6459 5.91819C11.6769 5.9929 11.6928 6.07297 11.6928 6.15384C11.6928 6.23472 11.6769 6.31479 11.6459 6.3895C11.6149 6.46421 11.5695 6.53208 11.5123 6.58923L7.20462 10.8969C7.14746 10.9541 7.07959 10.9995 7.00489 11.0305C6.93018 11.0615 6.8501 11.0774 6.76923 11.0774C6.68836 11.0774 6.60828 11.0615 6.53358 11.0305C6.45887 10.9995 6.391 10.9541 6.33385 10.8969L4.48769 9.05077C4.37222 8.9353 4.30735 8.77868 4.30735 8.61538C4.30735 8.45208 4.37222 8.29547 4.48769 8.18C4.60317 8.06453 4.75978 7.99966 4.92308 7.99966C5.08638 7.99966 5.24299 8.06453 5.35846 8.18L6.76923 9.59154L10.6415 5.71846C10.6987 5.66124 10.7666 5.61585 10.8413 5.58489C10.916 5.55392 10.9961 5.53798 11.0769 5.53798C11.1578 5.53798 11.2379 5.55392 11.3126 5.58489C11.3873 5.61585 11.4552 5.66124 11.5123 5.71846ZM16 8C16 9.58225 15.5308 11.129 14.6518 12.4446C13.7727 13.7602 12.5233 14.7855 11.0615 15.391C9.59966 15.9965 7.99113 16.155 6.43928 15.8463C4.88743 15.5376 3.46197 14.7757 2.34315 13.6569C1.22433 12.538 0.462403 11.1126 0.153721 9.56072C-0.15496 8.00887 0.00346628 6.40034 0.608967 4.93853C1.21447 3.47672 2.23985 2.22729 3.55544 1.34824C4.87103 0.469192 6.41775 0 8 0C10.121 0.00223986 12.1546 0.845814 13.6544 2.34562C15.1542 3.84542 15.9978 5.87895 16 8ZM14.7692 8C14.7692 6.66117 14.3722 5.35241 13.6284 4.23922C12.8846 3.12602 11.8274 2.25839 10.5905 1.74605C9.35356 1.2337 7.99249 1.09965 6.67939 1.36084C5.36629 1.62203 4.16013 2.26674 3.21343 3.21343C2.26674 4.16012 1.62203 5.36629 1.36084 6.67939C1.09965 7.99249 1.2337 9.35356 1.74605 10.5905C2.2584 11.8274 3.12603 12.8846 4.23922 13.6284C5.35241 14.3722 6.66117 14.7692 8 14.7692C9.79469 14.7672 11.5153 14.0534 12.7843 12.7843C14.0534 11.5153 14.7672 9.79468 14.7692 8Z"/>
</svg>
