<svg fill="currentColor" width="16" height="16" viewBox="0 0 16 16" xmlns="http://www.w3.org/2000/svg">
<g clip-path="url(#clip0_3142_1365)">
<path d="M15.8325 3.59613L12.4041 0.167698C12.351 0.114609 12.288 0.0724958 12.2186 0.043764C12.1493 0.0150321 12.0749 0.000244141 11.9998 0.000244141C11.9248 0.000244141 11.8504 0.0150321 11.7811 0.043764C11.7117 0.0724958 11.6487 0.114609 11.5956 0.167698C11.5425 0.220788 11.5004 0.283814 11.4716 0.353179C11.4429 0.422543 11.4281 0.496888 11.4281 0.571968C11.4281 0.647048 11.4429 0.721392 11.4716 0.790757C11.5004 0.860122 11.5425 0.923148 11.5956 0.976237L12.9062 2.28619L10.857 4.33539L8.40427 1.88192C8.29705 1.7747 8.15163 1.71446 8 1.71446C7.84837 1.71446 7.70295 1.7747 7.59573 1.88192C7.48851 1.98913 7.42828 2.13455 7.42828 2.28619C7.42828 2.43782 7.48851 2.58324 7.59573 2.69045L8.04928 3.14329L2.04952 9.14306C1.94294 9.24879 1.85844 9.37466 1.80093 9.51334C1.74342 9.65202 1.71406 9.80075 1.71454 9.95088V13.4779L0.167454 15.0243C0.114365 15.0773 0.0722516 15.1404 0.0435198 15.2097C0.014788 15.2791 0 15.3534 0 15.4285C0 15.5036 0.014788 15.5779 0.0435198 15.6473C0.0722516 15.7167 0.114365 15.7797 0.167454 15.8328C0.274673 15.94 0.420093 16.0002 0.571724 16.0002C0.646803 16.0002 0.721148 15.9855 0.790513 15.9567C0.859877 15.928 0.922904 15.8859 0.975993 15.8328L2.52236 14.2857H6.04936C6.19949 14.2862 6.34822 14.2568 6.4869 14.1993C6.62559 14.1418 6.75145 14.0573 6.85719 13.9507L12.8569 7.95096L13.3098 8.40451C13.3629 8.4576 13.4259 8.49971 13.4953 8.52845C13.5646 8.55718 13.639 8.57197 13.7141 8.57197C13.7891 8.57197 13.8635 8.55718 13.9328 8.52845C14.0022 8.49971 14.0652 8.4576 14.1183 8.40451C14.1714 8.35142 14.2135 8.2884 14.2423 8.21903C14.271 8.14967 14.2858 8.07532 14.2858 8.00024C14.2858 7.92516 14.271 7.85082 14.2423 7.78145C14.2135 7.71209 14.1714 7.64906 14.1183 7.59597L11.6649 5.14321L13.7141 3.09401L15.024 4.40467C15.1312 4.51189 15.2766 4.57213 15.4283 4.57213C15.5799 4.57213 15.7253 4.51189 15.8325 4.40467C15.9398 4.29745 16 4.15203 16 4.0004C16 3.84877 15.9398 3.70335 15.8325 3.59613ZM6.04936 13.1429H2.85735V9.95088L4.14301 8.66522L5.59581 10.1187C5.6489 10.1718 5.71193 10.2139 5.78129 10.2427C5.85065 10.2714 5.925 10.2862 6.00008 10.2862C6.07516 10.2862 6.1495 10.2714 6.21887 10.2427C6.28823 10.2139 6.35126 10.1718 6.40435 10.1187C6.45744 10.0656 6.49955 10.0026 6.52828 9.93325C6.55701 9.86389 6.5718 9.78954 6.5718 9.71446C6.5718 9.63938 6.55701 9.56504 6.52828 9.49567C6.49955 9.42631 6.45744 9.36328 6.40435 9.31019L4.95083 7.85739L5.85723 6.951L7.31003 8.40451C7.41725 8.51173 7.56267 8.57197 7.7143 8.57197C7.86593 8.57197 8.01135 8.51173 8.11857 8.40451C8.22579 8.29729 8.28602 8.15187 8.28602 8.00024C8.28602 7.84861 8.22579 7.70319 8.11857 7.59597L6.66505 6.14317L8.85711 3.95112L12.0491 7.14313L6.04936 13.1429Z"/>
</g>
<defs>
<clipPath id="clip0_3142_1365">
<rect width="16" height="16"/>
</clipPath>
</defs>
</svg>
