<svg fill="currentColor" width="16" height="16" viewBox="0 0 16 16" xmlns="http://www.w3.org/2000/svg">
<path d="M12.1274 11.2567C12.1846 11.3139 12.23 11.3817 12.2609 11.4564C12.2919 11.5311 12.3078 11.6112 12.3078 11.6921C12.3078 11.773 12.2919 11.853 12.2609 11.9277C12.23 12.0024 12.1846 12.0703 12.1274 12.1274L8.43527 15.8195C8.37812 15.8767 8.31026 15.9221 8.23555 15.9531C8.16085 15.9841 8.08078 16 7.99991 16C7.91905 16 7.83897 15.9841 7.76427 15.9531C7.68957 15.9221 7.6217 15.8767 7.56455 15.8195L3.87247 12.1274C3.75701 12.012 3.69214 11.8554 3.69214 11.6921C3.69214 11.5288 3.75701 11.3722 3.87247 11.2567C3.98793 11.1413 4.14454 11.0764 4.30783 11.0764C4.47112 11.0764 4.62772 11.1413 4.74319 11.2567L7.99991 14.5142L11.2566 11.2567C11.3138 11.1995 11.3817 11.1541 11.4564 11.1232C11.5311 11.0922 11.6111 11.0763 11.692 11.0763C11.7729 11.0763 11.8529 11.0922 11.9276 11.1232C12.0023 11.1541 12.0702 11.1995 12.1274 11.2567ZM4.74319 4.74327L7.99991 1.48578L11.2566 4.74327C11.3721 4.85874 11.5287 4.92361 11.692 4.92361C11.8553 4.92361 12.0119 4.85874 12.1274 4.74327C12.2428 4.62781 12.3077 4.47121 12.3077 4.30792C12.3077 4.14463 12.2428 3.98802 12.1274 3.87256L8.43527 0.180473C8.37812 0.12326 8.31026 0.0778728 8.23555 0.0469059C8.16085 0.015939 8.08078 0 7.99991 0C7.91905 0 7.83897 0.015939 7.76427 0.0469059C7.68957 0.0778728 7.6217 0.12326 7.56455 0.180473L3.87247 3.87256C3.75701 3.98802 3.69214 4.14463 3.69214 4.30792C3.69214 4.47121 3.75701 4.62781 3.87247 4.74327C3.98793 4.85874 4.14454 4.92361 4.30783 4.92361C4.47112 4.92361 4.62772 4.85874 4.74319 4.74327Z"/>
</svg>
