<svg fill="currentColor" width="16" height="16" viewBox="0 0 16 16" xmlns="http://www.w3.org/2000/svg">
<path d="M7.99997 2.28571C6.64375 2.28571 5.318 2.68788 4.19034 3.44135C3.06269 4.19482 2.1838 5.26576 1.66479 6.51874C1.14579 7.77172 1.01 9.15046 1.27458 10.4806C1.53917 11.8108 2.19225 13.0326 3.15124 13.9916C4.11022 14.9506 5.33205 15.6037 6.66221 15.8682C7.99236 16.1328 9.3711 15.997 10.6241 15.478C11.8771 14.959 12.948 14.0801 13.7015 12.9525C14.4549 11.8248 14.8571 10.4991 14.8571 9.14286C14.855 7.32487 14.1319 5.58193 12.8464 4.29642C11.5609 3.01091 9.81796 2.28779 7.99997 2.28571ZM7.99997 14.8571C6.86979 14.8571 5.76499 14.522 4.82528 13.8941C3.88557 13.2662 3.15316 12.3738 2.72066 11.3296C2.28816 10.2855 2.17499 9.13652 2.39548 8.02805C2.61597 6.91959 3.1602 5.9014 3.95936 5.10225C4.75852 4.30309 5.7767 3.75886 6.88517 3.53837C7.99363 3.31788 9.14258 3.43104 10.1867 3.86354C11.2309 4.29605 12.1233 5.02846 12.7512 5.96817C13.3791 6.90788 13.7143 8.01268 13.7143 9.14286C13.7126 10.6579 13.11 12.1103 12.0387 13.1816C10.9674 14.2529 9.51497 14.8554 7.99997 14.8571ZM11.2614 5.88143C11.3145 5.9345 11.3567 5.99752 11.3854 6.06689C11.4142 6.13626 11.429 6.21062 11.429 6.28571C11.429 6.36081 11.4142 6.43517 11.3854 6.50454C11.3567 6.57391 11.3145 6.63693 11.2614 6.69L8.40425 9.54714C8.35116 9.60023 8.28813 9.64235 8.21877 9.67108C8.1494 9.69981 8.07505 9.7146 7.99997 9.7146C7.92489 9.7146 7.85054 9.69981 7.78117 9.67108C7.7118 9.64235 7.64877 9.60023 7.59568 9.54714C7.54259 9.49405 7.50048 9.43102 7.47174 9.36165C7.44301 9.29229 7.42822 9.21794 7.42822 9.14286C7.42822 9.06777 7.44301 8.99343 7.47174 8.92406C7.50048 8.85469 7.54259 8.79166 7.59568 8.73857L10.4528 5.88143C10.5059 5.8283 10.5689 5.78615 10.6383 5.75739C10.7077 5.72864 10.782 5.71384 10.8571 5.71384C10.9322 5.71384 11.0066 5.72864 11.0759 5.75739C11.1453 5.78615 11.2083 5.8283 11.2614 5.88143ZM5.71425 0.571428C5.71425 0.419876 5.77446 0.274531 5.88162 0.167368C5.98879 0.0602039 6.13413 0 6.28568 0H9.71425C9.86581 0 10.0112 0.0602039 10.1183 0.167368C10.2255 0.274531 10.2857 0.419876 10.2857 0.571428C10.2857 0.722981 10.2255 0.868326 10.1183 0.975489C10.0112 1.08265 9.86581 1.14286 9.71425 1.14286H6.28568C6.13413 1.14286 5.98879 1.08265 5.88162 0.975489C5.77446 0.868326 5.71425 0.722981 5.71425 0.571428Z"/>
</svg>
