<svg fill="currentColor" width="16" height="16" viewBox="0 0 16 16" xmlns="http://www.w3.org/2000/svg">
<path d="M16 7.99949C16.0002 9.94094 15.2358 11.8044 13.8723 13.1864C12.5088 14.5685 10.6559 15.358 8.71461 15.3841H8.61539C6.72942 15.3888 4.91406 14.6671 3.54615 13.3687C3.48741 13.3132 3.44019 13.2466 3.40718 13.1728C3.37417 13.099 3.35603 13.0194 3.35378 12.9385C3.35153 12.8577 3.36522 12.7772 3.39407 12.7017C3.42292 12.6262 3.46636 12.5571 3.52192 12.4983C3.57748 12.4396 3.64407 12.3924 3.71788 12.3594C3.79169 12.3264 3.87127 12.3082 3.9521 12.306C4.03292 12.3037 4.11339 12.3174 4.18893 12.3463C4.26446 12.3751 4.33357 12.4185 4.39231 12.4741C5.27215 13.3039 6.37699 13.856 7.56879 14.0615C8.7606 14.267 9.98654 14.1168 11.0935 13.6296C12.2004 13.1424 13.1392 12.3398 13.7927 11.3222C14.4461 10.3045 14.7852 9.11686 14.7676 7.9076C14.75 6.69833 14.3765 5.52106 13.6937 4.52285C13.011 3.52463 12.0492 2.74973 10.9285 2.29495C9.80792 1.84017 8.57813 1.72567 7.39281 1.96576C6.20748 2.20584 5.11918 2.78987 4.26385 3.64487C4.25756 3.65167 4.25088 3.65809 4.24385 3.66411L2.19923 5.53795H4.30769C4.4709 5.53795 4.62743 5.60279 4.74284 5.71819C4.85824 5.8336 4.92308 5.99013 4.92308 6.15334C4.92308 6.31655 4.85824 6.47307 4.74284 6.58848C4.62743 6.70389 4.4709 6.76872 4.30769 6.76872H0.615385C0.452174 6.76872 0.295649 6.70389 0.180242 6.58848C0.064835 6.47307 0 6.31655 0 6.15334V2.46103C0 2.29782 0.064835 2.14129 0.180242 2.02589C0.295649 1.91048 0.452174 1.84564 0.615385 1.84564C0.778595 1.84564 0.93512 1.91048 1.05053 2.02589C1.16593 2.14129 1.23077 2.29782 1.23077 2.46103V4.75334L3.40385 2.76872C4.43768 1.73891 5.75344 1.03846 7.18502 0.755821C8.61661 0.473178 10.0998 0.621002 11.4475 1.18063C12.7951 1.74027 13.9468 2.68662 14.757 3.90022C15.5673 5.11382 15.9998 6.54027 16 7.99949Z"/>
</svg>
