<svg fill="currentColor" width="16" height="16" viewBox="0 0 16 16" xmlns="http://www.w3.org/2000/svg">
<path d="M13.926 5.33333H5.62966V3.55556C5.62966 2.92689 5.87939 2.32398 6.32392 1.87945C6.76845 1.43492 7.37137 1.18519 8.00003 1.18519C9.13855 1.18519 10.163 2 10.3822 3.08074C10.4148 3.23346 10.5063 3.36715 10.6369 3.45277C10.7675 3.53839 10.9266 3.56901 11.0796 3.53797C11.2326 3.50693 11.3672 3.41675 11.4541 3.28703C11.5411 3.1573 11.5732 2.99852 11.5437 2.84519C11.2089 1.1963 9.71855 0 8.00003 0C7.05734 0.000980439 6.15354 0.375897 5.48695 1.04248C4.82037 1.70906 4.44545 2.61286 4.44447 3.55556V5.33333H2.0741C1.75977 5.33333 1.45831 5.4582 1.23605 5.68047C1.01378 5.90273 0.888916 6.20419 0.888916 6.51852V14.8148C0.888916 15.1291 1.01378 15.4306 1.23605 15.6529C1.45831 15.8751 1.75977 16 2.0741 16H13.926C14.2403 16 14.5417 15.8751 14.764 15.6529C14.9863 15.4306 15.1111 15.1291 15.1111 14.8148V6.51852C15.1111 6.20419 14.9863 5.90273 14.764 5.68047C14.5417 5.4582 14.2403 5.33333 13.926 5.33333ZM13.926 14.8148H2.0741V6.51852H13.926V14.8148Z"/>
</svg>
