<svg fill="currentColor" width="16" height="16" viewBox="0 0 16 16" xmlns="http://www.w3.org/2000/svg">
<path d="M16 7.99887C16.0033 9.2689 15.5913 10.5052 14.8267 11.5193C14.7846 11.5753 14.7319 11.6225 14.6715 11.6582C14.6112 11.6938 14.5444 11.7172 14.475 11.7271C14.4056 11.7369 14.335 11.733 14.2671 11.7155C14.1992 11.6981 14.1355 11.6674 14.0794 11.6253C14.0234 11.5832 13.9762 11.5305 13.9406 11.4701C13.9049 11.4098 13.8815 11.343 13.8717 11.2736C13.8618 11.2042 13.8657 11.1336 13.8832 11.0657C13.9007 10.9978 13.9313 10.934 13.9734 10.878C14.5993 10.0489 14.9364 9.03767 14.9334 7.99887C14.9334 6.72591 14.4277 5.50508 13.5276 4.60497C12.6275 3.70485 11.4066 3.19917 10.1337 3.19917C8.86072 3.19917 7.6399 3.70485 6.73978 4.60497C5.83966 5.50508 5.33398 6.72591 5.33398 7.99887C5.33398 8.14031 5.27779 8.27595 5.17778 8.37597C5.07777 8.47598 4.94212 8.53217 4.80068 8.53217C4.65924 8.53217 4.52359 8.47598 4.42358 8.37597C4.32357 8.27595 4.26738 8.14031 4.26738 7.99887C4.26712 7.46069 4.34092 6.92503 4.4867 6.40697C4.41404 6.39897 4.34071 6.39897 4.26738 6.39897C3.41874 6.39897 2.60486 6.73609 2.00478 7.33617C1.4047 7.93625 1.06758 8.75013 1.06758 9.59877C1.06758 10.4474 1.4047 11.2613 2.00478 11.8614C2.60486 12.4614 3.41874 12.7986 4.26738 12.7986H5.86728C6.00872 12.7986 6.14437 12.8548 6.24438 12.9548C6.34439 13.0548 6.40058 13.1904 6.40058 13.3319C6.40058 13.4733 6.34439 13.609 6.24438 13.709C6.14437 13.809 6.00872 13.8652 5.86728 13.8652H4.26738C3.68087 13.8653 3.10063 13.7445 2.56289 13.5103C2.02516 13.2761 1.54149 12.9336 1.14209 12.5041C0.74269 12.0746 0.436136 11.5673 0.241577 11.014C0.0470172 10.4607 -0.0313695 9.87325 0.0113124 9.28829C0.0539943 8.70333 0.216828 8.13346 0.489644 7.61426C0.762459 7.09506 1.1394 6.63768 1.59691 6.2707C2.05443 5.90372 2.5827 5.63502 3.14873 5.48137C3.71476 5.32772 4.30639 5.29243 4.88667 5.3777C5.47757 4.19588 6.45014 3.24815 7.64685 2.68802C8.84356 2.12789 10.1943 1.98817 11.4803 2.29149C12.7664 2.59481 13.9123 3.32341 14.7326 4.35926C15.5529 5.39511 15.9995 6.67756 16 7.99887ZM9.97769 7.62156C9.92816 7.57197 9.86934 7.53264 9.8046 7.5058C9.73986 7.47896 9.67046 7.46515 9.60038 7.46515C9.5303 7.46515 9.4609 7.47896 9.39616 7.5058C9.33142 7.53264 9.2726 7.57197 9.22307 7.62156L7.08987 9.75476C7.04032 9.80431 7.00102 9.86313 6.9742 9.92787C6.94738 9.99261 6.93358 10.062 6.93358 10.1321C6.93358 10.2021 6.94738 10.2715 6.9742 10.3363C7.00102 10.401 7.04032 10.4598 7.08987 10.5094C7.18994 10.6094 7.32566 10.6657 7.46718 10.6657C7.53725 10.6657 7.60664 10.6519 7.67138 10.625C7.73612 10.5982 7.79494 10.5589 7.84449 10.5094L9.06708 9.28612V13.3319C9.06708 13.4733 9.12327 13.609 9.22328 13.709C9.32329 13.809 9.45894 13.8652 9.60038 13.8652C9.74182 13.8652 9.87747 13.809 9.97748 13.709C10.0775 13.609 10.1337 13.4733 10.1337 13.3319V9.28612L11.3563 10.5094C11.4058 10.5589 11.4646 10.5982 11.5294 10.625C11.5941 10.6519 11.6635 10.6657 11.7336 10.6657C11.8037 10.6657 11.873 10.6519 11.9378 10.625C12.0025 10.5982 12.0613 10.5589 12.1109 10.5094C12.1604 10.4598 12.1997 10.401 12.2266 10.3363C12.2534 10.2715 12.2672 10.2021 12.2672 10.1321C12.2672 10.062 12.2534 9.99261 12.2266 9.92787C12.1997 9.86313 12.1604 9.80431 12.1109 9.75476L9.97769 7.62156Z"/>
</svg>
