<svg fill="currentColor" width="16" height="16" viewBox="0 0 16 16" xmlns="http://www.w3.org/2000/svg">
<path d="M15.9995 10.0002V14.6667C15.9995 15.0204 15.859 15.3595 15.609 15.6095C15.359 15.8596 15.0198 16 14.6662 16H1.33329C0.979681 16 0.640553 15.8596 0.390512 15.6095C0.140471 15.3595 0 15.0204 0 14.6667V10.0002C0 9.82341 0.0702359 9.65385 0.195256 9.52883C0.320277 9.40381 0.489841 9.33357 0.666646 9.33357C0.843452 9.33357 1.01302 9.40381 1.13804 9.52883C1.26306 9.65385 1.33329 9.82341 1.33329 10.0002V14.6667H14.6662V10.0002C14.6662 9.82341 14.7365 9.65385 14.8615 9.52883C14.9865 9.40381 15.1561 9.33357 15.3329 9.33357C15.5097 9.33357 15.6792 9.40381 15.8043 9.52883C15.9293 9.65385 15.9995 9.82341 15.9995 10.0002ZM5.13818 4.47206L7.33311 2.27629V10.0002C7.33311 10.177 7.40335 10.3466 7.52837 10.4716C7.65339 10.5966 7.82295 10.6669 7.99976 10.6669C8.17656 10.6669 8.34613 10.5966 8.47115 10.4716C8.59617 10.3466 8.6664 10.177 8.6664 10.0002V2.27629L10.8613 4.47206C10.9864 4.59714 11.1561 4.66742 11.333 4.66742C11.5099 4.66742 11.6796 4.59714 11.8046 4.47206C11.9297 4.34697 12 4.17731 12 4.0004C12 3.8235 11.9297 3.65384 11.8046 3.52875L8.47141 0.195518C8.4095 0.133536 8.33597 0.0843649 8.25504 0.0508164C8.17411 0.0172679 8.08736 0 7.99976 0C7.91215 0 7.8254 0.0172679 7.74447 0.0508164C7.66354 0.0843649 7.59002 0.133536 7.5281 0.195518L4.19487 3.52875C4.06978 3.65384 3.99951 3.8235 3.99951 4.0004C3.99951 4.17731 4.06978 4.34697 4.19487 4.47206C4.31996 4.59714 4.48962 4.66742 4.66652 4.66742C4.84343 4.66742 5.01309 4.59714 5.13818 4.47206Z"/>
</svg>
