<svg fill="currentColor" width="16" height="16" viewBox="0 0 16 16" xmlns="http://www.w3.org/2000/svg">
<path d="M3.74077 8.65739C3.74257 8.69352 3.73701 8.72964 3.72442 8.76355C3.71183 8.79746 3.69248 8.82846 3.66753 8.85466C3.64258 8.88085 3.61256 8.9017 3.5793 8.91593C3.54605 8.93016 3.51024 8.93747 3.47407 8.93743H0.532365C0.411974 8.93761 0.295062 8.89706 0.20064 8.82237C0.106218 8.74768 0.03984 8.64324 0.0123006 8.52604C-0.00484762 8.44582 -0.0040571 8.36281 0.0146155 8.28293C0.0332882 8.20305 0.0693815 8.12829 0.120314 8.06398C0.590912 7.43989 1.21531 6.94851 1.93254 6.63781C1.61765 6.3507 1.37614 5.99233 1.22824 5.5927C1.08033 5.19307 1.03034 4.76381 1.08244 4.34089C1.13455 3.91796 1.28724 3.51368 1.52772 3.16189C1.7682 2.81011 2.08947 2.52107 2.46463 2.31899C2.83978 2.1169 3.2579 2.00765 3.68396 2.00039C4.11003 1.99312 4.53163 2.08806 4.91345 2.27724C5.29528 2.46642 5.62622 2.74433 5.87855 3.08771C6.13089 3.43109 6.29727 3.82994 6.36376 4.25084C6.37235 4.30744 6.36221 4.3653 6.33489 4.41561C6.30756 4.46592 6.26456 4.50592 6.21241 4.52954C5.47258 4.87157 4.84601 5.41808 4.40665 6.10459C3.96729 6.7911 3.73347 7.58896 3.73276 8.40403C3.73276 8.48937 3.73276 8.57338 3.74077 8.65739ZM15.8756 8.06332C15.4061 7.43995 14.7831 6.94883 14.0674 6.63781C14.3823 6.3507 14.6238 5.99233 14.7717 5.5927C14.9196 5.19307 14.9696 4.76381 14.9175 4.34089C14.8654 3.91796 14.7127 3.51368 14.4722 3.16189C14.2317 2.81011 13.9105 2.52107 13.5353 2.31899C13.1601 2.1169 12.742 2.00765 12.316 2.00039C11.8899 1.99312 11.4683 2.08806 11.0865 2.27724C10.7046 2.46642 10.3737 2.74433 10.1214 3.08771C9.86904 3.43109 9.70266 3.82994 9.63617 4.25084C9.62758 4.30744 9.63772 4.3653 9.66504 4.41561C9.69236 4.46592 9.73537 4.50592 9.78752 4.52954C10.5274 4.87157 11.1539 5.41808 11.5933 6.10459C12.0326 6.7911 12.2665 7.58896 12.2672 8.40403C12.2672 8.48937 12.2672 8.57338 12.2592 8.65739C12.2574 8.69352 12.2629 8.72964 12.2755 8.76355C12.2881 8.79746 12.3075 8.82846 12.3324 8.85466C12.3573 8.88085 12.3874 8.9017 12.4206 8.91593C12.4539 8.93016 12.4897 8.93747 12.5259 8.93743H15.4676C15.588 8.93761 15.7049 8.89706 15.7993 8.82237C15.8937 8.74768 15.9601 8.64324 15.9876 8.52604C16.0049 8.44568 16.0041 8.36248 15.9853 8.28246C15.9665 8.20245 15.9302 8.1276 15.8789 8.06332H15.8756ZM9.94154 10.9423C10.4726 10.5356 10.8629 9.97266 11.0576 9.33265C11.2522 8.69263 11.2414 8.00771 11.0267 7.37416C10.8119 6.7406 10.4041 6.19026 9.8604 5.80048C9.31673 5.4107 8.66459 5.20108 7.99563 5.20108C7.32667 5.20108 6.67453 5.4107 6.13086 5.80048C5.58719 6.19026 5.17933 6.7406 4.9646 7.37416C4.74986 8.00771 4.73905 8.69263 4.93369 9.33265C5.12833 9.97266 5.51862 10.5356 6.04972 10.9423C5.10729 11.3507 4.32035 12.05 3.80411 12.9379C3.75729 13.019 3.73264 13.111 3.73265 13.2047C3.73265 13.2983 3.75731 13.3903 3.80414 13.4714C3.85097 13.5525 3.91832 13.6198 3.99942 13.6666C4.08053 13.7134 4.17252 13.738 4.26616 13.738H11.7338C11.8274 13.738 11.9194 13.7134 12.0005 13.6666C12.0816 13.6198 12.149 13.5525 12.1958 13.4714C12.2426 13.3903 12.2673 13.2983 12.2673 13.2047C12.2673 13.111 12.2426 13.019 12.1958 12.9379C11.6785 12.0494 10.8901 11.35 9.94621 10.9423H9.94154Z"/>
</svg>
