<svg fill="currentColor" width="16" height="16" viewBox="0 0 16 16" xmlns="http://www.w3.org/2000/svg">
<g clip-path="url(#clip0_3550_8342)">
<path d="M16 9.06767C16 9.20912 15.9438 9.34477 15.8438 9.44479C15.7438 9.54481 15.6081 9.60101 15.4667 9.60101H14.4V10.6677C14.4 10.8091 14.3438 10.9448 14.2438 11.0448C14.1438 11.1448 14.0081 11.201 13.8666 11.201C13.7252 11.201 13.5895 11.1448 13.4895 11.0448C13.3895 10.9448 13.3333 10.8091 13.3333 10.6677V9.60101H12.2666C12.1252 9.60101 11.9895 9.54481 11.8895 9.44479C11.7895 9.34477 11.7333 9.20912 11.7333 9.06767C11.7333 8.92622 11.7895 8.79056 11.8895 8.69054C11.9895 8.59052 12.1252 8.53433 12.2666 8.53433H13.3333V7.46765C13.3333 7.3262 13.3895 7.19054 13.4895 7.09052C13.5895 6.9905 13.7252 6.93431 13.8666 6.93431C14.0081 6.93431 14.1438 6.9905 14.2438 7.09052C14.3438 7.19054 14.4 7.3262 14.4 7.46765V8.53433H15.4667C15.6081 8.53433 15.7438 8.59052 15.8438 8.69054C15.9438 8.79056 16 8.92622 16 9.06767ZM12.142 12.991C12.233 13.0994 12.2773 13.2395 12.265 13.3806C12.2528 13.5216 12.185 13.652 12.0766 13.7431C11.9682 13.8341 11.8281 13.8784 11.6871 13.8661C11.5461 13.8539 11.4157 13.7861 11.3246 13.6777C9.98327 12.0804 8.13925 11.201 6.13323 11.201C4.1272 11.201 2.28318 12.0804 0.941837 13.6777C0.850778 13.786 0.720428 13.8537 0.579462 13.8659C0.438495 13.8781 0.29846 13.8338 0.190162 13.7427C0.0818643 13.6517 0.014175 13.5213 0.001985 13.3803C-0.010205 13.2394 0.0341029 13.0993 0.125161 12.991C1.12117 11.8057 2.35985 10.9637 3.73653 10.513C2.90046 9.99228 2.25673 9.21341 1.90274 8.29424C1.54874 7.37507 1.50374 6.36562 1.77455 5.4186C2.04535 4.47158 2.61722 3.63852 3.40364 3.04545C4.19007 2.45239 5.14825 2.13159 6.13323 2.13159C7.11821 2.13159 8.07639 2.45239 8.86281 3.04545C9.64923 3.63852 10.2211 4.47158 10.4919 5.4186C10.7627 6.36562 10.7177 7.37507 10.3637 8.29424C10.0097 9.21341 9.36599 9.99228 8.52992 10.513C9.9066 10.9637 11.1453 11.8057 12.142 12.991ZM6.13323 10.1343C6.81888 10.1343 7.48913 9.93103 8.05922 9.5501C8.62932 9.16917 9.07366 8.62775 9.33604 7.99429C9.59843 7.36083 9.66708 6.66379 9.53332 5.99132C9.39956 5.31885 9.06938 4.70114 8.58456 4.21631C8.09973 3.73148 7.48202 3.40131 6.80955 3.26755C6.13707 3.13378 5.44003 3.20244 4.80658 3.46482C4.17312 3.72721 3.63169 4.17155 3.25077 4.74164C2.86984 5.31174 2.66652 5.98199 2.66652 6.66764C2.66758 7.58674 3.03316 8.4679 3.68307 9.1178C4.33297 9.7677 5.21412 10.1333 6.13323 10.1343Z"/>
</g>
<defs>
<clipPath id="clip0_3550_8342">
<rect width="16" height="16"/>
</clipPath>
</defs>
</svg>
