<svg fill="currentColor" width="16" height="16" viewBox="0 0 16 16" xmlns="http://www.w3.org/2000/svg">
<g clip-path="url(#clip0_3263_153)">
<path d="M15.718 4.33328C15.633 4.2877 15.5371 4.26604 15.4407 4.27062C15.3444 4.2752 15.251 4.30584 15.1707 4.35928L12.8 5.93662V4.26662C12.8 3.98372 12.6876 3.71241 12.4876 3.51237C12.2875 3.31233 12.0162 3.19995 11.7333 3.19995H1.06667C0.783769 3.19995 0.512458 3.31233 0.312419 3.51237C0.112381 3.71241 0 3.98372 0 4.26662V11.7333C0 12.0162 0.112381 12.2875 0.312419 12.4875C0.512458 12.6876 0.783769 12.8 1.06667 12.8H11.7333C12.0162 12.8 12.2875 12.6876 12.4876 12.4875C12.6876 12.2875 12.8 12.0162 12.8 11.7333V10.0666L15.1707 11.6473C15.2587 11.7045 15.3617 11.7344 15.4667 11.7333C15.6081 11.7333 15.7438 11.6771 15.8438 11.5771C15.9438 11.4771 16 11.3414 16 11.2V4.79995C15.9993 4.70399 15.9728 4.60999 15.9231 4.52786C15.8735 4.44572 15.8026 4.3785 15.718 4.33328ZM11.7333 11.7333H1.06667V4.26662H11.7333V11.7333ZM14.9333 10.2033L12.8 8.78128V7.21862L14.9333 5.79995V10.2033Z"/>
</g>
<defs>
<clipPath id="clip0_3263_153">
<rect width="16" height="16"/>
</clipPath>
</defs>
</svg>
