<svg fill="currentColor" width="16" height="16" viewBox="0 0 16 16" xmlns="http://www.w3.org/2000/svg">
<g clip-path="url(#clip0_3133_12)">
<path d="M8.53333 6.66667C8.53333 6.29748 8.42385 5.93657 8.21874 5.6296C8.01363 5.32263 7.7221 5.08337 7.38101 4.94209C7.03992 4.80081 6.6646 4.76384 6.3025 4.83587C5.9404 4.90789 5.60779 5.08568 5.34673 5.34673C5.08568 5.60779 4.90789 5.9404 4.83587 6.3025C4.76384 6.6646 4.80081 7.03992 4.94209 7.38101C5.08337 7.7221 5.32263 8.01363 5.6296 8.21874C5.93657 8.42385 6.29748 8.53333 6.66667 8.53333C7.16174 8.53333 7.63653 8.33667 7.9866 7.9866C8.33667 7.63653 8.53333 7.16174 8.53333 6.66667ZM6.66667 7.46667C6.50844 7.46667 6.35377 7.41975 6.22221 7.33184C6.09065 7.24394 5.98811 7.11899 5.92756 6.97281C5.86701 6.82663 5.85117 6.66578 5.88204 6.51059C5.91291 6.35541 5.9891 6.21286 6.10098 6.10098C6.21286 5.9891 6.35541 5.91291 6.51059 5.88204C6.66578 5.85117 6.82663 5.86701 6.97281 5.92756C7.11899 5.98811 7.24394 6.09065 7.33184 6.22221C7.41975 6.35377 7.46667 6.50844 7.46667 6.66667C7.46667 6.87884 7.38238 7.08232 7.23235 7.23235C7.08232 7.38238 6.87884 7.46667 6.66667 7.46667ZM11.2 6.93333C11.411 6.93333 11.6172 6.99589 11.7926 7.1131C11.968 7.23031 12.1047 7.3969 12.1855 7.5918C12.2662 7.78671 12.2873 8.00118 12.2462 8.2081C12.205 8.41501 12.1034 8.60507 11.9542 8.75425C11.8051 8.90342 11.615 9.00501 11.4081 9.04617C11.2012 9.08733 10.9867 9.06621 10.7918 8.98547C10.5969 8.90474 10.4303 8.76802 10.3131 8.59261C10.1959 8.4172 10.1333 8.21097 10.1333 8C10.1333 7.7171 10.2457 7.44579 10.4458 7.24575C10.6458 7.04571 10.9171 6.93333 11.2 6.93333ZM9.06667 11.2C9.06667 11.411 9.00411 11.6172 8.8869 11.7926C8.76969 11.968 8.6031 12.1047 8.4082 12.1855C8.21329 12.2662 7.99882 12.2873 7.7919 12.2462C7.58499 12.205 7.39493 12.1034 7.24575 11.9542C7.09658 11.8051 6.99499 11.615 6.95383 11.4081C6.91267 11.2012 6.9338 10.9867 7.01453 10.7918C7.09526 10.5969 7.23198 10.4303 7.40739 10.3131C7.5828 10.1959 7.78903 10.1333 8 10.1333C8.2829 10.1333 8.55421 10.2457 8.75425 10.4458C8.95429 10.6458 9.06667 10.9171 9.06667 11.2ZM15.4667 7.46667H14.3773C14.2675 6.14133 13.7456 4.88362 12.8847 3.87L13.7107 3.044C13.8107 2.94393 13.867 2.80819 13.867 2.66667C13.867 2.52514 13.8107 2.38941 13.7107 2.28933C13.6106 2.18926 13.4749 2.13304 13.3333 2.13304C13.1918 2.13304 13.0561 2.18926 12.956 2.28933L12.1333 3.11533C11.1188 2.25378 9.85984 1.73178 8.53333 1.62267V0.533333C8.53333 0.391885 8.47714 0.256229 8.37712 0.15621C8.27711 0.0561903 8.14145 0 8 0C7.85855 0 7.7229 0.0561903 7.62288 0.15621C7.52286 0.256229 7.46667 0.391885 7.46667 0.533333V1.62267C6.14133 1.73246 4.88362 2.25442 3.87 3.11533L3.044 2.28933C2.94393 2.18926 2.80819 2.13304 2.66667 2.13304C2.52514 2.13304 2.38941 2.18926 2.28933 2.28933C2.18926 2.38941 2.13304 2.52514 2.13304 2.66667C2.13304 2.80819 2.18926 2.94393 2.28933 3.044L3.11533 3.87C2.25378 4.88452 1.73178 6.1435 1.62267 7.47H0.533333C0.391885 7.47 0.256229 7.52619 0.15621 7.62621C0.0561903 7.72623 0 7.86189 0 8.00333C0 8.14478 0.0561903 8.28044 0.15621 8.38046C0.256229 8.48048 0.391885 8.53667 0.533333 8.53667H1.62267C1.73246 9.86201 2.25442 11.1197 3.11533 12.1333L2.28933 12.956C2.18926 13.0561 2.13304 13.1918 2.13304 13.3333C2.13304 13.4749 2.18926 13.6106 2.28933 13.7107C2.38941 13.8107 2.52514 13.867 2.66667 13.867C2.80819 13.867 2.94393 13.8107 3.044 13.7107L3.87 12.8847C4.88452 13.7462 6.1435 14.2682 7.47 14.3773V15.4667C7.47 15.6081 7.52619 15.7438 7.62621 15.8438C7.72623 15.9438 7.86189 16 8.00333 16C8.14478 16 8.28044 15.9438 8.38046 15.8438C8.48048 15.7438 8.53667 15.6081 8.53667 15.4667V14.3773C9.86201 14.2675 11.1197 13.7456 12.1333 12.8847L12.9593 13.7107C13.0594 13.8107 13.1951 13.867 13.3367 13.867C13.4782 13.867 13.6139 13.8107 13.714 13.7107C13.8141 13.6106 13.8703 13.4749 13.8703 13.3333C13.8703 13.1918 13.8141 13.0561 13.714 12.956L12.8847 12.1333C13.7462 11.1188 14.2682 9.85984 14.3773 8.53333H15.4667C15.6081 8.53333 15.7438 8.47714 15.8438 8.37712C15.9438 8.27711 16 8.14145 16 8C16 7.85855 15.9438 7.7229 15.8438 7.62288C15.7438 7.52286 15.6081 7.46667 15.4667 7.46667ZM8 13.3333C6.94517 13.3333 5.91402 13.0205 5.03696 12.4345C4.1599 11.8485 3.47631 11.0155 3.07264 10.041C2.66898 9.06644 2.56336 7.99408 2.76915 6.95952C2.97493 5.92495 3.48288 4.97464 4.22876 4.22876C4.97464 3.48288 5.92495 2.97493 6.95952 2.76915C7.99408 2.56336 9.06644 2.66898 10.041 3.07264C11.0155 3.47631 11.8485 4.1599 12.4345 5.03696C13.0205 5.91402 13.3333 6.94517 13.3333 8C13.3317 9.414 12.7693 10.7696 11.7695 11.7695C10.7696 12.7693 9.414 13.3317 8 13.3333Z"/>
</g>
<defs>
<clipPath id="clip0_3133_12">
<rect width="16" height="16"/>
</clipPath>
</defs>
</svg>
