<svg fill="currentColor" width="16" height="16" viewBox="0 0 16 16" xmlns="http://www.w3.org/2000/svg">
<path d="M3.06133 2.1794C3.01449 2.1266 2.95764 2.08363 2.89408 2.05297C2.83051 2.0223 2.76149 2.00456 2.69101 2.00077C2.62054 1.99698 2.55001 2.00721 2.48352 2.03088C2.41703 2.05454 2.3559 2.09117 2.30367 2.13864C2.25144 2.1861 2.20915 2.24347 2.17925 2.3074C2.14935 2.37133 2.13244 2.44056 2.12949 2.51107C2.12655 2.58159 2.13763 2.65198 2.16209 2.71819C2.18655 2.78439 2.22391 2.84508 2.272 2.89673L3.55466 4.30807C1.13333 5.79407 0.0919937 8.08474 0.0459936 8.18874C0.0156691 8.25694 0 8.33076 0 8.4054C0 8.48005 0.0156691 8.55386 0.0459936 8.62207C0.069327 8.67474 0.633994 9.92674 1.88933 11.1821C3.562 12.8541 5.67466 13.7381 8 13.7381C9.19508 13.7449 10.3781 13.4988 11.4713 13.0161L12.938 14.6301C12.9848 14.6829 13.0417 14.7258 13.1053 14.7565C13.1688 14.7872 13.2378 14.8049 13.3083 14.8087C13.3788 14.8125 13.4493 14.8023 13.5158 14.7786C13.5823 14.7549 13.6434 14.7183 13.6957 14.6708C13.7479 14.6234 13.7902 14.566 13.8201 14.5021C13.85 14.4381 13.8669 14.3689 13.8698 14.2984C13.8728 14.2279 13.8617 14.1575 13.8372 14.0913C13.8128 14.0251 13.7754 13.9644 13.7273 13.9127L3.06133 2.1794ZM6.21667 7.2354L8.99467 10.2921C8.57633 10.5122 8.09674 10.5871 7.63122 10.505C7.1657 10.423 6.7406 10.1887 6.42268 9.83888C6.10476 9.48906 5.91202 9.04357 5.87473 8.57235C5.83745 8.10112 5.95772 7.63086 6.21667 7.2354ZM8 12.6714C5.948 12.6714 4.15533 11.9254 2.67133 10.4547C2.06221 9.84939 1.54414 9.15886 1.13333 8.40474C1.44599 7.81874 2.44399 6.17874 4.29 5.11273L5.49 6.4294C5.02542 7.02441 4.78615 7.76449 4.81449 8.51885C4.84282 9.27321 5.13692 9.99326 5.64482 10.5517C6.15272 11.1102 6.8417 11.4712 7.58999 11.5708C8.33828 11.6704 9.09769 11.5022 9.734 11.0961L10.716 12.1761C9.84933 12.5086 8.92825 12.6766 8 12.6714ZM8.4 6.3094C8.26103 6.28288 8.13828 6.20224 8.05877 6.08522C7.97925 5.96819 7.94948 5.82438 7.976 5.6854C8.00252 5.54643 8.08316 5.42368 8.20019 5.34417C8.31721 5.26465 8.46103 5.23488 8.6 5.2614C9.27974 5.39318 9.89866 5.74117 10.3645 6.25346C10.8303 6.76575 11.118 7.4149 11.1847 8.10407C11.1978 8.2449 11.1545 8.38519 11.0643 8.49409C10.974 8.60298 10.8442 8.67156 10.7033 8.68474C10.6867 8.68572 10.67 8.68572 10.6533 8.68474C10.52 8.68531 10.3913 8.63594 10.2926 8.54636C10.1939 8.45677 10.1323 8.33347 10.12 8.20074C10.0751 7.74233 9.88347 7.31066 9.57358 6.9699C9.26369 6.62914 8.85209 6.39749 8.4 6.3094ZM15.952 8.62207C15.924 8.68474 15.2487 10.1801 13.728 11.5421C13.676 11.5901 13.615 11.6273 13.5486 11.6515C13.4821 11.6757 13.4115 11.6865 13.3408 11.6831C13.2701 11.6798 13.2008 11.6624 13.1369 11.632C13.073 11.6016 13.0158 11.5588 12.9686 11.5061C12.9214 11.4534 12.8852 11.3918 12.8621 11.325C12.8389 11.2581 12.8293 11.1873 12.8338 11.1167C12.8382 11.0461 12.8567 10.9771 12.8881 10.9137C12.9195 10.8503 12.9632 10.7937 13.0167 10.7474C13.7627 10.0772 14.3894 9.28498 14.87 8.40474C14.4583 7.64992 13.9391 6.95892 13.3287 6.3534C11.8447 4.88407 10.052 4.13807 8 4.13807C7.56764 4.13754 7.13596 4.17255 6.70933 4.24273C6.63995 4.255 6.56883 4.2534 6.50008 4.23803C6.43132 4.22266 6.36629 4.19381 6.30874 4.15316C6.2512 4.11251 6.20228 4.06087 6.16481 4.0012C6.12734 3.94154 6.10206 3.87504 6.09043 3.80555C6.07881 3.73606 6.08107 3.66496 6.09708 3.59635C6.11309 3.52774 6.14253 3.46298 6.18371 3.40581C6.22489 3.34865 6.27699 3.30021 6.337 3.26329C6.39701 3.22637 6.46374 3.20171 6.53333 3.19073C7.01811 3.11069 7.50866 3.07078 8 3.0714C10.3253 3.0714 12.438 3.9554 14.1107 5.62807C15.366 6.8834 15.9307 8.13607 15.954 8.18874C15.9843 8.25694 16 8.33076 16 8.4054C16 8.48005 15.9843 8.55386 15.954 8.62207H15.952Z"/>
</svg>
