<svg fill="currentColor" width="16" height="16" viewBox="0 0 16 16" xmlns="http://www.w3.org/2000/svg">
<path d="M15.954 7.78396C15.9307 7.7313 15.366 6.47863 14.1107 5.22329C12.438 3.55063 10.3253 2.66663 8 2.66663C5.67466 2.66663 3.562 3.55063 1.88933 5.22329C0.633994 6.47863 0.0666603 7.7333 0.0459936 7.78396C0.0156691 7.85217 0 7.92598 0 8.00063C0 8.07527 0.0156691 8.14909 0.0459936 8.2173C0.069327 8.26996 0.633994 9.52196 1.88933 10.7773C3.562 12.4493 5.67466 13.3333 8 13.3333C10.3253 13.3333 12.438 12.4493 14.1107 10.7773C15.366 9.52196 15.9307 8.26996 15.954 8.2173C15.9843 8.14909 16 8.07527 16 8.00063C16 7.92598 15.9843 7.85217 15.954 7.78396ZM8 12.2666C5.948 12.2666 4.15533 11.5206 2.67133 10.05C2.06243 9.44443 1.54439 8.75393 1.13333 7.99996C1.54428 7.24592 2.06233 6.55541 2.67133 5.94996C4.15533 4.47929 5.948 3.73329 8 3.73329C10.052 3.73329 11.8447 4.47929 13.3287 5.94996C13.9388 6.55527 14.4579 7.24577 14.87 7.99996C14.3893 8.8973 12.2953 12.2666 8 12.2666ZM8 4.79996C7.3671 4.79996 6.74841 4.98764 6.22217 5.33926C5.69594 5.69088 5.28578 6.19065 5.04358 6.77538C4.80138 7.3601 4.73801 8.00351 4.86148 8.62425C4.98496 9.24499 5.28973 9.81518 5.73726 10.2627C6.18478 10.7102 6.75497 11.015 7.37571 11.1385C7.99645 11.262 8.63986 11.1986 9.22459 10.9564C9.80931 10.7142 10.3091 10.304 10.6607 9.77779C11.0123 9.25155 11.2 8.63286 11.2 7.99996C11.1991 7.15154 10.8617 6.33812 10.2618 5.73819C9.66184 5.13827 8.84842 4.80084 8 4.79996ZM8 10.1333C7.57807 10.1333 7.16561 10.0082 6.81478 9.77377C6.46396 9.53935 6.19052 9.20617 6.02906 8.81635C5.86759 8.42654 5.82534 7.9976 5.90766 7.58377C5.98997 7.16994 6.19315 6.78982 6.4915 6.49147C6.78986 6.19312 7.16998 5.98993 7.58381 5.90762C7.99763 5.8253 8.42658 5.86755 8.81639 6.02902C9.20621 6.19049 9.53939 6.46392 9.7738 6.81475C10.0082 7.16557 10.1333 7.57803 10.1333 7.99996C10.1333 8.56576 9.90857 9.10838 9.50849 9.50846C9.10842 9.90854 8.56579 10.1333 8 10.1333Z"/>
</svg>
