<svg fill="currentColor" width="16" height="16" viewBox="0 0 16 16" xmlns="http://www.w3.org/2000/svg">
<path d="M9.62138 0.883616C9.5286 0.838406 9.425 0.820126 9.32235 0.830855C9.2197 0.841583 9.12212 0.880889 9.04069 0.944306L4.22414 4.68982H1.10345C0.810795 4.68982 0.530129 4.80608 0.323192 5.01302C0.116256 5.21995 0 5.50062 0 5.79327V10.2071C0 10.4997 0.116256 10.7804 0.323192 10.9873C0.530129 11.1943 0.810795 11.3105 1.10345 11.3105H4.22414L9.04069 15.056C9.12219 15.1194 9.21984 15.1586 9.32253 15.1692C9.42522 15.1799 9.52883 15.1615 9.62158 15.1161C9.71434 15.0708 9.79251 15.0003 9.84721 14.9128C9.90191 14.8252 9.93096 14.7241 9.93103 14.6209V1.37948C9.93105 1.27612 9.90203 1.17483 9.84728 1.08716C9.79253 0.999493 9.71426 0.928965 9.62138 0.883616ZM1.10345 5.79327H3.86207V10.2071H1.10345V5.79327ZM8.82759 13.4926L4.96552 10.4891V5.5112L8.82759 2.50775V13.4926ZM12.5517 6.17672C12.9955 6.6805 13.2403 7.32881 13.2403 8.00017C13.2403 8.67152 12.9955 9.31984 12.5517 9.82362C12.4542 9.93072 12.3186 9.99521 12.174 10.0032C12.0294 10.0111 11.8874 9.96188 11.7788 9.86611C11.6702 9.77034 11.6036 9.63569 11.5933 9.49123C11.5831 9.34677 11.6301 9.20408 11.7241 9.09396C11.9902 8.79173 12.137 8.40285 12.137 8.00017C12.137 7.59748 11.9902 7.2086 11.7241 6.90637C11.6301 6.79625 11.5831 6.65356 11.5933 6.5091C11.6036 6.36464 11.6702 6.23 11.7788 6.13423C11.8874 6.03845 12.0294 5.98923 12.174 5.99718C12.3186 6.00513 12.4542 6.06961 12.5517 6.17672ZM16 8.00017C16.0008 9.35755 15.5005 10.6675 14.5952 11.6788C14.4969 11.7851 14.3607 11.8486 14.2161 11.8554C14.0714 11.8623 13.9299 11.812 13.822 11.7154C13.7141 11.6188 13.6485 11.4837 13.6394 11.3392C13.6302 11.1947 13.6782 11.0523 13.7731 10.9429C14.4968 10.1337 14.8969 9.08615 14.8969 8.00051C14.8969 6.91487 14.4968 5.86731 13.7731 5.0581C13.7234 5.00435 13.6849 4.94125 13.6599 4.87248C13.6348 4.80371 13.6237 4.73064 13.6272 4.65753C13.6306 4.58442 13.6486 4.51273 13.6801 4.44663C13.7115 4.38054 13.7558 4.32136 13.8103 4.27255C13.8648 4.22373 13.9285 4.18625 13.9977 4.1623C14.0669 4.13834 14.1401 4.12839 14.2131 4.13301C14.2862 4.13763 14.3576 4.15675 14.4232 4.18923C14.4888 4.22172 14.5472 4.26693 14.5952 4.32224C15.5008 5.33314 16.0011 6.64294 16 8.00017Z"/>
</svg>
