<svg fill="currentColor" width="16" height="16" viewBox="0 0 16 16" xmlns="http://www.w3.org/2000/svg">
<path d="M15.7714 12.5776L9.52528 1.73028C9.3692 1.46453 9.14637 1.24418 8.87889 1.09107C8.61141 0.937966 8.30856 0.857422 8.00036 0.857422C7.69216 0.857422 7.38931 0.937966 7.12183 1.09107C6.85434 1.24418 6.63152 1.46453 6.47544 1.73028L0.229326 12.5776C0.079145 12.8346 0 13.127 0 13.4247C0 13.7224 0.079145 14.0147 0.229326 14.2718C0.383411 14.5391 0.605857 14.7607 0.873837 14.9137C1.14182 15.0667 1.44568 15.1457 1.75425 15.1425H14.2465C14.5548 15.1454 14.8584 15.0663 15.1261 14.9133C15.3938 14.7603 15.616 14.5389 15.77 14.2718C15.9204 14.0149 15.9997 13.7226 16 13.4249C16.0003 13.1272 15.9214 12.8348 15.7714 12.5776ZM14.7807 13.6997C14.7263 13.7926 14.6481 13.8693 14.5542 13.922C14.4603 13.9747 14.3541 14.0015 14.2465 13.9997H1.75425C1.64659 14.0015 1.54038 13.9747 1.4465 13.922C1.35262 13.8693 1.27444 13.7926 1.21999 13.6997C1.17067 13.6162 1.14465 13.521 1.14465 13.424C1.14465 13.327 1.17067 13.2318 1.21999 13.1483L7.4661 2.30097C7.52165 2.20852 7.60018 2.13203 7.69405 2.07892C7.78792 2.02582 7.89393 1.99791 8.00179 1.99791C8.10964 1.99791 8.21565 2.02582 8.30952 2.07892C8.40339 2.13203 8.48192 2.20852 8.53747 2.30097L14.7836 13.1483C14.8325 13.232 14.858 13.3274 14.8575 13.4244C14.857 13.5213 14.8305 13.6164 14.7807 13.6997Z"/>
<path d="M7.42895 6.57152V9.42852C7.42895 9.58006 7.48915 9.7254 7.59631 9.83256C7.70347 9.93972 7.8488 9.99992 8.00035 9.99992C8.15189 9.99992 8.29723 9.93972 8.40439 9.83256C8.51155 9.7254 8.57175 9.58006 8.57175 9.42852V6.57152C8.57175 6.41998 8.51155 6.27464 8.40439 6.16748C8.29723 6.06032 8.15189 6.00012 8.00035 6.00012C7.8488 6.00012 7.70347 6.06032 7.59631 6.16748C7.48915 6.27464 7.42895 6.41998 7.42895 6.57152Z"/>
<path d="M8.713 12.476C8.80718 12.335 8.85745 12.1693 8.85745 11.9998C8.85745 11.7725 8.76715 11.5545 8.60641 11.3938C8.44567 11.233 8.22767 11.1427 8.00035 11.1427C7.83083 11.1427 7.66512 11.193 7.52417 11.2872C7.38322 11.3813 7.27336 11.5152 7.20849 11.6718C7.14362 11.8284 7.12665 12.0008 7.15972 12.167C7.19279 12.3333 7.27442 12.486 7.39429 12.6059C7.51416 12.7257 7.66688 12.8074 7.83314 12.8404C7.9994 12.8735 8.17173 12.8565 8.32835 12.7917C8.48496 12.7268 8.61882 12.6169 8.713 12.476Z"/>
</svg>
