<svg fill="currentColor" width="16" height="16" viewBox="0 0 16 16" xmlns="http://www.w3.org/2000/svg">
<path d="M10.1818 5.09091V0.727273C10.1818 0.534388 10.2584 0.349404 10.3948 0.213013C10.5312 0.0766233 10.7162 0 10.9091 0C11.102 0 11.287 0.0766233 11.4234 0.213013C11.5597 0.349404 11.6364 0.534388 11.6364 0.727273V4.36364H15.2727C15.4656 4.36364 15.6506 4.44026 15.787 4.57665C15.9234 4.71304 16 4.89802 16 5.09091C16 5.28379 15.9234 5.46878 15.787 5.60517C15.6506 5.74156 15.4656 5.81818 15.2727 5.81818H10.9091C10.7162 5.81818 10.5312 5.74156 10.3948 5.60517C10.2584 5.46878 10.1818 5.28379 10.1818 5.09091ZM5.09091 10.1818H0.727273C0.534388 10.1818 0.349404 10.2584 0.213013 10.3948C0.0766233 10.5312 0 10.7162 0 10.9091C0 11.102 0.0766233 11.287 0.213013 11.4234C0.349404 11.5597 0.534388 11.6364 0.727273 11.6364H4.36364V15.2727C4.36364 15.4656 4.44026 15.6506 4.57665 15.787C4.71304 15.9234 4.89802 16 5.09091 16C5.28379 16 5.46878 15.9234 5.60517 15.787C5.74156 15.6506 5.81818 15.4656 5.81818 15.2727V10.9091C5.81818 10.7162 5.74156 10.5312 5.60517 10.3948C5.46878 10.2584 5.28379 10.1818 5.09091 10.1818ZM15.2727 10.1818H10.9091C10.7162 10.1818 10.5312 10.2584 10.3948 10.3948C10.2584 10.5312 10.1818 10.7162 10.1818 10.9091V15.2727C10.1818 15.4656 10.2584 15.6506 10.3948 15.787C10.5312 15.9234 10.7162 16 10.9091 16C11.102 16 11.287 15.9234 11.4234 15.787C11.5597 15.6506 11.6364 15.4656 11.6364 15.2727V11.6364H15.2727C15.4656 11.6364 15.6506 11.5597 15.787 11.4234C15.9234 11.287 16 11.102 16 10.9091C16 10.7162 15.9234 10.5312 15.787 10.3948C15.6506 10.2584 15.4656 10.1818 15.2727 10.1818ZM5.09091 0C4.89802 0 4.71304 0.0766233 4.57665 0.213013C4.44026 0.349404 4.36364 0.534388 4.36364 0.727273V4.36364H0.727273C0.534388 4.36364 0.349404 4.44026 0.213013 4.57665C0.0766233 4.71304 0 4.89802 0 5.09091C0 5.28379 0.0766233 5.46878 0.213013 5.60517C0.349404 5.74156 0.534388 5.81818 0.727273 5.81818H5.09091C5.28379 5.81818 5.46878 5.74156 5.60517 5.60517C5.74156 5.46878 5.81818 5.28379 5.81818 5.09091V0.727273C5.81818 0.534388 5.74156 0.349404 5.60517 0.213013C5.46878 0.0766233 5.28379 0 5.09091 0Z"/>
</svg>
