<svg fill="currentColor" width="16" height="16" viewBox="0 0 16 16" xmlns="http://www.w3.org/2000/svg">
<path d="M13.5385 4.30764V6.76917C13.5385 6.93238 13.4736 7.08891 13.3582 7.20432C13.2428 7.31972 13.0863 7.38456 12.9231 7.38456C12.7599 7.38456 12.6033 7.31972 12.4879 7.20432C12.3725 7.08891 12.3077 6.93238 12.3077 6.76917V4.92302H10.4615C10.2983 4.92302 10.1418 4.85819 10.0264 4.74278C9.91099 4.62737 9.84615 4.47085 9.84615 4.30764C9.84615 4.14443 9.91099 3.9879 10.0264 3.87249C10.1418 3.75709 10.2983 3.69225 10.4615 3.69225H12.9231C13.0863 3.69225 13.2428 3.75709 13.3582 3.87249C13.4736 3.9879 13.5385 4.14443 13.5385 4.30764ZM5.53846 11.0769H3.69231V9.23071C3.69231 9.0675 3.62747 8.91098 3.51207 8.79557C3.39666 8.68016 3.24013 8.61533 3.07692 8.61533C2.91371 8.61533 2.75719 8.68016 2.64178 8.79557C2.52637 8.91098 2.46154 9.0675 2.46154 9.23071V11.6923C2.46154 11.8555 2.52637 12.012 2.64178 12.1274C2.75719 12.2428 2.91371 12.3076 3.07692 12.3076H5.53846C5.70167 12.3076 5.8582 12.2428 5.9736 12.1274C6.08901 12.012 6.15385 11.8555 6.15385 11.6923C6.15385 11.529 6.08901 11.3725 5.9736 11.2571C5.8582 11.1417 5.70167 11.0769 5.53846 11.0769ZM16 2.46148V13.5384C16 13.8648 15.8703 14.1779 15.6395 14.4087C15.4087 14.6395 15.0957 14.7692 14.7692 14.7692H1.23077C0.904349 14.7692 0.591298 14.6395 0.360484 14.4087C0.12967 14.1779 0 13.8648 0 13.5384V2.46148C0 2.13506 0.12967 1.82201 0.360484 1.5912C0.591298 1.36038 0.904349 1.23071 1.23077 1.23071H14.7692C15.0957 1.23071 15.4087 1.36038 15.6395 1.5912C15.8703 1.82201 16 2.13506 16 2.46148ZM14.7692 13.5384V2.46148H1.23077V13.5384H14.7692Z"/>
</svg>
