<svg fill="currentColor" width="16" height="16" viewBox="0 0 16 16" xmlns="http://www.w3.org/2000/svg">
<g clip-path="url(#clip0_3135_29)">
<path d="M12.6667 9.99998H11.3333C11.1565 9.99998 10.987 10.0702 10.8619 10.1952C10.7369 10.3203 10.6667 10.4898 10.6667 10.6666V15.3333C10.6667 15.5101 10.7369 15.6797 10.8619 15.8047C10.987 15.9297 11.1565 16 11.3333 16C11.5101 16 11.6797 15.9297 11.8047 15.8047C11.9298 15.6797 12 15.5101 12 15.3333V14.6666H12.6667C13.2855 14.6666 13.879 14.4208 14.3166 13.9832C14.7542 13.5456 15 12.9522 15 12.3333C15 11.7145 14.7542 11.121 14.3166 10.6834C13.879 10.2458 13.2855 9.99998 12.6667 9.99998ZM12.6667 13.3333H12V11.3333H12.6667C12.9319 11.3333 13.1862 11.4387 13.3738 11.6262C13.5613 11.8137 13.6667 12.0681 13.6667 12.3333C13.6667 12.5985 13.5613 12.8529 13.3738 13.0404C13.1862 13.228 12.9319 13.3333 12.6667 13.3333ZM8.66667 10.6666V15.3333C8.66667 15.5101 8.59644 15.6797 8.47141 15.8047C8.34639 15.9297 8.17682 16 8.00001 16C7.8232 16 7.65363 15.9297 7.5286 15.8047C7.40358 15.6797 7.33334 15.5101 7.33334 15.3333V10.6666C7.33334 10.4898 7.40358 10.3203 7.5286 10.1952C7.65363 10.0702 7.8232 9.99998 8.00001 9.99998C8.17682 9.99998 8.34639 10.0702 8.47141 10.1952C8.59644 10.3203 8.66667 10.4898 8.66667 10.6666ZM5.33335 15.3333C5.33335 15.5101 5.26311 15.6797 5.13808 15.8047C5.01306 15.9297 4.84349 16 4.66668 16H2.00002C1.88249 16.001 1.76677 15.971 1.66458 15.9129C1.5624 15.8548 1.47739 15.7708 1.41817 15.6692C1.35895 15.5677 1.32762 15.4523 1.32736 15.3348C1.3271 15.2173 1.35791 15.1018 1.41669 15L3.51335 11.3333H2.00002C1.82321 11.3333 1.65364 11.2631 1.52861 11.1381C1.40359 11.013 1.33335 10.8435 1.33335 10.6666C1.33335 10.4898 1.40359 10.3203 1.52861 10.1952C1.65364 10.0702 1.82321 9.99998 2.00002 9.99998H4.66668C4.78421 9.99893 4.89993 10.029 5.00211 10.087C5.1043 10.1451 5.18931 10.2292 5.24853 10.3307C5.30775 10.4322 5.33908 10.5476 5.33934 10.6651C5.3396 10.7827 5.30878 10.8982 5.25001 11L3.14918 14.6666H4.66668C4.84349 14.6666 5.01306 14.7369 5.13808 14.8619C5.26311 14.9869 5.33335 15.1565 5.33335 15.3333ZM15.1383 4.86166L10.4717 0.195C10.4097 0.13311 10.3362 0.0840345 10.2552 0.0505759C10.1743 0.0171172 10.0876 -6.86571e-05 10 2.06132e-07H2.00002C1.6464 2.06132e-07 1.30726 0.140476 1.05721 0.390524C0.807163 0.640572 0.666687 0.97971 0.666687 1.33333V7.33332C0.666687 7.51013 0.736925 7.6797 0.861949 7.80472C0.986973 7.92975 1.15654 7.99999 1.33335 7.99999C1.51016 7.99999 1.67973 7.92975 1.80476 7.80472C1.92978 7.6797 2.00002 7.51013 2.00002 7.33332V1.33333H9.33334V5.33332C9.33334 5.51014 9.40358 5.6797 9.5286 5.80473C9.65362 5.92975 9.82319 5.99999 10 5.99999H14V7.33332C14 7.51013 14.0702 7.6797 14.1953 7.80472C14.3203 7.92975 14.4899 7.99999 14.6667 7.99999C14.8435 7.99999 15.013 7.92975 15.1381 7.80472C15.2631 7.6797 15.3333 7.51013 15.3333 7.33332V5.33332C15.3334 5.24575 15.3162 5.15902 15.2828 5.07809C15.2493 4.99716 15.2002 4.92362 15.1383 4.86166ZM10.6667 4.66666V2.27583L13.0575 4.66666H10.6667Z"/>
</g>
<defs>
<clipPath id="clip0_3135_29">
<rect width="16" height="16"/>
</clipPath>
</defs>
</svg>
