<svg fill="currentColor" width="16" height="16" viewBox="0 0 16 16" xmlns="http://www.w3.org/2000/svg">
<path d="M9.85239 6.77882C9.85239 6.94186 9.78762 7.09821 9.67234 7.21349C9.55706 7.32877 9.40071 7.39354 9.23768 7.39354H4.31997C4.15694 7.39354 4.00059 7.32877 3.88531 7.21349C3.77002 7.09821 3.70526 6.94186 3.70526 6.77882C3.70526 6.61579 3.77002 6.45944 3.88531 6.34416C4.00059 6.22888 4.15694 6.16411 4.31997 6.16411H9.23768C9.40071 6.16411 9.55706 6.22888 9.67234 6.34416C9.78762 6.45944 9.85239 6.61579 9.85239 6.77882ZM15.8197 15.8197C15.7626 15.8769 15.6948 15.9222 15.6202 15.9531C15.5456 15.9841 15.4656 16 15.3848 16C15.304 16 15.224 15.9841 15.1494 15.9531C15.0748 15.9222 15.007 15.8769 14.9499 15.8197L11.1033 11.9724C9.76457 13.0875 8.04743 13.6435 6.30913 13.5249C4.57084 13.4062 2.94521 12.6219 1.77043 11.3352C0.59565 10.0485 -0.0378378 8.35836 0.00174964 6.61647C0.0413371 4.87457 0.750951 3.215 1.98297 1.98297C3.215 0.750951 4.87457 0.0413371 6.61647 0.00174964C8.35836 -0.0378378 10.0485 0.59565 11.3352 1.77043C12.6219 2.94521 13.4062 4.57084 13.5249 6.30913C13.6435 8.04743 13.0875 9.76457 11.9724 11.1033L15.8197 14.9499C15.8769 15.007 15.9222 15.0748 15.9531 15.1494C15.9841 15.224 16 15.304 16 15.3848C16 15.4656 15.9841 15.5456 15.9531 15.6202C15.9222 15.6948 15.8769 15.7626 15.8197 15.8197ZM6.77882 12.3112C7.87303 12.3112 8.94267 11.9868 9.85247 11.3789C10.7623 10.771 11.4714 9.9069 11.8901 8.89599C12.3088 7.88507 12.4184 6.77269 12.2049 5.6995C11.9915 4.62632 11.4646 3.64054 10.6908 2.86682C9.91711 2.09309 8.93133 1.56618 7.85814 1.35271C6.78496 1.13924 5.67258 1.2488 4.66166 1.66754C3.65074 2.08627 2.7867 2.79538 2.17879 3.70518C1.57088 4.61498 1.24641 5.68462 1.24641 6.77882C1.24804 8.24561 1.83144 9.65186 2.86861 10.689C3.90579 11.7262 5.31204 12.3096 6.77882 12.3112Z"/>
</svg>
