<?xml version="1.0" encoding="utf-8"?>
<svg xmlns="http://www.w3.org/2000/svg">
<symbol id="add" viewBox="0 0 24 24">
<path d="M24 13.7143H13.7143V24H10.2857V13.7143H0V10.2857H10.2857V0H13.7143V10.2857H24V13.7143Z"/>

</symbol>
<symbol id="arrow-back" viewBox="0 0 24 24">
<g clip-path="url(#clip0)">
<path d="M24 10.5H5.745L14.13 2.115L12 0L0 12L12 24L14.115 21.885L5.745 13.5H24V10.5Z"/>
</g>
<defs>
<clipPath id="clip0">
<rect width="24" height="24" fill="white"/>
</clipPath>
</defs>

</symbol>
<symbol id="arrow-forward" viewBox="0 0 24 24">
<g clip-path="url(#clip0)">
<path d="M12 0L9.885 2.115L18.255 10.5H0V13.5H18.255L9.885 21.885L12 24L24 12L12 0Z"/>
</g>
<defs>
<clipPath id="clip0">
<rect width="24" height="24" fill="white"/>
</clipPath>
</defs>

</symbol>
<symbol id="attention" viewBox="0 0 17 16">
<path fill-rule="evenodd" clip-rule="evenodd" d="M6.36656 11.9975C3.13155 11.9975 0.5 9.34649 0.5 6.0876C0.5 2.82881 3.1316 0.177734 6.36656 0.177734H10.6337C13.8686 0.177734 16.5 2.82881 16.5 6.0876C16.5 8.40676 15.1824 10.4777 13.1063 11.447L13.1171 15.3224C13.1176 15.5221 12.9999 15.7027 12.818 15.7816C12.7559 15.8086 12.6894 15.8222 12.6222 15.8222C12.496 15.8222 12.3738 15.7736 12.2813 15.685L8.43372 11.9975H6.36656Z"/>

</symbol>
<symbol id="bold-arrow-up" viewBox="0 0 32 32">
<title>bold-arrow-up</title>
<path d="M16 1l-15 15h9v16h12v-16h9z"/>

</symbol>
<symbol id="calendar" viewBox="0 0 32 32">
<title>calendar</title>
<path d="M10 12h4v4h-4zM16 12h4v4h-4zM22 12h4v4h-4zM4 24h4v4h-4zM10 24h4v4h-4zM16 24h4v4h-4zM10 18h4v4h-4zM16 18h4v4h-4zM22 18h4v4h-4zM4 18h4v4h-4zM26 0v2h-4v-2h-14v2h-4v-2h-4v32h30v-32h-4zM28 30h-26v-22h26v22z"/>

</symbol>
<symbol id="caret-down" viewBox="0 0 12 6">
<path fill-rule="evenodd" clip-rule="evenodd" d="M11.25 0.666667C11.25 0.847223 11.1851 1.00347 11.0552 1.13542L6.46143 5.80208C6.33154 5.93403 6.17774 6 6 6C5.82226 6 5.66846 5.93403 5.53857 5.80208L0.944824 1.13542C0.814941 1.00347 0.75 0.847223 0.75 0.666667C0.75 0.48611 0.814941 0.329862 0.944824 0.197917C1.07471 0.0659716 1.22851 0 1.40625 0H10.5938C10.7715 0 10.9253 0.0659716 11.0552 0.197917C11.1851 0.329862 11.25 0.48611 11.25 0.666667Z"/>
<path fill-rule="evenodd" clip-rule="evenodd" d="M11.25 0.666667C11.25 0.847223 11.1851 1.00347 11.0552 1.13542L6.46143 5.80208C6.33154 5.93403 6.17774 6 6 6C5.82226 6 5.66846 5.93403 5.53857 5.80208L0.944824 1.13542C0.814941 1.00347 0.75 0.847223 0.75 0.666667C0.75 0.48611 0.814941 0.329862 0.944824 0.197917C1.07471 0.0659716 1.22851 0 1.40625 0H10.5938C10.7715 0 10.9253 0.0659716 11.0552 0.197917C11.1851 0.329862 11.25 0.48611 11.25 0.666667Z"/>

</symbol>
<symbol id="check" viewBox="0 0 24 24">
<path d="M7.62706 17.4355L1.93746 11.7459L0 13.6697L7.62706 21.2968L24 4.92382L22.0762 3L7.62706 17.4355Z"/>

</symbol>
<symbol id="close" viewBox="0 0 24 24">
<g clip-path="url(#clip0)">
<path d="M24 2.41714L21.5829 0L12 9.58286L2.41714 0L0 2.41714L9.58286 12L0 21.5829L2.41714 24L12 14.4171L21.5829 24L24 21.5829L14.4171 12L24 2.41714Z"/>
</g>
<defs>
<clipPath id="clip0">
<rect width="24" height="24" fill="white"/>
</clipPath>
</defs>

</symbol>
<symbol id="delta-down" viewBox="0 0 24 24">
<path d="M1.61487 5H22.3851C23.822 5 24.5405 6.73556 23.5233 7.75269L13.1422 18.1419C12.5126 18.7715 11.4874 18.7715 10.8578 18.1419L0.476659 7.75269C-0.540462 6.73556 0.177981 5 1.61487 5Z"/>

</symbol>
<symbol id="delta-up" viewBox="0 0 24 24">
<path d="M22.3828 18.6107H1.61718C0.179299 18.6107 -0.540772 16.8722 0.475946 15.8555L10.8587 5.47269C11.489 4.84244 12.511 4.84244 13.1412 5.47269L23.524 15.8555C24.5408 16.8722 23.8207 18.6107 22.3828 18.6107Z"/>

</symbol>
<symbol id="download" viewBox="0 0 24 24">
<path d="M2 24H21.7647V21.1765H2V24ZM21.7647 8.47059H16.1176V0H7.64706V8.47059H2L11.8824 18.3529L21.7647 8.47059Z"/>

</symbol>
<symbol id="edit" viewBox="0 0 16 16">
<g id="edit">
<path id="&#xF0;&#x178;&#x2013;&#x8D; icon color" fill-rule="evenodd" clip-rule="evenodd" d="M9.96354 1.84117C9.94878 1.8529 9.93456 1.86558 9.92097 1.87922L0.778116 11.0545C0.766444 11.0752 0.754799 11.0947 0.743545 11.1135C0.691872 11.2002 0.64843 11.273 0.64843 11.3798L0 15.3493C0 15.5445 0 15.6747 0.129686 15.8699C0.185139 15.9187 0.336764 16 0.518744 16L4.47416 15.2842C4.49293 15.2802 4.51051 15.2769 4.52726 15.2736C4.62256 15.2553 4.69107 15.2422 4.79838 15.1541L13.9412 5.9788L13.9414 5.97422L15.3679 4.59847C16.2109 3.90443 16.2109 2.57945 15.3679 1.75922L14.2007 0.623525C13.4875 -0.196703 12.0749 -0.213285 11.232 0.606942L9.96354 1.84117ZM11.0527 2.29683L13.6534 4.908L14.6547 3.89649C15.0438 3.50605 15.0438 2.85532 14.6547 2.46489L13.4875 1.29357C13.0985 0.903137 12.4501 0.903137 12.061 1.29357L11.0527 2.29683ZM1.68584 11.7052L1.1671 14.8287L4.27956 14.3081L4.63633 13.9501L2.04261 11.3472L1.68584 11.7052ZM2.75589 10.6314L10.31 3.05053L12.9037 5.65345L5.3496 13.2343L2.75589 10.6314Z" fill="#515761"/>
</g>

</symbol>
<symbol id="ellipsis" viewBox="0 0 24 24">
<path d="M15.4839 12.4839C15.4839 14.4097 13.9258 15.9677 12 15.9677C10.0742 15.9677 8.51613 14.4097 8.51613 12.4839C8.51613 10.5581 10.0742 9 12 9C13.9258 9 15.4839 10.5581 15.4839 12.4839ZM20.5161 9C18.5903 9 17.0323 10.5581 17.0323 12.4839C17.0323 14.4097 18.5903 15.9677 20.5161 15.9677C22.4419 15.9677 24 14.4097 24 12.4839C24 10.5581 22.4419 9 20.5161 9ZM3.48387 9C1.55806 9 0 10.5581 0 12.4839C0 14.4097 1.55806 15.9677 3.48387 15.9677C5.40968 15.9677 6.96774 14.4097 6.96774 12.4839C6.96774 10.5581 5.40968 9 3.48387 9Z"/>

</symbol>
<symbol id="email" viewBox="0 0 24 24">
<path d="M21.6 2H2.4C1.08 2 0.012 3.08 0.012 4.4L0 18.8C0 20.12 1.08 21.2 2.4 21.2H21.6C22.92 21.2 24 20.12 24 18.8V4.4C24 3.08 22.92 2 21.6 2ZM21.6 6.8L12 12.8L2.4 6.8V4.4L12 10.4L21.6 4.4V6.8Z"/>

</symbol>
<symbol id="envelope" viewBox="0 0 24 24">
<path fill-rule="evenodd" clip-rule="evenodd" d="M1.76745 4H22.2093C23.3208 4 24 5.00758 24 5.78008V18.2072C24 19.241 23.077 20 22.2005 20H1.81152C0.740495 20 0 19.0409 0 18.2836V5.77288C0 4.88644 0.826009 4 1.76745 4ZM1.53918 7.38281V17.926C1.53918 18.1752 1.71744 18.3694 1.92409 18.3694H22.0756C22.2823 18.3694 22.4605 18.1752 22.4605 17.926V7.38282L13.6319 13.6025C13.1447 13.9453 12.5778 14.1251 12 14.1251C11.4222 14.1251 10.8553 13.9453 10.3679 13.6024L1.53918 7.38281ZM11.2211 12.1181L2.15859 5.73437L21.8406 5.73438L12.7784 12.1181C12.3043 12.4522 11.6952 12.4522 11.2211 12.1181Z"/>

</symbol>
<symbol id="error-alt" viewBox="0 0 16 16"><path d="m15.69,4.37L11.63.31c-.2-.2-.47-.31-.75-.31h-5.74c-.28,0-.55.11-.75.31L.31,4.37c-.2.2-.31.47-.31.75v5.74c0,.28.11.55.31.75l4.17,4.17c.13.13.31.21.5.21h5.89c.28,0,.55-.11.75-.31l4.06-4.06c.2-.2.31-.47.31-.75v-5.74c0-.28-.11-.55-.31-.75Zm-7.69,9.13c-.69,0-1.25-.56-1.25-1.25s.56-1.25,1.25-1.25,1.25.56,1.25,1.25-.56,1.25-1.25,1.25Zm1.02-3.86c0,.1-.04.18-.11.26-.07.07-.16.11-.26.11h-1.26c-.1,0-.19-.04-.26-.11-.07-.07-.11-.16-.11-.26l-.53-6.27c0-.1.04-.18.11-.26.07-.07.16-.11.26-.11h2.38c.1,0,.19.04.26.11.07.07.11.16.11.26l-.59,6.27Z"/>
</symbol>
<symbol id="error-round" viewBox="0 0 24 24">
<path d="M12 1.875C9.99747 1.875 8.0399 2.46882 6.37486 3.58137C4.70981 4.69392 3.41206 6.27523 2.64572 8.12533C1.87939 9.97543 1.67888 12.0112 2.06955 13.9753C2.46023 15.9393 3.42454 17.7435 4.84055 19.1595C6.25656 20.5755 8.06066 21.5398 10.0247 21.9305C11.9888 22.3211 14.0246 22.1206 15.8747 21.3543C17.7248 20.5879 19.3061 19.2902 20.4186 17.6251C21.5312 15.9601 22.125 14.0025 22.125 12C22.122 9.3156 21.0543 6.74199 19.1562 4.84383C17.258 2.94567 14.6844 1.87798 12 1.875ZM12 19.875C10.4425 19.875 8.91993 19.4131 7.62489 18.5478C6.32985 17.6825 5.32049 16.4526 4.72445 15.0136C4.12841 13.5747 3.97246 11.9913 4.27632 10.4637C4.58018 8.93606 5.3302 7.53287 6.43154 6.43153C7.53288 5.3302 8.93607 4.58017 10.4637 4.27632C11.9913 3.97246 13.5747 4.12841 15.0136 4.72445C16.4526 5.32049 17.6825 6.32985 18.5478 7.62488C19.4131 8.91992 19.875 10.4425 19.875 12C19.8728 14.0879 19.0424 16.0896 17.566 17.566C16.0896 19.0424 14.0879 19.8728 12 19.875ZM10.875 12.375V7.5C10.875 7.20163 10.9935 6.91548 11.2045 6.7045C11.4155 6.49353 11.7016 6.375 12 6.375C12.2984 6.375 12.5845 6.49353 12.7955 6.7045C13.0065 6.91548 13.125 7.20163 13.125 7.5V12.375C13.125 12.6734 13.0065 12.9595 12.7955 13.1705C12.5845 13.3815 12.2984 13.5 12 13.5C11.7016 13.5 11.4155 13.3815 11.2045 13.1705C10.9935 12.9595 10.875 12.6734 10.875 12.375ZM13.5 16.125C13.5 16.4217 13.412 16.7117 13.2472 16.9584C13.0824 17.205 12.8481 17.3973 12.574 17.5108C12.2999 17.6244 11.9983 17.6541 11.7074 17.5962C11.4164 17.5383 11.1491 17.3954 10.9393 17.1857C10.7296 16.9759 10.5867 16.7086 10.5288 16.4176C10.4709 16.1267 10.5007 15.8251 10.6142 15.551C10.7277 15.2769 10.92 15.0426 11.1666 14.8778C11.4133 14.713 11.7033 14.625 12 14.625C12.3978 14.625 12.7794 14.783 13.0607 15.0643C13.342 15.3456 13.5 15.7272 13.5 16.125Z" fill="#343330"/>

</symbol>
<symbol id="error" viewBox="0 0 24 24">
<path d="M12 1.875C9.99747 1.875 8.0399 2.46882 6.37486 3.58137C4.70981 4.69392 3.41206 6.27523 2.64572 8.12533C1.87939 9.97543 1.67888 12.0112 2.06955 13.9753C2.46023 15.9393 3.42454 17.7435 4.84055 19.1595C6.25656 20.5755 8.06066 21.5398 10.0247 21.9305C11.9888 22.3211 14.0246 22.1206 15.8747 21.3543C17.7248 20.5879 19.3061 19.2902 20.4186 17.6251C21.5312 15.9601 22.125 14.0025 22.125 12C22.122 9.3156 21.0543 6.74199 19.1562 4.84383C17.258 2.94567 14.6844 1.87798 12 1.875ZM12 19.875C10.4425 19.875 8.91993 19.4131 7.62489 18.5478C6.32985 17.6825 5.32049 16.4526 4.72445 15.0136C4.12841 13.5747 3.97246 11.9913 4.27632 10.4637C4.58018 8.93606 5.3302 7.53287 6.43154 6.43153C7.53288 5.3302 8.93607 4.58017 10.4637 4.27632C11.9913 3.97246 13.5747 4.12841 15.0136 4.72445C16.4526 5.32049 17.6825 6.32985 18.5478 7.62488C19.4131 8.91992 19.875 10.4425 19.875 12C19.8728 14.0879 19.0424 16.0896 17.566 17.566C16.0896 19.0424 14.0879 19.8728 12 19.875ZM10.875 12.375V7.5C10.875 7.20163 10.9935 6.91548 11.2045 6.7045C11.4155 6.49353 11.7016 6.375 12 6.375C12.2984 6.375 12.5845 6.49353 12.7955 6.7045C13.0065 6.91548 13.125 7.20163 13.125 7.5V12.375C13.125 12.6734 13.0065 12.9595 12.7955 13.1705C12.5845 13.3815 12.2984 13.5 12 13.5C11.7016 13.5 11.4155 13.3815 11.2045 13.1705C10.9935 12.9595 10.875 12.6734 10.875 12.375ZM13.5 16.125C13.5 16.4217 13.412 16.7117 13.2472 16.9584C13.0824 17.205 12.8481 17.3973 12.574 17.5108C12.2999 17.6244 11.9983 17.6541 11.7074 17.5962C11.4164 17.5383 11.1491 17.3954 10.9393 17.1857C10.7296 16.9759 10.5867 16.7086 10.5288 16.4176C10.4709 16.1267 10.5007 15.8251 10.6142 15.551C10.7277 15.2769 10.92 15.0426 11.1666 14.8778C11.4133 14.713 11.7033 14.625 12 14.625C12.3978 14.625 12.7794 14.783 13.0607 15.0643C13.342 15.3456 13.5 15.7272 13.5 16.125Z"/>

</symbol>
<symbol id="express-scripts" viewBox="0 0 45 24">
<path d="M6.5 6.03516V18.0139H15.0511V16.3152H8.33659V12.8007H13.817V11.1459H8.33659V7.68992H14.8014V6.03516H6.5Z"/>
<path d="M31.2126 7.69285H33.8132C35.6351 7.69285 36.6489 8.5422 36.6489 10.0652C36.6489 11.6614 35.6939 12.5107 33.9014 12.5107H31.2126V7.69285ZM36.4285 6.53598C35.7086 6.19916 34.8564 6.02344 33.8132 6.02344H29.3613V18.0168H31.2126V14.1508H33.9161C35.4735 14.1508 36.6636 13.7701 37.4423 12.9793C38.1476 12.2764 38.5002 11.2953 38.5002 10.0505C38.5002 8.42505 37.7802 7.19495 36.4285 6.53598Z"/>
<path d="M26.7284 6.00542L22.6974 10.0231L24.3596 11.6798L28.3907 7.66218L26.7284 6.00542Z"/>
<path d="M20.3714 12.3522L16.2988 16.4113L17.9611 18.0681L22.0337 14.009L20.3714 12.3522Z"/>
<path d="M17.9533 6L16.291 7.65676L20.2805 11.633L21.9427 9.97623L17.9533 6Z"/>
<path d="M24.4313 12.4841L22.769 14.1409L26.7169 18.0757L28.3792 16.419L24.4313 12.4841Z"/>

</symbol>
<symbol id="external-file" viewBox="0 0 12 13">
<path d="M10.6667 11.1667H1.33333V1.83333H6V0.5H1.33333C0.593333 0.5 0 1.1 0 1.83333V11.1667C0 11.9 0.593333 12.5 1.33333 12.5H10.6667C11.4 12.5 12 11.9 12 11.1667V6.5H10.6667V11.1667ZM7.33333 0.5V1.83333H9.72667L3.17333 8.38667L4.11333 9.32667L10.6667 2.77333V5.16667H12V0.5H7.33333Z"/>

</symbol>
<symbol id="facebook" viewBox="0 0 24 24">
<path d="M17.5847 13.5L18.2513 9.15656H14.0836V6.33797C14.0836 5.14969 14.6658 3.99141 16.5324 3.99141H18.4271V0.293438C18.4271 0.293438 16.7077 0 15.0638 0C11.6316 0 9.38815 2.08031 9.38815 5.84625V9.15656H5.573V13.5H9.38815V24H14.0836V13.5H17.5847Z"/>

</symbol>
<symbol id="find-drug" viewBox="0 0 24 24">
<path fill-rule="evenodd" clip-rule="evenodd" d="M16.7739 5.59104C16.7739 6.36535 16.4731 7.09165 15.9257 7.63883L12.2616 11.3031L8.16595 7.20731L11.83 3.54342C12.3774 2.99608 13.1039 2.69518 13.8779 2.69518C14.652 2.69518 15.3785 2.99607 15.9259 3.54342C16.4732 4.09087 16.7739 4.81703 16.7739 5.59104ZM3.54066 11.832L7.2047 8.16797L11.3004 12.2638L7.63627 15.9277C7.08879 16.4752 6.36243 16.7761 5.58845 16.7761C4.81446 16.7761 4.08811 16.4752 3.54062 15.9277C2.99336 15.3804 2.69238 14.6539 2.69238 13.8799C2.69238 13.1059 2.99331 12.3795 3.54066 11.832ZM13.8779 1.33594C12.7419 1.33594 11.6724 1.77895 10.869 2.58239L6.72436 6.72701L2.57995 10.8714C1.77653 11.675 1.3335 12.7443 1.3335 13.8803C1.3335 15.0163 1.77659 16.0858 2.57995 16.8892C3.38312 17.6926 4.45235 18.1354 5.58863 18.1354C6.72496 18.1354 7.79438 17.6925 8.59754 16.8892C8.59754 16.8892 12.739 12.754 12.7421 12.7448L12.7421 12.7448L12.743 12.7437L16.8867 8.59996C17.69 7.79669 18.133 6.72724 18.133 5.59128C18.133 4.45495 17.6901 3.38553 16.8867 2.58237C16.0835 1.77896 15.0141 1.33594 13.8779 1.33594ZM12.7466 12.7393L12.743 12.7437L12.7425 12.7442L12.7466 12.7393ZM12.778 12.7004C12.7742 12.7053 12.7648 12.7169 12.7466 12.7393C12.7634 12.7191 12.7721 12.7084 12.778 12.7004ZM21.214 14.1896C20.2761 13.2516 19.0278 12.7344 17.7013 12.7344C16.375 12.7344 15.1266 13.2516 14.1886 14.1896C13.2505 15.1277 12.7334 16.3758 12.7334 17.7023C12.7334 19.0287 13.2505 20.2769 14.1886 21.2149C15.1313 22.1574 16.3917 22.6677 17.7013 22.6677C19.0109 22.6677 20.2712 22.1575 21.2141 21.215C23.1511 19.2777 23.151 16.1266 21.214 14.1896ZM20.2534 20.2566C21.4875 19.0225 21.6472 17.0918 20.6879 15.6797L15.6763 20.6913C17.0884 21.6504 19.0193 21.4907 20.2534 20.2566ZM15.1498 15.1509C15.8317 14.4688 16.7369 14.0938 17.7014 14.0938C18.4328 14.0938 19.1323 14.3103 19.727 14.7159L14.7149 19.7282C14.3093 19.1335 14.0928 18.4339 14.0928 17.7026C14.0928 16.738 14.4677 15.8328 15.1497 15.151L14.9596 14.9608L15.1498 15.1509Z"/>

</symbol>
<symbol id="globe" viewBox="0 0 16 16">
<path fill-rule="evenodd" clip-rule="evenodd" d="M8 16C12.4183 16 16 12.4183 16 8C16 3.58172 12.4183 0 8 0C3.58172 0 0 3.58172 0 8C0 12.4183 3.58172 16 8 16ZM9.96661 14.4241C11.6165 13.9237 12.9965 12.8029 13.8354 11.3333H11.2975C10.9487 12.7195 10.4242 13.7362 9.96661 14.4241ZM8.11204 14.7105C8.69142 14.0313 9.43024 12.9258 9.89827 11.3333H6.10173C6.56959 12.9252 7.30805 14.0305 7.88732 14.7098C7.93218 14.7107 7.97715 14.7111 8.02222 14.7111C8.05221 14.7111 8.08215 14.7109 8.11204 14.7105ZM11.5553 10H14.4139C14.6071 9.37494 14.7111 8.71073 14.7111 8.02222C14.7111 7.31737 14.6021 6.63798 14.4 6H11.555C11.6398 6.61136 11.6889 7.27776 11.6889 8.00143C11.6889 8.72403 11.64 9.38948 11.5553 10ZM10.199 6C10.2982 6.61144 10.3556 7.27785 10.3556 8.00143C10.3556 8.72394 10.2984 9.3894 10.1995 10H5.80054C5.70165 9.3894 5.64444 8.72394 5.64444 8.00143C5.64444 7.27785 5.70182 6.61144 5.80098 6H10.199ZM11.2969 4.66667H13.8098C12.9748 3.22953 11.6198 2.13189 10.0025 1.63131C10.4511 2.31811 10.9572 3.31747 11.2969 4.66667ZM8.14947 1.33452C8.72262 2.01721 9.43951 3.10914 9.89755 4.66667H6.10245C6.56027 3.1099 7.27668 2.01828 7.84969 1.33552C7.90703 1.33406 7.96454 1.33333 8.02222 1.33333C8.06473 1.33333 8.10715 1.33373 8.14947 1.33452ZM4.31111 8.00143C4.31111 7.27776 4.36019 6.61136 4.44504 6H1.64446C1.44236 6.63798 1.33333 7.31737 1.33333 8.02222C1.33333 8.71073 1.43736 9.37494 1.63055 10H4.44467C4.36005 9.38948 4.31111 8.72403 4.31111 8.00143ZM4.70309 4.66667C5.03991 3.32892 5.54031 2.33511 5.98609 1.64888C4.39342 2.15727 3.06002 3.24612 2.23463 4.66667H4.70309ZM6.02197 14.4069C5.56711 13.7193 5.04836 12.708 4.70248 11.3333H2.20903C3.03842 12.7863 4.39684 13.8983 6.02197 14.4069Z"/>

</symbol>
<symbol id="hand-heart" viewBox="0 0 24 24">
<path fill-rule="evenodd" clip-rule="evenodd" d="M18.8633 6.37599C18.8633 4.00007 16.9586 2.06689 14.6169 2.06689C13.6521 2.06689 12.7366 2.3909 11.9886 2.99415C11.2408 2.39094 10.3251 2.06689 9.36004 2.06689C7.01834 2.06689 5.11365 4.00007 5.11365 6.37599C5.11365 7.46864 5.51888 8.51059 6.25344 9.30707C6.34663 9.40923 7.27838 10.3373 8.79443 11.8405C9.34465 12.3861 9.94116 12.977 10.5472 13.5769L11.568 14.5871C11.6819 14.6997 11.8324 14.7606 11.9886 14.7606C12.1447 14.7606 12.295 14.6998 12.4089 14.5871L13.4298 13.577C14.0373 12.9756 14.6328 12.3857 15.1824 11.8409C16.6989 10.3374 17.6297 9.41039 17.7224 9.30867C18.458 8.51064 18.8633 7.46882 18.8633 6.37599ZM17.6595 6.37603C17.6595 7.15902 17.3691 7.90502 16.8411 8.47811C16.7113 8.61872 14.6385 10.6761 11.9887 13.2983C9.33771 10.675 7.26583 8.61846 7.13464 8.47643C6.60784 7.90485 6.3176 7.15879 6.3176 6.37603C6.3176 4.67249 7.68278 3.28677 9.36014 3.28677C10.1933 3.28677 10.9707 3.62382 11.5503 4.23657C11.7786 4.47775 12.1986 4.47765 12.427 4.23662C13.0068 3.62395 13.7842 3.28677 14.617 3.28677C16.2943 3.28677 17.6595 4.67249 17.6595 6.37603Z"/>
<path fill-rule="evenodd" clip-rule="evenodd" d="M1.93161 5.6856C2.31754 5.70342 2.68601 5.8379 2.98255 6.16806C3.35404 6.58167 3.54636 7.22971 3.54671 8.14149C3.5469 8.61064 3.54749 8.97662 3.54876 9.54947L3.54989 10.0687C3.55144 10.8491 3.55127 11.4775 3.54848 12.3103C3.60735 12.2143 3.67628 12.1191 3.75528 12.0247C4.1594 11.6181 4.65803 11.4673 5.11039 11.6081C5.46132 11.7173 5.71276 11.9047 6.19135 12.3557C6.31595 12.4775 6.68621 12.8237 7.05785 13.1712C7.40791 13.4986 7.75921 13.8271 7.90759 13.9702C8.2716 14.3213 8.5854 14.64 8.86943 14.9511C9.97137 16.1582 10.5701 17.1726 10.6366 18.2185L10.638 18.7353C10.6391 19.1903 10.6396 19.65 10.6394 20.079C10.6389 20.9361 10.6354 21.5452 10.6279 21.8047C10.6187 22.0995 10.3772 22.3337 10.0827 22.3335H5.45546C5.15426 22.3335 4.91009 22.0891 4.91007 21.7876V20.6296L0.447721 15.635L0.266275 15.3786C0.22202 15.2877 0.192818 15.1806 0.160963 15.0296C0.121543 14.8428 0.0930125 14.6161 0.0706823 14.3291C0.0326036 13.8398 0.0141141 13.2037 0.0102116 12.3903C0.00847483 12.0283 0.00907258 11.6465 0.0115811 11.1268L0.0137272 10.7164C0.0214539 9.2968 0.0203448 8.73215 0.00182946 8.159C-0.0453225 6.6994 0.824869 5.63441 1.93161 5.6856ZM4.51606 15.0669C4.3093 14.848 4.09273 14.6461 3.84355 14.4345C3.74788 14.3532 3.65217 14.2744 3.52849 14.1744C3.5729 14.2103 3.30164 13.9916 3.23777 13.9393C3.00267 13.7468 2.86513 13.6216 2.7432 13.4792C2.56095 13.2663 2.45494 13.0325 2.45601 12.7716C2.46044 11.6918 2.46101 10.986 2.4592 10.0716L2.45806 9.54983C2.45678 8.9784 2.4562 8.61178 2.45601 8.14176C2.45576 7.47858 2.34123 7.08322 2.17654 6.89986C2.09231 6.80608 2.0282 6.78324 1.88955 6.77683C1.44592 6.75629 1.06349 7.22619 1.09251 8.1243C1.11188 8.72388 1.113 9.30196 1.10492 10.733L1.10319 11.045C1.10017 11.6179 1.09935 12.0099 1.10117 12.3877C1.10542 13.2744 1.11837 13.8187 1.15148 14.2441C1.16941 14.4746 1.19517 14.6736 1.22311 14.806C1.22647 14.8219 1.23141 14.8376 1.23774 14.8532C1.24267 14.8654 1.24765 14.8759 1.25554 14.8911L1.27086 14.9111C1.27976 14.9226 1.28178 14.9252 1.28305 14.9298L5.86459 20.0547C5.95577 20.1581 6.00449 20.2922 6.00103 20.423V21.2417H9.54044C9.54389 20.8489 9.54576 20.2734 9.54634 19.5772C9.5466 19.2566 9.54653 18.8891 9.54648 18.624L9.5465 18.2749C9.49133 17.5631 8.96276 16.6775 8.05785 15.6862C7.75887 15.3587 7.42297 15.0197 7.01589 14.6296C6.92656 14.544 6.69786 14.3294 6.43896 14.0864C6.0513 13.7227 5.59545 13.2949 5.4391 13.1422C5.13561 12.8562 4.90412 12.6863 4.78665 12.6498C4.70677 12.6249 4.70462 12.6256 4.59067 12.7353C4.57716 12.7499 4.57094 12.7566 4.56656 12.761C4.39746 12.9693 4.34462 13.0959 4.35469 13.1858C4.36683 13.2943 4.48781 13.4846 4.75581 13.7588L4.85584 13.8617C4.9356 13.9438 5.03812 14.0492 5.07886 14.0908C5.15928 14.1727 5.22942 14.243 5.28122 14.2947C5.30591 14.3154 5.32873 14.3382 5.3307 14.3427C5.39749 14.4079 5.46152 14.4699 5.56593 14.5706C5.93772 14.9293 6.06585 15.0549 6.24401 15.2394C6.3007 15.298 6.35446 15.3549 6.40771 15.4126C6.53937 15.5582 6.5831 15.7632 6.5223 15.9499C6.46152 16.1366 6.30552 16.2765 6.11344 16.3165C5.92136 16.3565 5.72258 16.2905 5.5962 16.1478C5.34823 15.8793 5.09497 15.6254 4.60051 15.1426C4.56718 15.1186 4.53764 15.0919 4.51606 15.0669Z"/>
<path fill-rule="evenodd" clip-rule="evenodd" d="M20.4512 9.54957L20.4501 10.0688C20.4485 10.8486 20.4487 11.4767 20.4515 12.3086C20.3946 12.216 20.3286 12.1247 20.2535 12.0348C20.2381 12.0181 20.232 12.0115 20.2257 12.0053L20.2106 11.9909C19.8406 11.6181 19.342 11.4674 18.8896 11.6082C18.5386 11.7174 18.2872 11.9048 17.8122 12.3524C17.6855 12.4761 17.3128 12.8246 16.9399 13.1733C16.5903 13.5003 16.2404 13.8275 16.0924 13.9703C15.7284 14.3213 15.4146 14.6401 15.1305 14.9512C14.0286 16.1583 13.4298 17.1727 13.3634 18.2354L13.3619 18.7352C13.3609 19.1903 13.3603 19.65 13.3606 20.0791C13.3611 20.9362 13.3646 21.5453 13.372 21.8041C13.3813 22.0996 13.6228 22.3337 13.9174 22.3336H18.5445C18.8457 22.3336 19.0899 22.0892 19.0899 21.7877V20.6297L23.5778 15.6094L23.7337 15.3787C23.7779 15.2877 23.8072 15.1806 23.839 15.0296C23.8784 14.8429 23.907 14.6161 23.9293 14.3292C23.9674 13.8398 23.9859 13.2038 23.9898 12.3903C23.9915 12.0284 23.9909 11.6465 23.9884 11.1269L23.9862 10.7164C23.9785 9.29684 23.9796 8.73219 23.9981 8.15906C24.0453 6.69946 23.1751 5.63446 22.0683 5.68561C21.6824 5.70349 21.3139 5.83796 21.0174 6.16812C20.6459 6.58174 20.4536 7.22978 20.4533 8.14156C20.4531 8.61071 20.4525 8.9767 20.4512 9.54957ZM22.7768 14.8059C22.7733 14.8225 22.7684 14.8386 22.7623 14.8545C22.757 14.8685 22.752 14.8795 22.7403 14.9037L18.1365 20.0534C18.0441 20.1582 17.9954 20.2923 17.9989 20.4301L17.9989 21.2418H14.4595C14.456 20.849 14.4541 20.2734 14.4536 19.5772C14.4531 19.0434 14.4536 18.3767 14.454 18.2398C14.5031 17.5722 15.0325 16.6826 15.942 15.6862C16.241 15.3587 16.5769 15.0197 16.984 14.6296C17.1107 14.5082 17.5189 14.1262 17.8972 13.7722C18.1301 13.5542 18.352 13.3466 18.4904 13.2164L18.5691 13.1424C18.8783 12.8517 19.1024 12.6843 19.2132 12.6498C19.2931 12.6249 19.2953 12.6256 19.448 12.7753C19.6005 12.9648 19.6554 13.0943 19.6452 13.1858C19.6331 13.2943 19.5121 13.4846 19.2441 13.7588L19.1441 13.8617C19.0643 13.9437 18.9618 14.0492 18.921 14.0908C18.8406 14.1727 18.7705 14.243 18.7032 14.3087L18.6944 14.317C18.6904 14.3209 18.6866 14.325 18.6762 14.3359L18.4416 14.5626C18.0326 14.9572 17.8828 15.1047 17.6859 15.3123C17.6544 15.3455 17.6238 15.3781 17.5941 15.4104C17.4605 15.558 17.4168 15.763 17.4776 15.9498C17.5384 16.1365 17.6944 16.2764 17.8864 16.3164C18.0785 16.3564 18.2773 16.2904 18.4075 16.1435C18.6536 15.8771 18.906 15.624 19.4087 15.1331C19.436 15.1132 19.4613 15.0907 19.4845 15.0661C19.6906 14.8479 19.9072 14.6459 20.1563 14.4343C20.252 14.3531 20.3477 14.2743 20.4714 14.1743C20.427 14.2102 20.6982 13.9914 20.7621 13.9391C20.9972 13.7466 21.1348 13.6215 21.2567 13.479C21.4389 13.2661 21.5449 13.0324 21.5439 12.7715C21.5394 11.6917 21.5389 10.9859 21.5407 10.0714L21.5418 9.5497C21.5431 8.97827 21.5437 8.61165 21.5439 8.14163C21.5441 7.47845 21.6586 7.0831 21.8234 6.89972C21.9036 6.81034 21.9656 6.7854 22.1103 6.77683C22.554 6.7563 22.9364 7.22619 22.9074 8.1243C22.888 8.72381 22.8869 9.30178 22.895 10.7326L22.8967 11.0452C22.8997 11.6179 22.9005 12.0099 22.8987 12.3877C22.8945 13.2743 22.8815 13.8186 22.8484 14.2441C22.8305 14.4745 22.8047 14.6735 22.7768 14.8059Z"/>

</symbol>
<symbol id="help" viewBox="0 0 24 24">
<path d="M13.5 16.875C13.5 17.1717 13.412 17.4617 13.2472 17.7084C13.0824 17.955 12.8481 18.1473 12.574 18.2608C12.2999 18.3744 11.9983 18.4041 11.7074 18.3462C11.4164 18.2883 11.1491 18.1454 10.9393 17.9357C10.7296 17.7259 10.5867 17.4586 10.5288 17.1676C10.4709 16.8767 10.5007 16.5751 10.6142 16.301C10.7277 16.0269 10.92 15.7926 11.1666 15.6278C11.4133 15.463 11.7033 15.375 12 15.375C12.3978 15.375 12.7794 15.533 13.0607 15.8143C13.342 16.0956 13.5 16.4772 13.5 16.875ZM22.125 12C22.125 14.0025 21.5312 15.9601 20.4186 17.6251C19.3061 19.2902 17.7248 20.5879 15.8747 21.3543C14.0246 22.1206 11.9888 22.3211 10.0247 21.9305C8.06066 21.5398 6.25656 20.5755 4.84055 19.1595C3.42454 17.7435 2.46023 15.9393 2.06955 13.9753C1.67888 12.0112 1.87939 9.97543 2.64572 8.12533C3.41206 6.27523 4.70981 4.69392 6.37486 3.58137C8.0399 2.46882 9.99747 1.875 12 1.875C14.6844 1.87798 17.258 2.94567 19.1562 4.84383C21.0543 6.74199 22.122 9.3156 22.125 12ZM19.875 12C19.875 10.4425 19.4131 8.91992 18.5478 7.62488C17.6825 6.32985 16.4526 5.32049 15.0136 4.72445C13.5747 4.12841 11.9913 3.97246 10.4637 4.27632C8.93607 4.58017 7.53288 5.3302 6.43154 6.43153C5.3302 7.53287 4.58018 8.93606 4.27632 10.4637C3.97246 11.9913 4.12841 13.5747 4.72445 15.0136C5.32049 16.4526 6.32985 17.6825 7.62489 18.5478C8.91993 19.4131 10.4425 19.875 12 19.875C14.0879 19.8728 16.0896 19.0424 17.566 17.566C19.0424 16.0896 19.8728 14.0879 19.875 12ZM12 6C9.72563 6 7.875 7.68188 7.875 9.75V10.125C7.875 10.4234 7.99353 10.7095 8.20451 10.9205C8.41549 11.1315 8.70164 11.25 9 11.25C9.29837 11.25 9.58452 11.1315 9.7955 10.9205C10.0065 10.7095 10.125 10.4234 10.125 10.125V9.75C10.125 8.92313 10.9688 8.25 12 8.25C13.0313 8.25 13.875 8.92313 13.875 9.75C13.875 10.5769 13.0313 11.25 12 11.25C11.7016 11.25 11.4155 11.3685 11.2045 11.5795C10.9935 11.7905 10.875 12.0766 10.875 12.375V13.125C10.8743 13.4029 10.9766 13.6713 11.162 13.8783C11.3475 14.0854 11.603 14.2164 11.8793 14.2462C12.1557 14.276 12.4333 14.2025 12.6586 14.0398C12.8839 13.8771 13.0411 13.6367 13.0997 13.365C14.8416 12.9262 16.125 11.4722 16.125 9.75C16.125 7.68188 14.2744 6 12 6Z"/>

</symbol>
<symbol id="info" viewBox="0 0 24 24">
<path d="M12 21.75C10.0716 21.75 8.18657 21.1782 6.58319 20.1068C4.97982 19.0355 3.73013 17.5127 2.99218 15.7312C2.25422 13.9496 2.06114 11.9892 2.43735 10.0979C2.81355 8.20655 3.74215 6.46927 5.10571 5.10571C6.46928 3.74215 8.20656 2.81355 10.0979 2.43734C11.9892 2.06114 13.9496 2.25422 15.7312 2.99218C17.5127 3.73013 19.0355 4.97981 20.1068 6.58319C21.1782 8.18657 21.75 10.0716 21.75 12C21.7473 14.585 20.7192 17.0634 18.8913 18.8913C17.0634 20.7192 14.585 21.7473 12 21.75ZM11.25 16.5C11.25 16.6989 11.329 16.8897 11.4697 17.0303C11.6103 17.171 11.8011 17.25 12 17.25C12.1989 17.25 12.3897 17.171 12.5303 17.0303C12.671 16.8897 12.75 16.6989 12.75 16.5V11.25C12.75 11.0511 12.671 10.8603 12.5303 10.7197C12.3897 10.579 12.1989 10.5 12 10.5C11.8011 10.5 11.6103 10.579 11.4697 10.7197C11.329 10.8603 11.25 11.0511 11.25 11.25V16.5ZM12 6.75C11.7775 6.75 11.56 6.81598 11.375 6.9396C11.19 7.06321 11.0458 7.23891 10.9606 7.44448C10.8755 7.65005 10.8532 7.87625 10.8966 8.09448C10.94 8.3127 11.0472 8.51316 11.2045 8.67049C11.3618 8.82783 11.5623 8.93498 11.7805 8.97838C11.9988 9.02179 12.225 8.99951 12.4305 8.91436C12.6361 8.82922 12.8118 8.68502 12.9354 8.50002C13.059 8.31501 13.125 8.0975 13.125 7.875C13.125 7.57663 13.0065 7.29048 12.7955 7.07951C12.5845 6.86853 12.2984 6.75 12 6.75Z"/>

</symbol>
<symbol id="instagram" viewBox="0 0 24 24">
<g clip-path="url(#clip0)">
<path d="M11.9998 0C13.6248 0 14.6951 0.004 15.2106 0.012C15.7261 0.02 16.3043 0.0395 16.9453 0.0705C17.5863 0.1015 18.1371 0.164 18.5976 0.258C19.0581 0.352 19.4761 0.477 19.8516 0.633C20.2581 0.7895 20.6331 0.977 20.9766 1.1955C21.3201 1.414 21.6561 1.6875 21.9846 2.016C22.3131 2.3445 22.5866 2.6805 22.8051 3.024C23.0236 3.3675 23.2111 3.7425 23.3676 4.149C23.5241 4.524 23.6491 4.942 23.7426 5.403C23.8361 5.864 23.8986 6.41475 23.9301 7.05525C23.9616 7.69575 23.9811 8.274 23.9886 8.79C23.9961 9.306 24.0001 10.3762 24.0006 12.0007C24.0011 13.6252 23.9971 14.6955 23.9886 15.2115C23.9801 15.7275 23.9606 16.3057 23.9301 16.9462C23.8996 17.5868 23.8371 18.1375 23.7426 18.5985C23.6481 19.0595 23.5231 19.4775 23.3676 19.8525C23.2111 20.259 23.0236 20.634 22.8051 20.9775C22.5866 21.321 22.3131 21.657 21.9846 21.9855C21.6561 22.314 21.3201 22.5875 20.9766 22.806C20.6331 23.0245 20.2581 23.212 19.8516 23.3685C19.4766 23.525 19.0586 23.65 18.5976 23.7435C18.1366 23.837 17.5858 23.8995 16.9453 23.931C16.3048 23.9625 15.7266 23.982 15.2106 23.9895C14.6946 23.997 13.6243 24.001 11.9998 24.0015C10.3753 24.002 9.30507 23.998 8.78907 23.9895C8.27307 23.981 7.69482 23.9615 7.05432 23.931C6.41382 23.9005 5.86307 23.838 5.40207 23.7435C4.94107 23.649 4.52307 23.524 4.14807 23.3685C3.74157 23.212 3.36657 23.0245 3.02307 22.806C2.67957 22.5875 2.34356 22.314 2.01507 21.9855C1.68657 21.657 1.41307 21.321 1.19457 20.9775C0.976065 20.634 0.788565 20.259 0.632065 19.8525C0.475565 19.4775 0.350565 19.0595 0.257065 18.5985C0.163565 18.1375 0.101065 17.5868 0.0695651 16.9462C0.0380651 16.3057 0.0185651 15.7275 0.0110651 15.2115C0.0035651 14.6955 -0.000434896 13.6252 -0.000934896 12.0007C-0.0014349 10.3762 0.0025651 9.306 0.0110651 8.79C0.0195651 8.274 0.0390651 7.69575 0.0695651 7.05525C0.100065 6.41475 0.162565 5.864 0.257065 5.403C0.351565 4.942 0.476565 4.524 0.632065 4.149C0.788565 3.7425 0.976065 3.3675 1.19457 3.024C1.41307 2.6805 1.68657 2.3445 2.01507 2.016C2.34356 1.6875 2.67957 1.414 3.02307 1.1955C3.36657 0.977 3.74157 0.7895 4.14807 0.633C4.52307 0.4765 4.94107 0.3515 5.40207 0.258C5.86307 0.1645 6.41382 0.102 7.05432 0.0705C7.69482 0.039 8.27307 0.0195 8.78907 0.012C9.30507 0.0045 10.3753 0.0005 11.9998 0V0ZM11.9998 2.15625C10.3903 2.15625 9.33957 2.16025 8.84756 2.16825C8.35557 2.17625 7.78907 2.19575 7.14807 2.22675C6.57007 2.25825 6.10907 2.31675 5.76507 2.40225C5.42106 2.48775 5.13981 2.56975 4.92132 2.64825C4.63981 2.75775 4.39382 2.88275 4.18332 3.02325C3.97282 3.16375 3.75807 3.33575 3.53907 3.53925C3.33607 3.75825 3.16407 3.973 3.02307 4.1835C2.88207 4.394 2.75707 4.64 2.64807 4.9215C2.57007 5.1405 2.48807 5.42175 2.40207 5.76525C2.31607 6.10875 2.25757 6.56975 2.22657 7.14825C2.19507 7.78875 2.17557 8.35525 2.16807 8.84775C2.16057 9.34025 2.15656 10.391 2.15606 12C2.15557 13.609 2.15956 14.6597 2.16807 15.1522C2.17657 15.6447 2.19607 16.2113 2.22657 16.8517C2.25807 17.4298 2.31657 17.8907 2.40207 18.2347C2.48757 18.5788 2.56957 18.86 2.64807 19.0785C2.75757 19.36 2.88257 19.606 3.02307 19.8165C3.16357 20.027 3.33557 20.2418 3.53907 20.4608C3.75807 20.6637 3.97282 20.8358 4.18332 20.9767C4.39382 21.1178 4.63981 21.2428 4.92132 21.3517C5.14032 21.4298 5.42157 21.5118 5.76507 21.5978C6.10856 21.6838 6.56957 21.7423 7.14807 21.7733C7.78857 21.8048 8.35507 21.8242 8.84756 21.8317C9.34007 21.8392 10.3908 21.8433 11.9998 21.8438C13.6088 21.8442 14.6596 21.8403 15.1521 21.8317C15.6446 21.8232 16.2111 21.8038 16.8516 21.7733C17.4296 21.7418 17.8906 21.6833 18.2346 21.5978C18.5786 21.5123 18.8598 21.4303 19.0783 21.3517C19.3598 21.2423 19.6058 21.1173 19.8163 20.9767C20.0268 20.8363 20.2416 20.6642 20.4606 20.4608C20.6636 20.2418 20.8356 20.027 20.9766 19.8165C21.1176 19.606 21.2426 19.36 21.3516 19.0785C21.4296 18.8595 21.5116 18.5782 21.5976 18.2347C21.6836 17.8913 21.7421 17.4303 21.7731 16.8517C21.8046 16.2113 21.8241 15.6447 21.8316 15.1522C21.8391 14.6597 21.8431 13.609 21.8436 12C21.8441 10.391 21.8401 9.34025 21.8316 8.84775C21.8231 8.35525 21.8036 7.78875 21.7731 7.14825C21.7416 6.57025 21.6831 6.10925 21.5976 5.76525C21.5121 5.42125 21.4301 5.14 21.3516 4.9215C21.2421 4.64 21.1171 4.394 20.9766 4.1835C20.8361 3.973 20.6641 3.75825 20.4606 3.53925C20.2416 3.33625 20.0268 3.16425 19.8163 3.02325C19.6058 2.88225 19.3598 2.75725 19.0783 2.64825C18.8593 2.57025 18.5781 2.48825 18.2346 2.40225C17.8911 2.31625 17.4301 2.25775 16.8516 2.22675C16.2111 2.19525 15.6446 2.17575 15.1521 2.16825C14.6596 2.16075 13.6088 2.15675 11.9998 2.15625ZM11.9998 5.83575C12.8438 5.83575 13.6408 5.99975 14.3908 6.32775C15.1408 6.64025 15.7971 7.07775 16.3596 7.64025C16.9221 8.20275 17.3596 8.859 17.6721 9.609C18.0001 10.359 18.1641 11.156 18.1641 12C18.1641 12.844 18.0001 13.641 17.6721 14.391C17.3596 15.141 16.9221 15.7972 16.3596 16.3597C15.7971 16.9222 15.1408 17.3598 14.3908 17.6722C13.6408 18.0002 12.8438 18.1642 11.9998 18.1642C11.1558 18.1642 10.3588 18.0002 9.60882 17.6722C8.85882 17.3598 8.20257 16.9222 7.64007 16.3597C7.07757 15.7972 6.64007 15.141 6.32757 14.391C5.99957 13.641 5.83557 12.844 5.83557 12C5.83557 11.156 5.99957 10.359 6.32757 9.609C6.64007 8.859 7.07757 8.20275 7.64007 7.64025C8.20257 7.07775 8.85882 6.64025 9.60882 6.32775C10.3588 5.99975 11.1558 5.83575 11.9998 5.83575ZM11.9998 16.008C13.1093 16.008 14.0546 15.6173 14.8356 14.8358C15.6166 14.0542 16.0073 13.109 16.0078 12C16.0083 10.891 15.6176 9.94575 14.8356 9.16425C14.0536 8.38275 13.1083 7.992 11.9998 7.992C10.8913 7.992 9.94606 8.38275 9.16407 9.16425C8.38206 9.94575 7.99132 10.891 7.99182 12C7.99232 13.109 8.38307 14.0542 9.16407 14.8358C9.94507 15.6173 10.8903 16.008 11.9998 16.008ZM19.8516 5.60175C19.8516 5.99225 19.7108 6.32825 19.4293 6.60975C19.1478 6.89125 18.8041 7.032 18.3981 7.032C18.0076 7.032 17.6716 6.89125 17.3901 6.60975C17.1086 6.32825 16.9678 5.99225 16.9678 5.60175C16.9678 5.19525 17.1086 4.8515 17.3901 4.5705C17.6716 4.2895 18.0076 4.14875 18.3981 4.14825C18.8046 4.14825 19.1483 4.289 19.4293 4.5705C19.7103 4.852 19.8511 5.19575 19.8516 5.60175Z"/>
</g>
<defs>
<clipPath id="clip0">
<rect width="24" height="24" fill="white"/>
</clipPath>
</defs>

</symbol>
<symbol id="keyboard-arrow-down" viewBox="0 0 24 24">
<path d="M2.82 5L12 14.16L21.18 5L24 7.82L12 19.82L0 7.82L2.82 5Z"/>

</symbol>
<symbol id="keyboard-arrow-left" viewBox="0 0 24 24">
<path d="M19 21.18L9.84 12L19 2.82L16.18 0L4.18 12L16.18 24L19 21.18Z"/>

</symbol>
<symbol id="keyboard-arrow-right" viewBox="0 0 24 24">
<path d="M5 21.18L14.16 12L5 2.82L7.82 0L19.82 12L7.82 24L5 21.18Z"/>

</symbol>
<symbol id="keyboard-arrow-up" viewBox="0 0 24 24">
<path d="M2.82 19.82L12 10.66L21.18 19.82L24 17L12 5.00001L0 17L2.82 19.82Z"/>

</symbol>
<symbol id="language" viewBox="0 0 24 24">
<path d="M11.988 0C5.364 0 0 5.376 0 12C0 18.624 5.364 24 11.988 24C18.624 24 24 18.624 24 12C24 5.376 18.624 0 11.988 0ZM20.304 7.2H16.764C16.38 5.7 15.828 4.26 15.108 2.928C17.316 3.684 19.152 5.22 20.304 7.2ZM12 2.448C12.996 3.888 13.776 5.484 14.292 7.2H9.708C10.224 5.484 11.004 3.888 12 2.448ZM2.712 14.4C2.52 13.632 2.4 12.828 2.4 12C2.4 11.172 2.52 10.368 2.712 9.6H6.768C6.672 10.392 6.6 11.184 6.6 12C6.6 12.816 6.672 13.608 6.768 14.4H2.712ZM3.696 16.8H7.236C7.62 18.3 8.172 19.74 8.892 21.072C6.684 20.316 4.848 18.792 3.696 16.8ZM7.236 7.2H3.696C4.848 5.208 6.684 3.684 8.892 2.928C8.172 4.26 7.62 5.7 7.236 7.2ZM12 21.552C11.004 20.112 10.224 18.516 9.708 16.8H14.292C13.776 18.516 12.996 20.112 12 21.552ZM14.808 14.4H9.192C9.084 13.608 9 12.816 9 12C9 11.184 9.084 10.38 9.192 9.6H14.808C14.916 10.38 15 11.184 15 12C15 12.816 14.916 13.608 14.808 14.4ZM15.108 21.072C15.828 19.74 16.38 18.3 16.764 16.8H20.304C19.152 18.78 17.316 20.316 15.108 21.072ZM17.232 14.4C17.328 13.608 17.4 12.816 17.4 12C17.4 11.184 17.328 10.392 17.232 9.6H21.288C21.48 10.368 21.6 11.172 21.6 12C21.6 12.828 21.48 13.632 21.288 14.4H17.232Z"/>

</symbol>
<symbol id="light-bulb" viewBox="0 0 24 24">
<path d="M9.42857 21.15C9.42857 21.6175 9.81429 22 10.2857 22H13.7143C14.1857 22 14.5714 21.6175 14.5714 21.15V20.3H9.42857V21.15ZM12 5C8.69143 5 6 7.669 6 10.95C6 12.973 7.02 14.7495 8.57143 15.829V17.75C8.57143 18.2175 8.95714 18.6 9.42857 18.6H14.5714C15.0429 18.6 15.4286 18.2175 15.4286 17.75V15.829C16.98 14.7495 18 12.973 18 10.95C18 7.669 15.3086 5 12 5ZM14.4429 14.435L13.7143 14.945V16.9H10.2857V14.945L9.55714 14.435C8.4 13.636 7.71429 12.3355 7.71429 10.95C7.71429 8.604 9.63429 6.7 12 6.7C14.3657 6.7 16.2857 8.604 16.2857 10.95C16.2857 12.3355 15.6 13.636 14.4429 14.435Z" fill="#2D2D2D"/>
<path d="M11 4H13V1H11V4Z" fill="#2D2D2D"/>
<path d="M19 12H22V10H19V12Z" fill="#2D2D2D"/>
<path d="M2 12H5V10H2V12Z" fill="#2D2D2D"/>
<path d="M6.6988 6.60573L8.10593 5.1986L5.98463 3.0773L4.5775 4.48443L6.6988 6.60573Z" fill="#2D2D2D"/>
<path d="M17.2945 6.6128L19.4158 4.4915L18.0087 3.08437L15.8874 5.20567L17.2945 6.6128Z" fill="#2D2D2D"/>

</symbol>
<symbol id="linkedin" viewBox="0 0 24 24">
<path d="M5.37214 23.9999H0.396429V7.97672H5.37214V23.9999ZM2.88161 5.79101C1.29054 5.79101 0 4.47315 0 2.88208C1.13882e-08 2.11783 0.303597 1.38488 0.844003 0.844476C1.38441 0.30407 2.11736 0.000473022 2.88161 0.000473022C3.64586 0.000473022 4.3788 0.30407 4.91921 0.844476C5.45962 1.38488 5.76321 2.11783 5.76321 2.88208C5.76321 4.47315 4.47214 5.79101 2.88161 5.79101ZM23.9946 23.9999H19.0296V16.1999C19.0296 14.341 18.9921 11.9571 16.4427 11.9571C13.8557 11.9571 13.4593 13.9767 13.4593 16.066V23.9999H8.48893V7.97672H13.2611V10.1624H13.3307C13.995 8.90351 15.6177 7.57494 18.0386 7.57494C23.0743 7.57494 24 10.891 24 15.1982V23.9999H23.9946Z"/>

</symbol>
<symbol id="location-on" viewBox="0 0 24 24">
<path d="M12.4 0C7.756 0 4 3.756 4 8.4C4 14.7 12.4 24 12.4 24C12.4 24 20.8 14.7 20.8 8.4C20.8 3.756 17.044 0 12.4 0ZM12.4 11.4C10.744 11.4 9.4 10.056 9.4 8.4C9.4 6.744 10.744 5.4 12.4 5.4C14.056 5.4 15.4 6.744 15.4 8.4C15.4 10.056 14.056 11.4 12.4 11.4Z"/>

</symbol>
<symbol id="menu" viewBox="0 0 24 24">
<path d="M0 20H24V17.3333H0V20ZM0 13.3333H24V10.6667H0V13.3333ZM0 4V6.66667H24V4H0Z"/>

</symbol>
<symbol id="minus" viewBox="0 0 16 16">
<path d="M0 6.5v3c0 0.276 0.224 0.5 0.5 0.5h15c0.276 0 0.5-0.224 0.5-0.5v-3c0-0.276-0.224-0.5-0.5-0.5h-15c-0.276 0-0.5 0.224-0.5 0.5z"/>

</symbol>
<symbol id="neutral" viewBox="0 0 15 16">
<path fill-rule="evenodd" clip-rule="evenodd" d="M11.0063 8.25944C13.2363 8.85249 14.7361 10.8239 14.7361 13.1599V15.456C14.7361 15.7564 14.4926 16 14.1922 16H1.11033C0.809926 16 0.566406 15.7564 0.566406 15.456V13.1599C0.566406 10.8239 2.0662 8.8525 4.29604 8.25944L4.78957 8.1282C5.00405 8.07145 5.13952 8.10421 5.79489 8.33238C6.71562 8.65309 7.22051 8.79235 7.64985 8.79235C8.07878 8.79235 8.58343 8.65326 9.50491 8.33269C10.1625 8.10397 10.2988 8.07105 10.5131 8.12827L11.0063 8.25944ZM7.64965 7.29968C5.6371 7.29968 4.00014 5.66267 4.00014 3.65001C4.00014 1.63717 5.6371 0 7.64965 0C9.66254 0 11.2998 1.63718 11.2998 3.65001C11.2998 5.66267 9.66254 7.29968 7.64965 7.29968Z"/>

</symbol>
<symbol id="new-rx-icon" viewBox="0 0 50 56">
<g id="New Rx Icon">
<g id="Group 4">
<g id="Group">
<path id="Path" fill-rule="evenodd" clip-rule="evenodd" d="M8.10358 29.5645C11.3937 29.5645 17.9739 29.5645 17.9739 29.5645C19.3284 29.5645 19.6399 29.918 19.6399 31.4546V43.6501C19.6399 45.1854 19.3284 45.5384 17.9739 45.5384H16.0057H7.96484L8.00526 47.3086H15.1933H17.9739C20.2188 47.3086 21.2642 46.1458 21.2642 43.6501V31.4546C21.2642 28.9576 20.2188 27.7944 17.9739 27.7944C17.9739 27.7944 11.4107 27.7944 8.12906 27.7944C7.95809 27.7944 7.98946 29.5645 8.10358 29.5645Z" fill="#515761"/>
<path id="Path_2" fill-rule="evenodd" clip-rule="evenodd" d="M24.8303 25.414V48.8859C24.8303 50.2405 24.4769 50.552 22.9404 50.552H10.746C9.21094 50.552 8.8579 50.2405 8.8579 48.8859V46.9175V28.3328V25.414C8.8579 24.9649 8.46168 24.6016 7.9729 24.6016C7.48412 24.6016 7.08789 24.9649 7.08789 25.414V29.1449V46.105V48.8859C7.08789 51.131 8.25056 52.1765 10.746 52.1765H22.9404C25.4372 52.1765 26.6004 51.131 26.6004 48.8859V25.414C26.6004 24.9649 26.2041 24.6016 25.7153 24.6016C25.2266 24.6016 24.8303 24.9649 24.8303 25.414Z" fill="#515761"/>
<path id="Fill 3" fill-rule="evenodd" clip-rule="evenodd" d="M6.08655 21.7679H27.4565V17.4297H6.08655V21.7679ZM28.3058 15.6055H5.23774C4.76881 15.6055 4.38867 16.0129 4.38867 16.5166V22.6766C4.38867 23.1798 4.76881 23.5877 5.23774 23.5877H28.3058C28.7743 23.5877 29.1545 23.1798 29.1545 22.6766V16.5166C29.1545 16.0129 28.7743 15.6055 28.3058 15.6055Z" fill="#515761"/>
</g>
<g id="Group 3">
<path id="Oval" d="M43.8687 17.3353C43.8687 24.4211 38.1056 30.1706 30.99 30.1706C23.8743 30.1706 18.1113 24.4211 18.1113 17.3353C18.1113 10.2495 23.8743 4.5 30.99 4.5C38.1056 4.5 43.8687 10.2495 43.8687 17.3353Z" fill="#F8F8F9" stroke="#515761" stroke-width="2"/>
<path id="&#xF0;&#x178;&#x2013;&#x8D; expand icon color" fill-rule="evenodd" clip-rule="evenodd" d="M29.8235 16.1726V11.5809C29.8235 10.9386 30.3458 10.418 30.9901 10.418C31.6344 10.418 32.1567 10.9386 32.1567 11.5809V16.1726H36.7629C37.4072 16.1726 37.9294 16.6933 37.9294 17.3356C37.9294 17.9779 37.4072 18.4986 36.7629 18.4986H32.1567V23.0903C32.1567 23.7326 31.6344 24.2533 30.9901 24.2533C30.3458 24.2533 29.8235 23.7326 29.8235 23.0903V18.4986H25.2173C24.5731 18.4986 24.0508 17.9779 24.0508 17.3356C24.0508 16.6933 24.5731 16.1726 25.2173 16.1726H29.8235Z" fill="#009BDF"/>
</g>
</g>
</g>

</symbol>
<symbol id="notifications" viewBox="0 0 24 24">
<path d="M11.8462 24C13.2 24 14.3077 22.8923 14.3077 21.5385H9.38462C9.38462 22.8923 10.48 24 11.8462 24ZM19.2308 16.6154V10.4615C19.2308 6.68308 17.2123 3.52 13.6923 2.68308V1.84615C13.6923 0.824615 12.8677 0 11.8462 0C10.8246 0 10 0.824615 10 1.84615V2.68308C6.46769 3.52 4.46154 6.67077 4.46154 10.4615V16.6154L2 19.0769V20.3077H21.6923V19.0769L19.2308 16.6154Z"/>

</symbol>
<symbol id="open" viewBox="0 0 24 24">
<path d="M9.81818 8.72727H14.1818V5.45455H17.4545L12 0L6.54545 5.45455H9.81818V8.72727ZM8.72727 9.81818H5.45455V6.54545L0 12L5.45455 17.4545V14.1818H8.72727V9.81818ZM24 12L18.5455 6.54545V9.81818H15.2727V14.1818H18.5455V17.4545L24 12ZM14.1818 15.2727H9.81818V18.5455H6.54545L12 24L17.4545 18.5455H14.1818V15.2727Z"/>

</symbol>
<symbol id="order-status" viewBox="0 0 24 24">
<path fill-rule="evenodd" clip-rule="evenodd" d="M16.4415 5.17969H8.01281C7.71292 5.17969 7.46875 5.41512 7.46875 5.70312V7.82997C7.46875 8.12026 7.71292 8.35454 8.01281 8.35454H8.4407V17.9625C8.4407 19.334 9.39013 19.6208 10.1878 19.6208H14.2475C15.044 19.6208 15.9958 19.334 15.9958 17.9625V8.35454H16.4415C16.7414 8.35454 16.9844 8.12026 16.9844 7.82997V5.70312C16.9844 5.41512 16.7414 5.17969 16.4415 5.17969ZM14.545 17.9625C14.545 18.0917 14.5332 18.1637 14.5237 18.1991C14.4846 18.2094 14.4016 18.2243 14.2475 18.2243H10.1878C10.0338 18.2243 9.95078 18.2094 9.91167 18.1991C9.90218 18.1637 9.89033 18.0917 9.89033 17.9625V17.2711H13.2021C13.502 17.2711 13.7461 17.0368 13.7461 16.7465V10.1797C13.7461 9.89054 13.502 9.65626 13.2021 9.65626H9.89033V8.80597H14.545V17.9625ZM9.89033 16.2231H12.658V10.7054H9.89033V16.2231ZM8.55686 7.30654H15.8975V6.22883H8.55686V7.30654Z" fill="#973894"/>
<path fill-rule="evenodd" clip-rule="evenodd" d="M11.9702 0.607422C10.0677 0.607422 8.2483 1.02685 6.56398 1.85314C5.5375 2.35599 4.5857 3.00971 3.74769 3.77656V3.11142C3.74769 2.72628 3.42292 2.41314 3.02228 2.41314C2.62165 2.41314 2.29688 2.72628 2.29688 3.11142V5.60285C2.29688 5.60742 2.29806 5.61085 2.29806 5.61542C2.29806 5.62914 2.29925 5.64056 2.29925 5.65428C2.30043 5.66457 2.30162 5.67599 2.3028 5.68628C2.30399 5.69771 2.30636 5.70799 2.30754 5.71942C2.30991 5.73085 2.31228 5.74342 2.31465 5.75485C2.31703 5.76514 2.3194 5.77428 2.32295 5.78342C2.32651 5.79714 2.33006 5.80856 2.33362 5.82114C2.33718 5.83028 2.34073 5.83942 2.34429 5.84856C2.34903 5.86114 2.35377 5.87142 2.35851 5.88399C2.36325 5.89314 2.36799 5.90342 2.37392 5.91371C2.37866 5.92399 2.3834 5.93314 2.38933 5.94228C2.39526 5.95371 2.40237 5.96399 2.40948 5.97542C2.41422 5.98342 2.42015 5.99142 2.42607 5.99942C2.43437 6.01085 2.44148 6.02114 2.45096 6.03142C2.45689 6.03828 2.46282 6.04628 2.46874 6.05314C2.47704 6.06228 2.48652 6.07256 2.49482 6.08171C2.50312 6.08856 2.51023 6.09656 2.51853 6.10456C2.52682 6.11142 2.53512 6.11942 2.5446 6.12742C2.55409 6.13542 2.56357 6.14342 2.57305 6.15142C2.57779 6.15371 2.58135 6.15714 2.5849 6.15942C2.58965 6.16285 2.59439 6.16628 2.59913 6.16971C2.61098 6.17771 2.62165 6.18457 2.6335 6.19142C2.6418 6.19714 2.65128 6.20285 2.66076 6.20742C2.67143 6.21428 2.68329 6.21999 2.69514 6.22571L2.72477 6.23942C2.73544 6.24399 2.74729 6.24856 2.75914 6.25314C2.76981 6.25656 2.78048 6.26114 2.79115 6.26456C2.803 6.26799 2.81367 6.27142 2.82552 6.27485L2.8599 6.28285C2.87175 6.28514 2.88242 6.28742 2.89427 6.28971C2.90731 6.29199 2.91916 6.29428 2.9322 6.29542C2.94168 6.29657 2.95353 6.29771 2.9642 6.29771C2.97724 6.29885 2.99028 6.29999 3.0045 6.29999C3.01043 6.29999 3.01636 6.30114 3.02228 6.30114H5.60507C6.0057 6.30114 6.33047 5.98799 6.33047 5.60285C6.33047 5.21656 6.0057 4.90342 5.60507 4.90342H4.61771C6.56753 3.04628 9.17402 2.00514 11.9702 2.00514C17.7521 2.00514 22.4566 6.54114 22.4566 12.116C22.4566 12.9114 22.3606 13.7034 22.1709 14.4691C22.0785 14.8451 22.3191 15.2211 22.709 15.3103C22.7647 15.324 22.8216 15.3309 22.8774 15.3309C23.2057 15.3309 23.502 15.1137 23.5814 14.7926C23.7983 13.9206 23.9062 13.02 23.9062 12.116C23.9062 5.77085 18.5522 0.607422 11.9702 0.607422Z" fill="#973894"/>
<path fill-rule="evenodd" clip-rule="evenodd" d="M21.607 18.857C21.607 18.8456 21.6058 18.8342 21.6046 18.8239C21.6022 18.8125 21.601 18.8022 21.5987 18.7907L21.5915 18.7542C21.5892 18.745 21.5868 18.737 21.5844 18.7267C21.5821 18.7142 21.5773 18.7016 21.5738 18.6902C21.5702 18.6799 21.5667 18.6707 21.5631 18.6616C21.5584 18.6502 21.5536 18.6388 21.5477 18.6273L21.5335 18.5965C21.5287 18.5873 21.524 18.577 21.5181 18.5667C21.5121 18.5565 21.505 18.5473 21.4979 18.5359C21.492 18.5279 21.4861 18.5188 21.4813 18.5107C21.4742 18.5005 21.4659 18.4902 21.4564 18.4799C21.4505 18.4719 21.4446 18.4639 21.4375 18.4559C21.4303 18.4479 21.4209 18.4387 21.4126 18.4296C21.4043 18.4216 21.396 18.4136 21.3889 18.4056C21.3806 18.3987 21.3723 18.3907 21.3628 18.3839C21.3533 18.3747 21.3426 18.3667 21.3343 18.3587C21.3296 18.3576 21.326 18.3542 21.3225 18.3507C21.3177 18.3473 21.313 18.3439 21.3071 18.3405C21.2964 18.3336 21.2857 18.3256 21.2739 18.3187C21.2656 18.313 21.2561 18.3085 21.2466 18.3039C21.236 18.297 21.2241 18.2913 21.2122 18.2845C21.2028 18.2799 21.1921 18.2753 21.1838 18.2707C21.1719 18.2662 21.1601 18.2616 21.1471 18.2582C21.1376 18.2536 21.1269 18.2502 21.1162 18.2467C21.1044 18.2422 21.0925 18.2387 21.0819 18.2353C21.07 18.233 21.0582 18.2296 21.0463 18.2273C21.0356 18.2239 21.025 18.2227 21.0131 18.2205C21.0001 18.2182 20.9882 18.2159 20.9764 18.2147C20.9645 18.2147 20.9538 18.2136 20.942 18.2125C20.9301 18.2113 20.9159 18.2102 20.9029 18.2102C20.897 18.2102 20.891 18.209 20.8851 18.209H18.3023C17.9017 18.209 17.5781 18.5222 17.5781 18.9085C17.5781 19.2947 17.9017 19.6067 18.3023 19.6067H19.2897C17.3387 21.4639 14.7322 22.505 11.9372 22.505C6.15411 22.505 1.45082 17.9702 1.45082 12.3942C1.45082 11.5987 1.54683 10.8079 1.73529 10.041C1.82774 9.66618 1.58831 9.28903 1.19834 9.19875C0.809564 9.10961 0.418413 9.34161 0.324774 9.71761C0.110234 10.5896 0 11.4902 0 12.3942C0 18.7393 5.35522 23.9027 11.9372 23.9027C13.8396 23.9027 15.6579 23.4845 17.3422 22.657C18.3699 22.1542 19.3217 21.5005 20.1597 20.7336V21.3987C20.1597 21.785 20.4845 22.097 20.8851 22.097C21.2857 22.097 21.6105 21.785 21.6105 21.3987V18.9085C21.6105 18.9039 21.6093 18.8993 21.6093 18.8947C21.6093 18.881 21.6081 18.8696 21.607 18.857Z" fill="#973894"/>

</symbol>
<symbol id="pause" viewBox="0 0 24 24">
<path d="M1 24H7.85714V0H1V24ZM14.7143 0V24H21.5714V0H14.7143Z"/>

</symbol>
<symbol id="people" viewBox="0 0 25 25">
<path fill-rule="evenodd" clip-rule="evenodd" d="M21.7224 20.5437C21.7224 17.7393 20.0056 15.4788 17.3401 14.7699L16.7447 14.6115C16.6474 14.6385 16.4842 14.6918 16.2567 14.7701C16.1308 14.8137 16.1308 14.8136 16.0433 14.844C15.7385 14.9501 15.5942 14.9997 15.4084 15.0615C14.9434 15.2161 14.5432 15.3348 14.1589 15.427C13.6243 15.5553 13.1487 15.6241 12.7247 15.6241C11.8391 15.6241 10.9984 15.3982 9.40563 14.8433C9.31807 14.8128 9.31807 14.8128 9.22801 14.7816C8.9672 14.6917 8.80524 14.6387 8.70831 14.6116L8.1136 14.7699C5.44804 15.4787 3.73133 17.7391 3.73133 20.5437V23.172H21.7224V20.5437ZM17.7595 13.1929C21.1045 14.0824 23.3542 17.0395 23.3542 20.5435V23.9878C23.3542 24.4384 22.9889 24.8036 22.5383 24.8036H2.91549C2.46489 24.8036 2.09961 24.4384 2.09961 23.9878V20.5435C2.09961 17.0396 4.3493 14.0825 7.69406 13.1929L8.43436 12.996C8.75608 12.9109 8.95929 12.96 9.94233 13.3023C11.3234 13.7833 12.0808 13.9922 12.7248 13.9922C13.3682 13.9922 14.1251 13.7836 15.5074 13.3027C16.4938 12.9597 16.6983 12.9103 17.0196 12.9961L17.7595 13.1929ZM12.7245 11.7532C9.70564 11.7532 7.25021 9.29772 7.25021 6.27872C7.25021 3.25947 9.70565 0.803711 12.7245 0.803711C15.7438 0.803711 18.1997 3.25948 18.1997 6.27872C18.1997 9.29772 15.7438 11.7532 12.7245 11.7532ZM12.7243 2.43544C10.6057 2.43544 8.88156 4.15967 8.88156 6.27869C8.88156 8.39733 10.6058 10.1217 12.7243 10.1217C14.8433 10.1217 16.5678 8.39734 16.5678 6.27869C16.5678 4.15965 14.8435 2.43544 12.7243 2.43544Z"/>

</symbol>
<symbol id="person-bubble" viewBox="0 0 24 18">
<path d="M21.5516 1H7.05411C5.88354 1.00132 4.93494 1.93161 4.93359 3.07959V5.35997C4.93359 5.624 5.15184 5.83804 5.42107 5.83804C5.69029 5.83804 5.90854 5.624 5.90854 5.35997V3.07959C5.90854 2.78227 6.02898 2.49712 6.24336 2.28688C6.45774 2.07664 6.7485 1.95852 7.05167 1.95852H21.5492C21.8524 1.95852 22.1431 2.07664 22.3575 2.28688C22.5719 2.49712 22.6923 2.78227 22.6923 3.07959V11.1828C22.6923 11.802 22.1805 12.3039 21.5492 12.3039H9.38668C9.11746 12.3039 8.89921 12.5179 8.89921 12.782C8.89921 13.046 9.11746 13.26 9.38668 13.26H21.5492C22.7198 13.2587 23.6684 12.3284 23.6697 11.1804V3.0772C23.667 1.93108 22.7203 1.00263 21.5516 1V1Z" stroke="#14568d" stroke-width="0.4"/>
<path d="M10.676 5.83309H18.6169C18.8862 5.83309 19.1044 5.61905 19.1044 5.35502C19.1044 5.09099 18.8862 4.87695 18.6169 4.87695H10.676C10.4067 4.87695 10.1885 5.09099 10.1885 5.35502C10.1885 5.61905 10.4067 5.83309 10.676 5.83309Z" stroke="#14568D" stroke-width="0.4"/>
<path d="M10.676 9.20027H16.4403C16.7096 9.20027 16.9278 8.98624 16.9278 8.72221C16.9278 8.45818 16.7096 8.24414 16.4403 8.24414H10.676C10.4067 8.24414 10.1885 8.45818 10.1885 8.72221C10.1885 8.98624 10.4067 9.20027 10.676 9.20027Z" stroke="#14568D" stroke-width="0.4"/>
<path fill-rule="evenodd" clip-rule="evenodd" d="M8.13917 9.8101C8.13917 11.2477 6.9508 12.4132 5.48487 12.4132C4.0195 12.4119 2.83191 11.2472 2.83057 9.8101C2.83057 8.37247 4.01894 7.20703 5.48487 7.20703C6.9508 7.20703 8.13917 8.37247 8.13917 9.8101ZM7.15902 9.81013C7.15902 8.90319 6.40933 8.16797 5.48454 8.16797V8.17036C4.56125 8.17167 3.81274 8.90467 3.81006 9.81013C3.81006 10.7171 4.55975 11.4523 5.48454 11.4523C6.40933 11.4523 7.15902 10.7171 7.15902 9.81013Z"/>
<path d="M5.48487 12.4132L5.48474 12.5632H5.48487V12.4132ZM2.83057 9.8101H2.68057L2.68057 9.81024L2.83057 9.8101ZM5.48454 8.16797V8.01797H5.33454V8.16797H5.48454ZM5.48454 8.17036L5.48475 8.32036L5.63454 8.32015V8.17036H5.48454ZM3.81006 9.81013L3.66006 9.80968V9.81013H3.81006ZM5.48487 12.5632C7.03088 12.5632 8.28917 11.3333 8.28917 9.8101H7.98917C7.98917 11.1622 6.87073 12.2632 5.48487 12.2632V12.5632ZM2.68057 9.81024C2.68199 11.3328 3.93939 12.5618 5.48474 12.5632L5.48501 12.2632C4.0996 12.2619 2.98183 11.1616 2.98057 9.80996L2.68057 9.81024ZM5.48487 7.05703C3.93887 7.05703 2.68057 8.28688 2.68057 9.8101H2.98057C2.98057 8.45805 4.09901 7.35703 5.48487 7.35703V7.05703ZM8.28917 9.8101C8.28917 8.28688 7.03088 7.05703 5.48487 7.05703V7.35703C6.87073 7.35703 7.98917 8.45805 7.98917 9.8101H8.28917ZM5.48454 8.31797C6.32925 8.31797 7.00902 8.98877 7.00902 9.81013H7.30902C7.30902 8.8176 6.4894 8.01797 5.48454 8.01797V8.31797ZM5.63454 8.17036V8.16797H5.33454V8.17036H5.63454ZM3.96006 9.81057C3.96249 8.99042 4.6413 8.32156 5.48475 8.32036L5.48432 8.02036C4.48121 8.02178 3.663 8.81891 3.66006 9.80968L3.96006 9.81057ZM5.48454 11.3023C4.63982 11.3023 3.96006 10.6315 3.96006 9.81013H3.66006C3.66006 10.8027 4.47967 11.6023 5.48454 11.6023V11.3023ZM7.00902 9.81013C7.00902 10.6315 6.32925 11.3023 5.48454 11.3023V11.6023C6.4894 11.6023 7.30902 10.8027 7.30902 9.81013H7.00902Z"/>
<path fill-rule="evenodd" clip-rule="evenodd" d="M1 17.3338C1.00269 14.9058 3.00902 12.9382 5.48477 12.9355C7.95902 12.9408 9.96309 14.9073 9.96711 17.3338C9.96711 17.5978 9.74886 17.8118 9.47964 17.8118H1.48748C1.21825 17.8118 1 17.5978 1 17.3338ZM5.48449 13.8945C3.73599 13.8945 2.25454 15.1575 2.01123 16.8556H2.02098H8.95776C8.71445 15.1575 7.233 13.8945 5.48449 13.8945Z"/>
<path d="M5.48477 12.9355L5.48499 12.8355L5.48467 12.8355L5.48477 12.9355ZM1 17.3338L0.9 17.3337V17.3338H1ZM9.96711 17.3338H10.0671L10.0671 17.3336L9.96711 17.3338ZM2.01123 16.8556L1.91224 16.8414L1.89588 16.9556H2.01123V16.8556ZM8.95776 16.8556V16.9556H9.07311L9.05675 16.8414L8.95776 16.8556ZM5.48467 12.8355C2.95561 12.8382 0.90275 14.8487 0.9 17.3337L1.1 17.3339C1.10262 14.9629 3.06243 13.0381 5.48488 13.0355L5.48467 12.8355ZM10.0671 17.3336C10.063 14.8502 8.01248 12.8409 5.48499 12.8355L5.48456 13.0355C7.90557 13.0407 9.86318 14.9643 9.86711 17.3339L10.0671 17.3336ZM9.47964 17.9118C9.80224 17.9118 10.0671 17.6548 10.0671 17.3338H9.86711C9.86711 17.5407 9.69548 17.7118 9.47964 17.7118V17.9118ZM1.48748 17.9118H9.47964V17.7118H1.48748V17.9118ZM0.9 17.3338C0.9 17.6548 1.16487 17.9118 1.48748 17.9118V17.7118C1.27163 17.7118 1.1 17.5407 1.1 17.3338H0.9ZM2.11022 16.8698C2.34627 15.2224 3.78427 13.9945 5.48449 13.9945V13.7945C3.68771 13.7945 2.16281 15.0926 1.91224 16.8414L2.11022 16.8698ZM2.02098 16.7556H2.01123V16.9556H2.02098V16.7556ZM8.95776 16.7556H2.02098V16.9556H8.95776V16.7556ZM5.48449 13.9945C7.18472 13.9945 8.62272 15.2224 8.85877 16.8698L9.05675 16.8414C8.80617 15.0926 7.28128 13.7945 5.48449 13.7945V13.9945Z"/>

</symbol>
<symbol id="person" viewBox="0 0 24 24">
<path d="M12 12C15.315 12 18 9.315 18 6C18 2.685 15.315 0 12 0C8.685 0 6 2.685 6 6C6 9.315 8.685 12 12 12ZM12 15C7.995 15 0 17.01 0 21V24H24V21C24 17.01 16.005 15 12 15Z"/>

</symbol>
<symbol id="pinterest" viewBox="0 0 24 24">
<path d="M12.5625 0.304688C7.75313 0.304688 3 3.51094 3 8.7C3 12 4.85625 13.875 5.98125 13.875C6.44531 13.875 6.7125 12.5813 6.7125 12.2156C6.7125 11.7797 5.60156 10.8516 5.60156 9.0375C5.60156 5.26875 8.47031 2.59688 12.1828 2.59688C15.375 2.59688 17.7375 4.41094 17.7375 7.74375C17.7375 10.2328 16.7391 14.9016 13.5047 14.9016C12.3375 14.9016 11.3391 14.0578 11.3391 12.8484C11.3391 11.0766 12.5766 9.36094 12.5766 7.53281C12.5766 4.42969 8.175 4.99219 8.175 8.74219C8.175 9.52969 8.27344 10.4016 8.625 11.1188C7.97813 13.9031 6.65625 18.0516 6.65625 20.9203C6.65625 21.8063 6.78281 22.6781 6.86719 23.5641C7.02656 23.7422 6.94688 23.7234 7.19063 23.6344C9.55313 20.4 9.46875 19.7672 10.5375 15.5344C11.1141 16.6313 12.6047 17.2219 13.7859 17.2219C18.7641 17.2219 21 12.3703 21 7.99688C21 3.34219 16.9781 0.304688 12.5625 0.304688Z"/>

</symbol>
<symbol id="play-arrow" viewBox="0 0 24 24">
<path d="M3 0V24L21.8571 12L3 0Z"/>

</symbol>
<symbol id="play-circle-outline" viewBox="0 0 24 24">
<g clip-path="url(#clip0)">
<path d="M9.6 17.4L16.8 12L9.6 6.6V17.4ZM12 0C5.376 0 0 5.376 0 12C0 18.624 5.376 24 12 24C18.624 24 24 18.624 24 12C24 5.376 18.624 0 12 0ZM12 21.6C6.708 21.6 2.4 17.292 2.4 12C2.4 6.708 6.708 2.4 12 2.4C17.292 2.4 21.6 6.708 21.6 12C21.6 17.292 17.292 21.6 12 21.6Z"/>
</g>
<defs>
<clipPath id="clip0">
<rect width="24" height="24" fill="white"/>
</clipPath>
</defs>

</symbol>
<symbol id="progress-spinner" viewBox="0 0 32 32">
  <g fill="#515761">
    <path d="M12.722 3.813c0-2.105 1.73-3.813 3.864-3.813 2.135 0 3.865 1.708 3.864 3.813 0 2.106-1.73 3.814-3.864 3.814s-3.864-1.708-3.864-3.814Zm-5.629.423c-1.94 0-3.512 1.552-3.512 3.467 0 1.914 1.573 3.466 3.512 3.466 1.941 0 3.513-1.552 3.513-3.466 0-1.915-1.572-3.467-3.513-3.467Zm-3.931 9.713c1.746 0 3.161 1.398 3.161 3.12 0 1.724-1.415 3.12-3.161 3.12S0 18.793 0 17.07c0-1.722 1.416-3.12 3.162-3.12Zm1.945 14.448a2.746 2.746 0 0 1 0-3.92 2.836 2.836 0 0 1 3.975 0 2.746 2.746 0 0 1 0 3.92 2.838 2.838 0 0 1-3.975 0Zm11.478-1.251c-1.357 0-2.458 1.086-2.458 2.428 0 1.339 1.1 2.426 2.458 2.426 1.359 0 2.46-1.087 2.46-2.426 0-1.342-1.101-2.428-2.46-2.428ZM28.253 17.07c0-.959.786-1.734 1.756-1.734s1.758.775 1.758 1.733c0 .958-.787 1.734-1.758 1.734-.97 0-1.756-.776-1.756-1.734Zm-3.665 7.896a2.061 2.061 0 0 0 0 2.941 2.128 2.128 0 0 0 2.981 0 2.062 2.062 0 0 0 0-2.941 2.128 2.128 0 0 0-2.981 0Zm3.03-17.396c0 .766-.628 1.386-1.405 1.386-.776 0-1.405-.62-1.405-1.387a1.395 1.395 0 0 1 1.404-1.385 1.395 1.395 0 0 1 1.406 1.385Z"/>
  </g>

</symbol>
<symbol id="replay" viewBox="0 0 24 24">
<path d="M11.6 4.8V0L5.6 6L11.6 12V7.2C15.572 7.2 18.8 10.428 18.8 14.4C18.8 18.372 15.572 21.6 11.6 21.6C7.628 21.6 4.4 18.372 4.4 14.4H2C2 19.704 6.296 24 11.6 24C16.904 24 21.2 19.704 21.2 14.4C21.2 9.096 16.904 4.8 11.6 4.8Z"/>

</symbol>
<symbol id="rss-feed" viewBox="0 0 24 24">
<path d="M6.18 20C7.38398 20 8.36 19.024 8.36 17.82C8.36 16.616 7.38398 15.64 6.18 15.64C4.97602 15.64 4 16.616 4 17.82C4 19.024 4.97602 20 6.18 20Z"/>
<path d="M4 4.44V7.27C11.03 7.27 16.73 12.97 16.73 20H19.56C19.56 11.41 12.59 4.44 4 4.44ZM4 10.1V12.93C7.9 12.93 11.07 16.1 11.07 20H13.9C13.9 14.53 9.47 10.1 4 10.1Z"/>

</symbol>
<symbol id="rx" viewBox="0 0 44 45">
<path fill-rule="evenodd" clip-rule="evenodd" d="M0.19043 22.1904C0.19043 34.2881 9.99753 44.0952 22.0952 44.0952C34.1929 44.0952 44 34.2881 44 22.1904C44 10.0927 34.1929 0.285645 22.0952 0.285645C9.99753 0.285645 0.19043 10.0927 0.19043 22.1904ZM42.1746 22.1904C42.1746 33.2799 33.1847 42.2698 22.0952 42.2698C11.0057 42.2698 2.01583 33.2799 2.01583 22.1904C2.01583 11.1009 11.0057 2.11104 22.0952 2.11104C33.1847 2.11104 42.1746 11.1009 42.1746 22.1904ZM30.1697 26.5406H27.8761L25.9503 28.6906L20.5423 21.7943C23.2421 21.564 25.3696 19.292 25.3696 16.5276C25.3696 13.611 23.0021 11.238 20.0918 11.238H13.8809V30.1682H15.5905V21.8172H18.3889L24.7925 29.983L21.733 33.3991L21.761 33.4245H24.004L25.8632 31.3488L27.4908 33.4245H29.662L27.0207 30.0564L30.1697 26.5406ZM20.0918 12.9514H15.5905V20.1039H20.0918C22.0595 20.1039 23.66 18.4996 23.66 16.5276C23.66 14.5556 22.0595 12.9514 20.0918 12.9514Z"/>

</symbol>
<symbol id="search" viewBox="0 0 24 24">
<g clip-path="url(#clip0)">
<path d="M17.1527 15.0943H16.0686L15.6844 14.7238C17.0292 13.1595 17.8388 11.1286 17.8388 8.91938C17.8388 3.99314 13.8456 0 8.91938 0C3.99314 0 0 3.99314 0 8.91938C0 13.8456 3.99314 17.8388 8.91938 17.8388C11.1286 17.8388 13.1595 17.0292 14.7238 15.6844L15.0943 16.0686V17.1527L21.9554 24L24 21.9554L17.1527 15.0943ZM8.91938 15.0943C5.50257 15.0943 2.74443 12.3362 2.74443 8.91938C2.74443 5.50257 5.50257 2.74443 8.91938 2.74443C12.3362 2.74443 15.0943 5.50257 15.0943 8.91938C15.0943 12.3362 12.3362 15.0943 8.91938 15.0943Z"/>
</g>
<defs>
<clipPath id="clip0">
<rect width="24" height="24" fill="white"/>
</clipPath>
</defs>

</symbol>
<symbol id="shop" viewBox="0 0 32 28">
<path fill-rule="evenodd" clip-rule="evenodd" d="M29.6229 18.8C29.232 19.9938 28.4794 20.9298 27.5457 21.5265C28.1819 22.2079 28.5664 23.1364 28.5664 24.1766C28.5664 26.3273 26.923 28 24.81 28C22.697 28 21.0535 26.3273 21.0535 24.1766C21.0535 23.4746 21.2286 22.8236 21.538 22.265H14.3474C14.6568 22.8236 14.8319 23.4746 14.8319 24.1766C14.8319 26.3273 13.1885 28 11.0755 28C8.96247 28 7.31902 26.3273 7.31902 24.1766C7.31902 22.97 7.83639 21.9137 8.66377 21.219C7.9485 20.628 7.42114 19.8054 7.20163 18.8L3.44519 5.6572L2.50608 2.43124L0.627851 1.83384C0.0409064 1.59488 -0.0764825 1.11696 0.0409065 0.639036C0.275684 0.0416352 0.74524 -0.077845 1.2148 0.0416352L3.44519 0.758516C3.79735 0.758516 4.03213 1.11696 4.03213 1.35592L5.54627 6.13513H29.3882C30.0925 6.13513 31.0316 6.73253 31.5012 7.32993C32.0881 8.04681 32.0881 8.88317 31.8533 9.83901L29.6229 18.8ZM11.6624 20.3533H24.81H25.0448C26.336 20.3533 27.5099 19.3974 27.6273 18.2026L29.8577 9.24161C29.8577 9.00265 29.7892 8.7317 29.6229 8.52473C29.4566 8.31776 29.2708 8.16629 28.9186 8.16629H6.22804L9.07986 18.2026C9.43203 19.3974 10.6059 20.3533 11.6624 20.3533ZM9.19725 24.1766C9.19725 22.9818 9.90158 22.265 11.0755 22.265C12.0146 22.265 12.9537 22.9818 12.9537 24.1766C12.9537 25.3714 12.2494 26.0883 11.0755 26.0883C9.90158 26.0883 9.19725 25.3714 9.19725 24.1766ZM22.9318 24.1766C22.9318 22.9818 23.6361 22.265 24.81 22.265C25.9839 22.265 26.6882 22.9818 26.6882 24.1766C26.6882 25.3714 25.9839 26.0883 24.81 26.0883C23.6361 26.0883 22.9318 25.3714 22.9318 24.1766Z"/>

</symbol>
<symbol id="spinner" viewBox="0 0 32 32">
<title>spinner8</title>
<path d="M16 32c-4.274 0-8.292-1.664-11.314-4.686s-4.686-7.040-4.686-11.314c0-3.026 0.849-5.973 2.456-8.522 1.563-2.478 3.771-4.48 6.386-5.791l1.344 2.682c-2.126 1.065-3.922 2.693-5.192 4.708-1.305 2.069-1.994 4.462-1.994 6.922 0 7.168 5.832 13 13 13s13-5.832 13-13c0-2.459-0.69-4.853-1.994-6.922-1.271-2.015-3.066-3.643-5.192-4.708l1.344-2.682c2.615 1.31 4.824 3.313 6.386 5.791 1.607 2.549 2.456 5.495 2.456 8.522 0 4.274-1.664 8.292-4.686 11.314s-7.040 4.686-11.314 4.686z"/>

</symbol>
<symbol id="square" viewBox="0 0 24 24">
<path d="M18.2857 4H5.71429C4.76786 4 4 4.76786 4 5.71429V18.2857C4 19.2321 4.76786 20 5.71429 20H18.2857C19.2321 20 20 19.2321 20 18.2857V5.71429C20 4.76786 19.2321 4 18.2857 4Z"/>

</symbol>
<symbol id="success" viewBox="0 0 24 24">
<path d="M12 2.25C10.0716 2.25 8.18657 2.82183 6.58319 3.89317C4.97982 4.96452 3.73013 6.48726 2.99218 8.26884C2.25422 10.0504 2.06114 12.0108 2.43735 13.9021C2.81355 15.7934 3.74215 17.5307 5.10571 18.8943C6.46928 20.2579 8.20656 21.1865 10.0979 21.5627C11.9892 21.9389 13.9496 21.7458 15.7312 21.0078C17.5127 20.2699 19.0355 19.0202 20.1068 17.4168C21.1782 15.8134 21.75 13.9284 21.75 12C21.7473 9.41498 20.7192 6.93661 18.8913 5.10872C17.0634 3.28084 14.585 2.25273 12 2.25ZM16.2806 10.2806L11.0306 15.5306C10.961 15.6004 10.8783 15.6557 10.7872 15.6934C10.6962 15.7312 10.5986 15.7506 10.5 15.7506C10.4014 15.7506 10.3038 15.7312 10.2128 15.6934C10.1218 15.6557 10.039 15.6004 9.96938 15.5306L7.71938 13.2806C7.57865 13.1399 7.49959 12.949 7.49959 12.75C7.49959 12.551 7.57865 12.3601 7.71938 12.2194C7.86011 12.0786 8.05098 11.9996 8.25 11.9996C8.44903 11.9996 8.6399 12.0786 8.78063 12.2194L10.5 13.9397L15.2194 9.21937C15.2891 9.14969 15.3718 9.09442 15.4628 9.0567C15.5539 9.01899 15.6515 8.99958 15.75 8.99958C15.8486 8.99958 15.9461 9.01899 16.0372 9.0567C16.1282 9.09442 16.2109 9.14969 16.2806 9.21937C16.3503 9.28906 16.4056 9.37178 16.4433 9.46283C16.481 9.55387 16.5004 9.65145 16.5004 9.75C16.5004 9.84855 16.481 9.94613 16.4433 10.0372C16.4056 10.1282 16.3503 10.2109 16.2806 10.2806Z"/>

</symbol>
<symbol id="swap" viewBox="0 0 24 24">
<path d="M17.6667 18.68V9.33333H15V18.68H11L16.3333 24L21.6667 18.68H17.6667ZM8.33333 0L3 5.32H7V14.6667H9.66667V5.32H13.6667L8.33333 0Z"/>

</symbol>
<symbol id="thumb-up" viewBox="0 0 24 24">
<path d="M0 22.8182H4.36364V9.72727H0V22.8182ZM24 10.8182C24 9.61818 23.0182 8.63636 21.8182 8.63636H14.9345L15.9709 3.65091L16.0036 3.30182C16.0036 2.85455 15.8182 2.44 15.5236 2.14545L14.3673 1L7.18909 8.18909C6.78545 8.58182 6.54545 9.12727 6.54545 9.72727V20.6364C6.54545 21.8364 7.52727 22.8182 8.72727 22.8182H18.5455C19.4509 22.8182 20.2255 22.2727 20.5527 21.4873L23.8473 13.7964C23.9455 13.5455 24 13.2836 24 13V10.8182Z"/>

</symbol>
<symbol id="trending-flat" viewBox="0 0 24 24">
<path d="M24 12.0526L18.9474 7V10.7895H0V13.3158H18.9474V17.1053L24 12.0526Z"/>

</symbol>
<symbol id="trending-up" viewBox="0 0 24 24">
<path d="M16.8 5L19.548 7.748L13.692 13.604L8.892 8.804L0 17.708L1.692 19.4L8.892 12.2L13.692 17L21.252 9.452L24 12.2V5H16.8Z"/>

</symbol>
<symbol id="twitter" viewBox="0 0 24 24">
<path d="M21.533 7.11169C21.5482 7.32488 21.5482 7.53811 21.5482 7.7513C21.5482 14.2538 16.599 21.7462 7.5533 21.7462C4.76648 21.7462 2.17767 20.9391 0 19.5381C0.395953 19.5838 0.776625 19.599 1.18781 19.599C3.48727 19.599 5.60405 18.8224 7.29441 17.4975C5.13197 17.4518 3.31978 16.0356 2.69541 14.0863C3 14.132 3.30455 14.1624 3.62437 14.1624C4.06598 14.1624 4.50764 14.1015 4.91878 13.995C2.66498 13.5381 0.974578 11.5584 0.974578 9.16753V9.10664C1.62937 9.47213 2.39086 9.70055 3.19791 9.73097C1.87303 8.8477 1.00505 7.34011 1.00505 5.63452C1.00505 4.72083 1.24866 3.88327 1.67508 3.1523C4.09641 6.13706 7.73602 8.08627 11.8172 8.2995C11.7411 7.93402 11.6954 7.55335 11.6954 7.17263C11.6954 4.46194 13.8883 2.25385 16.6141 2.25385C18.0304 2.25385 19.3095 2.84775 20.208 3.80714C21.3197 3.59395 22.3857 3.18277 23.3299 2.61933C22.9643 3.76149 22.1877 4.72088 21.1674 5.32997C22.1573 5.22342 23.1167 4.94925 23.9999 4.56858C23.33 5.54316 22.4924 6.41114 21.533 7.11169Z"/>

</symbol>
<symbol id="vaccine" viewBox="0 0 26 27">
<path d="M1.28418 6.90234L5.90562 2.28091" fill="none" stroke="#14568d" stroke-width="1.25" stroke-linecap="round" stroke-linejoin="round"/>
<path d="M3.59473 4.59375L6.67569 7.67471" fill="none" stroke="#14568d" stroke-width="1.25" stroke-linecap="round" stroke-linejoin="round"/>
<path d="M3.08105 11.2695L10.27 4.08063" fill="none" stroke="#14568d" stroke-width="1.25" stroke-linecap="round" stroke-linejoin="round"/>
<path d="M6.4458 11.0391L17.2292 21.8224L20.8236 18.228L10.0403 7.44461" fill="none" stroke="#14568d" stroke-width="1.25" stroke-linecap="round" stroke-linejoin="round"/>
<path d="M19.0269 20.0273L21.9794 22.9799" fill="none" stroke="#14568d" stroke-width="1.25" stroke-linecap="round" stroke-linejoin="round"/>
<path d="M8.49414 13.0898L9.6495 11.9345" fill="none" stroke="#14568d" stroke-width="1.25" stroke-linecap="round" stroke-linejoin="round"/>
<path d="M11.1978 15.793L12.3531 14.6376" fill="none" stroke="#14568d" stroke-width="1.25" stroke-linecap="round" stroke-linejoin="round"/>
<path d="M13.9014 18.4961L15.0567 17.3407" fill="none" stroke="#14568d" stroke-width="1.25" stroke-linecap="round" stroke-linejoin="round"/>

</symbol>
<symbol id="warning" viewBox="0 0 24 24">
<path d="M22.2 17.6335L14.0016 3.39569C13.7967 3.04687 13.5042 2.75764 13.1532 2.55668C12.8021 2.35572 12.4046 2.25 12 2.25C11.5955 2.25 11.198 2.35572 10.8469 2.55668C10.4958 2.75764 10.2033 3.04687 9.99847 3.39569L1.80003 17.6335C1.60291 17.9709 1.49902 18.3546 1.49902 18.7454C1.49902 19.1361 1.60291 19.5199 1.80003 19.8572C2.00228 20.2082 2.29425 20.499 2.64599 20.6998C2.99773 20.9006 3.39658 21.0043 3.80159 21.0001H20.1985C20.6032 21.0039 21.0016 20.9001 21.353 20.6993C21.7044 20.4985 21.9961 20.2079 22.1982 19.8572C22.3956 19.52 22.4998 19.1364 22.5001 18.7456C22.5004 18.3549 22.3969 17.9711 22.2 17.6335ZM11.25 9.75006C11.25 9.55115 11.329 9.36038 11.4697 9.21973C11.6104 9.07908 11.8011 9.00006 12 9.00006C12.1989 9.00006 12.3897 9.07908 12.5304 9.21973C12.671 9.36038 12.75 9.55115 12.75 9.75006V13.5001C12.75 13.699 12.671 13.8897 12.5304 14.0304C12.3897 14.171 12.1989 14.2501 12 14.2501C11.8011 14.2501 11.6104 14.171 11.4697 14.0304C11.329 13.8897 11.25 13.699 11.25 13.5001V9.75006ZM12 18.0001C11.7775 18.0001 11.56 17.9341 11.375 17.8105C11.19 17.6868 11.0458 17.5111 10.9607 17.3056C10.8755 17.1 10.8532 16.8738 10.8966 16.6556C10.9401 16.4374 11.0472 16.2369 11.2045 16.0796C11.3619 15.9222 11.5623 15.8151 11.7806 15.7717C11.9988 15.7283 12.225 15.7505 12.4305 15.8357C12.6361 15.9208 12.8118 16.065 12.9354 16.25C13.059 16.435 13.125 16.6526 13.125 16.8751C13.125 17.1734 13.0065 17.4596 12.7955 17.6706C12.5845 17.8815 12.2984 18.0001 12 18.0001Z"/>

</symbol></svg>