<svg fill="currentColor" width="16" height="16" viewBox="0 0 16 16" xmlns="http://www.w3.org/2000/svg">
<path d="M15.1801 3.91671C14.5086 3.00712 13.4759 2.48544 12.1089 2.36773C10.2656 2.20721 9.21959 2.69144 8.56415 3.06597C8.67384 2.32493 8.99487 1.47419 9.51922 1.06755C9.75197 0.885632 9.79477 0.551224 9.61553 0.315801C9.43361 0.0830525 9.09921 0.0402483 8.86378 0.219491C8.01572 0.877607 7.59303 2.1002 7.48067 3.09273C6.8279 2.71551 5.7792 2.20454 3.89046 2.36773C2.5234 2.48544 1.49075 3.00712 0.821931 3.91671C-0.028804 5.07242 -0.221423 6.76319 0.254774 8.93818C1.14831 13.0233 3.90919 15.8912 5.0649 15.8912C5.93972 15.8912 6.53095 15.514 7.00982 15.209C7.37098 14.9789 7.65724 14.797 7.99967 14.797C8.3421 14.797 8.62836 14.9789 8.98952 15.209C9.46572 15.5113 10.0596 15.8912 10.9344 15.8912C12.0902 15.8912 14.851 13.0233 15.7446 8.93818C16.2208 6.76319 16.0308 5.07242 15.1774 3.91671H15.1801ZM14.7012 8.71079C13.8478 12.6086 11.4374 14.7301 10.9371 14.8238C10.3753 14.8238 10.0008 14.5857 9.56738 14.3101C9.13933 14.0372 8.65511 13.7296 8.00235 13.7296C7.34958 13.7296 6.86536 14.0372 6.43731 14.3101C6.00392 14.5857 5.63206 14.8238 5.09166 14.8238C4.5673 14.7275 2.15689 12.606 1.30615 8.71079C0.904864 6.87555 1.03595 5.43626 1.68872 4.55342C2.16759 3.90066 2.94342 3.52612 3.98945 3.43516C4.20347 3.41643 4.40411 3.40841 4.59138 3.40841C5.92099 3.40841 6.62993 3.82843 7.11951 4.12003C7.38703 4.27787 7.62246 4.41163 7.88731 4.44374C7.92476 4.45176 7.96222 4.45711 8.00235 4.45711C8.02107 4.45711 8.0398 4.45711 8.05853 4.45444C8.0719 4.45444 8.08528 4.44909 8.09865 4.44641C8.37153 4.41698 8.61231 4.28322 8.88518 4.12003C9.44431 3.7883 10.2897 3.28802 12.0152 3.43516C13.0613 3.52612 13.8344 3.90066 14.316 4.55342C14.9687 5.43894 15.0998 6.87555 14.6985 8.71079H14.7012Z"/>
</svg>
