<svg fill="currentColor" width="16" height="17" viewBox="0 0 16 17" xmlns="http://www.w3.org/2000/svg">
<path d="M15.5576 7.55903H1.51547L8.31315 0.759126C8.48654 0.585739 8.48654 0.303428 8.31315 0.130041C8.13977 -0.0433469 7.85746 -0.0433469 7.68407 0.130041L0.128373 7.68796C0.108367 7.70796 0.0883609 7.73242 0.0728005 7.75687C0.0661318 7.76798 0.0616859 7.7791 0.0550172 7.79021C0.0461255 7.80355 0.0394567 7.81911 0.0327879 7.83467C0.0261192 7.85023 0.0238963 7.86357 0.0194505 7.87913C0.0150046 7.89247 0.0105589 7.90358 0.00833594 7.91692C-0.00277865 7.97471 -0.00277865 8.03251 0.00833594 8.09031C0.0105589 8.10364 0.0150046 8.11698 0.0194505 8.1281C0.0238963 8.14366 0.0283421 8.15699 0.0327879 8.17255C0.0394567 8.18811 0.0483484 8.20145 0.0550172 8.21701C0.0616859 8.22813 0.0661318 8.23924 0.0728005 8.25036C0.0883609 8.27481 0.108367 8.29704 0.128373 8.31927L7.68629 15.8772C7.77298 15.9639 7.88635 16.0083 7.99972 16.0083C8.11309 16.0083 8.22646 15.9639 8.31315 15.8772C8.48654 15.7038 8.48654 15.4215 8.31315 15.2481L1.51325 8.4482H15.5554C15.7999 8.4482 16 8.24813 16 8.00361C16 7.75909 15.7999 7.55903 15.5554 7.55903H15.5576Z"/>
</svg>
