<svg fill="currentColor" width="16" height="16" viewBox="0 0 16 16" xmlns="http://www.w3.org/2000/svg">
<path d="M15.8677 7.68667C15.6944 7.51336 15.4122 7.51336 15.2389 7.68667L8.44213 14.4835V0.44548C8.44213 0.20107 8.24216 0.00109863 7.99775 0.00109863C7.75334 0.00109863 7.55337 0.20107 7.55337 0.44548V14.4813L0.758781 7.68667C0.585472 7.51336 0.30329 7.51336 0.129981 7.68667C-0.0433272 7.85998 -0.0433272 8.14216 0.129981 8.31547L7.68446 15.8699C7.70446 15.8899 7.7289 15.9099 7.75334 15.9255C7.76445 15.9322 7.77556 15.9366 7.78667 15.9433C7.8 15.9522 7.81555 15.9588 7.83111 15.9655C7.84666 15.9722 7.85999 15.9744 7.87554 15.9788C7.88887 15.9833 7.89998 15.9877 7.91332 15.9899C7.9422 15.9966 7.97109 15.9988 7.99997 15.9988C8.02886 15.9988 8.05774 15.9966 8.08662 15.9899C8.09996 15.9877 8.11329 15.9833 8.1244 15.9788C8.13995 15.9744 8.15328 15.9699 8.16883 15.9655C8.18439 15.9588 8.19772 15.9499 8.21327 15.9433C8.22438 15.9366 8.23549 15.9322 8.2466 15.9255C8.27104 15.9099 8.29326 15.8899 8.31548 15.8699L15.87 8.31547C16.0433 8.14216 16.0433 7.85998 15.87 7.68667H15.8677Z"/>
</svg>
