<svg fill="currentColor" width="16" height="16" viewBox="0 0 16 16" xmlns="http://www.w3.org/2000/svg">
<path d="M15.8678 7.68642L8.31444 0.130861C8.29444 0.110861 8.27 0.0908608 8.24556 0.0753052C8.23444 0.0686386 8.22111 0.0619719 8.21 0.0553052C8.19667 0.0486385 8.18333 0.0397497 8.16778 0.033083C8.15222 0.0264163 8.13667 0.0241941 8.12111 0.0197497C8.10778 0.0153052 8.09667 0.0108607 8.08333 0.00863851C8.02556 -0.0024726 7.96556 -0.0024726 7.91 0.00863851C7.89667 0.0108607 7.88556 0.0153052 7.87222 0.0197497C7.85667 0.0241941 7.84111 0.0286385 7.82778 0.033083C7.81222 0.0397497 7.79889 0.0464163 7.78556 0.0553052C7.77444 0.0619719 7.76111 0.0664163 7.75 0.0753052C7.72556 0.0908608 7.70333 0.110861 7.68111 0.130861L0.13 7.68642C-0.0433333 7.85975 -0.0433333 8.14197 0.13 8.31531C0.303333 8.48864 0.585556 8.48864 0.758889 8.31531L7.55667 1.51753V15.5553C7.55667 15.7998 7.75667 15.9998 8.00111 15.9998C8.24555 15.9998 8.44555 15.7998 8.44555 15.5553V1.51753L15.2433 8.31531C15.33 8.40197 15.4433 8.44642 15.5567 8.44642C15.67 8.44642 15.7833 8.40197 15.87 8.31531C16.0433 8.14197 16.0433 7.85975 15.87 7.68642H15.8678Z"/>
</svg>
