<svg fill="currentColor" width="16" height="17" viewBox="0 0 16 17" xmlns="http://www.w3.org/2000/svg">
<path d="M15.9272 8.24381C15.9272 8.24381 15.9383 8.22159 15.9449 8.21048C15.9516 8.19715 15.9605 8.18382 15.9672 8.16827C15.9738 8.15272 15.976 8.13938 15.9805 8.12383C15.9849 8.1105 15.9894 8.09939 15.9916 8.08606C16.0027 8.0283 16.0027 7.97053 15.9916 7.91277C15.9894 7.89943 15.9849 7.88833 15.9805 7.875C15.976 7.85944 15.9716 7.84389 15.9672 7.83056C15.9605 7.81501 15.9516 7.80168 15.9449 7.78835C15.9383 7.77724 15.9338 7.76613 15.9272 7.75502C15.9116 7.73058 15.8916 7.70836 15.8716 7.68615L8.31475 0.129972C8.14138 -0.0433241 7.85911 -0.0433241 7.68575 0.129972C7.51239 0.303269 7.51239 0.585431 7.68575 0.758728L14.4847 7.55506H0.44452C0.200034 7.55506 0 7.75502 0 7.99941C0 8.24381 0.200034 8.44376 0.44452 8.44376H14.4847L7.68575 15.2401C7.51239 15.4134 7.51239 15.6956 7.68575 15.8689C7.77243 15.9555 7.88578 15.9999 7.99914 15.9999C8.11249 15.9999 8.22584 15.9555 8.31252 15.8689L15.8694 8.3149C15.8894 8.29491 15.9094 8.27047 15.9249 8.24603L15.9272 8.24381Z"/>
</svg>
