<svg fill="currentColor" width="16" height="16" viewBox="0 0 16 16" xmlns="http://www.w3.org/2000/svg">
<path d="M14.2926 1.06333C12.8749 -0.354445 10.5687 -0.354445 9.15091 1.06333L1.1191 9.09742C0.941883 9.27464 0.941883 9.56319 1.1191 9.74041C1.29633 9.91764 1.58488 9.91764 1.7621 9.74041L9.79391 1.70633C10.8572 0.642999 12.5863 0.642999 13.6496 1.70633C14.713 2.76967 14.713 4.49872 13.6496 5.56206L4.65219 14.5595C4.30911 14.9026 3.85242 15.0912 3.36619 15.0912C2.87997 15.0912 2.42328 14.9026 2.0802 14.5595C1.73711 14.2164 1.54853 13.7597 1.54853 13.2735C1.54853 12.7873 1.73711 12.3306 2.0802 11.9875L11.0799 2.99233C11.4344 2.63789 12.0115 2.63789 12.3659 2.99233C12.5386 3.16501 12.6317 3.39222 12.6317 3.63533C12.6317 3.87844 12.5363 4.10565 12.3659 4.27833L4.33183 12.3101C4.15461 12.4874 4.15461 12.7759 4.33183 12.9531C4.50905 13.1304 4.79761 13.1304 4.97483 12.9531L13.0066 4.91906C13.3497 4.57597 13.5383 4.11928 13.5383 3.63306C13.5383 3.14683 13.3497 2.69014 13.0066 2.34706C12.2977 1.63817 11.1458 1.63817 10.4369 2.34706L1.43947 11.3468C0.376134 12.4101 0.376134 14.1392 1.43947 15.2025C1.97114 15.7342 2.66866 16 3.36847 16C4.06827 16 4.7658 15.7342 5.29746 15.2025L14.2949 6.20505C15.7127 4.78728 15.7127 2.48111 14.2949 1.06333H14.2926Z"/>
</svg>
