<svg fill="currentColor" width="16" height="16" viewBox="0 0 16 16" xmlns="http://www.w3.org/2000/svg">
<path d="M8.00103 15.9976C5.14733 15.9976 2.82532 13.6756 2.82532 10.8219C2.82532 10.1585 2.95236 9.50684 3.20173 8.8881C3.20173 8.88105 3.20644 8.87399 3.20879 8.86693C3.21114 8.85987 3.2135 8.85282 3.2182 8.84811C3.30995 8.62461 3.42288 8.40347 3.56168 8.17292L7.58226 0.256433C7.66225 0.098809 7.82458 0 8.00103 0C8.17747 0 8.3398 0.098809 8.41979 0.256433L12.4404 8.17292C12.5792 8.40347 12.6921 8.62461 12.7839 8.85046C12.7862 8.85752 12.7886 8.86223 12.7909 8.86928C12.7933 8.87634 12.7956 8.8834 12.798 8.89046C13.0473 9.50919 13.1744 10.1585 13.1744 10.8243C13.1744 13.678 10.8524 16 7.99867 16L8.00103 15.9976ZM4.08631 9.20806C4.08631 9.20806 4.08396 9.21747 4.0816 9.21982C3.87222 9.73504 3.76636 10.2714 3.76636 10.8219C3.76636 13.1557 5.66725 15.0566 8.00103 15.0566C10.3348 15.0566 12.2357 13.1557 12.2357 10.8219C12.2357 10.2738 12.1298 9.73504 11.9205 9.22453C11.9205 9.22453 11.9205 9.22453 11.9205 9.22217C11.9205 9.21747 11.9181 9.21276 11.9157 9.21041C11.8405 9.02691 11.744 8.84105 11.6287 8.64579C11.624 8.63638 11.617 8.62697 11.6123 8.61756L8.00338 1.51272L4.3945 8.61756C4.3945 8.61756 4.38509 8.63638 4.37803 8.64579C4.2604 8.84105 4.1663 9.02456 4.09101 9.21041L4.08631 9.20806Z"/>
</svg>
