<svg fill="currentColor" width="16" height="16" viewBox="0 0 16 16" xmlns="http://www.w3.org/2000/svg">
<path d="M7.99993 16C4.83327 16 2.25549 13.4222 2.25549 10.2556C2.25549 8.87334 3.00882 7.26445 4.0866 6.34667C4.99549 5.57112 5.56438 4.90223 5.87549 4.24001C6.13104 3.69112 6.28216 2.99557 6.41549 2.38223C6.52882 1.85112 6.6466 1.30001 6.83549 0.882234C7.09771 0.29779 7.48882 1.21593e-05 7.99993 1.21593e-05C8.51104 1.21593e-05 8.90215 0.29779 9.1666 0.882234C9.35326 1.29779 9.4666 1.82446 9.58438 2.38223C9.71771 2.99779 9.8666 3.69112 10.1266 4.24223C10.4377 4.90223 11.0066 5.57112 11.911 6.34445C12.991 7.26223 13.7444 8.86889 13.7444 10.2533C13.7444 13.42 11.1666 15.9978 7.99993 15.9978V16ZM7.99993 0.8889C7.93771 0.8889 7.8066 0.8889 7.6466 1.24446C7.49771 1.57779 7.38882 2.08223 7.28438 2.5689C7.14215 3.2289 6.97993 3.97779 6.67993 4.61779C6.31327 5.39779 5.67105 6.16223 4.66438 7.02223C3.78438 7.77334 3.14438 9.13334 3.14438 10.2556C3.14438 12.9333 5.32216 15.1111 7.99993 15.1111C10.6777 15.1111 12.8555 12.9311 12.8555 10.2556C12.8555 9.13112 12.2155 7.77334 11.3355 7.02445C10.331 6.16667 9.69326 5.40445 9.32438 4.62668C9.02215 3.98223 8.85993 3.23557 8.71771 2.57557C8.60882 2.06223 8.50438 1.58001 8.35771 1.25112C8.19771 0.893345 8.0666 0.893345 8.00215 0.893345L7.99993 0.8889Z"/>
</svg>
