<svg fill="currentColor" width="16" height="16" viewBox="0 0 16 16" xmlns="http://www.w3.org/2000/svg">
<path d="M10.6666 15.9999H5.33331C5.08887 15.9999 4.88887 15.7999 4.88887 15.5555V11.1111H0.444443C0.199999 11.1111 0 10.9111 0 10.6666V5.33331C0 5.08887 0.199999 4.88887 0.444443 4.88887H4.88887V0.444443C4.88887 0.199999 5.08887 0 5.33331 0H10.6666C10.9111 0 11.1111 0.199999 11.1111 0.444443V4.88887H15.5555C15.7999 4.88887 15.9999 5.08887 15.9999 5.33331V10.6666C15.9999 10.9111 15.7999 11.1111 15.5555 11.1111H11.1111V15.5555C11.1111 15.7999 10.9111 15.9999 10.6666 15.9999ZM5.77776 15.1111H10.2222V10.6666C10.2222 10.4222 10.4222 10.2222 10.6666 10.2222H15.1111V5.77776H10.6666C10.4222 5.77776 10.2222 5.57776 10.2222 5.33331V0.888886H5.77776V5.33331C5.77776 5.57776 5.57776 5.77776 5.33331 5.77776H0.888886V10.2222H5.33331C5.57776 10.2222 5.77776 10.4222 5.77776 10.6666V15.1111Z"/>
</svg>
