<svg fill="currentColor" width="16" height="17" viewBox="0 0 16 17" xmlns="http://www.w3.org/2000/svg">
<path d="M15.9877 0.494576C15.9846 0.476145 15.9785 0.457713 15.9724 0.442354C15.9662 0.42085 15.9601 0.402419 15.9539 0.380916C15.9447 0.359412 15.9324 0.340981 15.9232 0.319478C15.914 0.304118 15.9078 0.288759 15.8986 0.273399C15.8525 0.205818 15.7973 0.147451 15.7297 0.104445C15.7143 0.095229 15.6959 0.0860133 15.6805 0.0767975C15.6621 0.0675818 15.6437 0.0552941 15.6222 0.0460784C15.6007 0.0368627 15.5791 0.033791 15.5576 0.0276472C15.5392 0.0215034 15.5239 0.0153595 15.5054 0.0122876C15.4655 0.00307189 15.4256 0 15.3856 0H0.615916C0.278007 0 0.00153597 0.276471 0.00153597 0.61438C0.00153597 0.95229 0.278007 1.22876 0.615916 1.22876H13.9019L0.179706 14.9509C-0.0599021 15.1906 -0.0599021 15.5807 0.179706 15.8203C0.29951 15.9401 0.456177 16.0015 0.612844 16.0015C0.769511 16.0015 0.926179 15.9401 1.04598 15.8203L14.7712 2.09811V15.3841C14.7712 15.722 15.0477 15.9985 15.3856 15.9985C15.7235 15.9985 16 15.722 16 15.3841V0.61438C16 0.574446 15.9969 0.534511 15.9877 0.494576Z"/>
</svg>
