<svg fill="currentColor" width="16" height="16" viewBox="0 0 16 16" xmlns="http://www.w3.org/2000/svg">
<path d="M3.95347 16C3.86236 16 3.77125 15.9711 3.69126 15.9156C3.52237 15.7933 3.46237 15.5689 3.54459 15.3778L6.10455 9.52454H2.3335C2.14906 9.52454 1.98461 9.41121 1.91795 9.23788C1.85128 9.06455 1.90017 8.87122 2.03795 8.74677L11.7511 0.111346C11.9067 -0.0264298 12.1378 -0.0375407 12.3067 0.0846797C12.4756 0.2069 12.5356 0.431341 12.4533 0.62245L9.89339 6.4757H13.6667C13.8511 6.4757 14.0155 6.58903 14.0822 6.76236C14.1489 6.93569 14.1 7.12902 13.9622 7.25346L4.24902 15.8889C4.16458 15.9622 4.06014 16 3.95347 16ZM3.50237 8.63566H6.78677C6.93565 8.63566 7.07565 8.71122 7.15787 8.83788C7.24009 8.96455 7.25342 9.12232 7.19343 9.2601L5.17346 13.88L12.4978 7.36902H9.2134C9.06451 7.36902 8.92451 7.29346 8.84229 7.1668C8.76007 7.04013 8.74674 6.88236 8.80674 6.74458L10.8267 2.12465L3.50237 8.63566Z"/>
</svg>
