<svg fill="currentColor" width="16" height="16" viewBox="0 0 16 16" xmlns="http://www.w3.org/2000/svg">
<path d="M7.59243 15.9992C5.43839 15.9992 3.28436 15.1806 1.64456 13.5408C0.983393 12.8796 0.448163 12.145 0.0546118 11.3553C-0.0450878 11.1532 -0.00573267 10.9092 0.154312 10.7492L0.172677 10.7308C0.332721 10.5708 0.5741 10.5314 0.778746 10.6311C3.61756 12.0453 7.02309 11.4917 9.25847 9.25895C11.4912 7.02621 12.0448 3.61805 10.6306 0.779235C10.5309 0.577212 10.5703 0.33321 10.7303 0.173165L10.7487 0.1548C10.9088 -0.00524439 11.1528 -0.0445996 11.3548 0.0551001C12.1471 0.451275 12.8818 0.986505 13.5403 1.64505C16.8199 4.92464 16.8199 10.2612 13.5403 13.5408C11.9005 15.1806 9.74647 15.9992 7.59243 15.9992ZM1.80198 12.145C1.98301 12.3706 2.17717 12.5884 2.38706 12.7983C5.25736 15.6686 9.9275 15.6686 12.7978 12.7983C15.6681 9.92799 15.6681 5.25785 12.7978 2.38755C12.5879 2.17765 12.3701 1.9835 12.1445 1.80247C12.9526 4.68851 12.1707 7.82905 10.001 9.99883C7.82856 12.1712 4.68802 12.9505 1.80198 12.1424V12.145Z"/>
</svg>
