<svg fill="currentColor" width="16" height="16" viewBox="0 0 16 16" xmlns="http://www.w3.org/2000/svg">
<path d="M15.5555 9.79238H12C11.8155 9.79238 11.6488 9.90794 11.5844 10.0813L10.7088 12.4057L7.53553 2.09241C7.47997 1.91241 7.31553 1.78575 7.12664 1.77908C6.93997 1.77241 6.76442 1.88575 6.69553 2.0613L3.69554 9.79016H0.444443C0.199999 9.79016 0 9.99016 0 10.2346C0 10.479 0.199999 10.679 0.444443 10.679H3.99998C4.18443 10.679 4.34887 10.5657 4.41332 10.3946L7.0622 3.57463L10.2422 13.9079C10.2977 14.0901 10.4644 14.2146 10.6533 14.2213C10.6577 14.2213 10.6622 14.2213 10.6666 14.2213C10.8511 14.2213 11.0177 14.1079 11.0822 13.9324L12.3066 10.6768H15.5555C15.7999 10.6768 15.9999 10.4768 15.9999 10.2324C15.9999 9.98794 15.7999 9.78794 15.5555 9.78794V9.79238Z"/>
</svg>
