<svg fill="currentColor" width="16" height="16" viewBox="0 0 16 16" xmlns="http://www.w3.org/2000/svg">
<path d="M11.9606 8.00112C12.2405 7.7767 12.4649 7.49674 12.6205 7.1679C13.2737 5.78809 12.6782 4.08389 11.1429 2.93294L10.123 2.13749V0.444398C10.123 0.199987 9.92307 1.52588e-05 9.67866 1.52588e-05C9.43425 1.52588e-05 9.23428 0.199987 9.23428 0.444398V2.35302C9.23428 2.49078 9.29649 2.61965 9.40537 2.70408L10.603 3.63951C11.7961 4.53494 12.285 5.7992 11.8161 6.78795C11.5095 7.43453 10.7585 7.79004 9.69644 7.79004C9.2876 7.79004 8.69213 7.7056 8.10333 7.56784C7.4412 7.41009 6.78573 7.32121 6.3058 7.32121C5.80142 7.32121 5.34593 7.39009 4.94821 7.51896C4.59715 7.3501 4.33719 7.10791 4.1861 6.78795C3.71727 5.7992 4.20609 4.53494 5.40592 3.63284L6.59465 2.70408C6.7013 2.61965 6.76573 2.49078 6.76573 2.35302V0.444398C6.76573 0.199987 6.56576 1.52588e-05 6.32135 1.52588e-05C6.07694 1.52588e-05 5.87697 0.199987 5.87697 0.444398V2.13749L4.86378 2.92849C3.32399 4.08389 2.7263 5.78809 3.37954 7.1679C3.53285 7.4923 3.75727 7.77004 4.03945 7.99667C3.75949 8.22109 3.53508 8.50105 3.37954 8.82989C2.7263 10.2097 3.32177 11.9139 4.85711 13.0649L5.87697 13.8603V15.5534C5.87697 15.7978 6.07694 15.9978 6.32135 15.9978C6.56576 15.9978 6.76573 15.7978 6.76573 15.5534V13.6448C6.76573 13.507 6.70352 13.3781 6.59465 13.2937L5.39704 12.3583C4.20387 11.4629 3.71505 10.1986 4.18387 9.20984C4.4905 8.56326 5.2415 8.20776 6.30358 8.20776C6.71241 8.20776 7.30788 8.29219 7.89669 8.42995C8.55882 8.5877 9.21428 8.67658 9.69421 8.67658C10.1986 8.67658 10.6541 8.6077 11.0518 8.47883C11.4029 8.64769 11.6628 8.88988 11.8139 9.20984C12.2827 10.1986 11.7939 11.4629 10.5941 12.365L9.40537 13.2959C9.29649 13.3804 9.23428 13.5092 9.23428 13.647V15.5556C9.23428 15.8 9.43425 16 9.67866 16C9.92307 16 10.123 15.8 10.123 15.5556V13.8625L11.1362 13.0715C12.676 11.9161 13.2737 10.2119 12.6205 8.83211C12.4672 8.50771 12.2427 8.22998 11.9606 8.00334V8.00112Z"/>
</svg>
