<svg fill="currentColor" width="16" height="16" viewBox="0 0 16 16" xmlns="http://www.w3.org/2000/svg">
<path d="M15.0555 4.2289C14.94 4.01334 14.6711 3.93112 14.4533 4.04668C14.2378 4.16223 14.1555 4.43112 14.2711 4.6489C14.82 5.67334 15.1089 6.83112 15.1089 8.00001C15.1089 11.92 11.9178 15.1111 7.99777 15.1111C4.07777 15.1111 0.888888 11.92 0.888888 8.00001C0.888888 4.08001 4.08 0.888903 7.99999 0.888903C9.50888 0.888903 10.9444 1.35779 12.1444 2.22224H11.1111C10.8667 2.22224 10.6667 2.42224 10.6667 2.66668C10.6667 2.91112 10.8667 3.11112 11.1111 3.11112H13.3333C13.4578 3.11112 13.5711 3.06001 13.6511 2.97557C13.6511 2.97557 13.6555 2.97335 13.6555 2.97112C13.7644 2.86223 13.8044 2.7089 13.7755 2.5689V0.444459C13.7755 0.200015 13.5755 1.52588e-05 13.3311 1.52588e-05C13.0867 1.52588e-05 12.8867 0.200015 12.8867 0.444459V1.6689C11.4933 0.586681 9.7911 1.52588e-05 7.99777 1.52588e-05C3.58889 1.52588e-05 0 3.5889 0 8.00001C0 12.4111 3.58889 16 7.99999 16C12.4111 16 16 12.4111 16 8.00001C16 6.68445 15.6733 5.38001 15.0555 4.2289Z"/>
</svg>
