<svg fill="currentColor" width="16" height="16" viewBox="0 0 16 16" xmlns="http://www.w3.org/2000/svg">
<path d="M10.419 15.9978C10.419 15.9978 10.4012 15.9978 10.3945 15.9978C9.59697 15.9822 8.74387 15.1158 8.74387 12.7276C8.74387 11.7168 8.27511 10.5482 7.99963 10.2705C7.72416 10.5482 7.2554 11.7168 7.2554 12.7276C7.2554 15.1136 6.4023 15.9822 5.60475 15.9978C5.59586 15.9978 5.58698 15.9978 5.58031 15.9978C4.31622 15.9978 3.66529 14.125 3.59642 12.3721C3.54754 11.1191 2.70111 8.95974 2.01908 7.22245C1.78581 6.62928 1.56588 6.06944 1.39926 5.59624C0.819417 3.96558 0.939384 2.14831 1.69917 1.07528C2.19459 0.37103 2.9255 2.28882e-05 3.80969 2.28882e-05C5.20042 2.28882e-05 5.78692 0.442122 6.30455 0.833124C6.73776 1.1597 7.08211 1.41963 7.95742 1.41963C8.83274 1.41963 9.20152 1.1597 9.65917 0.82868C10.1968 0.442122 10.8077 0.00224449 12.1918 0.00224449C13.076 0.00224449 13.8069 0.373252 14.3023 1.0775C15.0599 2.15053 15.1799 3.9678 14.6022 5.59846C14.4356 6.06944 14.2157 6.6315 13.9824 7.22467C13.3026 8.95974 12.4562 11.1191 12.4051 12.3743C12.3362 14.1272 11.6853 16 10.4212 16L10.419 15.9978ZM7.99963 9.34408C8.99713 9.34408 9.63251 11.5657 9.63251 12.7276C9.63251 14.5137 10.1568 15.1025 10.4123 15.1091H10.4167C10.7655 15.1091 11.4387 14.3027 11.5164 12.3366C11.572 10.9325 12.4117 8.7909 13.1538 6.8981C13.3826 6.31159 13.6003 5.75842 13.7647 5.29854C14.2446 3.95003 14.1668 2.42379 13.5781 1.58625C13.2515 1.12193 12.785 0.888664 12.194 0.888664C11.0965 0.888664 10.6722 1.19524 10.1812 1.54848C9.68805 1.90394 9.12821 2.30827 7.95965 2.30827C6.79108 2.30827 6.24679 1.90171 5.77137 1.54404C5.30705 1.19302 4.90494 0.890885 3.81191 0.890885C3.22097 0.890885 2.75443 1.12638 2.42786 1.58847C1.83691 2.42379 1.76138 3.95003 2.24124 5.30077C2.40342 5.75842 2.62114 6.31382 2.85218 6.90032C3.5942 8.7909 4.43396 10.9347 4.4895 12.3388C4.56726 14.3027 5.24263 15.1114 5.5892 15.1114H5.59364C5.84912 15.1069 6.37342 14.5182 6.37342 12.7298C6.37342 11.5679 7.0088 9.3463 8.0063 9.3463L7.99963 9.34408Z"/>
</svg>
