<svg fill="currentColor" width="16" height="16" viewBox="0 0 16 16" xmlns="http://www.w3.org/2000/svg">
<path d="M8.00126 16C7.9189 16 7.83889 15.9788 7.76594 15.9364C2.55577 12.9172 0.972008 8.70715 0.101294 2.89218C0.0659945 2.66392 0.204838 2.44271 0.423694 2.37446L7.85771 0.0211795C7.94949 -0.00705985 8.04833 -0.00705985 8.14246 0.0211795L15.5765 2.37446C15.7977 2.44506 15.9342 2.66392 15.8989 2.89218C14.7246 10.7357 12.096 13.6985 8.23424 15.9364C8.16129 15.9788 8.07892 16 7.99891 16H8.00126ZM1.09438 3.14869C2.21454 10.1638 4.57488 12.936 8.00126 14.9834C11.4276 12.936 13.7903 10.1615 14.9081 3.14869L8.00126 0.962493L1.09438 3.14869Z"/>
</svg>
