<svg fill="currentColor" width="16" height="16" viewBox="0 0 16 16" xmlns="http://www.w3.org/2000/svg">
<path d="M15.9889 0.357778C15.9867 0.344444 15.9822 0.331111 15.9778 0.32C15.9733 0.304444 15.9689 0.291111 15.9644 0.275556C15.9578 0.26 15.9489 0.246667 15.9422 0.231111C15.9356 0.22 15.9311 0.208889 15.9244 0.197778C15.8911 0.148889 15.8489 0.106667 15.8022 0.0755556C15.7911 0.0688889 15.78 0.0644445 15.7689 0.0577778C15.7556 0.0488889 15.74 0.0422222 15.7244 0.0355555C15.7089 0.0288889 15.6956 0.0266666 15.68 0.0222222C15.6667 0.0177778 15.6556 0.0133334 15.6422 0.0111112C15.6133 0.00444449 15.5844 0.00222227 15.5556 0.00222227H10.6667C10.4222 0.00222227 10.2222 0.202222 10.2222 0.446667C10.2222 0.691111 10.4222 0.891111 10.6667 0.891111H14.4822L8 7.37333L1.51556 0.888889H5.33111C5.57556 0.888889 5.77556 0.688889 5.77556 0.444444C5.77556 0.2 5.57556 0 5.33111 0H0.442222C0.413333 0 0.384444 0.00222221 0.355556 0.00888888C0.342222 0.0111111 0.328889 0.0155556 0.317778 0.02C0.302222 0.0244445 0.288889 0.0288889 0.273333 0.0333334C0.257778 0.04 0.244444 0.0488889 0.228889 0.0555556C0.217778 0.0622222 0.206667 0.0666666 0.195555 0.0733333C0.146667 0.106667 0.104444 0.148889 0.0733333 0.195556C0.0666666 0.206667 0.0622222 0.217778 0.0555556 0.228889C0.0466667 0.242222 0.0399999 0.257778 0.0333332 0.273333C0.0266666 0.288889 0.0244444 0.302222 0.0199999 0.317778C0.0155555 0.331111 0.0111111 0.342222 0.00888888 0.355556C0.00222221 0.384444 0 0.413333 0 0.442222V5.33111C0 5.57556 0.2 5.77556 0.444444 5.77556C0.688889 5.77556 0.888889 5.57556 0.888889 5.33111V1.51778L7.55556 8.18445V15.5556C7.55556 15.8 7.75556 16 8 16C8.24444 16 8.44444 15.8 8.44444 15.5556V8.18445L15.1111 1.51778V5.33333C15.1111 5.57778 15.3111 5.77778 15.5556 5.77778C15.8 5.77778 16 5.57778 16 5.33333V0.444444C16 0.415556 15.9978 0.386667 15.9911 0.357778H15.9889Z"/>
</svg>
