<svg fill="currentColor" width="16" height="16" viewBox="0 0 16 16" xmlns="http://www.w3.org/2000/svg">
<path d="M15.9272 8.24622C15.9272 8.24622 15.9383 8.22399 15.945 8.21288C15.9539 8.19954 15.9605 8.18398 15.9672 8.16842C15.9739 8.15285 15.9761 8.13952 15.9805 8.12396C15.985 8.11062 15.9894 8.0995 15.9917 8.08616C16.0028 8.02837 16.0028 7.97057 15.9917 7.91277C15.9894 7.89943 15.985 7.8861 15.9805 7.87498C15.9761 7.85942 15.9717 7.84608 15.9672 7.83052C15.9605 7.81496 15.9517 7.80162 15.945 7.78606C15.9383 7.77495 15.9339 7.76383 15.9272 7.75272C15.9116 7.72826 15.8916 7.70603 15.8716 7.6838L11.8702 3.68241C11.6968 3.50902 11.4145 3.50902 11.2411 3.68241C11.0677 3.85581 11.0677 4.13813 11.2411 4.31152L14.4845 7.55487H1.51553L4.75887 4.31152C4.93227 4.13813 4.93227 3.85581 4.75887 3.68241C4.58548 3.50902 4.30316 3.50902 4.12977 3.68241L0.128378 7.6838C0.108371 7.70381 0.088364 7.72826 0.0728031 7.75272C0.0661341 7.76383 0.0616881 7.77495 0.0550191 7.78606C0.0461271 7.7994 0.0394581 7.81496 0.0327891 7.83052C0.0261201 7.84608 0.0238971 7.85942 0.0194511 7.87498C0.0150051 7.88832 0.0105592 7.89943 0.00833623 7.91277C-0.00277874 7.97057 -0.00277874 8.02837 0.00833623 8.08616C0.0105592 8.0995 0.0150051 8.11284 0.0194511 8.12396C0.0238971 8.13952 0.0283431 8.15285 0.0327891 8.16842C0.0394581 8.18398 0.0483501 8.19731 0.0550191 8.21288C0.0616881 8.22399 0.0661341 8.23511 0.0728031 8.24622C0.088364 8.27067 0.108371 8.2929 0.128378 8.31513L4.12977 12.3165C4.21646 12.4032 4.32984 12.4477 4.44321 12.4477C4.55658 12.4477 4.66995 12.4032 4.75665 12.3165C4.93005 12.1431 4.93005 11.8608 4.75665 11.6874L1.5133 8.44407H14.4823L11.2389 11.6874C11.0655 11.8608 11.0655 12.1431 11.2389 12.3165C11.3256 12.4032 11.439 12.4477 11.5523 12.4477C11.6657 12.4477 11.7791 12.4032 11.8658 12.3165L15.8672 8.31513C15.8872 8.29513 15.9072 8.27067 15.9228 8.24622H15.9272Z"/>
</svg>
