<svg fill="currentColor" width="16" height="16" viewBox="0 0 16 16" xmlns="http://www.w3.org/2000/svg">
<path d="M15.943 6.09335C15.8738 5.8801 15.7434 5.69191 15.568 5.55223C15.3926 5.41255 15.1801 5.32755 14.9567 5.3078L10.7155 4.94217L9.05304 0.988749C8.96648 0.781305 8.82048 0.60411 8.63342 0.479473C8.44637 0.354836 8.22661 0.28833 8.00184 0.28833C7.77706 0.28833 7.55731 0.354836 7.37025 0.479473C7.18319 0.60411 7.03719 0.781305 6.95064 0.988749L5.29314 4.94217L1.04693 5.30995C0.822719 5.32879 0.60906 5.41341 0.432748 5.55319C0.256437 5.69298 0.12532 5.8817 0.0558408 6.09571C-0.0136385 6.30971 -0.0183875 6.53947 0.0421895 6.75616C0.102766 6.97286 0.225973 7.16684 0.396358 7.31379L3.6178 10.1289L2.65229 14.3094C2.60124 14.5282 2.61581 14.7571 2.69417 14.9677C2.77254 15.1782 2.91123 15.361 3.09291 15.4931C3.27458 15.6253 3.49118 15.7009 3.71561 15.7106C3.94005 15.7203 4.16237 15.6637 4.35478 15.5477L7.99684 13.3339L11.6468 15.5477C11.8392 15.6637 12.0615 15.7203 12.2859 15.7106C12.5104 15.7009 12.727 15.6253 12.9086 15.4931C13.0903 15.361 13.229 15.1782 13.3074 14.9677C13.3857 14.7571 13.4003 14.5282 13.3492 14.3094L12.3844 10.1246L15.6052 7.31379C15.7755 7.16634 15.8985 6.9718 15.9586 6.75464C16.0187 6.53749 16.0133 6.30742 15.943 6.09335ZM14.8561 6.45041L11.6353 9.26122C11.4786 9.39758 11.362 9.57409 11.298 9.77176C11.2341 9.96944 11.2253 10.1808 11.2725 10.3831L12.2402 14.5708L8.59314 12.357C8.4152 12.2486 8.21088 12.1913 8.00255 12.1913C7.79422 12.1913 7.5899 12.2486 7.41197 12.357L3.76991 14.5708L4.73112 10.386C4.77836 10.1837 4.76955 9.9723 4.70563 9.77462C4.64171 9.57694 4.5251 9.40043 4.36835 9.26408L1.14619 6.4547C1.14593 6.45256 1.14593 6.4504 1.14619 6.44827L5.39098 6.08121C5.59822 6.06294 5.79654 5.98844 5.96455 5.86573C6.13256 5.74303 6.26388 5.57679 6.34434 5.38493L8.00184 1.43651L9.65862 5.38493C9.73908 5.57679 9.8704 5.74303 10.0384 5.86573C10.2064 5.98844 10.4047 6.06294 10.612 6.08121L14.8575 6.44827V6.45327L14.8561 6.45041Z"/>
</svg>
