<svg fill="currentColor" width="16" height="16" viewBox="0 0 16 16" xmlns="http://www.w3.org/2000/svg">
<path d="M15.943 6.09344C15.8738 5.8802 15.7434 5.69202 15.568 5.55235C15.3927 5.41268 15.1801 5.32768 14.9568 5.30793L10.7158 4.94232L9.05336 0.989082C8.96681 0.781648 8.82082 0.604461 8.63377 0.47983C8.44672 0.355199 8.22698 0.288696 8.00221 0.288696C7.77745 0.288696 7.55771 0.355199 7.37066 0.47983C7.18361 0.604461 7.03762 0.781648 6.95107 0.989082L5.29365 4.94232L1.04764 5.30936C0.823274 5.32806 0.609438 5.41264 0.432978 5.55246C0.256519 5.69228 0.125301 5.88112 0.0558012 6.09526C-0.0136986 6.30941 -0.0183823 6.53931 0.0423379 6.75611C0.103058 6.97291 0.226476 7.16693 0.397094 7.31383L3.61838 10.1288L2.65292 14.3091C2.60187 14.5279 2.61644 14.7568 2.6948 14.9673C2.77317 15.1779 2.91185 15.3606 3.09352 15.4928C3.27518 15.6249 3.49177 15.7005 3.71619 15.7103C3.94062 15.72 4.16293 15.6633 4.35533 15.5474L7.99722 13.3337L11.647 15.5474C11.8394 15.6633 12.0617 15.72 12.2861 15.7103C12.5105 15.7005 12.7271 15.6249 12.9088 15.4928C13.0904 15.3606 13.2291 15.1779 13.3075 14.9673C13.3858 14.7568 13.4004 14.5279 13.3494 14.3091L12.3846 10.1245L15.6052 7.31383C15.7755 7.16638 15.8985 6.97185 15.9586 6.7547C16.0187 6.53756 16.0133 6.3075 15.943 6.09344ZM14.8561 6.45049L11.6355 9.26117C11.4788 9.39751 11.3622 9.57401 11.2983 9.77168C11.2344 9.96935 11.2255 10.1807 11.2728 10.383L12.2404 14.5705L8.59348 12.3568C8.41556 12.2484 8.21125 12.1911 8.00293 12.1911V1.43753L9.65963 5.38506C9.74009 5.5769 9.8714 5.74314 10.0394 5.86584C10.2074 5.98853 10.4057 6.06303 10.6129 6.0813L14.8575 6.44834C14.8575 6.44834 14.8575 6.45263 14.8575 6.45334L14.8561 6.45049Z"/>
</svg>
