<svg width="208" height="40" viewBox="0 0 208 40" fill="none" xmlns="http://www.w3.org/2000/svg">
<mask id="mask0" mask-type="alpha" maskUnits="userSpaceOnUse" x="4" y="2" width="32" height="36">
<path d="M18 3.1547C19.2376 2.44017 20.7624 2.44017 22 3.1547L33.5885 9.8453C34.8261 10.5598 35.5885 11.8803 35.5885 13.3094V26.6906C35.5885 28.1197 34.8261 29.4402 33.5885 30.1547L22 36.8453C20.7624 37.5598 19.2376 37.5598 18 36.8453L6.41154 30.1547C5.17394 29.4402 4.41154 28.1197 4.41154 26.6906V13.3094C4.41154 11.8803 5.17394 10.5598 6.41154 9.8453L18 3.1547Z" fill="#F5F8FA"/>
</mask>
<g mask="url(#mask0)">
<path d="M42.5913 7.97216L32.6191 42.5634L-1.97216 32.5913L42.5913 7.97216Z" fill="#3E90B8"/>
</g>
<path d="M18 3.1547C19.2376 2.44017 20.7624 2.44017 22 3.1547L33.5885 9.8453C34.8261 10.5598 35.5885 11.8803 35.5885 13.3094V26.6906C35.5885 28.1197 34.8261 29.4402 33.5885 30.1547L22 36.8453C20.7624 37.5598 19.2376 37.5598 18 36.8453L6.41154 30.1547C5.17394 29.4402 4.41154 28.1197 4.41154 26.6906V13.3094C4.41154 11.8803 5.17394 10.5598 6.41154 9.8453L18 3.1547Z" fill="url(#paint0_linear)"/>
<path d="M58.9858 16.5653H62.5227C62.4716 13.4545 59.9148 11.3068 56.0284 11.3068C52.2017 11.3068 49.3977 13.4205 49.4148 16.5909C49.4062 19.1648 51.2216 20.6392 54.1705 21.3466L56.071 21.8239C57.9716 22.2841 59.0284 22.8295 59.0369 24.0057C59.0284 25.2841 57.8182 26.1534 55.9432 26.1534C54.0256 26.1534 52.6449 25.267 52.5256 23.5199H48.9545C49.0483 27.2955 51.75 29.2472 55.9858 29.2472C60.2472 29.2472 62.7528 27.2102 62.7614 24.0142C62.7528 21.108 60.5625 19.5653 57.5284 18.8835L55.9602 18.5085C54.4432 18.1591 53.1733 17.5966 53.1989 16.3438C53.1989 15.2188 54.196 14.392 56.0028 14.392C57.767 14.392 58.8494 15.1932 58.9858 16.5653ZM70.1302 29.2557C74.1018 29.2557 76.5734 26.5369 76.5734 22.5057C76.5734 18.4489 74.1018 15.7386 70.1302 15.7386C66.1586 15.7386 63.687 18.4489 63.687 22.5057C63.687 26.5369 66.1586 29.2557 70.1302 29.2557ZM70.1472 26.4432C68.3149 26.4432 67.3774 24.7642 67.3774 22.4801C67.3774 20.196 68.3149 18.5085 70.1472 18.5085C71.9455 18.5085 72.883 20.196 72.883 22.4801C72.883 24.7642 71.9455 26.4432 70.1472 26.4432ZM81.6049 11.5455H77.9742V29H81.6049V11.5455ZM91.9481 23.4261C91.9566 25.1818 90.7549 26.1023 89.451 26.1023C88.0788 26.1023 87.1924 25.1392 87.1839 23.5966V15.9091H83.5532V24.2443C83.5618 27.304 85.3515 29.1705 87.9851 29.1705C89.9538 29.1705 91.3686 28.1562 91.9566 26.6222H92.093V29H95.5788V15.9091H91.9481V23.4261ZM104.486 15.9091H102.023V12.7727H98.3922V15.9091H96.6025V18.6364H98.3922V25.4545C98.3752 28.0199 100.122 29.2898 102.756 29.179C103.693 29.1449 104.358 28.9574 104.725 28.8381L104.154 26.1364C103.975 26.1705 103.591 26.2557 103.25 26.2557C102.526 26.2557 102.023 25.983 102.023 24.9773V18.6364H104.486V15.9091ZM105.891 29H109.522V15.9091H105.891V29ZM107.715 14.2216C108.797 14.2216 109.684 13.3949 109.684 12.3807C109.684 11.375 108.797 10.5483 107.715 10.5483C106.641 10.5483 105.755 11.375 105.755 12.3807C105.755 13.3949 106.641 14.2216 107.715 14.2216ZM117.385 29.2557C121.356 29.2557 123.828 26.5369 123.828 22.5057C123.828 18.4489 121.356 15.7386 117.385 15.7386C113.413 15.7386 110.942 18.4489 110.942 22.5057C110.942 26.5369 113.413 29.2557 117.385 29.2557ZM117.402 26.4432C115.57 26.4432 114.632 24.7642 114.632 22.4801C114.632 20.196 115.57 18.5085 117.402 18.5085C119.2 18.5085 120.138 20.196 120.138 22.4801C120.138 24.7642 119.2 26.4432 117.402 26.4432ZM128.86 21.4318C128.868 19.7443 129.874 18.7557 131.34 18.7557C132.797 18.7557 133.675 19.7102 133.666 21.3125V29H137.297V20.6648C137.297 17.6136 135.507 15.7386 132.78 15.7386C130.837 15.7386 129.431 16.6932 128.842 18.2188H128.689V15.9091H125.229V29H128.86V21.4318ZM158.461 11.5455H154.788V22.5227H154.634L147.1 11.5455H143.861V29H147.552V18.0142H147.68L155.273 29H158.461V11.5455ZM164.215 29.2472C166.149 29.2472 167.402 28.4034 168.041 27.1847H168.144V29H171.587V20.1705C171.587 17.0511 168.945 15.7386 166.03 15.7386C162.894 15.7386 160.831 17.2386 160.328 19.625L163.686 19.8977C163.933 19.0284 164.709 18.3892 166.013 18.3892C167.249 18.3892 167.956 19.0114 167.956 20.0852V20.1364C167.956 20.9801 167.061 21.0909 164.786 21.3125C162.195 21.5511 159.868 22.4205 159.868 25.3438C159.868 27.9347 161.717 29.2472 164.215 29.2472ZM165.254 26.7415C164.138 26.7415 163.337 26.2216 163.337 25.2244C163.337 24.2017 164.181 23.6989 165.459 23.5199C166.252 23.4091 167.547 23.2216 167.982 22.9318V24.321C167.982 25.6932 166.848 26.7415 165.254 26.7415ZM173.444 29H177.074V21.142C177.074 19.6932 177.995 18.7301 179.205 18.7301C180.398 18.7301 181.199 19.5483 181.199 20.8352V29H184.719V21.0057C184.719 19.6506 185.495 18.7301 186.816 18.7301C187.975 18.7301 188.844 19.4545 188.844 20.9119V29H192.466V20.196C192.466 17.358 190.779 15.7386 188.341 15.7386C186.424 15.7386 184.932 16.7188 184.395 18.2188H184.259C183.841 16.7017 182.503 15.7386 180.705 15.7386C178.941 15.7386 177.603 16.6761 177.057 18.2188H176.904V15.9091H173.444V29ZM200.34 29.2557C203.579 29.2557 205.761 27.679 206.272 25.25L202.914 25.0284C202.547 26.0256 201.61 26.5455 200.4 26.5455C198.584 26.5455 197.434 25.3438 197.434 23.392V23.3835H206.349V22.3864C206.349 17.9375 203.655 15.7386 200.195 15.7386C196.343 15.7386 193.846 18.4744 193.846 22.5142C193.846 26.6648 196.309 29.2557 200.34 29.2557ZM197.434 21.1335C197.511 19.642 198.644 18.4489 200.255 18.4489C201.832 18.4489 202.922 19.5739 202.931 21.1335H197.434Z" fill="#080928"/>
<defs>
<linearGradient id="paint0_linear" x1="13.3742" y1="2" x2="26.5153" y2="38" gradientUnits="userSpaceOnUse">
<stop stop-color="#3E90B8" stop-opacity="0.6"/>
<stop offset="1" stop-color="#3E90B8"/>
</linearGradient>
</defs>
</svg>
