<svg fill="currentColor" width="16" height="16" viewBox="0 0 16 16" xmlns="http://www.w3.org/2000/svg">
<path d="M8 1.32C8 0.590984 8.59491 -0.0110897 9.31403 0.108655C9.91222 0.208263 10.4986 0.375801 11.0615 0.608963C12.0321 1.011 12.914 1.60028 13.6569 2.34315C14.3997 3.08601 14.989 3.96793 15.391 4.93853C15.6242 5.50144 15.7917 6.08778 15.8913 6.68597C16.0111 7.40509 15.409 8 14.68 8C13.951 8 13.376 7.40031 13.1983 6.69329C13.1346 6.44002 13.0524 6.19118 12.952 5.94882C12.6826 5.29851 12.2878 4.70763 11.7901 4.20991C11.2924 3.71219 10.7015 3.31737 10.0512 3.04801C9.80882 2.94762 9.55998 2.86538 9.3067 2.80172C8.59968 2.62399 8 2.04902 8 1.32Z"/>
</svg>
