<svg fill="currentColor" width="16" height="16" viewBox="0 0 16 16" xmlns="http://www.w3.org/2000/svg">
<path d="M8 1.32C8 0.590984 8.59491 -0.0110897 9.31403 0.108655C9.91222 0.208263 10.4986 0.375801 11.0615 0.608963C12.0321 1.011 12.914 1.60028 13.6569 2.34315C14.3997 3.08601 14.989 3.96793 15.391 4.93853C15.7931 5.90914 16 6.94942 16 8C16 9.05057 15.7931 10.0909 15.391 11.0615C14.989 12.0321 14.3997 12.914 13.6569 13.6569C12.914 14.3997 12.0321 14.989 11.0615 15.391C10.4986 15.6242 9.91222 15.7917 9.31403 15.8913C8.59491 16.0111 8 15.409 8 14.68C8 13.951 8.59968 13.376 9.3067 13.1983C9.55998 13.1346 9.80882 13.0524 10.0512 12.952C10.7015 12.6826 11.2924 12.2878 11.7901 11.7901C12.2878 11.2924 12.6826 10.7015 12.952 10.0512C13.2214 9.40088 13.36 8.70388 13.36 8C13.36 7.29611 13.2214 6.59912 12.952 5.94882C12.6826 5.29851 12.2878 4.70763 11.7901 4.20991C11.2924 3.71219 10.7015 3.31737 10.0512 3.04801C9.80882 2.94762 9.55998 2.86538 9.3067 2.80172C8.59968 2.62399 8 2.04902 8 1.32Z"/>
</svg>
