<svg fill="currentColor" width="16" height="16" viewBox="0 0 16 16" xmlns="http://www.w3.org/2000/svg">
<path d="M8 1.32C8 0.590984 8.59493 -0.0110973 9.31404 0.108651C10.4288 0.294276 11.4967 0.714871 12.4446 1.34824C13.7602 2.22729 14.7855 3.47672 15.391 4.93853C15.9965 6.40034 16.155 8.00887 15.8463 9.56072C15.5376 11.1126 14.7757 12.538 13.6569 13.6569C12.538 14.7757 11.1126 15.5376 9.56072 15.8463C8.00887 16.155 6.40034 15.9965 4.93853 15.391C3.47672 14.7855 2.22729 13.7602 1.34824 12.4446C0.714871 11.4967 0.294276 10.4288 0.108651 9.31404C-0.011097 8.59492 0.590984 8 1.32 8C2.04902 8 2.62399 8.5997 2.80172 9.30672C2.95061 9.89901 3.20043 10.4647 3.54332 10.9779C4.13229 11.8593 4.9694 12.5463 5.94882 12.952C6.92823 13.3577 8.00595 13.4638 9.04568 13.257C10.0854 13.0502 11.0405 12.5397 11.7901 11.7901C12.5397 11.0405 13.0502 10.0854 13.257 9.04568C13.4638 8.00595 13.3577 6.92823 12.952 5.94882C12.5463 4.9694 11.8593 4.13229 10.9779 3.54332C10.4647 3.20043 9.89901 2.95061 9.30672 2.80172C8.5997 2.62399 8 2.04902 8 1.32Z"/>
</svg>
