<svg xmlns="http://www.w3.org/2000/svg" fill="currentColor" width="16" height="16" viewBox="0 0 16 16"><path d="m15.69,4.37L11.63.31c-.2-.2-.47-.31-.75-.31h-5.74c-.28,0-.55.11-.75.31L.31,4.37c-.2.2-.31.47-.31.75v5.74c0,.28.11.55.31.75l4.17,4.17c.13.13.31.21.5.21h5.89c.28,0,.55-.11.75-.31l4.06-4.06c.2-.2.31-.47.31-.75v-5.74c0-.28-.11-.55-.31-.75Zm-7.69,9.13c-.69,0-1.25-.56-1.25-1.25s.56-1.25,1.25-1.25,1.25.56,1.25,1.25-.56,1.25-1.25,1.25Zm1.02-3.86c0,.1-.04.18-.11.26-.07.07-.16.11-.26.11h-1.26c-.1,0-.19-.04-.26-.11-.07-.07-.11-.16-.11-.26l-.53-6.27c0-.1.04-.18.11-.26.07-.07.16-.11.26-.11h2.38c.1,0,.19.04.26.11.07.07.11.16.11.26l-.59,6.27Z"/></svg>
