<svg width="24" height="24" viewBox="0 0 24 24" fill="currentColor" xmlns="http://www.w3.org/2000/svg">
<path d="M5.37214 23.9999H0.396429V7.97672H5.37214V23.9999ZM2.88161 5.79101C1.29054 5.79101 0 4.47315 0 2.88208C1.13882e-08 2.11783 0.303597 1.38488 0.844003 0.844476C1.38441 0.30407 2.11736 0.000473022 2.88161 0.000473022C3.64586 0.000473022 4.3788 0.30407 4.91921 0.844476C5.45962 1.38488 5.76321 2.11783 5.76321 2.88208C5.76321 4.47315 4.47214 5.79101 2.88161 5.79101ZM23.9946 23.9999H19.0296V16.1999C19.0296 14.341 18.9921 11.9571 16.4427 11.9571C13.8557 11.9571 13.4593 13.9767 13.4593 16.066V23.9999H8.48893V7.97672H13.2611V10.1624H13.3307C13.995 8.90351 15.6177 7.57494 18.0386 7.57494C23.0743 7.57494 24 10.891 24 15.1982V23.9999H23.9946Z"/>
</svg>
