<svg width="24" height="18" viewBox="0 0 24 18" fill="currentColor" xmlns="http://www.w3.org/2000/svg">
<path d="M21.5516 1H7.05411C5.88354 1.00132 4.93494 1.93161 4.93359 3.07959V5.35997C4.93359 5.624 5.15184 5.83804 5.42107 5.83804C5.69029 5.83804 5.90854 5.624 5.90854 5.35997V3.07959C5.90854 2.78227 6.02898 2.49712 6.24336 2.28688C6.45774 2.07664 6.7485 1.95852 7.05167 1.95852H21.5492C21.8524 1.95852 22.1431 2.07664 22.3575 2.28688C22.5719 2.49712 22.6923 2.78227 22.6923 3.07959V11.1828C22.6923 11.802 22.1805 12.3039 21.5492 12.3039H9.38668C9.11746 12.3039 8.89921 12.5179 8.89921 12.782C8.89921 13.046 9.11746 13.26 9.38668 13.26H21.5492C22.7198 13.2587 23.6684 12.3284 23.6697 11.1804V3.0772C23.667 1.93108 22.7203 1.00263 21.5516 1V1Z"  stroke="#14568d" stroke-width="0.4"/>
<path d="M10.676 5.83309H18.6169C18.8862 5.83309 19.1044 5.61905 19.1044 5.35502C19.1044 5.09099 18.8862 4.87695 18.6169 4.87695H10.676C10.4067 4.87695 10.1885 5.09099 10.1885 5.35502C10.1885 5.61905 10.4067 5.83309 10.676 5.83309Z"  stroke="#14568D" stroke-width="0.4"/>
<path d="M10.676 9.20027H16.4403C16.7096 9.20027 16.9278 8.98624 16.9278 8.72221C16.9278 8.45818 16.7096 8.24414 16.4403 8.24414H10.676C10.4067 8.24414 10.1885 8.45818 10.1885 8.72221C10.1885 8.98624 10.4067 9.20027 10.676 9.20027Z"  stroke="#14568D" stroke-width="0.4"/>
<path fill-rule="evenodd" clip-rule="evenodd" d="M8.13917 9.8101C8.13917 11.2477 6.9508 12.4132 5.48487 12.4132C4.0195 12.4119 2.83191 11.2472 2.83057 9.8101C2.83057 8.37247 4.01894 7.20703 5.48487 7.20703C6.9508 7.20703 8.13917 8.37247 8.13917 9.8101ZM7.15902 9.81013C7.15902 8.90319 6.40933 8.16797 5.48454 8.16797V8.17036C4.56125 8.17167 3.81274 8.90467 3.81006 9.81013C3.81006 10.7171 4.55975 11.4523 5.48454 11.4523C6.40933 11.4523 7.15902 10.7171 7.15902 9.81013Z" />
<path d="M5.48487 12.4132L5.48474 12.5632H5.48487V12.4132ZM2.83057 9.8101H2.68057L2.68057 9.81024L2.83057 9.8101ZM5.48454 8.16797V8.01797H5.33454V8.16797H5.48454ZM5.48454 8.17036L5.48475 8.32036L5.63454 8.32015V8.17036H5.48454ZM3.81006 9.81013L3.66006 9.80968V9.81013H3.81006ZM5.48487 12.5632C7.03088 12.5632 8.28917 11.3333 8.28917 9.8101H7.98917C7.98917 11.1622 6.87073 12.2632 5.48487 12.2632V12.5632ZM2.68057 9.81024C2.68199 11.3328 3.93939 12.5618 5.48474 12.5632L5.48501 12.2632C4.0996 12.2619 2.98183 11.1616 2.98057 9.80996L2.68057 9.81024ZM5.48487 7.05703C3.93887 7.05703 2.68057 8.28688 2.68057 9.8101H2.98057C2.98057 8.45805 4.09901 7.35703 5.48487 7.35703V7.05703ZM8.28917 9.8101C8.28917 8.28688 7.03088 7.05703 5.48487 7.05703V7.35703C6.87073 7.35703 7.98917 8.45805 7.98917 9.8101H8.28917ZM5.48454 8.31797C6.32925 8.31797 7.00902 8.98877 7.00902 9.81013H7.30902C7.30902 8.8176 6.4894 8.01797 5.48454 8.01797V8.31797ZM5.63454 8.17036V8.16797H5.33454V8.17036H5.63454ZM3.96006 9.81057C3.96249 8.99042 4.6413 8.32156 5.48475 8.32036L5.48432 8.02036C4.48121 8.02178 3.663 8.81891 3.66006 9.80968L3.96006 9.81057ZM5.48454 11.3023C4.63982 11.3023 3.96006 10.6315 3.96006 9.81013H3.66006C3.66006 10.8027 4.47967 11.6023 5.48454 11.6023V11.3023ZM7.00902 9.81013C7.00902 10.6315 6.32925 11.3023 5.48454 11.3023V11.6023C6.4894 11.6023 7.30902 10.8027 7.30902 9.81013H7.00902Z" />
<path fill-rule="evenodd" clip-rule="evenodd" d="M1 17.3338C1.00269 14.9058 3.00902 12.9382 5.48477 12.9355C7.95902 12.9408 9.96309 14.9073 9.96711 17.3338C9.96711 17.5978 9.74886 17.8118 9.47964 17.8118H1.48748C1.21825 17.8118 1 17.5978 1 17.3338ZM5.48449 13.8945C3.73599 13.8945 2.25454 15.1575 2.01123 16.8556H2.02098H8.95776C8.71445 15.1575 7.233 13.8945 5.48449 13.8945Z" />
<path d="M5.48477 12.9355L5.48499 12.8355L5.48467 12.8355L5.48477 12.9355ZM1 17.3338L0.9 17.3337V17.3338H1ZM9.96711 17.3338H10.0671L10.0671 17.3336L9.96711 17.3338ZM2.01123 16.8556L1.91224 16.8414L1.89588 16.9556H2.01123V16.8556ZM8.95776 16.8556V16.9556H9.07311L9.05675 16.8414L8.95776 16.8556ZM5.48467 12.8355C2.95561 12.8382 0.90275 14.8487 0.9 17.3337L1.1 17.3339C1.10262 14.9629 3.06243 13.0381 5.48488 13.0355L5.48467 12.8355ZM10.0671 17.3336C10.063 14.8502 8.01248 12.8409 5.48499 12.8355L5.48456 13.0355C7.90557 13.0407 9.86318 14.9643 9.86711 17.3339L10.0671 17.3336ZM9.47964 17.9118C9.80224 17.9118 10.0671 17.6548 10.0671 17.3338H9.86711C9.86711 17.5407 9.69548 17.7118 9.47964 17.7118V17.9118ZM1.48748 17.9118H9.47964V17.7118H1.48748V17.9118ZM0.9 17.3338C0.9 17.6548 1.16487 17.9118 1.48748 17.9118V17.7118C1.27163 17.7118 1.1 17.5407 1.1 17.3338H0.9ZM2.11022 16.8698C2.34627 15.2224 3.78427 13.9945 5.48449 13.9945V13.7945C3.68771 13.7945 2.16281 15.0926 1.91224 16.8414L2.11022 16.8698ZM2.02098 16.7556H2.01123V16.9556H2.02098V16.7556ZM8.95776 16.7556H2.02098V16.9556H8.95776V16.7556ZM5.48449 13.9945C7.18472 13.9945 8.62272 15.2224 8.85877 16.8698L9.05675 16.8414C8.80617 15.0926 7.28128 13.7945 5.48449 13.7945V13.9945Z" />
</svg>
