<svg width="24" height="24" viewBox="0 0 24 24" fill="currentColor" xmlns="http://www.w3.org/2000/svg">
<path d="M0 22.8182H4.36364V9.72727H0V22.8182ZM24 10.8182C24 9.61818 23.0182 8.63636 21.8182 8.63636H14.9345L15.9709 3.65091L16.0036 3.30182C16.0036 2.85455 15.8182 2.44 15.5236 2.14545L14.3673 1L7.18909 8.18909C6.78545 8.58182 6.54545 9.12727 6.54545 9.72727V20.6364C6.54545 21.8364 7.52727 22.8182 8.72727 22.8182H18.5455C19.4509 22.8182 20.2255 22.2727 20.5527 21.4873L23.8473 13.7964C23.9455 13.5455 24 13.2836 24 13V10.8182Z"/>
</svg>
