<svg width="18" height="20" viewBox="0 0 18 20" fill="none" xmlns="http://www.w3.org/2000/svg">
<path fill-rule="evenodd" clip-rule="evenodd" d="M2.625 2C2.39294 2 2.17038 2.10536 2.00628 2.29289C1.84219 2.48043 1.75 2.73478 1.75 3V16.5858L3.75628 14.2929C3.92038 14.1054 4.14294 14 4.375 14H14.875C15.1071 14 15.3296 13.8946 15.4937 13.7071C15.6578 13.5196 15.75 13.2652 15.75 13V3C15.75 2.73478 15.6578 2.48043 15.4937 2.29289C15.3296 2.10536 15.1071 2 14.875 2H2.625ZM0.768845 0.87868C1.26113 0.31607 1.92881 0 2.625 0H14.875C15.5712 0 16.2389 0.31607 16.7312 0.87868C17.2234 1.44129 17.5 2.20435 17.5 3V13C17.5 13.7956 17.2234 14.5587 16.7312 15.1213C16.2389 15.6839 15.5712 16 14.875 16H4.73744L1.49372 19.7071C1.24347 19.9931 0.867117 20.0787 0.540152 19.9239C0.213187 19.7691 0 19.4045 0 19V3C0 2.20435 0.276562 1.44129 0.768845 0.87868Z" fill="black"/>
</svg>
