<svg xmlns="http://www.w3.org/2000/svg" width="12" height="6" viewBox="0 0 12 6" fill="none">
<path fill-rule="evenodd" clip-rule="evenodd" d="M11.25 0.666667C11.25 0.847223 11.1851 1.00347 11.0552 1.13542L6.46143 5.80208C6.33154 5.93403 6.17774 6 6 6C5.82226 6 5.66846 5.93403 5.53857 5.80208L0.944824 1.13542C0.814941 1.00347 0.75 0.847223 0.75 0.666667C0.75 0.48611 0.814941 0.329862 0.944824 0.197917C1.07471 0.0659716 1.22851 0 1.40625 0H10.5938C10.7715 0 10.9253 0.0659716 11.0552 0.197917C11.1851 0.329862 11.25 0.48611 11.25 0.666667Z" />
<path fill-rule="evenodd" clip-rule="evenodd" d="M11.25 0.666667C11.25 0.847223 11.1851 1.00347 11.0552 1.13542L6.46143 5.80208C6.33154 5.93403 6.17774 6 6 6C5.82226 6 5.66846 5.93403 5.53857 5.80208L0.944824 1.13542C0.814941 1.00347 0.75 0.847223 0.75 0.666667C0.75 0.48611 0.814941 0.329862 0.944824 0.197917C1.07471 0.0659716 1.22851 0 1.40625 0H10.5938C10.7715 0 10.9253 0.0659716 11.0552 0.197917C11.1851 0.329862 11.25 0.48611 11.25 0.666667Z" />
</svg>