<svg width="22" height="18" viewBox="0 0 22 18" fill="none" xmlns="http://www.w3.org/2000/svg">
<path fill-rule="evenodd" clip-rule="evenodd" d="M6.56781 12.8666C6.91908 12.5153 7.4886 12.5153 7.83987 12.8666L10.8018 15.8285L13.7636 12.8666C14.1149 12.5153 14.6844 12.5153 15.0357 12.8666C15.387 13.2179 15.387 13.7874 15.0357 14.1387L11.4378 17.7366C11.0865 18.0878 10.517 18.0878 10.1657 17.7366L6.56781 14.1387C6.21655 13.7874 6.21655 13.2179 6.56781 12.8666Z" fill="black"/>
<path fill-rule="evenodd" clip-rule="evenodd" d="M10.8018 8.10576C11.2985 8.10576 11.7012 8.50847 11.7012 9.00524V17.1005C11.7012 17.5973 11.2985 18 10.8018 18C10.305 18 9.90227 17.5973 9.90227 17.1005V9.00524C9.90227 8.50847 10.305 8.10576 10.8018 8.10576Z" fill="black"/>
<path fill-rule="evenodd" clip-rule="evenodd" d="M7.80437 0.00523004C9.02809 -0.0387772 10.2459 0.195399 11.366 0.69013C12.4861 1.18486 13.4794 1.92725 14.2711 2.86142C14.9102 3.6155 15.4044 4.47868 15.7313 5.40735L16.198 5.40735C17.3449 5.4066 18.463 5.77127 19.3887 6.44847C20.3145 7.12581 21.0005 8.08056 21.347 9.17417C21.6935 10.2678 21.6825 11.4434 21.3156 12.5303C20.9487 13.6172 20.245 14.559 19.3066 15.2188C18.9002 15.5046 18.3391 15.4068 18.0534 15.0005C17.7676 14.5941 17.8654 14.0331 18.2718 13.7473C18.8974 13.3074 19.3665 12.6796 19.6111 11.9549C19.8557 11.2303 19.8631 10.4466 19.6321 9.71752C19.4011 8.98844 18.9438 8.35194 18.3265 7.90038C17.7092 7.44882 16.9642 7.2057 16.1994 7.2063L15.0653 7.2063C14.6547 7.2063 14.2961 6.92816 14.1941 6.53038C13.9574 5.60787 13.5144 4.75107 12.8987 4.0245C12.2829 3.29793 11.5104 2.72051 10.6392 2.33572C9.76795 1.95093 8.8208 1.7688 7.86902 1.80302C6.91723 1.83725 5.98561 2.08695 5.1443 2.53333C4.30298 2.9797 3.57389 3.61112 3.01191 4.38005C2.44993 5.14897 2.06971 6.03537 1.89988 6.9725C1.73004 7.90964 1.77501 8.87309 2.03141 9.79033C2.2878 10.7076 2.74894 11.5547 3.3801 12.2679C3.70931 12.6399 3.67461 13.2084 3.30259 13.5376C2.93057 13.8668 2.36211 13.8321 2.0329 13.4601C1.2214 12.5431 0.628514 11.4539 0.298864 10.2746C-0.030786 9.09532 -0.0886069 7.85659 0.129755 6.65171C0.348116 5.44682 0.836969 4.30717 1.55951 3.31855C2.28206 2.32993 3.21946 1.5181 4.30115 0.944193C5.38285 0.370281 6.58064 0.0492373 7.80437 0.00523004Z" fill="black"/>
</svg>
