<svg width="16" height="16" viewBox="0 0 16 16" fill="none" xmlns="http://www.w3.org/2000/svg">
<g id="edit">
<path id="&#240;&#159;&#150;&#141; icon color" fill-rule="evenodd" clip-rule="evenodd" d="M9.96354 1.84117C9.94878 1.8529 9.93456 1.86558 9.92097 1.87922L0.778116 11.0545C0.766444 11.0752 0.754799 11.0947 0.743545 11.1135C0.691872 11.2002 0.64843 11.273 0.64843 11.3798L0 15.3493C0 15.5445 0 15.6747 0.129686 15.8699C0.185139 15.9187 0.336764 16 0.518744 16L4.47416 15.2842C4.49293 15.2802 4.51051 15.2769 4.52726 15.2736C4.62256 15.2553 4.69107 15.2422 4.79838 15.1541L13.9412 5.9788L13.9414 5.97422L15.3679 4.59847C16.2109 3.90443 16.2109 2.57945 15.3679 1.75922L14.2007 0.623525C13.4875 -0.196703 12.0749 -0.213285 11.232 0.606942L9.96354 1.84117ZM11.0527 2.29683L13.6534 4.908L14.6547 3.89649C15.0438 3.50605 15.0438 2.85532 14.6547 2.46489L13.4875 1.29357C13.0985 0.903137 12.4501 0.903137 12.061 1.29357L11.0527 2.29683ZM1.68584 11.7052L1.1671 14.8287L4.27956 14.3081L4.63633 13.9501L2.04261 11.3472L1.68584 11.7052ZM2.75589 10.6314L10.31 3.05053L12.9037 5.65345L5.3496 13.2343L2.75589 10.6314Z" fill="#515761"/>
</g>
</svg>