<svg width="24" height="24" viewBox="0 0 24 24" fill="none" xmlns="http://www.w3.org/2000/svg">
<path fill-rule="evenodd" clip-rule="evenodd" d="M1.76745 4H22.2093C23.3208 4 24 5.00758 24 5.78008V18.2072C24 19.241 23.077 20 22.2005 20H1.81152C0.740495 20 0 19.0409 0 18.2836V5.77288C0 4.88644 0.826009 4 1.76745 4ZM1.53918 7.38281V17.926C1.53918 18.1752 1.71744 18.3694 1.92409 18.3694H22.0756C22.2823 18.3694 22.4605 18.1752 22.4605 17.926V7.38282L13.6319 13.6025C13.1447 13.9453 12.5778 14.1251 12 14.1251C11.4222 14.1251 10.8553 13.9453 10.3679 13.6024L1.53918 7.38281ZM11.2211 12.1181L2.15859 5.73437L21.8406 5.73438L12.7784 12.1181C12.3043 12.4522 11.6952 12.4522 11.2211 12.1181Z" />
</svg>
