<svg xmlns="http://www.w3.org/2000/svg" width="45" height="24" viewBox="0 0 45 24" fill="none">
<path d="M6.5 6.03516V18.0139H15.0511V16.3152H8.33659V12.8007H13.817V11.1459H8.33659V7.68992H14.8014V6.03516H6.5Z" />
<path d="M31.2126 7.69285H33.8132C35.6351 7.69285 36.6489 8.5422 36.6489 10.0652C36.6489 11.6614 35.6939 12.5107 33.9014 12.5107H31.2126V7.69285ZM36.4285 6.53598C35.7086 6.19916 34.8564 6.02344 33.8132 6.02344H29.3613V18.0168H31.2126V14.1508H33.9161C35.4735 14.1508 36.6636 13.7701 37.4423 12.9793C38.1476 12.2764 38.5002 11.2953 38.5002 10.0505C38.5002 8.42505 37.7802 7.19495 36.4285 6.53598Z" />
<path d="M26.7284 6.00542L22.6974 10.0231L24.3596 11.6798L28.3907 7.66218L26.7284 6.00542Z" />
<path d="M20.3714 12.3522L16.2988 16.4113L17.9611 18.0681L22.0337 14.009L20.3714 12.3522Z" />
<path d="M17.9533 6L16.291 7.65676L20.2805 11.633L21.9427 9.97623L17.9533 6Z" />
<path d="M24.4313 12.4841L22.769 14.1409L26.7169 18.0757L28.3792 16.419L24.4313 12.4841Z" />
</svg>