<svg width="24" height="24" viewBox="0 0 24 24" fill="none" xmlns="http://www.w3.org/2000/svg">
<path fill-rule="evenodd" clip-rule="evenodd" d="M16.7739 5.59104C16.7739 6.36535 16.4731 7.09165 15.9257 7.63883L12.2616 11.3031L8.16595 7.20731L11.83 3.54342C12.3774 2.99608 13.1039 2.69518 13.8779 2.69518C14.652 2.69518 15.3785 2.99607 15.9259 3.54342C16.4732 4.09087 16.7739 4.81703 16.7739 5.59104ZM3.54066 11.832L7.2047 8.16797L11.3004 12.2638L7.63627 15.9277C7.08879 16.4752 6.36243 16.7761 5.58845 16.7761C4.81446 16.7761 4.08811 16.4752 3.54062 15.9277C2.99336 15.3804 2.69238 14.6539 2.69238 13.8799C2.69238 13.1059 2.99331 12.3795 3.54066 11.832ZM13.8779 1.33594C12.7419 1.33594 11.6724 1.77895 10.869 2.58239L6.72436 6.72701L2.57995 10.8714C1.77653 11.675 1.3335 12.7443 1.3335 13.8803C1.3335 15.0163 1.77659 16.0858 2.57995 16.8892C3.38312 17.6926 4.45235 18.1354 5.58863 18.1354C6.72496 18.1354 7.79438 17.6925 8.59754 16.8892C8.59754 16.8892 12.739 12.754 12.7421 12.7448L12.7421 12.7448L12.743 12.7437L16.8867 8.59996C17.69 7.79669 18.133 6.72724 18.133 5.59128C18.133 4.45495 17.6901 3.38553 16.8867 2.58237C16.0835 1.77896 15.0141 1.33594 13.8779 1.33594ZM12.7466 12.7393L12.743 12.7437L12.7425 12.7442L12.7466 12.7393ZM12.778 12.7004C12.7742 12.7053 12.7648 12.7169 12.7466 12.7393C12.7634 12.7191 12.7721 12.7084 12.778 12.7004ZM21.214 14.1896C20.2761 13.2516 19.0278 12.7344 17.7013 12.7344C16.375 12.7344 15.1266 13.2516 14.1886 14.1896C13.2505 15.1277 12.7334 16.3758 12.7334 17.7023C12.7334 19.0287 13.2505 20.2769 14.1886 21.2149C15.1313 22.1574 16.3917 22.6677 17.7013 22.6677C19.0109 22.6677 20.2712 22.1575 21.2141 21.215C23.1511 19.2777 23.151 16.1266 21.214 14.1896ZM20.2534 20.2566C21.4875 19.0225 21.6472 17.0918 20.6879 15.6797L15.6763 20.6913C17.0884 21.6504 19.0193 21.4907 20.2534 20.2566ZM15.1498 15.1509C15.8317 14.4688 16.7369 14.0938 17.7014 14.0938C18.4328 14.0938 19.1323 14.3103 19.727 14.7159L14.7149 19.7282C14.3093 19.1335 14.0928 18.4339 14.0928 17.7026C14.0928 16.738 14.4677 15.8328 15.1497 15.151L14.9596 14.9608L15.1498 15.1509Z"/>
</svg>
