<svg xmlns="http://www.w3.org/2000/svg" width="16" height="16" viewBox="0 0 16 16" fill="none">
<path fill-rule="evenodd" clip-rule="evenodd" d="M8 16C12.4183 16 16 12.4183 16 8C16 3.58172 12.4183 0 8 0C3.58172 0 0 3.58172 0 8C0 12.4183 3.58172 16 8 16ZM9.96661 14.4241C11.6165 13.9237 12.9965 12.8029 13.8354 11.3333H11.2975C10.9487 12.7195 10.4242 13.7362 9.96661 14.4241ZM8.11204 14.7105C8.69142 14.0313 9.43024 12.9258 9.89827 11.3333H6.10173C6.56959 12.9252 7.30805 14.0305 7.88732 14.7098C7.93218 14.7107 7.97715 14.7111 8.02222 14.7111C8.05221 14.7111 8.08215 14.7109 8.11204 14.7105ZM11.5553 10H14.4139C14.6071 9.37494 14.7111 8.71073 14.7111 8.02222C14.7111 7.31737 14.6021 6.63798 14.4 6H11.555C11.6398 6.61136 11.6889 7.27776 11.6889 8.00143C11.6889 8.72403 11.64 9.38948 11.5553 10ZM10.199 6C10.2982 6.61144 10.3556 7.27785 10.3556 8.00143C10.3556 8.72394 10.2984 9.3894 10.1995 10H5.80054C5.70165 9.3894 5.64444 8.72394 5.64444 8.00143C5.64444 7.27785 5.70182 6.61144 5.80098 6H10.199ZM11.2969 4.66667H13.8098C12.9748 3.22953 11.6198 2.13189 10.0025 1.63131C10.4511 2.31811 10.9572 3.31747 11.2969 4.66667ZM8.14947 1.33452C8.72262 2.01721 9.43951 3.10914 9.89755 4.66667H6.10245C6.56027 3.1099 7.27668 2.01828 7.84969 1.33552C7.90703 1.33406 7.96454 1.33333 8.02222 1.33333C8.06473 1.33333 8.10715 1.33373 8.14947 1.33452ZM4.31111 8.00143C4.31111 7.27776 4.36019 6.61136 4.44504 6H1.64446C1.44236 6.63798 1.33333 7.31737 1.33333 8.02222C1.33333 8.71073 1.43736 9.37494 1.63055 10H4.44467C4.36005 9.38948 4.31111 8.72403 4.31111 8.00143ZM4.70309 4.66667C5.03991 3.32892 5.54031 2.33511 5.98609 1.64888C4.39342 2.15727 3.06002 3.24612 2.23463 4.66667H4.70309ZM6.02197 14.4069C5.56711 13.7193 5.04836 12.708 4.70248 11.3333H2.20903C3.03842 12.7863 4.39684 13.8983 6.02197 14.4069Z"/>
</svg>