<svg width="24" height="24" viewBox="0 0 24 24" fill="none" xmlns="http://www.w3.org/2000/svg">
<path fill-rule="evenodd" clip-rule="evenodd" d="M18.8633 6.37599C18.8633 4.00007 16.9586 2.06689 14.6169 2.06689C13.6521 2.06689 12.7366 2.3909 11.9886 2.99415C11.2408 2.39094 10.3251 2.06689 9.36004 2.06689C7.01834 2.06689 5.11365 4.00007 5.11365 6.37599C5.11365 7.46864 5.51888 8.51059 6.25344 9.30707C6.34663 9.40923 7.27838 10.3373 8.79443 11.8405C9.34465 12.3861 9.94116 12.977 10.5472 13.5769L11.568 14.5871C11.6819 14.6997 11.8324 14.7606 11.9886 14.7606C12.1447 14.7606 12.295 14.6998 12.4089 14.5871L13.4298 13.577C14.0373 12.9756 14.6328 12.3857 15.1824 11.8409C16.6989 10.3374 17.6297 9.41039 17.7224 9.30867C18.458 8.51064 18.8633 7.46882 18.8633 6.37599ZM17.6595 6.37603C17.6595 7.15902 17.3691 7.90502 16.8411 8.47811C16.7113 8.61872 14.6385 10.6761 11.9887 13.2983C9.33771 10.675 7.26583 8.61846 7.13464 8.47643C6.60784 7.90485 6.3176 7.15879 6.3176 6.37603C6.3176 4.67249 7.68278 3.28677 9.36014 3.28677C10.1933 3.28677 10.9707 3.62382 11.5503 4.23657C11.7786 4.47775 12.1986 4.47765 12.427 4.23662C13.0068 3.62395 13.7842 3.28677 14.617 3.28677C16.2943 3.28677 17.6595 4.67249 17.6595 6.37603Z" />
<path fill-rule="evenodd" clip-rule="evenodd" d="M1.93161 5.6856C2.31754 5.70342 2.68601 5.8379 2.98255 6.16806C3.35404 6.58167 3.54636 7.22971 3.54671 8.14149C3.5469 8.61064 3.54749 8.97662 3.54876 9.54947L3.54989 10.0687C3.55144 10.8491 3.55127 11.4775 3.54848 12.3103C3.60735 12.2143 3.67628 12.1191 3.75528 12.0247C4.1594 11.6181 4.65803 11.4673 5.11039 11.6081C5.46132 11.7173 5.71276 11.9047 6.19135 12.3557C6.31595 12.4775 6.68621 12.8237 7.05785 13.1712C7.40791 13.4986 7.75921 13.8271 7.90759 13.9702C8.2716 14.3213 8.5854 14.64 8.86943 14.9511C9.97137 16.1582 10.5701 17.1726 10.6366 18.2185L10.638 18.7353C10.6391 19.1903 10.6396 19.65 10.6394 20.079C10.6389 20.9361 10.6354 21.5452 10.6279 21.8047C10.6187 22.0995 10.3772 22.3337 10.0827 22.3335H5.45546C5.15426 22.3335 4.91009 22.0891 4.91007 21.7876V20.6296L0.447721 15.635L0.266275 15.3786C0.22202 15.2877 0.192818 15.1806 0.160963 15.0296C0.121543 14.8428 0.0930125 14.6161 0.0706823 14.3291C0.0326036 13.8398 0.0141141 13.2037 0.0102116 12.3903C0.00847483 12.0283 0.00907258 11.6465 0.0115811 11.1268L0.0137272 10.7164C0.0214539 9.2968 0.0203448 8.73215 0.00182946 8.159C-0.0453225 6.6994 0.824869 5.63441 1.93161 5.6856ZM4.51606 15.0669C4.3093 14.848 4.09273 14.6461 3.84355 14.4345C3.74788 14.3532 3.65217 14.2744 3.52849 14.1744C3.5729 14.2103 3.30164 13.9916 3.23777 13.9393C3.00267 13.7468 2.86513 13.6216 2.7432 13.4792C2.56095 13.2663 2.45494 13.0325 2.45601 12.7716C2.46044 11.6918 2.46101 10.986 2.4592 10.0716L2.45806 9.54983C2.45678 8.9784 2.4562 8.61178 2.45601 8.14176C2.45576 7.47858 2.34123 7.08322 2.17654 6.89986C2.09231 6.80608 2.0282 6.78324 1.88955 6.77683C1.44592 6.75629 1.06349 7.22619 1.09251 8.1243C1.11188 8.72388 1.113 9.30196 1.10492 10.733L1.10319 11.045C1.10017 11.6179 1.09935 12.0099 1.10117 12.3877C1.10542 13.2744 1.11837 13.8187 1.15148 14.2441C1.16941 14.4746 1.19517 14.6736 1.22311 14.806C1.22647 14.8219 1.23141 14.8376 1.23774 14.8532C1.24267 14.8654 1.24765 14.8759 1.25554 14.8911L1.27086 14.9111C1.27976 14.9226 1.28178 14.9252 1.28305 14.9298L5.86459 20.0547C5.95577 20.1581 6.00449 20.2922 6.00103 20.423V21.2417H9.54044C9.54389 20.8489 9.54576 20.2734 9.54634 19.5772C9.5466 19.2566 9.54653 18.8891 9.54648 18.624L9.5465 18.2749C9.49133 17.5631 8.96276 16.6775 8.05785 15.6862C7.75887 15.3587 7.42297 15.0197 7.01589 14.6296C6.92656 14.544 6.69786 14.3294 6.43896 14.0864C6.0513 13.7227 5.59545 13.2949 5.4391 13.1422C5.13561 12.8562 4.90412 12.6863 4.78665 12.6498C4.70677 12.6249 4.70462 12.6256 4.59067 12.7353C4.57716 12.7499 4.57094 12.7566 4.56656 12.761C4.39746 12.9693 4.34462 13.0959 4.35469 13.1858C4.36683 13.2943 4.48781 13.4846 4.75581 13.7588L4.85584 13.8617C4.9356 13.9438 5.03812 14.0492 5.07886 14.0908C5.15928 14.1727 5.22942 14.243 5.28122 14.2947C5.30591 14.3154 5.32873 14.3382 5.3307 14.3427C5.39749 14.4079 5.46152 14.4699 5.56593 14.5706C5.93772 14.9293 6.06585 15.0549 6.24401 15.2394C6.3007 15.298 6.35446 15.3549 6.40771 15.4126C6.53937 15.5582 6.5831 15.7632 6.5223 15.9499C6.46152 16.1366 6.30552 16.2765 6.11344 16.3165C5.92136 16.3565 5.72258 16.2905 5.5962 16.1478C5.34823 15.8793 5.09497 15.6254 4.60051 15.1426C4.56718 15.1186 4.53764 15.0919 4.51606 15.0669Z" />
<path fill-rule="evenodd" clip-rule="evenodd" d="M20.4512 9.54957L20.4501 10.0688C20.4485 10.8486 20.4487 11.4767 20.4515 12.3086C20.3946 12.216 20.3286 12.1247 20.2535 12.0348C20.2381 12.0181 20.232 12.0115 20.2257 12.0053L20.2106 11.9909C19.8406 11.6181 19.342 11.4674 18.8896 11.6082C18.5386 11.7174 18.2872 11.9048 17.8122 12.3524C17.6855 12.4761 17.3128 12.8246 16.9399 13.1733C16.5903 13.5003 16.2404 13.8275 16.0924 13.9703C15.7284 14.3213 15.4146 14.6401 15.1305 14.9512C14.0286 16.1583 13.4298 17.1727 13.3634 18.2354L13.3619 18.7352C13.3609 19.1903 13.3603 19.65 13.3606 20.0791C13.3611 20.9362 13.3646 21.5453 13.372 21.8041C13.3813 22.0996 13.6228 22.3337 13.9174 22.3336H18.5445C18.8457 22.3336 19.0899 22.0892 19.0899 21.7877V20.6297L23.5778 15.6094L23.7337 15.3787C23.7779 15.2877 23.8072 15.1806 23.839 15.0296C23.8784 14.8429 23.907 14.6161 23.9293 14.3292C23.9674 13.8398 23.9859 13.2038 23.9898 12.3903C23.9915 12.0284 23.9909 11.6465 23.9884 11.1269L23.9862 10.7164C23.9785 9.29684 23.9796 8.73219 23.9981 8.15906C24.0453 6.69946 23.1751 5.63446 22.0683 5.68561C21.6824 5.70349 21.3139 5.83796 21.0174 6.16812C20.6459 6.58174 20.4536 7.22978 20.4533 8.14156C20.4531 8.61071 20.4525 8.9767 20.4512 9.54957ZM22.7768 14.8059C22.7733 14.8225 22.7684 14.8386 22.7623 14.8545C22.757 14.8685 22.752 14.8795 22.7403 14.9037L18.1365 20.0534C18.0441 20.1582 17.9954 20.2923 17.9989 20.4301L17.9989 21.2418H14.4595C14.456 20.849 14.4541 20.2734 14.4536 19.5772C14.4531 19.0434 14.4536 18.3767 14.454 18.2398C14.5031 17.5722 15.0325 16.6826 15.942 15.6862C16.241 15.3587 16.5769 15.0197 16.984 14.6296C17.1107 14.5082 17.5189 14.1262 17.8972 13.7722C18.1301 13.5542 18.352 13.3466 18.4904 13.2164L18.5691 13.1424C18.8783 12.8517 19.1024 12.6843 19.2132 12.6498C19.2931 12.6249 19.2953 12.6256 19.448 12.7753C19.6005 12.9648 19.6554 13.0943 19.6452 13.1858C19.6331 13.2943 19.5121 13.4846 19.2441 13.7588L19.1441 13.8617C19.0643 13.9437 18.9618 14.0492 18.921 14.0908C18.8406 14.1727 18.7705 14.243 18.7032 14.3087L18.6944 14.317C18.6904 14.3209 18.6866 14.325 18.6762 14.3359L18.4416 14.5626C18.0326 14.9572 17.8828 15.1047 17.6859 15.3123C17.6544 15.3455 17.6238 15.3781 17.5941 15.4104C17.4605 15.558 17.4168 15.763 17.4776 15.9498C17.5384 16.1365 17.6944 16.2764 17.8864 16.3164C18.0785 16.3564 18.2773 16.2904 18.4075 16.1435C18.6536 15.8771 18.906 15.624 19.4087 15.1331C19.436 15.1132 19.4613 15.0907 19.4845 15.0661C19.6906 14.8479 19.9072 14.6459 20.1563 14.4343C20.252 14.3531 20.3477 14.2743 20.4714 14.1743C20.427 14.2102 20.6982 13.9914 20.7621 13.9391C20.9972 13.7466 21.1348 13.6215 21.2567 13.479C21.4389 13.2661 21.5449 13.0324 21.5439 12.7715C21.5394 11.6917 21.5389 10.9859 21.5407 10.0714L21.5418 9.5497C21.5431 8.97827 21.5437 8.61165 21.5439 8.14163C21.5441 7.47845 21.6586 7.0831 21.8234 6.89972C21.9036 6.81034 21.9656 6.7854 22.1103 6.77683C22.554 6.7563 22.9364 7.22619 22.9074 8.1243C22.888 8.72381 22.8869 9.30178 22.895 10.7326L22.8967 11.0452C22.8997 11.6179 22.9005 12.0099 22.8987 12.3877C22.8945 13.2743 22.8815 13.8186 22.8484 14.2441C22.8305 14.4745 22.8047 14.6735 22.7768 14.8059Z" />
</svg>
