<svg width="22" height="22" viewBox="0 0 22 22" fill="none" xmlns="http://www.w3.org/2000/svg">
<path fill-rule="evenodd" clip-rule="evenodd" d="M11 2C6.02944 2 2 6.02944 2 11C2 15.9706 6.02944 20 11 20C15.9706 20 20 15.9706 20 11C20 6.02944 15.9706 2 11 2ZM0 11C0 4.92487 4.92487 0 11 0C17.0751 0 22 4.92487 22 11C22 17.0751 17.0751 22 11 22C4.92487 22 0 17.0751 0 11ZM11.2581 7.02431C10.7926 6.94446 10.3138 7.03194 9.90664 7.27126C9.49944 7.51057 9.19007 7.88628 9.03333 8.33183C8.85006 8.85282 8.27915 9.1266 7.75816 8.94333C7.23717 8.76005 6.96339 8.18914 7.14667 7.66815C7.46014 6.77704 8.07887 6.02562 8.89327 5.54699C9.70767 5.06836 10.6652 4.8934 11.5962 5.0531C12.5273 5.2128 13.3718 5.69685 13.9801 6.41952C14.5883 7.14197 14.9212 8.05628 14.92 9.0006C14.9197 10.5311 13.785 11.5418 12.9747 12.082C12.5391 12.3725 12.1106 12.586 11.7949 12.7263C11.6356 12.7971 11.5015 12.8508 11.4049 12.8876C11.3565 12.906 11.3173 12.9203 11.2887 12.9305L11.254 12.9427L11.2429 12.9464L11.239 12.9477L11.2375 12.9483L10.92 12C11.2362 12.9487 11.2372 12.9484 11.2375 12.9483C10.7135 13.1229 10.146 12.8402 9.97132 12.3162C9.7969 11.793 10.0791 11.2275 10.6017 11.052L10.6031 11.0515L10.9087 11.9662C10.6052 11.0556 10.6033 11.0515 10.6031 11.0515L10.6187 11.0461C10.6341 11.0406 10.6593 11.0314 10.6929 11.0186C10.7603 10.9929 10.8606 10.9529 10.9826 10.8987C11.2294 10.789 11.5509 10.6275 11.8653 10.4179C12.5549 9.95821 12.92 9.46913 12.92 8.99999L12.92 8.9985C12.9207 8.52618 12.7542 8.06886 12.4501 7.70752C12.1459 7.34618 11.7236 7.10416 11.2581 7.02431ZM11 15C10.4477 15 10 15.4477 10 16C10 16.5523 10.4477 17 11 17H11.01C11.5623 17 12.01 16.5523 12.01 16C12.01 15.4477 11.5623 15 11.01 15H11Z" fill="black"/>
</svg>
