<svg width="24" height="24" viewBox="0 0 24 24" fill="none" xmlns="http://www.w3.org/2000/svg">
<path d="M12 21.75C10.0716 21.75 8.18657 21.1782 6.58319 20.1068C4.97982 19.0355 3.73013 17.5127 2.99218 15.7312C2.25422 13.9496 2.06114 11.9892 2.43735 10.0979C2.81355 8.20655 3.74215 6.46927 5.10571 5.10571C6.46928 3.74215 8.20656 2.81355 10.0979 2.43734C11.9892 2.06114 13.9496 2.25422 15.7312 2.99218C17.5127 3.73013 19.0355 4.97981 20.1068 6.58319C21.1782 8.18657 21.75 10.0716 21.75 12C21.7473 14.585 20.7192 17.0634 18.8913 18.8913C17.0634 20.7192 14.585 21.7473 12 21.75ZM11.25 16.5C11.25 16.6989 11.329 16.8897 11.4697 17.0303C11.6103 17.171 11.8011 17.25 12 17.25C12.1989 17.25 12.3897 17.171 12.5303 17.0303C12.671 16.8897 12.75 16.6989 12.75 16.5V11.25C12.75 11.0511 12.671 10.8603 12.5303 10.7197C12.3897 10.579 12.1989 10.5 12 10.5C11.8011 10.5 11.6103 10.579 11.4697 10.7197C11.329 10.8603 11.25 11.0511 11.25 11.25V16.5ZM12 6.75C11.7775 6.75 11.56 6.81598 11.375 6.9396C11.19 7.06321 11.0458 7.23891 10.9606 7.44448C10.8755 7.65005 10.8532 7.87625 10.8966 8.09448C10.94 8.3127 11.0472 8.51316 11.2045 8.67049C11.3618 8.82783 11.5623 8.93498 11.7805 8.97838C11.9988 9.02179 12.225 8.99951 12.4305 8.91436C12.6361 8.82922 12.8118 8.68502 12.9354 8.50002C13.059 8.31501 13.125 8.0975 13.125 7.875C13.125 7.57663 13.0065 7.29048 12.7955 7.07951C12.5845 6.86853 12.2984 6.75 12 6.75Z"/>
</svg>
