<svg width="24" height="24" viewBox="0 0 24 24" fill="none" xmlns="http://www.w3.org/2000/svg">
<g clip-path="url(#clip0)">
<path d="M11.9998 0C13.6248 0 14.6951 0.004 15.2106 0.012C15.7261 0.02 16.3043 0.0395 16.9453 0.0705C17.5863 0.1015 18.1371 0.164 18.5976 0.258C19.0581 0.352 19.4761 0.477 19.8516 0.633C20.2581 0.7895 20.6331 0.977 20.9766 1.1955C21.3201 1.414 21.6561 1.6875 21.9846 2.016C22.3131 2.3445 22.5866 2.6805 22.8051 3.024C23.0236 3.3675 23.2111 3.7425 23.3676 4.149C23.5241 4.524 23.6491 4.942 23.7426 5.403C23.8361 5.864 23.8986 6.41475 23.9301 7.05525C23.9616 7.69575 23.9811 8.274 23.9886 8.79C23.9961 9.306 24.0001 10.3762 24.0006 12.0007C24.0011 13.6252 23.9971 14.6955 23.9886 15.2115C23.9801 15.7275 23.9606 16.3057 23.9301 16.9462C23.8996 17.5868 23.8371 18.1375 23.7426 18.5985C23.6481 19.0595 23.5231 19.4775 23.3676 19.8525C23.2111 20.259 23.0236 20.634 22.8051 20.9775C22.5866 21.321 22.3131 21.657 21.9846 21.9855C21.6561 22.314 21.3201 22.5875 20.9766 22.806C20.6331 23.0245 20.2581 23.212 19.8516 23.3685C19.4766 23.525 19.0586 23.65 18.5976 23.7435C18.1366 23.837 17.5858 23.8995 16.9453 23.931C16.3048 23.9625 15.7266 23.982 15.2106 23.9895C14.6946 23.997 13.6243 24.001 11.9998 24.0015C10.3753 24.002 9.30507 23.998 8.78907 23.9895C8.27307 23.981 7.69482 23.9615 7.05432 23.931C6.41382 23.9005 5.86307 23.838 5.40207 23.7435C4.94107 23.649 4.52307 23.524 4.14807 23.3685C3.74157 23.212 3.36657 23.0245 3.02307 22.806C2.67957 22.5875 2.34356 22.314 2.01507 21.9855C1.68657 21.657 1.41307 21.321 1.19457 20.9775C0.976065 20.634 0.788565 20.259 0.632065 19.8525C0.475565 19.4775 0.350565 19.0595 0.257065 18.5985C0.163565 18.1375 0.101065 17.5868 0.0695651 16.9462C0.0380651 16.3057 0.0185651 15.7275 0.0110651 15.2115C0.0035651 14.6955 -0.000434896 13.6252 -0.000934896 12.0007C-0.0014349 10.3762 0.0025651 9.306 0.0110651 8.79C0.0195651 8.274 0.0390651 7.69575 0.0695651 7.05525C0.100065 6.41475 0.162565 5.864 0.257065 5.403C0.351565 4.942 0.476565 4.524 0.632065 4.149C0.788565 3.7425 0.976065 3.3675 1.19457 3.024C1.41307 2.6805 1.68657 2.3445 2.01507 2.016C2.34356 1.6875 2.67957 1.414 3.02307 1.1955C3.36657 0.977 3.74157 0.7895 4.14807 0.633C4.52307 0.4765 4.94107 0.3515 5.40207 0.258C5.86307 0.1645 6.41382 0.102 7.05432 0.0705C7.69482 0.039 8.27307 0.0195 8.78907 0.012C9.30507 0.0045 10.3753 0.0005 11.9998 0V0ZM11.9998 2.15625C10.3903 2.15625 9.33957 2.16025 8.84756 2.16825C8.35557 2.17625 7.78907 2.19575 7.14807 2.22675C6.57007 2.25825 6.10907 2.31675 5.76507 2.40225C5.42106 2.48775 5.13981 2.56975 4.92132 2.64825C4.63981 2.75775 4.39382 2.88275 4.18332 3.02325C3.97282 3.16375 3.75807 3.33575 3.53907 3.53925C3.33607 3.75825 3.16407 3.973 3.02307 4.1835C2.88207 4.394 2.75707 4.64 2.64807 4.9215C2.57007 5.1405 2.48807 5.42175 2.40207 5.76525C2.31607 6.10875 2.25757 6.56975 2.22657 7.14825C2.19507 7.78875 2.17557 8.35525 2.16807 8.84775C2.16057 9.34025 2.15656 10.391 2.15606 12C2.15557 13.609 2.15956 14.6597 2.16807 15.1522C2.17657 15.6447 2.19607 16.2113 2.22657 16.8517C2.25807 17.4298 2.31657 17.8907 2.40207 18.2347C2.48757 18.5788 2.56957 18.86 2.64807 19.0785C2.75757 19.36 2.88257 19.606 3.02307 19.8165C3.16357 20.027 3.33557 20.2418 3.53907 20.4608C3.75807 20.6637 3.97282 20.8358 4.18332 20.9767C4.39382 21.1178 4.63981 21.2428 4.92132 21.3517C5.14032 21.4298 5.42157 21.5118 5.76507 21.5978C6.10856 21.6838 6.56957 21.7423 7.14807 21.7733C7.78857 21.8048 8.35507 21.8242 8.84756 21.8317C9.34007 21.8392 10.3908 21.8433 11.9998 21.8438C13.6088 21.8442 14.6596 21.8403 15.1521 21.8317C15.6446 21.8232 16.2111 21.8038 16.8516 21.7733C17.4296 21.7418 17.8906 21.6833 18.2346 21.5978C18.5786 21.5123 18.8598 21.4303 19.0783 21.3517C19.3598 21.2423 19.6058 21.1173 19.8163 20.9767C20.0268 20.8363 20.2416 20.6642 20.4606 20.4608C20.6636 20.2418 20.8356 20.027 20.9766 19.8165C21.1176 19.606 21.2426 19.36 21.3516 19.0785C21.4296 18.8595 21.5116 18.5782 21.5976 18.2347C21.6836 17.8913 21.7421 17.4303 21.7731 16.8517C21.8046 16.2113 21.8241 15.6447 21.8316 15.1522C21.8391 14.6597 21.8431 13.609 21.8436 12C21.8441 10.391 21.8401 9.34025 21.8316 8.84775C21.8231 8.35525 21.8036 7.78875 21.7731 7.14825C21.7416 6.57025 21.6831 6.10925 21.5976 5.76525C21.5121 5.42125 21.4301 5.14 21.3516 4.9215C21.2421 4.64 21.1171 4.394 20.9766 4.1835C20.8361 3.973 20.6641 3.75825 20.4606 3.53925C20.2416 3.33625 20.0268 3.16425 19.8163 3.02325C19.6058 2.88225 19.3598 2.75725 19.0783 2.64825C18.8593 2.57025 18.5781 2.48825 18.2346 2.40225C17.8911 2.31625 17.4301 2.25775 16.8516 2.22675C16.2111 2.19525 15.6446 2.17575 15.1521 2.16825C14.6596 2.16075 13.6088 2.15675 11.9998 2.15625ZM11.9998 5.83575C12.8438 5.83575 13.6408 5.99975 14.3908 6.32775C15.1408 6.64025 15.7971 7.07775 16.3596 7.64025C16.9221 8.20275 17.3596 8.859 17.6721 9.609C18.0001 10.359 18.1641 11.156 18.1641 12C18.1641 12.844 18.0001 13.641 17.6721 14.391C17.3596 15.141 16.9221 15.7972 16.3596 16.3597C15.7971 16.9222 15.1408 17.3598 14.3908 17.6722C13.6408 18.0002 12.8438 18.1642 11.9998 18.1642C11.1558 18.1642 10.3588 18.0002 9.60882 17.6722C8.85882 17.3598 8.20257 16.9222 7.64007 16.3597C7.07757 15.7972 6.64007 15.141 6.32757 14.391C5.99957 13.641 5.83557 12.844 5.83557 12C5.83557 11.156 5.99957 10.359 6.32757 9.609C6.64007 8.859 7.07757 8.20275 7.64007 7.64025C8.20257 7.07775 8.85882 6.64025 9.60882 6.32775C10.3588 5.99975 11.1558 5.83575 11.9998 5.83575ZM11.9998 16.008C13.1093 16.008 14.0546 15.6173 14.8356 14.8358C15.6166 14.0542 16.0073 13.109 16.0078 12C16.0083 10.891 15.6176 9.94575 14.8356 9.16425C14.0536 8.38275 13.1083 7.992 11.9998 7.992C10.8913 7.992 9.94606 8.38275 9.16407 9.16425C8.38206 9.94575 7.99132 10.891 7.99182 12C7.99232 13.109 8.38307 14.0542 9.16407 14.8358C9.94507 15.6173 10.8903 16.008 11.9998 16.008ZM19.8516 5.60175C19.8516 5.99225 19.7108 6.32825 19.4293 6.60975C19.1478 6.89125 18.8041 7.032 18.3981 7.032C18.0076 7.032 17.6716 6.89125 17.3901 6.60975C17.1086 6.32825 16.9678 5.99225 16.9678 5.60175C16.9678 5.19525 17.1086 4.8515 17.3901 4.5705C17.6716 4.2895 18.0076 4.14875 18.3981 4.14825C18.8046 4.14825 19.1483 4.289 19.4293 4.5705C19.7103 4.852 19.8511 5.19575 19.8516 5.60175Z"/>
</g>
<defs>
<clipPath id="clip0">
<rect width="24" height="24" fill="white"/>
</clipPath>
</defs>
</svg>
