<svg width="24" height="24" viewBox="0 0 24 24" fill="none" xmlns="http://www.w3.org/2000/svg">
<path d="M9.42857 21.15C9.42857 21.6175 9.81429 22 10.2857 22H13.7143C14.1857 22 14.5714 21.6175 14.5714 21.15V20.3H9.42857V21.15ZM12 5C8.69143 5 6 7.669 6 10.95C6 12.973 7.02 14.7495 8.57143 15.829V17.75C8.57143 18.2175 8.95714 18.6 9.42857 18.6H14.5714C15.0429 18.6 15.4286 18.2175 15.4286 17.75V15.829C16.98 14.7495 18 12.973 18 10.95C18 7.669 15.3086 5 12 5ZM14.4429 14.435L13.7143 14.945V16.9H10.2857V14.945L9.55714 14.435C8.4 13.636 7.71429 12.3355 7.71429 10.95C7.71429 8.604 9.63429 6.7 12 6.7C14.3657 6.7 16.2857 8.604 16.2857 10.95C16.2857 12.3355 15.6 13.636 14.4429 14.435Z" fill="#2D2D2D"/>
<path d="M11 4H13V1H11V4Z" fill="#2D2D2D"/>
<path d="M19 12H22V10H19V12Z" fill="#2D2D2D"/>
<path d="M2 12H5V10H2V12Z" fill="#2D2D2D"/>
<path d="M6.6988 6.60573L8.10593 5.1986L5.98463 3.0773L4.5775 4.48443L6.6988 6.60573Z" fill="#2D2D2D"/>
<path d="M17.2945 6.6128L19.4158 4.4915L18.0087 3.08437L15.8874 5.20567L17.2945 6.6128Z" fill="#2D2D2D"/>
</svg>
