<svg width="22" height="22" viewBox="0 0 22 22" fill="none" xmlns="http://www.w3.org/2000/svg">
<path fill-rule="evenodd" clip-rule="evenodd" d="M11.7793 1.69296C12.9167 0.594373 14.4402 -0.013513 16.0215 0.000227985C17.6028 0.0139691 19.1154 0.648238 20.2336 1.76643C21.3518 2.88461 21.986 4.39725 21.9998 5.97855C22.0135 7.55985 21.4056 9.08328 20.3071 10.2207L20.2949 10.2333L17.2795 13.2485C16.6681 13.8602 15.9323 14.3331 15.122 14.6354C14.3117 14.9376 13.4459 15.0621 12.5833 15.0003C11.7207 14.9385 10.8815 14.692 10.1226 14.2773C9.36366 13.8627 8.70279 13.2897 8.18478 12.5972C7.85227 12.1527 7.94308 11.5227 8.38761 11.1902C8.83214 10.8577 9.46206 10.9485 9.79458 11.3931C10.1399 11.8547 10.5805 12.2367 11.0864 12.5132C11.5924 12.7896 12.1519 12.954 12.7269 12.9951C13.302 13.0363 13.8792 12.9534 14.4194 12.7519C14.9596 12.5504 15.4501 12.235 15.8577 11.8273L18.8668 8.81822C19.5956 8.06056 19.9987 7.04748 19.9895 5.99602C19.9804 4.94182 19.5575 3.93339 18.8121 3.18794C18.0666 2.44248 17.0582 2.01963 16.004 2.01047C14.9521 2.00133 13.9386 2.40481 13.1808 3.13419L11.4574 4.84761C11.0637 5.239 10.4273 5.23714 10.0359 4.84346C9.64449 4.44978 9.64635 3.81335 10.04 3.42196L11.7793 1.69296Z" fill="black"/>
<path fill-rule="evenodd" clip-rule="evenodd" d="M6.87801 7.34455C7.68828 7.0423 8.55408 6.91784 9.41667 6.97962C10.2793 7.0414 11.1185 7.28797 11.8774 7.7026C12.6364 8.11724 13.2972 8.69024 13.8152 9.38275C14.1477 9.82728 14.0569 10.4572 13.6124 10.7897C13.1679 11.1222 12.538 11.0314 12.2054 10.5869C11.8601 10.1252 11.4195 9.74321 10.9136 9.46679C10.4076 9.19037 9.84813 9.02599 9.27307 8.9848C8.698 8.94362 8.12081 9.02659 7.58063 9.22809C7.04045 9.42959 6.54992 9.74491 6.14232 10.1527L3.13324 13.1617C2.40446 13.9194 2.00133 14.9325 2.01047 15.9839C2.01963 17.0381 2.44248 18.0466 3.18794 18.792C3.93339 19.5375 4.94182 19.9603 5.99602 19.9695C7.04747 19.9786 8.06054 19.5755 8.8182 18.8467L10.5305 17.1344C10.923 16.7419 11.5595 16.7419 11.952 17.1344C12.3445 17.5269 12.3445 18.1634 11.952 18.5559L10.2208 20.2871C9.08338 21.3857 7.55985 21.9935 5.97855 21.9797C4.39725 21.966 2.88461 21.3317 1.76643 20.2135C0.648238 19.0953 0.0139691 17.5827 0.000227985 16.0014C-0.013513 14.4201 0.594373 12.8967 1.69296 11.7592L1.7051 11.7467L4.72055 8.73141C4.72051 8.73145 4.7206 8.73137 4.72055 8.73141C5.33193 8.11985 6.0678 7.64679 6.87801 7.34455Z" fill="black"/>
</svg>
