<svg width="15" height="16" viewBox="0 0 15 16" fill="none" xmlns="http://www.w3.org/2000/svg">
<path fill-rule="evenodd" clip-rule="evenodd" d="M11.0063 8.25944C13.2363 8.85249 14.7361 10.8239 14.7361 13.1599V15.456C14.7361 15.7564 14.4926 16 14.1922 16H1.11033C0.809926 16 0.566406 15.7564 0.566406 15.456V13.1599C0.566406 10.8239 2.0662 8.8525 4.29604 8.25944L4.78957 8.1282C5.00405 8.07145 5.13952 8.10421 5.79489 8.33238C6.71562 8.65309 7.22051 8.79235 7.64985 8.79235C8.07878 8.79235 8.58343 8.65326 9.50491 8.33269C10.1625 8.10397 10.2988 8.07105 10.5131 8.12827L11.0063 8.25944ZM7.64965 7.29968C5.6371 7.29968 4.00014 5.66267 4.00014 3.65001C4.00014 1.63717 5.6371 0 7.64965 0C9.66254 0 11.2998 1.63718 11.2998 3.65001C11.2998 5.66267 9.66254 7.29968 7.64965 7.29968Z"/>
</svg>
