<svg width="50" height="56" viewBox="0 0 50 56" fill="none" xmlns="http://www.w3.org/2000/svg">
<g id="New Rx Icon">
<g id="Group 4">
<g id="Group">
<path id="Path" fill-rule="evenodd" clip-rule="evenodd" d="M8.10358 29.5645C11.3937 29.5645 17.9739 29.5645 17.9739 29.5645C19.3284 29.5645 19.6399 29.918 19.6399 31.4546V43.6501C19.6399 45.1854 19.3284 45.5384 17.9739 45.5384H16.0057H7.96484L8.00526 47.3086H15.1933H17.9739C20.2188 47.3086 21.2642 46.1458 21.2642 43.6501V31.4546C21.2642 28.9576 20.2188 27.7944 17.9739 27.7944C17.9739 27.7944 11.4107 27.7944 8.12906 27.7944C7.95809 27.7944 7.98946 29.5645 8.10358 29.5645Z" fill="#515761"/>
<path id="Path_2" fill-rule="evenodd" clip-rule="evenodd" d="M24.8303 25.414V48.8859C24.8303 50.2405 24.4769 50.552 22.9404 50.552H10.746C9.21094 50.552 8.8579 50.2405 8.8579 48.8859V46.9175V28.3328V25.414C8.8579 24.9649 8.46168 24.6016 7.9729 24.6016C7.48412 24.6016 7.08789 24.9649 7.08789 25.414V29.1449V46.105V48.8859C7.08789 51.131 8.25056 52.1765 10.746 52.1765H22.9404C25.4372 52.1765 26.6004 51.131 26.6004 48.8859V25.414C26.6004 24.9649 26.2041 24.6016 25.7153 24.6016C25.2266 24.6016 24.8303 24.9649 24.8303 25.414Z" fill="#515761"/>
<path id="Fill 3" fill-rule="evenodd" clip-rule="evenodd" d="M6.08655 21.7679H27.4565V17.4297H6.08655V21.7679ZM28.3058 15.6055H5.23774C4.76881 15.6055 4.38867 16.0129 4.38867 16.5166V22.6766C4.38867 23.1798 4.76881 23.5877 5.23774 23.5877H28.3058C28.7743 23.5877 29.1545 23.1798 29.1545 22.6766V16.5166C29.1545 16.0129 28.7743 15.6055 28.3058 15.6055Z" fill="#515761"/>
</g>
<g id="Group 3">
<path id="Oval" d="M43.8687 17.3353C43.8687 24.4211 38.1056 30.1706 30.99 30.1706C23.8743 30.1706 18.1113 24.4211 18.1113 17.3353C18.1113 10.2495 23.8743 4.5 30.99 4.5C38.1056 4.5 43.8687 10.2495 43.8687 17.3353Z" fill="#F8F8F9" stroke="#515761" stroke-width="2"/>
<path id="&#240;&#159;&#150;&#141; expand icon color" fill-rule="evenodd" clip-rule="evenodd" d="M29.8235 16.1726V11.5809C29.8235 10.9386 30.3458 10.418 30.9901 10.418C31.6344 10.418 32.1567 10.9386 32.1567 11.5809V16.1726H36.7629C37.4072 16.1726 37.9294 16.6933 37.9294 17.3356C37.9294 17.9779 37.4072 18.4986 36.7629 18.4986H32.1567V23.0903C32.1567 23.7326 31.6344 24.2533 30.9901 24.2533C30.3458 24.2533 29.8235 23.7326 29.8235 23.0903V18.4986H25.2173C24.5731 18.4986 24.0508 17.9779 24.0508 17.3356C24.0508 16.6933 24.5731 16.1726 25.2173 16.1726H29.8235Z" fill="#009BDF"/>
</g>
</g>
</g>
</svg>
