<svg xmlns="http://www.w3.org/2000/svg" width="24" height="24" viewBox="0 0 24 24" fill="none">
<path fill-rule="evenodd" clip-rule="evenodd" d="M16.4415 5.17969H8.01281C7.71292 5.17969 7.46875 5.41512 7.46875 5.70312V7.82997C7.46875 8.12026 7.71292 8.35454 8.01281 8.35454H8.4407V17.9625C8.4407 19.334 9.39013 19.6208 10.1878 19.6208H14.2475C15.044 19.6208 15.9958 19.334 15.9958 17.9625V8.35454H16.4415C16.7414 8.35454 16.9844 8.12026 16.9844 7.82997V5.70312C16.9844 5.41512 16.7414 5.17969 16.4415 5.17969ZM14.545 17.9625C14.545 18.0917 14.5332 18.1637 14.5237 18.1991C14.4846 18.2094 14.4016 18.2243 14.2475 18.2243H10.1878C10.0338 18.2243 9.95078 18.2094 9.91167 18.1991C9.90218 18.1637 9.89033 18.0917 9.89033 17.9625V17.2711H13.2021C13.502 17.2711 13.7461 17.0368 13.7461 16.7465V10.1797C13.7461 9.89054 13.502 9.65626 13.2021 9.65626H9.89033V8.80597H14.545V17.9625ZM9.89033 16.2231H12.658V10.7054H9.89033V16.2231ZM8.55686 7.30654H15.8975V6.22883H8.55686V7.30654Z" fill="#973894"/>
<path fill-rule="evenodd" clip-rule="evenodd" d="M11.9702 0.607422C10.0677 0.607422 8.2483 1.02685 6.56398 1.85314C5.5375 2.35599 4.5857 3.00971 3.74769 3.77656V3.11142C3.74769 2.72628 3.42292 2.41314 3.02228 2.41314C2.62165 2.41314 2.29688 2.72628 2.29688 3.11142V5.60285C2.29688 5.60742 2.29806 5.61085 2.29806 5.61542C2.29806 5.62914 2.29925 5.64056 2.29925 5.65428C2.30043 5.66457 2.30162 5.67599 2.3028 5.68628C2.30399 5.69771 2.30636 5.70799 2.30754 5.71942C2.30991 5.73085 2.31228 5.74342 2.31465 5.75485C2.31703 5.76514 2.3194 5.77428 2.32295 5.78342C2.32651 5.79714 2.33006 5.80856 2.33362 5.82114C2.33718 5.83028 2.34073 5.83942 2.34429 5.84856C2.34903 5.86114 2.35377 5.87142 2.35851 5.88399C2.36325 5.89314 2.36799 5.90342 2.37392 5.91371C2.37866 5.92399 2.3834 5.93314 2.38933 5.94228C2.39526 5.95371 2.40237 5.96399 2.40948 5.97542C2.41422 5.98342 2.42015 5.99142 2.42607 5.99942C2.43437 6.01085 2.44148 6.02114 2.45096 6.03142C2.45689 6.03828 2.46282 6.04628 2.46874 6.05314C2.47704 6.06228 2.48652 6.07256 2.49482 6.08171C2.50312 6.08856 2.51023 6.09656 2.51853 6.10456C2.52682 6.11142 2.53512 6.11942 2.5446 6.12742C2.55409 6.13542 2.56357 6.14342 2.57305 6.15142C2.57779 6.15371 2.58135 6.15714 2.5849 6.15942C2.58965 6.16285 2.59439 6.16628 2.59913 6.16971C2.61098 6.17771 2.62165 6.18457 2.6335 6.19142C2.6418 6.19714 2.65128 6.20285 2.66076 6.20742C2.67143 6.21428 2.68329 6.21999 2.69514 6.22571L2.72477 6.23942C2.73544 6.24399 2.74729 6.24856 2.75914 6.25314C2.76981 6.25656 2.78048 6.26114 2.79115 6.26456C2.803 6.26799 2.81367 6.27142 2.82552 6.27485L2.8599 6.28285C2.87175 6.28514 2.88242 6.28742 2.89427 6.28971C2.90731 6.29199 2.91916 6.29428 2.9322 6.29542C2.94168 6.29657 2.95353 6.29771 2.9642 6.29771C2.97724 6.29885 2.99028 6.29999 3.0045 6.29999C3.01043 6.29999 3.01636 6.30114 3.02228 6.30114H5.60507C6.0057 6.30114 6.33047 5.98799 6.33047 5.60285C6.33047 5.21656 6.0057 4.90342 5.60507 4.90342H4.61771C6.56753 3.04628 9.17402 2.00514 11.9702 2.00514C17.7521 2.00514 22.4566 6.54114 22.4566 12.116C22.4566 12.9114 22.3606 13.7034 22.1709 14.4691C22.0785 14.8451 22.3191 15.2211 22.709 15.3103C22.7647 15.324 22.8216 15.3309 22.8774 15.3309C23.2057 15.3309 23.502 15.1137 23.5814 14.7926C23.7983 13.9206 23.9062 13.02 23.9062 12.116C23.9062 5.77085 18.5522 0.607422 11.9702 0.607422Z" fill="#973894"/>
<path fill-rule="evenodd" clip-rule="evenodd" d="M21.607 18.857C21.607 18.8456 21.6058 18.8342 21.6046 18.8239C21.6022 18.8125 21.601 18.8022 21.5987 18.7907L21.5915 18.7542C21.5892 18.745 21.5868 18.737 21.5844 18.7267C21.5821 18.7142 21.5773 18.7016 21.5738 18.6902C21.5702 18.6799 21.5667 18.6707 21.5631 18.6616C21.5584 18.6502 21.5536 18.6388 21.5477 18.6273L21.5335 18.5965C21.5287 18.5873 21.524 18.577 21.5181 18.5667C21.5121 18.5565 21.505 18.5473 21.4979 18.5359C21.492 18.5279 21.4861 18.5188 21.4813 18.5107C21.4742 18.5005 21.4659 18.4902 21.4564 18.4799C21.4505 18.4719 21.4446 18.4639 21.4375 18.4559C21.4303 18.4479 21.4209 18.4387 21.4126 18.4296C21.4043 18.4216 21.396 18.4136 21.3889 18.4056C21.3806 18.3987 21.3723 18.3907 21.3628 18.3839C21.3533 18.3747 21.3426 18.3667 21.3343 18.3587C21.3296 18.3576 21.326 18.3542 21.3225 18.3507C21.3177 18.3473 21.313 18.3439 21.3071 18.3405C21.2964 18.3336 21.2857 18.3256 21.2739 18.3187C21.2656 18.313 21.2561 18.3085 21.2466 18.3039C21.236 18.297 21.2241 18.2913 21.2122 18.2845C21.2028 18.2799 21.1921 18.2753 21.1838 18.2707C21.1719 18.2662 21.1601 18.2616 21.1471 18.2582C21.1376 18.2536 21.1269 18.2502 21.1162 18.2467C21.1044 18.2422 21.0925 18.2387 21.0819 18.2353C21.07 18.233 21.0582 18.2296 21.0463 18.2273C21.0356 18.2239 21.025 18.2227 21.0131 18.2205C21.0001 18.2182 20.9882 18.2159 20.9764 18.2147C20.9645 18.2147 20.9538 18.2136 20.942 18.2125C20.9301 18.2113 20.9159 18.2102 20.9029 18.2102C20.897 18.2102 20.891 18.209 20.8851 18.209H18.3023C17.9017 18.209 17.5781 18.5222 17.5781 18.9085C17.5781 19.2947 17.9017 19.6067 18.3023 19.6067H19.2897C17.3387 21.4639 14.7322 22.505 11.9372 22.505C6.15411 22.505 1.45082 17.9702 1.45082 12.3942C1.45082 11.5987 1.54683 10.8079 1.73529 10.041C1.82774 9.66618 1.58831 9.28903 1.19834 9.19875C0.809564 9.10961 0.418413 9.34161 0.324774 9.71761C0.110234 10.5896 0 11.4902 0 12.3942C0 18.7393 5.35522 23.9027 11.9372 23.9027C13.8396 23.9027 15.6579 23.4845 17.3422 22.657C18.3699 22.1542 19.3217 21.5005 20.1597 20.7336V21.3987C20.1597 21.785 20.4845 22.097 20.8851 22.097C21.2857 22.097 21.6105 21.785 21.6105 21.3987V18.9085C21.6105 18.9039 21.6093 18.8993 21.6093 18.8947C21.6093 18.881 21.6081 18.8696 21.607 18.857Z" fill="#973894"/>
</svg>