<svg width="22" height="16" viewBox="0 0 22 16" fill="none" xmlns="http://www.w3.org/2000/svg">
<path fill-rule="evenodd" clip-rule="evenodd" d="M2.66667 1.77778C2.17575 1.77778 1.77778 2.17575 1.77778 2.66667V13.3333C1.77778 13.8243 2.17575 14.2222 2.66667 14.2222H18.6667C19.1576 14.2222 19.5556 13.8243 19.5556 13.3333V2.66667C19.5556 2.17575 19.1576 1.77778 18.6667 1.77778H2.66667ZM0 2.66667C0 1.19391 1.19391 0 2.66667 0H18.6667C20.1394 0 21.3333 1.19391 21.3333 2.66667V13.3333C21.3333 14.8061 20.1394 16 18.6667 16H2.66667C1.19391 16 0 14.8061 0 13.3333V2.66667Z" fill="black"/>
<path fill-rule="evenodd" clip-rule="evenodd" d="M0 6.2222C0 5.73128 0.397969 5.33331 0.888889 5.33331H20.4444C20.9354 5.33331 21.3333 5.73128 21.3333 6.2222C21.3333 6.71312 20.9354 7.11109 20.4444 7.11109H0.888889C0.397969 7.11109 0 6.71312 0 6.2222Z" fill="black"/>
</svg>
