<svg width="25" height="25" viewBox="0 0 25 25" fill="none" xmlns="http://www.w3.org/2000/svg">
<path fill-rule="evenodd" clip-rule="evenodd" d="M21.7224 20.5437C21.7224 17.7393 20.0056 15.4788 17.3401 14.7699L16.7447 14.6115C16.6474 14.6385 16.4842 14.6918 16.2567 14.7701C16.1308 14.8137 16.1308 14.8136 16.0433 14.844C15.7385 14.9501 15.5942 14.9997 15.4084 15.0615C14.9434 15.2161 14.5432 15.3348 14.1589 15.427C13.6243 15.5553 13.1487 15.6241 12.7247 15.6241C11.8391 15.6241 10.9984 15.3982 9.40563 14.8433C9.31807 14.8128 9.31807 14.8128 9.22801 14.7816C8.9672 14.6917 8.80524 14.6387 8.70831 14.6116L8.1136 14.7699C5.44804 15.4787 3.73133 17.7391 3.73133 20.5437V23.172H21.7224V20.5437ZM17.7595 13.1929C21.1045 14.0824 23.3542 17.0395 23.3542 20.5435V23.9878C23.3542 24.4384 22.9889 24.8036 22.5383 24.8036H2.91549C2.46489 24.8036 2.09961 24.4384 2.09961 23.9878V20.5435C2.09961 17.0396 4.3493 14.0825 7.69406 13.1929L8.43436 12.996C8.75608 12.9109 8.95929 12.96 9.94233 13.3023C11.3234 13.7833 12.0808 13.9922 12.7248 13.9922C13.3682 13.9922 14.1251 13.7836 15.5074 13.3027C16.4938 12.9597 16.6983 12.9103 17.0196 12.9961L17.7595 13.1929ZM12.7245 11.7532C9.70564 11.7532 7.25021 9.29772 7.25021 6.27872C7.25021 3.25947 9.70565 0.803711 12.7245 0.803711C15.7438 0.803711 18.1997 3.25948 18.1997 6.27872C18.1997 9.29772 15.7438 11.7532 12.7245 11.7532ZM12.7243 2.43544C10.6057 2.43544 8.88156 4.15967 8.88156 6.27869C8.88156 8.39733 10.6058 10.1217 12.7243 10.1217C14.8433 10.1217 16.5678 8.39734 16.5678 6.27869C16.5678 4.15965 14.8435 2.43544 12.7243 2.43544Z" />
</svg>
