<svg width="20" height="23" viewBox="0 0 20 23" fill="none" xmlns="http://www.w3.org/2000/svg">
<path fill-rule="evenodd" clip-rule="evenodd" d="M4.63376 2.70838C4.90966 2.22994 5.52117 2.06575 5.9996 2.34165L14.9996 7.53165C15.478 7.80755 15.6422 8.41905 15.3663 8.89749C15.0904 9.37592 14.4789 9.54011 14.0005 9.26421L5.00049 4.07421C4.52206 3.79832 4.35787 3.18681 4.63376 2.70838Z" fill="black"/>
<path fill-rule="evenodd" clip-rule="evenodd" d="M8.50214 0.400687C8.95768 0.138185 9.47422 0 10 0C10.5258 0 11.0423 0.138185 11.4979 0.400687C11.4986 0.401099 11.4993 0.401511 11.5 0.401924L18.5 4.40191C18.9556 4.66497 19.334 5.04319 19.5973 5.49867C19.8606 5.95414 19.9995 6.47083 20 6.99692V14.9979C19.9995 15.524 19.8606 16.0418 19.5973 16.4972C19.334 16.9527 18.9556 17.3309 18.5 17.594L18.4961 17.5962L11.5 21.594C11.4992 21.5944 11.4985 21.5949 11.4977 21.5953C11.0422 21.8577 10.5257 21.9959 10 21.9959C9.47428 21.9959 8.95781 21.8577 8.50231 21.5953C8.50154 21.5949 8.50077 21.5944 8.5 21.594L1.50386 17.5962L1.5 17.594C1.04439 17.3309 0.665971 16.9527 0.402693 16.4972C0.139415 16.0418 0.000540144 15.5251 5.01934e-07 14.999L0 6.99795C0.000539642 6.47186 0.139415 5.95414 0.402693 5.49867C0.665971 5.0432 1.04439 4.66497 1.5 4.40192L1.50386 4.3997L8.50214 0.400687ZM10 2C9.82446 2 9.65202 2.04621 9.5 2.13397L9.49614 2.1362L2.5 6.13397C2.49948 6.13427 2.50052 6.13367 2.5 6.13397C2.34882 6.22162 2.22169 6.34825 2.13423 6.49956C2.04654 6.65126 2.00025 6.82334 2 6.99857V14.9973C2.00025 15.1726 2.04654 15.3446 2.13423 15.4963C2.22168 15.6476 2.34724 15.7733 2.49839 15.861C2.49785 15.8607 2.49892 15.8613 2.49839 15.861L9.5 19.8619C9.65202 19.9497 9.82446 19.9959 10 19.9959C10.1755 19.9959 10.348 19.9497 10.5 19.8619L10.5039 19.8597L17.5 15.8619C17.4995 15.8622 17.5005 15.8616 17.5 15.8619C17.6512 15.7743 17.7783 15.6476 17.8658 15.4963C17.9535 15.3445 17.9998 15.1723 18 14.9969V6.99897C17.9998 6.82361 17.9535 6.65138 17.8658 6.49956C17.7783 6.34824 17.6527 6.2225 17.5015 6.13486C17.501 6.13456 17.502 6.13515 17.5015 6.13486L10.5 2.13398C10.348 2.04621 10.1755 2 10 2Z" fill="black"/>
<path fill-rule="evenodd" clip-rule="evenodd" d="M0.404334 5.45721C0.680876 4.97914 1.2926 4.81578 1.77067 5.09232L9.99994 9.85267L18.2292 5.09232C18.7073 4.81578 19.319 4.97914 19.5955 5.45721C19.8721 5.93527 19.7087 6.54699 19.2307 6.82354L10.5007 11.8735C10.1909 12.0527 9.80899 12.0527 9.49922 11.8735L0.769218 6.82354C0.291156 6.54699 0.127792 5.93527 0.404334 5.45721Z" fill="black"/>
<path fill-rule="evenodd" clip-rule="evenodd" d="M10 9.99792C10.5523 9.99792 11 10.4456 11 10.9979V21.0779C11 21.6302 10.5523 22.0779 10 22.0779C9.44772 22.0779 9 21.6302 9 21.0779V10.9979C9 10.4456 9.44772 9.99792 10 9.99792Z" fill="black"/>
</svg>
