<svg width="32" height="32" viewBox="0 0 32 32" fill="none" xmlns="http://www.w3.org/2000/svg">
  <g fill="#515761">
    <path d="M12.722 3.813c0-2.105 1.73-3.813 3.864-3.813 2.135 0 3.865 1.708 3.864 3.813 0 2.106-1.73 3.814-3.864 3.814s-3.864-1.708-3.864-3.814Zm-5.629.423c-1.94 0-3.512 1.552-3.512 3.467 0 1.914 1.573 3.466 3.512 3.466 1.941 0 3.513-1.552 3.513-3.466 0-1.915-1.572-3.467-3.513-3.467Zm-3.931 9.713c1.746 0 3.161 1.398 3.161 3.12 0 1.724-1.415 3.12-3.161 3.12S0 18.793 0 17.07c0-1.722 1.416-3.12 3.162-3.12Zm1.945 14.448a2.746 2.746 0 0 1 0-3.92 2.836 2.836 0 0 1 3.975 0 2.746 2.746 0 0 1 0 3.92 2.838 2.838 0 0 1-3.975 0Zm11.478-1.251c-1.357 0-2.458 1.086-2.458 2.428 0 1.339 1.1 2.426 2.458 2.426 1.359 0 2.46-1.087 2.46-2.426 0-1.342-1.101-2.428-2.46-2.428ZM28.253 17.07c0-.959.786-1.734 1.756-1.734s1.758.775 1.758 1.733c0 .958-.787 1.734-1.758 1.734-.97 0-1.756-.776-1.756-1.734Zm-3.665 7.896a2.061 2.061 0 0 0 0 2.941 2.128 2.128 0 0 0 2.981 0 2.062 2.062 0 0 0 0-2.941 2.128 2.128 0 0 0-2.981 0Zm3.03-17.396c0 .766-.628 1.386-1.405 1.386-.776 0-1.405-.62-1.405-1.387a1.395 1.395 0 0 1 1.404-1.385 1.395 1.395 0 0 1 1.406 1.385Z"/>
  </g>
</svg>