<svg width="24" height="20" viewBox="0 0 24 20" fill="none" xmlns="http://www.w3.org/2000/svg">
<path fill-rule="evenodd" clip-rule="evenodd" d="M1 0.99762C1.55228 0.99762 2 1.44533 2 1.99762V6.99762H7C7.55228 6.99762 8 7.44533 8 7.99762C8 8.5499 7.55228 8.99762 7 8.99762H1C0.447715 8.99762 0 8.5499 0 7.99762V1.99762C0 1.44533 0.447715 0.99762 1 0.99762Z" fill="black"/>
<path fill-rule="evenodd" clip-rule="evenodd" d="M16 11.9976C16 11.4453 16.4477 10.9976 17 10.9976H23C23.5523 10.9976 24 11.4453 24 11.9976V17.9976C24 18.5499 23.5523 18.9976 23 18.9976C22.4477 18.9976 22 18.5499 22 17.9976V12.9976H17C16.4477 12.9976 16 12.5499 16 11.9976Z" fill="black"/>
<path fill-rule="evenodd" clip-rule="evenodd" d="M9.22695 0.393787C10.8497 -0.0755829 12.5648 -0.126238 14.2124 0.246547C15.86 0.619333 17.3863 1.40341 18.6489 2.52561C19.9115 3.64782 20.8692 5.07158 21.4327 6.66404C21.617 7.18469 21.3442 7.75611 20.8236 7.94035C20.3029 8.12459 19.7315 7.85188 19.5473 7.33123C19.0965 6.05726 18.3303 4.91826 17.3202 4.02049C16.3101 3.12273 15.0891 2.49547 13.771 2.19724C12.453 1.89901 11.0808 1.93953 9.78267 2.31503C8.48451 2.69053 7.30262 3.38875 6.34729 4.34456L6.32478 4.36639L1.68478 8.72639C1.2823 9.10458 0.649442 9.08489 0.27125 8.68241C-0.106942 8.27993 -0.0872527 7.64707 0.315226 7.26888L4.9441 2.91933C6.13627 1.7304 7.6094 0.861666 9.22695 0.393787ZM23.7288 11.3129C24.1069 11.7153 24.0873 12.3482 23.6848 12.7264L19.0559 17.0759C17.8637 18.2649 16.3906 19.1336 14.7731 19.6015C13.1503 20.0709 11.4352 20.1215 9.7876 19.7487C8.14002 19.3759 6.61373 18.5919 5.35114 17.4697C4.08855 16.3474 3.13081 14.9237 2.56729 13.3312C2.38305 12.8106 2.65576 12.2392 3.17641 12.0549C3.69705 11.8707 4.26848 12.1434 4.45272 12.664C4.90353 13.938 5.66973 15.077 6.6798 15.9748C7.68987 16.8725 8.91091 17.4998 10.229 17.798C11.547 18.0963 12.9192 18.0557 14.2173 17.6802C15.5155 17.3047 16.6974 16.6065 17.6527 15.6507L17.6752 15.6289L22.3152 11.2689C22.7177 10.8907 23.3506 10.9104 23.7288 11.3129Z" fill="black"/>
</svg>
