<svg width="44" height="45" viewBox="0 0 44 45" fill="currentColor" xmlns="http://www.w3.org/2000/svg">
<path fill-rule="evenodd" clip-rule="evenodd" d="M0.19043 22.1904C0.19043 34.2881 9.99753 44.0952 22.0952 44.0952C34.1929 44.0952 44 34.2881 44 22.1904C44 10.0927 34.1929 0.285645 22.0952 0.285645C9.99753 0.285645 0.19043 10.0927 0.19043 22.1904ZM42.1746 22.1904C42.1746 33.2799 33.1847 42.2698 22.0952 42.2698C11.0057 42.2698 2.01583 33.2799 2.01583 22.1904C2.01583 11.1009 11.0057 2.11104 22.0952 2.11104C33.1847 2.11104 42.1746 11.1009 42.1746 22.1904ZM30.1697 26.5406H27.8761L25.9503 28.6906L20.5423 21.7943C23.2421 21.564 25.3696 19.292 25.3696 16.5276C25.3696 13.611 23.0021 11.238 20.0918 11.238H13.8809V30.1682H15.5905V21.8172H18.3889L24.7925 29.983L21.733 33.3991L21.761 33.4245H24.004L25.8632 31.3488L27.4908 33.4245H29.662L27.0207 30.0564L30.1697 26.5406ZM20.0918 12.9514H15.5905V20.1039H20.0918C22.0595 20.1039 23.66 18.4996 23.66 16.5276C23.66 14.5556 22.0595 12.9514 20.0918 12.9514Z" />
</svg>
