<svg width="32" height="28" viewBox="0 0 32 28" fill="none" xmlns="http://www.w3.org/2000/svg">
<path fill-rule="evenodd" clip-rule="evenodd" d="M29.6229 18.8C29.232 19.9938 28.4794 20.9298 27.5457 21.5265C28.1819 22.2079 28.5664 23.1364 28.5664 24.1766C28.5664 26.3273 26.923 28 24.81 28C22.697 28 21.0535 26.3273 21.0535 24.1766C21.0535 23.4746 21.2286 22.8236 21.538 22.265H14.3474C14.6568 22.8236 14.8319 23.4746 14.8319 24.1766C14.8319 26.3273 13.1885 28 11.0755 28C8.96247 28 7.31902 26.3273 7.31902 24.1766C7.31902 22.97 7.83639 21.9137 8.66377 21.219C7.9485 20.628 7.42114 19.8054 7.20163 18.8L3.44519 5.6572L2.50608 2.43124L0.627851 1.83384C0.0409064 1.59488 -0.0764825 1.11696 0.0409065 0.639036C0.275684 0.0416352 0.74524 -0.077845 1.2148 0.0416352L3.44519 0.758516C3.79735 0.758516 4.03213 1.11696 4.03213 1.35592L5.54627 6.13513H29.3882C30.0925 6.13513 31.0316 6.73253 31.5012 7.32993C32.0881 8.04681 32.0881 8.88317 31.8533 9.83901L29.6229 18.8ZM11.6624 20.3533H24.81H25.0448C26.336 20.3533 27.5099 19.3974 27.6273 18.2026L29.8577 9.24161C29.8577 9.00265 29.7892 8.7317 29.6229 8.52473C29.4566 8.31776 29.2708 8.16629 28.9186 8.16629H6.22804L9.07986 18.2026C9.43203 19.3974 10.6059 20.3533 11.6624 20.3533ZM9.19725 24.1766C9.19725 22.9818 9.90158 22.265 11.0755 22.265C12.0146 22.265 12.9537 22.9818 12.9537 24.1766C12.9537 25.3714 12.2494 26.0883 11.0755 26.0883C9.90158 26.0883 9.19725 25.3714 9.19725 24.1766ZM22.9318 24.1766C22.9318 22.9818 23.6361 22.265 24.81 22.265C25.9839 22.265 26.6882 22.9818 26.6882 24.1766C26.6882 25.3714 25.9839 26.0883 24.81 26.0883C23.6361 26.0883 22.9318 25.3714 22.9318 24.1766Z"/>
</svg>
