<svg width="23" height="22" viewBox="0 0 23 22" fill="none" xmlns="http://www.w3.org/2000/svg">
<path fill-rule="evenodd" clip-rule="evenodd" d="M16 8C16 7.44772 16.4477 7 17 7H18C19.3261 7 20.5979 7.52678 21.5355 8.46447C22.4732 9.40215 23 10.6739 23 12C23 13.3261 22.4732 14.5979 21.5355 15.5355C20.5979 16.4732 19.3261 17 18 17H17C16.4477 17 16 16.5523 16 16C16 15.4477 16.4477 15 17 15H18C18.7956 15 19.5587 14.6839 20.1213 14.1213C20.6839 13.5587 21 12.7956 21 12C21 11.2044 20.6839 10.4413 20.1213 9.87868C19.5587 9.31607 18.7956 9 18 9H17C16.4477 9 16 8.55228 16 8Z" fill="black"/>
<path fill-rule="evenodd" clip-rule="evenodd" d="M0 8C0 7.44772 0.447715 7 1 7H17C17.5523 7 18 7.44772 18 8V17C18 18.3261 17.4732 19.5979 16.5355 20.5355C15.5979 21.4732 14.3261 22 13 22H5C3.67392 22 2.40215 21.4732 1.46447 20.5355C0.526784 19.5979 0 18.3261 0 17V8ZM2 9V17C2 17.7956 2.31607 18.5587 2.87868 19.1213C3.44129 19.6839 4.20435 20 5 20H13C13.7956 20 14.5587 19.6839 15.1213 19.1213C15.6839 18.5587 16 17.7956 16 17V9H2Z" fill="black"/>
<path fill-rule="evenodd" clip-rule="evenodd" d="M5 0C5.55228 0 6 0.447715 6 1V4C6 4.55229 5.55228 5 5 5C4.44772 5 4 4.55229 4 4V1C4 0.447715 4.44772 0 5 0Z" fill="black"/>
<path fill-rule="evenodd" clip-rule="evenodd" d="M9 0C9.55228 0 10 0.447715 10 1V4C10 4.55229 9.55228 5 9 5C8.44772 5 8 4.55229 8 4V1C8 0.447715 8.44772 0 9 0Z" fill="black"/>
<path fill-rule="evenodd" clip-rule="evenodd" d="M13 0C13.5523 0 14 0.447715 14 1V4C14 4.55229 13.5523 5 13 5C12.4477 5 12 4.55229 12 4V1C12 0.447715 12.4477 0 13 0Z" fill="black"/>
</svg>
