<svg width="16" height="16" viewBox="0 0 16 16" fill="none" xmlns="http://www.w3.org/2000/svg">
<path d="M15.5556 2.22225H13.3333V1.33336C13.3333 1.08892 13.1333 0.888916 12.8889 0.888916C12.6444 0.888916 12.4444 1.08892 12.4444 1.33336V2.22225H3.55556V1.33336C3.55556 1.08892 3.35556 0.888916 3.11111 0.888916C2.86667 0.888916 2.66667 1.08892 2.66667 1.33336V2.22225H0.444444C0.2 2.22225 0 2.42225 0 2.66669V14.6667C0 14.9111 0.2 15.1111 0.444444 15.1111H15.5556C15.8 15.1111 16 14.9111 16 14.6667V2.66669C16 2.42225 15.8 2.22225 15.5556 2.22225ZM0.888889 3.11114H2.66667V4.00003C2.66667 4.24447 2.86667 4.44447 3.11111 4.44447C3.35556 4.44447 3.55556 4.24447 3.55556 4.00003V3.11114H12.4444V4.00003C12.4444 4.24447 12.6444 4.44447 12.8889 4.44447C13.1333 4.44447 13.3333 4.24447 13.3333 4.00003V3.11114H15.1111V5.33336H0.888889V3.11114ZM15.1111 14.2222H0.888889V6.22225H15.1111V14.2222Z" fill="black"/>
<path d="M5.4865 12.7356C5.81317 13.0623 6.2465 13.24 6.7065 13.24C7.1665 13.24 7.59983 13.06 7.9265 12.7356L10.5154 10.1467C10.8421 9.82005 11.0198 9.38671 11.0198 8.92671C11.0198 8.46671 10.8398 8.03338 10.5154 7.70672C10.1909 7.38005 9.75539 7.20227 9.29539 7.20227C8.83539 7.20227 8.40206 7.38227 8.07539 7.70672L5.4865 10.2956C5.15983 10.6223 4.98206 11.0556 4.98206 11.5156C4.98206 11.9756 5.16206 12.4089 5.4865 12.7356ZM8.70428 8.3356C8.86206 8.17783 9.07317 8.09116 9.29539 8.09116C9.51761 8.09116 9.72872 8.17783 9.8865 8.3356C10.0443 8.49338 10.1309 8.70449 10.1309 8.92671C10.1309 9.14894 10.0443 9.36005 9.8865 9.51783L8.9065 10.4978L7.72428 9.3156L8.70428 8.3356ZM6.11539 10.9245L7.09539 9.94449L8.27761 11.1267L7.29761 12.1067C6.98206 12.4223 6.43094 12.4223 6.11539 12.1067C5.95761 11.9489 5.87094 11.7378 5.87094 11.5156C5.87094 11.2934 5.95761 11.0823 6.11539 10.9245Z" fill="black"/>
</svg>
