<svg width="16" height="16" viewBox="0 0 16 16" fill="none" xmlns="http://www.w3.org/2000/svg">
<path d="M15.5621 7.55765H13.766C13.6704 6.2973 13.1681 5.15032 12.3923 4.24562L13.6638 2.97416C13.8372 2.80078 13.8372 2.51848 13.6638 2.3451C13.4904 2.17171 13.2081 2.17171 13.0347 2.3451L11.7632 3.61656C10.8585 2.83857 9.70934 2.33843 8.45121 2.24285V0.444568C8.45121 0.200056 8.25115 0 8.00664 0C7.76213 0 7.56207 0.200056 7.56207 0.444568V2.24062C6.30172 2.3362 5.15474 2.83857 4.25004 3.61434L2.97858 2.34287C2.8052 2.16949 2.5229 2.16949 2.34952 2.34287C2.17613 2.51625 2.17613 2.79856 2.34952 2.97194L3.62098 4.2434C2.84299 5.1481 2.34285 6.29731 2.24727 7.55543H0.446765C0.202253 7.55543 0.00219727 7.75549 0.00219727 8C0.00219727 8.24451 0.202253 8.44457 0.446765 8.44457H2.24282C2.3384 9.70492 2.84076 10.8519 3.61653 11.7566L2.34507 13.0281C2.17169 13.2014 2.17169 13.4837 2.34507 13.6571C2.43176 13.7438 2.54513 13.7883 2.65849 13.7883C2.77186 13.7883 2.88522 13.7438 2.97191 13.6571L4.24338 12.3857C5.14807 13.1637 6.29728 13.6638 7.55541 13.7594V15.5554C7.55541 15.7999 7.75546 16 7.99997 16C8.24449 16 8.44454 15.7999 8.44454 15.5554V13.7594C9.70489 13.6638 10.8519 13.1614 11.7566 12.3857L13.028 13.6571C13.1147 13.7438 13.2281 13.7883 13.3415 13.7883C13.4548 13.7883 13.5682 13.7438 13.6549 13.6571C13.8283 13.4837 13.8283 13.2014 13.6549 13.0281L12.3834 11.7566C13.1614 10.8519 13.6615 9.70269 13.7571 8.44457H15.5532C15.7977 8.44457 15.9978 8.24451 15.9978 8C15.9978 7.75549 15.7977 7.55543 15.5532 7.55543L15.5621 7.55765ZM8.00442 12.8925C5.30812 12.8925 3.11417 10.6985 3.11417 8.00222C3.11417 5.30592 5.30812 3.11198 8.00442 3.11198C10.7007 3.11198 12.8947 5.30592 12.8947 8.00222C12.8947 10.6985 10.7007 12.8925 8.00442 12.8925Z" fill="black"/>
</svg>
