<svg width="16" height="16" viewBox="0 0 16 16" fill="none" xmlns="http://www.w3.org/2000/svg">
<path d="M4.89207 8.55817H5.78158V7.66866H6.67108V6.77916H5.78158V5.88965H4.89207V6.77916H4.00256V7.66866H4.89207V8.55817Z" fill="black"/>
<path d="M15.2528 6.93923L13.3293 5.65612V4.90449C13.3293 3.98162 12.5776 3.22999 11.6548 3.22999H10.7719C10.7408 3.22332 10.7074 3.21887 10.6719 3.21887H0.444753C0.200139 3.21887 0 3.41901 0 3.66363V10.7797C0 11.0243 0.200139 11.2244 0.444753 11.2244H1.77901C1.77901 12.0828 2.47728 12.7811 3.33565 12.7811C4.19402 12.7811 4.89229 12.0828 4.89229 11.2244H10.6741C10.7074 11.2244 10.7408 11.22 10.7741 11.2133H11.5636C11.5636 11.2133 11.5636 11.2222 11.5636 11.2244C11.5636 12.0828 12.2618 12.7811 13.1202 12.7811C13.9786 12.7811 14.6769 12.0828 14.6769 11.2244C14.6769 11.22 14.6769 11.2155 14.6769 11.2133H15.5664C15.8043 11.2133 16 11.0198 16 10.7797V8.33131C16 7.77092 15.722 7.24834 15.255 6.93923H15.2528ZM12.4642 4.90671V5.45598H11.1188V4.09726H11.657C12.104 4.09726 12.4664 4.45973 12.4664 4.90671H12.4642ZM3.33565 11.8938C2.96873 11.8938 2.66852 11.5936 2.66852 11.2267C2.66852 10.8597 2.96873 10.5595 3.33565 10.5595C3.70257 10.5595 4.00278 10.8597 4.00278 11.2267C4.00278 11.5936 3.70257 11.8938 3.33565 11.8938ZM10.2293 10.3372H4.61209C4.32967 9.93465 3.86491 9.67002 3.33565 9.67002C2.80639 9.67002 2.34163 9.93465 2.05921 10.3372H0.889507V4.1106H10.2293V10.3372ZM13.1202 11.8938C12.7533 11.8938 12.4531 11.5936 12.4531 11.2267C12.4531 10.8597 12.7533 10.5595 13.1202 10.5595C13.4871 10.5595 13.7874 10.8597 13.7874 11.2267C13.7874 11.5936 13.4871 11.8938 13.1202 11.8938ZM15.1327 10.3483H14.4033C14.1231 9.93909 13.6517 9.67002 13.118 9.67002C12.5843 9.67002 12.1151 9.93909 11.8327 10.3483H11.1166V6.32103H12.7644L14.7703 7.65973C14.9949 7.81095 15.1305 8.06224 15.1305 8.33354V10.3505L15.1327 10.3483Z" fill="black"/>
</svg>
