<svg width="17" height="16" viewBox="0 0 17 16" fill="none" xmlns="http://www.w3.org/2000/svg">
<path d="M15.9723 13.5889L14.7968 5.66444C14.7923 5.64 14.7879 5.61333 14.7812 5.58444C14.7612 5.5 14.7457 5.42222 14.7279 5.32889C14.6657 5.00667 14.5901 4.60667 14.2701 4.28222C13.8923 3.86 13.3212 3.60444 12.7323 3.60222C11.999 3.61111 11.3634 3.99556 11.0034 4.57556L9.78345 3.63778V0.444444C9.78345 0.2 9.58345 0 9.33678 0C9.09233 0 8.89233 0.2 8.89233 0.444444V3.85556C8.89233 3.99333 8.959 4.12444 9.06789 4.20667L10.6946 5.45778C10.6857 5.52889 10.6812 5.60222 10.6812 5.67556V13.2933C10.6412 14.0933 11.1079 14.7889 11.9568 15.2044L12.3523 15.4044C12.7657 15.6022 13.5323 15.9422 14.0212 15.9867C14.0946 15.9956 14.1679 16 14.2434 16C14.5346 16 14.8257 15.9311 15.0946 15.8C15.1168 15.7889 15.139 15.7756 15.1612 15.7622C15.8034 15.3711 16.1012 14.5822 15.9746 13.5867L15.9723 13.5889ZM14.699 15.0044C14.5568 15.0756 14.399 15.1111 14.2434 15.1111C14.2057 15.1111 14.1657 15.1111 14.1146 15.1022C13.9123 15.0844 13.4457 14.9444 12.7457 14.6067L12.3546 14.4089C12.0501 14.26 11.5412 13.9222 11.5723 13.3156V5.68222C11.579 5.02222 12.0946 4.49778 12.7412 4.48889C13.0657 4.48889 13.399 4.63778 13.6257 4.88889C13.7634 5.02889 13.8034 5.21111 13.8634 5.51556C13.8812 5.60222 13.899 5.69333 13.9212 5.79333L15.0968 13.7089C15.1768 14.3311 15.0323 14.8022 14.7034 15.0022L14.699 15.0044Z" fill="black"/>
<path d="M6.66789 0C6.42345 0 6.22345 0.197778 6.22345 0.444444L6.219 3.63778L5.00122 4.57556C4.639 3.99556 4.00122 3.61333 3.259 3.60222C2.68122 3.60444 2.11011 3.86 1.74789 4.26667C1.41233 4.60667 1.33678 5.00667 1.27011 5.34889C1.25678 5.42222 1.24122 5.5 1.219 5.59111C1.21233 5.61556 1.20789 5.64222 1.20567 5.66444L0.02789 13.5978C-0.0965545 14.5844 0.199001 15.3733 0.843446 15.7644C0.865668 15.7778 0.88789 15.7889 0.912335 15.8022C1.17678 15.9311 1.47011 16 1.759 16C1.83456 16 1.90789 15.9956 1.96789 15.9889C2.46789 15.9422 3.23678 15.6044 3.65678 15.4022L4.03678 15.2089C4.89011 14.7911 5.359 14.0956 5.319 13.3178V5.67333C5.319 5.6 5.31456 5.52889 5.30567 5.46L6.93011 4.20889C7.039 4.12444 7.10345 3.99556 7.10345 3.85778L7.10789 0.446667C7.10789 0.202222 6.91011 0.00222227 6.66345 0.00222227L6.66789 0ZM3.64567 14.4133L3.26789 14.6044C2.559 14.9444 2.09233 15.0844 1.879 15.1044C1.68789 15.1267 1.48567 15.0911 1.30567 15.0044C0.976779 14.8044 0.832335 14.3333 0.910112 13.72L2.08567 5.79333C2.11011 5.69556 2.12789 5.60222 2.14789 5.49556C2.20122 5.21111 2.24122 5.03111 2.39456 4.87556C2.60567 4.64 2.939 4.49333 3.259 4.49111C3.91011 4.5 4.42567 5.02444 4.43233 5.68V13.3422C4.46122 13.9267 3.95456 14.2644 3.64345 14.4156L3.64567 14.4133Z" fill="black"/>
</svg>
