<svg width="16" height="16" viewBox="0 0 16 16" fill="none" xmlns="http://www.w3.org/2000/svg">
<path d="M14.9461 0H13.2993C13.1746 0 13.0546 0.0494045 12.9675 0.138803L11.4925 1.61388C10.3373 0.611675 8.82933 0.00235265 7.18251 0.00235265C6.92373 0.00235265 6.712 0.214086 6.712 0.472872V6.1191H1.06577C0.806982 6.1191 0.595248 6.33083 0.595248 6.58962C0.595248 8.95633 1.85153 11.036 3.73126 12.1982L3.43013 12.4993C3.15017 12.3347 2.82551 12.2358 2.47497 12.2358C1.43748 12.2358 0.592896 13.0804 0.592896 14.1179C0.592896 15.1554 1.43748 16 2.47497 16C3.51247 16 4.35705 15.1554 4.35705 14.1179C4.35705 13.7697 4.26059 13.4451 4.09356 13.1628L4.60407 12.6523C5.39454 12.9887 6.265 13.1769 7.17781 13.1769C8.09062 13.1769 8.96108 12.991 9.75155 12.6523L10.2621 13.1628C10.0974 13.4427 9.99857 13.7674 9.99857 14.1179C9.99857 15.1554 10.8432 16 11.8806 16C12.9181 16 13.7627 15.1554 13.7627 14.1179C13.7627 13.0804 12.9181 12.2358 11.8806 12.2358C11.5325 12.2358 11.2078 12.3323 10.9255 12.4993L10.6244 12.1982C12.5041 11.036 13.7604 8.95868 13.7604 6.58962C13.7604 4.9428 13.151 3.43479 12.1488 2.27966L13.4851 0.943391H14.9367C15.1955 0.943391 15.4072 0.731657 15.4072 0.472872C15.4072 0.214086 15.1955 0.00235265 14.9367 0.00235265L14.9461 0ZM2.47732 15.0566C1.9574 15.0566 1.53629 14.6355 1.53629 14.1156C1.53629 13.5956 1.9574 13.1745 2.47732 13.1745C2.99725 13.1745 3.41836 13.5956 3.41836 14.1156C3.41836 14.6355 2.99725 15.0566 2.47732 15.0566ZM12.8287 14.1156C12.8287 14.6355 12.4076 15.0566 11.8877 15.0566C11.3678 15.0566 10.9467 14.6355 10.9467 14.1156C10.9467 13.5956 11.3678 13.1745 11.8877 13.1745C12.4076 13.1745 12.8287 13.5956 12.8287 14.1156ZM7.18251 12.2335C4.22765 12.2335 1.79507 9.95148 1.55511 7.05779H12.8076C12.5676 9.95148 10.135 12.2335 7.18016 12.2335H7.18251ZM7.65303 6.11675V0.959859C10.3915 1.18571 12.5817 3.37833 12.8099 6.11675H7.65303Z" fill="black"/>
</svg>
