<svg width="16" height="17" viewBox="0 0 16 17" fill="none" xmlns="http://www.w3.org/2000/svg">
<path d="M6.88415 7.82907C6.87304 7.8024 6.8597 7.77795 6.84415 7.75351C6.82637 7.72906 6.80859 7.70462 6.78859 7.68462C6.62192 7.52017 6.32413 7.52017 6.15968 7.68462C6.13968 7.70462 6.11968 7.72906 6.10412 7.75351C6.08857 7.77795 6.07523 7.8024 6.06412 7.82907C6.05301 7.85573 6.04412 7.88462 6.03745 7.91351C6.03301 7.94018 6.02856 7.97129 6.02856 8.00018C6.02856 8.02907 6.03301 8.05796 6.03745 8.08685C6.04412 8.11574 6.05079 8.14241 6.0619 8.16908C6.07301 8.19574 6.08857 8.22241 6.10412 8.24686C6.11968 8.26908 6.13968 8.29353 6.15968 8.31353C6.24191 8.39797 6.35524 8.44242 6.47302 8.44242C6.53303 8.44242 6.59081 8.43131 6.64414 8.40909C6.69748 8.38686 6.74637 8.35575 6.78859 8.31353C6.80859 8.29353 6.82637 8.26908 6.84415 8.24686C6.8597 8.22241 6.87304 8.19574 6.88415 8.16908C6.89526 8.14241 6.90415 8.11574 6.90859 8.08685C6.91526 8.05796 6.91748 8.02907 6.91748 8.00018C6.91748 7.97129 6.91748 7.94018 6.90859 7.91351C6.90415 7.88462 6.89526 7.85573 6.88415 7.82907Z" fill="black"/>
<path d="M7.68199 7.68462C7.59977 7.76906 7.5531 7.8824 7.5531 8.00018C7.5531 8.02907 7.5531 8.05796 7.56199 8.08685C7.56643 8.11574 7.57532 8.14241 7.58644 8.16908C7.59755 8.19574 7.61088 8.22241 7.62644 8.24686C7.64422 8.26908 7.66199 8.29353 7.68199 8.31353C7.76644 8.39797 7.87978 8.44242 7.99756 8.44242C8.11534 8.44242 8.22868 8.39797 8.31313 8.31353C8.33313 8.29353 8.35091 8.26908 8.36868 8.24686C8.38424 8.22241 8.39757 8.19574 8.40869 8.16908C8.4198 8.14241 8.42869 8.11574 8.43313 8.08685C8.4398 8.05796 8.44202 8.02907 8.44202 8.00018C8.44202 7.8824 8.39535 7.76906 8.31313 7.68462C8.14645 7.52017 7.84867 7.52017 7.68199 7.68462Z" fill="black"/>
<path d="M9.95754 7.91351C9.95088 7.88462 9.94199 7.85573 9.93088 7.82907C9.91977 7.8024 9.90643 7.77795 9.89088 7.75351C9.87532 7.72906 9.85532 7.70462 9.83532 7.68462C9.67087 7.52017 9.37308 7.52017 9.20641 7.68462C9.18641 7.70462 9.16863 7.72906 9.15085 7.75351C9.13529 7.77795 9.12196 7.8024 9.11085 7.82907C9.09974 7.85573 9.09085 7.88462 9.0864 7.91351C9.07974 7.94018 9.07751 7.97129 9.07751 8.00018C9.07751 8.11796 9.12418 8.2313 9.20641 8.31353C9.24863 8.35575 9.29752 8.38686 9.35086 8.40909C9.40419 8.43131 9.46197 8.44242 9.52197 8.44242C9.63976 8.44242 9.75309 8.39797 9.83532 8.31353C9.85532 8.29353 9.87532 8.26908 9.89088 8.24686C9.90643 8.22241 9.92199 8.19574 9.9331 8.16908C9.94421 8.14241 9.95088 8.11574 9.95754 8.08685C9.96199 8.05796 9.96643 8.02907 9.96643 8.00018C9.96643 7.97129 9.96199 7.94018 9.95754 7.91351Z" fill="black"/>
<path d="M8.24424 6.10682C8.21979 6.08904 8.19534 6.0757 8.16645 6.06459C8.13979 6.05348 8.11312 6.04459 8.08423 6.04015C7.93978 6.00903 7.78644 6.05792 7.68422 6.16237C7.66199 6.18237 7.64421 6.2046 7.62866 6.22904C7.6131 6.25349 7.59755 6.27793 7.58644 6.3046C7.57532 6.33127 7.56866 6.36016 7.56199 6.38905C7.55532 6.41794 7.5531 6.44683 7.5531 6.47572C7.5531 6.50461 7.5531 6.5335 7.56199 6.56239C7.56643 6.59128 7.57532 6.62017 7.58644 6.64683C7.59755 6.6735 7.61088 6.69795 7.62866 6.72239C7.64421 6.74684 7.66199 6.76906 7.68422 6.78906C7.70422 6.81128 7.72644 6.82906 7.75089 6.84462C7.77533 6.8624 7.79978 6.87573 7.82644 6.88684C7.85311 6.89795 7.882 6.90684 7.91089 6.91129C7.93756 6.91795 7.96867 6.92018 7.99756 6.92018C8.11534 6.92018 8.22868 6.87351 8.3109 6.78906C8.33313 6.76906 8.35091 6.74684 8.36868 6.72239C8.38424 6.69795 8.39757 6.6735 8.40869 6.64683C8.4198 6.62017 8.42869 6.59128 8.43313 6.56239C8.4398 6.5335 8.44202 6.50461 8.44202 6.47572C8.44202 6.35793 8.39535 6.2446 8.3109 6.16237C8.2909 6.14015 8.26868 6.12237 8.24424 6.10682Z" fill="black"/>
<path d="M7.68422 9.20913C7.66199 9.22913 7.64421 9.25136 7.62866 9.2758C7.6131 9.30025 7.59755 9.32692 7.58644 9.35358C7.57532 9.38025 7.56866 9.40914 7.56199 9.43581C7.55532 9.4647 7.5531 9.49359 7.5531 9.5247C7.5531 9.55359 7.5531 9.58248 7.56199 9.61137C7.56643 9.64026 7.57532 9.66693 7.58644 9.69359C7.59755 9.72026 7.61088 9.74471 7.62866 9.76915C7.64421 9.7936 7.66199 9.81582 7.68422 9.83804C7.76644 9.92027 7.87756 9.96694 7.99756 9.96694C8.02645 9.96694 8.05756 9.96472 8.08423 9.95805C8.11312 9.9536 8.14201 9.94471 8.16868 9.9336C8.19535 9.92249 8.21979 9.90916 8.24424 9.8936C8.26868 9.87805 8.2909 9.85805 8.3109 9.83804C8.33313 9.81582 8.35091 9.7936 8.36868 9.76915C8.38424 9.74471 8.39757 9.72026 8.40869 9.69359C8.4198 9.66693 8.42869 9.64026 8.43313 9.61137C8.4398 9.58248 8.44202 9.55359 8.44202 9.5247C8.44202 9.40692 8.39535 9.29136 8.3109 9.20913C8.14645 9.04246 7.84867 9.04468 7.68422 9.20913Z" fill="black"/>
<path d="M14.9977 10.1715L12.8266 8.00028L14.9977 5.82909C14.9977 5.82909 15.0022 5.82465 15.0044 5.82242C15.6467 5.17796 16 4.32237 16 3.41345C16 2.50231 15.6444 1.6445 15 1.00003C14.9977 0.997812 14.9933 0.993368 14.9911 0.991145C13.6599 -0.331123 11.4976 -0.3289 10.1709 1.00003L7.99972 3.17122L5.82854 1.00003C5.18407 0.355568 4.32626 0 3.41512 0C2.5062 0 1.65284 0.351123 1.00837 0.991145C1.00615 0.993368 1.0017 0.997812 0.99948 1.00003C-0.329455 2.32897 -0.331678 4.49127 0.992813 5.82465C0.992813 5.82465 0.997258 5.82909 0.99948 5.83131L3.17067 8.0025L1.00392 10.1692C1.00392 10.1692 0.99948 10.1737 0.997257 10.1759C-0.3339 11.5071 -0.331677 13.6738 0.99948 15.005C1.66395 15.6694 2.53953 16.0028 3.4129 16.0028C4.28626 16.0028 5.16185 15.6694 5.82854 15.0027L7.99972 12.8316L10.1709 15.0027C10.8154 15.6472 11.6732 16.0028 12.5843 16.0028C13.4955 16.0028 14.3533 15.6472 14.9977 15.0027C15.6422 14.3583 15.9978 13.5005 15.9978 12.5893C15.9978 11.6804 15.6444 10.8248 15.0022 10.1804C15.0022 10.1804 14.9977 10.1759 14.9955 10.1737L14.9977 10.1715ZM7.9975 11.5737L4.42627 8.0025L7.9975 4.42904L11.5687 8.0025L7.9975 11.5737ZM10.7976 1.63117C11.7821 0.646689 13.3844 0.646689 14.3688 1.63117C14.3711 1.63339 14.3733 1.63561 14.3777 1.63783C14.8511 2.11341 15.1111 2.74454 15.1111 3.41567C15.1111 4.09125 14.8488 4.72461 14.3711 5.2024C14.3711 5.2024 14.3666 5.20685 14.3644 5.20907L12.1976 7.37581L8.62641 3.80235L10.7976 1.63117ZM1.62617 5.20018C1.14837 4.72239 0.886142 4.08903 0.886142 3.41345C0.886142 2.74232 1.14615 2.11118 1.6195 1.63561C1.62172 1.63339 1.62395 1.63117 1.62839 1.62895C2.10618 1.15115 2.73954 0.88892 3.4129 0.88892C4.08625 0.88892 4.72183 1.15115 5.1974 1.62895L7.36859 3.80013L3.79735 7.37359L1.63061 5.20685C1.63061 5.20685 1.62617 5.2024 1.62395 5.20018H1.62617ZM5.19963 14.3716C4.72183 14.8494 4.08848 15.1116 3.41512 15.1116C2.74176 15.1116 2.10618 14.8494 1.62839 14.3716C0.646134 13.3894 0.643912 11.7893 1.62395 10.8048L1.62839 10.8004L3.79958 8.62919L7.37081 12.2004L5.19963 14.3716ZM14.3688 14.3716C13.891 14.8472 13.2577 15.1116 12.5843 15.1116C11.9087 15.1116 11.2754 14.8494 10.7998 14.3716L8.62863 12.2004L12.1999 8.62919L14.3666 10.7959C14.3666 10.7959 14.3711 10.8004 14.3733 10.8026C14.8511 11.2804 15.1133 11.9137 15.1133 12.5893C15.1133 13.2627 14.8511 13.8983 14.3711 14.3761L14.3688 14.3716Z" fill="black"/>
</svg>
