<svg width="16" height="16" viewBox="0 0 16 16" fill="none" xmlns="http://www.w3.org/2000/svg">
<path d="M12.9814 6.52739C12.5279 6.52739 12.1011 6.62965 11.7144 6.8097L10.7274 5.30706L11.2476 4.32456H11.4699C11.7144 4.32456 11.9144 4.12451 11.9144 3.87999C11.9144 3.63548 11.7144 3.43542 11.4699 3.43542H9.62712C9.38261 3.43542 9.18255 3.63548 9.18255 3.87999C9.18255 4.12451 9.38261 4.32456 9.62712 4.32456H10.2428L9.92942 4.91584H6.03501L5.37705 3.67105C5.29925 3.52434 5.1481 3.43542 4.98361 3.43542H3.31203C2.6763 3.43542 2.15838 3.95335 2.15838 4.5913C2.15838 5.22926 2.6763 5.74718 3.31203 5.74718C3.55654 5.74718 3.7566 5.54712 3.7566 5.30261C3.7566 5.0581 3.55654 4.85804 3.31203 4.85804C3.16532 4.85804 3.04751 4.73801 3.04751 4.5913C3.04751 4.44459 3.16755 4.32456 3.31203 4.32456H4.71687L5.25257 5.33595L4.28563 6.8097C3.89886 6.62965 3.47208 6.52739 3.01862 6.52739C1.35371 6.52739 0 7.8811 0 9.54601C0 11.2109 1.35371 12.5646 3.01862 12.5646C4.68352 12.5646 6.03723 11.2109 6.03723 9.54601C6.03723 8.65243 5.64601 7.85221 5.02584 7.29872L5.72603 6.23398L7.58877 9.75496C7.59322 9.76163 7.59767 9.76829 7.60211 9.77496C7.60878 9.78608 7.61767 9.79941 7.62434 9.81053C7.63323 9.82164 7.64212 9.83276 7.65324 9.84387C7.65768 9.84832 7.6599 9.85276 7.66435 9.85721C7.67102 9.86388 7.67769 9.86832 7.68436 9.87499C7.69547 9.88388 7.70658 9.89277 7.7177 9.90167C7.72881 9.90833 7.7377 9.91723 7.74882 9.92389C7.75326 9.92834 7.75993 9.93056 7.76438 9.93279C7.76882 9.93279 7.77105 9.93723 7.77549 9.93945C7.77994 9.94168 7.78438 9.94168 7.78883 9.9439C7.80884 9.95279 7.82884 9.96168 7.84885 9.96835C7.85552 9.97057 7.86218 9.9728 7.86885 9.97502C7.8733 9.97502 7.87774 9.97724 7.88219 9.97947C7.91331 9.98613 7.94443 9.99058 7.97777 9.99058C7.97777 9.99058 7.97777 9.99058 7.97999 9.99058H9.99833C10.2139 11.4443 11.4676 12.5646 12.9814 12.5646C14.6463 12.5646 16 11.2109 16 9.54601C16 7.8811 14.6463 6.52739 12.9814 6.52739ZM5.14587 9.54601C5.14587 10.7219 4.19005 11.6755 3.01639 11.6755C1.84273 11.6755 0.886913 10.7197 0.886913 9.54601C0.886913 8.37235 1.84273 7.41653 3.01639 7.41653C3.28758 7.41653 3.54765 7.46988 3.78772 7.56324L2.64518 9.30372C2.50959 9.50822 2.56738 9.78385 2.77188 9.91945C2.84746 9.96835 2.93193 9.9928 3.01639 9.9928C3.16088 9.9928 3.30314 9.92167 3.38761 9.79275L4.53015 8.05226C4.91025 8.43681 5.14587 8.96585 5.14587 9.54823V9.54601ZM12.1567 9.10144H10.8986C10.9853 8.69689 11.1853 8.33456 11.4676 8.05004L12.1589 9.10144H12.1567ZM9.99833 9.10144H8.7202L10.254 6.20286L10.9719 7.2965C10.4585 7.75663 10.1028 8.38791 9.99833 9.09922V9.10144ZM9.45818 5.80497L7.98222 8.59464L6.50625 5.80497H9.46041H9.45818ZM12.9814 11.6777C11.9589 11.6777 11.1031 10.9531 10.8986 9.9928H12.9814C13.0192 9.9928 13.057 9.98613 13.0925 9.97724C13.1014 9.97502 13.1103 9.9728 13.1192 9.96835C13.1525 9.95724 13.1859 9.94168 13.2148 9.92389C13.217 9.92389 13.2192 9.92389 13.2237 9.91945C13.2237 9.91945 13.2237 9.91945 13.2259 9.91945C13.2415 9.91056 13.2548 9.89722 13.2681 9.88611C13.3148 9.84609 13.3526 9.79719 13.3793 9.74384C13.3837 9.73718 13.3882 9.73051 13.3904 9.72162C13.4015 9.69494 13.4104 9.66827 13.4171 9.63937C13.4171 9.63715 13.4171 9.6327 13.4171 9.63048C13.4215 9.60381 13.4237 9.57935 13.426 9.55268C13.426 9.54601 13.426 9.53712 13.4237 9.53045C13.4237 9.51045 13.4215 9.48822 13.4171 9.46821C13.4148 9.45487 13.4104 9.44376 13.4059 9.43042C13.4015 9.41486 13.3971 9.3993 13.3926 9.38597C13.3859 9.37041 13.377 9.35485 13.3682 9.33929C13.3637 9.3304 13.3593 9.31928 13.3526 9.31039L12.2101 7.56991C12.4501 7.47655 12.7102 7.4232 12.9814 7.4232C14.1573 7.4232 15.1109 8.37902 15.1109 9.55268C15.1109 10.7263 14.155 11.6822 12.9814 11.6822V11.6777Z" fill="black"/>
</svg>
