<svg width="16" height="16" viewBox="0 0 16 16" fill="none" xmlns="http://www.w3.org/2000/svg">
<path d="M11.9981 7.50007H11.2757L14.0028 1.501H15.5001C15.775 1.501 16 1.27604 16 1.00108C16 0.726125 15.775 0.50116 15.5001 0.50116H11.5007C11.2257 0.50116 11.0008 0.726125 11.0008 1.00108C11.0008 1.27604 11.2257 1.501 11.5007 1.501H12.9055L10.1784 7.50007H4.82425L3.91439 5.50038H5.50164C5.7766 5.50038 6.00156 5.27541 6.00156 5.00046C6.00156 4.7255 5.7766 4.50053 5.50164 4.50053H1.49977C1.22481 4.50053 0.999844 4.7255 0.999844 5.00046C0.999844 5.27541 1.22481 5.50038 1.49977 5.50038H2.81456L3.72942 7.51256C1.64974 7.65254 0 9.38477 0 11.4994C0 13.6141 1.79472 15.4988 3.99937 15.4988H11.9981C14.2028 15.4988 15.9975 13.7041 15.9975 11.4994C15.9975 9.29479 14.2028 7.50007 11.9981 7.50007ZM11.9981 14.499H3.99937C2.34463 14.499 0.999844 13.1542 0.999844 11.4994C0.999844 9.8447 2.34463 8.49991 3.99937 8.49991H4.4968H10.4909H11.9881C13.6429 8.49991 14.9877 9.8447 14.9877 11.4994C14.9877 13.1542 13.6429 14.499 11.9881 14.499H11.9981Z" fill="black"/>
<path d="M3.9992 9.49976C2.89687 9.49976 1.99951 10.3971 1.99951 11.4994C1.99951 12.6018 2.89687 13.4991 3.9992 13.4991C5.10153 13.4991 5.99889 12.6018 5.99889 11.4994C5.99889 10.3971 5.10153 9.49976 3.9992 9.49976ZM3.9992 12.4993C3.44679 12.4993 2.99936 12.0519 2.99936 11.4994C2.99936 10.947 3.44679 10.4996 3.9992 10.4996C4.55161 10.4996 4.99904 10.947 4.99904 11.4994C4.99904 12.0519 4.55161 12.4993 3.9992 12.4993Z" fill="black"/>
</svg>
