<svg width="16" height="16" viewBox="0 0 16 16" fill="none" xmlns="http://www.w3.org/2000/svg">
<path d="M12.4444 0C10.6356 0 9.14 1.36 8.92 3.11111H7.08C6.86 1.36 5.36444 0 3.55556 0C1.59556 0 0 1.59556 0 3.55556V12.4444C0 14.4044 1.59556 16 3.55556 16C5.36444 16 6.86 14.64 7.08 12.8889H8.92C9.14 14.64 10.6356 16 12.4444 16C14.4044 16 16 14.4044 16 12.4444V3.55556C16 1.59556 14.4044 0 12.4444 0ZM7.11111 4H8.88889V12H7.11111V4ZM0.888889 3.55556C0.888889 2.08444 2.08444 0.888889 3.55556 0.888889C5.02667 0.888889 6.22222 2.08444 6.22222 3.55556V10.1C5.57111 9.36 4.61778 8.88889 3.55556 8.88889C2.49333 8.88889 1.54 9.36 0.888889 10.1V3.55556ZM3.55556 15.1111C2.08444 15.1111 0.888889 13.9156 0.888889 12.4444C0.888889 10.9733 2.08444 9.77778 3.55556 9.77778C5.02667 9.77778 6.22222 10.9733 6.22222 12.4444C6.22222 13.9156 5.02667 15.1111 3.55556 15.1111ZM12.4444 15.1111C10.9733 15.1111 9.77778 13.9156 9.77778 12.4444C9.77778 10.9733 10.9733 9.77778 12.4444 9.77778C13.9156 9.77778 15.1111 10.9733 15.1111 12.4444C15.1111 13.9156 13.9156 15.1111 12.4444 15.1111ZM12.4444 8.88889C11.3822 8.88889 10.4289 9.36 9.77778 10.1V3.55556C9.77778 2.08444 10.9733 0.888889 12.4444 0.888889C13.9156 0.888889 15.1111 2.08444 15.1111 3.55556V10.1C14.46 9.36 13.5067 8.88889 12.4444 8.88889Z" fill="black"/>
</svg>
