<svg width="16" height="16" viewBox="0 0 16 16" fill="none" xmlns="http://www.w3.org/2000/svg">
<path d="M8.62888 7.99811L12.0932 4.53381C12.2665 4.36048 12.2665 4.07827 12.0932 3.90494L8.31333 0.129542C8.18667 0.00288105 7.99557 -0.0348952 7.82891 0.0339908C7.66225 0.102877 7.55559 0.265092 7.55559 0.445085V6.92704L4.53571 3.90716C4.36239 3.73384 4.08018 3.73384 3.90685 3.90716C3.73352 4.08049 3.73352 4.3627 3.90685 4.53603L7.37115 8.00033L3.90685 11.4646C3.73352 11.638 3.73352 11.9202 3.90685 12.0935C4.08018 12.2668 4.36239 12.2668 4.53571 12.0935L7.55559 9.07362V15.5556C7.55559 15.7356 7.66447 15.8978 7.82891 15.9667C7.88446 15.9889 7.94224 16 7.99779 16C8.11334 16 8.22667 15.9556 8.31111 15.8689L12.0887 12.0913C12.2621 11.9179 12.2621 11.6357 12.0887 11.4624L8.62443 7.99811H8.62888ZM8.44444 1.51615L11.1488 4.22049L8.44444 6.92482V1.51615ZM8.44444 14.4801V9.0714L11.1488 11.7757L8.44444 14.4801Z" fill="black"/>
</svg>
