<svg width="16" height="16" viewBox="0 0 16 16" fill="none" xmlns="http://www.w3.org/2000/svg">
<path d="M12.091 6.66669C12.3354 6.66669 12.5354 6.46669 12.5354 6.22225C12.5354 3.77115 10.5421 1.77783 8.09102 1.77783C5.63993 1.77783 3.64661 3.77115 3.64661 6.22225C3.64661 6.46669 3.84661 6.66669 4.09105 6.66669C4.33549 6.66669 4.53549 6.46669 4.53549 6.22225C4.53549 4.26226 6.13104 2.66672 8.09102 2.66672C10.051 2.66672 11.6466 4.26226 11.6466 6.22225C11.6466 6.46669 11.8466 6.66669 12.091 6.66669Z" fill="black"/>
<path d="M8.09084 3.55554C6.61974 3.55554 5.42419 4.75109 5.42419 6.22219C5.42419 6.46664 5.62419 6.66663 5.86864 6.66663C6.11308 6.66663 6.31308 6.46664 6.31308 6.22219C6.31308 5.2422 7.11085 4.44443 8.09084 4.44443C9.07084 4.44443 9.86861 5.2422 9.86861 6.22219C9.86861 6.46664 10.0686 6.66663 10.3131 6.66663C10.5575 6.66663 10.7575 6.46664 10.7575 6.22219C10.7575 4.75109 9.56195 3.55554 8.09084 3.55554Z" fill="black"/>
<path d="M15.2445 15.2977C14.0734 13.6532 12.3889 12.4755 10.4978 11.9199C12.6889 10.9555 14.2222 8.76661 14.2222 6.22218C14.2222 2.79109 11.4311 0 8.00006 0C4.56897 0 1.77787 2.79109 1.77787 6.22218C1.77787 8.76439 3.3112 10.9555 5.5023 11.9199C3.6112 12.4777 1.92899 13.6532 0.755659 15.2977C0.613437 15.4977 0.660104 15.7755 0.860103 15.9177C1.0601 16.0599 1.33788 16.0132 1.4801 15.8132C2.98231 13.7044 5.42007 12.4444 8.00006 12.4444C10.58 12.4444 13.0178 13.7044 14.52 15.8132C14.6067 15.9355 14.7445 15.9999 14.8822 15.9999C14.9711 15.9999 15.0622 15.9732 15.14 15.9177C15.34 15.7755 15.3867 15.4977 15.2445 15.2977ZM2.66676 6.22218C2.66676 3.2822 5.06008 0.888884 8.00006 0.888884C10.94 0.888884 13.3334 3.2822 13.3334 6.22218C13.3334 9.16217 10.94 11.5555 8.00006 11.5555C5.06008 11.5555 2.66676 9.16217 2.66676 6.22218Z" fill="black"/>
</svg>
