<svg width="16" height="16" viewBox="0 0 16 16" fill="none" xmlns="http://www.w3.org/2000/svg">
<path d="M15.8222 1.86843C15.7111 1.78399 15.5667 1.75732 15.4333 1.7951L9.77778 3.41066V3.11066C9.77778 2.86621 9.57778 2.66621 9.33333 2.66621H2.22222C1.97778 2.66621 1.77778 2.86621 1.77778 3.11066V4.44399H0.928889C0.417778 4.44399 0 4.85955 0 5.37066V7.07066C0 7.58177 0.415556 7.99955 0.928889 7.99955H1.77778V9.33288C1.77778 9.57732 1.97778 9.77732 2.22222 9.77732H4.52444L5.34222 13.864C5.38444 14.0707 5.56667 14.2218 5.77778 14.2218H7.55556C7.68889 14.2218 7.81556 14.1618 7.9 14.0595C7.98444 13.9573 8.01778 13.8218 7.99111 13.6907L7.20889 9.77732H9.33333C9.57778 9.77732 9.77778 9.57732 9.77778 9.33288V9.03288L15.4333 10.6484C15.4733 10.6595 15.5156 10.6662 15.5556 10.6662C15.6511 10.6662 15.7444 10.6351 15.8222 10.5773C15.9333 10.4929 16 10.3618 16 10.2218V2.22399C16 2.08399 15.9356 1.95288 15.8222 1.86843ZM0.928889 7.11288C0.906667 7.11288 0.888889 7.0951 0.888889 7.07288V5.37288C0.888889 5.35066 0.906667 5.3351 0.928889 5.3351H1.77778V7.11288H0.928889ZM7.01556 13.3351H6.14444L5.43333 9.77955H6.30444L7.01556 13.3351ZM8.89111 8.89066H2.66889V3.55732H8.89111V8.89066ZM15.1133 9.6351L9.78 8.11066V4.33732L15.1133 2.81288V9.6351Z" fill="black"/>
</svg>
