<svg width="16" height="16" viewBox="0 0 16 16" fill="none" xmlns="http://www.w3.org/2000/svg">
<path d="M14.2274 7.11708H14.2029C13.9783 4.13682 11.4829 1.7793 8.44481 1.7793H7.55518C4.5171 1.7793 2.02168 4.13682 1.79705 7.11708H1.77259C0.793995 7.11708 0 7.9133 0 8.88967C0 9.86604 0.796219 10.6623 1.77259 10.6623H1.77926V12.4482C1.77926 13.4268 2.57548 14.2208 3.55185 14.2208H12.4482C13.4267 14.2208 14.2207 13.4246 14.2207 12.4482V10.6623H14.2274C15.206 10.6623 16 9.86604 16 8.88967C16 7.9133 15.2038 7.11708 14.2274 7.11708ZM7.55518 2.65781H8.44481C10.9981 2.65781 13.102 4.62167 13.3244 7.11708H2.67556C2.89797 4.62167 5.00195 2.65781 7.55518 2.65781ZM6.99917 7.99559L5.77592 8.81405L4.55268 7.99559H6.99917ZM13.3445 12.4504C13.3445 12.9442 12.9419 13.3467 12.4482 13.3467H3.55185C3.0581 13.3467 2.65555 12.9442 2.65555 12.4504V10.6645H13.3422V12.4504H13.3445ZM14.2274 9.78819H1.77259C1.27884 9.78819 0.876286 9.38564 0.876286 8.89189C0.876286 8.39815 1.27884 7.99559 1.77259 7.99559H2.97359L5.53128 9.7059C5.60467 9.75483 5.68919 9.7793 5.77592 9.7793C5.86266 9.7793 5.94718 9.75483 6.02057 9.7059L8.57826 7.99559H14.2274C14.7212 7.99559 15.1237 8.39815 15.1237 8.89189C15.1237 9.38564 14.7212 9.78819 14.2274 9.78819Z" fill="black"/>
<path d="M4.03678 5.94939C4.0479 5.97608 4.06124 6.00054 4.07681 6.02501C4.09238 6.04947 4.11017 6.07171 4.13019 6.09173C4.15243 6.11175 4.17467 6.12954 4.19691 6.14733C4.22138 6.1629 4.24807 6.17625 4.27476 6.18737C4.29922 6.19849 4.32813 6.20738 4.35482 6.21183C4.38373 6.2185 4.41265 6.22073 4.44156 6.22073C4.47047 6.22073 4.49939 6.2185 4.5283 6.21183C4.55499 6.20738 4.5839 6.19849 4.60837 6.18737C4.63506 6.17625 4.66174 6.1629 4.68621 6.14733C4.70845 6.12954 4.73069 6.11175 4.75293 6.09173C4.77295 6.07171 4.79074 6.04947 4.80631 6.02501C4.82188 6.00054 4.83522 5.97608 4.84634 5.94939C4.85746 5.9227 4.86636 5.89601 4.87081 5.8671C4.87748 5.83819 4.8797 5.80927 4.8797 5.78036C4.8797 5.75367 4.8797 5.72476 4.87081 5.69585C4.86636 5.66693 4.85746 5.64024 4.84634 5.61355C4.83522 5.58687 4.82188 5.5624 4.80631 5.53794C4.79074 5.51347 4.77295 5.49123 4.75293 5.47121C4.73069 5.4512 4.70845 5.4334 4.68621 5.41561C4.66174 5.40004 4.63506 5.3867 4.60837 5.37558C4.5839 5.36446 4.55499 5.35779 4.5283 5.35111C4.47047 5.33999 4.41265 5.33999 4.35482 5.35111C4.32813 5.35779 4.29922 5.36446 4.27476 5.37558C4.24807 5.3867 4.22138 5.40004 4.19691 5.41561C4.17467 5.4334 4.15243 5.4512 4.13019 5.47121C4.11017 5.49123 4.09238 5.51347 4.07681 5.53794C4.06124 5.5624 4.0479 5.58687 4.03678 5.61355C4.02566 5.64024 4.01676 5.66693 4.01231 5.69585C4.00564 5.72476 4.00342 5.75367 4.00342 5.78036C4.00342 5.80927 4.00564 5.83819 4.01231 5.8671C4.01676 5.89601 4.02566 5.9227 4.03678 5.94939Z" fill="black"/>
<path d="M8.00003 6.22073C8.02895 6.22073 8.05786 6.2185 8.08677 6.21183C8.11346 6.20738 8.14237 6.19849 8.16684 6.18737C8.19353 6.17625 8.22022 6.1629 8.24468 6.14733C8.26692 6.12954 8.28916 6.11175 8.3114 6.09173C8.33142 6.07171 8.34921 6.04947 8.36478 6.02501C8.38035 6.00054 8.39369 5.97608 8.40481 5.94939C8.41593 5.9227 8.42483 5.89601 8.42928 5.8671C8.43595 5.83819 8.43818 5.80927 8.43818 5.78036C8.43818 5.75367 8.43818 5.72476 8.42928 5.69585C8.42483 5.66693 8.41593 5.64024 8.40481 5.61355C8.39369 5.58687 8.38035 5.5624 8.36478 5.53794C8.34921 5.51347 8.33142 5.49123 8.3114 5.47121C8.28916 5.4512 8.26692 5.4334 8.24468 5.41561C8.22022 5.40004 8.19353 5.3867 8.16906 5.37558C8.14237 5.36446 8.11346 5.35779 8.08677 5.35111C8.02895 5.33999 7.97112 5.33999 7.91329 5.35111C7.88661 5.35779 7.85769 5.36446 7.83323 5.37558C7.80654 5.3867 7.77985 5.40004 7.75538 5.41561C7.73314 5.4334 7.7109 5.4512 7.68866 5.47121C7.66865 5.49123 7.65085 5.51347 7.63528 5.53794C7.61972 5.5624 7.60637 5.58687 7.59525 5.61355C7.58413 5.64024 7.57523 5.66693 7.57079 5.69585C7.56411 5.72476 7.56189 5.75367 7.56189 5.78036C7.56189 5.89601 7.6086 6.00944 7.68866 6.09173C7.77095 6.17402 7.88438 6.22073 8.00003 6.22073Z" fill="black"/>
<path d="M11.3161 6.14733C11.3383 6.1629 11.365 6.17625 11.3917 6.18737C11.4162 6.19849 11.4451 6.20738 11.4718 6.21183C11.5007 6.2185 11.5296 6.22073 11.5585 6.22073C11.5874 6.22073 11.6163 6.2185 11.643 6.21183C11.6719 6.20738 11.7008 6.19849 11.7253 6.18737C11.752 6.17625 11.7787 6.1629 11.8009 6.14733C11.8254 6.12954 11.8476 6.11175 11.8677 6.09173C11.8899 6.07171 11.9077 6.04947 11.9233 6.02501C11.9388 6.00054 11.9522 5.97608 11.9633 5.94939C11.9744 5.9227 11.9833 5.89601 11.9878 5.8671C11.9944 5.83819 11.9966 5.80927 11.9966 5.78036C11.9966 5.75367 11.9966 5.72476 11.9878 5.69585C11.9833 5.66693 11.9744 5.64024 11.9633 5.61355C11.9522 5.58687 11.9388 5.5624 11.9233 5.53794C11.9077 5.51347 11.8899 5.49123 11.8677 5.47121C11.8476 5.4512 11.8254 5.4334 11.8032 5.41561C11.7787 5.40004 11.752 5.3867 11.7275 5.37558C11.7008 5.36446 11.6719 5.35779 11.6452 5.35111C11.5874 5.33999 11.5296 5.33999 11.4718 5.35111C11.4451 5.35779 11.4162 5.36446 11.3895 5.37558C11.365 5.3867 11.3383 5.40004 11.3139 5.41561C11.2916 5.4334 11.2694 5.4512 11.2471 5.47121C11.2271 5.49123 11.2093 5.51347 11.1938 5.53794C11.1782 5.5624 11.1648 5.58687 11.1537 5.61355C11.1426 5.64024 11.1337 5.66693 11.1293 5.69585C11.1226 5.72476 11.1204 5.75367 11.1204 5.78036C11.1204 5.89601 11.1671 6.00944 11.2471 6.09173C11.2694 6.11175 11.2916 6.12954 11.3161 6.14733Z" fill="black"/>
<path d="M5.8162 4.17007C5.82732 4.19676 5.84066 4.22122 5.85623 4.24569C5.8718 4.27015 5.88959 4.29239 5.90961 4.31241C5.93185 4.33242 5.95409 4.35022 5.97633 4.36801C6.0008 4.38358 6.02749 4.39692 6.05417 4.40804C6.07864 4.41916 6.10755 4.42584 6.13424 4.43251C6.16315 4.43918 6.19207 4.4414 6.22098 4.4414C6.24989 4.4414 6.27881 4.43918 6.30772 4.43251C6.33441 4.42584 6.36332 4.41916 6.38779 4.40804C6.41447 4.39692 6.44116 4.38358 6.46563 4.36801C6.48787 4.35022 6.51011 4.33242 6.53235 4.31241C6.55237 4.29239 6.57016 4.27015 6.58573 4.24569C6.6013 4.22122 6.61464 4.19676 6.62576 4.17007C6.63688 4.14338 6.64578 4.11669 6.65023 4.08778C6.6569 4.05886 6.65912 4.02995 6.65912 4.00326C6.65912 3.97435 6.65912 3.94544 6.65023 3.91652C6.64578 3.88761 6.63688 3.86092 6.62576 3.83423C6.61464 3.80754 6.6013 3.78308 6.58573 3.75861C6.57016 3.73415 6.55237 3.71191 6.53235 3.69189C6.43004 3.58958 6.27881 3.54288 6.13424 3.57179C6.10755 3.57624 6.07864 3.58514 6.05417 3.59626C6.02749 3.60738 6.0008 3.62072 5.97633 3.63629C5.95409 3.65408 5.93185 3.67187 5.90961 3.69189C5.82954 3.77418 5.78284 3.88761 5.78284 4.00326C5.78284 4.02995 5.78506 4.05886 5.78951 4.08778C5.79618 4.11669 5.80508 4.14338 5.8162 4.17007Z" fill="black"/>
<path d="M9.37467 4.17009C9.38579 4.19678 9.39913 4.22125 9.4147 4.24571C9.43027 4.27018 9.44806 4.29242 9.47031 4.31243C9.49032 4.33245 9.51256 4.35024 9.5348 4.36804C9.55927 4.3836 9.58596 4.39695 9.61265 4.40807C9.63711 4.41919 9.66602 4.42586 9.69271 4.43253C9.72163 4.43921 9.75054 4.44143 9.77945 4.44143C9.80836 4.44143 9.83728 4.43921 9.86619 4.43253C9.89288 4.42586 9.92179 4.41919 9.94626 4.40807C9.97295 4.39695 9.99963 4.3836 10.0241 4.36804C10.0463 4.35024 10.0686 4.33245 10.0908 4.31243C10.1709 4.23014 10.2176 4.11672 10.2176 4.00329C10.2176 3.88986 10.1709 3.77421 10.0908 3.69192C10.0686 3.6719 10.0463 3.65411 10.0241 3.63631C9.99963 3.62075 9.97295 3.6074 9.94626 3.59628C9.92179 3.58516 9.89288 3.57626 9.86619 3.57182C9.80836 3.5607 9.75054 3.5607 9.69271 3.57182C9.66602 3.57626 9.63711 3.58516 9.61265 3.59628C9.58596 3.6074 9.55927 3.62075 9.5348 3.63631C9.51256 3.65411 9.49032 3.6719 9.47031 3.69192C9.38801 3.77421 9.34131 3.88764 9.34131 4.00329C9.34131 4.02998 9.34353 4.05889 9.34798 4.0878C9.35465 4.11672 9.36355 4.1434 9.37467 4.17009Z" fill="black"/>
</svg>
