<svg width="16" height="16" viewBox="0 0 16 16" fill="none" xmlns="http://www.w3.org/2000/svg">
<path d="M15.5556 4.4445H10.6667V2.68672C10.6667 2.1845 10.2578 1.77783 9.75778 1.77783H6.24444C5.74222 1.77783 5.33556 2.18672 5.33556 2.68672V4.4445H0.444444C0.2 4.4445 0 4.6445 0 4.88894V13.7778C0 14.0223 0.2 14.2223 0.444444 14.2223H15.5556C15.8 14.2223 16 14.0223 16 13.7778V4.88894C16 4.6445 15.8 4.4445 15.5556 4.4445ZM6.22222 2.68672C6.22222 2.67561 6.23111 2.66672 6.24222 2.66672H9.75556C9.76667 2.66672 9.77556 2.67561 9.77556 2.68672V4.4445H6.22V2.68672H6.22222ZM15.1111 13.3334H0.888889V5.33339H15.1111V13.3334Z" fill="black"/>
</svg>
