<svg width="16" height="16" viewBox="0 0 16 16" fill="none" xmlns="http://www.w3.org/2000/svg">
<path d="M15.5556 2.22225H13.3333V1.33336C13.3333 1.08892 13.1333 0.888916 12.8889 0.888916C12.6444 0.888916 12.4444 1.08892 12.4444 1.33336V2.22225H3.55556V1.33336C3.55556 1.08892 3.35556 0.888916 3.11111 0.888916C2.86667 0.888916 2.66667 1.08892 2.66667 1.33336V2.22225H0.444444C0.2 2.22225 0 2.42225 0 2.66669V14.6667C0 14.9111 0.2 15.1111 0.444444 15.1111H15.5556C15.8 15.1111 16 14.9111 16 14.6667V2.66669C16 2.42225 15.8 2.22225 15.5556 2.22225ZM0.888889 3.11114H2.66667V4.00003C2.66667 4.24447 2.86667 4.44447 3.11111 4.44447C3.35556 4.44447 3.55556 4.24447 3.55556 4.00003V3.11114H12.4444V4.00003C12.4444 4.24447 12.6444 4.44447 12.8889 4.44447C13.1333 4.44447 13.3333 4.24447 13.3333 4.00003V3.11114H15.1111V5.33336H0.888889V3.11114ZM15.1111 14.2222H0.888889V6.22225H15.1111V14.2222Z" fill="black"/>
<path d="M3.33318 8.44455H3.77762C4.02207 8.44455 4.22207 8.24455 4.22207 8.00011C4.22207 7.75566 4.02207 7.55566 3.77762 7.55566H3.33318C3.08873 7.55566 2.88873 7.75566 2.88873 8.00011C2.88873 8.24455 3.08873 8.44455 3.33318 8.44455Z" fill="black"/>
<path d="M3.33318 10.6667H3.77762C4.02207 10.6667 4.22207 10.4667 4.22207 10.2223C4.22207 9.97783 4.02207 9.77783 3.77762 9.77783H3.33318C3.08873 9.77783 2.88873 9.97783 2.88873 10.2223C2.88873 10.4667 3.08873 10.6667 3.33318 10.6667Z" fill="black"/>
<path d="M3.33318 12.8889H3.77762C4.02207 12.8889 4.22207 12.6889 4.22207 12.4444C4.22207 12.2 4.02207 12 3.77762 12H3.33318C3.08873 12 2.88873 12.2 2.88873 12.4444C2.88873 12.6889 3.08873 12.8889 3.33318 12.8889Z" fill="black"/>
<path d="M5.55541 8.44455H5.99985C6.2443 8.44455 6.4443 8.24455 6.4443 8.00011C6.4443 7.75566 6.2443 7.55566 5.99985 7.55566H5.55541C5.31096 7.55566 5.11096 7.75566 5.11096 8.00011C5.11096 8.24455 5.31096 8.44455 5.55541 8.44455Z" fill="black"/>
<path d="M5.55541 10.6667H5.99985C6.2443 10.6667 6.4443 10.4667 6.4443 10.2223C6.4443 9.97783 6.2443 9.77783 5.99985 9.77783H5.55541C5.31096 9.77783 5.11096 9.97783 5.11096 10.2223C5.11096 10.4667 5.31096 10.6667 5.55541 10.6667Z" fill="black"/>
<path d="M5.55541 12.8889H5.99985C6.2443 12.8889 6.4443 12.6889 6.4443 12.4444C6.4443 12.2 6.2443 12 5.99985 12H5.55541C5.31096 12 5.11096 12.2 5.11096 12.4444C5.11096 12.6889 5.31096 12.8889 5.55541 12.8889Z" fill="black"/>
<path d="M7.77764 8.44455H8.22208C8.46652 8.44455 8.66652 8.24455 8.66652 8.00011C8.66652 7.75566 8.46652 7.55566 8.22208 7.55566H7.77764C7.53319 7.55566 7.33319 7.75566 7.33319 8.00011C7.33319 8.24455 7.53319 8.44455 7.77764 8.44455Z" fill="black"/>
<path d="M7.77764 10.6667H8.22208C8.46652 10.6667 8.66652 10.4667 8.66652 10.2223C8.66652 9.97783 8.46652 9.77783 8.22208 9.77783H7.77764C7.53319 9.77783 7.33319 9.97783 7.33319 10.2223C7.33319 10.4667 7.53319 10.6667 7.77764 10.6667Z" fill="black"/>
<path d="M7.77764 12.8889H8.22208C8.46652 12.8889 8.66652 12.6889 8.66652 12.4444C8.66652 12.2 8.46652 12 8.22208 12H7.77764C7.53319 12 7.33319 12.2 7.33319 12.4444C7.33319 12.6889 7.53319 12.8889 7.77764 12.8889Z" fill="black"/>
<path d="M9.99986 8.44455H10.4443C10.6888 8.44455 10.8888 8.24455 10.8888 8.00011C10.8888 7.75566 10.6888 7.55566 10.4443 7.55566H9.99986C9.75542 7.55566 9.55542 7.75566 9.55542 8.00011C9.55542 8.24455 9.75542 8.44455 9.99986 8.44455Z" fill="black"/>
<path d="M9.99986 10.6667H10.4443C10.6888 10.6667 10.8888 10.4667 10.8888 10.2223C10.8888 9.97783 10.6888 9.77783 10.4443 9.77783H9.99986C9.75542 9.77783 9.55542 9.97783 9.55542 10.2223C9.55542 10.4667 9.75542 10.6667 9.99986 10.6667Z" fill="black"/>
<path d="M9.99986 12.8889H10.4443C10.6888 12.8889 10.8888 12.6889 10.8888 12.4444C10.8888 12.2 10.6888 12 10.4443 12H9.99986C9.75542 12 9.55542 12.2 9.55542 12.4444C9.55542 12.6889 9.75542 12.8889 9.99986 12.8889Z" fill="black"/>
<path d="M12.222 8.44455H12.6665C12.9109 8.44455 13.1109 8.24455 13.1109 8.00011C13.1109 7.75566 12.9109 7.55566 12.6665 7.55566H12.222C11.9776 7.55566 11.7776 7.75566 11.7776 8.00011C11.7776 8.24455 11.9776 8.44455 12.222 8.44455Z" fill="black"/>
<path d="M12.222 10.6667H12.6665C12.9109 10.6667 13.1109 10.4667 13.1109 10.2223C13.1109 9.97783 12.9109 9.77783 12.6665 9.77783H12.222C11.9776 9.77783 11.7776 9.97783 11.7776 10.2223C11.7776 10.4667 11.9776 10.6667 12.222 10.6667Z" fill="black"/>
<path d="M12.222 12.8889H12.6665C12.9109 12.8889 13.1109 12.6889 13.1109 12.4444C13.1109 12.2 12.9109 12 12.6665 12H12.222C11.9776 12 11.7776 12.2 11.7776 12.4444C11.7776 12.6889 11.9776 12.8889 12.222 12.8889Z" fill="black"/>
</svg>
