<svg width="16" height="16" viewBox="0 0 16 16" fill="none" xmlns="http://www.w3.org/2000/svg">
<path d="M8.00001 12C6.04001 12 4.44446 10.4045 4.44446 8.44447C4.44446 6.48447 6.04001 4.88892 8.00001 4.88892C9.96001 4.88892 11.5556 6.48447 11.5556 8.44447C11.5556 10.4045 9.96001 12 8.00001 12ZM8.00001 5.7778C6.5289 5.7778 5.33335 6.97336 5.33335 8.44447C5.33335 9.91558 6.5289 11.1111 8.00001 11.1111C9.47113 11.1111 10.6667 9.91558 10.6667 8.44447C10.6667 6.97336 9.47113 5.7778 8.00001 5.7778Z" fill="black"/>
<path d="M15.5556 13.7777H0.444444C0.2 13.7777 0 13.5777 0 13.3333V4.44439C0 4.19995 0.2 3.99995 0.444444 3.99995H3.72444L4.49111 2.46883C4.56667 2.31772 4.72 2.22217 4.88889 2.22217H11.1111C11.28 2.22217 11.4333 2.31772 11.5089 2.46883L12.2756 3.99995H15.5556C15.8 3.99995 16 4.19995 16 4.44439V13.3333C16 13.5777 15.8 13.7777 15.5556 13.7777ZM0.888889 12.8888H15.1111V4.88883H12C11.8311 4.88883 11.6778 4.79328 11.6022 4.64217L10.8356 3.11106H5.16222L4.39556 4.64217C4.32 4.79328 4.16667 4.88883 3.99778 4.88883H0.886667V12.8888H0.888889Z" fill="black"/>
</svg>
