<svg width="16" height="16" viewBox="0 0 16 16" fill="none" xmlns="http://www.w3.org/2000/svg">
<path d="M15.1934 6.408H12.3938L8.81877 3.89945C8.6588 3.79725 8.47216 3.7417 8.28107 3.7417H5.35259C5.04819 3.7417 4.76823 3.89501 4.6038 4.15053L3.1529 6.408H0.804333C0.35995 6.408 0 6.76795 0 7.21233V10.0475C0 10.4919 0.35995 10.8518 0.804333 10.8518H2.27746C2.47743 11.6584 3.204 12.2583 4.07277 12.2583C4.94154 12.2583 5.6681 11.6584 5.86807 10.8518H10.2786C10.4785 11.6584 11.2051 12.2583 12.0739 12.2583C12.9426 12.2583 13.6692 11.6584 13.8692 10.8518H15.1957C15.64 10.8518 16 10.4919 16 10.0475V7.21233C16 6.76795 15.64 6.408 15.1957 6.408H15.1934ZM4.07277 11.3695C3.54173 11.3695 3.11068 10.9385 3.11068 10.4074C3.11068 9.8764 3.54173 9.44535 4.07277 9.44535C4.6038 9.44535 5.03486 9.8764 5.03486 10.4074C5.03486 10.9385 4.6038 11.3695 4.07277 11.3695ZM12.0717 11.3695C11.5406 11.3695 11.1096 10.9385 11.1096 10.4074C11.1096 9.8764 11.5406 9.44535 12.0717 9.44535C12.6027 9.44535 13.0337 9.8764 13.0337 10.4074C13.0337 10.9385 12.6027 11.3695 12.0717 11.3695ZM15.109 9.96306H13.867C13.667 9.1565 12.9404 8.55659 12.0717 8.55659C11.2029 8.55659 10.4763 9.1565 10.2764 9.96306H5.86585C5.66588 9.1565 4.93931 8.55659 4.07055 8.55659C3.20178 8.55659 2.47521 9.1565 2.27524 9.96306H0.886543V7.29676H3.39508C3.54617 7.29676 3.68615 7.21899 3.76837 7.09234L5.35259 4.63046H8.28107C8.30329 4.63046 8.32329 4.63713 8.32551 4.63713L12.0006 7.21677C12.0761 7.2701 12.165 7.29676 12.2561 7.29676H15.1112V9.96306H15.109Z" fill="black"/>
</svg>
