<svg width="16" height="16" viewBox="0 0 16 16" fill="none" xmlns="http://www.w3.org/2000/svg">
<path d="M13.6685 9.68827C13.6552 9.6282 13.6374 9.57036 13.6151 9.51474C13.6085 9.49917 13.604 9.4836 13.5973 9.4658C13.5973 9.46357 13.5973 9.45913 13.5929 9.4569L14.7898 8.26002C15.5706 7.47915 16 6.44022 16 5.33677C16 4.23332 15.5706 3.19439 14.7898 2.41352C14.3515 1.97525 13.8354 1.65935 13.2881 1.45913C11.9488 0.969693 10.4071 1.19216 9.25473 2.13098C9.14572 2.21997 9.04116 2.31341 8.94105 2.41352L8.23582 3.11652L7.99778 3.35457L7.05673 2.41352C5.44383 0.800616 2.82091 0.800616 1.21023 2.41352C0.429366 3.19439 0 4.23332 0 5.33677C0 5.4747 0.00667401 5.61263 0.0200222 5.74834C0.113459 6.69828 0.527253 7.57703 1.21023 8.26224L2.90545 9.95746C2.90545 9.95746 2.90545 9.95746 2.90545 9.95968C2.90545 9.96191 2.90545 9.96413 2.90545 9.96636C2.90545 10.0242 2.91435 10.082 2.92325 10.1377C2.92547 10.1621 2.92547 10.1866 2.92992 10.2088C2.94327 10.2778 2.96552 10.3446 2.98999 10.4091C2.99444 10.4224 2.99666 10.4358 3.00111 10.4469C3.02781 10.5136 3.0634 10.5759 3.10122 10.6382C3.1079 10.6471 3.11235 10.6605 3.1168 10.6694C3.16352 10.7406 3.21691 10.8051 3.27697 10.8674C3.33482 10.9252 3.39933 10.9764 3.4683 11.0231C3.49055 11.0387 3.51279 11.0476 3.53726 11.0609C3.58398 11.0876 3.6307 11.1143 3.68187 11.1365C3.70856 11.1477 3.73526 11.1543 3.76196 11.1655C3.8109 11.1833 3.85762 11.1988 3.90879 11.21C3.93771 11.2166 3.96663 11.2189 3.99555 11.2233C4.0267 11.2278 4.05784 11.2367 4.09121 11.2389C4.09121 11.27 4.10234 11.2989 4.10456 11.3301C4.10901 11.3635 4.11346 11.3991 4.12013 11.4324C4.13126 11.4769 4.14461 11.5192 4.16018 11.5637C4.1713 11.5948 4.1802 11.6282 4.19355 11.6593C4.21357 11.7061 4.23804 11.7483 4.26474 11.7906C4.28031 11.8151 4.29143 11.8418 4.30701 11.8662C4.3515 11.933 4.40267 11.9953 4.46051 12.0531C4.51835 12.111 4.58065 12.1621 4.64739 12.2066C4.67186 12.2244 4.70078 12.2355 4.72525 12.2511C4.76752 12.2756 4.80979 12.3001 4.85428 12.3201C4.88543 12.3334 4.9188 12.3423 4.95217 12.3535C4.99444 12.3668 5.03671 12.3824 5.0812 12.3935C5.11457 12.4002 5.15017 12.4046 5.18576 12.4091C5.21468 12.4135 5.24583 12.4202 5.27475 12.4224C5.27475 12.4536 5.28587 12.4847 5.29032 12.5159C5.29477 12.547 5.29922 12.5781 5.3059 12.6093C5.31702 12.6582 5.33259 12.705 5.34816 12.7517C5.35706 12.7806 5.36596 12.8095 5.37709 12.8362C5.39711 12.8852 5.4238 12.9319 5.4505 12.9786C5.46385 13.0031 5.47497 13.0253 5.49054 13.0498C5.53504 13.1165 5.58621 13.181 5.64627 13.2389C5.70412 13.2967 5.76641 13.3479 5.83315 13.3924C5.85762 13.408 5.88432 13.4213 5.90879 13.4347C5.95106 13.4591 5.99555 13.4858 6.04004 13.5058C6.07119 13.5192 6.10456 13.5281 6.13571 13.5392C6.17798 13.5548 6.22024 13.5681 6.26474 13.5793C6.29811 13.5859 6.3337 13.5904 6.3693 13.5948C6.39822 13.5993 6.42714 13.606 6.45829 13.6082C6.45829 13.6393 6.46941 13.6705 6.47386 13.7016C6.47831 13.7328 6.48053 13.7617 6.48721 13.7928C6.49833 13.8418 6.5139 13.8885 6.52948 13.9374C6.53838 13.9664 6.54727 13.9931 6.5584 14.0197C6.57842 14.0687 6.60512 14.1154 6.63404 14.1621C6.64739 14.1844 6.65851 14.2088 6.67408 14.2333C6.71858 14.3001 6.76974 14.3646 6.82981 14.4224C7.07898 14.6716 7.40378 14.7962 7.73081 14.7962C8.05784 14.7962 8.38265 14.6716 8.63181 14.4246L9.54839 13.5081C9.54839 13.5081 9.55506 13.5081 9.55729 13.5125C9.57286 13.5192 9.58843 13.5236 9.604 13.5303C9.66185 13.5526 9.71969 13.5704 9.77753 13.5837C9.79533 13.5882 9.81535 13.5904 9.83315 13.5948C9.89989 13.606 9.96663 13.6126 10.0334 13.6149C10.04 13.6149 10.0467 13.6149 10.0534 13.6149C10.0556 13.6149 10.0578 13.6149 10.0623 13.6149C10.1424 13.6149 10.2225 13.6082 10.3026 13.5904C10.307 13.5904 10.3137 13.5882 10.3181 13.5859C10.3849 13.5726 10.4516 13.5503 10.5161 13.5259C10.5362 13.5192 10.5562 13.5103 10.574 13.5014C10.6251 13.4791 10.6741 13.4525 10.723 13.4213C10.7408 13.4102 10.7608 13.3991 10.7786 13.3879C10.8409 13.3457 10.901 13.2967 10.9566 13.2411C11.0167 13.181 11.0679 13.1165 11.1146 13.0476C11.1257 13.032 11.1324 13.0142 11.1435 12.9964C11.1769 12.943 11.2058 12.8874 11.2303 12.8318C11.2369 12.814 11.2436 12.7939 11.2503 12.7761C11.2703 12.7183 11.2903 12.6605 11.3014 12.6004C11.3059 12.5804 11.3081 12.5626 11.3103 12.5426C11.317 12.5047 11.3259 12.4669 11.3281 12.4269C11.3682 12.4246 11.406 12.4157 11.4461 12.4091C11.4638 12.4068 11.4816 12.4046 11.4994 12.4002C11.5595 12.3868 11.6196 12.369 11.6796 12.3468C11.6974 12.3401 11.7152 12.3357 11.7308 12.329C11.7887 12.3045 11.8465 12.2734 11.8999 12.24C11.9155 12.2311 11.931 12.2244 11.9466 12.2133C12.0156 12.1666 12.0801 12.1154 12.1402 12.0553C12.2002 11.9953 12.2536 11.9285 12.2981 11.8618C12.307 11.8484 12.3137 11.8329 12.3226 11.8173C12.356 11.7617 12.3871 11.7038 12.4138 11.646C12.4205 11.6304 12.4249 11.6126 12.4316 11.5971C12.4538 11.537 12.4716 11.4769 12.485 11.4169C12.4894 11.3991 12.4894 11.3813 12.4939 11.3635C12.5006 11.3234 12.5095 11.2856 12.5117 11.2456C12.5517 11.2433 12.5895 11.2344 12.6296 11.2278C12.6474 11.2255 12.6652 11.2233 12.683 11.2189C12.743 11.2055 12.8009 11.1877 12.861 11.1655C12.8788 11.1588 12.8966 11.1543 12.9144 11.1454C12.9722 11.121 13.0256 11.0921 13.079 11.0587C13.0968 11.0476 13.1146 11.0409 13.1301 11.0298C13.1991 10.983 13.2636 10.9319 13.3237 10.8718C13.3793 10.8162 13.426 10.7561 13.4705 10.6938C13.4816 10.676 13.4928 10.6582 13.5039 10.6404C13.535 10.5915 13.5617 10.5426 13.584 10.4914C13.5929 10.4714 13.6018 10.4536 13.6085 10.4335C13.6329 10.369 13.6552 10.3023 13.6685 10.2333C13.6685 10.2289 13.6707 10.2244 13.673 10.2177C13.6885 10.1377 13.6952 10.0598 13.6974 9.97748C13.6974 9.97526 13.6974 9.97303 13.6974 9.96858C13.6974 9.96191 13.6974 9.95523 13.6974 9.94856C13.6974 9.88182 13.6885 9.81508 13.6774 9.74834C13.6752 9.72831 13.6707 9.71052 13.6663 9.69272L13.6685 9.68827ZM15.1279 5.33677C15.1279 6.20662 14.7898 7.02531 14.1735 7.64155L13.0389 8.77614L9.73304 5.47025L10.8699 4.3401C11.0412 4.1688 11.0412 3.89294 10.8699 3.72164C10.6986 3.55034 10.4227 3.55034 10.2514 3.72164L8.80534 5.16102L8.0178 5.94411C7.8287 6.13321 7.51947 6.13321 7.32814 5.94411C7.13682 5.75501 7.13904 5.44578 7.32814 5.25668L8.27809 4.31118C8.27809 4.31118 8.30033 4.29561 8.31146 4.28449C8.32258 4.27336 8.32703 4.26447 8.33593 4.25334L8.87208 3.71942L9.53726 3.05646L9.54171 3.05201L9.56174 3.03198C10.832 1.76168 12.901 1.76168 14.1713 3.03198C14.7875 3.64823 15.1257 4.46691 15.1257 5.33677H15.1279ZM1.8287 7.64155C1.21246 7.02531 0.874305 6.20662 0.874305 5.33677C0.874305 4.46691 1.21246 3.64823 1.8287 3.03198C3.099 1.76168 5.16796 1.76168 6.43827 3.03198L7.37709 3.97081L6.70745 4.63599C6.17575 5.16769 6.17575 6.03087 6.70745 6.56035C6.97219 6.82509 7.32147 6.95857 7.67075 6.95857C8.02002 6.95857 8.36708 6.82509 8.63181 6.56035L9.11012 6.08427L12.7052 9.67937C12.7052 9.67937 12.7119 9.6905 12.7164 9.69494C12.7341 9.71274 12.7475 9.73276 12.7608 9.75279C12.7631 9.75723 12.7653 9.76168 12.7675 9.76391C12.7786 9.78171 12.7875 9.7995 12.7942 9.81953C12.7987 9.83065 12.8009 9.83955 12.8031 9.85067C12.8076 9.86402 12.812 9.87737 12.8142 9.89072C12.8187 9.90851 12.8187 9.92854 12.8187 9.94633C12.8187 9.95301 12.8187 9.95968 12.8187 9.96413C12.8187 9.9886 12.8165 10.0131 12.812 10.0353C12.812 10.0353 12.812 10.0375 12.812 10.0398C12.8031 10.0887 12.7831 10.1377 12.7542 10.1799C12.7542 10.1799 12.7542 10.1799 12.7542 10.1822C12.7386 10.2044 12.723 10.2244 12.703 10.2444C12.683 10.2645 12.663 10.28 12.6407 10.2956C12.6385 10.2956 12.6363 10.2978 12.6318 10.3001C12.6118 10.3134 12.5918 10.3245 12.5695 10.3334C12.5695 10.3334 12.5673 10.3334 12.5651 10.3334C12.5428 10.3423 12.5184 10.349 12.4939 10.3535C12.4939 10.3535 12.4917 10.3535 12.4894 10.3535C12.465 10.3579 12.4427 10.3601 12.4182 10.3601C12.4138 10.3601 12.4093 10.3601 12.4049 10.3601C12.3849 10.3601 12.3649 10.3601 12.3426 10.3535C12.3315 10.3535 12.3226 10.349 12.3115 10.3446C12.2981 10.3401 12.2848 10.3379 12.2714 10.3334C12.2536 10.3268 12.238 10.3179 12.2225 10.309C12.2158 10.3067 12.2113 10.3023 12.2047 10.3001C12.1847 10.2867 12.1646 10.2734 12.1468 10.2556C12.1424 10.2511 12.1357 10.2489 12.1313 10.2422L9.56841 7.67937C9.39711 7.50807 9.12125 7.50807 8.94994 7.67937C8.77864 7.85067 8.77864 8.12653 8.94994 8.29784L11.5128 10.8607C11.5128 10.8607 11.5195 10.8718 11.5239 10.8763C11.5417 10.8941 11.5551 10.9141 11.5684 10.9341C11.5706 10.9385 11.5729 10.943 11.5751 10.9452C11.5862 10.963 11.5951 10.9808 11.6018 11.0008C11.6062 11.012 11.6085 11.0209 11.6107 11.032C11.6151 11.0453 11.6196 11.0587 11.6218 11.072C11.624 11.0898 11.6263 11.1076 11.6263 11.1254C11.6263 11.1321 11.6263 11.1388 11.6263 11.1454C11.6263 11.1677 11.624 11.1922 11.6196 11.2144C11.6196 11.2166 11.6196 11.2189 11.6196 11.2211C11.6151 11.2433 11.6085 11.2678 11.5996 11.29C11.5996 11.29 11.5996 11.2945 11.5996 11.2967C11.5907 11.3167 11.5818 11.3345 11.5706 11.3523C11.5684 11.3568 11.5662 11.3612 11.564 11.3657C11.5551 11.3768 11.5462 11.3879 11.535 11.4013C11.5284 11.4102 11.5217 11.4191 11.5128 11.428C11.5039 11.4369 11.495 11.4413 11.4883 11.448C11.4772 11.4591 11.4638 11.4702 11.4527 11.4769C11.4483 11.4791 11.4461 11.4814 11.4416 11.4836C11.4216 11.4947 11.4038 11.5058 11.3815 11.5147C11.3571 11.5236 11.3326 11.5325 11.3081 11.537C11.2836 11.5414 11.2592 11.5437 11.2347 11.5437C11.2303 11.5437 11.2258 11.5437 11.2214 11.5437C11.2013 11.5437 11.1813 11.5437 11.1613 11.537C11.1502 11.537 11.139 11.5303 11.1279 11.5281C11.1146 11.5236 11.1034 11.5214 11.0901 11.517C11.0723 11.5103 11.0545 11.5014 11.0367 11.4903C11.0323 11.488 11.0278 11.4858 11.0234 11.4836C11.0033 11.4702 10.9833 11.4569 10.9655 11.4391C10.9611 11.4347 10.9544 11.4324 10.9499 11.4258L8.3871 8.86291C8.2158 8.69161 7.93993 8.69161 7.76863 8.86291C7.59733 9.03421 7.59733 9.31007 7.76863 9.48137L10.3315 12.0442C10.3315 12.0442 10.3382 12.0531 10.3426 12.0576C10.3604 12.0754 10.376 12.0954 10.3871 12.1176C10.3871 12.1199 10.3893 12.1243 10.3915 12.1265C10.4027 12.1443 10.4116 12.1644 10.4205 12.1844C10.4249 12.1933 10.4249 12.2022 10.4294 12.2111C10.4338 12.2266 10.4383 12.24 10.4405 12.2556C10.4427 12.2711 10.4449 12.2889 10.4449 12.3045C10.4449 12.3134 10.4449 12.3201 10.4449 12.329C10.4449 12.3512 10.4427 12.3713 10.4383 12.3935C10.4383 12.3979 10.4383 12.4002 10.4383 12.4046C10.4338 12.4269 10.4271 12.4491 10.4182 12.4714C10.4182 12.4714 10.4182 12.4758 10.4182 12.478C10.4093 12.4981 10.3982 12.5181 10.3871 12.5381C10.3871 12.5403 10.3849 12.5448 10.3826 12.547C10.3671 12.5692 10.3515 12.5893 10.3315 12.6093C10.3115 12.6293 10.2914 12.6449 10.2714 12.6605C10.2291 12.6894 10.1802 12.7094 10.129 12.7205C10.129 12.7205 10.1268 12.7205 10.1246 12.7205C10.1001 12.725 10.0779 12.7272 10.0534 12.7272C10.0467 12.7272 10.0378 12.7272 10.0311 12.7272C10.0133 12.7272 9.99555 12.7272 9.97775 12.7228C9.96441 12.7205 9.95106 12.7161 9.93771 12.7116C9.92659 12.7094 9.91546 12.705 9.90434 12.7005C9.88877 12.6938 9.87542 12.6872 9.85984 12.6783C9.85095 12.6738 9.84427 12.6694 9.83537 12.6649C9.8198 12.6538 9.80423 12.6427 9.78865 12.6293C9.77976 12.6226 9.77086 12.616 9.76196 12.6071L5.59733 8.53588H5.59511C5.59511 8.53588 5.57953 8.5203 5.57063 8.51363C5.0723 8.042 4.28476 8.04867 3.79533 8.53588L3.27253 9.05868C3.27253 9.05868 3.26363 9.06981 3.25918 9.07425L1.82202 7.6371L1.8287 7.64155ZM7.35484 12.0909L6.83204 12.6137C6.7208 12.725 6.5495 12.7539 6.40489 12.7005C6.396 12.6983 6.38932 12.6938 6.38265 12.6894C6.36707 12.6827 6.3515 12.6738 6.33593 12.6649C6.31146 12.6493 6.28699 12.6315 6.26696 12.6115C6.24472 12.5893 6.22692 12.5648 6.20912 12.5381C6.20467 12.5314 6.20245 12.5248 6.198 12.5159C6.18687 12.4958 6.17798 12.4758 6.1713 12.4536C6.16908 12.4447 6.16685 12.4358 6.1624 12.4269C6.15573 12.4046 6.1535 12.3824 6.15128 12.3579C6.15128 12.3512 6.15128 12.3446 6.15128 12.3379C6.15128 12.3067 6.15128 12.2756 6.16018 12.2444C6.17575 12.171 6.21135 12.0998 6.26919 12.0442L6.79199 11.5214C6.86763 11.4458 6.96774 11.4035 7.07453 11.4035C7.18131 11.4035 7.28142 11.4458 7.35706 11.5214C7.4327 11.5971 7.47497 11.6972 7.47497 11.804C7.47497 11.9107 7.4327 12.0109 7.35929 12.0865L7.35484 12.0909ZM5.2614 11.5325C5.2614 11.5325 5.24805 11.5281 5.24138 11.5259C5.21913 11.5192 5.19689 11.5081 5.17464 11.4969C5.16796 11.4925 5.16129 11.4903 5.15462 11.4858C5.12792 11.4702 5.10345 11.4502 5.0812 11.428C5.05895 11.4057 5.04116 11.3813 5.02558 11.3546C5.02113 11.3479 5.01891 11.3412 5.01446 11.3323C5.00334 11.3123 4.99444 11.2923 4.98776 11.27C4.98554 11.2611 4.98331 11.2545 4.98109 11.2456C4.97442 11.2211 4.96997 11.1966 4.96997 11.1721C4.96997 11.1655 4.96997 11.161 4.96997 11.1543C4.96997 11.1232 4.96997 11.0898 4.97887 11.0587C4.99444 10.983 5.03226 10.9163 5.08565 10.8607L5.60845 10.3379C5.68632 10.26 5.78865 10.22 5.89099 10.22C5.99333 10.22 6.09566 10.26 6.17353 10.3379C6.32926 10.4936 6.32926 10.7472 6.17353 10.903L5.65072 11.4258C5.59511 11.4814 5.52614 11.517 5.45273 11.5325C5.42158 11.5392 5.38821 11.5414 5.35706 11.5414C5.35261 11.5414 5.34816 11.5414 5.34372 11.5414C5.31702 11.5414 5.29255 11.5348 5.26808 11.5281L5.2614 11.5325ZM4.08231 10.349C4.08231 10.349 4.06229 10.3423 4.05117 10.3401C4.03115 10.3334 4.01335 10.3245 3.99555 10.3156C3.98665 10.3112 3.97775 10.3067 3.97108 10.3023C3.94438 10.2867 3.91991 10.2689 3.89989 10.2467C3.87764 10.2244 3.85984 10.1999 3.84427 10.1755C3.83982 10.1688 3.83537 10.1599 3.83315 10.1532C3.82202 10.1332 3.81313 10.1132 3.80645 10.0909C3.80423 10.082 3.802 10.0754 3.79978 10.0665C3.7931 10.0442 3.79088 10.0197 3.78865 9.99528C3.78865 9.9886 3.78865 9.98193 3.78865 9.97748C3.78865 9.94633 3.78865 9.91519 3.79755 9.88182C3.81313 9.80618 3.85095 9.73721 3.90656 9.68159L4.42937 9.15879C4.50723 9.08093 4.60957 9.04088 4.7119 9.04088C4.81424 9.04088 4.91657 9.08093 4.99444 9.15879C5.15017 9.31452 5.15017 9.56814 4.99444 9.72386L4.47163 10.2467C4.41379 10.3045 4.3426 10.3401 4.26919 10.3557C4.24027 10.3624 4.20912 10.3646 4.1802 10.3624C4.1713 10.3624 4.1624 10.3624 4.15128 10.3601C4.13126 10.3601 4.11123 10.3557 4.09121 10.3512L4.08231 10.349ZM7.95328 13.8484C7.79755 13.9508 7.58621 13.933 7.4505 13.7973C7.4505 13.7973 7.4505 13.7951 7.44828 13.7928C7.42825 13.7728 7.41046 13.7483 7.39488 13.7239C7.39043 13.7172 7.38599 13.7083 7.38376 13.7016C7.37264 13.6816 7.36374 13.6616 7.35706 13.6416C7.35484 13.6327 7.35039 13.6238 7.34817 13.6149C7.34149 13.5926 7.33927 13.5681 7.33704 13.5459C7.33704 13.5392 7.33704 13.5325 7.33704 13.5259C7.33704 13.4947 7.33704 13.4636 7.34594 13.4324C7.36151 13.359 7.39711 13.29 7.45273 13.2322L7.97553 12.7094C8.13126 12.5537 8.38487 12.5537 8.5406 12.7094C8.61624 12.785 8.65851 12.8852 8.65851 12.9919C8.65851 13.0987 8.61624 13.1988 8.5406 13.2745L8.0178 13.7973C7.99778 13.8173 7.97775 13.8329 7.95551 13.8484H7.95328Z" fill="black"/>
</svg>
