<svg width="16" height="16" viewBox="0 0 16 16" fill="none" xmlns="http://www.w3.org/2000/svg">
<path d="M10.8489 4.90889C10.6111 4.51333 10.2889 4.21111 9.89111 3.98667C10.3956 3.25778 10.8378 2.52889 10.9444 2.31111C11.1 1.99111 11.12 1.62889 11.0022 1.29333C10.8844 0.957778 10.6444 0.686667 10.3222 0.531111C10.0022 0.375556 9.64 0.355556 9.30444 0.473333C9.23111 0.5 9.16 0.531111 9.09333 0.566667C8.85111 0.224444 8.45333 0 8.00222 0C7.55111 0 7.15333 0.224444 6.91111 0.566667C6.84444 0.528889 6.77333 0.497778 6.7 0.473333C6.36444 0.355556 6.00222 0.377778 5.68222 0.531111C5.36222 0.686667 5.12 0.955555 5.00222 1.29333C4.88444 1.62889 4.90666 1.99111 5.06 2.31111C5.16666 2.53111 5.60889 3.26 6.11333 3.98667C5.71777 4.20889 5.39333 4.51333 5.15555 4.90889C3.63333 7.43333 6.03777 12.7933 7.60666 15.7622C7.68444 15.9089 7.83555 16 8 16C8.16444 16 8.31555 15.9089 8.39333 15.7622C9.96222 12.7911 12.3667 7.43333 10.8444 4.90889H10.8489ZM6.97555 3.66222C6.44222 2.91111 5.95555 2.10889 5.86444 1.92444C5.81333 1.81778 5.80666 1.69778 5.84444 1.58444C5.88444 1.47333 5.96444 1.38222 6.07111 1.33111C6.17777 1.28 6.29777 1.27333 6.41111 1.31111C6.52444 1.34889 6.61333 1.43111 6.66444 1.53556C6.67555 1.56 6.69111 1.59556 6.70888 1.64C6.79111 1.84222 7.00666 1.95111 7.22 1.90444C7.43111 1.85556 7.57777 1.66222 7.56444 1.44444C7.56222 1.39778 7.56 1.35778 7.56 1.33111C7.56 1.08667 7.76 0.886667 8.00444 0.886667C8.24888 0.886667 8.44889 1.08667 8.44889 1.33111C8.44889 1.35778 8.44889 1.39778 8.44444 1.44444C8.43111 1.66222 8.57777 1.85556 8.78889 1.90444C9 1.95111 9.21777 1.84 9.3 1.64C9.31777 1.59556 9.33333 1.56 9.34444 1.53556C9.39555 1.42889 9.48666 1.34889 9.59777 1.30889C9.71111 1.26889 9.83111 1.27778 9.93777 1.32889C10.0444 1.38 10.1244 1.47111 10.1644 1.58222C10.2044 1.69333 10.1978 1.81556 10.1444 1.92222C10.0533 2.10889 9.56666 2.90889 9.03333 3.66C9.02666 3.66 9.02 3.65778 9.01333 3.65556C8.96 3.64444 8.90666 3.63333 8.85333 3.62444C8.74666 3.60444 8.63555 3.58889 8.52222 3.57778C8.49111 3.57556 8.46 3.57333 8.42889 3.57111C8.29111 3.56 8.14889 3.55333 8.00444 3.55333C7.86 3.55333 7.71777 3.56 7.58 3.57111C7.54889 3.57333 7.51777 3.57556 7.48666 3.57778C7.37333 3.58889 7.26444 3.60444 7.15777 3.62444C7.10222 3.63333 7.04888 3.64444 6.99555 3.65556C6.98888 3.65556 6.98222 3.65778 6.97555 3.66V3.66222ZM8.00444 14.5844C5.81777 10.2444 5.04 6.82889 5.92 5.36667C6.14222 4.99556 6.47777 4.74222 6.92666 4.59556C6.92666 4.59556 6.92888 4.59556 6.93111 4.59556C7.00222 4.57333 7.07777 4.55333 7.15333 4.53556C7.16444 4.53333 7.17333 4.53111 7.18444 4.52889C7.25333 4.51333 7.32444 4.5 7.39777 4.48889C7.43333 4.48444 7.46888 4.48 7.50444 4.47556C7.56222 4.46889 7.62 4.46222 7.68 4.45778C7.78444 4.45111 7.88889 4.44444 8.00222 4.44444C8.11555 4.44444 8.22 4.44889 8.32444 4.45778C8.38444 4.46222 8.44222 4.46889 8.5 4.47556C8.53555 4.48 8.57111 4.48444 8.60666 4.48889C8.68 4.5 8.75111 4.51333 8.82 4.52667C8.83111 4.52889 8.84222 4.53111 8.85333 4.53556C8.92888 4.55333 9.00444 4.57333 9.07555 4.59556C9.07555 4.59556 9.07777 4.59556 9.08 4.59556C9.52889 4.74222 9.86444 4.99778 10.0867 5.36667C10.2889 5.7 10.3978 6.14 10.4289 6.66444H8.44666C8.20222 6.66444 8.00222 6.86444 8.00222 7.10889C8.00222 7.35333 8.20222 7.55333 8.44666 7.55333H10.4089C10.3844 7.83333 10.3444 8.12889 10.2844 8.44222H8.44444C8.2 8.44222 8 8.64222 8 8.88667C8 9.13111 8.2 9.33111 8.44444 9.33111H10.0822C10.0089 9.61778 9.92444 9.91333 9.82666 10.22H8.44444C8.2 10.22 8 10.42 8 10.6644C8 10.9089 8.2 11.1089 8.44444 11.1089H9.52222C9.13333 12.1756 8.62666 13.34 8 14.5844H8.00444Z" fill="black"/>
</svg>
