<svg width="16" height="16" viewBox="0 0 16 16" fill="none" xmlns="http://www.w3.org/2000/svg">
<path d="M14.499 10.7498H4.49969C4.2572 10.7498 4.04972 10.5748 4.00722 10.3374L2.57982 2.25042H0.499965C0.224984 2.25042 0 2.02543 0 1.75045C0 1.47547 0.224984 1.25049 0.499965 1.25049H2.99979C3.24227 1.25049 3.44976 1.42548 3.49226 1.66296L3.85973 3.75031H15.4989C15.6464 3.75031 15.7864 3.81531 15.8814 3.9278C15.9764 4.04029 16.0164 4.18778 15.9939 4.33277L14.994 10.3324C14.954 10.5723 14.744 10.7498 14.5015 10.7498H14.499ZM4.91966 9.74989H14.0765L14.909 4.75024H4.03722L4.91966 9.74989Z" fill="black"/>
<path d="M6.49944 14.2494C7.05169 14.2494 7.49937 13.8017 7.49937 13.2494C7.49937 12.6972 7.05169 12.2495 6.49944 12.2495C5.9472 12.2495 5.49951 12.6972 5.49951 13.2494C5.49951 13.8017 5.9472 14.2494 6.49944 14.2494Z" fill="black"/>
<path d="M6.49953 14.7493C5.67209 14.7493 4.99963 14.0768 4.99963 13.2494C4.99963 12.422 5.67209 11.7495 6.49953 11.7495C7.32697 11.7495 7.99942 12.422 7.99942 13.2494C7.99942 14.0768 7.32697 14.7493 6.49953 14.7493ZM6.49953 12.7494C6.22455 12.7494 5.99956 12.9744 5.99956 13.2494C5.99956 13.5244 6.22455 13.7494 6.49953 13.7494C6.77451 13.7494 6.99949 13.5244 6.99949 13.2494C6.99949 12.9744 6.77451 12.7494 6.49953 12.7494Z" fill="black"/>
<path d="M12.4991 14.2494C13.0513 14.2494 13.499 13.8017 13.499 13.2494C13.499 12.6972 13.0513 12.2495 12.4991 12.2495C11.9468 12.2495 11.4991 12.6972 11.4991 13.2494C11.4991 13.8017 11.9468 14.2494 12.4991 14.2494Z" fill="black"/>
<path d="M12.4992 14.7493C11.6717 14.7493 10.9993 14.0768 10.9993 13.2494C10.9993 12.422 11.6717 11.7495 12.4992 11.7495C13.3266 11.7495 13.9991 12.422 13.9991 13.2494C13.9991 14.0768 13.3266 14.7493 12.4992 14.7493ZM12.4992 12.7494C12.2242 12.7494 11.9992 12.9744 11.9992 13.2494C11.9992 13.5244 12.2242 13.7494 12.4992 13.7494C12.7741 13.7494 12.9991 13.5244 12.9991 13.2494C12.9991 12.9744 12.7741 12.7494 12.4992 12.7494Z" fill="black"/>
</svg>
