<svg width="16" height="16" viewBox="0 0 16 16" fill="none" xmlns="http://www.w3.org/2000/svg">
<path d="M15.5556 2.66663H0.444444C0.2 2.66663 0 2.86663 0 3.11107V12.8888C0 13.1333 0.2 13.3333 0.444444 13.3333H15.5556C15.8 13.3333 16 13.1333 16 12.8888V3.11107C16 2.86663 15.8 2.66663 15.5556 2.66663ZM15.1111 12.4444H0.888889V3.55551H15.1111V12.4444Z" fill="black"/>
<path d="M11.1112 11.1111C11.1112 11.2644 11.1912 11.4088 11.3223 11.4888C11.4534 11.5688 11.6178 11.5777 11.7556 11.5088L12.4467 11.1644L13.1378 11.5088C13.2001 11.5399 13.2689 11.5555 13.3356 11.5555C13.4178 11.5555 13.4978 11.5333 13.5689 11.4888C13.7001 11.4088 13.7801 11.2644 13.7801 11.1111V9.17106C14.0556 8.85772 14.2245 8.44883 14.2245 7.99995C14.2245 7.01995 13.4267 6.22217 12.4467 6.22217C11.4667 6.22217 10.6689 7.01995 10.6689 7.99995C10.6689 8.44883 10.8378 8.85772 11.1134 9.17106V11.1111H11.1112ZM12.6423 10.2688C12.5178 10.2066 12.3689 10.2066 12.2445 10.2688L11.9978 10.3911V9.71772C12.1401 9.7555 12.2889 9.7755 12.4423 9.7755C12.5956 9.7755 12.7445 9.75328 12.8867 9.71772V10.3911L12.6401 10.2688H12.6423ZM12.4445 7.11106C12.9356 7.11106 13.3334 7.50883 13.3334 7.99995C13.3334 8.49106 12.9356 8.88883 12.4445 8.88883C11.9534 8.88883 11.5556 8.49106 11.5556 7.99995C11.5556 7.50883 11.9534 7.11106 12.4445 7.11106Z" fill="black"/>
<path d="M2.22203 6.22226H9.33314C9.57759 6.22226 9.77759 6.02226 9.77759 5.77782C9.77759 5.53337 9.57759 5.33337 9.33314 5.33337H2.22203C1.97759 5.33337 1.77759 5.53337 1.77759 5.77782C1.77759 6.02226 1.97759 6.22226 2.22203 6.22226Z" fill="black"/>
<path d="M2.22203 8.44443H8.44425C8.6887 8.44443 8.8887 8.24443 8.8887 7.99999C8.8887 7.75554 8.6887 7.55554 8.44425 7.55554H2.22203C1.97759 7.55554 1.77759 7.75554 1.77759 7.99999C1.77759 8.24443 1.97759 8.44443 2.22203 8.44443Z" fill="black"/>
<path d="M2.22203 10.6666H8.44425C8.6887 10.6666 8.8887 10.4666 8.8887 10.2222C8.8887 9.97771 8.6887 9.77771 8.44425 9.77771H2.22203C1.97759 9.77771 1.77759 9.97771 1.77759 10.2222C1.77759 10.4666 1.97759 10.6666 2.22203 10.6666Z" fill="black"/>
</svg>
