<svg width="16" height="17" viewBox="0 0 16 17" fill="none" xmlns="http://www.w3.org/2000/svg">
<path d="M14.7588 1.24385C13.1003 -0.414618 10.4027 -0.414618 8.74419 1.24385L6.48771 3.50033C5.94286 4.04518 5.58139 4.70166 5.39535 5.39535C4.70166 5.5814 4.04518 5.94552 3.50033 6.48771L1.24385 8.74419C-0.414618 10.4027 -0.414618 13.1003 1.24385 14.7588C2.07309 15.588 3.16279 16.0027 4.24983 16.0027C5.33688 16.0027 6.42658 15.588 7.25581 14.7588L9.51229 12.5023C10.0571 11.9575 10.4186 11.301 10.6047 10.6073C11.2983 10.4213 11.9548 10.0571 12.4997 9.51495L14.7561 7.25847C16.4146 5.6 16.4146 2.90233 14.7561 1.24385H14.7588ZM6.50897 6.30432C7.32492 6.30432 8.14352 6.61528 8.76545 7.23721C9.43521 7.90698 9.74086 8.80532 9.68771 9.68505C8.80797 9.7382 7.91229 9.43256 7.23987 8.76279C6.5701 8.09302 6.26445 7.19468 6.31761 6.31495C6.3814 6.31229 6.44518 6.30698 6.50897 6.30698V6.30432ZM6.50897 14.004C5.26512 15.2478 3.24252 15.2478 1.99867 14.004C0.754817 12.7601 0.754817 10.7375 1.99867 9.49369L4.25515 7.23721C4.55017 6.94219 4.88771 6.72159 5.24917 6.56478C5.26512 7.63322 5.67708 8.699 6.49036 9.51229C7.30365 10.3256 8.36943 10.7375 9.43787 10.7535C9.28372 11.1149 9.06046 11.4551 8.76545 11.7475L6.50897 14.004ZM14.0066 6.50631L11.7502 8.76279C11.4551 9.05781 11.1176 9.27841 10.7561 9.43521C10.7402 8.36678 10.3282 7.301 9.51495 6.48771C8.70166 5.67442 7.63588 5.26246 6.56744 5.24651C6.72159 4.88505 6.94485 4.54485 7.23987 4.25249L9.49634 1.99601C10.1183 1.37409 10.9342 1.06312 11.7528 1.06312C12.5714 1.06312 13.3874 1.37409 14.0093 1.99601C15.2532 3.23987 15.2532 5.26246 14.0093 6.50631H14.0066Z" fill="black"/>
</svg>
