<svg width="16" height="16" viewBox="0 0 16 16" fill="none" xmlns="http://www.w3.org/2000/svg">
<path d="M13.7778 5.55778C13.6267 5.55778 13.4778 5.57333 13.3333 5.60222V1.33333C13.3333 0.597778 12.7356 0 12 0H4C3.26444 0 2.66667 0.597778 2.66667 1.33333V5.60222C2.52222 5.57333 2.37333 5.55778 2.22222 5.55778C0.997778 5.55778 0 6.55556 0 7.78C0 8.67333 0.533333 9.46667 1.33333 9.81556V13.7778C1.33333 14.3578 1.70444 14.8489 2.22222 15.0333V15.5556C2.22222 15.8 2.42222 16 2.66667 16C2.91111 16 3.11111 15.8 3.11111 15.5556V15.1111H12.8889V15.5556C12.8889 15.8 13.0889 16 13.3333 16C13.5778 16 13.7778 15.8 13.7778 15.5556V15.0333C14.2956 14.8489 14.6667 14.3578 14.6667 13.7778V9.81556C15.4667 9.46667 16 8.67333 16 7.78C16 6.55556 15.0022 5.55778 13.7778 5.55778ZM3.55556 6.00222V1.33333C3.55556 1.08889 3.75556 0.888889 4 0.888889H12C12.2444 0.888889 12.4444 1.08889 12.4444 1.33333V6.00222C12.4444 6.00222 12.4444 6.00444 12.4444 6.00667C11.9067 6.41333 11.5556 7.05556 11.5556 7.78C11.5556 8.26 11.7133 8.72667 12 9.11111L4 9.11333C4.28667 8.72667 4.44444 8.26 4.44444 7.78C4.44444 7.05556 4.09333 6.41111 3.55556 6.00667C3.55556 6.00667 3.55556 6.00444 3.55556 6.00222ZM12 10.8911H4V10.0022H12V10.8911ZM4 11.78H12V14.2222H4V11.78ZM1.88889 9.06889C1.3 8.91778 0.888889 8.38667 0.888889 7.78C0.888889 7.04444 1.48667 6.44667 2.22222 6.44667C2.95778 6.44667 3.55556 7.04444 3.55556 7.78C3.55556 8.10222 3.43778 8.41556 3.22222 8.66C3.15111 8.74222 3.11111 8.84667 3.11111 8.95333V14.2222H2.66667C2.42222 14.2222 2.22222 14.0222 2.22222 13.7778V9.5C2.22222 9.29778 2.08444 9.12 1.88889 9.06889ZM14.1111 9.06889C13.9156 9.12 13.7778 9.29556 13.7778 9.5V13.7778C13.7778 14.0222 13.5778 14.2222 13.3333 14.2222H12.8889V8.95333C12.8889 8.84444 12.8489 8.74 12.7778 8.66C12.5622 8.41556 12.4444 8.10444 12.4444 7.78C12.4444 7.04444 13.0422 6.44667 13.7778 6.44667C14.5133 6.44667 15.1111 7.04444 15.1111 7.78C15.1111 8.38667 14.7 8.91778 14.1111 9.06889Z" fill="black"/>
</svg>
