<svg width="16" height="16" viewBox="0 0 16 16" fill="none" xmlns="http://www.w3.org/2000/svg">
<path d="M15.5556 15.1111H14.2222V4.88889C14.2222 4.64444 14.0222 4.44444 13.7778 4.44444H10.2222C9.97778 4.44444 9.77778 4.64444 9.77778 4.88889V8H6.66667C6.42222 8 6.22222 8.2 6.22222 8.44444V11.5556H3.11111C2.86667 11.5556 2.66667 11.7556 2.66667 12V15.1111H0.888889V0.444444C0.888889 0.2 0.688889 0 0.444444 0C0.2 0 0 0.2 0 0.444444V15.5556C0 15.8 0.2 16 0.444444 16H15.5556C15.8 16 16 15.8 16 15.5556C16 15.3111 15.8 15.1111 15.5556 15.1111ZM3.55556 12.4444H6.22222V15.1111H3.55556V12.4444ZM7.11111 12V8.88889H9.77778V15.1111H7.11111V12ZM10.6667 15.1111V5.33333H13.3333V15.1111H10.6667Z" fill="black"/>
</svg>
