<svg width="16" height="16" viewBox="0 0 16 16" fill="none" xmlns="http://www.w3.org/2000/svg">
<path d="M10.6681 1.33252H5.33407C2.39367 1.33252 0 3.72619 0 6.66659C0 9.607 2.15585 11.7562 4.88957 11.9829V14.2232C4.88957 14.4032 4.99847 14.5655 5.16294 14.6344C5.2185 14.6566 5.27629 14.6677 5.33407 14.6677C5.44965 14.6677 5.56299 14.6233 5.64745 14.5366L8.18336 12.0007H10.6659C13.6063 12.0007 16 9.607 16 6.66659C16 3.72619 13.6063 1.33252 10.6659 1.33252H10.6681ZM10.6681 11.1117H8.00111C7.88332 11.1117 7.76997 11.1583 7.68773 11.2428L5.77858 13.1519V11.5584C5.77858 11.3139 5.57855 11.1139 5.33407 11.1139C2.88262 11.1139 0.889012 9.12027 0.889012 6.66882C0.889012 4.21736 2.88262 2.22153 5.33407 2.22153H10.6681C13.1196 2.22153 15.1132 4.21514 15.1132 6.66659C15.1132 9.11805 13.1196 11.1117 10.6681 11.1117Z" fill="black"/>
</svg>
