<svg width="16" height="16" viewBox="0 0 16 16" fill="none" xmlns="http://www.w3.org/2000/svg">
<path d="M10.5113 6.0156L7.00464 9.52226L5.52464 8.04226C5.3513 7.86893 5.06908 7.86893 4.89575 8.04226C4.72241 8.2156 4.72241 8.49782 4.89575 8.67115L6.6913 10.4667C6.77575 10.5512 6.88686 10.5978 7.00464 10.5978C7.12241 10.5978 7.23575 10.5512 7.31797 10.4667L11.138 6.64671C11.3113 6.47337 11.3113 6.19115 11.138 6.01782C10.9646 5.84448 10.6824 5.84448 10.5091 6.01782L10.5113 6.0156Z" fill="black"/>
<path d="M12.4422 0.888889H10.6666V0.873333C10.6666 0.391111 10.2755 0 9.79329 0H6.20663C5.7244 0 5.33329 0.391111 5.33329 0.873333V0.888889H3.55774C3.06663 0.888889 2.66663 1.28889 2.66663 1.78V15.1089C2.66663 15.6 3.06663 16 3.55774 16H12.4422C12.9333 16 13.3333 15.6 13.3333 15.1089V1.78C13.3333 1.28889 12.9333 0.888889 12.4422 0.888889ZM9.77774 0.873333V2.66667H6.21996L6.21107 1.43111C6.21774 1.4 6.22218 1.36667 6.22218 1.33333C6.22218 1.29778 6.21774 1.26444 6.20885 1.23111V0.888889L9.77774 0.873333ZM12.4422 15.1111H3.55551V1.77778H5.33107V3.11111C5.33107 3.35556 5.53107 3.55556 5.77551 3.55556H10.22C10.4644 3.55556 10.6644 3.35556 10.6644 3.11111V1.77778H12.4422V15.1111Z" fill="black"/>
</svg>
