<svg width="16" height="16" viewBox="0 0 16 16" fill="none" xmlns="http://www.w3.org/2000/svg">
<path d="M8 16C3.58889 16 0 12.4111 0 8C0 3.58889 3.58889 0 8 0C12.4111 0 16 3.58889 16 8C16 12.4111 12.4111 16 8 16ZM8 0.888889C4.07778 0.888889 0.888889 4.07778 0.888889 8C0.888889 11.9222 4.07778 15.1111 8 15.1111C11.9222 15.1111 15.1111 11.9222 15.1111 8C15.1111 4.07778 11.9222 0.888889 8 0.888889Z" fill="black"/>
<path d="M12.9045 8.46667H8.00005C7.7556 8.46667 7.5556 8.26667 7.5556 8.02223V3.11778C7.5556 2.87334 7.7556 2.67334 8.00005 2.67334C8.24449 2.67334 8.44449 2.87334 8.44449 3.11778V7.57778H12.9045C13.1489 7.57778 13.3489 7.77778 13.3489 8.02223C13.3489 8.26667 13.1489 8.46667 12.9045 8.46667Z" fill="black"/>
</svg>
