<svg width="16" height="16" viewBox="0 0 16 16" fill="none" xmlns="http://www.w3.org/2000/svg">
<path d="M12.8644 3.13665C12.6556 1.37221 11.1511 0.00109863 9.33333 0.00109863C8.38222 0.00109863 7.48222 0.378876 6.81778 1.04554C6.48 0.941099 6.13333 0.889988 5.77778 0.889988C4.24667 0.889988 2.89778 1.86999 2.41333 3.30332C0.98 3.78777 0 5.13665 0 6.66777C0 8.62777 1.59556 10.2233 3.55556 10.2233H5.33333C5.57778 10.2233 5.77778 10.0233 5.77778 9.77888C5.77778 9.53443 5.57778 9.33443 5.33333 9.33443H3.55556C2.08444 9.33443 0.888889 8.13888 0.888889 6.66777C0.888889 5.45665 1.70889 4.39665 2.88222 4.08999C3.03778 4.04999 3.16 3.92777 3.2 3.77221C3.50667 2.59888 4.56667 1.77888 5.77778 1.77888C6.12222 1.77888 6.45778 1.84554 6.77778 1.97443C6.95778 2.04777 7.16222 1.99665 7.28667 1.84777C7.79556 1.23888 8.54222 0.889988 9.33333 0.889988C10.8044 0.889988 12 2.08554 12 3.55665C12 3.8011 12.2 4.0011 12.4444 4.0011C13.9156 4.0011 15.1111 5.19665 15.1111 6.66777C15.1111 8.13888 13.9156 9.33443 12.4444 9.33443H10.6667C10.4222 9.33443 10.2222 9.53443 10.2222 9.77888C10.2222 10.0233 10.4222 10.2233 10.6667 10.2233H12.4444C14.4044 10.2233 16 8.62777 16 6.66777C16 4.84999 14.6267 3.34554 12.8644 3.13665Z" fill="black"/>
<path d="M10.5133 7.40335C10.6266 7.40335 10.7399 7.3589 10.8266 7.27223C10.9999 7.0989 10.9999 6.81668 10.8266 6.64334L8.31326 4.13001C8.29326 4.11001 8.26882 4.09001 8.24437 4.07446C8.23326 4.06779 8.22215 4.06334 8.21104 4.05668C8.19771 4.04779 8.18215 4.04112 8.1666 4.03446C8.15104 4.02779 8.13771 4.02557 8.12215 4.02112C8.10882 4.01668 8.09771 4.01223 8.08437 4.01001C8.0266 3.9989 7.96882 3.9989 7.91104 4.01001C7.89771 4.01223 7.88437 4.01668 7.87326 4.02112C7.85771 4.02557 7.84437 4.03001 7.82882 4.03446C7.81326 4.04112 7.79993 4.05001 7.78437 4.05668C7.77326 4.06334 7.76215 4.06779 7.75104 4.07446C7.7266 4.09001 7.70437 4.11001 7.68215 4.13001L5.16882 6.64334C4.99549 6.81668 4.99549 7.0989 5.16882 7.27223C5.34215 7.44557 5.62437 7.44557 5.79771 7.27223L7.55326 5.51668V15.5545C7.55326 15.7989 7.75326 15.9989 7.99771 15.9989C8.24215 15.9989 8.44215 15.7989 8.44215 15.5545V5.5189L10.1977 7.27446C10.2844 7.36112 10.3977 7.40557 10.511 7.40557L10.5133 7.40335Z" fill="black"/>
</svg>
