<svg width="16" height="16" viewBox="0 0 16 16" fill="none" xmlns="http://www.w3.org/2000/svg">
<path d="M12.8644 3.13666C12.6556 1.37222 11.1511 0.00110626 9.33333 0.00110626C8.38222 0.00110626 7.48222 0.378884 6.81778 1.04555C6.48 0.941106 6.13333 0.889995 5.77778 0.889995C4.24667 0.889995 2.89778 1.87 2.41333 3.30333C0.98 3.78777 0 5.13666 0 6.66777C0 8.62777 1.59556 10.2233 3.55556 10.2233H5.33333C5.57778 10.2233 5.77778 10.0233 5.77778 9.77888C5.77778 9.53444 5.57778 9.33444 5.33333 9.33444H3.55556C2.08444 9.33444 0.888889 8.13888 0.888889 6.66777C0.888889 5.45666 1.70889 4.39666 2.88222 4.08999C3.03778 4.04999 3.16 3.92777 3.2 3.77222C3.50667 2.59888 4.56667 1.77888 5.77778 1.77888C6.12222 1.77888 6.45778 1.84555 6.77778 1.97444C6.95778 2.04777 7.16222 1.99666 7.28667 1.84777C7.79556 1.23888 8.54222 0.889995 9.33333 0.889995C10.8044 0.889995 12 2.08555 12 3.55666C12 3.80111 12.2 4.00111 12.4444 4.00111C13.9156 4.00111 15.1111 5.19666 15.1111 6.66777C15.1111 8.13888 13.9156 9.33444 12.4444 9.33444H10.6667C10.4222 9.33444 10.2222 9.53444 10.2222 9.77888C10.2222 10.0233 10.4222 10.2233 10.6667 10.2233H12.4444C14.4044 10.2233 16 8.62777 16 6.66777C16 4.85 14.6267 3.34555 12.8644 3.13666Z" fill="black"/>
<path d="M10.1998 12.7278L8.44429 14.4833V4.44556C8.44429 4.20111 8.24429 4.00111 7.99984 4.00111C7.7554 4.00111 7.5554 4.20111 7.5554 4.44556V14.4833L5.79984 12.7278C5.62651 12.5544 5.34429 12.5544 5.17095 12.7278C4.99762 12.9011 4.99762 13.1833 5.17095 13.3567L7.68429 15.87C7.70429 15.89 7.72873 15.91 7.75318 15.9256C7.76429 15.9322 7.7754 15.9367 7.78651 15.9433C7.79984 15.9522 7.8154 15.9589 7.83095 15.9656C7.84651 15.9722 7.85984 15.9744 7.8754 15.9789C7.88873 15.9833 7.89984 15.9878 7.91318 15.99C7.94207 15.9967 7.97095 15.9989 7.99984 15.9989C8.02873 15.9989 8.05762 15.9967 8.08651 15.99C8.09984 15.9878 8.11318 15.9833 8.12429 15.9789C8.13984 15.9744 8.15318 15.97 8.16873 15.9656C8.18429 15.9589 8.19762 15.95 8.21318 15.9433C8.22429 15.9367 8.2354 15.9322 8.24651 15.9256C8.27095 15.91 8.29318 15.89 8.3154 15.87L10.8287 13.3567C11.0021 13.1833 11.0021 12.9011 10.8287 12.7278C10.6554 12.5544 10.3732 12.5544 10.1998 12.7278Z" fill="black"/>
</svg>
