<svg width="16" height="17" viewBox="0 0 16 17" fill="none" xmlns="http://www.w3.org/2000/svg">
<path d="M10.1938 8.30828C11.1606 7.75706 11.9008 6.85911 12.2408 5.7789H12.4453C12.6898 5.7789 12.8898 5.57886 12.8898 5.33437C12.8898 5.08988 12.6898 4.88984 12.4453 4.88984H12.4231C12.4386 4.74314 12.4453 4.59645 12.4453 4.44531C12.4453 4.29417 12.4364 4.14747 12.4231 4.00078H14.2234C14.4679 4.00078 14.668 3.80074 14.668 3.55624C14.668 3.31175 14.4679 3.11171 14.2234 3.11171H12.2408C11.674 1.30914 9.98705 0 8 0C5.54841 0 3.55469 1.99372 3.55469 4.44531C3.55469 6.09896 4.46376 7.54146 5.80846 8.30828C2.60784 9.21734 0.200711 12.0668 0.00067216 15.5341C-0.0126638 15.7786 0.174039 15.9898 0.418531 16.0031C0.663023 16.012 0.874175 15.8297 0.887511 15.5852C1.05865 12.6336 3.02793 10.1864 5.69289 9.27513L7.02648 11.9823C6.80421 12.2201 6.66641 12.5402 6.66641 12.8914C6.66641 13.6271 7.2643 14.225 8 14.225C8.15559 14.225 8.3045 14.1961 8.44453 14.1472V15.114H9.33359V12.8914C9.33359 12.5402 9.19579 12.2201 8.97352 11.9823L10.3071 9.27513C12.9743 10.1864 14.9413 12.6336 15.1125 15.5852C15.1258 15.8208 15.3214 16.0031 15.5548 16.0031C15.5637 16.0031 15.5726 16.0031 15.5815 16.0031C15.826 15.9898 16.0127 15.7786 15.9993 15.5341C15.7971 12.0668 13.3922 9.21734 10.1915 8.30828H10.1938ZM8.00222 0.889061C9.4914 0.889061 10.7672 1.80924 11.2962 3.11171H4.70825C5.23724 1.80924 6.51305 0.889061 8.00222 0.889061ZM4.44598 4.44531C4.44598 4.29417 4.45931 4.14747 4.4771 4.00078H11.5274C11.5451 4.14747 11.5585 4.29417 11.5585 4.44531C11.5585 6.40569 9.9626 8.00155 8.00222 8.00155C6.04184 8.00155 4.44598 6.40569 4.44598 4.44531ZM8.00222 13.3359C7.75773 13.3359 7.55769 13.1359 7.55769 12.8914C7.55769 12.6469 7.75773 12.4469 8.00222 12.4469C8.24671 12.4469 8.44675 12.6469 8.44675 12.8914C8.44675 13.1359 8.24671 13.3359 8.00222 13.3359ZM8.1867 11.5711C8.12669 11.5622 8.06446 11.5578 8.00222 11.5578C7.93999 11.5578 7.87775 11.5645 7.81774 11.5711L6.56861 9.03508C7.03315 8.93951 7.51102 8.88839 8.00222 8.88839C8.49343 8.88839 8.9713 8.93951 9.43583 9.03508L8.1867 11.5711Z" fill="black"/>
<path d="M10.6696 4.8899C10.6696 4.77432 10.6229 4.65874 10.5384 4.5765C10.4362 4.47426 10.2828 4.42536 10.1384 4.45426C10.1095 4.46093 10.0828 4.46982 10.0539 4.48093C10.0272 4.49204 10.0028 4.50538 9.97833 4.52094C9.95388 4.5365 9.93166 4.5565 9.90943 4.5765C9.82719 4.65874 9.78052 4.77432 9.78052 4.8899C9.78052 5.00548 9.82719 5.12105 9.90943 5.20551C9.95166 5.24774 10.0006 5.27886 10.0539 5.30109C10.1095 5.32332 10.165 5.33443 10.225 5.33443C10.3428 5.33443 10.4562 5.28775 10.5384 5.20551C10.6229 5.12105 10.6696 5.00992 10.6696 4.8899Z" fill="black"/>
</svg>
