<svg width="16" height="16" viewBox="0 0 16 16" fill="none" xmlns="http://www.w3.org/2000/svg">
<path d="M14.1978 2.97111L13.3089 0.304444C13.2489 0.122222 13.0778 0 12.8867 0H3.10889C2.91778 0 2.74889 0.122222 2.68667 0.304444L1.79778 2.97111C1.75334 3.10667 1.77556 3.25556 1.86 3.37111C1.94445 3.48667 2.07778 3.55556 2.22 3.55556H3.14L4 15.5867C4.01778 15.82 4.21111 16 4.44445 16H11.5556C11.7889 16 11.9822 15.82 12 15.5867L12.86 3.55556H13.78C13.9222 3.55556 14.0578 3.48667 14.14 3.37111C14.2244 3.25556 14.2467 3.10667 14.2022 2.97111H14.1978ZM11.4578 10.6667H4.54L4.22222 6.22222H11.7756L11.4578 10.6667ZM4.85778 15.1111L4.60445 11.5556H11.3956L11.1422 15.1111H4.85778ZM11.84 5.33333H4.15778L4.03111 3.55556H11.9644L11.8378 5.33333H11.84ZM12.4444 2.66667H2.83556L3.42889 0.888889H12.5667L13.16 2.66667H12.4422H12.4444Z" fill="black"/>
</svg>
