<svg width="16" height="16" viewBox="0 0 16 16" fill="none" xmlns="http://www.w3.org/2000/svg">
<path d="M8 16C3.58889 16 0 12.4111 0 8C0 3.58889 3.58889 0 8 0C12.4111 0 16 3.58889 16 8C16 12.4111 12.4111 16 8 16ZM8 0.888889C4.08 0.888889 0.888889 4.08 0.888889 8C0.888889 11.92 4.08 15.1111 8 15.1111C11.92 15.1111 15.1111 11.92 15.1111 8C15.1111 4.08 11.92 0.888889 8 0.888889Z" fill="black"/>
<path d="M4.8577 11.5867C4.74215 11.5867 4.62881 11.5422 4.54215 11.4556C4.40437 11.3178 4.37104 11.1045 4.46437 10.9311L6.66437 6.84668C6.70659 6.77113 6.76881 6.70668 6.84437 6.66668L10.9288 4.46668C11.1021 4.37335 11.3155 4.40446 11.4533 4.54446C11.591 4.68224 11.6244 4.89557 11.531 5.0689L9.33104 9.15335C9.28881 9.2289 9.22659 9.29335 9.15104 9.33335L5.06659 11.5333C4.99992 11.5689 4.92881 11.5867 4.85548 11.5867H4.8577ZM7.38659 7.38446L5.95104 10.0489L8.61548 8.61335L10.051 5.9489L7.38659 7.38446Z" fill="black"/>
</svg>
