<svg width="16" height="16" viewBox="0 0 16 16" fill="none" xmlns="http://www.w3.org/2000/svg">
<path d="M7.55503 15.9978H3.55531C3.43754 15.9978 3.32421 15.9511 3.242 15.8667L0.131102 12.7558C0.0466635 12.6713 0 12.5602 0 12.4425V8.44275C0 8.32498 0.0466635 8.21165 0.131102 8.12944L8.13055 0.129991C8.30387 -0.0433303 8.58607 -0.0433303 8.75939 0.129991L15.87 7.24061C16.0433 7.41393 16.0433 7.69613 15.87 7.86945L7.87056 15.8689C7.78613 15.9533 7.67502 16 7.55725 16L7.55503 15.9978ZM3.73974 15.109H7.3706L14.9256 7.55392L8.44386 1.07215L0.888827 8.62718V12.258L3.73974 15.109Z" fill="black"/>
<path d="M4.44404 12.8869C3.4641 12.8869 2.66638 12.0892 2.66638 11.1092C2.66638 10.1293 3.4641 9.33159 4.44404 9.33159C5.42397 9.33159 6.22169 10.1293 6.22169 11.1092C6.22169 12.0892 5.42397 12.8869 4.44404 12.8869ZM4.44404 10.2204C3.95296 10.2204 3.55521 10.6182 3.55521 11.1092C3.55521 11.6003 3.95296 11.9981 4.44404 11.9981C4.93511 11.9981 5.33286 11.6003 5.33286 11.1092C5.33286 10.6182 4.93511 10.2204 4.44404 10.2204Z" fill="black"/>
</svg>
