<svg width="16" height="17" viewBox="0 0 16 17" fill="none" xmlns="http://www.w3.org/2000/svg">
<path d="M15.5643 6.66852C15.3198 6.66852 15.1198 6.86857 15.1198 7.11309V7.55766H13.7683C13.6727 6.29731 13.1703 5.15032 12.3946 4.24562L13.3526 3.28758L13.666 3.601C13.7527 3.68769 13.8661 3.73215 13.9794 3.73215C14.0928 3.73215 14.2062 3.68769 14.2929 3.601C14.4662 3.42762 14.4662 3.14532 14.2929 2.97194L13.6638 2.34287L13.0347 1.71381C12.8614 1.54043 12.5791 1.54043 12.4057 1.71381C12.2323 1.88719 12.2323 2.16949 12.4057 2.34287L12.7191 2.65629L11.761 3.61434C10.8563 2.83634 9.70714 2.3362 8.44901 2.24062V0.889136H8.89358C9.13809 0.889136 9.33815 0.68908 9.33815 0.444568C9.33815 0.200056 9.13809 0 8.89358 0H7.11531C6.8708 0 6.67074 0.200056 6.67074 0.444568C6.67074 0.68908 6.8708 0.889136 7.11531 0.889136H7.55988V2.24062C6.29953 2.3362 5.15254 2.83857 4.24785 3.61434L3.2898 2.65629L3.60322 2.34287C3.7766 2.16949 3.7766 1.88719 3.60322 1.71381C3.42984 1.54043 3.14754 1.54043 2.97416 1.71381L2.3451 2.34287L1.71603 2.97194C1.54265 3.14532 1.54265 3.42762 1.71603 3.601C1.80272 3.68769 1.91609 3.73215 2.02945 3.73215C2.14282 3.73215 2.25618 3.68769 2.34287 3.601L2.65629 3.28758L3.61434 4.24562C2.83634 5.15032 2.3362 6.29953 2.24062 7.55766H0.889136V7.11309C0.889136 6.86857 0.68908 6.66852 0.444568 6.66852C0.200056 6.66852 0 6.86857 0 7.11309V8.89136C0 9.13587 0.200056 9.33593 0.444568 9.33593C0.68908 9.33593 0.889136 9.13587 0.889136 8.89136V8.44679H2.24062C2.3362 9.70714 2.83857 10.8541 3.61434 11.7588L2.65629 12.7169L2.34287 12.4034C2.16949 12.2301 1.88719 12.2301 1.71381 12.4034C1.54043 12.5768 1.54043 12.8591 1.71381 13.0325L2.34287 13.6616L2.97194 14.2906C3.05863 14.3773 3.17199 14.4218 3.28536 14.4218C3.39872 14.4218 3.51209 14.3773 3.59878 14.2906C3.77216 14.1173 3.77216 13.835 3.59878 13.6616L3.28536 13.3482L4.2434 12.3901C5.1481 13.1681 6.29731 13.6682 7.55543 13.7638V15.1153H7.11086C6.86635 15.1153 6.6663 15.3154 6.6663 15.5599C6.6663 15.8044 6.86635 16.0044 7.11086 16.0044H8.88914C9.13365 16.0044 9.3337 15.8044 9.3337 15.5599C9.3337 15.3154 9.13365 15.1153 8.88914 15.1153H8.44457V13.7638C9.70492 13.6682 10.8519 13.1659 11.7566 12.3901L12.7146 13.3482L12.4012 13.6616C12.2278 13.835 12.2278 14.1173 12.4012 14.2906C12.4879 14.3773 12.6013 14.4218 12.7146 14.4218C12.828 14.4218 12.9414 14.3773 13.0281 14.2906L13.6571 13.6616L14.2862 13.0325C14.4596 12.8591 14.4596 12.5768 14.2862 12.4034C14.1128 12.2301 13.8305 12.2301 13.6571 12.4034L13.3437 12.7169L12.3857 11.7588C13.1637 10.8541 13.6638 9.70492 13.7594 8.44679H15.1109V8.89136C15.1109 9.13587 15.3109 9.33593 15.5554 9.33593C15.7999 9.33593 16 9.13587 16 8.89136V7.11309C16 6.86857 15.7999 6.66852 15.5554 6.66852H15.5643ZM8.00667 12.8925C5.31036 12.8925 3.11642 10.6985 3.11642 8.00222C3.11642 5.30592 5.31036 3.11198 8.00667 3.11198C10.703 3.11198 12.8969 5.30592 12.8969 8.00222C12.8969 10.6985 10.703 12.8925 8.00667 12.8925Z" fill="black"/>
</svg>
