<svg width="16" height="16" viewBox="0 0 16 16" fill="none" xmlns="http://www.w3.org/2000/svg">
<path d="M14.2222 2.66663H1.77778C0.797778 2.66663 0 3.4644 0 4.4444V11.5555C0 12.5355 0.797778 13.3333 1.77778 13.3333H14.2222C15.2022 13.3333 16 12.5355 16 11.5555V4.4444C16 3.4644 15.2022 2.66663 14.2222 2.66663ZM1.77778 3.55551H14.2222C14.7133 3.55551 15.1111 3.95329 15.1111 4.4444V5.33329H0.888889V4.4444C0.888889 3.95329 1.28667 3.55551 1.77778 3.55551ZM14.2222 12.4444H1.77778C1.28667 12.4444 0.888889 12.0466 0.888889 11.5555V6.22218H15.1111V11.5555C15.1111 12.0466 14.7133 12.4444 14.2222 12.4444Z" fill="black"/>
<path d="M3.55537 9.77783H2.22203C1.97759 9.77783 1.77759 9.97783 1.77759 10.2223C1.77759 10.4667 1.97759 10.6667 2.22203 10.6667H3.55537C3.79981 10.6667 3.99981 10.4667 3.99981 10.2223C3.99981 9.97783 3.79981 9.77783 3.55537 9.77783Z" fill="black"/>
<path d="M6.96223 9.77783H5.62889C5.38445 9.77783 5.18445 9.97783 5.18445 10.2223C5.18445 10.4667 5.38445 10.6667 5.62889 10.6667H6.96223C7.20667 10.6667 7.40667 10.4667 7.40667 10.2223C7.40667 9.97783 7.20667 9.77783 6.96223 9.77783Z" fill="black"/>
<path d="M10.371 9.77783H9.03771C8.79326 9.77783 8.59326 9.97783 8.59326 10.2223C8.59326 10.4667 8.79326 10.6667 9.03771 10.6667H10.371C10.6155 10.6667 10.8155 10.4667 10.8155 10.2223C10.8155 9.97783 10.6155 9.77783 10.371 9.77783Z" fill="black"/>
<path d="M13.7778 9.77783H12.4444C12.2 9.77783 12 9.97783 12 10.2223C12 10.4667 12.2 10.6667 12.4444 10.6667H13.7778C14.0222 10.6667 14.2222 10.4667 14.2222 10.2223C14.2222 9.97783 14.0222 9.77783 13.7778 9.77783Z" fill="black"/>
</svg>
