<svg width="16" height="16" viewBox="0 0 16 16" fill="none" xmlns="http://www.w3.org/2000/svg">
<path d="M15.9741 12.7462L14.9095 4.91847C14.9029 4.38729 14.6806 3.86944 14.3028 3.49605C13.9072 3.10489 13.3826 2.8893 12.8292 2.8893C12.8226 2.8893 12.8159 2.8893 12.8092 2.8893C11.8224 2.8893 10.9845 3.5894 10.7801 4.52508L9.79548 3.77831V0.444518C9.79548 0.20004 9.59546 1.21593e-05 9.34876 1.21593e-05C9.10428 1.21593e-05 8.90425 0.20004 8.90425 0.444518V4.00057C8.90425 4.14058 8.97093 4.27171 9.08205 4.35395L10.6956 5.57412C10.5756 5.88305 10.2289 6.25199 9.65991 6.67427L8.00857 7.77664L6.36834 6.68094C5.79271 6.25643 5.44377 5.88527 5.32153 5.57412L6.93287 4.35395C7.04399 4.26949 7.10845 4.13836 7.10845 4.00057L7.11289 0.444518C7.11289 0.20004 6.91509 1.21593e-05 6.66839 1.21593e-05C6.42391 1.21593e-05 6.22388 0.197817 6.22388 0.444518L6.21944 3.78053L5.23708 4.52508C5.03483 3.59162 4.19693 2.8893 3.21013 2.8893H3.19235C2.63449 2.8893 2.10998 3.10489 1.71437 3.49161C1.32987 3.86499 1.10539 4.38284 1.09428 4.91625L0.0385804 12.7462C-0.0214279 13.0529 -0.105884 14.3264 0.703117 14.8576L0.718674 14.8665C0.976488 15.0376 1.27653 15.1221 1.57213 15.111C1.67658 15.111 1.78327 15.1043 1.90773 15.0865L2.00774 15.0688C2.00774 15.0688 2.02774 15.0643 2.03663 15.0621C2.23222 15.0132 3.49017 14.5465 3.85911 14.4087C4.69256 14.1264 5.25263 13.3463 5.25486 12.4684C5.25486 12.2239 5.05705 12.0239 4.81035 12.0239C4.56587 12.0239 4.36585 12.2217 4.36585 12.4684C4.36585 12.9662 4.0458 13.4085 3.56129 13.573C2.81674 13.8508 1.98107 14.1553 1.83216 14.1975L1.76993 14.2086C1.70326 14.2175 1.63436 14.222 1.55435 14.222C1.42766 14.2286 1.31209 14.1931 1.20096 14.1197L1.18318 14.1086C0.856471 13.893 0.874252 13.0996 0.907589 12.924C0.912035 12.9085 0.914257 12.8951 0.91648 12.8796L1.97663 5.00737C1.97885 4.98737 1.98107 4.96959 1.98107 4.94959C1.98107 4.64288 2.10998 4.34283 2.33223 4.12725C2.56337 3.89833 2.86119 3.77387 3.20124 3.77609C3.84355 3.77609 4.37474 4.29172 4.38807 4.92069V5.48077C4.38807 5.50077 4.38807 5.523 4.39252 5.543C4.47697 6.14086 4.93481 6.72983 5.85049 7.40548L7.20179 8.30783L5.81271 9.23462C5.79271 9.24796 5.77271 9.26351 5.7527 9.28129C5.22596 9.78136 4.98149 10.2325 4.98149 10.7015C4.98149 11.7772 6.14165 12.7507 7.30181 13.6908C6.64394 14.2509 6.09053 14.7998 5.85272 15.3866C5.75937 15.6133 5.8705 15.8733 6.0972 15.9667C6.15276 15.9889 6.20832 16 6.26389 16C6.43947 16 6.60615 15.8955 6.67505 15.7222C6.85508 15.2799 7.39293 14.7754 8.0019 14.2664C8.61088 14.7776 9.14873 15.2821 9.32875 15.7222C9.39987 15.8955 9.56434 16 9.73992 16C9.79548 16 9.85105 15.9889 9.90661 15.9667C10.1333 15.8733 10.2444 15.6155 10.1511 15.3866C9.91328 14.8021 9.35987 14.2509 8.702 13.6908C9.85994 12.7507 11.0201 11.7772 11.0201 10.7015C11.0201 10.2303 10.7756 9.77914 10.2489 9.28129C10.2311 9.26351 10.2111 9.24796 10.1889 9.23462L8.79979 8.30783L10.1533 7.40548C10.1533 7.40548 10.1644 7.39659 10.1711 7.39214C11.0668 6.72761 11.5224 6.14086 11.6068 5.543C11.6091 5.523 11.6113 5.50077 11.6113 5.48077V4.92958C11.6246 4.29172 12.158 3.77609 12.8026 3.77609C12.807 3.77609 12.8092 3.77609 12.8137 3.77609C13.1359 3.77609 13.4382 3.90055 13.6671 4.12725C13.8849 4.34283 14.0116 4.64065 14.0094 4.94736C14.0094 4.96737 14.0094 4.98737 14.0138 5.00737L15.0829 12.8796C15.0829 12.8951 15.0851 12.9018 15.0896 12.9151C15.1251 13.0974 15.1451 13.8819 14.8251 14.102L14.8095 14.1109C14.8095 14.1109 14.794 14.1197 14.7873 14.1242C14.685 14.1931 14.5673 14.2264 14.4272 14.2198C14.3606 14.2198 14.2939 14.2153 14.245 14.2086L14.165 14.1953C14.0116 14.1509 13.1782 13.8464 12.4247 13.5663C11.9513 13.4063 11.6335 12.964 11.6313 12.4662C11.6313 12.2217 11.4313 12.0217 11.1868 12.0217C10.9423 12.0217 10.7423 12.2217 10.7423 12.4662C10.7423 13.3441 11.3046 14.1242 12.1269 14.402C12.507 14.5442 13.7649 15.011 13.9605 15.0599C13.9694 15.0621 13.9805 15.0643 13.9894 15.0665L14.1094 15.0865C14.2139 15.0999 14.3206 15.1088 14.4095 15.1088C14.7139 15.1199 15.0118 15.0376 15.2696 14.871L15.2851 14.8621C15.2851 14.8621 15.2985 14.8554 15.3029 14.851C16.1075 14.3242 16.0208 13.0507 15.9608 12.744L15.9741 12.7462ZM9.67102 9.95472C9.97995 10.2548 10.1378 10.5059 10.1378 10.7059C10.1378 11.3905 8.97537 12.3351 8.03969 13.0929L8.16415 13.2463C8.14192 13.2285 8.12192 13.2129 8.09969 13.1952L8.01968 13.1085C8.01968 13.1085 8.01079 13.1174 8.00413 13.1196C7.99968 13.1152 7.99524 13.1107 7.98857 13.1085L7.933 13.1774C7.91522 13.1929 7.89744 13.2063 7.87966 13.2218L7.97301 13.0952C7.03733 12.3373 5.87494 11.3927 5.87494 10.7082C5.87494 10.5104 6.03274 10.257 6.34167 9.95917L8.00635 8.8479L9.6688 9.95917L9.67102 9.95472Z" fill="black"/>
</svg>
