<svg width="16" height="16" viewBox="0 0 16 16" fill="none" xmlns="http://www.w3.org/2000/svg">
<path d="M15.2467 15.2977C14.0778 13.6533 12.3934 12.4755 10.5001 11.9199C11.6956 11.3955 12.7112 10.5022 13.3867 9.33328H14.2201C14.3512 9.33328 14.4756 9.2755 14.5601 9.17551C14.6445 9.07551 14.6801 8.94439 14.6601 8.81551L14.2223 6.18441C14.2023 2.7711 11.4179 1.21593e-05 8.0001 1.21593e-05C4.58235 1.21593e-05 1.77792 2.7911 1.77792 6.22219C1.77792 8.7644 3.31125 10.9533 5.50012 11.9177C3.6068 12.4755 1.92237 13.651 0.751264 15.2977C0.609042 15.4977 0.655709 15.7755 0.855707 15.9177C1.05571 16.0599 1.33348 16.0132 1.4757 15.8132C2.97569 13.7044 5.41568 12.4444 8.0001 12.4444C10.5845 12.4444 13.0245 13.7044 14.5245 15.8132C14.6112 15.9355 14.7489 15.9999 14.8867 15.9999C14.9756 15.9999 15.0667 15.9732 15.1445 15.9177C15.3445 15.7755 15.3912 15.4977 15.2489 15.2977H15.2467ZM2.66458 6.22219C2.66458 3.28221 5.0579 0.888895 7.99788 0.888895C10.9379 0.888895 13.3312 3.28221 13.3312 6.22219C13.3312 6.24664 13.3312 6.27108 13.3378 6.29552L13.6956 8.4444H13.1223C12.9556 8.4444 12.8045 8.53551 12.729 8.6844C11.8045 10.4555 9.99342 11.5555 7.99788 11.5555C5.0579 11.5555 2.66458 9.16217 2.66458 6.22219Z" fill="black"/>
<path d="M9.24449 7.11999C9.2156 7.12443 9.18893 7.13332 9.16227 7.14443C9.13338 7.15554 9.10893 7.1711 9.08449 7.18665C9.06004 7.20221 9.03782 7.22221 9.01782 7.24221C8.93338 7.32443 8.88671 7.43776 8.88671 7.55554C8.88671 7.67332 8.93338 7.78665 9.01782 7.86887C9.03782 7.89109 9.06004 7.90887 9.08449 7.92665C9.10893 7.9422 9.1356 7.95554 9.16227 7.96665C9.18671 7.97776 9.2156 7.98665 9.24449 7.99109C9.27338 7.99776 9.30226 7.99998 9.33115 7.99998C9.36004 7.99998 9.39115 7.99776 9.41782 7.99109C9.44671 7.98665 9.4756 7.97776 9.50226 7.96665C9.52893 7.95554 9.55337 7.9422 9.57782 7.92665C9.60226 7.90887 9.62448 7.89109 9.64448 7.86887C9.66671 7.84887 9.68448 7.82665 9.70226 7.80221C9.71782 7.77776 9.73115 7.75332 9.74226 7.72665C9.75337 7.69998 9.76226 7.6711 9.76671 7.64221C9.77337 7.61554 9.77559 7.58443 9.77559 7.55554C9.77559 7.43776 9.72893 7.32443 9.64448 7.24221C9.54226 7.13777 9.38893 7.0911 9.24449 7.11999Z" fill="black"/>
<path d="M9.01782 9.01994C8.9956 9.03994 8.97782 9.06216 8.96227 9.08661C8.94671 9.11105 8.93116 9.13772 8.92004 9.16439C8.90893 9.19105 8.90004 9.21772 8.8956 9.24661C8.88893 9.2755 8.88671 9.30439 8.88671 9.33327C8.88671 9.36216 8.88671 9.39327 8.8956 9.41994C8.90004 9.44883 8.90893 9.47772 8.92004 9.50438C8.93116 9.53105 8.94449 9.55549 8.96227 9.57994C8.97782 9.60438 8.9956 9.6266 9.01782 9.6466C9.10004 9.73105 9.21115 9.77772 9.33115 9.77772C9.45115 9.77772 9.56226 9.73105 9.64671 9.6466C9.66671 9.6266 9.68448 9.60438 9.70226 9.57994C9.71782 9.55549 9.73115 9.53105 9.74226 9.50438C9.75337 9.47772 9.76226 9.44883 9.76671 9.41994C9.77337 9.39327 9.77559 9.36216 9.77559 9.33327C9.77559 9.21772 9.72893 9.10216 9.64671 9.01994C9.48004 8.85328 9.18226 8.85328 9.01782 9.01994Z" fill="black"/>
<path d="M11.2822 8.27552C11.2711 8.24663 11.2555 8.22218 11.24 8.19774C11.2244 8.17329 11.2066 8.15107 11.1844 8.13107C11.0177 7.96441 10.7222 7.96441 10.5555 8.13107C10.5355 8.15107 10.5177 8.17329 10.5022 8.19774C10.4844 8.22218 10.4711 8.24663 10.46 8.27552C10.4488 8.30218 10.44 8.32885 10.4355 8.35774C10.4288 8.38663 10.4266 8.41552 10.4266 8.4444C10.4266 8.47329 10.4288 8.5044 10.4355 8.53329C10.44 8.55996 10.4488 8.58885 10.46 8.61551C10.4711 8.64218 10.4844 8.66663 10.5 8.69107C10.5177 8.71551 10.5355 8.73774 10.5555 8.75774C10.64 8.84218 10.7533 8.88885 10.8711 8.88885C10.9 8.88885 10.9288 8.88662 10.9577 8.87996C10.9866 8.87551 11.0133 8.86662 11.04 8.85551C11.0666 8.8444 11.0933 8.83107 11.1177 8.81329C11.1422 8.79774 11.1644 8.77996 11.1844 8.75774C11.2066 8.73774 11.2244 8.71551 11.24 8.69107C11.2577 8.66663 11.2711 8.64218 11.2822 8.61551C11.2933 8.58885 11.3022 8.55996 11.3066 8.53329C11.3133 8.5044 11.3155 8.47329 11.3155 8.4444C11.3155 8.41552 11.3155 8.38663 11.3066 8.35774C11.3 8.32885 11.2933 8.30218 11.2822 8.27552Z" fill="black"/>
<path d="M8.20222 6.49778C8.19111 6.46889 8.17778 6.44445 8.16222 6.42C8.14445 6.39556 8.12667 6.37333 8.10667 6.35334C7.94 6.18667 7.64445 6.18667 7.47778 6.35334C7.39334 6.43556 7.34667 6.55111 7.34667 6.66667C7.34667 6.69555 7.34667 6.72667 7.35556 6.75555C7.36223 6.78222 7.3689 6.81111 7.38001 6.83778C7.39112 6.86444 7.40445 6.88889 7.42223 6.91333C7.43778 6.93778 7.45556 6.96 7.47778 6.98C7.56223 7.06444 7.67334 7.11111 7.79111 7.11111C7.90889 7.11111 8.02222 7.06444 8.10667 6.98C8.18889 6.89778 8.23556 6.78667 8.23556 6.66667C8.23556 6.63778 8.23556 6.60889 8.22667 6.58C8.22222 6.55111 8.21333 6.52445 8.20222 6.49778Z" fill="black"/>
<path d="M8.20222 8.27552C8.19111 8.24663 8.17778 8.22218 8.16 8.19774C8.14445 8.17329 8.12667 8.15107 8.10667 8.13107C7.94 7.96441 7.64445 7.96441 7.47778 8.13107C7.45556 8.15107 7.43778 8.17329 7.42223 8.19774C7.40667 8.22218 7.39112 8.24663 7.38223 8.27552C7.3689 8.30218 7.36223 8.32885 7.35556 8.35774C7.3489 8.38663 7.34667 8.41552 7.34667 8.4444C7.34667 8.47329 7.34667 8.5044 7.35556 8.53329C7.36223 8.55996 7.3689 8.58885 7.38001 8.61551C7.39112 8.64218 7.40445 8.66663 7.42223 8.69107C7.43778 8.71551 7.45556 8.73774 7.47778 8.75774C7.56223 8.84218 7.67334 8.88885 7.79111 8.88885C7.82 8.88885 7.85111 8.88662 7.87778 8.87996C7.90667 8.87551 7.93556 8.86662 7.96222 8.85551C7.98889 8.8444 8.01334 8.83107 8.03778 8.81329C8.06222 8.79774 8.08445 8.77996 8.10667 8.75774C8.12667 8.73774 8.14445 8.71551 8.16222 8.69107C8.17778 8.66663 8.19111 8.64218 8.20222 8.61551C8.21333 8.58885 8.22222 8.55996 8.22667 8.53329C8.23333 8.5044 8.23556 8.47329 8.23556 8.4444C8.23556 8.41552 8.23556 8.38663 8.22667 8.35774C8.22222 8.32885 8.21333 8.30218 8.20222 8.27552Z" fill="black"/>
</svg>
