<svg width="16" height="16" viewBox="0 0 16 16" fill="none" xmlns="http://www.w3.org/2000/svg">
<path d="M11.4111 0H4.58886C3.77331 0 3.11108 0.662222 3.11108 1.47778V14.5222C3.11108 15.3378 3.77331 16 4.58886 16H11.4111C12.2266 16 12.8889 15.3378 12.8889 14.5222V1.47778C12.8889 0.662222 12.2266 0 11.4111 0ZM12 14.5222C12 14.8467 11.7355 15.1111 11.4111 15.1111H4.58886C4.26442 15.1111 3.99997 14.8467 3.99997 14.5222V1.47778C3.99997 1.15333 4.26442 0.888889 4.58886 0.888889H11.4111C11.7355 0.888889 12 1.15333 12 1.47778V14.5222Z" fill="black"/>
<path d="M9.3331 1.77783H6.66643C6.42198 1.77783 6.22198 1.97783 6.22198 2.22228C6.22198 2.46672 6.42198 2.66672 6.66643 2.66672H9.3331C9.57754 2.66672 9.77754 2.46672 9.77754 2.22228C9.77754 1.97783 9.57754 1.77783 9.3331 1.77783Z" fill="black"/>
<path d="M7.91332 13.3422C7.88443 13.3466 7.85776 13.3555 7.82888 13.3666C7.80221 13.3777 7.77776 13.3911 7.75332 13.4088C7.72888 13.4244 7.70665 13.4422 7.68665 13.4622C7.60221 13.5466 7.55554 13.6599 7.55554 13.7777C7.55554 13.8955 7.60221 14.0088 7.68665 14.0911C7.70665 14.1133 7.72888 14.1311 7.75332 14.1466C7.77776 14.1644 7.80221 14.1777 7.82888 14.1888C7.85776 14.1999 7.88443 14.2088 7.91332 14.2133C7.94221 14.2199 7.9711 14.2222 7.99999 14.2222C8.11776 14.2222 8.2311 14.1755 8.31332 14.0911C8.39776 14.0088 8.44443 13.8955 8.44443 13.7777C8.44443 13.6599 8.39776 13.5466 8.31332 13.4622C8.2111 13.3599 8.05776 13.3133 7.91332 13.3422Z" fill="black"/>
</svg>
