<svg width="16" height="16" viewBox="0 0 16 16" fill="none" xmlns="http://www.w3.org/2000/svg">
<path d="M14.9893 4.21944C14.9893 4.20297 14.9869 4.1865 14.9846 4.17002C14.9846 4.1559 14.9798 4.14178 14.9775 4.12766C14.9775 4.12296 14.9775 4.11825 14.9751 4.11354C14.9751 4.11354 14.9751 4.11354 14.9751 4.11119C14.9728 4.10178 14.9681 4.09472 14.9657 4.0853C14.961 4.07118 14.9563 4.05706 14.9493 4.04294C14.9445 4.03353 14.9398 4.02412 14.9351 4.01471C14.9304 4.00765 14.9281 4.00059 14.9234 3.99353C14.9187 3.98411 14.9116 3.9747 14.9069 3.96764C14.8975 3.95587 14.8881 3.94411 14.8763 3.93234C14.8716 3.92528 14.8669 3.91822 14.8598 3.91116C14.8598 3.91116 14.8598 3.90881 14.8575 3.90645C14.8551 3.9041 14.8504 3.90175 14.8481 3.89704C14.8363 3.88763 14.8245 3.87821 14.8128 3.8688C14.801 3.85939 14.7869 3.84997 14.7728 3.84056C14.768 3.83821 14.7633 3.8335 14.7586 3.83115L8.23297 0.0635387C8.08707 -0.0211796 7.90822 -0.0211796 7.76232 0.0635387L1.24136 3.8288C1.24136 3.8288 1.23195 3.83586 1.22724 3.83821C1.21312 3.84762 1.20136 3.85703 1.18724 3.86645C1.17547 3.87586 1.1637 3.88527 1.15194 3.89469C1.14959 3.89704 1.14488 3.89939 1.14253 3.9041C1.14253 3.9041 1.14253 3.90645 1.14017 3.90881C1.13311 3.91587 1.12841 3.92293 1.1237 3.92999C1.11429 3.94175 1.10252 3.95352 1.09311 3.96529C1.08605 3.9747 1.08134 3.98411 1.07663 3.99117C1.07193 3.99823 1.06722 4.00529 1.06487 4.01235C1.06016 4.02176 1.05545 4.03118 1.05075 4.04059C1.04369 4.05471 1.03898 4.06883 1.03427 4.08295C1.03192 4.09236 1.02721 4.09942 1.02486 4.10884C1.02486 4.10884 1.02486 4.10884 1.02486 4.11119C1.02486 4.1159 1.02486 4.1206 1.02251 4.12531C1.02015 4.13943 1.0178 4.15355 1.01545 4.16767C1.01309 4.18414 1.01074 4.20061 1.01074 4.21709C1.01074 4.22179 1.01074 4.2265 1.01074 4.23356V11.7641C1.01074 11.9312 1.10017 12.0888 1.24607 12.1712L7.76702 15.9364C7.79056 15.9506 7.81644 15.9576 7.83998 15.967C7.8541 15.9717 7.86586 15.9788 7.87998 15.9835C7.91999 15.9929 7.95999 16 8 16C8.04 16 8.08001 15.9953 8.12002 15.9835C8.13414 15.9788 8.1459 15.9717 8.16002 15.967C8.18591 15.9576 8.20944 15.9506 8.23297 15.9364L14.7539 12.1712C14.8998 12.0865 14.9893 11.9312 14.9893 11.7641V4.23591C14.9893 4.23591 14.9893 4.2265 14.9893 4.21944ZM7.99765 1.01427L12.763 3.76526H3.23224L7.99765 1.01427ZM13.7044 4.70657L7.99765 14.5904L2.29093 4.70657H13.7044ZM1.94735 5.99146L6.71275 14.2444L1.94735 11.4934V5.99146ZM9.28489 14.2444L14.0503 5.99146V11.4934L9.28489 14.2444Z" fill="black"/>
</svg>
