<svg width="16" height="16" viewBox="0 0 16 16" fill="none" xmlns="http://www.w3.org/2000/svg">
<path d="M11.1162 3.55506H9.33203V0.444383C9.33203 0.199972 9.13206 0 8.88765 0H7.11012C6.86571 0 6.66573 0.199972 6.66573 0.444383V3.55506H4.88154C4.15053 3.55506 3.55505 4.15053 3.55505 4.88154V14.6735C3.55505 15.4045 4.15053 16 4.88154 16H11.1184C11.8495 16 12.4449 15.4045 12.4449 14.6735V4.88154C12.4449 4.15053 11.8495 3.55506 11.1184 3.55506H11.1162ZM8.44326 0.888765V1.77753H7.5545V0.888765H8.44326ZM7.5545 2.6663H8.44326V3.55506H7.5545V2.6663ZM11.5539 14.6713C11.5539 14.9113 11.3584 15.109 11.1162 15.109H4.87931C4.63935 15.109 4.4416 14.9135 4.4416 14.6713V4.88154C4.4416 4.64158 4.63713 4.44383 4.87931 4.44383H11.1162C11.3562 4.44383 11.5539 4.63936 11.5539 4.88154V14.6735V14.6713Z" fill="black"/>
<path d="M10.2209 5.33258H5.77702C5.53261 5.33258 5.33264 5.53255 5.33264 5.77696V8.44326C5.33264 8.68767 5.53261 8.88764 5.77702 8.88764H10.2209C10.4653 8.88764 10.6652 8.68767 10.6652 8.44326V5.77696C10.6652 5.53255 10.4653 5.33258 10.2209 5.33258ZM9.77647 7.99888H6.22141V6.22135H9.77647V7.99888Z" fill="black"/>
</svg>
