<svg width="16" height="16" viewBox="0 0 16 16" fill="none" xmlns="http://www.w3.org/2000/svg">
<path d="M13.2996 6.49687C13.2308 6.33023 13.0686 6.22358 12.8886 6.22358H9.33352V5.33481H11.5554C11.6732 5.33481 11.7865 5.28815 11.8687 5.20372L13.2019 3.87057C13.3752 3.69726 13.3752 3.41508 13.2019 3.24177L11.8687 1.90862C11.7843 1.82419 11.6732 1.77753 11.5554 1.77753H9.33352V0.444383C9.33352 0.199972 9.13354 0 8.88913 0H7.1116C6.86719 0 6.66722 0.199972 6.66722 0.444383V1.77753H3.11216C2.93441 1.77753 2.77443 1.88196 2.70333 2.04638C2.63223 2.2108 2.66555 2.39744 2.78776 2.52632L3.81651 3.6195L2.80776 4.56381C2.67444 4.68824 2.63223 4.88154 2.69888 5.05263C2.76554 5.2215 2.92996 5.33259 3.11216 5.33259H6.66722V6.22136H4.44531C4.32755 6.22136 4.21423 6.26802 4.13202 6.35245L2.79887 7.6856C2.62556 7.85891 2.62556 8.14109 2.79887 8.3144L4.13202 9.64755C4.21645 9.73198 4.32755 9.77864 4.44531 9.77864H6.66722V15.5556C6.66722 15.8 6.86719 16 7.1116 16H8.88913C9.13354 16 9.33352 15.8 9.33352 15.5556V9.77864H12.8886C13.0686 9.77864 13.2308 9.66977 13.2996 9.50535C13.3685 9.3387 13.3307 9.14762 13.2041 9.02097L12.1842 8.00111L13.2041 6.98125C13.3307 6.8546 13.3685 6.66352 13.2996 6.49687ZM7.55599 0.890987H8.44475V1.77975H7.55599V0.890987ZM4.76971 3.33731L4.1409 2.66852H11.3732L12.262 3.55728L11.3732 4.44605H4.23645L4.74749 3.96612C4.83414 3.88613 4.88525 3.77281 4.88747 3.65505C4.89191 3.53729 4.84747 3.42175 4.76748 3.33731H4.76971ZM7.55599 5.33481H8.44475V6.22358H7.55599V5.33481ZM8.44475 15.1112H7.55599V9.77864H8.44475V15.1112ZM11.2421 8.3144L11.8176 8.88988H4.62973L3.74096 8.00111L4.62973 7.11234H11.8154L11.2399 7.68782C11.0666 7.86113 11.0666 8.14331 11.2399 8.31662L11.2421 8.3144Z" fill="black"/>
</svg>
