<svg width="16" height="16" viewBox="0 0 16 16" fill="none" xmlns="http://www.w3.org/2000/svg">
<path d="M7.9976 16C7.82113 16 7.65878 15.9012 7.57878 15.7435L3.5576 7.82588C3.41878 7.59529 3.30584 7.37412 3.21407 7.14824C3.21172 7.14118 3.20937 7.13647 3.20702 7.13176C3.20466 7.12471 3.20231 7.11765 3.19996 7.11059C2.95055 6.49412 2.82349 5.84235 2.82349 5.17647C2.82349 2.32235 5.14584 0 7.99996 0C10.8541 0 13.1764 2.32235 13.1764 5.17647C13.1764 5.84 13.0494 6.49177 12.8 7.11059C12.8 7.11765 12.7953 7.12471 12.7929 7.13176C12.7905 7.13882 12.7882 7.14588 12.7835 7.15059C12.6917 7.37412 12.5788 7.59529 12.44 7.82588L8.41878 15.7435C8.33878 15.9012 8.17643 16 7.99996 16H7.9976ZM4.08231 6.79059C4.1576 6.97647 4.25172 7.16 4.36937 7.35529C4.37407 7.36471 4.38113 7.37412 4.38584 7.38353L7.99525 14.4894L11.6047 7.38353C11.6047 7.38353 11.6141 7.36471 11.6211 7.35529C11.7388 7.16 11.8329 6.97647 11.9082 6.79059L11.9129 6.77647C12.1223 6.26118 12.2282 5.72471 12.2282 5.17647C12.2282 2.84235 10.327 0.941176 7.9929 0.941176C5.65878 0.941176 3.7576 2.84235 3.7576 5.17647C3.7576 5.72471 3.86349 6.26353 4.0729 6.77412L4.07996 6.79059H4.08231Z" fill="black"/>
<path d="M8.46828 3.29413H7.5271V7.05883H8.46828V3.29413Z" fill="black"/>
<path d="M9.87982 4.70587H6.11511V5.64705H9.87982V4.70587Z" fill="black"/>
</svg>
