<svg width="16" height="16" viewBox="0 0 16 16" fill="none" xmlns="http://www.w3.org/2000/svg">
<path d="M10.0644 8.75111C11.2199 8.04889 11.9977 6.78222 11.9977 5.33333C11.9977 3.79333 11.1355 2.42 9.77326 1.74889C9.75771 0.782222 8.9666 0 7.99771 0C7.02882 0 6.23771 0.782222 6.22215 1.74889C4.86215 2.42 3.99771 3.79333 3.99771 5.33333C3.99771 6.78222 4.77549 8.04889 5.93104 8.75111C3.01549 9.63778 0.886597 12.3533 0.886597 15.5556C0.886597 15.8 1.0866 16 1.33104 16C1.57549 16 1.77549 15.8 1.77549 15.5556C1.77549 13.0044 3.31771 10.8089 5.51993 9.84889L7.59326 14.4911C7.66437 14.6511 7.82437 14.7533 7.99993 14.7533C8.17548 14.7533 8.33326 14.6511 8.4066 14.4911L10.4799 9.84889C12.6799 10.8089 14.2244 13.0044 14.2244 15.5556C14.2244 15.8 14.4244 16 14.6688 16C14.9133 16 15.1133 15.8 15.1133 15.5556C15.1133 12.3533 12.9844 9.64 10.0688 8.75111H10.0644ZM7.99771 0.888889C8.48882 0.888889 8.8866 1.28667 8.8866 1.77778C8.8866 2.26889 8.48882 2.66667 7.99771 2.66667C7.5066 2.66667 7.10882 2.26889 7.10882 1.77778C7.10882 1.28667 7.5066 0.888889 7.99771 0.888889ZM4.8866 5.33333C4.8866 4.20222 5.48437 3.18667 6.44215 2.63778C6.7466 3.18444 7.32882 3.55556 7.99771 3.55556C8.6666 3.55556 9.24882 3.18444 9.55326 2.63778C10.511 3.18667 11.1088 4.20222 11.1088 5.33333C11.1088 7.04889 9.71326 8.44444 7.99771 8.44444C6.28215 8.44444 4.8866 7.04889 4.8866 5.33333ZM7.99771 13.2222L6.35993 9.55333C6.88215 9.41111 7.43104 9.33333 7.99771 9.33333C8.56437 9.33333 9.11326 9.41111 9.63548 9.55333L7.99771 13.2222Z" fill="black"/>
</svg>
