<svg width="16" height="16" viewBox="0 0 16 16" fill="none" xmlns="http://www.w3.org/2000/svg">
<path d="M10.4601 6.04632C10.5201 6.28411 10.7645 6.42856 11.0001 6.36633C11.2379 6.30633 11.3823 6.0641 11.3201 5.82631C10.9045 4.20181 9.9845 3.34401 8.44444 3.15289V1.51727L9.46448 2.53731C9.55115 2.62398 9.66449 2.66843 9.77782 2.66843C9.89116 2.66843 10.0045 2.62398 10.0912 2.53731C10.2645 2.36397 10.2645 2.08174 10.0912 1.9084L8.31333 0.13056C8.29333 0.110559 8.26888 0.0905587 8.24444 0.0750026C8.23333 0.0683357 8.21999 0.0616688 8.20888 0.0550019C8.19555 0.048335 8.18221 0.0394458 8.16666 0.0327789C8.1511 0.026112 8.13554 0.0238898 8.11999 0.0194452C8.10665 0.0150006 8.09554 0.0105559 8.08221 0.00833362C8.02443 -0.00277787 7.96443 -0.00277787 7.90887 0.00833362C7.89554 0.0105559 7.88442 0.0150006 7.87109 0.0194452C7.85553 0.0238898 7.83998 0.0283343 7.82664 0.0327789C7.81109 0.0394458 7.79776 0.0461127 7.78442 0.0550019C7.77331 0.0616688 7.75998 0.0661134 7.74886 0.0750026C7.72442 0.0905587 7.7022 0.110559 7.67997 0.13056L5.90213 1.9084C5.72879 2.08174 5.72879 2.36397 5.90213 2.53731C6.07547 2.71065 6.35771 2.71065 6.53104 2.53731L7.55108 1.51727V3.12622C6.9355 3.17289 6.36437 3.36845 5.91769 3.69735C5.29322 4.15514 4.93099 4.8485 4.89543 5.65075C4.83321 7.0708 5.44212 7.79527 7.5533 8.7353V12.8421C6.46215 12.671 5.8488 12.0532 5.5399 10.8443C5.4799 10.6065 5.23767 10.462 4.99988 10.5243C4.76209 10.5843 4.61764 10.8265 4.67987 11.0643C5.09544 12.6888 6.01547 13.5466 7.55552 13.7377V15.5555C7.55552 15.8 7.75553 16 7.99998 16C8.24444 16 8.44444 15.8 8.44444 15.5555V13.7688C9.96894 13.6599 11.0379 12.6688 11.1023 11.2398C11.1645 9.81312 10.5423 9.08865 8.44444 8.15528V4.04847C9.53559 4.21959 10.1489 4.83739 10.4578 6.04632H10.4601ZM5.7888 5.68853C5.81324 5.15296 6.03992 4.71294 6.44882 4.41293C6.74883 4.19292 7.13329 4.05736 7.55775 4.01514V7.75527C5.92658 6.97969 5.75324 6.49523 5.7888 5.68853ZM10.2156 11.1998C10.1689 12.2643 9.34892 12.7843 8.44667 12.8754V9.13309C10.0845 9.9109 10.2512 10.382 10.2156 11.1998Z" fill="black"/>
</svg>
