<svg width="16" height="16" viewBox="0 0 16 16" fill="none" xmlns="http://www.w3.org/2000/svg">
<path d="M10.9026 5.14294C10.9626 5.38075 11.2026 5.52743 11.4405 5.46743C11.6783 5.40742 11.8227 5.16738 11.7649 4.92957C11.2893 3.02264 10.227 2.02695 8.44448 1.81803V0.444506C8.44448 0.200028 8.24446 0 7.99998 0C7.7555 0 7.55547 0.200028 7.55547 0.444506V1.78914C6.71758 1.84026 5.97081 2.13363 5.41517 2.64037C4.84398 3.16266 4.52394 3.87609 4.48838 4.70065C4.41726 6.3431 5.11958 7.18322 7.55547 8.28559V13.2863C6.21751 13.0974 5.47074 12.3506 5.09735 10.8571C5.03734 10.6193 4.79731 10.4726 4.5595 10.5326C4.32169 10.5926 4.17722 10.8326 4.23501 11.0704C4.71063 12.9774 5.773 13.9731 7.55547 14.182V15.5555C7.55547 15.8 7.7555 16 7.99998 16C8.24446 16 8.44448 15.8 8.44448 15.5555V14.2109C9.28238 14.1597 10.0291 13.8664 10.5848 13.3574C11.156 12.8351 11.476 12.1217 11.5116 11.2971C11.5827 9.64579 10.8648 8.80789 8.44893 7.71218H8.44671V2.71149C9.78467 2.9004 10.5314 3.64717 10.9048 5.14071L10.9026 5.14294ZM5.37739 4.73844C5.40184 4.14502 5.61742 3.66051 6.01748 3.29379C6.40198 2.94263 6.94872 2.72705 7.55769 2.67815V7.30546C5.54408 6.34088 5.33739 5.74524 5.37961 4.73844H5.37739ZM10.6226 11.2616C10.5981 11.855 10.3825 12.3395 9.98247 12.7062C9.59798 13.0596 9.05123 13.2752 8.44448 13.3219V8.69454C10.4625 9.65912 10.667 10.2392 10.6226 11.2616Z" fill="black"/>
</svg>
