<svg width="16" height="16" viewBox="0 0 16 16" fill="none" xmlns="http://www.w3.org/2000/svg">
<path d="M15.5556 4H0.444444C0.2 4 0 4.2 0 4.44444V11.5556C0 11.8 0.2 12 0.444444 12H15.5556C15.8 12 16 11.8 16 11.5556V4.44444C16 4.2 15.8 4 15.5556 4ZM12.48 11.1111H3.52C3.32444 9.75111 2.24889 8.67556 0.888889 8.48V7.52C2.24889 7.32444 3.32444 6.24889 3.52 4.88889H12.48C12.6756 6.24889 13.7511 7.32444 15.1111 7.52V8.48C13.7511 8.67556 12.6756 9.75111 12.48 11.1111ZM15.1111 6.62222C14.2422 6.44444 13.5556 5.75778 13.3778 4.88889H15.1111V6.62222ZM2.62222 4.88889C2.44444 5.75778 1.75778 6.44444 0.888889 6.62222V4.88889H2.62222ZM0.888889 9.37778C1.75778 9.55556 2.44444 10.2422 2.62222 11.1111H0.888889V9.37778ZM13.3778 11.1111C13.5556 10.2422 14.2422 9.55556 15.1111 9.37778V11.1111H13.3778Z" fill="black"/>
<path d="M7.99993 5.77777C6.77549 5.77777 5.77771 6.77555 5.77771 7.99999C5.77771 9.22444 6.77549 10.2222 7.99993 10.2222C9.22438 10.2222 10.2222 9.22444 10.2222 7.99999C10.2222 6.77555 9.22438 5.77777 7.99993 5.77777ZM7.99993 9.33333C7.26438 9.33333 6.6666 8.73555 6.6666 7.99999C6.6666 7.26444 7.26438 6.66666 7.99993 6.66666C8.73549 6.66666 9.33327 7.26444 9.33327 7.99999C9.33327 8.73555 8.73549 9.33333 7.99993 9.33333Z" fill="black"/>
</svg>
