<svg width="16" height="16" viewBox="0 0 16 16" fill="none" xmlns="http://www.w3.org/2000/svg">
<path d="M10.5283 4.84641C10.59 5.09101 10.8392 5.23961 11.0838 5.1756C11.3284 5.11387 11.477 4.8647 11.413 4.62009C10.9855 2.94899 10.0391 2.06658 8.45488 1.86998V0.457208C8.45488 0.205744 8.24914 0 7.99767 0C7.74621 0 7.54047 0.205744 7.54047 0.457208V1.84255C6.90723 1.89056 6.31972 2.09173 5.86022 2.43006C5.21785 2.90099 4.84522 3.61423 4.80865 4.43949C4.74464 5.90027 5.37101 6.64552 7.54275 7.61252V11.8371C6.4203 11.6611 5.78936 11.0256 5.4716 9.78197C5.40987 9.53736 5.1607 9.38877 4.91609 9.45278C4.67148 9.5145 4.52289 9.76368 4.5869 10.0083C5.01439 11.6794 5.96081 12.5618 7.54504 12.7584V14.4409L6.49574 13.3916C6.31743 13.2133 6.02711 13.2133 5.84879 13.3916C5.67048 13.5699 5.67048 13.8603 5.84879 14.0386L7.67763 15.8674C7.6982 15.888 7.72335 15.9086 7.7485 15.9246C7.75993 15.9314 7.77135 15.9383 7.78279 15.9428C7.7965 15.9497 7.81022 15.9589 7.82622 15.9657C7.84222 15.9726 7.85594 15.9749 7.87194 15.9794C7.88566 15.984 7.89709 15.9886 7.9108 15.9909C7.94052 15.9977 7.97024 16 7.99996 16C8.02968 16 8.0594 15.9977 8.08911 15.9909C8.10283 15.9886 8.11426 15.984 8.12798 15.9794C8.14398 15.9749 8.15998 15.9703 8.1737 15.9657C8.1897 15.9589 8.20342 15.9497 8.21713 15.9428C8.22856 15.936 8.24228 15.9314 8.25142 15.9246C8.27657 15.9086 8.29943 15.888 8.32229 15.8674L10.1511 14.0386C10.3294 13.8603 10.3294 13.5699 10.1511 13.3916C9.97281 13.2133 9.68249 13.2133 9.50417 13.3916L8.45488 14.4409V12.7881C10.0231 12.6761 11.1227 11.6565 11.189 10.1866C11.253 8.71896 10.6129 7.97371 8.45488 7.01357V2.78897C9.57733 2.965 10.2083 3.60051 10.526 4.84412L10.5283 4.84641ZM5.72306 4.47835C5.74821 3.92742 5.98138 3.47478 6.40202 3.16617C6.71063 2.93985 7.10612 2.8004 7.54275 2.75697V6.60437C5.8648 5.80654 5.68649 5.30819 5.72306 4.47835ZM10.2769 10.1477C10.2288 11.2405 9.3853 11.7777 8.45717 11.8691V8.01943C10.142 8.81955 10.3134 9.30419 10.2769 10.1454V10.1477Z" fill="black"/>
</svg>
