<svg width="16" height="16" viewBox="0 0 16 16" fill="none" xmlns="http://www.w3.org/2000/svg">
<path d="M15.5555 11.5557C15.3111 11.5557 15.1111 11.7557 15.1111 12.0001V15.1112H0.888887V12.0001C0.888887 11.7557 0.688888 11.5557 0.444444 11.5557C0.2 11.5557 0 11.7557 0 12.0001V15.5557C0 15.8001 0.2 16.0001 0.444444 16.0001H15.5555C15.8 16.0001 16 15.8001 16 15.5557V12.0001C16 11.7557 15.8 11.5557 15.5555 11.5557Z" fill="black"/>
<path d="M7.68435 12.7578C7.70435 12.7778 7.72658 12.7978 7.75102 12.8133C7.75769 12.8178 7.76435 12.82 7.7688 12.8244C7.78658 12.8355 7.80658 12.8466 7.82658 12.8555C7.83546 12.86 7.84435 12.86 7.85324 12.8644C7.87102 12.8711 7.89102 12.8778 7.9088 12.8822C7.93769 12.8889 7.96658 12.8911 7.99769 12.8911C8.02658 12.8911 8.05769 12.8889 8.08435 12.8822C8.10435 12.8778 8.12213 12.8711 8.14213 12.8644C8.15102 12.8622 8.15991 12.86 8.16657 12.8555C8.18657 12.8466 8.20435 12.8378 8.22213 12.8266C8.2288 12.8222 8.23769 12.82 8.24435 12.8155C8.2688 12.8 8.29102 12.78 8.31102 12.76L11.8443 9.20443C12.0177 9.0311 12.0155 8.74887 11.8443 8.57554C11.671 8.40221 11.3888 8.40443 11.2155 8.57554L8.44213 11.3666V0.444444C8.44213 0.2 8.24213 0 7.99769 0C7.75324 0 7.55324 0.2 7.55324 0.444444V11.3711L4.75547 8.57332C4.58214 8.39999 4.29991 8.39999 4.12658 8.57332C3.95325 8.74665 3.95325 9.02887 4.12658 9.20221L7.68213 12.7578H7.68435Z" fill="black"/>
</svg>
