<svg width="16" height="16" viewBox="0 0 16 16" fill="none" xmlns="http://www.w3.org/2000/svg">
<path d="M15.122 9.058C15.122 9.058 15.124 9.044 15.124 9.036C15.174 8.698 15.2 8.352 15.2 8C15.2 6.468 14.718 5.046 13.898 3.878C13.882 3.848 13.862 3.818 13.836 3.792C13.674 3.568 13.502 3.354 13.316 3.152C13.298 3.128 13.276 3.106 13.252 3.086C12.78 2.582 12.236 2.144 11.636 1.792C11.608 1.772 11.578 1.754 11.548 1.74C10.5 1.144 9.28999 0.802002 7.99999 0.802002C6.70999 0.802002 5.49799 1.146 4.44799 1.742C4.41799 1.754 4.38999 1.77 4.36399 1.79C2.82199 2.696 1.64399 4.16 1.11199 5.904C1.11199 5.91 1.10799 5.916 1.10799 5.92C0.907988 6.58 0.799988 7.278 0.799988 8C0.799988 11.97 4.02999 15.2 7.99999 15.2C8.05999 15.2 8.11999 15.196 8.17999 15.196C8.18599 15.196 8.19399 15.196 8.19999 15.196C8.20799 15.196 8.21799 15.196 8.22599 15.194C11.734 15.084 14.618 12.454 15.12 9.058H15.122ZM14.382 8.464L14.098 8.37C14.02 8.344 13.938 8.344 13.86 8.366L13.65 8.428C13.426 8.494 13.182 8.462 12.982 8.344C12.818 8.246 12.692 8.096 12.624 7.918L12.524 7.652C12.488 7.556 12.47 7.456 12.47 7.354V6.242C12.47 6.058 12.532 5.876 12.644 5.73L13.322 4.844L13.478 4.694C14.064 5.66 14.402 6.792 14.402 8.002C14.402 8.158 14.394 8.314 14.384 8.468L14.382 8.464ZM11.124 3.024L11.188 2.89L11.458 2.618C11.776 2.822 12.074 3.054 12.35 3.31L12.048 3.49C12.036 3.498 12.024 3.506 12.012 3.514C11.94 3.568 11.882 3.612 11.852 3.634C11.842 3.642 11.832 3.65 11.82 3.656C11.696 3.736 11.546 3.756 11.408 3.708C11.268 3.66 11.162 3.554 11.112 3.414L11.102 3.386C11.06 3.268 11.068 3.138 11.122 3.026L11.124 3.024ZM4.53799 2.62L4.89799 2.996C4.89799 2.996 4.90999 3.008 4.91599 3.012L5.14999 3.228C5.43399 3.494 5.85999 3.534 6.18799 3.326L6.58599 3.074C6.60199 3.064 6.62199 3.064 6.63799 3.074L7.08599 3.338C7.09799 3.346 7.10599 3.356 7.10999 3.37L7.17399 3.672C7.19799 3.788 7.24599 3.894 7.31399 3.988C7.31799 3.994 7.32999 4.01 7.31999 4.034C7.30999 4.058 7.29399 4.064 7.28599 4.066L6.28199 4.36C6.00199 4.442 5.78599 4.66 5.70399 4.94L5.61599 5.24C5.61399 5.25 5.60599 5.26 5.59599 5.266L5.57999 5.278C5.24999 5.516 5.13399 5.956 5.30599 6.326L5.45999 6.66C5.46599 6.674 5.46599 6.69 5.45999 6.704C5.45199 6.718 5.43999 6.728 5.42399 6.73L5.21199 6.766C5.18999 6.77 5.16999 6.76 5.15999 6.74L4.78799 6.004C4.64999 5.728 4.37199 5.55 4.06399 5.538L3.65999 5.522C3.27799 5.504 2.93799 5.744 2.81799 6.102L2.66999 6.546C2.57599 6.826 2.63799 7.14 2.82799 7.366L3.47799 8.13C3.50799 8.164 3.53799 8.196 3.57399 8.226L4.03399 8.618C4.10799 8.68 4.18999 8.73 4.28199 8.766L4.60599 8.89C4.78799 8.96 4.98999 8.966 5.17599 8.904L5.69399 8.734C5.69399 8.734 5.70999 8.73 5.71799 8.734L6.64799 8.908C6.66199 8.91 6.67399 8.918 6.67999 8.93L6.90399 9.276C7.06199 9.518 7.32799 9.664 7.61799 9.664H8.00199C8.01599 9.664 8.02999 9.67 8.03999 9.682L8.47599 10.204C8.54999 10.292 8.63999 10.364 8.74199 10.418L9.80999 10.964C9.82599 10.972 9.83599 10.99 9.83599 11.008V11.374C9.83599 11.374 9.83599 11.39 9.82999 11.398L9.19999 12.57C9.19399 12.58 9.18399 12.59 9.17199 12.594L8.58399 12.798C8.33399 12.886 8.13599 13.088 8.05399 13.34C8.05199 13.348 8.04799 13.358 8.04599 13.366L7.91199 13.906C7.90799 13.922 7.90599 13.936 7.90399 13.952L7.84799 14.402C7.33999 14.39 6.84399 14.32 6.37199 14.196L6.26799 13.552V12.586C6.26799 12.282 6.10399 12 5.84199 11.848L5.09399 11.418C5.09399 11.418 5.07799 11.406 5.07399 11.396L4.70999 10.638C4.70399 10.626 4.70399 10.612 4.70799 10.6L4.82399 10.252C4.95599 9.86 4.78599 9.432 4.41999 9.234L3.74799 8.872C3.74799 8.872 3.73599 8.864 3.73199 8.858L2.38799 7.128L1.92999 5.992C2.39399 4.596 3.32599 3.41 4.54199 2.626L4.53799 2.62ZM1.59999 7.998C1.59999 7.794 1.60999 7.59 1.62999 7.39L1.66399 7.472C1.67799 7.506 1.69599 7.538 1.71999 7.568L3.09799 9.34C3.16999 9.434 3.26199 9.51 3.36599 9.568L4.03999 9.93C4.06199 9.942 4.07199 9.966 4.06399 9.99L3.94799 10.338C3.87799 10.548 3.89199 10.774 3.98799 10.974L4.35199 11.732C4.42599 11.888 4.54599 12.016 4.69399 12.1L5.44399 12.53C5.45999 12.538 5.46799 12.556 5.46799 12.574V13.572C5.46799 13.594 5.46799 13.614 5.47399 13.636L5.51599 13.892C3.21799 12.92 1.60199 10.642 1.60199 7.994L1.59999 7.998ZM8.65799 14.364L8.69599 14.066L8.81999 13.568C8.82599 13.556 8.83599 13.548 8.84799 13.542L9.43599 13.338C9.63799 13.268 9.80399 13.126 9.90599 12.938L10.536 11.766C10.602 11.642 10.638 11.504 10.638 11.364V10.998C10.638 10.676 10.46 10.386 10.174 10.242L9.10599 9.696C9.10599 9.696 9.09399 9.688 9.08999 9.684L8.65399 9.162C8.49199 8.968 8.25399 8.856 7.99999 8.856H7.61599C7.59799 8.856 7.58199 8.848 7.57399 8.834L7.34999 8.49C7.22399 8.294 7.01999 8.158 6.79199 8.116L5.86199 7.942C5.72199 7.916 5.57599 7.926 5.43999 7.97L4.92199 8.14C4.91199 8.144 4.89999 8.144 4.88799 8.14L4.54999 8.006L4.08599 7.608L3.43399 6.842C3.42199 6.828 3.41999 6.81 3.42399 6.794L3.57199 6.35C3.57999 6.328 3.59799 6.316 3.62199 6.316L4.02599 6.332C4.04399 6.332 4.05999 6.344 4.06799 6.36L4.43999 7.096C4.60799 7.43 4.97199 7.612 5.33999 7.552L5.55199 7.516C5.81599 7.472 6.03799 7.31 6.16199 7.074C6.28599 6.838 6.29399 6.562 6.18199 6.32L6.02799 5.986C6.01799 5.964 6.02399 5.938 6.04399 5.924L6.05999 5.912C6.21399 5.802 6.32799 5.64 6.37999 5.458L6.46599 5.158C6.46999 5.142 6.48399 5.128 6.49999 5.124L7.50399 4.83C7.76799 4.752 7.97799 4.552 8.06799 4.292C8.15799 4.032 8.11599 3.744 7.95599 3.52L7.94799 3.502L7.88399 3.2C7.83399 2.968 7.68799 2.766 7.48399 2.646L7.03799 2.382C6.76199 2.218 6.41999 2.224 6.14999 2.398L5.75399 2.65C5.73399 2.662 5.70999 2.66 5.68999 2.642L5.46199 2.432L5.25399 2.216C6.08599 1.82 7.01399 1.598 7.99599 1.598C8.97799 1.598 9.89999 1.818 10.728 2.212L10.568 2.372C10.536 2.404 10.51 2.44 10.492 2.482L10.398 2.678C10.252 2.984 10.232 3.328 10.344 3.648L10.354 3.676C10.484 4.048 10.772 4.336 11.146 4.464C11.282 4.51 11.422 4.532 11.56 4.532C11.804 4.532 12.044 4.462 12.254 4.324C12.28 4.306 12.306 4.288 12.332 4.268C12.36 4.246 12.408 4.21 12.468 4.164L12.91 3.902C12.944 3.942 12.974 3.982 13.008 4.022L12.74 4.28C12.726 4.294 12.712 4.31 12.7 4.326L12.004 5.236C11.786 5.522 11.666 5.876 11.666 6.234V7.346C11.666 7.546 11.702 7.742 11.772 7.928L11.872 8.194C12.004 8.54 12.252 8.836 12.57 9.024C12.96 9.256 13.434 9.316 13.87 9.19L13.962 9.164L14.27 9.266C13.72 11.978 11.452 14.074 8.65399 14.362L8.65799 14.364Z" fill="black"/>
</svg>
