<svg width="16" height="16" viewBox="0 0 16 16" fill="none" xmlns="http://www.w3.org/2000/svg">
<path d="M13.6819 9.91775C13.4419 9.67775 13.2063 9.5533 12.9908 9.49775C12.9485 9.20663 12.8152 8.93108 12.6019 8.71774C12.3885 8.50441 12.1285 8.37774 11.8485 8.3333C11.8041 8.05108 11.6708 7.78663 11.4641 7.57997C11.373 7.48885 11.2708 7.4133 11.1619 7.3533L13.453 4.98441C13.9485 4.48885 13.9485 3.68218 13.453 3.18663C13.213 2.94663 12.893 2.81329 12.553 2.81329C12.213 2.81329 11.893 2.9444 11.6596 3.17996L6.88409 7.75997C6.3552 7.49552 5.6752 6.57552 5.39964 6.20441L5.33742 6.11996C4.80408 5.40219 4.01075 4.96441 3.21519 4.94663C2.78853 4.94218 2.33519 5.21996 2.13297 5.61996C1.93741 6.00663 1.98852 6.44441 2.27519 6.81552C2.27964 6.82219 2.28408 6.82663 2.28852 6.8333C2.99964 7.66663 3.41297 8.53552 3.81075 9.37552C4.08853 9.95775 4.35297 10.5133 4.69742 11.0111L2.91741 12.7222C2.73964 12.8933 2.73519 13.1733 2.9063 13.3511C2.99297 13.4422 3.11075 13.4866 3.2263 13.4866C3.34186 13.4866 3.44853 13.4444 3.53519 13.3622L5.59964 11.3777C5.59964 11.3777 5.61075 11.3644 5.61742 11.3555C5.62853 11.3444 5.63742 11.3333 5.64631 11.32C5.6552 11.3089 5.66186 11.2955 5.66853 11.2844C5.6752 11.2711 5.68408 11.26 5.69075 11.2466C5.69742 11.2333 5.70186 11.22 5.70631 11.2066C5.71075 11.1933 5.7152 11.18 5.71964 11.1666C5.72408 11.1533 5.72631 11.14 5.72853 11.1244C5.73075 11.1111 5.73297 11.0955 5.73297 11.0822C5.73297 11.0689 5.73297 11.0555 5.73297 11.0422C5.73297 11.0266 5.73297 11.0133 5.72853 10.9977C5.72853 10.9844 5.72408 10.9711 5.71964 10.9577C5.7152 10.9422 5.71297 10.9289 5.70853 10.9155C5.70408 10.9022 5.69742 10.8889 5.69297 10.8755C5.68631 10.8622 5.67964 10.8489 5.67297 10.8355C5.66631 10.8222 5.65742 10.8111 5.64853 10.7977C5.64186 10.7889 5.63964 10.7822 5.63297 10.7733C5.22853 10.2866 4.93075 9.65775 4.61519 8.9933C4.21297 8.14663 3.75742 7.18663 2.97519 6.26441C2.87297 6.12663 2.90853 6.0533 2.9263 6.01996C2.98186 5.91108 3.12408 5.8333 3.19297 5.8333C3.81075 5.84663 4.33519 6.26219 4.62186 6.64885L4.68408 6.7333C5.3752 7.66885 6.12186 8.5533 6.90186 8.69997C6.90631 8.69997 6.91075 8.69997 6.9152 8.70219C6.91742 8.70219 6.91964 8.70219 6.92186 8.70219C6.9352 8.70441 6.95075 8.70219 6.96409 8.70441C6.9752 8.70441 6.98631 8.70663 6.99742 8.70663C6.99742 8.70663 6.99964 8.70663 7.00186 8.70663C7.02409 8.70663 7.04409 8.70441 7.06409 8.69997C7.07075 8.69997 7.07742 8.69997 7.08186 8.69774C7.10409 8.6933 7.12631 8.68663 7.14631 8.67997C7.15075 8.67997 7.15742 8.67775 7.16186 8.67552C7.18409 8.66663 7.20409 8.65552 7.22186 8.64441C7.22631 8.64219 7.23298 8.63997 7.23742 8.63552C7.25742 8.62219 7.2752 8.60663 7.29297 8.59108C7.2952 8.58886 7.29964 8.58663 7.30186 8.58441L7.31075 8.57552C7.31075 8.57552 7.3152 8.57108 7.31742 8.56886L12.2774 3.81329C12.4219 3.66885 12.6752 3.66885 12.8196 3.81329C12.9641 3.95774 12.9685 4.20663 12.8152 4.35996L9.92853 7.34441C9.92853 7.34441 9.92409 7.35108 9.92187 7.3533C9.91076 7.36441 9.90187 7.37774 9.89076 7.39108C9.88187 7.40219 9.8752 7.4133 9.86631 7.42441C9.85965 7.43552 9.85298 7.44885 9.84631 7.46219C9.83965 7.47552 9.83298 7.48885 9.82853 7.50219C9.82409 7.51552 9.82187 7.52885 9.81742 7.54219C9.81298 7.55552 9.80853 7.57108 9.80631 7.58441C9.80631 7.59774 9.80409 7.61108 9.80409 7.62441C9.80409 7.63997 9.80187 7.65552 9.80409 7.66885C9.80409 7.68219 9.80631 7.6933 9.80853 7.70663C9.80853 7.72441 9.81298 7.73997 9.81742 7.75774C9.81742 7.76219 9.81742 7.76441 9.81742 7.76886C9.81964 7.77774 9.82409 7.78441 9.82631 7.7933C9.83076 7.80886 9.83742 7.82441 9.84409 7.83997C9.85076 7.8533 9.85742 7.86441 9.86409 7.87552C9.87076 7.88885 9.87964 7.89997 9.88853 7.9133C9.89742 7.92663 9.90853 7.93774 9.91964 7.94886C9.92631 7.95552 9.93076 7.96441 9.93964 7.97108C9.94187 7.9733 9.94631 7.97552 9.94853 7.97774C9.95965 7.98886 9.97298 7.99774 9.98409 8.00663C9.9952 8.01552 10.0063 8.02441 10.0196 8.03108C10.0308 8.03774 10.0441 8.04441 10.0552 8.04886C10.0685 8.05552 10.0819 8.06219 10.0974 8.06886C10.1108 8.0733 10.1241 8.07552 10.1374 8.07997C10.1508 8.08441 10.1663 8.08886 10.1796 8.09108C10.193 8.0933 10.2085 8.0933 10.2219 8.09552C10.2352 8.09552 10.2508 8.09774 10.2641 8.09552C10.2774 8.09552 10.2908 8.0933 10.3041 8.09108C10.3196 8.09108 10.3352 8.08663 10.3508 8.08441C10.3552 8.08441 10.3574 8.08441 10.3619 8.08441C10.5308 8.03997 10.7108 8.08663 10.8308 8.20886C10.9508 8.33108 10.9996 8.51108 10.9552 8.67774C10.9152 8.83108 10.9574 8.99552 11.0708 9.10663C11.1841 9.21775 11.3463 9.26219 11.4996 9.22219C11.6685 9.17775 11.8485 9.22441 11.9685 9.34663C12.0908 9.46886 12.1374 9.64886 12.093 9.81552C12.053 9.96886 12.0952 10.1311 12.2085 10.2444C12.3219 10.3577 12.4841 10.4 12.6374 10.36C12.6819 10.3489 12.813 10.3133 13.0463 10.5466C13.1241 10.6244 13.0908 10.8022 13.0796 10.8533C13.0396 11.0311 12.9308 11.2289 12.7974 11.3622L12.4352 11.7355C11.113 13.06 9.86631 14.3089 8.41742 14.0822L8.20631 14.04C8.06409 14.0111 7.9152 14.0533 7.81075 14.1555L6.68631 15.2333C6.50853 15.4022 6.50409 15.6844 6.67297 15.8622C6.75964 15.9533 6.87742 16 6.99298 16C7.10409 16 7.2152 15.96 7.29964 15.8755L8.25742 14.9578C10.173 15.2622 11.6396 13.7889 13.0619 12.3644L13.4308 11.9844C13.6752 11.74 13.8663 11.3889 13.9441 11.0489C14.0463 10.5955 13.9508 10.1933 13.673 9.91775H13.6819Z" fill="black"/>
<path d="M7.30858 2.58223C7.55303 2.58223 7.75303 2.38223 7.75303 2.13778V0.444445C7.75303 0.2 7.55303 0 7.30858 0C7.06414 0 6.86414 0.2 6.86414 0.444445V2.13778C6.86414 2.38223 7.06414 2.58223 7.30858 2.58223Z" fill="black"/>
<path d="M5.3908 3.26225C5.47968 3.36891 5.60635 3.42669 5.73524 3.42669C5.83302 3.42669 5.93302 3.39336 6.01524 3.32669C6.20635 3.17114 6.23302 2.89114 6.07969 2.70225L5.00635 1.38669C4.8508 1.1978 4.57079 1.16891 4.38191 1.32225C4.19079 1.4778 4.16413 1.7578 4.31746 1.94669L5.3908 3.26225Z" fill="black"/>
<path d="M8.60402 3.32668C8.68625 3.39335 8.78625 3.42668 8.88402 3.42668C9.01291 3.42668 9.1418 3.37113 9.22847 3.26224L10.3018 1.94668C10.4574 1.75557 10.4285 1.47557 10.2374 1.32223C10.0462 1.16668 9.76625 1.19557 9.61292 1.38668L8.53958 2.70224C8.38402 2.89335 8.41291 3.17335 8.60402 3.32668Z" fill="black"/>
</svg>
