<svg width="16" height="16" viewBox="0 0 16 16" fill="none" xmlns="http://www.w3.org/2000/svg">
<path d="M13.7666 0.739924C12.7917 -0.234922 11.207 -0.234922 10.2321 0.739924C9.75971 1.21235 9.49976 1.83975 9.49976 2.50714V4.49933C9.49976 5.60416 10.3971 6.50151 11.4994 6.50651V15.5001C11.4994 15.7751 11.7244 16 11.9994 16C12.2743 16 12.4993 15.7751 12.4993 15.5001V6.50651C13.6016 6.50401 14.499 5.60416 14.499 4.49933V2.50714C14.499 1.83975 14.239 1.21235 13.7666 0.739924ZM13.4991 4.49933C13.4991 5.05424 13.0467 5.50667 12.4918 5.50667H11.5044C10.9495 5.50667 10.4971 5.05424 10.4971 4.49933V2.50714C10.4971 2.10721 10.6521 1.72977 10.937 1.44731C11.2295 1.15486 11.6144 1.00988 11.9969 1.00988C12.3793 1.00988 12.7642 1.15486 13.0567 1.44731C13.3392 1.72977 13.4966 2.10721 13.4966 2.50714V4.49933H13.4991Z" fill="black"/>
<path d="M6.00039 0C5.72543 0 5.50047 0.224965 5.50047 0.499921V5.50413H4.50063V0.499921C4.50063 0.224965 4.27566 0 4.0007 0C3.72575 0 3.50078 0.224965 3.50078 0.499921V5.50413H2.50094V0.499921C2.50094 0.224965 2.27598 0 2.00102 0C1.72606 0 1.5011 0.224965 1.5011 0.499921V6.00405C1.5011 6.27901 1.72606 6.50397 2.00102 6.50397H3.50078V15.4976C3.50078 15.7725 3.72575 15.9975 4.0007 15.9975C4.27566 15.9975 4.50063 15.7725 4.50063 15.4976V6.50397H6.00039C6.27535 6.50397 6.50031 6.27901 6.50031 6.00405V0.499921C6.50031 0.224965 6.27535 0 6.00039 0Z" fill="black"/>
</svg>
