<svg width="16" height="17" viewBox="0 0 16 17" fill="none" xmlns="http://www.w3.org/2000/svg">
<path d="M15.8112 4.81419L11.188 0.191048C10.9333 -0.0636827 10.5177 -0.0636827 10.263 0.191048L0.131834 10.3244C0.0469241 10.4093 0 10.5211 0 10.6395V15.5553C0 15.8011 0.201103 16.0022 0.446896 16.0022H5.36275C5.48118 16.0022 5.59514 15.9553 5.67782 15.8704L15.809 5.73926C16.0637 5.48453 16.0637 5.06892 15.809 4.81419H15.8112ZM0.893792 12.8829C2.03114 13.0728 2.93164 13.9711 3.12157 15.1084H0.893792V12.8829ZM5.17729 15.1084H4.0243C3.82096 13.4773 2.5272 12.1813 0.893792 11.9779V10.8227L8.04413 3.6746L12.3276 7.9581L5.17729 15.1084ZM12.96 7.32575L8.67649 3.04225L10.7255 0.993227L15.009 5.27673L12.96 7.32575Z" fill="black"/>
</svg>
