<svg width="16" height="16" viewBox="0 0 16 16" fill="none" xmlns="http://www.w3.org/2000/svg">
<path d="M9.3334 11.4444C9.08896 11.4444 8.88896 11.2444 8.88896 11C8.88896 10.5089 8.49118 10.1111 8.00007 10.1111C7.50896 10.1111 7.11118 10.5089 7.11118 11C7.11118 11.2444 6.91118 11.4444 6.66673 11.4444C6.42229 11.4444 6.22229 11.2444 6.22229 11C6.22229 10.02 7.02007 9.22221 8.00007 9.22221C8.98007 9.22221 9.77785 10.02 9.77785 11C9.77785 11.2444 9.57785 11.4444 9.3334 11.4444Z" fill="black"/>
<path d="M14 13C12.8978 13 12 12.1022 12 11C12 8.79557 10.2044 7.00002 8 7.00002C7.72889 7.00002 7.45778 7.02668 7.19333 7.08224C6.93778 7.13557 6.68444 7.21335 6.44222 7.31557C6.20444 7.41557 5.97778 7.54002 5.76222 7.68446C5.55111 7.82668 5.35111 7.99113 5.16889 8.17335C4.98667 8.35557 4.71333 8.34668 4.54 8.17335C4.36667 8.00002 4.36667 7.7178 4.54 7.54446C4.76 7.32224 5.00444 7.12224 5.26222 6.94668C5.52444 6.77113 5.80444 6.6178 6.09333 6.49557C6.38889 6.37113 6.69778 6.27335 7.01111 6.21113C7.33333 6.14446 7.66444 6.11113 7.99556 6.11113C10.6911 6.11113 12.8844 8.30446 12.8844 11C12.8844 11.6134 13.3822 12.1111 13.9956 12.1111C14.6089 12.1111 15.1067 11.6134 15.1067 11C15.1067 7.08002 11.9156 3.88891 7.99556 3.88891C4.07556 3.88891 0.888889 7.08002 0.888889 11C0.888889 11.2445 0.688889 11.4445 0.444444 11.4445C0.2 11.4445 0 11.2445 0 11C0 6.58891 3.58889 3.00002 8 3.00002C12.4111 3.00002 16 6.58891 16 11C16 12.1022 15.1022 13 14 13Z" fill="black"/>
<path d="M3.55553 11.4445C3.31108 11.4445 3.11108 11.2445 3.11108 11C3.11108 10.6689 3.14442 10.3378 3.21108 10.0156C3.25997 9.77558 3.49331 9.61781 3.73553 9.66892C3.97553 9.71781 4.13108 9.95336 4.0822 10.1934C4.02886 10.4556 3.99997 10.7289 3.99997 11C3.99997 11.2445 3.79997 11.4445 3.55553 11.4445Z" fill="black"/>
</svg>
