<svg width="16" height="16" viewBox="0 0 16 16" fill="none" xmlns="http://www.w3.org/2000/svg">
<path d="M8.55532 0H7.44473C6.97179 0 6.58826 0.383529 6.58826 0.856471V11.3788C6.58826 11.8518 6.97179 12.2353 7.44473 12.2353H8.55532C9.02826 12.2353 9.41179 11.8518 9.41179 11.3788V0.856471C9.41179 0.383529 9.02826 0 8.55532 0ZM8.47061 11.2941H7.52943V0.941176H8.47061V11.2941Z" fill="black"/>
<path d="M8.00002 13.1765C7.2212 13.1765 6.58826 13.8094 6.58826 14.5882C6.58826 15.367 7.2212 16 8.00002 16C8.77885 16 9.41179 15.367 9.41179 14.5882C9.41179 13.8094 8.77885 13.1765 8.00002 13.1765ZM8.00002 15.0588C7.7412 15.0588 7.52943 14.847 7.52943 14.5882C7.52943 14.3294 7.7412 14.1176 8.00002 14.1176C8.25885 14.1176 8.47061 14.3294 8.47061 14.5882C8.47061 14.847 8.25885 15.0588 8.00002 15.0588Z" fill="black"/>
</svg>
