<svg width="16" height="16" viewBox="0 0 16 16" fill="none" xmlns="http://www.w3.org/2000/svg">
<path d="M15.6667 9.18011C15.88 8.91122 16 8.57344 16 8.22011C16 7.36233 15.3022 6.66455 14.4444 6.66455H11.5467C11.2244 6.67344 10.8489 6.62677 10.7622 6.57788C10.3733 6.27122 10.4489 4.70677 10.4822 4.04011C10.4933 3.80011 10.5044 3.59122 10.5022 3.42677C10.4978 2.32233 10.0333 1.30677 9.25778 0.708996C8.86444 0.404551 8.23556 0.357885 7.76444 0.595662C7.31333 0.822329 7.06 1.269 7.07111 1.82011C7.07111 1.82677 7.07111 1.83566 7.07111 1.84233C7.17111 3.25566 6.93556 4.48011 6.70889 5.66455C6.55333 6.47122 6.40667 7.24011 6.38444 8.00011H4.88667V7.55566C4.88667 7.31122 4.68667 7.11122 4.44222 7.11122H0.444444C0.2 7.11122 0 7.31122 0 7.55566C0 7.80011 0.2 8.00011 0.444444 8.00011H4V14.2223H0.444444C0.2 14.2223 0 14.4223 0 14.6668C0 14.9112 0.2 15.1112 0.444444 15.1112H4.44444C4.68889 15.1112 4.88889 14.9112 4.88889 14.6668V14.2223H6.20222C6.53778 15.0112 7.32667 15.5557 8.19333 15.5557H14.0178L14.4422 15.5468C15.3 15.5468 15.9978 14.8446 15.9978 13.9823C15.9978 13.629 15.8756 13.2934 15.6644 13.0223C15.8778 12.7534 15.9978 12.4157 15.9978 12.0623C15.9978 11.709 15.8756 11.3734 15.6644 11.1023C15.8778 10.8312 15.9978 10.4957 15.9978 10.1423C15.9978 9.789 15.8756 9.45344 15.6644 9.18233L15.6667 9.18011ZM14.7778 9.56455C14.9822 9.68455 15.1111 9.90455 15.1111 10.1401C15.1111 10.3757 14.9844 10.5957 14.7778 10.7157C14.64 10.7957 14.5556 10.9423 14.5556 11.1001C14.5556 11.2579 14.64 11.4046 14.7778 11.4846C14.9822 11.6046 15.1111 11.8246 15.1111 12.0601C15.1111 12.2957 14.9844 12.5157 14.7778 12.6357C14.64 12.7157 14.5556 12.8623 14.5556 13.0201C14.5556 13.1779 14.64 13.3246 14.7778 13.4046C14.9822 13.5246 15.1111 13.7446 15.1111 13.9801C15.1111 14.3534 14.8111 14.6557 14.4356 14.6557L14.0111 14.6646H8.19556C7.61333 14.6646 7.09333 14.2468 6.95778 13.6734C6.91111 13.4734 6.73111 13.3312 6.52444 13.3312H4.89111V8.88677H6.83556C6.95778 8.88677 7.07333 8.83788 7.15778 8.749C7.24222 8.66233 7.28667 8.54233 7.28 8.42233C7.24444 7.61566 7.41111 6.749 7.58667 5.83122C7.81333 4.65122 8.07111 3.31566 7.96444 1.79122C7.96222 1.52233 8.08 1.43344 8.16889 1.38677C8.34889 1.29566 8.60667 1.32455 8.71778 1.41122C9.37778 1.92011 9.61556 2.78677 9.61778 3.429C9.61778 3.57122 9.60889 3.769 9.59778 3.99566C9.52889 5.41344 9.52444 6.73122 10.2156 7.27566C10.5578 7.54677 11.2778 7.56011 11.56 7.55344H14.4489C14.8156 7.55344 15.1156 7.85344 15.1156 8.22011C15.1156 8.45566 14.9889 8.67566 14.7822 8.79566C14.6444 8.87566 14.56 9.02233 14.56 9.18011C14.56 9.33788 14.6444 9.48455 14.7822 9.56455H14.7778Z" fill="black"/>
</svg>
