<svg width="16" height="16" viewBox="0 0 16 16" fill="none" xmlns="http://www.w3.org/2000/svg">
<path d="M12.6806 6.5159C12.4539 6.61145 12.3495 6.87144 12.445 7.0981C12.745 7.80918 12.8983 8.56471 12.8983 9.34246C12.8983 10.1202 12.745 10.8757 12.445 11.5868C12.1539 12.2735 11.7384 12.8912 11.2095 13.4201C10.6806 13.9489 10.0629 14.3667 9.37624 14.6556C8.66516 14.9556 7.90963 15.1089 7.13189 15.1089C6.35414 15.1089 5.59861 14.9556 4.88753 14.6556C4.20089 14.3645 3.58313 13.9489 3.05427 13.4201C2.5254 12.8912 2.10764 12.2735 1.81876 11.5868C1.51877 10.8757 1.36544 10.1202 1.36544 9.34246C1.36544 8.56471 1.51877 7.80918 1.81876 7.0981C2.10986 6.41146 2.5254 5.79371 3.05427 5.26484C3.58313 4.73597 4.20089 4.31821 4.88753 4.02933C5.59861 3.72934 6.35414 3.57601 7.13189 3.57601C7.90963 3.57601 8.66516 3.72934 9.37624 4.02933C9.6029 4.12488 9.86289 4.02044 9.95844 3.79378C10.054 3.56713 9.94733 3.30714 9.7229 3.21158C8.90293 2.86493 8.02963 2.68938 7.13189 2.68938C6.23414 2.68938 5.36084 2.86493 4.54087 3.21158C3.74757 3.54713 3.03649 4.02711 2.4254 4.6382C1.81431 5.24928 1.33433 5.96037 0.998789 6.75367C0.652136 7.57364 0.474365 8.44694 0.474365 9.34468C0.474365 10.2424 0.649914 11.1157 0.998789 11.9357C1.33433 12.729 1.81431 13.4401 2.4254 14.0512C3.03649 14.6623 3.74757 15.1422 4.54087 15.4778C5.36306 15.8244 6.23414 16 7.13189 16C8.02963 16 8.90293 15.8244 9.7229 15.4778C10.5162 15.1422 11.2273 14.6623 11.8384 14.0512C12.4495 13.4401 12.9294 12.729 13.265 11.9357C13.6116 11.1157 13.7894 10.2424 13.7894 9.34468C13.7894 8.44694 13.6139 7.57364 13.265 6.75367C13.1694 6.52701 12.9072 6.42257 12.6828 6.51812L12.6806 6.5159Z" fill="black"/>
<path d="M15.4916 0.265058C15.3916 0.0406218 15.1294 -0.0615965 14.9049 0.0383997C13.0561 0.858368 12.385 2.17832 11.7917 3.34494L11.7406 3.44716C11.694 3.53826 11.6495 3.62937 11.6051 3.72048C11.2051 4.52489 10.8584 5.22709 9.88514 5.98039C9.46293 5.84929 8.90295 5.90262 8.62963 5.94262C7.86299 6.05594 7.1808 6.34704 6.76081 6.74258C6.37194 7.10924 6.14973 7.60477 6.13417 8.13809C6.11862 8.6714 6.31194 9.17805 6.67637 9.56692C7.06969 9.98246 7.59856 10.1936 8.12965 10.1936C8.62074 10.1936 9.11406 10.0136 9.49849 9.65136C10.1474 9.04027 10.6362 7.52478 10.4629 6.6537C11.5673 5.78484 11.9895 4.93821 12.3962 4.11824C12.4406 4.02936 12.485 3.94047 12.5295 3.85159L12.5806 3.74937C13.1561 2.61608 13.7005 1.54279 15.2605 0.851701C15.4849 0.751705 15.5871 0.489493 15.4871 0.265058H15.4916ZM8.89406 9.0025C8.44964 9.42248 7.74744 9.40026 7.32746 8.95583C7.12524 8.74029 7.01636 8.45807 7.02525 8.16253C7.03414 7.86699 7.15635 7.59144 7.37412 7.38923C7.84522 6.9448 8.72518 6.78258 9.25627 6.78258C9.40071 6.78258 9.52071 6.79369 9.59848 6.81591C9.67848 7.18035 9.49626 8.43585 8.89406 9.0025Z" fill="black"/>
</svg>
