<svg width="16" height="16" viewBox="0 0 16 16" fill="none" xmlns="http://www.w3.org/2000/svg">
<path d="M15.5 4H11V2.0225C11 1.4575 10.54 1 9.9775 1H6.025C5.46 1 5.0025 1.46 5.0025 2.0225V4H0.5C0.225 4 0 4.225 0 4.5V14.5C0 14.775 0.225 15 0.5 15H15.5C15.775 15 16 14.775 16 14.5V4.5C16 4.225 15.775 4 15.5 4ZM6 2.0225C6 2.01 6.01 2 6.0225 2H9.975C9.9875 2 9.9975 2.01 9.9975 2.0225V4H5.9975V2.0225H6ZM15 14H1V5H15V14Z" fill="black"/>
<path d="M8.49976 7.5H7.49976V9H5.99976V10H7.49976V11.5H8.49976V10H9.99976V9H8.49976V7.5Z" fill="black"/>
</svg>
