<svg width="16" height="16" viewBox="0 0 16 16" fill="none" xmlns="http://www.w3.org/2000/svg">
<path d="M11.2994 10.5198C11.3971 10.2931 11.2905 10.033 11.066 9.93525L9.33019 9.1907C9.33019 9.16181 9.33464 9.13292 9.33464 9.10403C9.33464 8.36837 8.73678 7.77051 8.00112 7.77051C7.26546 7.77051 6.6676 8.36837 6.6676 9.10403C6.6676 9.83968 7.26546 10.4375 8.00112 10.4375C8.38784 10.4375 8.73678 10.2709 8.97904 10.0064L10.7148 10.7509C10.7726 10.7754 10.8304 10.7865 10.8904 10.7865C11.0638 10.7865 11.226 10.6842 11.2994 10.5176V10.5198ZM8.00112 9.55075C7.75664 9.55075 7.55661 9.35073 7.55661 9.10625C7.55661 8.86177 7.75664 8.66174 8.00112 8.66174C8.2456 8.66174 8.44563 8.86177 8.44563 9.10625C8.44563 9.35073 8.2456 9.55075 8.00112 9.55075Z" fill="black"/>
<path d="M13.6597 3.44771C12.1484 1.93639 10.1392 1.10516 8.00111 1.10516C5.86304 1.10516 3.85387 1.93639 2.34255 3.44771C0.831227 4.95903 0 6.9682 0 9.10628C0 11.2443 0.831227 13.2535 2.34255 14.7648C2.51591 14.9382 2.79817 14.9382 2.97152 14.7648L4.85845 12.8779C5.03181 12.7046 5.03181 12.4223 4.85845 12.2489C4.01834 11.4088 3.55605 10.2931 3.55605 9.10628C3.55605 7.91944 4.01834 6.80151 4.85845 5.96362C5.69857 5.1235 6.81428 4.66121 8.00111 4.66121C9.18794 4.66121 10.3037 5.1235 11.1438 5.96362C11.9839 6.80373 12.4462 7.91944 12.4462 9.10628C12.4462 10.2931 11.9839 11.4088 11.1438 12.2489C11.0593 12.3334 11.0126 12.4445 11.0126 12.5623C11.0126 12.6801 11.0593 12.7935 11.1438 12.8757L13.0307 14.7626C13.1174 14.8493 13.2307 14.8937 13.3441 14.8937C13.4574 14.8937 13.5708 14.8493 13.6575 14.7626C15.1688 13.2513 16 11.2421 16 9.10405C16 6.96598 15.1688 4.95681 13.6575 3.44549L13.6597 3.44771ZM11.446 5.03238C10.597 4.31228 9.55688 3.8811 8.44784 3.78998V2.00751C10.0325 2.1053 11.5172 2.71872 12.7062 3.7722L11.446 5.03238ZM4.55841 5.03238L3.29824 3.7722C4.48729 2.72094 5.97194 2.1053 7.55883 2.00751V3.78998C6.44978 3.8811 5.40964 4.31228 4.56063 5.03238H4.55841ZM3.92943 12.549L2.66926 13.8092C1.618 12.6201 1.00236 11.1332 0.906793 9.54856H2.68926C2.78039 10.6576 3.20933 11.7 3.93166 12.549H3.92943ZM2.68704 8.65955H0.90457C1.00236 7.07488 1.61578 5.59023 2.66926 4.39895L3.92943 5.65913C3.20933 6.50814 2.77816 7.54828 2.68704 8.65732V8.65955ZM12.0728 5.66135L13.333 4.40118C14.3842 5.59023 14.9999 7.07488 15.0977 8.66177H13.3152C13.2241 7.55273 12.7929 6.51258 12.0728 5.66357V5.66135ZM13.3352 13.8092L12.075 12.549C12.7951 11.7 13.2263 10.6598 13.3174 9.54856H15.0999C15.0021 11.1332 14.3887 12.6201 13.3374 13.8092H13.3352Z" fill="black"/>
</svg>
