<svg width="16" height="16" viewBox="0 0 16 16" fill="none" xmlns="http://www.w3.org/2000/svg">
<path d="M15.8562 10.6995L10.458 5.3012L11.5218 4.23733L12.601 3.15819C12.7995 2.95966 12.7995 2.63643 12.601 2.43791L10.4401 0.277076C10.2492 0.0861896 9.91074 0.0861896 9.71986 0.277076L8.64071 1.35622L4.32159 5.67534L3.24245 6.75448C3.14573 6.8512 3.09229 6.97846 3.09229 7.11335C3.09229 7.24824 3.14573 7.37805 3.24245 7.47222L5.40328 9.63305C5.5 9.72976 5.62725 9.78321 5.76215 9.78321C5.89704 9.78321 6.02684 9.72976 6.12101 9.63305L7.20016 8.5539L8.2793 7.47476L13.6776 12.873C13.7768 12.9723 13.9066 13.0232 14.0364 13.0232C14.1662 13.0232 14.296 12.9723 14.3953 12.873L15.8511 11.4172C16.0496 11.2187 16.0496 10.8954 15.8511 10.6969L15.8562 10.6995ZM10.0838 1.35622L11.5244 2.79677L11.1655 3.15819L9.72495 1.71763L10.0838 1.35622ZM9.00467 2.43536L10.4452 3.87592L6.84638 7.47476L5.40583 6.03421L9.00467 2.43536ZM5.76469 8.5539L4.32414 7.11335L4.683 6.75448L6.12356 8.19504L5.76469 8.55645V8.5539ZM14.0441 11.7939L9.00467 6.75448L9.6435 6.11565L9.73767 6.02148L14.7771 11.0609L14.0415 11.7964L14.0441 11.7939Z" fill="black"/>
<path d="M6.09563 12.8119H1.03079C0.463217 12.8119 0 13.2751 0 13.8427V15.357C0 15.637 0.229064 15.8661 0.50903 15.8661H6.61739C6.89736 15.8661 7.12642 15.637 7.12642 15.357V13.8427C7.12642 13.2726 6.6632 12.8119 6.09563 12.8119ZM6.10836 14.848H1.02315L1.03333 13.8299L6.11091 13.8427V14.848H6.10836Z" fill="black"/>
</svg>
