<svg width="16" height="16" viewBox="0 0 16 16" fill="none" xmlns="http://www.w3.org/2000/svg">
<path d="M15.5556 7.55558H15.0756C14.8578 6.05114 13.5644 4.88892 12 4.88892C10.7578 4.88892 9.68444 5.62447 9.18667 6.68003C8.87111 6.39558 8.45556 6.22225 8 6.22225C7.54444 6.22225 7.12889 6.39558 6.81333 6.68003C6.31556 5.62447 5.24444 4.88892 4 4.88892C2.43556 4.88892 1.14222 6.05114 0.924444 7.55558H0.444444C0.2 7.55558 0 7.75558 0 8.00003C0 8.24447 0.2 8.44447 0.444444 8.44447H0.924444C1.14222 9.94892 2.43556 11.1111 4 11.1111C5.71556 11.1111 7.11111 9.71558 7.11111 8.00003C7.11111 7.50892 7.50889 7.11114 8 7.11114C8.49111 7.11114 8.88889 7.50892 8.88889 8.00003C8.88889 9.71558 10.2844 11.1111 12 11.1111C13.5644 11.1111 14.8578 9.94892 15.0756 8.44447H15.5556C15.8 8.44447 16 8.24447 16 8.00003C16 7.75558 15.8 7.55558 15.5556 7.55558ZM4 10.2222C2.77556 10.2222 1.77778 9.22447 1.77778 8.00003C1.77778 6.77558 2.77556 5.7778 4 5.7778C5.22444 5.7778 6.22222 6.77558 6.22222 8.00003C6.22222 9.22447 5.22444 10.2222 4 10.2222ZM12 10.2222C10.7756 10.2222 9.77778 9.22447 9.77778 8.00003C9.77778 6.77558 10.7756 5.7778 12 5.7778C13.2244 5.7778 14.2222 6.77558 14.2222 8.00003C14.2222 9.22447 13.2244 10.2222 12 10.2222Z" fill="black"/>
</svg>
