<svg width="16" height="16" viewBox="0 0 16 16" fill="none" xmlns="http://www.w3.org/2000/svg">
<path d="M13.7766 5.77778C13.7766 2.59111 11.1855 0 7.99885 0C4.81218 0 2.22107 2.59111 2.22107 5.77778C2.22107 8.00222 3.48551 9.93556 5.33218 10.9V12.48C5.33218 12.6644 5.44551 12.8289 5.61885 12.8956C5.96107 13.0267 6.30996 13.1267 6.66551 13.1978V14.6667C6.66551 15.4022 7.26329 16 7.99885 16C8.7344 16 9.33218 15.4022 9.33218 14.6667V13.1978C9.68774 13.1244 10.0388 13.0244 10.3811 12.8956C10.5522 12.8289 10.6677 12.6644 10.6677 12.48V10.9C12.5144 9.93556 13.7788 8.00222 13.7788 5.77778H13.7766ZM8.44329 14.6667C8.44329 14.9111 8.24329 15.1111 7.99885 15.1111C7.7544 15.1111 7.5544 14.9111 7.5544 14.6667V13.3178C7.70107 13.3267 7.84996 13.3333 7.99885 13.3333C8.14774 13.3333 8.29663 13.3267 8.44329 13.3178V14.6667ZM9.77663 12.1667C8.63218 12.5356 7.36551 12.5356 6.22107 12.1667V11.2756C6.78107 11.4578 7.37885 11.5556 7.99885 11.5556C8.61885 11.5556 9.21662 11.4556 9.77663 11.2733V12.1644V12.1667ZM7.99885 10.6667C5.30329 10.6667 3.10996 8.47333 3.10996 5.77778C3.10996 3.08222 5.30329 0.888889 7.99885 0.888889C10.6944 0.888889 12.8877 3.08222 12.8877 5.77778C12.8877 8.47333 10.6944 10.6667 7.99885 10.6667Z" fill="black"/>
<path d="M6.79442 6.79557C6.71219 6.88002 6.66553 6.99335 6.66553 7.11113C6.66553 7.16891 6.67664 7.22668 6.69886 7.28002C6.72108 7.33335 6.75442 7.38224 6.79442 7.42446C6.88108 7.50891 6.99219 7.55557 7.10997 7.55557C7.22775 7.55557 7.33886 7.50891 7.42331 7.42446C7.46553 7.38224 7.49886 7.33335 7.52108 7.28002C7.5433 7.22668 7.55442 7.16891 7.55442 7.11113C7.55442 6.99335 7.50775 6.8778 7.42331 6.79557C7.25886 6.63113 6.96331 6.63113 6.79442 6.79557Z" fill="black"/>
<path d="M7.02331 8.45331C6.99442 8.45776 6.96775 8.46665 6.93886 8.47776C6.91219 8.48887 6.88775 8.5022 6.8633 8.51776C6.83886 8.53554 6.81664 8.55332 6.79664 8.57332C6.71219 8.65554 6.66553 8.77109 6.66553 8.88887C6.66553 8.94665 6.67664 9.00443 6.69886 9.05776C6.72108 9.11109 6.75442 9.15998 6.79664 9.2022C6.87886 9.28665 6.99219 9.33109 7.10997 9.33109C7.22775 9.33109 7.34108 9.28665 7.42331 9.2022C7.46553 9.15998 7.49886 9.11109 7.52108 9.05776C7.5433 9.00443 7.55442 8.94665 7.55442 8.88887C7.55442 8.77109 7.50775 8.65554 7.42331 8.57332C7.32108 8.47109 7.16775 8.42443 7.02331 8.45331Z" fill="black"/>
<path d="M9.29867 8.21331C9.28756 8.18442 9.27423 8.15998 9.25645 8.13553C9.24089 8.11109 9.22312 8.08887 9.20089 8.06887C9.18089 8.04665 9.15867 8.02887 9.13423 8.01331C9.10978 7.99776 9.08534 7.9822 9.05867 7.97109C9.032 7.95998 9.00312 7.95109 8.97423 7.94665C8.82978 7.91776 8.67645 7.96442 8.57423 8.06887C8.552 8.08887 8.53423 8.11109 8.51867 8.13553C8.50089 8.15998 8.48756 8.18442 8.47645 8.21331C8.46534 8.23998 8.45645 8.26665 8.452 8.29553C8.44534 8.32442 8.44312 8.35331 8.44312 8.3822C8.44312 8.5022 8.48978 8.61331 8.57423 8.69553C8.61423 8.73776 8.66312 8.77109 8.71867 8.79331C8.772 8.81553 8.82978 8.82665 8.88756 8.82665C9.00534 8.82665 9.11867 8.77998 9.20089 8.69553C9.28534 8.61331 9.332 8.5022 9.332 8.3822C9.332 8.35331 9.32978 8.32442 9.32312 8.29553C9.31867 8.26665 9.30978 8.23998 9.29867 8.21331Z" fill="black"/>
<path d="M5.01881 5.90664C4.93436 5.98886 4.8877 6.10442 4.8877 6.22219C4.8877 6.27997 4.89881 6.33775 4.92103 6.39108C4.94325 6.44664 4.97658 6.49331 5.01881 6.53553C5.03881 6.55553 5.06103 6.57553 5.08547 6.59108C5.10992 6.60664 5.13436 6.62219 5.16103 6.63331C5.1877 6.64442 5.21658 6.65108 5.24547 6.65775C5.27436 6.66219 5.30325 6.66664 5.33214 6.66664C5.39214 6.66664 5.4477 6.65553 5.50325 6.63331C5.55658 6.60886 5.60547 6.57775 5.6477 6.53553C5.72992 6.45108 5.77658 6.33997 5.77658 6.22219C5.77658 6.10442 5.72992 5.98886 5.6477 5.90664C5.47881 5.73997 5.18325 5.74219 5.01881 5.90664Z" fill="black"/>
<path d="M5.01658 7.68443C4.93436 7.76887 4.8877 7.88221 4.8877 7.99998C4.8877 8.11776 4.93436 8.22887 5.01658 8.31332C5.10325 8.39776 5.21436 8.44443 5.33214 8.44443C5.44992 8.44443 5.56103 8.39776 5.6477 8.31332C5.72992 8.22887 5.77658 8.11776 5.77658 7.99998C5.77658 7.88221 5.72992 7.76887 5.6477 7.68443C5.47881 7.51999 5.18547 7.51999 5.01658 7.68443Z" fill="black"/>
</svg>
