<svg width="16" height="16" viewBox="0 0 16 16" fill="none" xmlns="http://www.w3.org/2000/svg">
<path d="M15.5556 14.6667H14.6667V8.44446H15.5556C15.8 8.44446 16 8.24446 16 8.00001C16 7.75557 15.8 7.55557 15.5556 7.55557H14.6511C14.4311 4.23335 11.7667 1.5689 8.44444 1.3489V0.888902C8.44444 0.644458 8.24444 0.444458 8 0.444458C7.75556 0.444458 7.55556 0.644458 7.55556 0.888902V1.3489C4.23333 1.5689 1.56889 4.23335 1.34889 7.55557H0.444444C0.2 7.55557 0 7.75557 0 8.00001C0 8.24446 0.2 8.44446 0.444444 8.44446H1.33333V14.6667H0.444444C0.2 14.6667 0 14.8667 0 15.1111C0 15.3556 0.2 15.5556 0.444444 15.5556H15.5556C15.8 15.5556 16 15.3556 16 15.1111C16 14.8667 15.8 14.6667 15.5556 14.6667ZM8 2.22224C11.0356 2.22224 13.5333 4.57557 13.76 7.55557H2.24C2.46667 4.57557 4.96444 2.22224 8 2.22224ZM4.44444 14.6667H2.22222V8.44446H4.44444V14.6667ZM7.55556 14.6667H5.33333V8.44446H7.55556V14.6667ZM10.6667 14.6667H8.44444V8.44446H10.6667V14.6667ZM13.7778 14.6667H11.5556V8.44446H13.7778V14.6667Z" fill="black"/>
</svg>
