<svg width="16" height="16" viewBox="0 0 16 16" fill="none" xmlns="http://www.w3.org/2000/svg">
<path d="M15.7711 6.82537L8.21447 2.71814C8.08112 2.64701 7.92332 2.64701 7.78997 2.71814L0.231143 6.82537C0.0889012 6.90316 0 7.05207 0 7.21654C0 7.38101 0.0889012 7.52992 0.231143 7.6077L2.79372 9.00123C2.71149 9.2546 2.66481 9.51463 2.66481 9.77912C2.66481 11.7727 5.00736 13.3352 7.99889 13.3352C10.9904 13.3352 13.333 11.7727 13.333 9.77912C13.333 9.51463 13.2863 9.25682 13.2041 9.00345L14.222 8.45004V12.0016C14.222 12.2461 14.422 12.4462 14.6665 12.4462C14.911 12.4462 15.111 12.2461 15.111 12.0016V7.96553L15.7689 7.6077C15.9111 7.52992 16 7.38101 16 7.21654C16 7.05207 15.9111 6.90316 15.7689 6.82537H15.7711ZM8.00111 3.61382L14.6265 7.21432L12.4417 8.40115C12.4417 8.40115 12.4395 8.40115 12.4373 8.40115C12.4373 8.40115 12.4351 8.40337 12.4328 8.40337L7.99889 10.8126L1.37352 7.21209L7.99889 3.61159L8.00111 3.61382ZM12.4462 9.77467C12.4462 11.2193 10.4103 12.4417 8.00111 12.4417C5.59189 12.4417 3.55605 11.2193 3.55605 9.77467C3.55605 9.6591 3.56938 9.54575 3.59606 9.4324L7.78997 11.7105C7.85665 11.7461 7.92999 11.7638 8.00333 11.7638C8.07668 11.7638 8.15002 11.7461 8.2167 11.7105L12.4084 9.4324C12.4328 9.54575 12.4484 9.6591 12.4484 9.77467H12.4462Z" fill="black"/>
</svg>
