<svg width="16" height="16" viewBox="0 0 16 16" fill="none" xmlns="http://www.w3.org/2000/svg">
<path d="M13.7622 5.37111C13.5533 2.37556 11.0489 0 8 0C4.95111 0 2.44667 2.37333 2.23778 5.37111C0.971111 5.57778 0 6.67556 0 8C0 9.32444 0.973333 10.4244 2.24222 10.6289C2.42444 12.8444 4.08 14.6578 6.27556 15.0356C6.43556 15.5911 6.94889 16 7.55556 16H8.44444C9.18 16 9.77778 15.4022 9.77778 14.6667C9.77778 13.9311 9.18 13.3333 8.44444 13.3333H7.55556C7.00444 13.3333 6.53111 13.6689 6.32889 14.1444C4.47111 13.7778 3.11111 12.1511 3.11111 10.2222V5.77778C3.11111 3.08222 5.30444 0.888889 8 0.888889C10.6956 0.888889 12.8889 3.08222 12.8889 5.77778V10.2222C12.8889 10.4667 13.0889 10.6667 13.3333 10.6667C14.8044 10.6667 16 9.47111 16 8C16 6.67556 15.0289 5.57778 13.7622 5.37111ZM7.55556 14.2222H8.44444C8.68889 14.2222 8.88889 14.4222 8.88889 14.6667C8.88889 14.9111 8.68889 15.1111 8.44444 15.1111H7.55556C7.31111 15.1111 7.11111 14.9111 7.11111 14.6667C7.11111 14.4222 7.31111 14.2222 7.55556 14.2222ZM0.888889 8C0.888889 7.17333 1.45556 6.47556 2.22222 6.27778V9.72C1.45556 9.52222 0.888889 8.82444 0.888889 7.99778V8ZM13.7778 9.72222V6.28C14.5444 6.47778 15.1111 7.17556 15.1111 8.00222C15.1111 8.82889 14.5444 9.52667 13.7778 9.72444V9.72222Z" fill="black"/>
</svg>
