<svg width="16" height="16" viewBox="0 0 16 16" fill="none" xmlns="http://www.w3.org/2000/svg">
<path d="M11.4111 16H4.58886C3.77331 16 3.11108 15.3378 3.11108 14.5222V1.47778C3.11108 0.662222 3.77331 0 4.58886 0H11.4111C12.2266 0 12.8889 0.662222 12.8889 1.47778V14.5222C12.8889 15.3378 12.2266 16 11.4111 16ZM4.58886 0.888889C4.26442 0.888889 3.99997 1.15333 3.99997 1.47778V14.5222C3.99997 14.8467 4.26442 15.1111 4.58886 15.1111H11.4111C11.7355 15.1111 12 14.8467 12 14.5222V1.47778C12 1.15333 11.7355 0.888889 11.4111 0.888889H4.58886Z" fill="black"/>
<path d="M9.33316 2.66666H6.66649C6.42205 2.66666 6.22205 2.46666 6.22205 2.22222C6.22205 1.97777 6.42205 1.77777 6.66649 1.77777H9.33316C9.5776 1.77777 9.7776 1.97777 9.7776 2.22222C9.7776 2.46666 9.5776 2.66666 9.33316 2.66666Z" fill="black"/>
<path d="M7.99999 14.2222C7.93999 14.2222 7.88443 14.2089 7.82888 14.1867C7.77554 14.1644 7.72665 14.1333 7.68443 14.0911C7.64443 14.0489 7.6111 14 7.58888 13.9467C7.56665 13.8933 7.55554 13.8356 7.55554 13.7778C7.55554 13.66 7.60221 13.5444 7.68443 13.4622C7.70665 13.4422 7.72888 13.4244 7.75332 13.4067C7.77776 13.3911 7.80221 13.3778 7.82888 13.3667C7.85776 13.3556 7.88443 13.3467 7.91332 13.34C7.9711 13.3289 8.02888 13.3289 8.08665 13.34C8.11554 13.3467 8.14221 13.3556 8.1711 13.3667C8.19776 13.3778 8.22221 13.3911 8.24665 13.4067C8.2711 13.4244 8.29332 13.4422 8.31332 13.4622C8.39776 13.5444 8.44443 13.66 8.44443 13.7778C8.44443 13.8356 8.43332 13.8933 8.4111 13.9467C8.38888 14 8.35554 14.0489 8.31332 14.0911C8.27332 14.1333 8.22443 14.1644 8.1711 14.1867C8.11554 14.2089 8.05999 14.2222 7.99999 14.2222Z" fill="black"/>
<path d="M8.94198 11.1111H7.05976C6.81531 11.1111 6.61531 10.9111 6.61531 10.6667V9.38667H5.33531C5.09087 9.38667 4.89087 9.18667 4.89087 8.94222V7.06C4.89087 6.81556 5.09087 6.61556 5.33531 6.61556H6.61531V5.33556C6.61531 5.09111 6.81531 4.89111 7.05976 4.89111H8.94198C9.18643 4.89111 9.38643 5.09111 9.38643 5.33556V6.61556H10.6664C10.9109 6.61556 11.1109 6.81556 11.1109 7.06V8.94222C11.1109 9.18667 10.9109 9.38667 10.6664 9.38667H9.38643V10.6667C9.38643 10.9111 9.18643 11.1111 8.94198 11.1111ZM7.5042 10.2222H8.49754V8.94222C8.49754 8.69778 8.69754 8.49778 8.94198 8.49778H10.222V7.50445H8.94198C8.69754 7.50445 8.49754 7.30445 8.49754 7.06V5.78H7.5042V7.06C7.5042 7.30445 7.3042 7.50445 7.05976 7.50445H5.77976V8.49778H7.05976C7.3042 8.49778 7.5042 8.69778 7.5042 8.94222V10.2222Z" fill="black"/>
</svg>
