<svg width="16" height="16" viewBox="0 0 16 16" fill="none" xmlns="http://www.w3.org/2000/svg">
<path d="M8.44966 4.97015H7.55718V6.75511H5.77222V7.64759H7.55718V9.43255H8.44966V7.64759H10.2346V6.75511H8.44966V4.97015Z" fill="black"/>
<path d="M14.5898 2.07851C14.5586 2.04727 14.5229 2.0205 14.485 2.00042C12.6844 0.280163 9.87752 0.208765 7.99439 1.78845C7.68202 1.52964 7.15992 1.16149 6.4794 0.92498C5.80781 0.690704 3.46282 0.0838177 1.42574 2.07851C0.506482 2.99776 0 4.22046 0 5.51902C0 6.81758 0.506482 8.04251 1.42574 8.95953L7.68202 15.2158C7.76681 15.3006 7.87837 15.3475 7.99662 15.3475C8.11487 15.3475 8.22867 15.3006 8.31122 15.2158L14.5608 8.95953C15.4801 8.04028 15.991 6.81758 15.9999 5.52125C16.0066 4.21823 15.5046 2.99553 14.5876 2.07628L14.5898 2.07851ZM13.9338 8.33033L8.00108 14.2698L2.06163 8.33033C1.31195 7.58065 0.896942 6.58107 0.896942 5.51902C0.896942 4.45697 1.30971 3.45962 2.05717 2.71217C3.0032 1.78622 4.02955 1.54525 4.83947 1.54525C5.45751 1.54525 5.95061 1.68359 6.18712 1.76837C7.08852 2.08297 7.65971 2.68986 7.6664 2.69655C7.74896 2.7858 7.86275 2.83712 7.98546 2.83935C8.10818 2.84381 8.2242 2.79473 8.31122 2.70771C9.8619 1.15702 12.3832 1.15702 13.9338 2.70771C13.9628 2.73671 13.9963 2.76126 14.0298 2.78134C14.7326 3.5221 15.1164 4.48821 15.1097 5.51679C15.103 6.57884 14.6858 7.57619 13.9316 8.33033H13.9338Z" fill="black"/>
</svg>
