<svg width="16" height="16" viewBox="0 0 16 16" fill="none" xmlns="http://www.w3.org/2000/svg">
<path d="M14.5864 2.07733C14.5553 2.04621 14.5197 2.01954 14.482 1.99954C13.5729 1.12831 12.3817 0.652693 11.1193 0.652693C9.96134 0.652693 8.86564 1.05275 7.99219 1.7884C7.68104 1.52837 7.15652 1.16165 6.47643 0.923841C5.80523 0.690476 3.45824 0.0837279 1.42464 2.07733C0.504512 2.99745 0 4.21984 0 5.51779C0 6.81575 0.506735 8.04036 1.42464 8.95826L7.68326 15.2169C7.76771 15.3013 7.87884 15.348 7.99663 15.348C8.11443 15.348 8.22778 15.3013 8.31001 15.2169L14.562 8.95826C15.4821 8.03813 15.9933 6.81797 15.9999 5.52002C16.0066 4.21762 15.5043 2.99523 14.5864 2.07511V2.07733ZM13.933 8.33151L7.99663 14.2745L2.05361 8.33151C1.3024 7.58029 0.889009 6.58016 0.889009 5.51779C0.889009 4.45543 1.3024 3.45529 2.05139 2.70853C2.99818 1.78173 4.02499 1.5417 4.83621 1.5417C5.45407 1.5417 5.94747 1.68172 6.18528 1.76395C7.07873 2.07511 7.65214 2.67741 7.66548 2.69297C7.74771 2.78187 7.86106 2.83299 7.9833 2.83521C8.10554 2.84188 8.22111 2.79076 8.30779 2.70408C9.059 1.95287 10.0591 1.53948 11.1215 1.53948C12.1839 1.53948 13.184 1.95287 13.9352 2.70408C13.9641 2.73297 13.9974 2.75742 14.0308 2.77742C14.7353 3.51752 15.1176 4.48654 15.1109 5.51557C15.1043 6.57794 14.6864 7.57807 13.933 8.33151Z" fill="black"/>
</svg>
