<svg width="16" height="16" viewBox="0 0 16 16" fill="none" xmlns="http://www.w3.org/2000/svg">
<path d="M8.80317 10.9762C8.60308 10.9762 8.42522 10.8405 8.37409 10.6471L7.2002 6.28508L6.8267 7.66794C6.77334 7.86137 6.5977 7.99699 6.39761 7.99699H3.13386C2.8893 7.99699 2.68921 7.79689 2.68921 7.55234C2.68921 7.30778 2.8893 7.10768 3.13386 7.10768H6.05745L6.77111 4.45978C6.82447 4.26636 7.00011 4.13074 7.2002 4.13074C7.4003 4.13074 7.57816 4.26636 7.62929 4.45978L8.80317 8.82182L9.17668 7.43895C9.23004 7.24552 9.40568 7.10991 9.60577 7.10991H12.8695C13.1141 7.10991 13.3142 7.31 13.3142 7.55456C13.3142 7.79912 13.1141 7.99921 12.8695 7.99921H9.94593L9.23226 10.6471C9.17891 10.8405 9.00327 10.9762 8.80317 10.9762Z" fill="black"/>
<path d="M7.99846 15.3515C7.88062 15.3515 7.76724 15.3048 7.68498 15.2203L1.42428 8.95958C-0.474388 7.06314 -0.474388 3.97281 1.42205 2.07414C3.45856 0.079877 5.80632 0.686827 6.47552 0.920269C7.15584 1.15816 7.68053 1.525 7.99179 1.78512C9.87489 0.20438 12.6829 0.275524 14.4837 1.99633C14.5215 2.01634 14.5571 2.04302 14.5882 2.07414C16.4802 3.96614 16.4691 7.05424 14.5637 8.95958L8.30971 15.2203C8.22523 15.3048 8.11407 15.3515 7.99623 15.3515H7.99846ZM4.83476 1.53834C4.02327 1.53834 2.9939 1.77845 2.04901 2.70555C0.501623 4.25294 0.501623 6.77856 2.05124 8.3304L7.99623 14.2754L13.9346 8.3304C15.4686 6.79635 15.5042 4.3263 14.0302 2.77669C13.9946 2.75668 13.9635 2.73223 13.9346 2.70332C12.3827 1.15149 9.8571 1.15149 8.30527 2.70332C8.22078 2.79003 8.10962 2.83227 7.98067 2.8345C7.86061 2.83227 7.74501 2.78114 7.66274 2.69221C7.66274 2.69221 7.08247 2.07636 6.18205 1.76288C5.94416 1.68062 5.4506 1.54056 4.83253 1.54056L4.83476 1.53834Z" fill="black"/>
</svg>
