<svg width="16" height="16" viewBox="0 0 16 16" fill="none" xmlns="http://www.w3.org/2000/svg">
<path d="M7.89343 0.00222222C5.03343 0.00222222 2.50232 1.92667 1.7401 4.68C1.67565 4.91556 1.81343 5.16222 2.04899 5.22667C2.28676 5.29111 2.53121 5.15333 2.59565 4.91778C3.25121 2.54667 5.42899 0.891111 7.89121 0.891111C10.9201 0.891111 13.3868 3.35556 13.3868 6.38667C13.3868 7.62 12.9845 8.90444 12.2845 9.91556C12.1757 10.0711 11.3223 11.5933 11.1268 12.3311C10.5712 14.4111 9.75565 15.1133 7.89343 15.1133C6.90676 15.1133 5.96899 14.6867 5.31787 13.9444C5.15565 13.76 4.87565 13.74 4.69121 13.9022C4.50676 14.0644 4.48899 14.3444 4.64899 14.5289C5.46899 15.4644 6.65121 16 7.89343 16C10.1757 16 11.3223 15.0356 11.9845 12.56C12.1445 11.9667 12.9201 10.5622 13.0157 10.42C13.8179 9.26444 14.2757 7.79333 14.2757 6.38444C14.2757 2.86444 11.4112 0 7.89121 0L7.89343 0.00222222Z" fill="black"/>
<path d="M10.6022 7.9822C10.6556 8.0022 10.7089 8.01108 10.76 8.01108C10.9378 8.01108 11.1067 7.90219 11.1756 7.72442C11.3244 7.33775 11.3978 6.92886 11.3978 6.51108C11.3978 4.63775 9.87333 3.11108 7.99778 3.11108C6.12222 3.11108 4.59778 4.63553 4.59778 6.51108V8.87331C4.59778 10.0733 5.48222 10.9111 6.75111 10.9111C7.62 10.9111 8.08222 10.04 8.08222 9.40886C8.08222 8.10442 7.06667 7.22886 5.55556 7.22886H5.48667V6.51108C5.48667 5.12664 6.61333 3.99997 7.99778 3.99997C9.38222 3.99997 10.5089 5.12664 10.5089 6.51108C10.5089 6.81997 10.4533 7.1222 10.3444 7.40664C10.2578 7.63553 10.3711 7.89331 10.6 7.97997L10.6022 7.9822ZM5.55778 8.11997C5.94222 8.11997 7.19556 8.21331 7.19556 9.41108C7.19556 9.57997 7.06 10.0244 6.75333 10.0244C6.14222 10.0244 5.48889 9.7222 5.48889 8.87553V8.11997H5.55778Z" fill="black"/>
</svg>
