<svg width="16" height="16" viewBox="0 0 16 16" fill="none" xmlns="http://www.w3.org/2000/svg">
<path d="M14.6667 2.2222C13.9311 2.2222 13.3333 2.81998 13.3333 3.55554V3.99998H11.1111C10.3844 3.99998 9.74 4.35331 9.33333 4.89554C8.92667 4.35331 8.28222 3.99998 7.55556 3.99998H2.22222C0.997778 3.99998 0 4.99776 0 6.2222V12.4444C0 13.18 0.597778 13.7778 1.33333 13.7778C2.06889 13.7778 2.66667 13.18 2.66667 12.4444V12H7.55556C8.78 12 9.77778 11.0022 9.77778 9.77776V9.77331C10.1489 10.0533 10.6111 10.2222 11.1111 10.2222H13.7778C15.0022 10.2222 16 9.22443 16 7.99998V3.55554C16 2.81998 15.4022 2.2222 14.6667 2.2222ZM8.88889 9.77776C8.88889 10.5133 8.29111 11.1111 7.55556 11.1111H2.22222C1.97778 11.1111 1.77778 11.3111 1.77778 11.5555V12.4444C1.77778 12.6889 1.57778 12.8889 1.33333 12.8889C1.08889 12.8889 0.888889 12.6889 0.888889 12.4444V6.2222C0.888889 5.48665 1.48667 4.88887 2.22222 4.88887H7.55556C8.29111 4.88887 8.88889 5.48665 8.88889 6.2222V9.77776ZM15.1111 7.99998C15.1111 8.73554 14.5133 9.33331 13.7778 9.33331H11.1111C10.3756 9.33331 9.77778 8.73554 9.77778 7.99998V6.2222C9.77778 5.48665 10.3756 4.88887 11.1111 4.88887H13.7778C14.0222 4.88887 14.2222 4.68887 14.2222 4.44443V3.55554C14.2222 3.31109 14.4222 3.11109 14.6667 3.11109C14.9111 3.11109 15.1111 3.31109 15.1111 3.55554V7.99998Z" fill="black"/>
</svg>
