<svg width="16" height="16" viewBox="0 0 16 16" fill="none" xmlns="http://www.w3.org/2000/svg">
<path d="M14.6667 11.5555C14.0867 11.5555 13.5956 11.9267 13.4111 12.4444H12.8889V9.25555C13.4067 9.0711 13.7778 8.57999 13.7778 7.99999C13.7778 7.26444 13.18 6.66666 12.4444 6.66666C11.8644 6.66666 11.3733 7.03777 11.1889 7.55555H8.44444V4.36666C8.96222 4.18222 9.33333 3.6911 9.33333 3.1111C9.33333 2.37555 8.73556 1.77777 8 1.77777C7.26444 1.77777 6.66667 2.37555 6.66667 3.1111C6.66667 3.6911 7.03778 4.18222 7.55556 4.36666V7.55555H4.81111C4.62667 7.03777 4.13556 6.66666 3.55556 6.66666C2.82 6.66666 2.22222 7.26444 2.22222 7.99999C2.22222 8.57999 2.59333 9.0711 3.11111 9.25555V12.4444H2.58889C2.40444 11.9267 1.91333 11.5555 1.33333 11.5555C0.597778 11.5555 0 12.1533 0 12.8889C0 13.6244 0.597778 14.2222 1.33333 14.2222C1.91333 14.2222 2.40444 13.8511 2.58889 13.3333H4.52222C4.70667 13.8511 5.19778 14.2222 5.77778 14.2222C6.51333 14.2222 7.11111 13.6244 7.11111 12.8889C7.11111 12.1533 6.51333 11.5555 5.77778 11.5555C5.19778 11.5555 4.70667 11.9267 4.52222 12.4444H4V9.25555C4.37778 9.12222 4.67778 8.82222 4.81111 8.44444H11.1889C11.3222 8.82222 11.6222 9.12222 12 9.25555V12.4444H11.4778C11.2933 11.9267 10.8022 11.5555 10.2222 11.5555C9.48667 11.5555 8.88889 12.1533 8.88889 12.8889C8.88889 13.6244 9.48667 14.2222 10.2222 14.2222C10.8022 14.2222 11.2933 13.8511 11.4778 13.3333H13.4111C13.5956 13.8511 14.0867 14.2222 14.6667 14.2222C15.4022 14.2222 16 13.6244 16 12.8889C16 12.1533 15.4022 11.5555 14.6667 11.5555ZM8 2.66666C8.24444 2.66666 8.44444 2.86666 8.44444 3.1111C8.44444 3.35555 8.24444 3.55555 8 3.55555C7.75556 3.55555 7.55556 3.35555 7.55556 3.1111C7.55556 2.86666 7.75556 2.66666 8 2.66666ZM1.33333 13.3333C1.08889 13.3333 0.888889 13.1333 0.888889 12.8889C0.888889 12.6444 1.08889 12.4444 1.33333 12.4444C1.57778 12.4444 1.77778 12.6444 1.77778 12.8889C1.77778 13.1333 1.57778 13.3333 1.33333 13.3333ZM5.77778 12.4444C6.02222 12.4444 6.22222 12.6444 6.22222 12.8889C6.22222 13.1333 6.02222 13.3333 5.77778 13.3333C5.53333 13.3333 5.33333 13.1333 5.33333 12.8889C5.33333 12.6444 5.53333 12.4444 5.77778 12.4444ZM12.4444 7.55555C12.6889 7.55555 12.8889 7.75555 12.8889 7.99999C12.8889 8.24444 12.6889 8.44444 12.4444 8.44444C12.2 8.44444 12 8.24444 12 7.99999C12 7.75555 12.2 7.55555 12.4444 7.55555ZM3.55556 8.44444C3.31111 8.44444 3.11111 8.24444 3.11111 7.99999C3.11111 7.75555 3.31111 7.55555 3.55556 7.55555C3.8 7.55555 4 7.75555 4 7.99999C4 8.24444 3.8 8.44444 3.55556 8.44444ZM10.2222 13.3333C9.97778 13.3333 9.77778 13.1333 9.77778 12.8889C9.77778 12.6444 9.97778 12.4444 10.2222 12.4444C10.4667 12.4444 10.6667 12.6444 10.6667 12.8889C10.6667 13.1333 10.4667 13.3333 10.2222 13.3333ZM14.6667 13.3333C14.4222 13.3333 14.2222 13.1333 14.2222 12.8889C14.2222 12.6444 14.4222 12.4444 14.6667 12.4444C14.9111 12.4444 15.1111 12.6444 15.1111 12.8889C15.1111 13.1333 14.9111 13.3333 14.6667 13.3333Z" fill="black"/>
</svg>
