<svg width="16" height="16" viewBox="0 0 16 16" fill="none" xmlns="http://www.w3.org/2000/svg">
<path d="M14.5839 6.58865C13.97 6.58865 13.4502 6.98148 13.2549 7.52955H11.7283C11.6413 6.84269 11.3708 6.217 10.9662 5.6948L12.0482 4.61276C12.2317 4.70215 12.4387 4.75154 12.6551 4.75154C13.4337 4.75154 14.0665 4.11879 14.0665 3.34019C14.0665 2.5616 13.4337 1.92884 12.6551 1.92884C11.8765 1.92884 11.2438 2.5616 11.2438 3.34019C11.2438 3.5566 11.2955 3.7636 11.3825 3.94707L10.3005 5.02911C9.78065 4.62452 9.1526 4.35401 8.4681 4.26698V2.74037C9.01617 2.54513 9.409 2.02529 9.409 1.41135C9.409 0.632755 8.77624 0 7.99765 0C7.21905 0 6.5863 0.632755 6.5863 1.41135C6.5863 2.02529 6.97912 2.54513 7.5272 2.74037V4.26698C6.84269 4.35401 6.21464 4.62452 5.6948 5.02911L4.61276 3.94707C4.70215 3.7636 4.75154 3.5566 4.75154 3.34019C4.75154 2.5616 4.11879 1.92884 3.34019 1.92884C2.5616 1.92884 1.92884 2.5616 1.92884 3.34019C1.92884 4.11879 2.5616 4.75154 3.34019 4.75154C3.5566 4.75154 3.7636 4.69979 3.94707 4.61276L5.02911 5.6948C4.62452 6.21464 4.35401 6.84269 4.26698 7.52955H2.74037C2.54513 6.98148 2.02529 6.58865 1.41135 6.58865C0.632755 6.58865 0 7.22141 0 8C0 8.7786 0.632755 9.41135 1.41135 9.41135C2.02529 9.41135 2.54513 9.01853 2.74037 8.47045H4.26698C4.35401 9.15731 4.62452 9.78301 5.02911 10.3052L3.94707 11.3872C3.7636 11.2979 3.5566 11.2485 3.34019 11.2485C2.5616 11.2485 1.92884 11.8812 1.92884 12.6598C1.92884 13.4384 2.5616 14.0712 3.34019 14.0712C4.11879 14.0712 4.75154 13.4384 4.75154 12.6598C4.75154 12.4434 4.69979 12.2364 4.61276 12.0529L5.6948 10.9709C6.21464 11.3755 6.84269 11.646 7.52955 11.733V13.2596C6.98148 13.4549 6.58865 13.9747 6.58865 14.5887C6.58865 15.3672 7.22141 16 8 16C8.77859 16 9.41135 15.3672 9.41135 14.5887C9.41135 13.9747 9.01852 13.4549 8.47045 13.2596V11.733C9.15731 11.646 9.78301 11.3755 10.3052 10.9709L11.3872 12.0529C11.2979 12.2364 11.2485 12.4434 11.2485 12.6598C11.2485 13.4384 11.8812 14.0712 12.6598 14.0712C13.4384 14.0712 14.0712 13.4384 14.0712 12.6598C14.0712 11.8812 13.4384 11.2485 12.6598 11.2485C12.4434 11.2485 12.2364 11.3002 12.0529 11.3872L10.9709 10.3052C11.3755 9.78536 11.646 9.15731 11.733 8.47045H13.2596C13.4549 9.01853 13.9747 9.41135 14.5887 9.41135C15.3672 9.41135 16 8.7786 16 8C16 7.22141 15.3672 6.58865 14.5887 6.58865H14.5839ZM7.99765 10.8227C6.44046 10.8227 5.17495 9.55719 5.17495 8C5.17495 6.44281 6.44046 5.1773 7.99765 5.1773C9.55484 5.1773 10.8203 6.44281 10.8203 8C10.8203 9.55719 9.55484 10.8227 7.99765 10.8227ZM12.6551 2.8721C12.9138 2.8721 13.1256 3.0838 13.1256 3.34255C13.1256 3.60129 12.9138 3.813 12.6551 3.813C12.3964 3.813 12.1847 3.60129 12.1847 3.34255C12.1847 3.0838 12.3964 2.8721 12.6551 2.8721ZM7.99765 0.943252C8.2564 0.943252 8.4681 1.15495 8.4681 1.4137C8.4681 1.67245 8.2564 1.88415 7.99765 1.88415C7.7389 1.88415 7.5272 1.67245 7.5272 1.4137C7.5272 1.15495 7.7389 0.943252 7.99765 0.943252ZM2.86974 3.34255C2.86974 3.0838 3.08145 2.8721 3.34019 2.8721C3.59894 2.8721 3.81064 3.0838 3.81064 3.34255C3.81064 3.60129 3.59894 3.813 3.34019 3.813C3.08145 3.813 2.86974 3.60129 2.86974 3.34255ZM1.41135 8.47045C1.1526 8.47045 0.9409 8.25875 0.9409 8C0.9409 7.74125 1.1526 7.52955 1.41135 7.52955C1.6701 7.52955 1.8818 7.74125 1.8818 8C1.8818 8.25875 1.6701 8.47045 1.41135 8.47045ZM3.34019 13.1279C3.08145 13.1279 2.86974 12.9162 2.86974 12.6575C2.86974 12.3987 3.08145 12.187 3.34019 12.187C3.59894 12.187 3.81064 12.3987 3.81064 12.6575C3.81064 12.9162 3.59894 13.1279 3.34019 13.1279ZM7.99765 15.0567C7.7389 15.0567 7.5272 14.845 7.5272 14.5863C7.5272 14.3276 7.7389 14.1158 7.99765 14.1158C8.2564 14.1158 8.4681 14.3276 8.4681 14.5863C8.4681 14.845 8.2564 15.0567 7.99765 15.0567ZM13.1256 12.6575C13.1256 12.9162 12.9138 13.1279 12.6551 13.1279C12.3964 13.1279 12.1847 12.9162 12.1847 12.6575C12.1847 12.3987 12.3964 12.187 12.6551 12.187C12.9138 12.187 13.1256 12.3987 13.1256 12.6575ZM14.5839 8.47045C14.3252 8.47045 14.1135 8.25875 14.1135 8C14.1135 7.74125 14.3252 7.52955 14.5839 7.52955C14.8427 7.52955 15.0544 7.74125 15.0544 8C15.0544 8.25875 14.8427 8.47045 14.5839 8.47045Z" fill="black"/>
<path d="M10.2582 2.30758C10.2817 2.32405 10.3099 2.33816 10.3382 2.34992C10.3664 2.36168 10.3946 2.37109 10.4252 2.3758C10.4558 2.38285 10.4863 2.38521 10.5193 2.38521C10.6439 2.38521 10.7616 2.33581 10.8509 2.24878C10.9403 2.15939 10.9874 2.03943 10.9874 1.91476C10.9874 1.88418 10.9874 1.8536 10.9803 1.82302C10.9733 1.79244 10.9639 1.76421 10.9521 1.73599C10.9403 1.70776 10.9262 1.67953 10.9098 1.65366C10.8933 1.62778 10.8721 1.60426 10.8509 1.58309C10.6745 1.40667 10.3593 1.40667 10.1853 1.58309C10.1641 1.60426 10.1429 1.62778 10.1265 1.65366C10.11 1.67953 10.0959 1.70776 10.0841 1.73599C10.0724 1.76421 10.0629 1.79244 10.0559 1.82302C10.0512 1.8536 10.0488 1.88418 10.0488 1.91476C10.0488 2.04178 10.0959 2.15939 10.1853 2.24878C10.2064 2.26995 10.2323 2.28876 10.2582 2.30758Z" fill="black"/>
<path d="M13.9018 5.04556C13.8735 5.05732 13.8477 5.07144 13.8218 5.0879C13.7959 5.10437 13.7724 5.12554 13.7489 5.14671C13.7277 5.16788 13.7089 5.19375 13.6901 5.21728C13.6736 5.24315 13.6595 5.27138 13.6477 5.29961C13.6359 5.32783 13.6265 5.35841 13.6218 5.38664C13.6148 5.41722 13.6124 5.4478 13.6124 5.47838C13.6124 5.51131 13.6124 5.54189 13.6195 5.57247C13.6265 5.60305 13.6359 5.63127 13.6477 5.6595C13.6595 5.68773 13.6736 5.71595 13.6901 5.73948C13.7089 5.76535 13.7277 5.79123 13.7489 5.8124C13.7935 5.85709 13.8453 5.89002 13.9018 5.91354C13.9582 5.93707 14.0194 5.95118 14.0829 5.95118C14.2075 5.95118 14.3252 5.90178 14.4145 5.8124C14.4381 5.79123 14.4569 5.76535 14.4734 5.73948C14.4922 5.71595 14.5063 5.68773 14.518 5.6595C14.5298 5.63127 14.5369 5.60305 14.5439 5.57247C14.5486 5.54189 14.5533 5.51131 14.5533 5.47838C14.5533 5.4478 14.5486 5.41722 14.5439 5.38664C14.5369 5.35841 14.5275 5.32783 14.5157 5.29961C14.5039 5.27138 14.4898 5.24315 14.4734 5.21728C14.4569 5.19375 14.4357 5.16788 14.4145 5.14671C14.3934 5.12554 14.3699 5.10437 14.344 5.0879C14.3181 5.07144 14.2899 5.05732 14.2616 5.04556C14.2334 5.0338 14.2052 5.02439 14.1746 5.01734C14.1135 5.00557 14.0499 5.00557 13.9911 5.01734C13.9606 5.02439 13.93 5.0338 13.9018 5.04556Z" fill="black"/>
<path d="M1.4773 5.65952C1.48906 5.68775 1.50318 5.71598 1.52199 5.7395C1.53846 5.76537 1.55728 5.79125 1.5808 5.81242C1.62549 5.85711 1.67489 5.89004 1.7337 5.91357C1.79015 5.93709 1.84896 5.9512 1.91247 5.9512C1.94305 5.9512 1.97598 5.9465 2.0042 5.94179C2.03478 5.93474 2.06536 5.92533 2.09359 5.91357C2.12182 5.9018 2.14769 5.88769 2.17357 5.87123C2.19944 5.85476 2.22296 5.83359 2.24413 5.81242C2.33352 5.72303 2.38292 5.60542 2.38292 5.4784C2.38292 5.44782 2.38292 5.41724 2.37351 5.38666C2.3688 5.35844 2.35939 5.32786 2.34763 5.29963C2.33587 5.2714 2.32176 5.24317 2.30294 5.2173C2.28647 5.19378 2.26766 5.1679 2.24413 5.14673C2.22296 5.12556 2.19944 5.10439 2.17357 5.08793C2.14769 5.07146 2.12182 5.05735 2.09359 5.04559C2.06536 5.03382 2.03478 5.02442 2.0042 5.01736C1.85131 4.98678 1.689 5.03853 1.5808 5.14673C1.55728 5.1679 1.53846 5.19378 1.52199 5.2173C1.50553 5.24317 1.48906 5.2714 1.4773 5.29963C1.46554 5.32786 1.45848 5.35844 1.45143 5.38666C1.44437 5.41724 1.44202 5.44782 1.44202 5.4784C1.44202 5.51133 1.44202 5.54191 1.45143 5.57249C1.45613 5.60307 1.46554 5.6313 1.4773 5.65952Z" fill="black"/>
<path d="M5.21741 2.30758C5.24093 2.32405 5.26916 2.33816 5.29738 2.34992C5.32561 2.36168 5.35384 2.37109 5.38442 2.3758C5.415 2.38285 5.44558 2.38521 5.47851 2.38521C5.60318 2.38521 5.72079 2.33581 5.81017 2.24878C5.89956 2.15939 5.9466 2.03943 5.9466 1.91476C5.9466 1.88418 5.94425 1.8536 5.93955 1.82302C5.93249 1.79244 5.92308 1.76421 5.91132 1.73599C5.89956 1.70776 5.88545 1.67953 5.86898 1.65366C5.85251 1.62778 5.83134 1.60426 5.81017 1.58309C5.63375 1.40667 5.31855 1.40667 5.14449 1.58309C5.12332 1.60426 5.10215 1.62778 5.08568 1.65366C5.06922 1.67953 5.0551 1.70776 5.04334 1.73599C5.03158 1.76421 5.02217 1.79244 5.01511 1.82302C5.01041 1.8536 5.00806 1.88418 5.00806 1.91476C5.00806 2.04178 5.0551 2.15939 5.14449 2.24878C5.16566 2.26995 5.19153 2.28876 5.21741 2.30758Z" fill="black"/>
<path d="M10.1853 13.7512C10.1641 13.7748 10.1429 13.7983 10.1265 13.8242C10.11 13.85 10.0959 13.8759 10.0841 13.9041C10.0724 13.9324 10.0629 13.9629 10.0559 13.9935C10.0512 14.0241 10.0488 14.0547 10.0488 14.0853C10.0488 14.2099 10.0959 14.3275 10.1853 14.4169C10.2746 14.5063 10.3923 14.5557 10.5193 14.5557C10.5499 14.5557 10.5804 14.5534 10.611 14.5463C10.6392 14.5416 10.6698 14.5322 10.698 14.5204C10.7263 14.5087 10.7545 14.4946 10.778 14.4757C10.8039 14.4593 10.8274 14.4405 10.8509 14.4169C10.9403 14.3275 10.9874 14.2099 10.9874 14.0853C10.9874 13.9606 10.938 13.8406 10.8509 13.7512C10.6745 13.5772 10.3617 13.5772 10.1853 13.7512Z" fill="black"/>
<path d="M5.73961 13.6948C5.71373 13.676 5.6855 13.6619 5.65728 13.6501C5.62905 13.6383 5.59847 13.6289 5.57024 13.6242C5.50909 13.6101 5.44557 13.6101 5.38442 13.6242C5.35619 13.6289 5.32561 13.6383 5.29738 13.6501C5.26916 13.6619 5.24093 13.676 5.21741 13.6948C5.19153 13.7113 5.16566 13.7301 5.14449 13.7513C5.05745 13.8406 5.00806 13.9606 5.00806 14.0853C5.00806 14.2099 5.0551 14.3276 5.14449 14.4169C5.23387 14.5063 5.35149 14.5557 5.47615 14.5557C5.50909 14.5557 5.53966 14.5534 5.57024 14.5463C5.59847 14.5416 5.62905 14.5322 5.65728 14.5204C5.6855 14.5087 5.71138 14.4946 5.73725 14.4757C5.76313 14.4593 5.78665 14.4405 5.81017 14.4169C5.89956 14.3276 5.9466 14.2099 5.9466 14.0853C5.9466 13.9606 5.89721 13.8406 5.81017 13.7513C5.789 13.7301 5.76313 13.7113 5.73961 13.6948Z" fill="black"/>
<path d="M2.24413 10.8533C2.33352 10.7639 2.38292 10.6463 2.38292 10.5216C2.38292 10.4887 2.38292 10.4581 2.37351 10.4275C2.36645 10.3993 2.35939 10.3687 2.34763 10.3405C2.33587 10.3123 2.31941 10.284 2.30294 10.2605C2.28647 10.2346 2.26766 10.2088 2.24413 10.1876C2.22296 10.1664 2.19944 10.1476 2.17357 10.1288C2.14769 10.1123 2.12182 10.0982 2.09359 10.0864C2.06301 10.0747 2.03478 10.0653 2.0042 10.0606C1.85131 10.0276 1.689 10.0794 1.5808 10.1876C1.55728 10.2088 1.53846 10.2346 1.52199 10.2605C1.50553 10.284 1.48906 10.3123 1.4773 10.3405C1.46554 10.3687 1.45848 10.3993 1.45143 10.4275C1.44672 10.4581 1.44202 10.4887 1.44202 10.5216C1.44202 10.6463 1.49141 10.7639 1.5808 10.8533C1.60197 10.8745 1.62549 10.8956 1.65137 10.9121C1.67724 10.9286 1.70547 10.9427 1.7337 10.9544C1.76192 10.9662 1.79015 10.9756 1.82073 10.9827C1.85131 10.9874 1.88189 10.9897 1.91247 10.9897C1.97598 10.9897 2.03478 10.978 2.09359 10.9544C2.15004 10.9309 2.20179 10.898 2.24413 10.8533Z" fill="black"/>
<path d="M14.5157 10.3405C14.5039 10.3123 14.4898 10.284 14.4734 10.2605C14.4569 10.2346 14.4357 10.2088 14.4145 10.1876C14.3934 10.1664 14.3699 10.1476 14.344 10.1288C14.3181 10.1123 14.2899 10.0982 14.2616 10.0864C14.2334 10.0747 14.2052 10.0653 14.1746 10.0606C14.0217 10.0276 13.8594 10.0794 13.7489 10.1876C13.7277 10.2088 13.7089 10.2346 13.6924 10.2605C13.6736 10.284 13.6595 10.3123 13.6477 10.3405C13.6359 10.3687 13.6265 10.3993 13.6218 10.4275C13.6148 10.4581 13.6124 10.4887 13.6124 10.5216C13.6124 10.6463 13.6618 10.7639 13.7489 10.8533C13.8382 10.9427 13.9559 10.9897 14.0829 10.9897C14.144 10.9897 14.2052 10.978 14.2616 10.9544C14.3205 10.9309 14.3699 10.898 14.4145 10.8533C14.5039 10.7639 14.5533 10.6463 14.5533 10.5216C14.5533 10.4887 14.5486 10.4581 14.5439 10.4275C14.5369 10.3993 14.5275 10.3687 14.5157 10.3405Z" fill="black"/>
</svg>
