<svg width="16" height="16" viewBox="0 0 16 16" fill="none" xmlns="http://www.w3.org/2000/svg">
<path d="M15.1822 6.99136L8.32458 0.133724C8.14628 -0.0445746 7.85598 -0.0445746 7.67768 0.133724L0.820047 6.99136C0.733184 7.07822 0.685181 7.19251 0.685181 7.31366V15.5428C0.685181 15.7943 0.89091 16 1.14236 16H14.8576C15.1091 16 15.3148 15.7943 15.3148 15.5428V7.31366C15.3148 7.19251 15.2668 7.07593 15.1799 6.99136H15.1822ZM14.4027 15.0856H1.60182V7.50339L8.00227 1.10294L14.4027 7.50339V15.0856Z" fill="black"/>
<path d="M5.39204 12.082C5.74177 12.4317 6.19895 12.6055 6.65613 12.6055C7.1133 12.6055 7.57276 12.4317 7.9225 12.082L10.613 9.39152C10.9513 9.05321 11.1364 8.60518 11.1364 8.12514C11.1364 7.64511 10.9513 7.19708 10.613 6.86105C10.2747 6.52274 9.82664 6.33759 9.3466 6.33759C8.86657 6.33759 8.41854 6.52274 8.08251 6.86105L5.39204 9.55153C4.69484 10.2487 4.69484 11.3848 5.39204 12.082ZM8.72942 7.50567C8.894 7.34109 9.11344 7.24965 9.34889 7.24965C9.58433 7.24965 9.80149 7.34109 9.96836 7.50567C10.1329 7.67025 10.2244 7.8897 10.2244 8.12514C10.2244 8.36059 10.1329 8.57774 9.96836 8.74461L8.94657 9.7664L7.70992 8.52974L8.7317 7.50795L8.72942 7.50567ZM6.03894 10.1961L7.06073 9.17436L8.29739 10.411L7.2756 11.4328C6.935 11.7734 6.37953 11.7734 6.03894 11.4328C5.87436 11.2682 5.78292 11.0488 5.78292 10.8133C5.78292 10.5779 5.87436 10.3607 6.03894 10.1939V10.1961Z" fill="black"/>
</svg>
