<svg width="16" height="16" viewBox="0 0 16 16" fill="none" xmlns="http://www.w3.org/2000/svg">
<path d="M8.4444 1.77777H7.55551V2.66666H6.66663V3.55555H7.55551V4.44444H8.4444V3.55555H9.33329V2.66666H8.4444V1.77777Z" fill="black"/>
<path d="M15.5556 4.44444H12V0.444444C12 0.2 11.8 0 11.5556 0H4.44444C4.2 0 4 0.2 4 0.444444V4.44444H0.444444C0.2 4.44444 0 4.64444 0 4.88889V15.5556C0 15.8 0.2 16 0.444444 16H15.5556C15.8 16 16 15.8 16 15.5556V4.88889C16 4.64444 15.8 4.44444 15.5556 4.44444ZM7.11111 15.1111V13.3333H8.88889V15.1111H7.11111ZM15.1111 15.1111H9.77778V12.8889C9.77778 12.6444 9.57778 12.4444 9.33333 12.4444H6.66667C6.42222 12.4444 6.22222 12.6444 6.22222 12.8889V15.1111H0.888889V5.33333H4.44444C4.68889 5.33333 4.88889 5.13333 4.88889 4.88889V0.888889H11.1111V4.88889C11.1111 5.13333 11.3111 5.33333 11.5556 5.33333H15.1111V15.1111Z" fill="black"/>
</svg>
