<svg width="16" height="16" viewBox="0 0 16 16" fill="none" xmlns="http://www.w3.org/2000/svg">
<path d="M6.66551 14.4448C6.42107 14.4448 6.22107 14.2448 6.22107 14.0004V6.62936L1.9078 2.31387C1.73447 2.14054 1.73447 1.85832 1.9078 1.68499C2.08113 1.51166 2.36335 1.51166 2.53668 1.68499L6.98106 6.12936C7.0655 6.21381 7.11217 6.32492 7.11217 6.44269V13.9981C7.11217 14.2426 6.91217 14.4426 6.66773 14.4426L6.66551 14.4448Z" fill="black"/>
<path d="M4.8877 8.66708C4.77437 8.66708 4.66104 8.62263 4.57437 8.53597L0.129998 4.09159C-0.0433327 3.91826 -0.0433327 3.63604 0.129998 3.46271C0.303329 3.28938 0.585547 3.28938 0.758877 3.46271L5.20325 7.90709C5.37658 8.08042 5.37658 8.36264 5.20325 8.53597C5.11659 8.62263 5.00326 8.66708 4.88993 8.66708H4.8877Z" fill="black"/>
<path d="M9.33212 14.4448C9.08768 14.4448 8.88768 14.2448 8.88768 14.0004V6.44493C8.88768 6.32715 8.93435 6.21382 9.01879 6.1316L13.4632 1.68723C13.6365 1.51389 13.9187 1.51389 14.092 1.68723C14.2654 1.86056 14.2654 2.14277 14.092 2.3161L9.77878 6.62937V14.0004C9.77878 14.2448 9.57878 14.4448 9.33434 14.4448H9.33212Z" fill="black"/>
<path d="M11.11 8.66712C10.9967 8.66712 10.8834 8.62268 10.7967 8.53601C10.6234 8.36268 10.6234 8.08047 10.7967 7.90713L15.2411 3.46276C15.4144 3.28943 15.6966 3.28943 15.87 3.46276C16.0433 3.63609 16.0433 3.91831 15.87 4.09164L11.4256 8.53601C11.3389 8.62268 11.2256 8.66712 11.1123 8.66712H11.11Z" fill="black"/>
</svg>
