<svg width="16" height="16" viewBox="0 0 16 16" fill="none" xmlns="http://www.w3.org/2000/svg">
<path d="M13.3333 10.6667H11.9999V10.2222C11.9999 9.97778 11.7999 9.77778 11.5555 9.77778H8.44439V2.22222C8.44439 1.97778 8.24439 1.77778 7.99995 1.77778H7.5555V0.444444C7.5555 0.2 7.3555 0 7.11106 0H3.5555C3.31106 0 3.11106 0.2 3.11106 0.444444V1.77778H2.66661C2.42217 1.77778 2.22217 1.97778 2.22217 2.22222V13.3733C2.22217 14.8222 3.39995 16 4.84883 16H11.5555C11.7999 16 11.9999 15.8 11.9999 15.5556V15.1111H13.3333C13.5777 15.1111 13.7777 14.9111 13.7777 14.6667V11.1111C13.7777 10.8667 13.5777 10.6667 13.3333 10.6667ZM3.99995 0.888889H6.66661V1.77778H3.99995V0.888889ZM11.1111 15.1111H4.84883C3.89106 15.1111 3.11106 14.3311 3.11106 13.3733V2.66667H7.5555V10.2222C7.5555 10.4667 7.7555 10.6667 7.99995 10.6667H11.1111V15.1111ZM12.8888 14.2222H11.9999V11.5556H12.8888V14.2222Z" fill="black"/>
</svg>
