<svg width="16" height="16" viewBox="0 0 16 16" fill="none" xmlns="http://www.w3.org/2000/svg">
<path d="M3.9101 3.7837C4.15016 3.73702 4.30797 3.50363 4.26129 3.26357C4.23684 3.13687 4.22351 3.01017 4.22351 2.88125C4.22351 2.75233 4.23684 2.62564 4.26129 2.49894C4.28574 2.37224 4.32353 2.24777 4.37021 2.12996C4.41911 2.00993 4.48135 1.89213 4.55248 1.78321C4.62583 1.66985 4.71251 1.56538 4.80809 1.4698C4.90367 1.37422 5.01036 1.28753 5.1215 1.21418C5.23042 1.14306 5.34822 1.08082 5.46825 1.03192C5.58828 0.983016 5.71053 0.947452 5.83723 0.923002C6.0884 0.874101 6.34847 0.874101 6.59964 0.923002C6.72634 0.947452 6.85081 0.985239 6.96862 1.03192C7.08865 1.08082 7.20645 1.14306 7.31537 1.21418C7.42651 1.28753 7.5332 1.37422 7.62878 1.4698C7.72436 1.56538 7.81104 1.66985 7.8844 1.78321C7.95552 1.89213 8.01776 2.00993 8.06666 2.12996C8.11556 2.24999 8.15113 2.37447 8.17558 2.50116C8.20003 2.62786 8.21336 2.75456 8.21336 2.88348C8.21336 3.0124 8.20003 3.1391 8.17558 3.26579C8.1289 3.50585 8.28672 3.73924 8.52677 3.78592C8.55567 3.79036 8.58457 3.79481 8.61124 3.79481C8.82018 3.79481 9.00689 3.64811 9.0469 3.43472C9.08246 3.25246 9.10025 3.06797 9.10025 2.88348C9.10025 2.69899 9.08246 2.5145 9.0469 2.33223C9.01134 2.14997 8.95799 1.96992 8.88908 1.79655C8.81796 1.62095 8.72905 1.45424 8.62458 1.2942C8.51788 1.13194 8.39341 0.978571 8.2556 0.842982C8.11779 0.705171 7.96664 0.580697 7.80215 0.474004C7.64434 0.369534 7.47541 0.280624 7.29981 0.209495C7.12866 0.14059 6.94861 0.0872434 6.76412 0.0516792C6.40181 -0.0172264 6.02617 -0.0172264 5.66386 0.0516792C5.48159 0.0872434 5.30155 0.14059 5.12817 0.209495C4.95257 0.280624 4.78364 0.369534 4.62583 0.474004C4.46356 0.580697 4.31242 0.705171 4.17461 0.842982C4.03679 0.980794 3.91232 1.13194 3.80563 1.29643C3.70116 1.45424 3.61225 1.62317 3.54112 1.79877C3.47221 1.97215 3.41887 2.14997 3.3833 2.33446C3.34774 2.5145 3.32996 2.70121 3.32996 2.8857C3.32996 3.07019 3.34774 3.25468 3.3833 3.43695C3.42998 3.677 3.66115 3.83482 3.90343 3.78814L3.9101 3.7837Z" fill="black"/>
<path d="M11.1118 7.10898H7.55539V3.10801C7.55539 2.37228 6.95746 1.77435 6.22173 1.77435C5.486 1.77435 4.88807 2.37228 4.88807 3.10801V7.10898C3.90783 7.10898 3.10986 7.90695 3.10986 8.88719V14.2218C3.10986 15.2021 3.90783 16 4.88807 16H11.1118C12.092 16 12.89 15.2021 12.89 14.2218V8.88719C12.89 7.90695 12.092 7.10898 11.1118 7.10898ZM12.0009 14.2218C12.0009 14.713 11.603 15.1109 11.1118 15.1109H4.88807C4.39684 15.1109 3.99897 14.713 3.99897 14.2218V8.88719C3.99897 8.39596 4.39684 7.99809 4.88807 7.99809V10.6654C4.88807 10.9099 5.0859 11.11 5.33263 11.11C5.57935 11.11 5.77718 10.9099 5.77718 10.6654V3.10801C5.77718 2.86351 5.97723 2.66346 6.22395 2.66346C6.47068 2.66346 6.6685 2.86351 6.6685 3.10801V7.55353V8.88719C6.6685 9.13169 6.86855 9.33174 7.11306 9.33174C7.35756 9.33174 7.55761 9.13169 7.55761 8.88719V7.99809H8.44671V8.88719C8.44671 9.13169 8.64676 9.33174 8.89127 9.33174C9.13577 9.33174 9.33582 9.13169 9.33582 8.88719V7.99809H10.2249V8.88719C10.2249 9.13169 10.425 9.33174 10.6695 9.33174C10.914 9.33174 11.114 9.13169 11.114 8.88719V7.99809C11.6053 7.99809 12.0031 8.39596 12.0031 8.88719V14.2218H12.0009Z" fill="black"/>
</svg>
