<svg width="16" height="16" viewBox="0 0 16 16" fill="none" xmlns="http://www.w3.org/2000/svg">
<path d="M15.8601 4.19854L13.1547 1.4932C12.9682 1.30663 12.6644 1.30663 12.4778 1.4932L9.77246 4.19854L5.34968 8.62132C4.03887 7.64061 2.17073 7.74107 0.979519 8.93228C-0.326506 10.2383 -0.326506 12.3624 0.979519 13.6684C1.63253 14.3214 2.48886 14.6467 3.34759 14.6467C4.20631 14.6467 5.06264 14.3214 5.71565 13.6684C6.34714 13.0369 6.69637 12.195 6.69637 11.3003C6.69637 10.5684 6.45956 9.87233 6.02661 9.29825L10.1121 5.21274L12.4802 7.58081C12.5735 7.6741 12.6955 7.72194 12.8175 7.72194C12.9395 7.72194 13.0614 7.6741 13.1547 7.58081C13.3413 7.39423 13.3413 7.09045 13.1547 6.90388L10.7867 4.53581L12.8175 2.50501L15.1855 4.87308C15.2788 4.96637 15.4008 5.01421 15.5228 5.01421C15.6448 5.01421 15.7668 4.96637 15.8601 4.87308C16.0466 4.68651 16.0466 4.38272 15.8601 4.19615V4.19854ZM5.03633 12.9939C4.10345 13.9267 2.58693 13.9267 1.65406 12.9939C0.721184 12.061 0.721184 10.5445 1.65406 9.61161C2.1205 9.14517 2.73284 8.91315 3.34519 8.91315C3.95754 8.91315 4.56989 9.14756 5.03633 9.61161C5.48841 10.0637 5.73718 10.6641 5.73718 11.3027C5.73718 11.9414 5.48841 12.5418 5.03633 12.9939Z" fill="black"/>
</svg>
