<svg width="16" height="16" viewBox="0 0 16 16" fill="none" xmlns="http://www.w3.org/2000/svg">
<path d="M14.5519 14.198C14.5474 14.1869 14.5408 14.1736 14.5341 14.1625L9.77919 5.66144V2.59075C10.2969 2.40633 10.668 1.91307 10.668 1.33315C10.668 0.597695 10.0703 0 9.33481 0H6.66851C5.93306 0 5.33536 0.597695 5.33536 1.33315C5.33536 1.91307 5.70642 2.40633 6.22413 2.59075V5.66144L1.46923 14.1647C1.46257 14.1758 1.4559 14.1891 1.45146 14.2002C1.31148 14.5113 1.30259 14.8579 1.4248 15.1779C1.547 15.4956 1.78475 15.7489 2.09581 15.8889C2.26024 15.9622 2.43799 16 2.61796 16H13.3831C13.7231 16 14.043 15.8667 14.2852 15.6267C14.5274 15.3868 14.6607 15.0646 14.6607 14.7246C14.6607 14.5424 14.623 14.3669 14.5496 14.2002L14.5519 14.198ZM7.05735 5.99472C7.09512 5.92807 7.11289 5.85474 7.11289 5.77698V2.22191C7.11289 1.9775 6.91292 1.77753 6.66851 1.77753C6.4241 1.77753 6.22413 1.57756 6.22413 1.33315C6.22413 1.08874 6.4241 0.888765 6.66851 0.888765H9.33481C9.57922 0.888765 9.77919 1.08874 9.77919 1.33315C9.77919 1.57756 9.57922 1.77753 9.33481 1.77753C9.0904 1.77753 8.89043 1.9775 8.89043 2.22191V5.77698C8.89043 5.85252 8.91042 5.92807 8.94597 5.99472L9.96361 7.81447H6.03749L7.05512 5.99472H7.05735ZM13.3854 15.109H2.62019C2.56464 15.109 2.51131 15.0979 2.46021 15.0757C2.36467 15.0335 2.29356 14.9557 2.25579 14.8602C2.22024 14.7691 2.22246 14.6691 2.25579 14.578L5.53978 8.70546H10.4591L13.7431 14.578C13.7609 14.6246 13.7697 14.6735 13.7697 14.7224C13.7697 14.9357 13.5942 15.1112 13.3809 15.1112L13.3854 15.109Z" fill="black"/>
<path d="M6.25723 11.1051C5.37068 11.1051 4.64856 11.8272 4.64856 12.716C4.64856 13.6048 5.37068 14.3247 6.25723 14.3247C7.14377 14.3247 7.86811 13.6025 7.86811 12.716C7.86811 11.8294 7.14599 11.1051 6.25723 11.1051ZM6.25723 13.4359C5.8595 13.4359 5.53733 13.1115 5.53733 12.716C5.53733 12.3205 5.86172 11.9939 6.25723 11.9939C6.65273 11.9939 6.97935 12.3183 6.97935 12.716C6.97935 13.1137 6.65495 13.4359 6.25723 13.4359Z" fill="black"/>
<path d="M9.26124 9.25873C8.5569 9.25873 7.98364 9.83198 7.98364 10.5363C7.98364 11.2407 8.5569 11.8139 9.26124 11.8139C9.96559 11.8139 10.5388 11.2407 10.5388 10.5363C10.5388 9.83198 9.96559 9.25873 9.26124 9.25873ZM9.26124 10.9229C9.04794 10.9229 8.87241 10.7496 8.87241 10.5341C8.87241 10.3186 9.04572 10.1453 9.26124 10.1453C9.47677 10.1453 9.65008 10.3186 9.65008 10.5341C9.65008 10.7496 9.47677 10.9229 9.26124 10.9229Z" fill="black"/>
</svg>
