<svg width="16" height="16" viewBox="0 0 16 16" fill="none" xmlns="http://www.w3.org/2000/svg">
<path d="M14.2222 2.66669H1.77778C0.797778 2.66669 0 3.46446 0 4.44446V11.5556C0 12.5356 0.797778 13.3334 1.77778 13.3334H14.2222C15.2022 13.3334 16 12.5356 16 11.5556V4.44446C16 3.46446 15.2022 2.66669 14.2222 2.66669ZM15.1111 11.5556C15.1111 12.0467 14.7133 12.4445 14.2222 12.4445H1.77778C1.28667 12.4445 0.888889 12.0467 0.888889 11.5556V4.44446C0.888889 3.95335 1.28667 3.55558 1.77778 3.55558H14.2222C14.7133 3.55558 15.1111 3.95335 15.1111 4.44446V11.5556Z" fill="black"/>
<path d="M2.22215 8.88884C2.4666 8.88884 2.6666 8.68884 2.6666 8.4444C2.6666 7.70884 3.26438 7.11106 3.99993 7.11106C4.73549 7.11106 5.33327 7.70884 5.33327 8.4444C5.33327 8.68884 5.53327 8.88884 5.77771 8.88884C6.02215 8.88884 6.22215 8.68884 6.22215 8.4444C6.22215 7.62217 5.77327 6.9044 5.1066 6.51995C5.24882 6.30662 5.33327 6.05106 5.33327 5.77773C5.33327 5.04217 4.73549 4.4444 3.99993 4.4444C3.26438 4.4444 2.6666 5.04217 2.6666 5.77773C2.6666 6.05329 2.75104 6.30884 2.89327 6.51995C2.22882 6.9044 1.77771 7.62217 1.77771 8.4444C1.77771 8.68884 1.97771 8.88884 2.22215 8.88884ZM3.55549 5.77773C3.55549 5.53329 3.75549 5.33329 3.99993 5.33329C4.24438 5.33329 4.44438 5.53329 4.44438 5.77773C4.44438 6.02217 4.24438 6.22217 3.99993 6.22217C3.75549 6.22217 3.55549 6.02217 3.55549 5.77773Z" fill="black"/>
<path d="M13.7777 9.77771H2.22215C1.97771 9.77771 1.77771 9.97771 1.77771 10.2222C1.77771 10.4666 1.97771 10.6666 2.22215 10.6666H13.7777C14.0222 10.6666 14.2222 10.4666 14.2222 10.2222C14.2222 9.97771 14.0222 9.77771 13.7777 9.77771Z" fill="black"/>
<path d="M13.7776 7.55554H7.99986C7.75542 7.55554 7.55542 7.75554 7.55542 7.99999C7.55542 8.24443 7.75542 8.44443 7.99986 8.44443H13.7776C14.0221 8.44443 14.2221 8.24443 14.2221 7.99999C14.2221 7.75554 14.0221 7.55554 13.7776 7.55554Z" fill="black"/>
<path d="M13.7776 5.33331H7.99986C7.75542 5.33331 7.55542 5.53331 7.55542 5.77776C7.55542 6.0222 7.75542 6.2222 7.99986 6.2222H13.7776C14.0221 6.2222 14.2221 6.0222 14.2221 5.77776C14.2221 5.53331 14.0221 5.33331 13.7776 5.33331Z" fill="black"/>
</svg>
