<svg width="16" height="16" viewBox="0 0 16 16" fill="none" xmlns="http://www.w3.org/2000/svg">
<path d="M16 8C16 6.43778 15.5467 4.97778 14.7689 3.74444L14.7778 3.73556L14.5644 3.43111C14.2911 3.03778 13.9844 2.67333 13.6556 2.34444C13.3267 2.01556 12.96 1.70889 12.5689 1.43556L12.2644 1.22222L12.2556 1.23111C11.0222 0.453333 9.56444 0 8 0C6.43556 0 4.97778 0.453333 3.74444 1.23111L3.73556 1.22222L3.43111 1.43556C3.03778 1.70889 2.67333 2.01556 2.34444 2.34444C2.01556 2.67333 1.71111 3.03778 1.43556 3.43111L1.22222 3.73556L1.23111 3.74444C0.453333 4.97778 0 6.43556 0 8C0 9.56444 0.453333 11.0222 1.23111 12.2556L1.22222 12.2644L1.43556 12.5689C1.70889 12.9622 2.01556 13.3289 2.34444 13.6556C2.67333 13.9844 3.04 14.2911 3.43111 14.5644L3.73556 14.7778L3.74444 14.7689C4.97778 15.5467 6.43556 16 8 16C9.56444 16 11.0222 15.5467 12.2556 14.7689L12.2644 14.7778L12.5689 14.5644C12.96 14.2911 13.3267 13.9867 13.6556 13.6556C13.9844 13.3267 14.2889 12.9622 14.5644 12.5689L14.7778 12.2644L14.7689 12.2556C15.5467 11.0222 16 9.56444 16 8ZM15.1111 8C15.1111 9.31778 14.7489 10.5511 14.1244 11.6089L12.4778 9.96222C12.7422 9.36222 12.8911 8.69778 12.8911 8C12.8911 7.30222 12.7422 6.63778 12.4778 6.03778L14.1244 4.39111C14.7511 5.44889 15.1111 6.68444 15.1111 8ZM13.5178 12.4778C13.4956 12.5044 13.4733 12.5333 13.4511 12.56C13.18 12.8822 12.8822 13.18 12.56 13.4511C12.5333 13.4733 12.5067 13.4956 12.4778 13.5178C12.4378 13.5511 12.3978 13.5822 12.3556 13.6133L10.7689 12.0267C10.7956 12.0089 10.82 11.9867 10.8444 11.9689C10.9133 11.92 10.98 11.8689 11.0444 11.8178C11.0978 11.7756 11.1511 11.7311 11.2022 11.6844C11.26 11.6333 11.3156 11.5822 11.3711 11.5289C11.3978 11.5044 11.4267 11.48 11.4511 11.4556C11.4778 11.4289 11.5022 11.3978 11.5289 11.3711C11.58 11.3156 11.6311 11.26 11.6822 11.2044C11.7267 11.1533 11.7689 11.1022 11.8111 11.0489C11.8644 10.9822 11.9156 10.9156 11.9644 10.8444C11.9822 10.8178 12.0044 10.7956 12.0222 10.7689L13.6089 12.3556C13.5778 12.3956 13.5467 12.4378 13.5133 12.4778H13.5178ZM10.5378 11.0889C10.4467 11.1644 10.3511 11.2333 10.2533 11.3C10.24 11.3089 10.2267 11.3178 10.2133 11.3267C10.12 11.3889 10.0267 11.4467 9.92889 11.5C9.91778 11.5067 9.90667 11.5133 9.89333 11.52C9.32889 11.8244 8.68444 11.9978 7.99778 11.9978C7.31111 11.9978 6.66667 11.8244 6.10222 11.52C6.09111 11.5133 6.08 11.5067 6.06667 11.5C5.96889 11.4467 5.87333 11.3889 5.78222 11.3267C5.76889 11.3178 5.75556 11.3089 5.74222 11.3C5.64444 11.2333 5.54889 11.1622 5.45778 11.0889C5.45778 11.0889 5.45333 11.0844 5.45111 11.0844C5.25556 10.9222 5.07556 10.7422 4.91333 10.5467C4.91111 10.5444 4.90889 10.54 4.90667 10.5378C4.83333 10.4467 4.76222 10.3533 4.69556 10.2556C4.68667 10.2422 4.67778 10.2289 4.66667 10.2133C4.60444 10.1222 4.54667 10.0267 4.49333 9.92889C4.48667 9.91778 4.48 9.90667 4.47333 9.89333C4.16889 9.32889 3.99556 8.68444 3.99556 7.99778C3.99556 7.31111 4.16889 6.66667 4.47556 6.1C4.48 6.09111 4.48667 6.08222 4.49111 6.07111C4.54667 5.97333 4.60444 5.87556 4.66667 5.78222C4.67556 5.76889 4.68444 5.75333 4.69556 5.74C4.76222 5.64444 4.83111 5.55111 4.90444 5.46222C4.90889 5.45778 4.91111 5.45333 4.91556 5.44889C5.07778 5.25333 5.25556 5.07556 5.45111 4.91333C5.45556 4.90889 5.46 4.90667 5.46444 4.90222C5.55333 4.82889 5.64667 4.76 5.74222 4.69556C5.75778 4.68444 5.77111 4.67556 5.78667 4.66444C5.87778 4.60444 5.97111 4.54667 6.06889 4.49333C6.08 4.48667 6.09333 4.48 6.10444 4.47333C6.66889 4.16889 7.31333 3.99556 7.99778 3.99556C8.68222 3.99556 9.32889 4.16889 9.89333 4.47333C9.90444 4.48 9.91778 4.48667 9.92889 4.49333C10.0267 4.54667 10.12 4.60444 10.2111 4.66444C10.2267 4.67333 10.24 4.68444 10.2556 4.69333C10.3511 4.75778 10.4444 4.82667 10.5333 4.9C10.5378 4.90444 10.5422 4.90667 10.5467 4.91111C10.7422 5.07111 10.92 5.25111 11.0822 5.44667C11.0867 5.45111 11.0911 5.45778 11.0956 5.46222C11.1689 5.55111 11.2356 5.64222 11.3 5.73778C11.3111 5.75333 11.32 5.76667 11.3311 5.78222C11.3911 5.87333 11.4489 5.96667 11.5022 6.06444C11.5089 6.07556 11.5156 6.08889 11.5222 6.1C11.8267 6.66444 12 7.30889 12 7.99556C12 8.68222 11.8267 9.32667 11.5222 9.89111C11.5156 9.90222 11.5089 9.91333 11.5022 9.92667C11.4489 10.0244 11.3911 10.1178 11.3289 10.2111C11.32 10.2244 11.3111 10.2378 11.3 10.2533C11.2333 10.3511 11.1644 10.4444 11.0889 10.5356C11.0867 10.5378 11.0844 10.5422 11.0822 10.5444C10.92 10.74 10.74 10.92 10.5444 11.0822C10.5444 11.0822 10.54 11.0867 10.5378 11.0867V11.0889ZM5.22889 12.0289L3.64222 13.6156C3.60222 13.5844 3.56 13.5533 3.52 13.52C3.49333 13.4978 3.46667 13.4756 3.43778 13.4533C3.11556 13.1844 2.81778 12.8867 2.54889 12.5644C2.52667 12.5378 2.50222 12.5089 2.48 12.4822C2.44667 12.4422 2.41556 12.4022 2.38444 12.3622L3.97111 10.7756C3.98889 10.8022 4.01111 10.8267 4.02889 10.8511C4.07778 10.92 4.12889 10.9889 4.18222 11.0556C4.22444 11.1089 4.26667 11.16 4.31111 11.2111C4.36 11.2689 4.41111 11.3244 4.46444 11.3778C4.49111 11.4044 4.51333 11.4356 4.54222 11.4622C4.56889 11.4889 4.59778 11.5111 4.62222 11.5356C4.67778 11.5889 4.73333 11.64 4.79111 11.6911C4.84222 11.7356 4.89556 11.78 4.94889 11.8244C5.01333 11.8778 5.08222 11.9267 5.14889 11.9756C5.17556 11.9933 5.2 12.0156 5.22444 12.0333L5.22889 12.0289ZM4.02889 5.15333C4.01111 5.18 3.98889 5.20222 3.97111 5.22889L2.38444 3.64222C2.41556 3.60222 2.44444 3.56444 2.47556 3.52444C2.5 3.49333 2.52444 3.46444 2.55111 3.43333C2.82 3.11333 3.11556 2.81778 3.43556 2.54889C3.46222 2.52667 3.49111 2.50222 3.51778 2.48C3.55778 2.44667 3.59778 2.41556 3.63778 2.38444L5.22444 3.97111C5.19778 3.98889 5.17556 4.00889 5.14889 4.02889C5.07778 4.08 5.01111 4.13111 4.94222 4.18444C4.89111 4.22444 4.84222 4.26667 4.79333 4.30889C4.73333 4.36222 4.67333 4.41556 4.61556 4.47111C4.59111 4.49556 4.56444 4.51556 4.54 4.54C4.51556 4.56667 4.49111 4.59333 4.46667 4.62C4.41333 4.67778 4.36 4.73556 4.30889 4.79333C4.26667 4.84222 4.22444 4.89333 4.18222 4.94444C4.12889 5.01111 4.07556 5.08 4.02667 5.15111L4.02889 5.15333ZM10.7711 3.97111L12.3578 2.38444C12.3978 2.41556 12.44 2.44667 12.4778 2.48C12.5067 2.50222 12.5333 2.52667 12.56 2.54889C12.8822 2.81778 13.18 3.11556 13.4489 3.43778C13.4711 3.46444 13.4956 3.49333 13.5178 3.52C13.5511 3.56 13.5822 3.6 13.6133 3.64222L12.0267 5.22889C12.0089 5.20222 11.9889 5.18 11.9689 5.15333C11.9178 5.08222 11.8644 5.01333 11.8111 4.94444C11.7711 4.89556 11.7311 4.84667 11.6889 4.8C11.6356 4.73778 11.58 4.67778 11.5244 4.61778C11.5 4.59333 11.48 4.56667 11.4556 4.54222C11.4311 4.51778 11.4044 4.49778 11.38 4.47333C11.3222 4.41778 11.2622 4.36222 11.2022 4.31111C11.1533 4.26889 11.1022 4.22667 11.0533 4.18667C10.9867 4.13333 10.9178 4.08 10.8467 4.03111C10.82 4.01333 10.7978 3.99111 10.7711 3.97333V3.97111ZM8 0.888889C9.31778 0.888889 10.5511 1.25111 11.6089 1.87556L9.96222 3.52222C9.36222 3.25778 8.69778 3.10889 8 3.10889C7.30222 3.10889 6.63778 3.25778 6.03778 3.52222L4.39111 1.87556C5.44889 1.24889 6.68444 0.888889 8 0.888889ZM0.888889 8C0.888889 6.68222 1.25111 5.44889 1.87556 4.39111L3.52222 6.03778C3.25778 6.63778 3.10889 7.30222 3.10889 8C3.10889 8.69778 3.25778 9.36222 3.52222 9.96222L1.87556 11.6089C1.24889 10.5511 0.888889 9.31556 0.888889 8ZM8 15.1111C6.68222 15.1111 5.44889 14.7511 4.39111 14.1244L6.03778 12.4778C6.63778 12.7422 7.30222 12.8911 8 12.8911C8.69778 12.8911 9.36222 12.7422 9.96222 12.4778L11.6089 14.1244C10.5511 14.7511 9.31556 15.1111 8 15.1111Z" fill="black"/>
</svg>
