<svg width="16" height="16" viewBox="0 0 16 16" fill="none" xmlns="http://www.w3.org/2000/svg">
<path d="M8.00001 0C4.93557 0 2.44446 2.49111 2.44446 5.55556C2.44446 7.57778 3.5689 9.46222 5.33335 10.4311V13.7778C5.33335 15.0022 6.33113 16 7.55557 16H8.44446C9.6689 16 10.6667 15.0022 10.6667 13.7778V10.4311C12.4311 9.46222 13.5556 7.58 13.5556 5.55556C13.5556 2.49111 11.0645 0 8.00001 0ZM9.77779 13.3333H6.22224V12.4444H9.77779V13.3333ZM8.44446 15.1111H7.55557C6.97557 15.1111 6.48446 14.74 6.30001 14.2222H9.70001C9.51557 14.74 9.02446 15.1111 8.44446 15.1111ZM10.0289 9.76C9.87557 9.83333 9.77779 9.98889 9.77779 10.16V11.5556H6.22224V10.16C6.22224 9.98889 6.12446 9.83333 5.97113 9.76C4.3689 8.98444 3.33335 7.33556 3.33335 5.55556C3.33335 2.98222 5.42668 0.888889 8.00001 0.888889C10.5733 0.888889 12.6667 2.98222 12.6667 5.55556C12.6667 7.33333 11.6311 8.98444 10.0289 9.76Z" fill="black"/>
</svg>
