<svg width="16" height="16" viewBox="0 0 16 16" fill="none" xmlns="http://www.w3.org/2000/svg">
<path d="M2.6666 11.1111C2.77993 11.1111 2.89327 11.0667 2.97993 10.98L6.6666 7.29332L9.01993 9.64666C9.19327 9.81999 9.47549 9.81999 9.64882 9.64666L12.891 6.40444V7.99777C12.891 8.24221 13.091 8.44221 13.3355 8.44221C13.5799 8.44221 13.7799 8.24221 13.7799 7.99777V5.3311C13.7799 5.30221 13.7777 5.27332 13.771 5.24444C13.7688 5.2311 13.7644 5.21777 13.7599 5.20666C13.7555 5.1911 13.751 5.17777 13.7466 5.16221C13.7399 5.14666 13.731 5.13332 13.7244 5.11777C13.7177 5.10666 13.7133 5.09555 13.7066 5.08444C13.6733 5.03555 13.6333 4.99332 13.5844 4.96221C13.5733 4.95555 13.5599 4.94888 13.5488 4.94221C13.5355 4.93555 13.5222 4.92666 13.5066 4.91999C13.491 4.91332 13.4755 4.9111 13.4599 4.90666C13.4466 4.90221 13.4355 4.89777 13.4222 4.89555C13.3933 4.88888 13.3644 4.88666 13.3355 4.88666H10.6688C10.4244 4.88666 10.2244 5.08666 10.2244 5.3311C10.2244 5.57555 10.4244 5.77555 10.6688 5.77555H12.2622L9.33549 8.70221L6.98215 6.34888C6.80882 6.17555 6.5266 6.17555 6.35327 6.34888L2.35327 10.3489C2.17993 10.5222 2.17993 10.8044 2.35327 10.9778C2.43993 11.0644 2.55327 11.1089 2.6666 11.1089V11.1111Z" fill="black"/>
<path d="M15.5556 15.1111H0.888889V0.444444C0.888889 0.2 0.688889 0 0.444444 0C0.2 0 0 0.2 0 0.444444V15.5556C0 15.8 0.2 16 0.444444 16H15.5556C15.8 16 16 15.8 16 15.5556C16 15.3111 15.8 15.1111 15.5556 15.1111Z" fill="black"/>
</svg>
