<svg width="16" height="16" viewBox="0 0 16 16" fill="none" xmlns="http://www.w3.org/2000/svg">
<path d="M2.6666 11.1111C2.55327 11.1111 2.43993 11.0666 2.35327 10.98C2.17993 10.8066 2.17993 10.5244 2.35327 10.3511L6.35327 6.35109C6.5266 6.17776 6.80882 6.17776 6.98215 6.35109L9.33549 8.70442L13.0222 5.01776C13.1955 4.84442 13.4777 4.84442 13.651 5.01776C13.8244 5.19109 13.8244 5.47331 13.651 5.64665L9.65104 9.64665C9.47771 9.81998 9.19549 9.81998 9.02215 9.64665L6.66882 7.29331L2.98216 10.98C2.89549 11.0666 2.78216 11.1111 2.66882 11.1111H2.6666Z" fill="black"/>
<path d="M15.5556 16H0.444444C0.2 16 0 15.8 0 15.5556V0.444444C0 0.2 0.2 0 0.444444 0C0.688889 0 0.888889 0.2 0.888889 0.444444V15.1111H15.5556C15.8 15.1111 16 15.3111 16 15.5556C16 15.8 15.8 16 15.5556 16Z" fill="black"/>
</svg>
