<svg width="16" height="16" viewBox="0 0 16 16" fill="none" xmlns="http://www.w3.org/2000/svg">
<path d="M6.35322 9.64665C6.52655 9.81998 6.80877 9.81998 6.98211 9.64665L9.33544 7.29331L12.2621 10.22H10.6688C10.4243 10.22 10.2243 10.42 10.2243 10.6644C10.2243 10.9089 10.4243 11.1089 10.6688 11.1089H13.3354C13.3643 11.1089 13.3932 11.1066 13.4221 11.1C13.4354 11.0978 13.4466 11.0933 13.4599 11.0889C13.4754 11.0844 13.491 11.08 13.5043 11.0755C13.5199 11.0689 13.5332 11.06 13.5466 11.0533C13.5577 11.0466 13.571 11.0422 13.5799 11.0355C13.6288 11.0022 13.671 10.96 13.7021 10.9133C13.7088 10.9022 13.7132 10.8911 13.7199 10.88C13.7288 10.8666 13.7354 10.8511 13.7421 10.8355C13.7488 10.82 13.751 10.8066 13.7554 10.7911C13.7599 10.7778 13.7643 10.7666 13.7666 10.7533C13.7732 10.7244 13.7754 10.6955 13.7754 10.6666V7.99998C13.7754 7.75553 13.5754 7.55553 13.331 7.55553C13.0866 7.55553 12.8866 7.75553 12.8866 7.99998V9.59331L9.64433 6.35109C9.471 6.17776 9.18878 6.17776 9.01544 6.35109L6.66211 8.70442L2.97544 5.01776C2.80211 4.84442 2.51989 4.84442 2.34655 5.01776C2.17322 5.19109 2.17322 5.47331 2.34655 5.64665L6.34655 9.64665H6.35322Z" fill="black"/>
<path d="M15.5556 15.1111H0.888889V0.444444C0.888889 0.2 0.688889 0 0.444444 0C0.2 0 0 0.2 0 0.444444V15.5556C0 15.8 0.2 16 0.444444 16H15.5556C15.8 16 16 15.8 16 15.5556C16 15.3111 15.8 15.1111 15.5556 15.1111Z" fill="black"/>
</svg>
