<svg width="16" height="16" viewBox="0 0 16 16" fill="none" xmlns="http://www.w3.org/2000/svg">
<path d="M6.66661 5.77783C6.42217 5.77783 6.22217 5.97783 6.22217 6.22228C6.22217 6.46672 6.42217 6.66672 6.66661 6.66672H11.1111C11.3555 6.66672 11.5555 6.46672 11.5555 6.22228C11.5555 5.97783 11.3555 5.77783 11.1111 5.77783H6.66661Z" fill="black"/>
<path d="M11.1111 8H6.66661C6.42217 8 6.22217 8.2 6.22217 8.44444C6.22217 8.68889 6.42217 8.88889 6.66661 8.88889H11.1111C11.3555 8.88889 11.5555 8.68889 11.5555 8.44444C11.5555 8.2 11.3555 8 11.1111 8Z" fill="black"/>
<path d="M11.1111 10.2223H6.66661C6.42217 10.2223 6.22217 10.4223 6.22217 10.6667C6.22217 10.9112 6.42217 11.1112 6.66661 11.1112H11.1111C11.3555 11.1112 11.5555 10.9112 11.5555 10.6667C11.5555 10.4223 11.3555 10.2223 11.1111 10.2223Z" fill="black"/>
<path d="M5.30014 10.4955C5.28902 10.4688 5.27347 10.4444 5.25791 10.42C5.24236 10.3955 5.22458 10.3733 5.20236 10.3533C5.10014 10.2488 4.9468 10.2022 4.80236 10.2311C4.77347 10.2355 4.7468 10.2444 4.72014 10.2555C4.69125 10.2666 4.6668 10.2822 4.64236 10.2977C4.61791 10.3133 4.59569 10.3311 4.57569 10.3533C4.55347 10.3733 4.53569 10.3955 4.52014 10.42C4.50458 10.4444 4.48902 10.4688 4.47791 10.4955C4.4668 10.5222 4.45791 10.5511 4.45347 10.58C4.4468 10.6088 4.44458 10.6377 4.44458 10.6666C4.44458 10.7844 4.49125 10.8977 4.57569 10.98C4.65791 11.0644 4.77125 11.1111 4.88902 11.1111C5.0068 11.1111 5.12014 11.0644 5.20236 10.98C5.2868 10.8977 5.33347 10.7844 5.33347 10.6666C5.33347 10.6377 5.33125 10.6088 5.32458 10.58C5.32014 10.5511 5.31125 10.5222 5.30014 10.4955Z" fill="black"/>
<path d="M5.30014 8.27334C5.28902 8.24667 5.27569 8.22223 5.25791 8.19778C5.24236 8.17334 5.22458 8.15112 5.20236 8.13112C5.10014 8.02667 4.9468 7.97778 4.80236 8.0089C4.77347 8.01334 4.7468 8.02223 4.72014 8.03334C4.69125 8.04445 4.6668 8.06001 4.64236 8.07556C4.61791 8.09112 4.59569 8.1089 4.57569 8.13112C4.55347 8.15112 4.53569 8.17334 4.52014 8.19778C4.50458 8.22223 4.48902 8.24667 4.47791 8.27334C4.4668 8.30001 4.46014 8.3289 4.45347 8.35778C4.4468 8.38667 4.44458 8.41556 4.44458 8.44445C4.44458 8.47334 4.44458 8.50223 4.45347 8.53112C4.45791 8.56001 4.4668 8.5889 4.47791 8.61556C4.48902 8.64223 4.50236 8.66667 4.52014 8.69112C4.53569 8.71556 4.55347 8.73778 4.57569 8.75778C4.65791 8.84223 4.77125 8.8889 4.88902 8.8889C5.0068 8.8889 5.12014 8.84223 5.20236 8.75778C5.22458 8.73778 5.24236 8.71556 5.26014 8.69112C5.27569 8.66667 5.28902 8.64223 5.30014 8.61556C5.31125 8.5889 5.32014 8.56001 5.32458 8.53112C5.33125 8.50223 5.33347 8.47334 5.33347 8.44445C5.33347 8.41556 5.33125 8.38667 5.32458 8.35778C5.32014 8.3289 5.31125 8.30001 5.30014 8.27334Z" fill="black"/>
<path d="M5.30014 6.05116C5.28902 6.02449 5.27347 6.00005 5.25791 5.9756C5.24236 5.95116 5.22458 5.92894 5.20236 5.90894C5.03791 5.74227 4.74014 5.74227 4.57347 5.90894C4.55347 5.92894 4.53569 5.95116 4.52014 5.9756C4.50236 6.00005 4.48902 6.02449 4.47791 6.05116C4.4668 6.07782 4.45791 6.10671 4.45347 6.1356C4.4468 6.16449 4.44458 6.19338 4.44458 6.22227C4.44458 6.34005 4.49125 6.45338 4.57347 6.5356C4.65791 6.62005 4.77125 6.66671 4.88902 6.66671C4.91791 6.66671 4.9468 6.66671 4.97569 6.65782C5.00458 6.65338 5.03347 6.64449 5.06014 6.63338C5.0868 6.62227 5.11125 6.60894 5.13569 6.59116C5.16014 6.5756 5.18236 6.55782 5.20236 6.5356C5.2868 6.45116 5.33347 6.34005 5.33347 6.22227C5.33347 6.19338 5.33125 6.16449 5.32458 6.1356C5.32014 6.10671 5.31125 6.07782 5.30014 6.05116Z" fill="black"/>
<path d="M12.4422 0.888889H10.6666V0.873333C10.6666 0.391111 10.2755 0 9.79329 0H6.20663C5.7244 0 5.33329 0.391111 5.33329 0.873333V0.888889H3.55774C3.06663 0.888889 2.66663 1.28889 2.66663 1.78V15.1089C2.66663 15.6 3.06663 16 3.55774 16H12.4422C12.9333 16 13.3333 15.6 13.3333 15.1089V1.78C13.3333 1.28889 12.9333 0.888889 12.4422 0.888889ZM9.77774 0.873333V2.66667H6.21996L6.21107 1.43111C6.21774 1.4 6.22218 1.36667 6.22218 1.33333C6.22218 1.29778 6.21774 1.26444 6.20885 1.23111V0.888889L9.77774 0.873333ZM12.4422 15.1111H3.55551V1.77778H5.33107V3.11111C5.33107 3.35556 5.53107 3.55556 5.77551 3.55556H10.22C10.4644 3.55556 10.6644 3.35556 10.6644 3.11111V1.77778H12.4422V15.1111Z" fill="black"/>
</svg>
