<svg width="16" height="16" viewBox="0 0 16 16" fill="none" xmlns="http://www.w3.org/2000/svg">
<g clip-path="url(#clip0_3537_13)">
<path fill-rule="evenodd" clip-rule="evenodd" d="M7.99991 3.76469C7.22022 3.76469 6.58815 4.39676 6.58815 5.17646C6.58815 5.95615 7.22022 6.58822 7.99991 6.58822C8.77961 6.58822 9.41168 5.95615 9.41168 5.17646C9.41168 4.39676 8.77961 3.76469 7.99991 3.76469ZM5.64697 5.17646C5.64697 3.87696 6.70042 2.82352 7.99991 2.82352C9.29941 2.82352 10.3529 3.87696 10.3529 5.17646C10.3529 6.47595 9.29941 7.5294 7.99991 7.5294C6.70042 7.5294 5.64697 6.47595 5.64697 5.17646Z" fill="black"/>
<path fill-rule="evenodd" clip-rule="evenodd" d="M2.82349 5.17647C2.82349 2.31657 5.14006 0 7.99996 0C10.8599 0 13.1764 2.31657 13.1764 5.17647C13.1764 5.84581 13.0455 6.48524 12.8149 7.07088C12.8092 7.09453 12.8016 7.11775 12.7923 7.14034C12.6922 7.3815 12.5735 7.60915 12.4452 7.82497L8.42184 15.7426C8.34159 15.9005 8.17945 16 8.00231 16C7.82517 16 7.66303 15.9005 7.58278 15.7426L3.56073 7.82764C3.42715 7.60893 3.31139 7.38116 3.21095 7.14262C3.20371 7.12543 3.19752 7.10786 3.19239 7.09001C2.95443 6.49756 2.82349 5.85141 2.82349 5.17647ZM7.99996 0.941176C5.65986 0.941176 3.76466 2.83637 3.76466 5.17647C3.76466 5.74194 3.87683 6.28112 4.07977 6.77367C4.08553 6.78766 4.09061 6.8019 4.09498 6.81633C4.17617 7.00421 4.26807 7.18156 4.37234 7.35075C4.3791 7.36173 4.38541 7.37297 4.39125 7.38446L8.00231 14.4906L11.6134 7.38446C11.6182 7.37487 11.6234 7.36545 11.629 7.35621C11.7318 7.18424 11.8232 7.01078 11.9 6.83366C11.9052 6.81383 11.9117 6.79433 11.9195 6.77527C12.1212 6.28059 12.2353 5.74077 12.2353 5.17647C12.2353 2.83637 10.3401 0.941176 7.99996 0.941176Z" fill="black"/>
</g>
<defs>
<clipPath id="clip0_3537_13">
<rect width="16" height="16" fill="white"/>
</clipPath>
</defs>
</svg>
