<svg width="16" height="16" viewBox="0 0 16 16" fill="none" xmlns="http://www.w3.org/2000/svg">
<path d="M14.6667 7.11111H12.8889V4.88889C12.8889 2.19333 10.6956 0 8.00003 0C5.30447 0 3.11114 2.19333 3.11114 4.88889V7.11111H1.33336C1.08892 7.11111 0.888916 7.31111 0.888916 7.55556V15.5556C0.888916 15.8 1.08892 16 1.33336 16H14.6667C14.9111 16 15.1111 15.8 15.1111 15.5556V7.55556C15.1111 7.31111 14.9111 7.11111 14.6667 7.11111ZM4.00003 4.88889C4.00003 2.68222 5.79558 0.888889 8.00003 0.888889C10.2045 0.888889 12 2.68222 12 4.88889V7.11111H4.00003V4.88889ZM14.2222 15.1111H1.7778V8H14.2222V15.1111Z" fill="black"/>
</svg>
