<svg width="16" height="16" viewBox="0 0 16 16" fill="none" xmlns="http://www.w3.org/2000/svg">
<path d="M12.8889 5.99999H8.88889V4.66665H12C12.2444 4.66665 12.4444 4.46665 12.4444 4.22221V1.99999C12.4444 1.75554 12.2444 1.55554 12 1.55554H8.44444C8.2 1.55554 8 1.75554 8 1.99999V5.99999H3.11111C1.39556 5.99999 0 7.39554 0 9.1111V14C0 14.2444 0.2 14.4444 0.444444 14.4444H15.5556C15.8 14.4444 16 14.2444 16 14V9.1111C16 7.39554 14.6044 5.99999 12.8889 5.99999ZM8.88889 2.44443H11.5556V3.77776H8.88889V2.44443ZM0.888889 13.5555V9.1111C0.888889 7.88665 1.88667 6.88888 3.11111 6.88888C4.33556 6.88888 5.33333 7.88665 5.33333 9.1111V13.5555H0.888889ZM15.1111 13.5555H6.22222V9.1111C6.22222 8.23999 5.86222 7.45332 5.28444 6.88888H8V10.4444C8 10.6889 8.2 10.8889 8.44444 10.8889C8.68889 10.8889 8.88889 10.6889 8.88889 10.4444V6.88888H12.8889C14.1133 6.88888 15.1111 7.88665 15.1111 9.1111V13.5555Z" fill="black"/>
</svg>
