<svg width="16" height="16" viewBox="0 0 16 16" fill="none" xmlns="http://www.w3.org/2000/svg">
<path d="M10.1909 8.3064C11.1575 7.75533 11.8975 6.85763 12.2374 5.77772H12.4418C12.6863 5.77772 12.8863 5.57774 12.8863 5.33331C12.8863 5.08889 12.6863 4.88891 12.4418 4.88891H12.4196C12.4352 4.74225 12.4418 4.5956 12.4418 4.4445C12.4418 2.98906 11.7352 1.70028 10.6531 0.889241H11.1086C11.3531 0.889241 11.553 0.689258 11.553 0.444834C11.553 0.20041 11.3531 0.000427246 11.1086 0.000427246H7.99778C5.54687 0.000427246 3.55371 1.99359 3.55371 4.4445C3.55371 6.09769 4.46252 7.53979 5.80685 8.3064C2.60712 9.21521 0.200655 12.0639 0.000671974 15.5302C-0.0126602 15.7747 0.173991 15.9858 0.418415 15.9991C0.662839 16.0102 0.873932 15.8258 0.887264 15.5813C1.04947 12.7794 2.83155 10.4329 5.29356 9.42186L7.63781 12.7016C7.72225 12.8194 7.85557 12.8882 8 12.8882C8.14443 12.8882 8.27775 12.8194 8.36219 12.7016L10.7064 9.42186C13.1685 10.4329 14.9505 12.7794 15.1127 15.5813C15.1261 15.8169 15.3216 15.9991 15.5549 15.9991C15.5638 15.9991 15.5727 15.9991 15.5816 15.9991C15.826 15.9858 16.0127 15.7747 15.9993 15.5302C15.7971 12.0639 13.3929 9.21521 10.1931 8.3064H10.1909ZM4.44474 4.4445C4.44474 2.48466 6.04016 0.889241 8 0.889241C9.95984 0.889241 11.5553 2.48466 11.5553 4.4445C11.5553 6.40433 9.95984 7.99975 8 7.99975C6.04016 7.99975 4.44474 6.40433 4.44474 4.4445ZM8 11.6794L6.17571 9.12633C6.75788 8.97301 7.36894 8.88857 8 8.88857C8.63106 8.88857 9.2399 8.97301 9.82429 9.12633L8 11.6794Z" fill="black"/>
<path d="M10.6664 4.44675C10.6664 4.32898 10.6197 4.21343 10.5353 4.13122C10.5153 4.11122 10.4931 4.09344 10.4686 4.07567C10.4442 4.06011 10.4198 4.04678 10.3909 4.03567C10.3642 4.02456 10.3375 4.01567 10.3087 4.009C10.1642 3.98012 10.0109 4.029 9.90647 4.13122C9.88647 4.15121 9.86869 4.17566 9.85314 4.2001C9.83758 4.22232 9.82203 4.24898 9.81092 4.27565C9.79981 4.30231 9.79314 4.3312 9.78648 4.36009C9.77981 4.38675 9.77759 4.41786 9.77759 4.44675C9.77759 4.50452 9.7887 4.56229 9.81092 4.61562C9.83314 4.66895 9.86647 4.71783 9.90647 4.76005C9.9909 4.84449 10.1042 4.89115 10.222 4.89115C10.3398 4.89115 10.4531 4.84449 10.5353 4.76005C10.6197 4.67561 10.6664 4.56451 10.6664 4.44675Z" fill="black"/>
</svg>
