<svg width="16" height="16" viewBox="0 0 16 16" fill="none" xmlns="http://www.w3.org/2000/svg">
<path d="M16 4.53185C16 3.37408 15.3711 2.99852 14.9956 2.8763C14.2022 2.62074 13.2089 3.0563 12.6689 3.65408L9.97556 3.81852C9.74 3.79185 9.48222 3.69185 9.21111 3.58741C8.82889 3.44074 8.43333 3.28741 8 3.28741C7.56667 3.28741 7.17111 3.44074 6.78889 3.58741C6.51556 3.69185 6.26 3.79185 6.02444 3.81852L3.33111 3.65408C2.79111 3.05408 1.79778 2.62074 1.00444 2.8763C0.628889 2.9963 0 3.37185 0 4.53185C0 5.41185 0.268889 7.49185 2.66667 8.40297V9.42074C2.66667 10.903 6.20889 13.1985 8 13.1985C9.79111 13.1985 13.3333 10.903 13.3333 9.42074V8.40297C15.7311 7.49185 16 5.41185 16 4.53185ZM0.888889 4.53185C0.888889 4.07852 1.02 3.80519 1.27556 3.72296C1.66667 3.59852 2.31556 3.85408 2.66667 4.24963V7.43408C1.14 6.6963 0.888889 5.33408 0.888889 4.53185ZM8 12.3096C6.41333 12.3096 3.55556 10.1585 3.55556 9.42074V4.56074L6.00667 4.70963C6.02889 4.70963 6.05111 4.70963 6.07333 4.70963C6.44 4.6763 6.78 4.54519 7.10889 4.41852C7.42889 4.29408 7.73111 4.17852 8 4.17852C8.26889 4.17852 8.56889 4.2963 8.89111 4.41852C9.22 4.54519 9.56 4.6763 9.92667 4.70963C9.94 4.70963 9.95333 4.70963 9.96667 4.70963C9.97556 4.70963 9.98444 4.70963 9.99333 4.70963L12.4444 4.56074V9.42074C12.4444 10.1585 9.58667 12.3096 8 12.3096ZM13.3333 7.43408V4.24963C13.6844 3.85408 14.3333 3.59852 14.7244 3.72296C14.9822 3.80519 15.1111 4.07852 15.1111 4.53185C15.1111 5.33408 14.86 6.6963 13.3333 7.43408Z" fill="black"/>
<path d="M10.0845 9.62083C9.92001 9.70305 9.74445 9.77416 9.55779 9.83416C9.38668 9.88749 9.20668 9.93416 9.01779 9.96749C8.84668 9.9986 8.6689 10.0208 8.4889 10.0364C8.17557 10.0608 7.82223 10.0608 7.5089 10.0364C7.3289 10.0208 7.15112 9.9986 6.98001 9.96749C6.79112 9.93194 6.6089 9.88749 6.44001 9.83416C6.25334 9.77416 6.07779 9.70305 5.91334 9.62083C5.69334 9.51194 5.42668 9.60083 5.31779 9.8186C5.2089 10.0386 5.29557 10.3053 5.51557 10.4142C5.72001 10.5164 5.94001 10.6053 6.17112 10.6786C6.37779 10.743 6.59557 10.7986 6.82001 10.8386C7.02001 10.8742 7.22668 10.903 7.43779 10.9186C7.61779 10.9342 7.80668 10.9408 8.00001 10.9408C8.19334 10.9408 8.38223 10.9342 8.56223 10.9186C8.77334 10.9008 8.98001 10.8742 9.18001 10.8386C9.40446 10.7964 9.62223 10.743 9.8289 10.6786C10.0578 10.6053 10.2778 10.5164 10.4845 10.4142C10.7045 10.3053 10.7933 10.0364 10.6822 9.8186C10.5733 9.5986 10.3045 9.50972 10.0867 9.62083H10.0845Z" fill="black"/>
<path d="M10.2021 7.65858C10.0288 7.72302 9.84215 7.77858 9.64437 7.82524C9.46437 7.86746 9.27104 7.90302 9.07326 7.92969C8.89326 7.95413 8.70659 7.97191 8.51548 7.98302C8.1777 8.00302 7.81993 8.00302 7.48215 7.98302C7.29104 7.97191 7.10437 7.95413 6.92437 7.92969C6.72659 7.90302 6.53326 7.86746 6.35326 7.82524C6.15548 7.77858 5.96882 7.72302 5.79548 7.65858C5.56437 7.57413 5.30882 7.68969 5.22437 7.9208C5.13993 8.15191 5.25548 8.40746 5.48659 8.49191C5.69326 8.56746 5.91548 8.63635 6.14882 8.68969C6.3577 8.73857 6.5777 8.77858 6.80437 8.80969C7.00659 8.83635 7.21548 8.85635 7.42882 8.86969C7.61548 8.8808 7.80659 8.88746 7.9977 8.88746C8.18882 8.88746 8.37993 8.8808 8.56659 8.86969C8.77993 8.85635 8.98882 8.83635 9.19104 8.80969C9.4177 8.77858 9.6377 8.73857 9.84659 8.68969C10.0799 8.63413 10.3021 8.56746 10.5088 8.49191C10.7399 8.40746 10.8555 8.15191 10.771 7.9208C10.6866 7.68969 10.431 7.57413 10.1999 7.65858H10.2021Z" fill="black"/>
<path d="M10.5044 5.69852C10.3044 5.74297 10.091 5.78074 9.86436 5.81185C9.65992 5.84074 9.44214 5.86519 9.21325 5.88297C9.01103 5.89852 8.7977 5.91185 8.57992 5.91852C8.17103 5.93185 7.82214 5.93185 7.41325 5.91852C7.1977 5.91185 6.98436 5.89852 6.78214 5.88297C6.55325 5.86519 6.33547 5.84074 6.13103 5.81185C5.90658 5.78074 5.69103 5.74297 5.49103 5.69852C5.25103 5.64519 5.01325 5.7963 4.96214 6.0363C4.90881 6.2763 5.06214 6.51408 5.29992 6.56519C5.52214 6.61408 5.7577 6.6563 6.00658 6.68963C6.22658 6.72074 6.46436 6.74519 6.70881 6.76519C6.92436 6.78297 7.15103 6.7963 7.38214 6.80297C7.5977 6.80963 7.80436 6.81408 7.99547 6.81408C8.18658 6.81408 8.39325 6.81185 8.60881 6.80297C8.8377 6.79408 9.06436 6.78297 9.28214 6.76519C9.52658 6.74519 9.76436 6.72074 9.98436 6.68963C10.231 6.65408 10.4688 6.61185 10.691 6.56519C10.931 6.51185 11.0821 6.2763 11.0288 6.0363C10.9755 5.7963 10.7399 5.64297 10.4999 5.69852H10.5044Z" fill="black"/>
</svg>
