<svg width="16" height="16" viewBox="0 0 16 16" fill="none" xmlns="http://www.w3.org/2000/svg">
<path d="M8.00375 11.1126C7.75927 11.1126 7.55925 11.3127 7.55925 11.5571V12.3484L7.23698 12.0572C7.06585 11.9016 6.9725 11.706 6.97694 11.5016C6.98139 11.2882 7.08807 11.0815 7.28143 10.9193C7.47035 10.7615 7.49479 10.4814 7.33699 10.2925C7.17919 10.1036 6.89916 10.0792 6.71024 10.237C6.31685 10.5659 6.09682 11.0082 6.08793 11.4838C6.07904 11.9483 6.27685 12.3861 6.64134 12.7151L7.55925 13.5441V15.5555C7.55925 15.7999 7.75927 16 8.00375 16C8.24823 16 8.44826 15.7999 8.44826 15.5555V11.5549C8.44826 11.3104 8.24823 11.1104 8.00375 11.1104V11.1126Z" fill="black"/>
<path d="M10.2463 5.83194C10.0662 5.66525 9.78621 5.67637 9.6173 5.85639C9.45061 6.03641 9.46172 6.31868 9.64174 6.48536L9.85511 6.68317C10.0462 6.85875 10.144 7.081 10.1329 7.3077C10.1218 7.5344 10.0018 7.74554 9.7951 7.90111L8.84608 8.61899C8.6505 8.7679 8.61271 9.04572 8.7594 9.2413C8.84608 9.35687 8.97943 9.41688 9.115 9.41688C9.20835 9.41688 9.30392 9.38799 9.38393 9.32575L10.3329 8.60788C10.753 8.29006 10.9975 7.84333 11.0219 7.34993C11.0464 6.85653 10.8464 6.38757 10.4619 6.02975L10.2485 5.83194H10.2463Z" fill="black"/>
<path d="M9.22187 10.1814L6.21257 7.90111C6.00587 7.74331 5.88586 7.53218 5.87475 7.3077C5.86363 7.081 5.96142 6.85875 6.15256 6.68317L6.36592 6.48536C6.54595 6.31868 6.55706 6.03641 6.39037 5.85639C6.22368 5.67637 5.94142 5.66525 5.7614 5.83194L5.54803 6.02975C5.16131 6.38757 4.96129 6.85653 4.98796 7.34993C5.0124 7.84333 5.25688 8.29006 5.67694 8.60788L8.68624 10.8882C8.89961 11.0504 9.02184 11.2616 9.03073 11.4861C9.03962 11.695 8.94628 11.8972 8.7707 12.0572C8.58845 12.2217 8.57289 12.5017 8.73736 12.6862C8.82626 12.784 8.94628 12.8329 9.06852 12.8329C9.1752 12.8329 9.28188 12.7951 9.36634 12.7196C9.74417 12.3795 9.93975 11.9283 9.91974 11.4505C9.89974 10.9638 9.64415 10.5015 9.22409 10.1814H9.22187Z" fill="black"/>
<path d="M15.8695 5.77857L12.6891 2.7226C11.9334 1.99805 10.6955 1.98694 9.92647 2.69815L8.44848 4.06722V2.58924C8.96633 2.40477 9.3375 1.9136 9.3375 1.33352C9.3375 0.59786 8.73964 0 8.00398 0C7.26832 0 6.67046 0.59786 6.67046 1.33352C6.67046 1.9136 7.04162 2.40477 7.55947 2.58924V4.06722L6.08149 2.69815C5.31472 1.98694 4.07455 1.99805 3.32111 2.7226L0.140677 5.77857C-0.037125 5.94748 -0.0415701 6.22974 0.127342 6.40755C0.214021 6.49867 0.331815 6.54312 0.447386 6.54312C0.558512 6.54312 0.669639 6.50089 0.754095 6.41866L3.93453 3.36268C4.34792 2.96485 5.05469 2.95818 5.47474 3.34935L5.53253 3.40269L2.99885 5.83636C2.82105 6.00527 2.8166 6.28753 2.98551 6.46533C3.07219 6.55646 3.18999 6.60091 3.30556 6.60091C3.41668 6.60091 3.52781 6.55868 3.61226 6.47644L6.18373 4.00722L7.55503 5.2785V7.99888C7.55503 8.24335 7.75506 8.44338 7.99953 8.44338C8.24401 8.44338 8.44404 8.24335 8.44404 7.99888V5.2785L9.81534 4.00722L12.3868 6.47644C12.4735 6.55868 12.5846 6.60091 12.6935 6.60091C12.8113 6.60091 12.9269 6.55423 13.0136 6.46533C13.1847 6.28753 13.178 6.00749 13.0002 5.83636L10.4665 3.40269L10.5243 3.34935C10.9444 2.95818 11.6511 2.96485 12.0645 3.36268L15.245 6.41866C15.3317 6.50089 15.4428 6.54312 15.5517 6.54312C15.6695 6.54312 15.785 6.49645 15.8717 6.40755C16.0429 6.22974 16.0362 5.94971 15.8584 5.77857H15.8695ZM8.00398 0.889011C8.24846 0.889011 8.44848 1.08904 8.44848 1.33352C8.44848 1.57799 8.24846 1.77802 8.00398 1.77802C7.7595 1.77802 7.55947 1.57799 7.55947 1.33352C7.55947 1.08904 7.7595 0.889011 8.00398 0.889011Z" fill="black"/>
</svg>
