<svg width="16" height="16" viewBox="0 0 16 16" fill="none" xmlns="http://www.w3.org/2000/svg">
<path d="M14.7649 1.23286C13.9709 0.438852 12.9145 0 11.7902 0C10.6659 0 9.6095 0.43659 8.8155 1.23286L1.23286 8.81776C0.438852 9.61176 0 10.6682 0 11.7924C0 12.9167 0.43659 13.9731 1.23286 14.7671C2.02686 15.5611 3.08327 16 4.20755 16C5.33183 16 6.38824 15.5634 7.18224 14.7671L14.7671 7.18224C15.5611 6.38824 16 5.33183 16 4.20755C16 3.08327 15.5634 2.02686 14.7671 1.23286H14.7649ZM6.5398 14.127C5.25265 15.4141 3.15792 15.4141 1.87078 14.127C0.583628 12.8398 0.583628 10.7451 1.87078 9.45794L5.34314 5.98558L10.0122 10.6546L6.5398 14.127ZM14.1247 6.54206L10.6523 10.0144L5.98332 5.3454L9.45568 1.87304C10.1004 1.22833 10.9442 0.907111 11.7902 0.907111C12.6362 0.907111 13.4823 1.22833 14.1247 1.87304C15.4118 3.16019 15.4118 5.25491 14.1247 6.54206Z" fill="black"/>
</svg>
