<svg width="16" height="16" viewBox="0 0 16 16" fill="none" xmlns="http://www.w3.org/2000/svg">
<path d="M11.2942 7.05646H4.70594C4.44712 7.05646 4.23535 7.26822 4.23535 7.52705C4.23535 7.78587 4.44712 7.99763 4.70594 7.99763H11.2942C11.553 7.99763 11.7648 7.78587 11.7648 7.52705C11.7648 7.26822 11.553 7.05646 11.2942 7.05646Z" fill="black"/>
<path d="M11.2942 9.40942H4.70594C4.44712 9.40942 4.23535 9.62119 4.23535 9.88001C4.23535 10.1388 4.44712 10.3506 4.70594 10.3506H11.2942C11.553 10.3506 11.7648 10.1388 11.7648 9.88001C11.7648 9.62119 11.553 9.40942 11.2942 9.40942Z" fill="black"/>
<path d="M9.88241 11.7623H4.70594C4.44712 11.7623 4.23535 11.9741 4.23535 12.2329C4.23535 12.4917 4.44712 12.7035 4.70594 12.7035H9.88241C10.1412 12.7035 10.353 12.4917 10.353 12.2329C10.353 11.9741 10.1412 11.7623 9.88241 11.7623Z" fill="black"/>
<path d="M14.1082 3.2C14.1011 3.16 14.0847 3.12235 14.0682 3.08706C14.0635 3.07765 14.0588 3.06824 14.0541 3.05882C14.0329 3.02353 14.0094 2.98824 13.9811 2.96L11.1576 0.136471C11.127 0.105882 11.0941 0.0823529 11.0588 0.0635294C11.0494 0.0588235 11.04 0.0541175 11.0306 0.0494117C10.9953 0.0305881 10.9576 0.0164706 10.9176 0.00941176C10.9176 0.00941176 10.9153 0.00941176 10.9129 0.00941176C10.8847 0.00470587 10.8541 0 10.8235 0H2.35291C2.09409 0 1.88232 0.211765 1.88232 0.470588V15.5294C1.88232 15.7882 2.09409 16 2.35291 16H13.647C13.9059 16 14.1176 15.7882 14.1176 15.5294V3.29176C14.1176 3.26118 14.1153 3.23059 14.1082 3.2ZM12.5106 2.82118H11.2941V1.60471L12.5106 2.82118ZM2.8235 15.0565V0.938823H10.3529V3.29176C10.3529 3.55059 10.5647 3.76235 10.8235 3.76235H13.1764V15.0565H2.8235Z" fill="black"/>
<path d="M5.17653 4.70347H6.1177V3.7623H7.05888V2.82112H6.1177V1.87994H5.17653V2.82112H4.23535V3.7623H5.17653V4.70347Z" fill="black"/>
</svg>
