<svg width="16" height="17" viewBox="0 0 16 17" fill="none" xmlns="http://www.w3.org/2000/svg">
<path d="M10.1901 8.30712C11.0324 7.8271 11.7035 7.08261 12.088 6.18478C12.2036 6.20923 12.3236 6.22256 12.4436 6.22256C13.4236 6.22256 14.2215 5.42474 14.2215 4.44469C14.2215 3.46463 13.4236 2.66681 12.4436 2.66681C12.3236 2.66681 12.2058 2.68237 12.088 2.70459C11.4102 1.11562 9.83232 0 7.99889 0C6.16545 0 4.58759 1.11562 3.90978 2.70459C3.79199 2.68015 3.67421 2.66681 3.5542 2.66681C2.57415 2.66681 1.77633 3.46463 1.77633 4.44469C1.77633 5.42474 2.57415 6.22256 3.5542 6.22256C3.67421 6.22256 3.79199 6.20701 3.90978 6.18478C4.29424 7.08261 4.96539 7.8271 5.80766 8.30712C2.60748 9.21606 0.200683 12.0651 0.000672067 15.532C-0.012662 15.7764 0.174015 15.9875 0.418473 16.0009C0.667375 16.0164 0.874053 15.8275 0.887387 15.5831C1.10518 11.8295 4.22979 8.88938 7.99889 8.88938C11.768 8.88938 14.8926 11.8295 15.1104 15.5831C15.1237 15.8186 15.3193 16.0009 15.5549 16.0009C15.5637 16.0009 15.5726 16.0009 15.5815 16.0009C15.826 15.9875 16.0127 15.7764 15.9993 15.532C15.7971 12.0651 13.3925 9.21606 10.1923 8.30712H10.1901ZM12.4436 3.55575C12.9347 3.55575 13.3325 3.95355 13.3325 4.44469C13.3325 4.93583 12.9347 5.33363 12.4436 5.33363C12.4125 5.33363 12.3836 5.3314 12.3547 5.32918C12.4125 5.0425 12.4436 4.74915 12.4436 4.44469C12.4436 4.14023 12.4125 3.84688 12.3547 3.5602C12.3836 3.55797 12.4125 3.55575 12.4436 3.55575ZM3.5542 5.33363C3.06306 5.33363 2.66526 4.93583 2.66526 4.44469C2.66526 3.95355 3.06306 3.55575 3.5542 3.55575C3.58309 3.55575 3.6142 3.55797 3.64309 3.5602C3.58531 3.84688 3.5542 4.14023 3.5542 4.44469C3.5542 4.74915 3.58531 5.0425 3.64309 5.32918C3.6142 5.3314 3.58531 5.33363 3.5542 5.33363ZM4.44314 4.44469C4.44314 2.48458 6.03878 0.888938 7.99889 0.888938C9.959 0.888938 11.5546 2.48458 11.5546 4.44469C11.5546 4.91583 11.4613 5.36696 11.2924 5.7781H10.2212C10.1946 5.7781 10.1701 5.78254 10.1457 5.78476C9.96344 5.26473 9.47008 4.88916 8.88783 4.88916C8.15223 4.88916 7.55442 5.48697 7.55442 6.22256C7.55442 6.95816 8.15223 7.55597 8.88783 7.55597C9.47008 7.55597 9.96566 7.18039 10.1457 6.66037C10.1701 6.66481 10.1946 6.66703 10.2212 6.66703H10.7702C10.119 7.47819 9.11895 8.00044 7.99889 8.00044C6.03878 8.00044 4.44314 6.4048 4.44314 4.44469ZM9.3323 6.22256C9.3323 6.46702 9.13228 6.66703 8.88783 6.66703C8.64337 6.66703 8.44336 6.46702 8.44336 6.22256C8.44336 5.97811 8.64337 5.7781 8.88783 5.7781C9.13228 5.7781 9.3323 5.97811 9.3323 6.22256Z" fill="black"/>
<path d="M11.5546 11.5563H10.6657V12.4452H9.77673V13.3341H10.6657V14.2231H11.5546V13.3341H12.4435V12.4452H11.5546V11.5563Z" fill="black"/>
</svg>
