<svg width="16" height="16" viewBox="0 0 16 16" fill="none" xmlns="http://www.w3.org/2000/svg">
<path d="M15.9978 3.11291C15.9978 3.11291 15.9978 3.10402 15.9978 3.1018C15.9978 3.08624 15.9956 3.06847 15.9933 3.05291C15.9933 3.03958 15.9911 3.02625 15.9867 3.01514C15.9822 2.99959 15.9778 2.98626 15.9733 2.97293C15.9689 2.95959 15.9644 2.94626 15.9578 2.93293C15.9533 2.9196 15.9445 2.90849 15.9378 2.89738C15.9289 2.88405 15.9222 2.87072 15.9133 2.85739C15.9111 2.85294 15.9089 2.85072 15.9067 2.84628C15.9 2.83961 15.8933 2.83295 15.8867 2.82628C15.8756 2.81517 15.8667 2.80406 15.8556 2.79295C15.8445 2.78184 15.8334 2.77295 15.8222 2.76407C15.8111 2.75518 15.8 2.74629 15.7889 2.73963C15.7756 2.73074 15.7623 2.72407 15.7489 2.71741C15.7356 2.71074 15.7245 2.7063 15.7112 2.69963C15.6978 2.69519 15.6823 2.69074 15.6689 2.6863C15.6556 2.68186 15.6423 2.67963 15.6289 2.67741C15.6134 2.67519 15.5956 2.67297 15.5801 2.67297C15.5712 2.67297 15.5623 2.67075 15.5534 2.67075H0.444383C0.444383 2.67075 0.428829 2.67075 0.419942 2.67297C0.402166 2.67297 0.386613 2.67519 0.368838 2.67741C0.355506 2.67963 0.344397 2.68186 0.331065 2.6863C0.315512 2.69074 0.299958 2.69519 0.286627 2.69963C0.273295 2.70407 0.262186 2.71074 0.251076 2.71518C0.237745 2.72185 0.224413 2.72852 0.211082 2.7374C0.199972 2.74407 0.188863 2.75296 0.177753 2.76184C0.166644 2.77073 0.153312 2.77962 0.142202 2.79073C0.131093 2.80184 0.122205 2.81295 0.111096 2.82406C0.10443 2.83072 0.0977642 2.83739 0.0910984 2.84406C0.0888765 2.8485 0.0866546 2.85072 0.0844327 2.85516C0.0755451 2.8685 0.0666574 2.88183 0.0599917 2.89516C0.0533259 2.90627 0.0466601 2.9196 0.0399944 2.93071C0.0333287 2.94404 0.0288849 2.95737 0.0244411 2.9707C0.0199973 2.98404 0.0155534 2.99959 0.0111096 3.01292C0.0088877 3.02625 0.00666574 3.03736 0.00444382 3.05069C0.00222191 3.06625 0 3.08402 0 3.09958C0 3.10402 0 3.10846 0 3.11068V12.8871C0 12.8871 0 12.896 0 12.8982C0 12.9138 0.00222191 12.9315 0.00444382 12.9471C0.00444382 12.9604 0.00666578 12.9738 0.0111096 12.9849C0.0155534 12.9982 0.0199973 13.0138 0.0244411 13.0271C0.0288849 13.0404 0.0333287 13.0537 0.0399944 13.0671C0.0466601 13.0804 0.0533259 13.0915 0.0599917 13.1026C0.0688793 13.116 0.0755451 13.1293 0.0844327 13.1426C0.0866546 13.1471 0.0888765 13.1493 0.0910984 13.1537C0.0955422 13.1604 0.102208 13.1648 0.106652 13.1693C0.119983 13.1848 0.135537 13.2004 0.15109 13.2159C0.159978 13.2248 0.168865 13.2315 0.179975 13.2404C0.195528 13.2515 0.213304 13.2626 0.231079 13.2737C0.242189 13.2804 0.251076 13.2848 0.262186 13.2893C0.282183 13.2982 0.304402 13.3048 0.326621 13.3115C0.335509 13.3137 0.342175 13.3182 0.351062 13.3182C0.382169 13.3248 0.413276 13.3293 0.446605 13.3293H15.5556C15.5889 13.3293 15.6201 13.3248 15.6512 13.3182C15.66 13.3182 15.6667 13.3137 15.6756 13.3115C15.6978 13.3048 15.72 13.2982 15.74 13.2893C15.7511 13.2848 15.76 13.2782 15.7689 13.2737C15.7867 13.2648 15.8045 13.2537 15.82 13.2404C15.8289 13.2337 15.8378 13.2248 15.8489 13.2182C15.8645 13.2048 15.88 13.1893 15.8933 13.1715C15.8978 13.1648 15.9045 13.1626 15.9089 13.156C15.9111 13.1515 15.9133 13.1493 15.9156 13.1448C15.9245 13.1315 15.9333 13.1182 15.94 13.1049C15.9467 13.0937 15.9533 13.0804 15.96 13.0693C15.9667 13.056 15.9711 13.0426 15.9756 13.0293C15.98 13.016 15.9844 13.0004 15.9889 12.9871C15.9911 12.9738 15.9933 12.9626 15.9956 12.9493C15.9978 12.9338 16 12.916 16 12.9004C16 12.896 16 12.8915 16 12.8893V3.11291H15.9978ZM0.888765 4.01278L6.10582 8.00112L0.888765 11.9895V4.01278ZM7.99889 8.33218L1.75753 3.55729H14.2402L7.99889 8.32996V8.33218ZM6.83683 8.56326L7.73004 9.24539C7.81003 9.30538 7.90557 9.33649 7.99889 9.33649C8.09221 9.33649 8.18997 9.30538 8.26774 9.24539L9.16095 8.56326L14.2402 12.4472H1.75753L6.83683 8.56326ZM9.89196 8.00334L15.109 4.015V11.9939L9.89196 8.00556V8.00334Z" fill="black"/>
</svg>
