<svg width="16" height="17" viewBox="0 0 16 17" fill="none" xmlns="http://www.w3.org/2000/svg">
<path d="M10.1915 8.30821C11.5339 7.54363 12.4452 6.09891 12.4452 4.44527C12.4452 1.9937 10.4515 0 7.99994 0C5.54837 0 3.55467 1.9937 3.55467 4.44527C3.55467 6.09891 4.46373 7.5414 5.80842 8.30821C2.60782 9.21727 0.200709 12.0667 0.000672156 15.534C-0.0126637 15.7785 0.174038 15.9896 0.418528 16.003C0.663018 16.0119 0.874168 15.8296 0.887504 15.5851C1.10532 11.8311 4.23035 8.89054 7.99994 8.89054C11.7695 8.89054 14.8946 11.8311 15.1124 15.5851C15.1257 15.8207 15.3213 16.003 15.5547 16.003C15.5636 16.003 15.5725 16.003 15.5814 16.003C15.8258 15.9896 16.0125 15.7785 15.9992 15.534C15.7969 12.0667 13.3921 9.21727 10.1915 8.30821ZM4.44372 4.44527C4.44372 2.48491 6.03957 0.889054 7.99994 0.889054C9.9603 0.889054 11.5562 2.48491 11.5562 4.44527C11.5562 6.40564 9.9603 8.00149 7.99994 8.00149C6.03957 8.00149 4.44372 6.40564 4.44372 4.44527Z" fill="black"/>
<path d="M9.09337 14.785C8.98446 14.8561 8.86888 14.9183 8.74664 14.9672C8.62662 15.0161 8.50215 15.0517 8.37768 15.0762C8.12652 15.1251 7.86425 15.1251 7.61532 15.0762C7.48863 15.0517 7.36416 15.0139 7.24636 14.9672C7.12411 14.9183 7.00854 14.8561 6.89963 14.785C6.7885 14.7116 6.68181 14.625 6.58624 14.5294C6.52178 14.4649 6.45955 14.3938 6.4062 14.3227C6.35286 14.2516 6.30396 14.176 6.25951 14.1004C6.21728 14.0248 6.17949 13.9448 6.14615 13.8648C6.11504 13.7848 6.08614 13.7026 6.06614 13.6181C6.05725 13.5848 6.0528 13.5492 6.04613 13.5136L6.27062 13.7381C6.44399 13.9115 6.72626 13.9115 6.89963 13.7381C7.07299 13.5648 7.07299 13.2825 6.89963 13.1091L5.95723 12.1667C5.95723 12.1667 5.94389 12.1578 5.93723 12.1512C5.92611 12.1401 5.91278 12.1289 5.89944 12.12C5.88833 12.1112 5.87499 12.1045 5.86388 12.0978C5.85054 12.0912 5.83943 12.0845 5.82609 12.0778C5.81054 12.0712 5.7972 12.0667 5.78164 12.06C5.77275 12.0578 5.76608 12.0534 5.75941 12.0511C5.75497 12.0511 5.75052 12.0511 5.74386 12.0489C5.7283 12.0445 5.71274 12.0423 5.69718 12.0423C5.68384 12.0423 5.66829 12.0378 5.65495 12.0378C5.64162 12.0378 5.62828 12.0378 5.61272 12.0378C5.59716 12.0378 5.58383 12.0378 5.56827 12.0423C5.55493 12.0445 5.5416 12.0489 5.52826 12.0511C5.51492 12.0556 5.50159 12.0578 5.48825 12.0623C5.47492 12.0667 5.46158 12.0734 5.44825 12.08C5.43491 12.0867 5.4238 12.0912 5.41046 12.1C5.39935 12.1067 5.38823 12.1156 5.37712 12.1245C5.36379 12.1334 5.35267 12.1445 5.34156 12.1534C5.33711 12.1578 5.33267 12.1601 5.33045 12.1623L4.38805 13.1047C4.21468 13.278 4.21468 13.5603 4.38805 13.7337C4.47473 13.8204 4.58809 13.8648 4.70144 13.8648C4.81479 13.8648 4.92815 13.8204 5.01483 13.7337L5.1593 13.5892C5.17264 13.6714 5.18597 13.7537 5.20598 13.8359C5.2371 13.9582 5.2771 14.0782 5.32378 14.1915C5.37045 14.3093 5.42602 14.4249 5.48825 14.5338C5.55049 14.645 5.62161 14.7539 5.70163 14.8561C5.77942 14.9606 5.86832 15.0606 5.96167 15.1539C6.09948 15.2918 6.25284 15.4162 6.41287 15.5229C6.57068 15.6274 6.7396 15.7163 6.91519 15.7874C7.08633 15.8563 7.26636 15.9096 7.45084 15.9452C7.6331 15.9808 7.81757 15.9985 8.00205 15.9985C8.18653 15.9985 8.37101 15.9808 8.55327 15.9452C8.73552 15.9096 8.91556 15.8563 9.08892 15.7874C9.26451 15.7163 9.43343 15.6274 9.59124 15.5229C9.79572 15.3873 9.85129 15.1117 9.71793 14.9072C9.58235 14.7028 9.30674 14.6472 9.10226 14.7805L9.09337 14.785Z" fill="black"/>
<path d="M10.9893 12.489L10.8448 12.6335C10.8315 12.5512 10.8181 12.4668 10.7981 12.3868C10.767 12.2645 10.727 12.1445 10.6803 12.0311C10.6336 11.9133 10.5781 11.7978 10.5158 11.6888C10.4536 11.5777 10.3825 11.4688 10.3025 11.3666C10.2247 11.2621 10.1358 11.1621 10.0424 11.0687C9.90462 10.9309 9.75125 10.8065 9.59122 10.6998C9.43342 10.5953 9.2645 10.5064 9.08891 10.4353C8.91777 10.3664 8.73773 10.313 8.55325 10.2775C8.19319 10.2086 7.81312 10.2063 7.45083 10.2775C7.26857 10.313 7.08854 10.3664 6.91517 10.4353C6.73958 10.5064 6.57066 10.5953 6.41285 10.6998C6.20837 10.8354 6.15281 11.111 6.28616 11.3154C6.42175 11.5199 6.69735 11.5755 6.90183 11.4421C7.01074 11.371 7.12632 11.3088 7.24857 11.2599C7.36859 11.211 7.49306 11.1754 7.61752 11.151C7.86868 11.1021 8.13095 11.1021 8.37989 11.151C8.50658 11.1754 8.63105 11.2132 8.74885 11.2599C8.87109 11.3088 8.98667 11.371 9.09558 11.4421C9.20671 11.5155 9.3134 11.6022 9.40897 11.6977C9.47342 11.7622 9.53566 11.8333 9.589 11.9044C9.64235 11.9756 9.69124 12.0511 9.7357 12.1267C9.77793 12.2023 9.81571 12.2823 9.84905 12.3623C9.88017 12.4423 9.90906 12.5246 9.92907 12.609C9.93796 12.6424 9.9424 12.6779 9.94907 12.7135L9.72458 12.489C9.55122 12.3156 9.26894 12.3156 9.09558 12.489C8.92221 12.6624 8.92221 12.9446 9.09558 13.118L10.038 14.0604C10.038 14.0604 10.0513 14.0693 10.058 14.076C10.0691 14.0871 10.0824 14.0982 10.0958 14.1071C10.1069 14.116 10.1202 14.1226 10.1313 14.1293C10.1447 14.136 10.1558 14.1426 10.1691 14.1493C10.1847 14.156 10.198 14.1604 10.2136 14.1671C10.2225 14.1693 10.2291 14.1738 10.2358 14.176C10.2402 14.176 10.2447 14.176 10.2469 14.176C10.2802 14.1826 10.3114 14.1893 10.3447 14.1893C10.3447 14.1893 10.3469 14.1893 10.3491 14.1893C10.3491 14.1893 10.3514 14.1893 10.3536 14.1893C10.3958 14.1893 10.438 14.1804 10.4781 14.1693C10.4847 14.1671 10.4936 14.1649 10.5003 14.1626C10.5381 14.1493 10.5759 14.1293 10.6092 14.1049C10.6159 14.1004 10.6225 14.0937 10.6292 14.0893C10.6403 14.0804 10.6536 14.0715 10.6648 14.0604L11.6072 13.118C11.7805 12.9446 11.7805 12.6624 11.6072 12.489C11.4338 12.3156 11.1515 12.3156 10.9781 12.489H10.9893Z" fill="black"/>
</svg>
