<svg width="16" height="16" viewBox="0 0 16 16" fill="none" xmlns="http://www.w3.org/2000/svg">
<path d="M8.00012 11C9.65512 11 11.0001 9.655 11.0001 8V3C11.0001 1.345 9.65512 0 8.00012 0C6.34512 0 5.00012 1.345 5.00012 3V8C5.00012 9.655 6.34512 11 8.00012 11ZM6.00012 3C6.00012 1.8975 6.89762 1 8.00012 1C9.10262 1 10.0001 1.8975 10.0001 3V8C10.0001 9.1025 9.10262 10 8.00012 10C6.89762 10 6.00012 9.1025 6.00012 8V3Z" fill="black"/>
<path d="M11.5 15H8.5V12.975C11.0225 12.7225 13 10.5875 13 8C13 7.725 12.775 7.5 12.5 7.5C12.225 7.5 12 7.725 12 8C12 10.205 10.205 12 8 12C5.795 12 4 10.205 4 8C4 7.725 3.775 7.5 3.5 7.5C3.225 7.5 3 7.725 3 8C3 10.5875 4.9775 12.7225 7.5 12.975V15H4.5C4.225 15 4 15.225 4 15.5C4 15.775 4.225 16 4.5 16H11.5C11.775 16 12 15.775 12 15.5C12 15.225 11.775 15 11.5 15Z" fill="black"/>
</svg>
