<svg width="16" height="16" viewBox="0 0 16 16" fill="none" xmlns="http://www.w3.org/2000/svg">
<path d="M15.8725 9.97491L8.01844 2.11866C7.33191 1.43213 6.21657 1.43213 5.53004 2.11866L4.57467 3.07403L3.6193 4.0294C2.93276 4.71593 2.93276 5.83127 3.6193 6.5178L5.5056 8.4041C5.17011 8.73959 4.9857 9.18617 4.9857 9.66164C4.9857 9.9838 5.07235 10.2926 5.23232 10.5637L4.06365 11.7301H2.66615V10.8392C2.66615 10.3504 2.26845 9.95269 1.77965 9.95269H0.444358C0.199961 9.95269 0 10.1527 0 10.397V13.9519C0 14.1963 0.199961 14.3963 0.444358 14.3963H1.77965C2.26845 14.3963 2.66615 13.9986 2.66615 13.5098V12.6188H4.24806C4.36582 12.6188 4.47913 12.5722 4.56134 12.4878L5.85886 11.1902C6.12992 11.3502 6.43875 11.4368 6.76091 11.4368C7.23637 11.4368 7.68295 11.2524 8.01844 10.9169L10.218 13.1165C10.3047 13.2032 10.418 13.2476 10.5313 13.2476C10.6446 13.2476 10.7579 13.2032 10.8446 13.1165L11.1912 12.7699C11.5622 13.0143 11.9888 13.1365 12.4154 13.1365C12.9841 13.1365 13.5529 12.921 13.9862 12.4878C14.4194 12.0545 14.6305 11.5057 14.6327 10.9258L15.6436 10.7237C15.8036 10.6925 15.9347 10.5726 15.9813 10.417C16.028 10.2593 15.9858 10.0904 15.8702 9.97491H15.8725ZM0.888716 13.5076V10.8414H1.77743V12.1656C1.77743 12.1678 1.77743 12.1723 1.77743 12.1745C1.77743 12.1767 1.77743 12.1811 1.77743 12.1834V13.5076H0.888716ZM6.13214 10.2882C5.96328 10.1193 5.87219 9.89715 5.87219 9.65942C5.87219 9.42168 5.96551 9.1995 6.13214 9.03065L7.38967 10.2882C7.05418 10.6237 6.46763 10.6237 6.13214 10.2882ZM4.24584 5.88904C3.90591 5.5491 3.90591 4.9981 4.24584 4.65817L4.88794 4.01607L8.33838 7.46651L11.7888 10.9169L10.8468 11.859L10.5335 12.1723L4.25028 5.88904H4.24584ZM13.3574 11.859C12.9486 12.2678 12.3398 12.35 11.8444 12.1145L12.6331 11.3258L13.7307 11.1058C13.6907 11.388 13.5618 11.6524 13.3552 11.859H13.3574ZM12.5598 10.4348L10.1025 7.97752L5.51226 3.3873L6.15214 2.7452C6.49207 2.40527 7.0453 2.40527 7.38301 2.7452L14.6505 10.0127L12.5553 10.4326L12.5598 10.4348Z" fill="black"/>
</svg>
