<svg width="16" height="16" viewBox="0 0 16 16" fill="none" xmlns="http://www.w3.org/2000/svg">
<path d="M12.7974 12.9622C12.733 12.9622 12.6663 12.9488 12.6041 12.9177C12.3841 12.8111 12.2908 12.5445 12.3975 12.3245C12.7219 11.658 12.8863 10.9404 12.8863 10.1938C12.8863 7.49885 10.6934 5.30597 7.99839 5.30597C5.30339 5.30597 3.11051 7.49885 3.11051 10.1938C3.11051 10.9404 3.27492 11.658 3.5993 12.3245C3.70594 12.5445 3.61485 12.8111 3.39267 12.9177C3.17272 13.0244 2.90611 12.9333 2.79946 12.7111C2.41732 11.9224 2.2218 11.0737 2.2218 10.1916C2.2218 7.00562 4.81238 4.41504 7.99839 4.41504C11.1844 4.41504 13.775 7.00562 13.775 10.1916C13.775 11.0737 13.5817 11.9224 13.1973 12.7111C13.1196 12.8689 12.9618 12.9622 12.7974 12.9622Z" fill="black"/>
<path d="M7.99843 5.30383C7.75404 5.30383 7.55408 5.10387 7.55408 4.85948V2.63771C7.55408 2.39332 7.75404 2.19336 7.99843 2.19336C8.24282 2.19336 8.44278 2.39332 8.44278 2.63771V4.85948C8.44278 5.10387 8.24282 5.30383 7.99843 5.30383Z" fill="black"/>
<path d="M15.5522 10.636H13.3305C13.0861 10.636 12.8861 10.4361 12.8861 10.1917C12.8861 9.94727 13.0861 9.74731 13.3305 9.74731H15.5522C15.7966 9.74731 15.9966 9.94727 15.9966 10.1917C15.9966 10.4361 15.7966 10.636 15.5522 10.636Z" fill="black"/>
<path d="M2.66612 10.636H0.444353C0.199959 10.636 0 10.4361 0 10.1917C0 9.94727 0.199959 9.74731 0.444353 9.74731H2.66612C2.91051 9.74731 3.11047 9.94727 3.11047 10.1917C3.11047 10.4361 2.91051 10.636 2.66612 10.636Z" fill="black"/>
<path d="M15.5523 13.8065C15.499 13.8065 15.4457 13.7976 15.3924 13.7776C13.0351 12.8734 10.5467 12.4157 7.99833 12.4157C5.44997 12.4157 2.9616 12.8734 0.604304 13.7776C0.375463 13.8643 0.117738 13.751 0.0310895 13.5221C-0.0577811 13.2933 0.0577506 13.0356 0.286592 12.9489C2.74608 12.0047 5.3411 11.527 8.00056 11.527C10.66 11.527 13.2528 12.0047 15.7145 12.9489C15.9434 13.0378 16.0589 13.2933 15.97 13.5221C15.9011 13.6999 15.7345 13.8065 15.5546 13.8065H15.5523Z" fill="black"/>
<path d="M4.2279 6.86575C4.11459 6.86575 4.00128 6.82132 3.91463 6.73467L2.34384 5.16388C2.17054 4.99059 2.17054 4.70842 2.34384 4.53512C2.51714 4.36183 2.7993 4.36183 2.9726 4.53512L4.54339 6.10591C4.71668 6.27921 4.71668 6.56137 4.54339 6.73467C4.45674 6.82132 4.34343 6.86575 4.23012 6.86575H4.2279Z" fill="black"/>
<path d="M11.7688 6.86575C11.6555 6.86575 11.5422 6.82132 11.4555 6.73467C11.2822 6.56137 11.2822 6.27921 11.4555 6.10591L13.0263 4.53512C13.1996 4.36183 13.4818 4.36183 13.6551 4.53512C13.8284 4.70842 13.8284 4.99059 13.6551 5.16388L12.0843 6.73467C11.9976 6.82132 11.8843 6.86575 11.771 6.86575H11.7688Z" fill="black"/>
</svg>
