<svg width="16" height="16" viewBox="0 0 16 16" fill="none" xmlns="http://www.w3.org/2000/svg">
<path d="M15.5556 6.19445H12.7356L14.5356 4.39445C15.2289 3.70111 15.2289 2.57445 14.5356 1.88111C13.8422 1.18778 12.7156 1.18778 12.0222 1.88111L7.70889 6.19445H0.444444C0.2 6.19445 0 6.39445 0 6.63889C0 11.05 3.58889 14.6389 8 14.6389C12.4111 14.6389 16 11.05 16 6.63889C16 6.39445 15.8 6.19445 15.5556 6.19445ZM12.6511 2.50778C12.9978 2.16111 13.5622 2.16111 13.9089 2.50778C14.2556 2.85445 14.2556 3.41889 13.9089 3.76556L11.48 6.19445H8.96667L12.6533 2.50778H12.6511ZM8 13.75C4.22889 13.75 1.13333 10.7989 0.902222 7.08334H15.0978C14.8667 10.7989 11.7711 13.75 8 13.75Z" fill="black"/>
</svg>
