<svg width="16" height="16" viewBox="0 0 16 16" fill="none" xmlns="http://www.w3.org/2000/svg">
<path d="M13.9558 3.35403H12.3891V1.8054C12.3891 1.52148 12.1568 1.28918 11.8729 1.28918H0.516212C0.232296 1.28918 0 1.52148 0 1.8054V13.1569C0 14.0138 0.696887 14.7107 1.5538 14.7107H10.8327C11.6896 14.7107 12.3865 14.0138 12.3865 13.1569V12.6459H13.9532C15.0811 12.6459 16 11.727 16 10.5991V5.40082C16 4.27289 15.0811 3.35403 13.9532 3.35403H13.9558ZM11.3567 13.1569C11.3567 13.446 11.1218 13.6783 10.8353 13.6783H1.5538C1.26472 13.6783 1.03242 13.4434 1.03242 13.1569V2.32161H11.3567V13.1569ZM14.9702 10.5991C14.9702 11.1592 14.5159 11.6134 13.9558 11.6134H12.3891V4.38646H13.9558C14.5159 4.38646 14.9702 4.84073 14.9702 5.40082V10.5991Z" fill="black"/>
</svg>
