<svg width="16" height="16" viewBox="0 0 16 16" fill="none" xmlns="http://www.w3.org/2000/svg">
<path d="M7.99998 15.9978C3.58949 15.9978 0.00109863 12.4094 0.00109863 7.9989C0.00109863 3.5884 3.58949 1.52588e-05 7.99998 1.52588e-05C8.39548 1.52588e-05 8.79098 0.0289001 9.17759 0.0866698C9.41978 0.12222 9.58865 0.348855 9.5531 0.591044C9.51755 0.833232 9.29091 1.00432 9.04872 0.966547C8.70433 0.915443 8.35104 0.891002 7.99998 0.891002C4.08053 0.891002 0.889863 4.08167 0.889863 8.00112C0.889863 11.9206 4.08053 15.1112 7.99998 15.1112C11.6639 15.1112 14.7035 12.3672 15.0723 8.72768C15.0968 8.48772 15.1101 8.24331 15.1101 8.00112C15.1101 7.75893 15.099 7.52118 15.0745 7.28566C15.0279 6.8235 14.9368 6.36579 14.8013 5.92363C14.7301 5.68811 14.8612 5.44148 15.0968 5.36815C15.3301 5.29705 15.5789 5.42814 15.6522 5.66367C15.8033 6.16138 15.9078 6.67686 15.9589 7.19679C15.9855 7.46119 15.9989 7.73227 15.9989 8.00112C15.9989 8.26997 15.9855 8.54771 15.9566 8.81878C15.5411 12.9138 12.1194 16 7.99998 16V15.9978Z" fill="black"/>
<path d="M11.524 1.75979C11.4552 1.75979 11.3841 1.74424 11.3174 1.70869C11.1219 1.60648 10.9197 1.51094 10.7197 1.42873C10.4931 1.33541 10.3842 1.07545 10.4797 0.848811C10.5731 0.622176 10.833 0.515525 11.0597 0.608845C11.2863 0.702165 11.5129 0.808817 11.7329 0.924356C11.9507 1.0399 12.0329 1.30875 11.9173 1.52427C11.8373 1.67536 11.684 1.76202 11.524 1.76202V1.75979Z" fill="black"/>
<path d="M7.99982 13.3315C5.06023 13.3315 2.66723 10.9385 2.66723 7.99892C2.66723 5.05933 5.06023 2.66633 7.99982 2.66633C8.70195 2.66633 9.38185 2.79965 10.0262 3.06406C10.2528 3.15738 10.3617 3.41734 10.2684 3.64397C10.1751 3.87061 9.91511 3.97948 9.68847 3.88616C9.15299 3.66619 8.58418 3.5551 7.99982 3.5551C5.54905 3.5551 3.556 5.54815 3.556 7.99892C3.556 10.4497 5.54905 12.4427 7.99982 12.4427C10.4506 12.4427 12.4436 10.4497 12.4436 7.99892C12.4436 7.75451 12.6436 7.55454 12.888 7.55454C13.1324 7.55454 13.3324 7.75451 13.3324 7.99892C13.3324 10.9385 10.9394 13.3315 7.99982 13.3315Z" fill="black"/>
<path d="M12.5927 6.76348C12.4105 6.76348 12.2417 6.65239 12.175 6.47241C12.0995 6.26578 12.0084 6.06358 11.9017 5.86805C11.784 5.65253 11.8639 5.38368 12.0772 5.26592C12.2928 5.14815 12.5616 5.22814 12.6794 5.44145C12.806 5.67475 12.9171 5.91694 13.0082 6.16579C13.0927 6.39687 12.9749 6.65239 12.7438 6.73682C12.6927 6.7546 12.6416 6.76348 12.5905 6.76348H12.5927Z" fill="black"/>
<path d="M8.00003 10.6652C6.52912 10.6652 5.33374 9.46979 5.33374 7.99888C5.33374 6.52798 6.52912 5.33259 8.00003 5.33259C9.47093 5.33259 10.6663 6.52798 10.6663 7.99888C10.6663 9.46979 9.47093 10.6652 8.00003 10.6652ZM8.00003 6.22136C7.02017 6.22136 6.2225 7.01902 6.2225 7.99888C6.2225 8.97875 7.02017 9.77641 8.00003 9.77641C8.97989 9.77641 9.77756 8.97875 9.77756 7.99888C9.77756 7.01902 8.97989 6.22136 8.00003 6.22136Z" fill="black"/>
</svg>
