<svg width="16" height="16" viewBox="0 0 16 16" fill="none" xmlns="http://www.w3.org/2000/svg">
<path d="M15.5556 2.22223H0.444444C0.2 2.22223 0 2.42223 0 2.66667V13.3333C0 13.5778 0.2 13.7778 0.444444 13.7778H15.5556C15.8 13.7778 16 13.5778 16 13.3333V2.66667C16 2.42223 15.8 2.22223 15.5556 2.22223ZM15.1111 12.8889H0.888889V3.11112H15.1111V12.8889Z" fill="black"/>
<path d="M6.22217 8.88889H2.66661C2.42217 8.88889 2.22217 9.08889 2.22217 9.33333V11.5556C2.22217 11.8 2.42217 12 2.66661 12H6.22217C6.46661 12 6.66661 11.8 6.66661 11.5556V9.33333C6.66661 9.08889 6.46661 8.88889 6.22217 8.88889ZM5.77772 11.1111H3.11106V9.77777H5.77772V11.1111Z" fill="black"/>
<path d="M13.3334 8.88889H8.00011C7.75566 8.88889 7.55566 9.08889 7.55566 9.33333C7.55566 9.57777 7.75566 9.77777 8.00011 9.77777H13.3334C13.5779 9.77777 13.7779 9.57777 13.7779 9.33333C13.7779 9.08889 13.5779 8.88889 13.3334 8.88889Z" fill="black"/>
<path d="M13.3334 11.1111H8.00011C7.75566 11.1111 7.55566 11.3111 7.55566 11.5556C7.55566 11.8 7.75566 12 8.00011 12H13.3334C13.5779 12 13.7779 11.8 13.7779 11.5556C13.7779 11.3111 13.5779 11.1111 13.3334 11.1111Z" fill="black"/>
<path d="M8.34218 7.19113C8.37551 7.37335 8.51774 7.51335 8.69996 7.54668C8.88218 7.58002 9.0644 7.49779 9.15996 7.34002L9.58885 6.63335L10.0177 7.34002C10.1 7.47335 10.2444 7.55335 10.3977 7.55335C10.4244 7.55335 10.4511 7.55113 10.4777 7.54668C10.66 7.51335 10.8022 7.37113 10.8355 7.19113L11.3266 4.52446C11.3711 4.28224 11.2111 4.05113 10.9711 4.00668C10.7311 3.96224 10.4977 4.12224 10.4533 4.36224L10.1733 5.88002L9.97107 5.54446C9.89107 5.41113 9.74662 5.33113 9.59107 5.33113C9.43551 5.33113 9.29107 5.41335 9.21107 5.54446L9.00885 5.88002L8.72885 4.36224C8.6844 4.12224 8.45107 3.96224 8.21107 4.00668C7.96885 4.05113 7.81107 4.28224 7.85551 4.52446L8.34662 7.19113H8.34218Z" fill="black"/>
<path d="M2.25988 4.2378C2.25321 4.25114 2.24654 4.26225 2.23988 4.27558C2.23321 4.28891 2.23099 4.30447 2.22654 4.32003C2.2221 4.33336 2.21765 4.34447 2.21543 4.3578C2.20877 4.38669 2.20654 4.41558 2.20654 4.44447V7.11114C2.20654 7.35558 2.40654 7.55558 2.65099 7.55558C2.89543 7.55558 3.09543 7.35558 3.09543 7.11114V5.8978L4.07988 7.3578C4.09988 7.38669 4.1221 7.41114 4.14654 7.43336C4.15543 7.44003 4.16432 7.44669 4.17321 7.45336C4.19099 7.46669 4.20877 7.48002 4.22877 7.49114C4.23765 7.4978 4.24876 7.50225 4.25765 7.50669C4.27988 7.5178 4.3021 7.52447 4.32432 7.53114C4.33321 7.53336 4.3421 7.5378 4.35099 7.54002C4.3821 7.54669 4.41543 7.55114 4.45099 7.55114C4.49099 7.55114 4.52654 7.54447 4.56432 7.53558C4.57321 7.53336 4.5821 7.53114 4.59099 7.52669C4.65765 7.50447 4.71765 7.46891 4.76432 7.42002C4.77321 7.41114 4.7821 7.40003 4.79099 7.38891C4.79988 7.3778 4.81099 7.36669 4.81988 7.35336C4.82877 7.34225 4.83321 7.32891 4.83988 7.31558C4.84654 7.30225 4.85321 7.29114 4.85988 7.2778C4.86654 7.26447 4.86877 7.24891 4.87321 7.23336C4.87765 7.22002 4.8821 7.20891 4.88432 7.19558C4.89099 7.16669 4.89321 7.1378 4.89321 7.10891V4.44225C4.89321 4.1978 4.69321 3.9978 4.44877 3.9978C4.20432 3.9978 4.00432 4.1978 4.00432 4.44225V5.65558L3.01988 4.19558C3.00432 4.17114 2.98432 4.14891 2.96432 4.12891C2.95321 4.1178 2.9421 4.10891 2.92877 4.10003C2.91765 4.09114 2.90877 4.08225 2.89765 4.07336C2.88432 4.06447 2.87099 4.0578 2.85765 4.05114C2.84654 4.04447 2.83543 4.0378 2.8221 4.03336C2.80654 4.02669 2.79099 4.02447 2.77543 4.02003C2.76432 4.01558 2.75099 4.01114 2.73988 4.00891C2.6821 3.9978 2.6221 3.9978 2.56432 4.00891C2.55321 4.01114 2.5421 4.01558 2.53099 4.02003C2.51543 4.02447 2.49765 4.02891 2.4821 4.03558C2.42654 4.0578 2.37765 4.09114 2.33765 4.13336C2.32877 4.14225 2.31988 4.15336 2.31099 4.16447C2.3021 4.17558 2.29099 4.18669 2.2821 4.20002C2.27321 4.21114 2.26877 4.22447 2.2621 4.2378H2.25988Z" fill="black"/>
<path d="M5.81554 7.55556H7.24221C7.48665 7.55556 7.68665 7.35556 7.68665 7.11111C7.68665 6.86667 7.48665 6.66667 7.24221 6.66667H6.25998V6.22222H6.73776C6.9822 6.22222 7.1822 6.02222 7.1822 5.77778C7.1822 5.53333 6.9822 5.33333 6.73776 5.33333H6.25998V4.88889H7.24221C7.48665 4.88889 7.68665 4.68889 7.68665 4.44444C7.68665 4.2 7.48665 4 7.24221 4H5.81554C5.57109 4 5.37109 4.2 5.37109 4.44444V7.11111C5.37109 7.35556 5.57109 7.55556 5.81554 7.55556Z" fill="black"/>
<path d="M12.5889 6.66667C12.4333 6.66667 12.3022 6.56444 12.3022 6.44444C12.3022 6.2 12.1022 6 11.8578 6C11.6133 6 11.4133 6.2 11.4133 6.44444C11.4133 7.05778 11.94 7.55556 12.5889 7.55556C13.2378 7.55556 13.7644 7.05778 13.7644 6.44444C13.7644 5.88222 13.2267 5.60444 12.7933 5.38222C12.6356 5.3 12.3778 5.16889 12.3067 5.08444C12.3244 4.97556 12.4467 4.88889 12.5911 4.88889C12.7467 4.88889 12.8778 4.99111 12.8778 5.11111C12.8778 5.35556 13.0778 5.55556 13.3222 5.55556C13.5667 5.55556 13.7667 5.35556 13.7667 5.11111C13.7667 4.49778 13.24 4 12.5911 4C11.9422 4 11.4156 4.49778 11.4156 5.11111C11.4156 5.67333 11.9533 5.95111 12.3867 6.17333C12.5444 6.25556 12.8022 6.38667 12.8733 6.47111C12.8556 6.58 12.7333 6.66667 12.5889 6.66667Z" fill="black"/>
</svg>
