<svg width="16" height="16" viewBox="0 0 16 16" fill="none" xmlns="http://www.w3.org/2000/svg">
<path d="M13.6892 13.6159C15.1179 12.1694 16 10.1853 16 7.99889C16 3.58839 12.4116 0 8.00111 0C5.81253 0 3.82836 0.884322 2.38189 2.31301C2.36856 2.3219 2.35745 2.33079 2.34412 2.34412C2.33079 2.35745 2.32412 2.36856 2.31301 2.38189C0.884322 3.82836 0 5.81253 0 8.00111C0 12.4116 3.58839 16 7.99889 16C10.1875 16 12.1716 15.1157 13.6159 13.6892C13.6292 13.6781 13.6425 13.6692 13.6537 13.6581C13.6648 13.647 13.6737 13.6337 13.6848 13.6203L13.6892 13.6159ZM15.1112 7.99889C15.1112 9.79864 14.438 11.4451 13.3293 12.6982L9.96306 9.33204H12.8893C13.1337 9.33204 13.3337 9.13206 13.3337 8.88765V7.11012C13.3337 6.86571 13.1337 6.66574 12.8893 6.66574H7.29676L3.30176 2.67074C4.55492 1.56423 6.20136 0.888765 8.00111 0.888765C11.9206 0.888765 15.1112 4.07943 15.1112 7.99889ZM8.18553 7.55451H9.77864V8.44327H9.0743L8.18553 7.55451ZM7.81669 8.44327H3.55728V7.55451H6.92793L7.81669 8.44327ZM12.4449 7.55451V8.44327H10.6674V7.55451H12.4449ZM0.890987 7.99889C0.890987 6.19914 1.56423 4.5527 2.67296 3.29954L6.03916 6.66574H3.1129C2.86849 6.66574 2.66852 6.86571 2.66852 7.11012V8.88765C2.66852 9.13206 2.86849 9.33204 3.1129 9.33204H8.70546L12.7005 13.327C11.4473 14.4335 9.80086 15.109 8.00111 15.109C4.08166 15.109 0.890987 11.9183 0.890987 7.99889Z" fill="black"/>
<path d="M12.4448 5.777C12.4448 6.02141 12.6447 6.22138 12.8892 6.22138C13.1336 6.22138 13.3335 6.02141 13.3335 5.777C13.3335 5.1482 12.8158 4.63049 12.3137 4.13056C11.9759 3.79283 11.556 3.37289 11.556 3.1107C11.556 2.86629 11.356 2.66632 11.1116 2.66632C10.8672 2.66632 10.6672 2.86629 10.6672 3.1107C10.6672 3.73951 11.1849 4.25721 11.6871 4.75714C12.0248 5.09487 12.4448 5.51481 12.4448 5.777Z" fill="black"/>
</svg>
