<svg width="16" height="16" viewBox="0 0 16 16" fill="none" xmlns="http://www.w3.org/2000/svg">
<path d="M14.6445 13.6378L14.2222 12.3733V8.88889C14.2222 5.94889 12.1711 3.48 9.42669 2.83333C9.64669 2.53778 9.7778 2.17333 9.7778 1.77778C9.7778 0.797778 8.98002 0 8.00003 0C7.02003 0 6.22225 0.797778 6.22225 1.77778C6.22225 2.17333 6.35336 2.53778 6.57336 2.83333C3.82891 3.48 1.7778 5.94889 1.7778 8.88889V12.3733L1.35558 13.6378C1.31114 13.7733 1.33336 13.9222 1.4178 14.0378C1.50225 14.1533 1.63558 14.2222 1.7778 14.2222H6.22225C6.22225 15.2022 7.02003 16 8.00003 16C8.98002 16 9.7778 15.2022 9.7778 14.2222H14.2222C14.3645 14.2222 14.5 14.1533 14.5822 14.0378C14.6667 13.9222 14.6889 13.7733 14.6445 13.6378ZM7.11114 1.77778C7.11114 1.28667 7.50891 0.888889 8.00003 0.888889C8.49114 0.888889 8.88891 1.28667 8.88891 1.77778C8.88891 2.26889 8.49114 2.66667 8.00003 2.66667C7.50891 2.66667 7.11114 2.26889 7.11114 1.77778ZM8.00003 15.1111C7.50891 15.1111 7.11114 14.7133 7.11114 14.2222H8.88891C8.88891 14.7133 8.49114 15.1111 8.00003 15.1111ZM2.39336 13.3333L2.64225 12.5844C2.6578 12.54 2.66447 12.4911 2.66447 12.4444V8.88889C2.66447 5.94889 5.0578 3.55556 7.9978 3.55556C10.9378 3.55556 13.3311 5.94889 13.3311 8.88889V12.4444C13.3311 12.4911 13.3378 12.54 13.3534 12.5844L13.6022 13.3333H2.39336Z" fill="black"/>
</svg>
