<svg width="16" height="16" viewBox="0 0 16 16" fill="none" xmlns="http://www.w3.org/2000/svg">
<path d="M10.1887 8.306C11.5309 7.54161 12.4419 6.09729 12.4419 4.44409C12.4419 1.99317 10.4487 0 7.99781 0C5.54689 0 3.55372 1.99317 3.55372 4.44409C3.55372 6.09729 4.46253 7.53939 5.80687 8.306C2.60713 9.21481 0.200656 12.0635 0.000671976 15.5299C-0.0126603 15.7743 0.173991 15.9854 0.418416 15.9987C0.662841 16.0076 0.873935 15.8254 0.887267 15.581C1.04948 12.779 2.83156 10.4325 5.29358 9.42146L7.63783 12.7012C7.72227 12.819 7.85559 12.8879 8.00003 12.8879C8.14446 12.8879 8.27778 12.819 8.36222 12.7012L10.7065 9.42146C13.1685 10.4325 14.9506 12.779 15.1128 15.581C15.1261 15.8165 15.3217 15.9987 15.555 15.9987C15.5639 15.9987 15.5728 15.9987 15.5816 15.9987C15.8261 15.9854 16.0127 15.7743 15.9994 15.5299C15.7972 12.0635 13.3929 9.21481 10.1932 8.306H10.1887ZM4.44254 4.44409C4.44254 2.48424 6.03796 0.888817 7.99781 0.888817C9.95765 0.888817 11.5531 2.48424 11.5531 4.44409C11.5531 6.40393 9.95765 7.99936 7.99781 7.99936C6.03796 7.99936 4.44254 6.40393 4.44254 4.44409ZM7.99781 11.6791L6.17351 9.12593C6.75568 8.97261 7.36675 8.88817 7.99781 8.88817C8.62887 8.88817 9.23771 8.97261 9.8221 9.12593L7.99781 11.6791Z" fill="black"/>
<path d="M11.553 11.5547H10.6642V12.4435H9.7754V13.3323H10.6642V14.2211H11.553V13.3323H12.4419V12.4435H11.553V11.5547Z" fill="black"/>
</svg>
