<svg width="16" height="16" viewBox="0 0 16 16" fill="none" xmlns="http://www.w3.org/2000/svg">
<path d="M13.3333 1.78222H11.9999V0.444444C11.9999 0.2 11.7999 0 11.5555 0H4.44439C4.19995 0 3.99995 0.2 3.99995 0.444444V1.78222H2.66661C2.42217 1.78222 2.22217 1.98222 2.22217 2.22667V15.5556C2.22217 15.8 2.42217 16 2.66661 16H13.3333C13.5777 16 13.7777 15.8 13.7777 15.5556V2.22667C13.7777 1.98222 13.5777 1.78222 13.3333 1.78222ZM6.66661 15.1111V13.3333H7.5555V15.1111H6.66661ZM8.44439 15.1111V13.3333H9.33328V15.1111H8.44439ZM12.8888 15.1111H10.2222V12.8889C10.2222 12.6444 10.0222 12.4444 9.77772 12.4444H6.22217C5.97772 12.4444 5.77772 12.6444 5.77772 12.8889V15.1111H3.11106V2.67111H4.44439C4.68883 2.67111 4.88883 2.47111 4.88883 2.22667V0.888889H11.1111V2.22667C11.1111 2.47111 11.3111 2.67111 11.5555 2.67111H12.8888V15.1111Z" fill="black"/>
<path d="M4.44432 4.44669C4.19988 4.44669 3.99988 4.64669 3.99988 4.89113C3.99988 5.13557 4.19988 5.33557 4.44432 5.33557H11.5554C11.7999 5.33557 11.9999 5.13557 11.9999 4.89113C11.9999 4.64669 11.7999 4.44669 11.5554 4.44669H4.44432Z" fill="black"/>
<path d="M11.5554 9.78223H4.44432C4.19988 9.78223 3.99988 9.98223 3.99988 10.2267C3.99988 10.4711 4.19988 10.6711 4.44432 10.6711H11.5554C11.7999 10.6711 11.9999 10.4711 11.9999 10.2267C11.9999 9.98223 11.7999 9.78223 11.5554 9.78223Z" fill="black"/>
<path d="M11.5554 7.11557H4.44432C4.19988 7.11557 3.99988 7.31557 3.99988 7.56001C3.99988 7.80446 4.19988 8.00446 4.44432 8.00446H11.5554C11.7999 8.00446 11.9999 7.80446 11.9999 7.56001C11.9999 7.31557 11.7999 7.11557 11.5554 7.11557Z" fill="black"/>
<path d="M6.22215 2.66666H9.77771C10.0222 2.66666 10.2222 2.46666 10.2222 2.22222C10.2222 1.97777 10.0222 1.77777 9.77771 1.77777H6.22215C5.97771 1.77777 5.77771 1.97777 5.77771 2.22222C5.77771 2.46666 5.97771 2.66666 6.22215 2.66666Z" fill="black"/>
</svg>
