<svg width="16" height="16" viewBox="0 0 16 16" fill="none" xmlns="http://www.w3.org/2000/svg">
<path d="M15.9666 7.83105C15.9555 7.80216 15.94 7.77772 15.9244 7.75327C15.9089 7.72883 15.8911 7.70661 15.8689 7.68661C15.7666 7.58216 15.6133 7.5355 15.4689 7.56439C15.44 7.57105 15.4133 7.57772 15.3844 7.58883C15.3578 7.59994 15.3333 7.6155 15.3089 7.63105C15.2844 7.64661 15.2622 7.66439 15.2422 7.68661C15.22 7.70661 15.2022 7.72883 15.1866 7.75327C15.1711 7.77772 15.1555 7.80216 15.1444 7.83105C15.1333 7.85772 15.1266 7.88438 15.12 7.91327C15.1133 7.94216 15.1111 7.97105 15.1111 7.99994C15.1111 8.11994 15.1578 8.23105 15.2422 8.31327C15.2622 8.33549 15.2844 8.35327 15.3089 8.36882C15.3333 8.3866 15.3578 8.39993 15.3844 8.41105C15.4111 8.42216 15.44 8.43105 15.4689 8.43549C15.4978 8.44216 15.5266 8.44438 15.5555 8.44438C15.6733 8.44438 15.7844 8.39771 15.8689 8.31327C15.9533 8.23105 16 8.11772 16 7.99994C16 7.97105 15.9978 7.94216 15.9911 7.91327C15.9866 7.88438 15.9778 7.85772 15.9666 7.83105Z" fill="black"/>
<path d="M7.99993 0.888884C8.02881 0.888884 8.0577 0.886661 8.08659 0.879995C8.11548 0.87555 8.14437 0.866661 8.17104 0.85555C8.19548 0.844439 8.22215 0.831106 8.24659 0.815551C8.27103 0.797773 8.29326 0.779995 8.31326 0.757773C8.3977 0.675552 8.44437 0.564442 8.44437 0.444442C8.44437 0.415554 8.44214 0.386665 8.43548 0.357777C8.43103 0.328888 8.42214 0.302221 8.41103 0.275555C8.39992 0.246666 8.38659 0.222222 8.36881 0.197778C8.35326 0.173333 8.33548 0.151111 8.31326 0.131112C8.29326 0.10889 8.27103 0.0911119 8.24659 0.0755564C8.22215 0.060001 8.1977 0.0444455 8.17104 0.0333345C8.14215 0.0222235 8.11548 0.0155568 8.08659 0.00889021C8.02881 -0.00222082 7.97104 -0.00222082 7.91326 0.00889021C7.88437 0.0155568 7.8577 0.0222235 7.83104 0.0333345C7.80215 0.0444455 7.7777 0.060001 7.75326 0.0755564C7.72882 0.0911119 7.70659 0.10889 7.68659 0.131112C7.66437 0.151111 7.64659 0.173333 7.63104 0.197778C7.61326 0.222222 7.59993 0.246666 7.58882 0.275555C7.57771 0.302221 7.56882 0.328888 7.56437 0.357777C7.55771 0.386665 7.55548 0.415554 7.55548 0.444442C7.55548 0.564442 7.60215 0.675552 7.68659 0.757773C7.77104 0.842217 7.88215 0.888884 7.99993 0.888884Z" fill="black"/>
<path d="M15.5554 9.77772C14.5754 9.77772 13.7777 8.97995 13.7777 7.99995C13.7777 7.01996 14.5754 6.22219 15.5554 6.22219C15.7999 6.22219 15.9999 6.02219 15.9999 5.77775C15.9999 5.53331 15.7999 5.33331 15.5554 5.33331C14.2377 5.33331 13.1421 6.29552 12.9288 7.55551H10.6266C10.4377 6.44219 9.55771 5.5622 8.44438 5.37331V3.0711C9.70437 2.85777 10.6666 1.76222 10.6666 0.444456C10.6666 0.200014 10.4666 1.52587e-05 10.2221 1.52587e-05C9.9777 1.52587e-05 9.7777 0.200014 9.7777 0.444456C9.7777 1.42445 8.97993 2.22222 7.99994 2.22222C7.01995 2.22222 6.22217 1.42445 6.22217 0.444456C6.22217 0.200014 6.02218 1.52587e-05 5.77773 1.52587e-05C5.53329 1.52587e-05 5.33329 0.200014 5.33329 0.444456C5.33329 1.76222 6.29551 2.85777 7.5555 3.0711V5.37331C6.44217 5.5622 5.56218 6.43997 5.37329 7.55551H3.07109C2.85776 6.29552 1.76221 5.33331 0.444441 5.33331C0.199998 5.33331 0 5.53331 0 5.77775C0 6.02219 0.199998 6.22219 0.444441 6.22219C1.42443 6.22219 2.22221 7.01996 2.22221 7.99995C2.22221 8.97995 1.42443 9.77772 0.444441 9.77772C0.199998 9.77772 0 9.97772 0 10.2222C0 10.4666 0.199998 10.6666 0.444441 10.6666C1.76221 10.6666 2.85776 9.70439 3.07109 8.4444H5.37329C5.56218 9.55772 6.44217 10.4377 7.5555 10.6266V12.9288C6.29551 13.1421 5.33329 14.2377 5.33329 15.5555C5.33329 15.7999 5.53329 15.9999 5.77773 15.9999C6.02218 15.9999 6.22217 15.7999 6.22217 15.5555C6.22217 14.5755 7.01995 13.7777 7.99994 13.7777C8.97993 13.7777 9.7777 14.5755 9.7777 15.5555C9.7777 15.7999 9.9777 15.9999 10.2221 15.9999C10.4666 15.9999 10.6666 15.7999 10.6666 15.5555C10.6666 14.2377 9.70437 13.1421 8.44438 12.9288V10.6266C9.55771 10.4377 10.4377 9.55994 10.6266 8.4444H12.9288C13.1421 9.70439 14.2377 10.6666 15.5554 10.6666C15.7999 10.6666 15.9999 10.4666 15.9999 10.2222C15.9999 9.97772 15.7999 9.77772 15.5554 9.77772ZM7.99994 9.77772C7.01995 9.77772 6.22217 8.97995 6.22217 7.99995C6.22217 7.01996 7.01995 6.22219 7.99994 6.22219C8.97993 6.22219 9.7777 7.01996 9.7777 7.99995C9.7777 8.97995 8.97993 9.77772 7.99994 9.77772Z" fill="black"/>
<path d="M0.197776 8.36886C0.222221 8.38664 0.246665 8.39997 0.273331 8.41108C0.299998 8.42219 0.328886 8.43108 0.357775 8.43552C0.386664 8.44219 0.415552 8.44441 0.444441 8.44441C0.562218 8.44441 0.67555 8.39775 0.757772 8.3133C0.842216 8.22886 0.888882 8.11775 0.888882 7.99997C0.888882 7.97108 0.88666 7.94219 0.879993 7.9133C0.875549 7.88442 0.86666 7.85775 0.855549 7.83108C0.844438 7.80219 0.831105 7.77775 0.813327 7.75331C0.797772 7.72886 0.779994 7.70664 0.757772 7.68664C0.655551 7.5822 0.502218 7.53331 0.357775 7.56442C0.328886 7.56886 0.30222 7.57775 0.275553 7.58886C0.246665 7.59997 0.222221 7.61553 0.197776 7.63109C0.173332 7.64664 0.15111 7.66442 0.13111 7.68664C0.108888 7.70664 0.0911105 7.72886 0.075555 7.75331C0.0599996 7.77775 0.0444441 7.80219 0.0333331 7.83108C0.0222221 7.85775 0.0155554 7.88442 0.00888881 7.9133C0.0022222 7.94219 0 7.97108 0 7.99997C0 8.11775 0.0466663 8.23108 0.13111 8.3133C0.15111 8.33552 0.173332 8.3533 0.197776 8.36886Z" fill="black"/>
<path d="M8.41103 15.3865C8.39992 15.3576 8.38659 15.3332 8.36881 15.3088C8.35326 15.2843 8.33548 15.2621 8.31326 15.2421C8.29326 15.2199 8.27103 15.2021 8.24659 15.1865C8.22215 15.171 8.1977 15.1554 8.17104 15.1443C8.14215 15.1332 8.11548 15.1265 8.08659 15.1199C7.94215 15.091 7.78882 15.1376 7.68437 15.2421C7.66437 15.2621 7.64659 15.2843 7.63104 15.3088C7.61548 15.3332 7.59993 15.3576 7.58882 15.3865C7.57771 15.4132 7.57104 15.4399 7.56437 15.4688C7.55771 15.4976 7.55548 15.5265 7.55548 15.5554C7.55548 15.6154 7.5666 15.671 7.58882 15.7265C7.61104 15.7799 7.64437 15.8288 7.68437 15.8688C7.76882 15.9532 7.88215 15.9999 7.99993 15.9999C8.1177 15.9999 8.23103 15.9532 8.31326 15.8688C8.35548 15.8288 8.38881 15.7799 8.41103 15.7265C8.43326 15.671 8.44437 15.6154 8.44437 15.5554C8.44437 15.5265 8.44214 15.4976 8.43548 15.4688C8.43103 15.4399 8.42214 15.4132 8.41103 15.3865Z" fill="black"/>
</svg>
