<svg width="16" height="16" viewBox="0 0 16 16" fill="none" xmlns="http://www.w3.org/2000/svg">
<path d="M12.4032 7.85319C13.0994 7.32601 13.5532 6.49187 13.5532 5.55318C13.5532 3.96274 12.2586 2.66815 10.6681 2.66815C9.07771 2.66815 7.78312 3.96274 7.78312 5.55318C7.78312 6.48964 8.23467 7.32156 8.92868 7.84874C7.92771 8.1913 7.04908 8.8297 6.39956 9.69943C6.12151 9.49034 5.81454 9.31684 5.49423 9.1856C5.93688 8.78076 6.21493 8.2002 6.21493 7.5529C6.21493 6.32949 5.22063 5.33519 3.99722 5.33519C2.77381 5.33519 1.77951 6.32949 1.77951 7.5529C1.77951 8.2002 2.05978 8.78076 2.50243 9.1856C1.03656 9.77951 0 11.2142 0 12.8914C0 13.1339 0.195746 13.3296 0.438204 13.3296C0.680662 13.3296 0.876408 13.1339 0.876408 12.8914C0.876408 11.172 2.27555 9.77061 3.99722 9.77061C4.33088 9.77061 4.66009 9.82177 4.9715 9.92632C5.31628 10.0398 5.64326 10.2177 5.93021 10.4446C5.54094 11.1987 5.3363 12.0373 5.3363 12.8914C5.3363 13.1339 5.53204 13.3296 5.7745 13.3296C6.01696 13.3296 6.21271 13.1339 6.21271 12.8914C6.21271 12.0751 6.43515 11.2765 6.85778 10.5825C7.67413 9.23898 9.09773 8.43821 10.6681 8.43821C13.1239 8.43821 15.1236 10.4357 15.1236 12.8936C15.1236 13.1361 15.3193 13.3319 15.5618 13.3319C15.8043 13.3319 16 13.1361 16 12.8936C16 10.5603 14.4941 8.57389 12.4032 7.85319ZM2.65369 7.55512C2.65369 6.81663 3.25427 6.21382 3.99499 6.21382C4.73571 6.21382 5.3363 6.8144 5.3363 7.55512C5.3363 8.29585 4.73571 8.89643 3.99499 8.89643C3.25427 8.89643 2.65369 8.29585 2.65369 7.55512ZM8.65953 5.55318C8.65953 4.44544 9.56041 3.54456 10.6681 3.54456C11.7759 3.54456 12.6768 4.44544 12.6768 5.55318C12.6768 6.66092 11.7759 7.5618 10.6681 7.5618C9.56041 7.5618 8.65953 6.66092 8.65953 5.55318Z" fill="black"/>
</svg>
