<svg width="16" height="16" viewBox="0 0 16 16" fill="none" xmlns="http://www.w3.org/2000/svg">
<path d="M15.5165 6.49551C15.5142 6.4814 15.5071 6.46728 15.5048 6.45317C15.5001 6.4367 15.4977 6.42259 15.4906 6.40612C15.4859 6.392 15.4765 6.38024 15.4695 6.36612C15.4624 6.35201 15.4554 6.33789 15.4459 6.32378C15.4365 6.31201 15.4271 6.30025 15.4177 6.28849C15.4083 6.27672 15.3989 6.26496 15.3895 6.2532C15.3683 6.23202 15.3448 6.21085 15.3189 6.19438L14.1167 5.39215V3.29128C14.1167 3.2607 14.1144 3.23011 14.1073 3.19953C14.1003 3.15954 14.0838 3.12189 14.0673 3.08661C14.0626 3.07719 14.0579 3.06778 14.0532 3.05837C14.032 3.02308 14.0085 2.9878 13.9803 2.95956L11.1572 0.136451C11.1266 0.105867 11.0936 0.0823409 11.0584 0.0635202C11.0489 0.058815 11.0395 0.0541097 11.0301 0.0494045C10.9948 0.0329363 10.9572 0.0164683 10.9172 0.00941048C10.9172 0.00941048 10.9148 0.00941048 10.9125 0.00941048C10.8843 0.00470529 10.8537 0 10.8231 0H2.3514C2.09262 0 1.88088 0.211734 1.88088 0.470519V5.3945L0.678708 6.19674C0.65283 6.2132 0.629304 6.23438 0.60813 6.25555C0.596367 6.26731 0.589309 6.27908 0.579899 6.29084C0.570489 6.3026 0.558726 6.31437 0.551668 6.32613C0.542258 6.34024 0.537552 6.35436 0.528142 6.36848C0.521084 6.38259 0.514026 6.39435 0.506969 6.40847C0.499911 6.42259 0.497558 6.43905 0.492853 6.45552C0.488148 6.46964 0.483443 6.4814 0.48109 6.49787C0.474032 6.52845 0.47168 6.55904 0.47168 6.58962V12.2358C0.47168 12.4946 0.683413 12.7064 0.942199 12.7064H1.88324V15.5295C1.88324 15.7883 2.09497 16 2.35376 16H13.6462C13.905 16 14.1167 15.7883 14.1167 15.5295V12.7064H15.0578C15.3166 12.7064 15.5283 12.4946 15.5283 12.2358V6.58962C15.5283 6.55904 15.5259 6.52845 15.5189 6.49787L15.5165 6.49551ZM12.5076 2.82547H11.2913V1.60918L11.9006 2.2185L12.5099 2.82782L12.5076 2.82547ZM10.3502 0.943391V3.29599C10.3502 3.55477 10.562 3.76651 10.8207 3.76651H13.1733V5.65093V6.1191H2.82192V5.65093V0.943391H10.3502ZM13.1733 15.059H2.82192V12.7064H13.1733V15.059ZM14.5849 11.7653H1.41037V7.06014H14.5849V11.7653Z" fill="black"/>
<path d="M12.2324 7.53064H10.3503C10.0915 7.53064 9.87976 7.74237 9.87976 8.00116V10.8243C9.87976 11.0831 10.0915 11.2948 10.3503 11.2948C10.6091 11.2948 10.8208 11.0831 10.8208 10.8243V9.88323H11.7618C12.0206 9.88323 12.2324 9.6715 12.2324 9.41272C12.2324 9.15393 12.0206 8.9422 11.7618 8.9422H10.8208V8.47168H12.2324C12.4911 8.47168 12.7029 8.25994 12.7029 8.00116C12.7029 7.74237 12.4911 7.53064 12.2324 7.53064Z" fill="black"/>
<path d="M4.93918 7.53064H3.76288C3.50409 7.53064 3.29236 7.74237 3.29236 8.00116V10.8243C3.29236 11.0831 3.50409 11.2948 3.76288 11.2948C4.02166 11.2948 4.2334 11.0831 4.2334 10.8243V9.88323H4.93918C5.58849 9.88323 6.11547 9.35625 6.11547 8.70694C6.11547 8.05762 5.58849 7.53064 4.93918 7.53064ZM4.93918 8.9422H4.2334V8.47168H4.93918C5.06857 8.47168 5.17443 8.57754 5.17443 8.70694C5.17443 8.83633 5.06857 8.9422 4.93918 8.9422Z" fill="black"/>
<path d="M7.5271 7.53064H7.05658C6.79779 7.53064 6.58606 7.74237 6.58606 8.00116V10.8243C6.58606 11.0831 6.79779 11.2948 7.05658 11.2948H7.5271C8.56459 11.2948 9.40917 10.4502 9.40917 9.41272C9.40917 8.37522 8.56459 7.53064 7.5271 7.53064ZM7.5271 10.3538V8.47168C8.04702 8.47168 8.46814 8.89279 8.46814 9.41272C8.46814 9.93264 8.04702 10.3538 7.5271 10.3538Z" fill="black"/>
</svg>
