<svg width="16" height="17" viewBox="0 0 16 17" fill="none" xmlns="http://www.w3.org/2000/svg">
<path d="M10.1915 8.30828C11.534 7.54368 12.4453 6.09896 12.4453 4.44531C12.4453 1.99372 10.4516 0 8 0C5.54841 0 3.55469 1.99372 3.55469 4.44531C3.55469 6.09896 4.46376 7.54146 5.80846 8.30828C2.60784 9.21734 0.200711 12.0668 0.000672161 15.5341C-0.0126638 15.7786 0.174039 15.9898 0.418531 16.0031C0.663023 16.0164 0.874175 15.8297 0.887511 15.5852C1.10533 11.8312 4.23038 8.89061 8 8.89061C11.7696 8.89061 14.8947 11.8312 15.1125 15.5852C15.1258 15.8208 15.3214 16.0031 15.5548 16.0031C15.5637 16.0031 15.5726 16.0031 15.5815 16.0031C15.826 15.9898 16.0127 15.7786 15.9993 15.5341C15.7971 12.0668 13.3922 9.21734 10.1915 8.30828ZM4.44376 4.44531C4.44376 2.48493 6.03962 0.889061 8 0.889061C9.96038 0.889061 11.5562 2.48493 11.5562 4.44531C11.5562 6.40569 9.96038 8.00155 8 8.00155C6.03962 8.00155 4.44376 6.40569 4.44376 4.44531Z" fill="black"/>
</svg>
