<svg width="16" height="16" viewBox="0 0 16 16" fill="none" xmlns="http://www.w3.org/2000/svg">
<path d="M8.44602 2.66586H7.55699V3.55489H6.66797V4.44391H7.55699V5.33294H8.44602V4.44391H9.33504V3.55489H8.44602V2.66586Z" fill="black"/>
<path d="M15.9805 6.52645L14.2024 1.19231C14.1424 1.01006 13.9713 0.887817 13.7801 0.887817H2.22281C2.03167 0.887817 1.86276 1.01006 1.80053 1.19231L0.0224789 6.52645C-0.0219723 6.66203 0.000253338 6.81094 0.0824881 6.92651C0.166945 7.04209 0.300299 7.11099 0.442543 7.11099H1.33157V14.6677C1.33157 14.9122 1.5316 15.1122 1.77608 15.1122H14.2224C14.4669 15.1122 14.6669 14.9122 14.6669 14.6677V7.11099H15.556C15.6982 7.11099 15.8338 7.04209 15.916 6.92651C16.0005 6.81094 16.0227 6.66203 15.976 6.52645H15.9805ZM13.7801 14.2232H2.22281V7.11099H13.7801V14.2232ZM14.2246 6.22196H1.06042L2.54286 1.77684H13.4601L14.9425 6.22196H14.2246Z" fill="black"/>
</svg>
