<svg width="16" height="16" viewBox="0 0 16 16" fill="none" xmlns="http://www.w3.org/2000/svg">
<path d="M11.7165 12.4137L14.4297 9.60229C14.6057 9.42171 14.5988 9.13143 14.4183 8.95543C14.2377 8.78171 13.9474 8.784 13.7714 8.96686L11.0994 11.7349C10.432 10.9874 8.85483 9.33943 7.05597 8.29943H7.51998C9.80797 8.29943 11.6708 6.43657 11.6708 4.14857C11.6708 1.86057 9.80797 0 7.51998 0H1.8994C1.64798 0 1.44226 0.205714 1.44226 0.457143V15.5429C1.44226 15.7943 1.64798 16 1.8994 16C2.15083 16 2.35655 15.7943 2.35655 15.5429V8.30171H4.18283C6.61712 8.30171 9.57255 11.3989 10.4617 12.3977L7.73255 15.2251C7.55655 15.4057 7.5634 15.696 7.74398 15.872C7.83312 15.9566 7.9474 16 8.06169 16C8.17597 16 8.30169 15.9543 8.39083 15.8606L11.0811 13.072L13.7714 15.8606C13.8605 15.9543 13.9817 16 14.1005 16C14.2194 16 14.3291 15.9566 14.4183 15.872C14.5988 15.696 14.6057 15.408 14.4297 15.2251L11.7165 12.4137ZM2.35655 0.914286H7.51998C9.30512 0.914286 10.7565 2.36571 10.7565 4.15086C10.7565 5.936 9.30512 7.38743 7.51998 7.38743H2.35655V0.914286Z" fill="black"/>
</svg>
