<svg width="16" height="16" viewBox="0 0 16 16" fill="none" xmlns="http://www.w3.org/2000/svg">
<path d="M13.7879 8.44221H7.54566V2.22222C7.54566 2.10444 7.49899 1.9911 7.41455 1.90666C7.3301 1.82444 7.21899 1.77777 7.10121 1.77777C3.19233 1.78888 0.0123291 4.97999 0.0123291 8.88888C0.0123291 12.7978 3.20122 16 7.12344 16C11.0457 16 14.2345 12.8089 14.2345 8.88666C14.2345 8.64221 14.0345 8.44221 13.7901 8.44221H13.7879ZM7.12121 15.1111C3.69011 15.1111 0.898995 12.32 0.898995 8.88888C0.898995 5.45777 3.44344 2.92221 6.65677 2.68444V8.88666C6.65677 9.1311 6.85677 9.3311 7.10121 9.3311H13.3279C13.1012 12.5555 10.4034 15.1111 7.12121 15.1111Z" fill="black"/>
<path d="M8.87657 0C8.7588 0 8.64546 0.0466667 8.56324 0.131111C8.48102 0.215555 8.43213 0.326667 8.43213 0.446667V7.11333C8.43213 7.35777 8.63213 7.55777 8.8788 7.55777H15.5432C15.661 7.55777 15.7743 7.51111 15.8588 7.42666C15.9432 7.34222 15.9877 7.22889 15.9877 7.11111C15.9766 3.19111 12.7855 0.00222227 8.87657 0.00222227V0ZM9.32324 6.66666V0.904444C12.3899 1.12444 14.8543 3.58889 15.081 6.66666H9.32324Z" fill="black"/>
</svg>
