<svg width="16" height="16" viewBox="0 0 16 16" fill="none" xmlns="http://www.w3.org/2000/svg">
<path d="M13.687 2.38077C13.6759 2.36744 13.667 2.35411 13.6559 2.343C13.6448 2.33189 13.6314 2.323 13.6181 2.31189C12.1716 0.883199 10.1875 0.00109966 8.00111 0.00109966C3.58839 -0.00112225 0 3.58727 0 7.99777C0 10.1864 0.884322 12.1705 2.31301 13.617C2.32412 13.6303 2.33301 13.6436 2.34412 13.6548C2.35523 13.6659 2.36856 13.6748 2.38189 13.6859C3.82836 15.1146 5.81253 15.9989 8.00111 15.9989C12.4116 15.9989 16 12.4105 16 7.99999C16 5.8114 15.1157 3.82723 13.6892 2.38299L13.687 2.38077ZM7.99889 0.887643C9.79864 0.887643 11.4451 1.56088 12.6982 2.66962L2.67074 12.6971C1.56423 11.444 0.888765 9.79752 0.888765 7.99777C0.888765 4.07609 4.07721 0.887643 7.99889 0.887643ZM7.99889 15.1079C6.19914 15.1079 4.5527 14.4346 3.29954 13.3259L13.327 3.29842C14.4335 4.55158 15.109 6.19802 15.109 7.99777C15.109 11.9194 11.9183 15.1079 7.99889 15.1079Z" fill="black"/>
</svg>
