<svg width="16" height="16" viewBox="0 0 16 16" fill="none" xmlns="http://www.w3.org/2000/svg">
<path d="M11.6723 3.76526H10.8251V3.2946H11.7664C12.0253 3.2946 12.237 3.08281 12.237 2.82394V0.470657C12.237 0.211796 12.0253 0 11.7664 0H4.70653C4.44767 0 4.23587 0.211796 4.23587 0.470657V2.82394C4.23587 3.08281 4.44767 3.2946 4.70653 3.2946H5.17719V3.76526H4.33C3.75815 3.76526 3.29456 4.23121 3.29456 4.80071V14.9646C3.29456 15.5364 3.76051 16 4.33 16H11.6699C12.2418 16 12.7054 15.534 12.7054 14.9646V4.80071C12.7054 4.22886 12.2394 3.76526 11.6699 3.76526H11.6723ZM11.7664 12.7078H8.47179V7.05986H11.7664V12.7078ZM5.17719 0.941315H11.2957V2.35329H5.17719V0.941315ZM11.6723 15.061H4.33236C4.28058 15.061 4.23822 15.0187 4.23822 14.9669V4.80071C4.23822 4.74893 4.28058 4.70657 4.33236 4.70657H5.6502C5.90906 4.70657 6.12085 4.49478 6.12085 4.23592V3.2946H9.88611V4.23592C9.88611 4.49478 10.0979 4.70657 10.3568 4.70657H11.6746C11.7264 4.70657 11.7687 4.74893 11.7687 4.80071V6.11855H8.00348C7.74462 6.11855 7.53283 6.33034 7.53283 6.5892V13.1784C7.53283 13.4373 7.74462 13.6491 8.00348 13.6491H11.7687V14.9669C11.7687 15.0187 11.7264 15.061 11.6746 15.061H11.6723Z" fill="black"/>
</svg>
