<svg width="16" height="16" viewBox="0 0 16 16" fill="none" xmlns="http://www.w3.org/2000/svg">
<path d="M8 16C3.58889 16 0 12.4111 0 8C0 3.58889 3.58889 0 8 0C12.4111 0 16 3.58889 16 8C16 12.4111 12.4111 16 8 16ZM8 0.888889C4.08 0.888889 0.888889 4.07778 0.888889 8C0.888889 11.9222 4.08 15.1111 8 15.1111C11.92 15.1111 15.1111 11.9222 15.1111 8C15.1111 4.07778 11.92 0.888889 8 0.888889Z" fill="black"/>
<path d="M5.77782 11.9999C5.70226 11.9999 5.62671 11.9799 5.55782 11.9421C5.42004 11.8621 5.33337 11.7155 5.33337 11.5555V4.44436C5.33337 4.28436 5.42004 4.13547 5.56004 4.05769C5.70004 3.97991 5.87115 3.98213 6.00893 4.06436L11.9667 7.66658C12.1 7.74658 12.1823 7.89325 12.18 8.0488C12.18 8.20436 12.0956 8.3488 11.96 8.4288L6.00226 11.9377C5.93337 11.9777 5.8556 11.9999 5.77782 11.9999ZM6.22226 5.23324V10.7799L10.8689 8.04436L6.22226 5.23547V5.23324Z" fill="black"/>
</svg>
