<svg width="16" height="16" viewBox="0 0 16 16" fill="none" xmlns="http://www.w3.org/2000/svg">
<path d="M8.69253 3.25639C7.93481 2.96097 6.2277 2.81665 5.12495 3.32179C4.58147 3.57211 4.2184 3.94646 4.04475 4.43582C3.57118 5.77535 4.28154 7.35393 4.85208 8.62355C5.14976 9.2843 5.45645 9.9676 5.42488 10.2878C5.3685 10.829 5.09789 11.4605 4.8363 12.0716C4.59725 12.6309 4.34919 13.2082 4.25448 13.7449C4.16653 14.2455 4.36047 14.7507 4.80472 15.1656C5.37076 15.6978 6.25025 16 7.12523 16C7.40937 16 7.69577 15.9684 7.96864 15.9008C9.50888 15.5242 9.66899 13.8058 9.77498 12.667C9.80204 12.3715 9.8291 12.0919 9.87195 11.9138C10.0095 11.359 10.217 10.8448 10.438 10.3014C10.8507 9.27753 11.2791 8.21989 11.2385 6.83751C11.1686 4.46964 9.43672 3.54279 8.69479 3.25639H8.69253ZM9.59683 9.96534C9.37583 10.5133 9.14581 11.0794 8.99246 11.6973C8.93157 11.9408 8.90451 12.2385 8.87294 12.5835C8.76018 13.7968 8.59782 14.8183 7.7499 15.0258C6.82305 15.2513 5.87365 14.9379 5.41811 14.5094C5.26702 14.3673 5.09563 14.1486 5.14073 13.905C5.21741 13.4698 5.4339 12.9646 5.66392 12.4302C5.95257 11.7582 6.25025 11.0613 6.32241 10.3825C6.38104 9.82101 6.06984 9.13095 5.6752 8.25597C5.17005 7.13518 4.54313 5.73927 4.89493 4.74026C4.98513 4.48543 5.18358 4.28923 5.50155 4.14491C5.90747 3.95773 6.42615 3.89008 6.92227 3.89008C7.51987 3.89008 8.0814 3.9893 8.36554 4.0998C9.23601 4.43807 10.2846 5.19128 10.332 6.86682C10.3658 8.06203 9.99373 8.98662 9.59683 9.9676V9.96534Z" fill="black"/>
<path d="M12.1068 2.02283C11.8587 1.79958 11.5363 1.68231 11.2025 1.70261C11.1709 1.70261 11.1439 1.71163 11.1123 1.71614C10.9544 1.17266 10.4403 0.787033 9.84493 0.816349C9.71864 0.823115 9.59687 0.854686 9.48186 0.895278C9.40969 0.762226 9.31723 0.640451 9.19771 0.536716C8.94514 0.31797 8.62266 0.21198 8.28665 0.234531C8.03859 0.252572 7.80631 0.342776 7.61237 0.491614C7.6011 0.480338 7.59208 0.469062 7.5808 0.460042C7.32823 0.241297 7.00575 0.135306 6.66974 0.157858C6.41266 0.175898 6.17587 0.272868 5.97967 0.428471C5.71357 0.164623 5.34824 0 4.94458 0C4.13725 0 3.47876 0.658492 3.47876 1.46582C3.47876 2.27315 4.13725 2.93164 4.94458 2.93164C5.38207 2.93164 5.77446 2.7377 6.04507 2.43101C6.2548 2.57759 6.5006 2.66103 6.75994 2.66103C6.79151 2.66103 6.82083 2.66103 6.8524 2.65877C7.10046 2.64073 7.33274 2.55053 7.52668 2.40169C7.53795 2.41297 7.54697 2.42424 7.55825 2.43326C7.78827 2.63171 8.07467 2.73996 8.37685 2.73996C8.40843 2.73996 8.43774 2.73996 8.46931 2.7377C8.58883 2.72868 8.70159 2.69936 8.80984 2.65877C8.87749 2.78506 8.96318 2.90232 9.07368 3.00155C9.30596 3.21127 9.60138 3.32403 9.91033 3.32403C9.93288 3.32403 9.95543 3.32403 9.97798 3.32403C10.0096 3.32403 10.0411 3.31726 10.0704 3.31501C10.1358 3.53375 10.2554 3.7322 10.429 3.89006C10.6613 4.09979 10.9567 4.21254 11.2656 4.21254C11.2882 4.21254 11.3108 4.21254 11.3333 4.21254C11.6671 4.1945 11.976 4.04792 12.1993 3.79986C12.4225 3.5518 12.5375 3.22931 12.5195 2.89556C12.5014 2.5618 12.3549 2.25285 12.1068 2.0296V2.02283ZM4.94684 2.0296C4.63563 2.0296 4.38306 1.77703 4.38306 1.46582C4.38306 1.15462 4.63563 0.902043 4.94684 0.902043C5.25804 0.902043 5.51061 1.15462 5.51061 1.46582C5.51061 1.77703 5.25804 2.0296 4.94684 2.0296ZM7.0283 1.63721C6.96741 1.70712 6.88172 1.74996 6.787 1.75673C6.69454 1.76349 6.60208 1.73418 6.53218 1.67104C6.46227 1.60789 6.41717 1.52445 6.4104 1.42974C6.39687 1.2358 6.5412 1.06667 6.73514 1.05314C6.74416 1.05314 6.75318 1.05314 6.75994 1.05314C6.84338 1.05314 6.92456 1.08245 6.98996 1.13883C7.05987 1.19972 7.10272 1.28541 7.10948 1.38013C7.11625 1.47484 7.08693 1.56505 7.02379 1.63495L7.0283 1.63721ZM8.40392 1.83566C8.31146 1.84242 8.219 1.81311 8.14909 1.74996C8.07918 1.68682 8.03408 1.60338 8.02731 1.50867C8.01378 1.31473 8.15811 1.14559 8.35205 1.13206C8.36107 1.13206 8.37009 1.13206 8.37685 1.13206C8.46029 1.13206 8.54148 1.16138 8.60688 1.21776C8.67678 1.27865 8.71963 1.36434 8.7264 1.45905C8.73316 1.55377 8.70385 1.64397 8.6407 1.71388C8.57981 1.78379 8.49412 1.82664 8.39941 1.8334L8.40392 1.83566ZM9.93062 2.41748C9.83591 2.41748 9.74571 2.39041 9.67805 2.32727C9.60814 2.26413 9.56755 2.17843 9.56304 2.08372C9.55853 1.98901 9.5901 1.8988 9.65325 1.83115C9.71639 1.76124 9.80208 1.72065 9.8968 1.71614C9.90356 1.71614 9.91033 1.71614 9.91484 1.71614C10.0998 1.71614 10.2554 1.86272 10.2666 2.04989C10.2757 2.24383 10.1268 2.40846 9.93288 2.41973L9.93062 2.41748ZM11.5318 3.18647C11.4686 3.25638 11.3829 3.29697 11.2882 3.30148C11.1935 3.30148 11.1033 3.27442 11.0356 3.21127C10.9657 3.14813 10.9251 3.06244 10.9206 2.96772C10.9161 2.87301 10.9477 2.7828 11.0108 2.71515C11.074 2.64524 11.1597 2.60465 11.2544 2.60014C11.2611 2.60014 11.2679 2.60014 11.2724 2.60014C11.3604 2.60014 11.4415 2.63171 11.5069 2.69034C11.5769 2.75349 11.6174 2.83918 11.622 2.9339C11.6265 3.02861 11.5949 3.11881 11.5318 3.18647Z" fill="black"/>
</svg>
