<svg width="16" height="16" viewBox="0 0 16 16" fill="none" xmlns="http://www.w3.org/2000/svg">
<path d="M8.00002 16C4.08002 16 0.888916 12.8089 0.888916 8.8889C0.888916 6.45557 2.11336 4.2178 4.16224 2.90002C4.36891 2.76669 4.64447 2.82669 4.77558 3.03335C4.90891 3.24002 4.84891 3.51557 4.64224 3.64669C2.84891 4.79779 1.7778 6.75779 1.7778 8.88668C1.7778 12.3178 4.56891 15.1089 8.00002 15.1089C11.4311 15.1089 14.2222 12.3178 14.2222 8.88668C14.2222 6.75779 13.1511 4.79779 11.3578 3.64669C11.1511 3.51335 11.0911 3.24002 11.2245 3.03335C11.3578 2.82669 11.6311 2.76669 11.8378 2.90002C13.8867 4.21557 15.1111 6.45557 15.1111 8.8889C15.1111 12.8089 11.92 16 8.00002 16Z" fill="black"/>
<path d="M7.99999 7.1111C7.75554 7.1111 7.55554 6.9111 7.55554 6.66666V0.444444C7.55554 0.2 7.75554 0 7.99999 0C8.24443 0 8.44443 0.2 8.44443 0.444444V6.66666C8.44443 6.9111 8.24443 7.1111 7.99999 7.1111Z" fill="black"/>
</svg>
