<svg width="16" height="16" viewBox="0 0 16 16" fill="none" xmlns="http://www.w3.org/2000/svg">
<path d="M10.0911 8.13334C9.91774 7.96 9.63551 7.96 9.46218 8.13334L8.88662 8.70889L8.3644 8.18667C8.69329 7.94445 8.90662 7.55556 8.90662 7.11556C8.90662 6.38 8.30885 5.78223 7.57329 5.78223H6.21996C5.97551 5.78223 5.77551 5.98223 5.77551 6.22667V10.2267C5.77551 10.4711 5.97551 10.6711 6.21996 10.6711C6.4644 10.6711 6.6644 10.4711 6.6644 10.2267V8.44889H6.9244C7.21107 8.44889 7.47996 8.56 7.68218 8.76223L8.25774 9.33778L7.68218 9.91334C7.50885 10.0867 7.50885 10.3689 7.68218 10.5422C7.76885 10.6289 7.88218 10.6733 7.99551 10.6733C8.10885 10.6733 8.22218 10.6289 8.30885 10.5422L8.8844 9.96667L9.45996 10.5422C9.54662 10.6289 9.65996 10.6733 9.77329 10.6733C9.88662 10.6733 9.99996 10.6289 10.0866 10.5422C10.26 10.3689 10.26 10.0867 10.0866 9.91334L9.51107 9.33778L10.0866 8.76223C10.26 8.58889 10.26 8.30667 10.0866 8.13334H10.0911ZM6.66662 7.55778V6.66889H7.57551C7.81996 6.66889 8.01996 6.86889 8.01996 7.11334C8.01996 7.35778 7.81996 7.55778 7.57551 7.55778H6.66662Z" fill="black"/>
<path d="M15.9911 5.6911C15.9867 5.6711 15.98 5.65332 15.9733 5.63555C15.9711 5.62666 15.9689 5.61777 15.9644 5.60888C15.9556 5.58888 15.9444 5.56888 15.9333 5.5511C15.9289 5.54443 15.9267 5.53777 15.9222 5.53332C15.9067 5.50888 15.8867 5.48666 15.8667 5.46666L13.2 2.79999C13.18 2.77999 13.1578 2.75999 13.1333 2.74443C13.1267 2.73999 13.12 2.73777 13.1156 2.73332C13.0978 2.72221 13.0778 2.7111 13.0578 2.70221C13.0489 2.69777 13.04 2.69777 13.0311 2.69332C13.0133 2.68666 12.9933 2.67999 12.9756 2.67555C12.9467 2.66888 12.9178 2.66666 12.8867 2.66666H0.444444C0.2 2.66666 0 2.86666 0 3.1111V12.8889C0 13.1333 0.2 13.3333 0.444444 13.3333H15.5556C15.8 13.3333 16 13.1333 16 12.8889V5.77999C16 5.7511 15.9978 5.71999 15.9911 5.6911ZM13.3333 4.18443L14.4822 5.33332H13.3333V4.18443ZM0.888889 12.4467V3.55777H12.4444V5.77999C12.4444 6.02443 12.6444 6.22443 12.8889 6.22443H15.1111V12.4467H0.888889Z" fill="black"/>
</svg>
