<svg width="16" height="16" viewBox="0 0 16 16" fill="none" xmlns="http://www.w3.org/2000/svg">
<path d="M14.6646 12.8882C14.0847 12.8882 13.5937 13.2593 13.4092 13.777H6.58797C6.40355 13.2593 5.91251 12.8882 5.33259 12.8882C4.75267 12.8882 4.26163 13.2593 4.07721 13.777H3.55284C2.08415 13.777 0.886543 12.5816 0.886543 11.1107C0.886543 9.63977 2.08193 8.44438 3.55284 8.44438H6.74129C6.9257 8.95987 7.41675 9.33315 7.99667 9.33315C8.57659 9.33315 9.06763 8.96209 9.25205 8.44438H12.4405C14.4002 8.44438 15.9956 6.84905 15.9956 4.88932C15.9956 2.9296 14.4002 1.33426 12.4405 1.33426H11.9183C11.7339 0.816555 11.2429 0.445496 10.663 0.445496C10.083 0.445496 9.592 0.816555 9.40758 1.33426H2.58853C2.40411 0.816555 1.91307 0.445496 1.33315 0.445496C0.597695 0.445496 0 1.04319 0 1.77864C0 2.5141 0.597695 3.11179 1.33315 3.11179C1.91307 3.11179 2.40411 2.74073 2.58853 2.22303H9.4098C9.59422 2.74073 10.0853 3.11179 10.6652 3.11179C11.2451 3.11179 11.7361 2.74073 11.9206 2.22303H12.4449C13.9136 2.22303 15.1112 3.41842 15.1112 4.88932C15.1112 6.36023 13.9158 7.55562 12.4449 7.55562H9.25649C9.07207 7.04014 8.58103 6.66685 8.00111 6.66685C7.42119 6.66685 6.93015 7.03791 6.74573 7.55562H3.55728C1.59756 7.55562 0.00222196 9.15095 0.00222196 11.1107C0.00222196 13.0704 1.59756 14.6657 3.55728 14.6657H4.07943C4.26385 15.1834 4.75489 15.5545 5.33481 15.5545C5.91473 15.5545 6.40578 15.1834 6.5902 14.6657H13.4115C13.5959 15.1834 14.0869 15.5545 14.6669 15.5545C15.4023 15.5545 16 14.9568 16 14.2214C16 13.4859 15.4023 12.8882 14.6669 12.8882H14.6646ZM1.33315 2.22303C1.08874 2.22303 0.888765 2.02305 0.888765 1.77864C0.888765 1.53423 1.08874 1.33426 1.33315 1.33426C1.57756 1.33426 1.77753 1.53423 1.77753 1.77864C1.77753 2.02305 1.57756 2.22303 1.33315 2.22303ZM10.6652 2.22303C10.4208 2.22303 10.2208 2.02305 10.2208 1.77864C10.2208 1.53423 10.4208 1.33426 10.6652 1.33426C10.9096 1.33426 11.1096 1.53423 11.1096 1.77864C11.1096 2.02305 10.9096 2.22303 10.6652 2.22303ZM7.99889 7.55562C8.2433 7.55562 8.44327 7.75559 8.44327 8C8.44327 8.24441 8.2433 8.44438 7.99889 8.44438C7.75448 8.44438 7.55451 8.24441 7.55451 8C7.55451 7.75559 7.75448 7.55562 7.99889 7.55562ZM5.33259 14.6657C5.08818 14.6657 4.88821 14.4658 4.88821 14.2214C4.88821 13.9769 5.08818 13.777 5.33259 13.777C5.577 13.777 5.77698 13.9769 5.77698 14.2214C5.77698 14.4658 5.577 14.6657 5.33259 14.6657ZM14.6646 14.6657C14.4202 14.6657 14.2202 14.4658 14.2202 14.2214C14.2202 13.9769 14.4202 13.777 14.6646 13.777C14.909 13.777 15.109 13.9769 15.109 14.2214C15.109 14.4658 14.909 14.6657 14.6646 14.6657Z" fill="black"/>
</svg>
