<svg width="16" height="16" viewBox="0 0 16 16" fill="none" xmlns="http://www.w3.org/2000/svg">
<path d="M10.8474 8.52326C10.8252 8.51215 10.8008 8.50326 10.7763 8.4966C10.5852 8.4255 10.3897 8.36328 10.192 8.30551C11.534 7.54117 12.445 6.09693 12.445 4.44383C12.445 1.99306 10.4519 0 8.00115 0C5.55038 0 3.55732 1.99306 3.55732 4.44383C3.55732 6.09693 4.46608 7.53895 5.81034 8.30551C5.61259 8.36106 5.41928 8.4255 5.22598 8.4966C5.20154 8.50326 5.17932 8.51215 5.15488 8.52326C2.28639 9.61422 0.1889 12.3027 0.00225885 15.529C-0.0110726 15.7734 0.175568 15.9844 0.419979 15.9978C0.664389 16.0067 0.875471 15.8245 0.888802 15.5801C1.04211 12.9293 2.64634 10.6874 4.9038 9.59644V11.3606C4.38609 11.5451 4.01503 12.0361 4.01503 12.616C4.01503 13.3515 4.61273 13.9492 5.34818 13.9492C6.08364 13.9492 6.68133 13.3515 6.68133 12.616C6.68133 12.0361 6.31027 11.5451 5.79257 11.3606V9.23872C6.48802 9.01208 7.23014 8.88765 8.00115 8.88765C8.77215 8.88765 9.51205 9.01208 10.2097 9.23872V11.3362C9.86533 11.4162 9.5476 11.5851 9.28541 11.8384C8.90102 12.2116 8.68772 12.7116 8.68772 13.2493V14.0403C8.68772 14.4335 9.00768 14.7535 9.40095 14.7535H9.57648C9.8209 14.7535 10.0209 14.5535 10.0209 14.3091C10.0209 14.0647 9.8209 13.8647 9.57648 13.8647V13.2493C9.57648 12.956 9.69202 12.6805 9.90311 12.476C10.1142 12.2716 10.3941 12.1694 10.6852 12.1739C11.2607 12.1916 11.7273 12.7027 11.7273 13.3137V13.867C11.4829 13.867 11.2829 14.0669 11.2829 14.3113C11.2829 14.5558 11.4829 14.7557 11.7273 14.7557H11.9028C12.2961 14.7557 12.6161 14.4358 12.6161 14.0425V13.3137C12.6161 12.3627 11.9628 11.5473 11.0963 11.3384V9.59867C13.3537 10.6896 14.9557 12.9315 15.1113 15.5823C15.1246 15.8178 15.3201 16 15.5534 16C15.5623 16 15.5712 16 15.5801 16C15.8245 15.9867 16.0111 15.7756 15.9978 15.5312C15.8112 12.305 13.7137 9.61644 10.8452 8.52548L10.8474 8.52326ZM5.3504 13.0626C5.10599 13.0626 4.90602 12.8627 4.90602 12.6182C4.90602 12.3738 5.10599 12.1739 5.3504 12.1739C5.59482 12.1739 5.79479 12.3738 5.79479 12.6182C5.79479 12.8627 5.59482 13.0626 5.3504 13.0626ZM4.44831 4.44605C4.44831 2.48632 6.04364 0.890987 8.00337 0.890987C9.9631 0.890987 11.5584 2.48632 11.5584 4.44605C11.5584 6.40578 9.9631 8.00111 8.00337 8.00111C6.04364 8.00111 4.44831 6.40578 4.44831 4.44605Z" fill="black"/>
</svg>
