<svg width="16" height="16" viewBox="0 0 16 16" fill="none" xmlns="http://www.w3.org/2000/svg">
<path d="M6.59014 11.0812C6.34791 11.0457 6.12346 11.2168 6.0879 11.4612L6.01456 11.979C5.86789 12.6702 5.36565 13.2457 4.68784 13.4858L4.42561 13.5858C3.19 14.0613 2.88554 14.1591 2.7322 14.1791C2.4033 14.2213 1.97439 14.2302 1.55215 13.9324C0.829896 13.4546 0.832119 12.4146 0.949901 11.8768C0.952124 11.8657 0.954346 11.8546 0.956568 11.8412L2.02106 3.82757C2.02106 3.80979 2.0255 3.79424 2.0255 3.77646C2.03439 3.25643 2.24107 2.76752 2.60775 2.3964C2.98554 2.01416 3.49445 1.80082 4.03892 1.79859C4.82784 1.79859 5.54787 2.25861 5.86789 2.96309L5.87456 2.97865C5.96567 3.19643 6.02567 3.72534 6.0479 4.15425C6.05901 4.39871 6.27013 4.58538 6.51458 4.57649C6.75904 4.56538 6.94794 4.35648 6.93682 4.1098C6.91904 3.73201 6.86126 3.03643 6.69459 2.62974L6.68126 2.60085C6.21457 1.57414 5.17675 0.909668 4.0367 0.909668C3.25 0.914113 2.51886 1.22079 1.97439 1.77193C1.45437 2.29862 1.15658 2.9942 1.13658 3.73423L0.0765307 11.7057C-0.121256 12.6479 0.0187505 13.9836 1.04991 14.6658C1.54548 15.0169 2.06106 15.0903 2.42774 15.0903C2.60997 15.0903 2.75665 15.0725 2.84109 15.0614C3.09666 15.0303 3.40778 14.9325 4.7434 14.4169L4.99452 14.3214C5.95678 13.9791 6.68126 13.1457 6.88571 12.1457C6.88571 12.1368 6.89016 12.1279 6.89016 12.119L6.96349 11.5857C6.99683 11.3434 6.82793 11.119 6.58348 11.0834L6.59014 11.0812Z" fill="black"/>
<path d="M15.9282 11.7079L14.8681 3.73645C14.8481 2.99865 14.5503 2.30306 14.0303 1.77415C13.4858 1.22079 12.7547 0.914113 11.9658 0.909668C10.828 0.909668 9.79236 1.57414 9.32123 2.60752L9.30789 2.63641C9.14122 3.0342 9.08566 3.72979 9.06788 4.10758C9.05677 4.35204 9.24567 4.56093 9.49012 4.57427C9.73902 4.58316 9.94348 4.39648 9.95681 4.15203C9.97681 3.72312 10.039 3.19421 10.1279 2.98531L10.1346 2.96976C10.4591 2.25861 11.1769 1.79859 11.9636 1.79859C12.5103 1.80082 13.0214 2.01416 13.397 2.3964C13.7636 2.76752 13.9703 3.25643 13.9792 3.77646C13.9792 3.79424 13.9792 3.80979 13.9836 3.82757L15.0481 11.8412C15.0481 11.8524 15.0526 11.8657 15.0548 11.8768C15.1704 12.4168 15.1748 13.4546 14.4414 13.9413C14.0303 14.2325 13.6014 14.2213 13.2725 14.1791C13.1192 14.1613 12.8147 14.0636 11.5791 13.5858L11.3058 13.4813C10.6391 13.2435 10.1368 12.6702 9.99014 11.979L9.91681 11.4612C9.88347 11.219 9.6568 11.0479 9.41456 11.0812C9.17233 11.1145 9.00121 11.339 9.03455 11.5835L9.10788 12.1168C9.10788 12.1168 9.11011 12.1346 9.11233 12.1435C9.31678 13.1435 10.0413 13.9769 10.9946 14.3147L11.2546 14.4147C12.5925 14.9303 12.9036 15.028 13.1569 15.0592C13.2436 15.0703 13.3925 15.088 13.577 15.088C13.9414 15.088 14.4526 15.0169 14.9392 14.6725C15.9815 13.9836 16.1215 12.6479 15.9237 11.7057L15.9282 11.7079Z" fill="black"/>
<path d="M11.1326 8.80335C11.5437 8.36333 11.7704 7.78775 11.7704 7.1855C11.7704 5.87656 10.7059 4.80984 9.39474 4.80984C8.88583 4.80984 8.40359 4.96763 8.00135 5.26098C7.59911 4.96763 7.11687 4.80984 6.60796 4.80984C5.29901 4.80984 4.2323 5.87433 4.2323 7.1855C4.2323 7.78775 4.45898 8.36333 4.8701 8.80113C4.98122 8.92113 7.23909 11.1212 7.69022 11.5612C7.7769 11.6457 7.88801 11.6879 8.00135 11.6879C8.11469 11.6879 8.2258 11.6457 8.31247 11.5612C8.7636 11.1212 11.0215 8.92113 11.1326 8.80113V8.80335ZM10.4837 8.19666C10.3926 8.29222 9.04806 9.60561 8.00357 10.6234C6.95908 9.60338 5.61458 8.28999 5.52347 8.19666C5.26568 7.92109 5.12567 7.5633 5.12567 7.1855C5.12567 6.36547 5.79237 5.69877 6.6124 5.69877C7.01909 5.69877 7.3991 5.861 7.68134 6.15657C7.74578 6.22546 7.83468 6.26991 7.92579 6.28546C8.01024 6.30102 8.10135 6.28991 8.17691 6.2588C8.23247 6.23657 8.28358 6.20102 8.32581 6.15657C8.60804 5.861 8.98806 5.69877 9.39474 5.69877C10.2148 5.69877 10.8815 6.36547 10.8815 7.1855C10.8815 7.56107 10.7392 7.92109 10.4837 8.19666Z" fill="black"/>
</svg>
