<svg width="16" height="16" viewBox="0 0 16 16" fill="none" xmlns="http://www.w3.org/2000/svg">
<path d="M15.8483 5.26107L10.7382 0.15098C10.5369 -0.0503266 10.2092 -0.0503266 10.0079 0.15098C9.12004 1.03879 8.68904 2.28276 8.82582 3.52416L6.68629 5.66368C4.41256 4.81716 1.88333 5.35656 0.154154 7.08831C-0.0471528 7.28962 -0.0471528 7.61739 0.154154 7.8187L3.80348 11.468L0.154154 15.1173C-0.0471528 15.3187 -0.0471528 15.6464 0.154154 15.8477C0.254807 15.9484 0.386431 16 0.518054 16C0.649678 16 0.781301 15.9484 0.881954 15.8477L4.53128 12.1984L8.18061 15.8477C8.28126 15.9484 8.41288 16 8.54451 16C8.67613 16 8.80775 15.9484 8.90841 15.8477C10.6376 14.1186 11.1796 11.5867 10.333 9.31301L12.4726 7.17348C13.7165 7.31027 14.9579 6.87926 15.8457 5.99145C16.047 5.79014 16.047 5.46238 15.8457 5.26107H15.8483ZM12.3848 6.11791C12.2196 6.08694 12.0493 6.14114 11.9306 6.25986L9.3678 8.82265C9.21811 8.97234 9.17424 9.19945 9.2594 9.3956C10.0491 11.1996 9.75751 13.2411 8.5316 14.7328L4.90034 11.1015L1.26908 7.47028C2.76082 6.24437 4.80227 5.95274 6.60629 6.74248C6.80243 6.82765 7.02697 6.78635 7.17924 6.63408L9.74202 4.0713C9.86074 3.95258 9.91494 3.78224 9.88655 3.61707C9.73944 2.79119 9.93301 1.94983 10.4105 1.27881L14.7282 5.59658C14.0572 6.07146 13.2159 6.26502 12.39 6.12049L12.3848 6.11791Z" fill="black"/>
</svg>
