<svg width="16" height="16" viewBox="0 0 16 16" fill="none" xmlns="http://www.w3.org/2000/svg">
<path d="M7.99996 13.2572C7.74853 13.2572 7.54282 13.0515 7.54282 12.8V9.5086C7.54282 9.25717 7.74853 9.05145 7.99996 9.05145C10.2423 9.05145 12.0685 7.22745 12.0685 4.98287C12.0685 2.73829 10.2445 0.914288 7.99996 0.914288C5.75538 0.914288 3.93138 2.73829 3.93138 4.98287C3.93138 5.2343 3.72566 5.44001 3.47423 5.44001C3.2228 5.44001 3.01709 5.2343 3.01709 4.98287C3.01709 2.23543 5.25252 0 7.99996 0C10.7474 0 12.9828 2.23543 12.9828 4.98287C12.9828 7.57716 10.992 9.71202 8.4571 9.94517V12.8C8.4571 13.0515 8.25139 13.2572 7.99996 13.2572Z" fill="black"/>
<path d="M8.00023 16C7.74881 16 7.54309 15.7943 7.54309 15.5428V14.6286C7.54309 14.3771 7.74881 14.1714 8.00023 14.1714C8.25166 14.1714 8.45738 14.3771 8.45738 14.6286V15.5428C8.45738 15.7943 8.25166 16 8.00023 16Z" fill="black"/>
</svg>
