<svg width="16" height="16" viewBox="0 0 16 16" fill="none" xmlns="http://www.w3.org/2000/svg">
<path d="M15.8716 4.3602C15.6983 4.1869 15.4161 4.1869 15.2428 4.3602C14.914 4.68902 14.523 4.88898 14.0897 4.99562L11.0037 1.91182C11.1126 1.47858 11.3103 1.08755 11.6391 0.75873C11.8124 0.585433 11.8124 0.30327 11.6391 0.129973C11.4658 -0.0433243 11.1837 -0.0433243 11.0104 0.129973C9.7862 1.35416 9.91728 3.04492 10.1817 4.74012C8.48647 4.47351 6.79349 4.34465 5.57152 5.56884C4.34733 6.79303 4.47842 8.48378 4.74281 10.179C3.04761 9.91237 1.35463 9.78351 0.132658 11.0077C-0.0406387 11.181 -0.0406387 11.4632 0.132658 11.6365C0.219307 11.7231 0.332617 11.7675 0.445926 11.7675C0.559236 11.7675 0.672546 11.7231 0.759194 11.6365C1.08801 11.3076 1.47904 11.1077 1.91229 11.001L4.99831 14.0871C4.88944 14.5203 4.69171 14.9113 4.36289 15.2402C4.18959 15.4134 4.18959 15.6956 4.36289 15.8689C4.44953 15.9556 4.56284 16 4.67615 16C4.78946 16 4.90277 15.9556 4.98942 15.8689C6.21361 14.6447 6.08253 12.954 5.81814 11.2588C7.51334 11.5254 9.20632 11.6542 10.4283 10.43C11.6525 9.20586 11.5214 7.5151 11.257 5.8199C12.9522 6.08651 14.6452 6.21537 15.8672 4.99118C16.0404 4.81788 16.0404 4.53572 15.8672 4.36242L15.8716 4.3602ZM12.9389 5.10227C12.3612 5.08672 11.7436 4.99785 11.1081 4.89342C11.0037 4.258 10.9126 3.64035 10.8993 3.06269L12.9389 5.10227ZM8.65088 10.4345L5.56486 7.34847C5.63818 7.05742 5.75371 6.78858 5.91812 6.54197L9.45516 10.079C9.20854 10.2456 8.93971 10.3612 8.64866 10.4323L8.65088 10.4345ZM7.50001 10.5411C6.92457 10.5256 6.3047 10.4345 5.66928 10.3323C5.56486 9.69686 5.47377 9.07922 5.46043 8.50156L7.50001 10.5411ZM10.0861 9.45247L6.5491 5.91543C6.79571 5.7488 7.06454 5.63327 7.35559 5.56217L10.4416 8.64819C10.3683 8.93924 10.2528 9.20808 10.0884 9.45469L10.0861 9.45247ZM8.50646 5.45553C9.0819 5.47108 9.70177 5.56217 10.3372 5.66437C10.4416 6.2998 10.5327 6.91744 10.546 7.4951L8.50646 5.45553ZM4.89833 11.1032C5.00275 11.7387 5.09384 12.3563 5.10717 12.934L3.0676 10.8944C3.64304 10.9099 4.26291 10.9988 4.89833 11.1032Z" fill="black"/>
</svg>
