<svg width="16" height="16" viewBox="0 0 16 16" fill="none" xmlns="http://www.w3.org/2000/svg">
<path d="M15.5256 11.4751L14.7488 10.1292C14.6078 9.88304 14.2925 9.79844 14.0489 9.94201C13.8028 10.083 13.7208 10.3983 13.8618 10.6419L14.6386 11.9878C14.7796 12.2314 14.6847 12.4467 14.6386 12.5288C14.5924 12.6108 14.4514 12.798 14.1694 12.798H6.67577L7.97556 11.4982C8.17553 11.2982 8.17553 10.9726 7.97556 10.7726C7.7756 10.5727 7.45001 10.5727 7.25004 10.7726L5.07603 12.9467C5.05296 12.9697 5.02989 12.9979 5.01194 13.0261C5.00425 13.0389 4.99912 13.0518 4.99143 13.0646C4.98118 13.08 4.97348 13.0979 4.96579 13.1159C4.9581 13.1338 4.95554 13.1492 4.95041 13.1671C4.94528 13.1825 4.94016 13.1953 4.93759 13.2107C4.92477 13.2774 4.92477 13.344 4.93759 13.4107C4.94016 13.4261 4.94528 13.4414 4.95041 13.4543C4.95554 13.4722 4.96067 13.4876 4.96579 13.5055C4.97348 13.5235 4.98374 13.5389 4.99143 13.5568C4.99912 13.5696 5.00425 13.5824 5.01194 13.5953C5.02989 13.6235 5.05296 13.6491 5.07603 13.6747L7.25004 15.8487C7.35002 15.9487 7.48077 16 7.61152 16C7.74227 16 7.87302 15.9487 7.973 15.8487C8.17297 15.6488 8.17297 15.3232 7.973 15.1232L6.67321 13.8234H14.1669C14.7334 13.8234 15.2411 13.5312 15.5231 13.0415C15.8051 12.5518 15.8051 11.9648 15.5231 11.4751H15.5256Z" fill="black"/>
<path d="M6.05536 2.83544C6.30147 2.97644 6.61424 2.89184 6.75525 2.64829L7.53205 1.30235C7.67305 1.0588 7.90634 1.03317 8.0012 1.03317C8.09606 1.03317 8.32935 1.0588 8.47036 1.30235L12.2185 7.79361L10.4418 7.31677C10.1675 7.24242 9.88808 7.4065 9.81373 7.67825C9.73938 7.95256 9.90346 8.23201 10.1752 8.30635L13.1465 9.10366C13.167 9.10879 13.1901 9.10879 13.2132 9.11135C13.2337 9.11391 13.2568 9.11904 13.2773 9.11904H13.2824C13.3311 9.11904 13.3773 9.10879 13.426 9.09597C13.4413 9.09084 13.4567 9.08315 13.4721 9.07546C13.4926 9.06777 13.5131 9.06264 13.5336 9.04982C13.5465 9.04213 13.5593 9.03188 13.5721 9.02162C13.5798 9.01649 13.5875 9.01137 13.5977 9.00368C13.6362 8.97291 13.6695 8.93702 13.6977 8.89856C13.7028 8.89344 13.7054 8.88575 13.7105 8.87805C13.7387 8.83191 13.7618 8.78576 13.7772 8.73449L14.5719 5.76317C14.6463 5.48886 14.4822 5.20942 14.2105 5.13507C13.9361 5.06072 13.6567 5.2248 13.5824 5.49655L13.1055 7.27319L9.35739 0.781925C9.07539 0.292261 8.56778 0 8.0012 0C7.43463 0 6.92701 0.292261 6.64501 0.781925L5.86821 2.12786C5.72721 2.37398 5.81181 2.68675 6.05536 2.82775V2.83544Z" fill="black"/>
<path d="M3.38667 12.798H1.83308C1.55107 12.798 1.41263 12.6083 1.36392 12.5288C1.31778 12.4467 1.22292 12.2314 1.36392 11.9878L5.11204 5.49658L5.58888 7.27321C5.65041 7.50138 5.85807 7.65264 6.08367 7.65264C6.12726 7.65264 6.1734 7.64751 6.21699 7.63469C6.4913 7.56035 6.65281 7.2809 6.57847 7.00659L5.78116 4.03527C5.77347 4.00195 5.76065 3.97118 5.74527 3.93785C5.74014 3.9276 5.73245 3.91991 5.72732 3.90965C5.71707 3.89171 5.70681 3.8712 5.69143 3.85325C5.68117 3.84043 5.67092 3.83018 5.6581 3.81736C5.64528 3.80454 5.63503 3.79172 5.62221 3.77891C5.57094 3.73532 5.51197 3.69943 5.44788 3.67892C5.43762 3.67636 5.42737 3.67379 5.41711 3.67123C5.39404 3.6661 5.37353 3.65841 5.35046 3.65585C5.33508 3.65585 5.31969 3.65585 5.30431 3.65585C5.28637 3.65585 5.27098 3.65328 5.25304 3.65585C5.21715 3.65585 5.18382 3.66354 5.15049 3.67379L2.18174 4.46854C1.90742 4.54288 1.74591 4.82233 1.82026 5.09664C1.89461 5.37096 2.17405 5.53247 2.44836 5.45812L4.225 4.98128L0.476885 11.4725C0.194879 11.9622 0.194879 12.5493 0.476885 13.039C0.758891 13.5286 1.2665 13.8209 1.83308 13.8209H3.38667C3.66868 13.8209 3.89941 13.5901 3.89941 13.3081C3.89941 13.0261 3.66868 12.7954 3.38667 12.7954V12.798Z" fill="black"/>
</svg>
