<svg width="16" height="16" viewBox="0 0 16 16" fill="none" xmlns="http://www.w3.org/2000/svg">
<path d="M0.88889 8.00001C0.88889 4.08 4.08 0.88889 8.00001 0.88889C9.5089 0.88889 10.9445 1.35778 12.1445 2.22222H11.1111C10.8667 2.22222 10.6667 2.42222 10.6667 2.66667C10.6667 2.91111 10.8667 3.11111 11.1111 3.11111H13.3333C13.4578 3.11111 13.5711 3.06 13.6511 2.97556C13.6511 2.97556 13.6556 2.97334 13.6556 2.97111C13.7645 2.86223 13.8045 2.70889 13.7756 2.56889V0.444445C13.7756 0.2 13.5756 0 13.3311 0C13.0867 0 12.8867 0.2 12.8867 0.444445V1.66889C11.4933 0.586667 9.79112 0 7.99779 0C3.58889 0 0 3.58889 0 8.00001C0 9.31557 0.326667 10.62 0.944445 11.7711C1.02445 11.92 1.17778 12.0067 1.33556 12.0067C1.40667 12.0067 1.47778 11.9889 1.54445 11.9533C1.76 11.8378 1.84222 11.5689 1.72667 11.3511C1.17778 10.3267 0.88889 9.1689 0.88889 8.00001Z" fill="black"/>
<path d="M15.0554 4.22883C14.9399 4.01327 14.671 3.93105 14.4532 4.0466C14.2376 4.16216 14.1554 4.43105 14.271 4.64883C14.8199 5.67327 15.1088 6.83105 15.1088 7.99994C15.1088 11.9199 11.9176 15.1111 7.99764 15.1111C6.48875 15.1111 5.0532 14.6422 3.85319 13.7777H4.88653C5.13097 13.7777 5.33097 13.5777 5.33097 13.3333C5.33097 13.0888 5.13097 12.8888 4.88653 12.8888H2.6643C2.53986 12.8888 2.42653 12.9399 2.34653 13.0244C2.34653 13.0244 2.34208 13.0266 2.34208 13.0288C2.23319 13.1377 2.19319 13.2911 2.22208 13.4311V15.5555C2.22208 15.7999 2.42208 15.9999 2.66653 15.9999C2.91097 15.9999 3.11097 15.7999 3.11097 15.5555V14.3311C4.50431 15.4133 6.20653 15.9999 7.99987 15.9999C12.411 15.9999 15.9999 12.4111 15.9999 7.99994C15.9999 6.68438 15.6732 5.37994 15.0554 4.22883Z" fill="black"/>
</svg>
