<svg width="16" height="16" viewBox="0 0 16 16" fill="none" xmlns="http://www.w3.org/2000/svg">
<path d="M11.4273 9.04717C11.4273 9.03116 11.425 9.01744 11.4227 9.00373V7.94514C11.4227 7.35069 10.938 6.86598 10.3435 6.86598H10.0097C9.91828 6.86598 9.84511 6.79281 9.84511 6.70136V6.3927H10.2887C10.5402 6.3927 10.7459 6.18692 10.7459 5.93542V4.10633C10.7459 3.85483 10.5402 3.64906 10.2887 3.64906H5.51474C5.26324 3.64906 5.05746 3.85483 5.05746 4.10633V5.93542C5.05746 6.18692 5.26324 6.3927 5.51474 6.3927H5.94457V6.70136C5.94457 6.79281 5.87141 6.86598 5.77996 6.86598H5.45758C4.86312 6.86598 4.37841 7.35069 4.37841 7.94514V14.9208C4.37841 15.5153 4.86312 16 5.45758 16H10.3413C10.9357 16 11.4204 15.5153 11.4204 14.9208V13.8805C11.4204 13.8668 11.425 13.8508 11.425 13.8371C11.425 13.8234 11.4227 13.8074 11.4204 13.7937V9.09518C11.4204 9.08146 11.425 9.06546 11.425 9.05174L11.4273 9.04717ZM10.5082 13.3753H8.34754V9.50444H10.5082V13.3753ZM5.96972 4.55903H9.82911V5.47358H5.96972V4.55903ZM10.3413 15.0832H5.45758C5.36612 15.0832 5.29296 15.01 5.29296 14.9186V7.94285C5.29296 7.8514 5.36612 7.77824 5.45758 7.77824H5.77996C6.37441 7.77824 6.85912 7.29353 6.85912 6.69907V6.39041H8.92828V6.69907C8.92828 7.29353 9.41299 7.77824 10.0074 7.77824H10.3413C10.4327 7.77824 10.5059 7.8514 10.5059 7.94285V8.5899H7.88798C7.63648 8.5899 7.43071 8.79567 7.43071 9.04717V13.8325C7.43071 14.084 7.63648 14.2898 7.88798 14.2898H10.5059V14.9186C10.5059 15.01 10.4327 15.0832 10.3413 15.0832Z" fill="black"/>
<path d="M14.8591 11.4181H14.1114C14.9185 10.2109 15.3484 8.81165 15.3484 7.34838C15.3484 3.29694 12.0514 0 7.99999 0C3.94855 0 0.651611 3.29694 0.651611 7.34838C0.651611 8.92826 1.14547 10.435 2.08059 11.7016C2.16976 11.8228 2.30923 11.8868 2.44869 11.8868C2.54243 11.8868 2.63846 11.8571 2.71848 11.7976C2.92197 11.6467 2.96541 11.3609 2.81451 11.1575C1.99599 10.0463 1.56387 8.72934 1.56387 7.34609C1.56387 3.79765 4.44926 0.91226 7.9977 0.91226C11.5461 0.91226 14.4315 3.79765 14.4315 7.34609C14.4315 8.54643 14.1046 9.69648 13.485 10.7048V10.044C13.485 9.7925 13.2792 9.58673 13.0277 9.58673C12.7762 9.58673 12.5704 9.7925 12.5704 10.044V11.8731C12.5704 12.1246 12.7762 12.3304 13.0277 12.3304H14.8568C15.1083 12.3304 15.3141 12.1246 15.3141 11.8731C15.3141 11.6216 15.1083 11.4158 14.8568 11.4158L14.8591 11.4181Z" fill="black"/>
</svg>
