<svg width="16" height="16" viewBox="0 0 16 16" fill="none" xmlns="http://www.w3.org/2000/svg">
<path d="M10.4992 2.50251C10.4992 1.12158 9.37757 0 7.99665 0C6.61572 0 5.49414 1.12158 5.49414 2.50251C5.49414 3.88343 6.61572 5.00501 7.99665 5.00501C9.37757 5.00501 10.4992 3.88343 10.4992 2.50251ZM7.99665 4.09501C7.11849 4.09501 6.40414 3.38066 6.40414 2.50251C6.40414 1.62435 7.11849 0.910002 7.99665 0.910002C8.8748 0.910002 9.58915 1.62435 9.58915 2.50251C9.58915 3.38066 8.8748 4.09501 7.99665 4.09501Z" fill="black"/>
<path d="M13.0311 11.45C13.0311 11.45 13.022 11.45 13.0197 11.45C13.0152 11.45 13.0084 11.45 13.0038 11.45H10.7288V10.4649H11.6798C12.1279 10.4649 12.5465 10.242 12.7991 9.87115C13.0516 9.50032 13.1016 9.0294 12.9356 8.6108L11.8322 5.85349C11.6252 5.33706 11.1338 5.00491 10.5787 5.00491H5.42123C4.86613 5.00491 4.37245 5.33706 4.1677 5.85349L3.06432 8.6108C2.89825 9.02712 2.9483 9.49805 3.20082 9.87115C3.45335 10.242 3.86968 10.4649 4.32013 10.4649H5.27108V11.45H2.99607C1.74255 11.45 0.721069 12.4715 0.721069 13.725C0.721069 14.9785 1.74027 15.9977 2.9938 16C2.9938 16 2.9938 16 2.99607 16H13.0038C14.2573 16 15.2788 14.9785 15.2788 13.725C15.2788 12.4715 14.2733 11.4682 13.0334 11.4523L13.0311 11.45ZM3.9493 9.36155C3.86513 9.2387 3.8492 9.08855 3.90608 8.94977L5.00945 6.19247C5.0777 6.02412 5.23695 5.91492 5.41895 5.91492H10.5764C10.7584 5.91492 10.9176 6.02412 10.9859 6.19247L12.0893 8.94977C12.1439 9.08855 12.1279 9.23642 12.046 9.36155C11.9619 9.4844 11.8299 9.55492 11.6798 9.55492H8.45381V7.73492C8.45381 7.48467 8.24906 7.27992 7.99881 7.27992C7.74856 7.27992 7.54381 7.48467 7.54381 7.73492V9.55492H4.31785C4.16998 9.55492 4.03575 9.4844 3.95158 9.36155H3.9493ZM6.17653 10.4649H9.81654V11.45H6.17653V10.4649ZM1.62652 13.725C1.62652 12.972 2.2385 12.36 2.99152 12.36H10.4194L2.921 15.0855C2.2021 15.0491 1.62652 14.453 1.62652 13.725ZM13.0015 15.09H5.57366L13.0721 12.3646C13.791 12.401 14.3665 12.997 14.3665 13.725C14.3665 14.453 13.7546 15.09 13.0015 15.09Z" fill="black"/>
</svg>
