<svg width="16" height="16" viewBox="0 0 16 16" fill="none" xmlns="http://www.w3.org/2000/svg">
<path d="M13.3333 9.33333C12.6067 9.33333 11.9622 9.68444 11.5556 10.2244C11.1489 9.68444 10.5045 9.33333 9.77779 9.33333C9.05112 9.33333 8.40668 9.68444 8.00001 10.2244C7.59335 9.68444 6.9489 9.33333 6.22224 9.33333C5.72224 9.33333 5.26001 9.50222 4.8889 9.78222V7.76C5.15112 7.91111 5.45335 8 5.77779 8C6.75779 8 7.55557 7.20222 7.55557 6.22222C7.55557 5.69111 7.32001 5.21556 6.9489 4.88889C7.32001 4.56222 7.55557 4.08667 7.55557 3.55556C7.55557 2.57556 6.75779 1.77778 5.77779 1.77778C5.4489 1.77778 5.14224 1.86889 4.87779 2.02444C4.77779 0.891111 3.82446 0 2.66668 0C1.44224 0 0.444458 0.997778 0.444458 2.22222V15.5556C0.444458 15.8 0.644458 16 0.888902 16C1.13335 16 1.33335 15.8 1.33335 15.5556V5.33333H4.00001V11.5556C4.00001 11.8 4.20001 12 4.44446 12C4.6889 12 4.8889 11.8 4.8889 11.5556C4.8889 10.82 5.48668 10.2222 6.22224 10.2222C6.95779 10.2222 7.55557 10.82 7.55557 11.5556C7.55557 11.8 7.75557 12 8.00001 12C8.24446 12 8.44446 11.8 8.44446 11.5556C8.44446 10.82 9.04224 10.2222 9.77779 10.2222C10.5133 10.2222 11.1111 10.82 11.1111 11.5556C11.1111 11.8 11.3111 12 11.5556 12C11.8 12 12 11.8 12 11.5556C12 10.82 12.5978 10.2222 13.3333 10.2222C14.0689 10.2222 14.6667 10.82 14.6667 11.5556V15.5556C14.6667 15.8 14.8667 16 15.1111 16C15.3556 16 15.5556 15.8 15.5556 15.5556V11.5556C15.5556 10.3311 14.5578 9.33333 13.3333 9.33333ZM6.66668 6.22222C6.66668 6.71333 6.2689 7.11111 5.77779 7.11111C5.28668 7.11111 4.8889 6.71333 4.8889 6.22222V5.33333H5.77779C6.2689 5.33333 6.66668 5.73111 6.66668 6.22222ZM5.77779 2.66667C6.2689 2.66667 6.66668 3.06444 6.66668 3.55556C6.66668 4.04667 6.2689 4.44444 5.77779 4.44444H4.8889V3.55556C4.8889 3.06444 5.28668 2.66667 5.77779 2.66667ZM1.33335 2.22222C1.33335 1.48667 1.93112 0.888889 2.66668 0.888889C3.40224 0.888889 4.00001 1.48667 4.00001 2.22222V4.44444H1.33335V2.22222Z" fill="black"/>
</svg>
