<svg width="16" height="16" viewBox="0 0 16 16" fill="none" xmlns="http://www.w3.org/2000/svg">
<path d="M10.2366 3.84574H10.1987C9.13917 3.82682 8.29246 2.94701 8.31375 1.88744C8.32321 1.37421 8.53134 0.896461 8.90266 0.539331C9.27161 0.182201 9.75882 -0.00464257 10.2721 8.76365e-05C10.7853 0.00954805 11.263 0.217677 11.6202 0.588998C11.9773 0.960319 12.1665 1.44517 12.157 1.95839C12.1476 2.47162 11.9394 2.95174 11.5681 3.3065C11.2086 3.65417 10.7356 3.84338 10.2366 3.84338V3.84574ZM10.2366 0.948494C9.98351 0.948494 9.74463 1.04546 9.56016 1.22285C9.37095 1.40496 9.26452 1.6462 9.26215 1.90636C9.25269 2.4456 9.68078 2.89024 10.22 2.8997C10.22 2.8997 10.22 2.8997 10.2224 2.8997H10.2389C10.492 2.8997 10.7332 2.80273 10.9154 2.62772C11.1022 2.4456 11.2086 2.20436 11.2134 1.94184C11.2181 1.68168 11.1211 1.43334 10.9414 1.2465C10.7616 1.05965 10.518 0.953224 10.2555 0.948494C10.2484 0.948494 10.2437 0.948494 10.2366 0.948494Z" fill="black"/>
<path d="M11.7643 15.9953C11.1706 15.9953 10.6479 15.5932 10.4942 15.0209L9.66168 11.9131L7.55674 10.7684L6.47825 13.0838C6.3056 13.4528 5.98158 13.7177 5.58425 13.8099L2.03896 14.6353C1.94199 14.659 1.84029 14.6708 1.74095 14.6708C1.12603 14.6708 0.598611 14.2522 0.461435 13.6538C0.381021 13.3109 0.440149 12.9585 0.626992 12.6605C0.813835 12.3625 1.10238 12.1543 1.44532 12.0739L4.36622 11.3952L5.53931 8.87868C5.61263 8.57595 5.83731 7.71742 6.29141 6.63183C6.43332 6.29362 6.59651 5.95305 6.78335 5.61484L6.36 5.45638L4.76829 6.76901C4.53414 6.96295 4.23614 7.06938 3.9334 7.06938C3.53843 7.06938 3.16948 6.89436 2.91878 6.59163C2.45758 6.0311 2.53799 5.20095 3.09852 4.73975L5.27678 2.94464C5.27678 2.94464 5.3028 2.92572 5.31226 2.91862C5.33591 2.8997 5.35247 2.88788 5.37139 2.87605L5.47309 2.81219C5.49437 2.80037 5.51566 2.79091 5.53458 2.77908L5.58425 2.75543C5.61263 2.74361 5.63391 2.73415 5.6552 2.72705C5.66939 2.72232 5.68831 2.71522 5.7096 2.70813C5.72852 2.70103 5.75217 2.69394 5.77582 2.68921L5.88934 2.66319C5.92009 2.65846 5.94374 2.65373 5.96503 2.65137L6.01233 2.64664C6.04308 2.64664 6.06673 2.64427 6.09274 2.64191H6.14241C6.17079 2.64191 6.19444 2.64191 6.22046 2.64664L6.2583 2.65137C6.30087 2.6561 6.32216 2.66083 6.34344 2.66319L6.46643 2.69157C6.49008 2.69867 6.51373 2.70576 6.53975 2.71522C6.54448 2.71522 6.57286 2.72705 6.57995 2.72942L9.21704 3.71093C9.21704 3.71093 9.23833 3.72039 9.25015 3.72512L11.8281 4.68299L13.4222 3.37036C13.6942 3.14804 14.0371 3.04397 14.3848 3.07709C14.7348 3.1102 15.0494 3.27812 15.2741 3.55011C15.7353 4.11064 15.6549 4.94079 15.0943 5.40198L12.9161 7.19709C12.9161 7.19709 12.9137 7.19709 12.9113 7.19946C12.8546 7.2444 12.7954 7.28697 12.7316 7.32244C12.7174 7.3319 12.7008 7.339 12.6843 7.34846C12.6677 7.35556 12.6535 7.36502 12.637 7.37211C12.6228 7.37921 12.6039 7.3863 12.5849 7.3934C12.5755 7.39813 12.5566 7.40522 12.5376 7.41232L12.4927 7.42887C12.4667 7.43833 12.4501 7.44306 12.4312 7.44779C12.4265 7.44779 12.4052 7.45489 12.3839 7.45962C12.3721 7.46199 12.3461 7.46908 12.3224 7.47145C12.3177 7.47145 12.3011 7.47618 12.2846 7.47854C12.2609 7.48327 12.2325 7.48564 12.2042 7.488C12.1971 7.488 12.1805 7.488 12.1758 7.49037C12.1214 7.4951 12.0244 7.4951 11.9416 7.488C11.9369 7.488 11.9227 7.48564 11.9156 7.48564C11.8801 7.48091 11.847 7.47618 11.8116 7.46908C11.8116 7.46908 11.7855 7.46435 11.7832 7.46198C11.7406 7.45252 11.7146 7.44306 11.6862 7.43597C11.6744 7.43124 11.6555 7.42651 11.6389 7.41941C11.6224 7.41468 11.6176 7.41232 11.6011 7.40522L10.1063 6.84942C9.96678 7.09776 9.82724 7.36502 9.70425 7.66065C9.53633 8.06509 9.40625 8.43168 9.30928 8.72495L11.426 9.87675C11.7406 10.0494 11.9771 10.345 12.0694 10.6927L13.0461 14.3444C13.233 15.0445 12.8167 15.7682 12.1167 15.9551C12.0031 15.9858 11.8896 16 11.7761 16L11.7643 15.9953ZM7.33915 9.64024C7.4172 9.64024 7.49525 9.65916 7.5662 9.69701L10.2932 11.1799C10.4067 11.2414 10.4895 11.3478 10.5249 11.4732L11.4095 14.7749C11.4615 14.9665 11.6578 15.0894 11.8636 15.035C12.0599 14.983 12.1758 14.7796 12.1238 14.5833L11.1446 10.9316C11.1186 10.8346 11.0524 10.7518 10.9649 10.7022L8.50751 9.36589C8.31121 9.25946 8.2166 9.03005 8.28046 8.81719C8.38216 8.46952 8.55954 7.92318 8.82207 7.2917C9.02783 6.79976 9.27144 6.3764 9.48193 6.01927C9.59782 5.82297 9.83906 5.73783 10.0543 5.81824L11.9345 6.51831C11.9345 6.51831 11.9487 6.52304 11.9535 6.5254L12.0268 6.54196C12.0599 6.54669 12.0765 6.54669 12.0977 6.54196C12.1025 6.54196 12.1167 6.54196 12.1214 6.54196H12.1285L12.2325 7.00316L12.1545 6.53723C12.1545 6.53723 12.1758 6.53013 12.1805 6.53013C12.1805 6.53013 12.2042 6.52304 12.2042 6.52067L12.2278 6.51121L12.2538 6.49702C12.2704 6.48756 12.2869 6.47574 12.3035 6.46155C12.3106 6.45682 12.3153 6.45209 12.3201 6.44736L14.4818 4.66643C14.6379 4.53635 14.6615 4.30457 14.5314 4.14611C14.4699 4.07043 14.3801 4.02313 14.2831 4.01367C14.1838 4.00421 14.0892 4.03259 14.0135 4.09644L12.2113 5.58173C12.0812 5.68816 11.9038 5.7189 11.7453 5.65978L8.90012 4.60258C8.90012 4.60258 8.87883 4.59312 8.86937 4.59075L6.20627 3.60214C6.20627 3.60214 6.18262 3.59741 6.18025 3.59504L6.11166 3.58795L6.04544 3.11729L6.08328 3.58795L5.96739 3.12675L6.05017 3.59268C6.05017 3.59268 6.01233 3.60214 6.00996 3.60214C6.00996 3.60214 5.98158 3.6116 5.97922 3.6116L5.73798 3.20007L5.94611 3.62342L5.87752 3.666C5.87752 3.666 5.87042 3.67309 5.86569 3.67546L3.69689 5.46347C3.53843 5.59355 3.51715 5.82533 3.64723 5.9838C3.71818 6.06894 3.82225 6.11861 3.9334 6.11861C3.99253 6.11861 4.08241 6.10442 4.16755 6.03346L5.96976 4.54818C6.09984 4.44175 6.27722 4.411 6.43568 4.47013L7.63952 4.91713C7.77197 4.9668 7.87603 5.07323 7.92097 5.20568C7.96827 5.33812 7.95171 5.48712 7.87603 5.60774C7.59458 6.06657 7.35571 6.5325 7.16413 6.98896C6.7124 8.07455 6.50191 8.90706 6.44987 9.13648C6.44278 9.16722 6.43095 9.20034 6.41676 9.22872L5.12542 11.9983C5.06392 12.1307 4.94567 12.2253 4.80376 12.2584L1.65818 12.9892C1.56121 13.0105 1.48079 13.0696 1.42876 13.1548C1.37673 13.2376 1.36017 13.3369 1.38382 13.4339C1.42876 13.6302 1.6298 13.7555 1.8261 13.7106L5.37139 12.8852C5.48255 12.8591 5.57479 12.7858 5.62209 12.6818L6.91343 9.91223C6.96783 9.79398 7.06953 9.7041 7.19488 9.6639C7.24218 9.64734 7.29421 9.64024 7.34388 9.64024H7.33915Z" fill="black"/>
</svg>
