<svg width="16" height="16" viewBox="0 0 16 16" fill="none" xmlns="http://www.w3.org/2000/svg">
<path d="M10.6652 8.00445C10.6674 9.41151 11.8633 10.5563 13.3326 10.5563C14.8019 10.5563 15.9978 9.41151 16 8.00445C16 8.00445 16 8.00223 16 8C16 7.98889 15.9978 7.97555 15.9956 7.96444C15.9956 7.94665 15.9956 7.93109 15.9911 7.91331C15.9844 7.88442 15.9778 7.85552 15.9644 7.82884L13.7416 2.49625C13.7416 2.49625 13.7349 2.48291 13.7305 2.47625C13.7305 2.47402 13.7283 2.4718 13.726 2.46958C13.7194 2.45846 13.7149 2.44513 13.7083 2.43401C13.706 2.42957 13.7038 2.42512 13.6994 2.41845C13.6927 2.40734 13.6838 2.40067 13.6771 2.38956C13.6705 2.38066 13.6638 2.37177 13.6571 2.3651C13.6527 2.36066 13.6482 2.35621 13.6438 2.35177C13.6349 2.34288 13.6238 2.33621 13.6149 2.32732C13.6082 2.32065 13.5993 2.31398 13.5927 2.30953C13.5882 2.30509 13.5838 2.30064 13.5771 2.29842C13.566 2.29175 13.5549 2.2873 13.546 2.28064C13.5371 2.27619 13.5282 2.26952 13.5171 2.26508C13.5015 2.25841 13.486 2.25174 13.4704 2.24729C13.4593 2.24285 13.4482 2.24063 13.4348 2.23618C13.4282 2.23618 13.4215 2.23173 13.4148 2.22951C13.4059 2.22951 13.3971 2.22951 13.3904 2.22729C13.377 2.22729 13.3659 2.22507 13.3526 2.22284C13.3459 2.22284 13.3393 2.22284 13.3326 2.22284C13.3215 2.22284 13.3104 2.22284 13.2992 2.22507C13.2926 2.22507 13.2837 2.22507 13.277 2.22507L8.44234 2.82968V2.22284C8.44234 1.97833 8.24229 1.77827 7.99778 1.77827C7.75326 1.77827 7.55321 1.97833 7.55321 2.22284V2.94082L2.60739 3.55877C2.60739 3.55877 2.5985 3.56099 2.59405 3.56099C2.58961 3.56099 2.58294 3.56099 2.57849 3.56099C2.56738 3.56321 2.55627 3.56766 2.54293 3.57211C2.53181 3.57433 2.5207 3.57877 2.50959 3.58322C2.49403 3.58989 2.48069 3.59656 2.46513 3.60323C2.45402 3.60989 2.4429 3.61434 2.43179 3.62101C2.42734 3.62323 2.42067 3.62768 2.41623 3.6299C2.40734 3.63435 2.40067 3.64101 2.394 3.64768C2.38288 3.65657 2.37399 3.66324 2.3651 3.67213C2.36066 3.67658 2.35621 3.68103 2.34954 3.68547C2.34287 3.69214 2.3362 3.70103 2.32954 3.7077C2.32064 3.71659 2.31398 3.72548 2.30508 3.7366C2.30064 3.74104 2.29619 3.74549 2.29397 3.75216C2.28952 3.76105 2.28508 3.76994 2.28063 3.77661C2.27396 3.78772 2.2673 3.80106 2.26063 3.8144C2.26063 3.81884 2.25618 3.82329 2.25396 3.82773L0.0333426 9.1581C0.0333426 9.1581 0.0333426 9.1581 0.0333426 9.16032C0.0333426 9.16032 0.0333426 9.16255 0.0333426 9.16477C0.0222284 9.19145 0.013337 9.21812 0.00889135 9.24479C0.00444567 9.2648 0.00444573 9.2848 0.00222289 9.30481C0.00222289 9.3137 0 9.32259 0 9.33148C0 9.33148 0 9.33371 0 9.33593C0.00222284 10.743 1.19811 11.8877 2.66741 11.8877C4.1367 11.8877 5.33259 10.743 5.33482 9.33593C5.33482 9.33593 5.33482 9.33371 5.33482 9.33148C5.33482 9.32037 5.33259 9.30703 5.33037 9.29592C5.33037 9.27814 5.33037 9.26257 5.32592 9.24479C5.31925 9.2159 5.31259 9.187 5.29925 9.16032L3.30092 4.36566L7.55543 3.8344V13.3326H1.24034C0.995832 13.3326 0.795777 13.5326 0.795777 13.7772C0.795777 14.0217 0.995832 14.2217 1.24034 14.2217H14.7552C14.9997 14.2217 15.1998 14.0217 15.1998 13.7772C15.1998 13.5326 14.9997 13.3326 14.7552 13.3326H8.44234V3.72548L12.628 3.20311L10.7007 7.82662C10.7007 7.82662 10.7007 7.82662 10.7007 7.82884C10.7007 7.82884 10.7007 7.83107 10.7007 7.83329C10.6896 7.85996 10.6807 7.88664 10.6763 7.91331C10.6719 7.93332 10.6719 7.95332 10.6696 7.97333C10.6696 7.98222 10.6674 7.99111 10.6674 8C10.6674 8 10.6674 8.00223 10.6674 8.00445H10.6652ZM2.66296 5.15477L4.21895 8.88914H1.10697L2.66296 5.15477ZM2.66296 11.0008C1.84718 11.0008 1.15588 10.4829 0.949153 9.77827H4.37677C4.16782 10.4829 3.47874 11.0008 2.66296 11.0008ZM14.8886 7.55543H11.7766L13.3326 3.82106L14.8886 7.55543ZM13.3326 9.66713C12.5168 9.66713 11.8255 9.14921 11.6188 8.44457H15.0464C14.8375 9.14921 14.1484 9.66713 13.3326 9.66713Z" fill="black"/>
</svg>
