<svg width="16" height="16" viewBox="0 0 16 16" fill="none" xmlns="http://www.w3.org/2000/svg">
<path d="M13.7795 11.8489L10.9617 9.77998C11.2551 9.22664 11.3817 8.57776 11.2795 7.91331C11.1573 7.11554 10.7306 6.41109 10.0795 5.93331C9.42841 5.45554 8.63063 5.25998 7.83285 5.3822C7.03508 5.50443 6.33063 5.93109 5.85285 6.5822C5.37508 7.23331 5.17952 8.03109 5.30174 8.82887C5.42397 9.62664 5.85063 10.3311 6.50174 10.8089C7.02619 11.1933 7.64619 11.3955 8.28396 11.3955C8.4373 11.3955 8.59285 11.3844 8.74841 11.36C9.41507 11.2578 9.99285 10.9422 10.4351 10.4955L13.2528 12.5644C13.3328 12.6222 13.424 12.6511 13.5151 12.6511C13.6528 12.6511 13.7862 12.5889 13.8728 12.4689C14.0173 12.2711 13.9751 11.9933 13.7773 11.8466L13.7795 11.8489ZM8.61507 10.4822C7.45063 10.66 6.35952 9.85998 6.18174 8.69553C6.09508 8.13109 6.23285 7.56887 6.57063 7.10887C6.90841 6.64887 7.40396 6.34887 7.96841 6.2622C8.0773 6.24442 8.18841 6.23776 8.2973 6.23776C8.74841 6.23776 9.18618 6.37998 9.55507 6.65109C10.0151 6.98887 10.3151 7.48442 10.4017 8.04887C10.4884 8.61109 10.3506 9.17553 10.0128 9.63331C9.67507 10.0911 9.17952 10.3933 8.6173 10.4778L8.61507 10.4822Z" fill="black"/>
<path d="M12.2638 12.8889C12.0194 12.8889 11.8194 13.0889 11.8194 13.3333V15.1111H2.93051V1.77779H4.70829V3.11112C4.70829 3.35557 4.90829 3.55557 5.15273 3.55557H9.59717C9.84162 3.55557 10.0416 3.35557 10.0416 3.11112V1.77779H11.8194V8.8889C11.8194 9.13334 12.0194 9.33334 12.2638 9.33334C12.5083 9.33334 12.7083 9.13334 12.7083 8.8889V1.78001C12.7083 1.2889 12.3083 0.888903 11.8172 0.888903H10.0416V0.873348C10.0416 0.391126 9.65051 1.52588e-05 9.16828 1.52588e-05H5.58162C5.0994 1.52588e-05 4.70829 0.391126 4.70829 0.873348V0.888903H2.93273C2.44162 0.888903 2.04162 1.2889 2.04162 1.78001V15.1089C2.04162 15.6 2.44162 16 2.93273 16H11.8172C12.3083 16 12.7083 15.6 12.7083 15.1089V13.3333C12.7083 13.0889 12.5083 12.8889 12.2638 12.8889ZM9.15273 0.873348V2.66668H5.59495L5.58607 1.43112C5.59273 1.40001 5.59718 1.36668 5.59718 1.33335C5.59718 1.29779 5.59273 1.26446 5.58384 1.23113V0.888903L9.15273 0.873348Z" fill="black"/>
</svg>
