<svg width="16" height="16" viewBox="0 0 16 16" fill="none" xmlns="http://www.w3.org/2000/svg">
<path d="M15.8484 15.12L10.9194 10.191C11.8329 9.11226 12.3878 7.71613 12.3878 6.19355C12.3878 2.77935 9.60841 0 6.19422 0C2.78003 0 0.000671387 2.77935 0.000671387 6.19355C0.000671387 9.60774 2.78003 12.3871 6.19422 12.3871C7.7168 12.3871 9.11035 11.8348 10.1916 10.9187L15.1207 15.8477C15.2213 15.9484 15.3529 16 15.4845 16C15.6162 16 15.7478 15.9484 15.8484 15.8477C16.0497 15.6465 16.0497 15.3187 15.8484 15.1174V15.12ZM1.03293 6.19355C1.03293 3.3471 3.34777 1.03226 6.19422 1.03226C9.04067 1.03226 11.3555 3.3471 11.3555 6.19355C11.3555 9.04 9.04067 11.3548 6.19422 11.3548C3.34777 11.3548 1.03293 9.04 1.03293 6.19355Z" fill="black"/>
</svg>
