<svg width="16" height="16" viewBox="0 0 16 16" fill="none" xmlns="http://www.w3.org/2000/svg">
<path d="M4.24316 2.6955C4.33202 2.86878 4.52307 2.9643 4.71412 2.93098L4.93627 2.89099C5.31392 2.81324 5.72267 2.7577 6.18919 2.72216C6.23139 2.72216 6.31359 2.72882 6.35135 2.73105C6.36468 2.73105 6.37801 2.73327 6.39134 2.73549C6.94449 2.76659 7.53985 3.12425 8.02413 3.71961C8.96604 4.87034 9.30593 6.64309 8.93717 8.45582C8.88829 8.69574 9.0438 8.93122 9.28372 8.98009C9.3126 8.98676 9.3437 8.98898 9.37258 8.98898C9.57918 8.98898 9.76356 8.84458 9.80799 8.63354C10.2301 6.56089 9.82132 4.51268 8.7128 3.15757C8.64615 3.0776 8.57729 3.00207 8.50842 2.92654L8.90829 2.68217C9.0127 2.61775 9.08601 2.51334 9.11266 2.39338L9.4992 0.533993C9.54808 0.294072 9.39479 0.0585946 9.15487 0.00972186C8.91273 -0.0413724 8.67947 0.114132 8.6306 0.354053L8.28405 2.02461L7.7931 2.32451C7.36657 2.04683 6.91117 1.87799 6.46243 1.85134C6.42466 1.84689 6.3558 1.84245 6.20474 1.83579C6.18696 1.83579 6.16919 1.83579 6.15142 1.83579C5.68269 1.87133 5.26282 1.92464 4.88517 1.99795L4.10987 0.482899C3.9988 0.265193 3.73 0.176334 3.51229 0.289629C3.29459 0.400704 3.20795 0.669504 3.31902 0.88721L4.24316 2.6955Z" fill="black"/>
<path d="M14.8353 4.47269C14.702 4.31497 14.4799 4.26832 14.2977 4.36162C14.2955 4.36162 14.2911 4.36384 14.2889 4.36606L12.6516 5.19912C12.4761 5.28798 12.3806 5.48125 12.4161 5.6723C12.5028 6.15214 12.5428 6.69418 12.5428 7.33175C12.5428 8.74017 11.9541 11.0616 10.6612 12.8299C9.797 14.014 8.6596 14.7271 8.52187 14.8093C8.10423 15.007 7.67992 15.107 7.2534 15.107C6.64471 15.107 5.80276 14.7848 5.45621 14.4983C5.00525 14.1251 4.38546 13.5408 4.17886 13.2676C3.93227 12.9432 3.77232 12.7255 3.63237 12.5078C2.61271 10.9283 1.95515 8.8979 1.95515 7.32953C1.95515 6.39872 2.02623 5.21911 2.57494 4.3394L3.19029 3.50635C3.29026 3.37084 3.30581 3.1909 3.22806 3.04206L2.31059 1.23376C2.19951 1.01384 1.93293 0.927199 1.713 1.03827C1.4953 1.14935 1.40644 1.41593 1.51751 1.63585L2.31059 3.19978L1.84852 3.82624C1.84852 3.82624 1.83519 3.84401 1.83074 3.8529C1.15319 4.92588 1.06433 6.27654 1.06433 7.33175C1.06433 9.05785 1.77965 11.2793 2.88373 12.9921C3.03923 13.2342 3.21029 13.4653 3.46798 13.8074C3.76344 14.1984 4.49431 14.8582 4.88529 15.1847C5.43622 15.6401 6.47365 16 7.25117 16C7.81765 16 8.37969 15.8667 8.92173 15.6046C8.93284 15.6001 8.94173 15.5935 8.95283 15.5868C9.00837 15.5535 10.3435 14.7648 11.3743 13.3564C12.7938 11.4148 13.4269 8.93344 13.4269 7.33397C13.4269 6.78304 13.398 6.29209 13.3381 5.84557L14.6865 5.15913C14.7487 5.12803 14.8042 5.0836 14.8464 5.02585C14.9708 4.86145 14.9642 4.63042 14.8309 4.47269H14.8353Z" fill="black"/>
<path d="M10.288 3.1642C10.5235 3.31304 11.2477 3.82176 11.4876 4.21719C11.572 4.3527 11.7164 4.43045 11.8675 4.43045C11.9364 4.43045 12.0052 4.4149 12.0696 4.38158L13.7957 3.49521C14.0135 3.38413 14.1001 3.11533 13.989 2.89763C13.8779 2.67992 13.6091 2.59328 13.3914 2.70436L11.9941 3.4219C11.6898 3.07979 11.2832 2.771 11.0189 2.58662L11.3854 0.773883C11.4343 0.533963 11.2788 0.298485 11.0389 0.249612C10.7967 0.198518 10.5635 0.356244 10.5146 0.596164L10.0881 2.69991C10.0525 2.87985 10.1303 3.06646 10.288 3.1642Z" fill="black"/>
</svg>
