<svg width="16" height="16" viewBox="0 0 16 16" fill="none" xmlns="http://www.w3.org/2000/svg">
<path d="M15.9067 7.60892C15.8867 7.56892 13.6533 3.55559 8 3.55559C2.34667 3.55559 0.113333 7.56892 0.0933333 7.60892C0.0355556 7.72892 0.00222222 7.86225 0 7.99559V8.00448C0 8.13781 0.0333333 8.27114 0.0933333 8.39114C0.113333 8.43114 2.34667 12.4445 8 12.4445C13.6533 12.4445 15.8867 8.43337 15.9067 8.39114C15.9644 8.27114 15.9978 8.13781 16 7.99559C16 7.86225 15.9667 7.72892 15.9067 7.60892ZM11.5556 8.00003C11.5556 9.96003 9.96 11.5556 8 11.5556C6.04 11.5556 4.44444 9.96003 4.44444 8.00003C4.44444 6.04003 6.04 4.44448 8 4.44448C9.96 4.44448 11.5556 6.04003 11.5556 8.00003ZM0.891111 8.00003C0.928889 7.93114 2.06 5.98448 4.72889 5.00225C4.00222 5.79337 3.55556 6.84448 3.55556 8.00003C3.55556 9.15559 4.00222 10.2067 4.72889 10.9978C2.04222 10.0089 0.915556 8.04448 0.891111 8.00003ZM11.2711 11C11.9978 10.2089 12.4444 9.15781 12.4444 8.00003C12.4444 6.84225 11.9978 5.79337 11.2711 5.00003C13.9711 5.99337 15.0978 7.97337 15.1111 7.99781C15.0978 8.02448 13.9711 10.0045 11.2711 10.9978V11Z" fill="black"/>
<path d="M8.00007 9.77784C8.98007 9.77784 9.77785 8.98006 9.77785 8.00006C9.77785 7.75562 9.57785 7.55562 9.3334 7.55562C9.08896 7.55562 8.88896 7.75562 8.88896 8.00006C8.88896 8.49117 8.49118 8.88895 8.00007 8.88895C7.50896 8.88895 7.11118 8.49117 7.11118 8.00006C7.11118 7.50895 7.50896 7.11117 8.00007 7.11117C8.24451 7.11117 8.44451 6.91117 8.44451 6.66673C8.44451 6.42228 8.24451 6.22228 8.00007 6.22228C7.02007 6.22228 6.22229 7.02006 6.22229 8.00006C6.22229 8.98006 7.02007 9.77784 8.00007 9.77784Z" fill="black"/>
</svg>
