<svg width="16" height="16" viewBox="0 0 16 16" fill="none" xmlns="http://www.w3.org/2000/svg">
<path d="M14.5506 14.2003L9.77795 3.46177V2.59078C10.2957 2.40636 10.6667 1.91309 10.6667 1.33318C10.6667 0.597724 10.069 3.05175e-05 9.33357 3.05175e-05H6.66728C5.93183 3.05175e-05 5.33413 0.597724 5.33413 1.33318C5.33413 1.91309 5.70519 2.40636 6.2229 2.59078V3.46177L1.45024 14.2003C1.31025 14.5113 1.30137 14.8579 1.42357 15.1779C1.54578 15.4978 1.78352 15.7489 2.09681 15.8889C2.26123 15.9622 2.43676 16 2.61674 16H13.3841C13.7241 16 14.044 15.8667 14.2862 15.6267C14.5284 15.3868 14.6617 15.0646 14.6617 14.7246C14.6617 14.5424 14.6239 14.3669 14.5506 14.2003ZM13.6596 14.9957C13.5863 15.069 13.4885 15.109 13.3841 15.109H2.61674C2.56119 15.109 2.50786 15.0979 2.45898 15.0757C2.36344 15.0335 2.29234 14.9557 2.25457 14.8602C2.21679 14.7646 2.22124 14.658 2.26345 14.5624L7.07389 3.73728C7.09833 3.67951 7.11166 3.61952 7.11166 3.55731V2.22416C7.11166 1.97975 6.91169 1.77978 6.66728 1.77978C6.42287 1.77978 6.2229 1.57981 6.2229 1.3354C6.2229 1.09099 6.42287 0.891016 6.66728 0.891016H9.33357C9.57798 0.891016 9.77795 1.09099 9.77795 1.3354C9.77795 1.57981 9.57798 1.77978 9.33357 1.77978C9.08916 1.77978 8.88919 1.97975 8.88919 2.22416V3.55731C8.88919 3.61952 8.90252 3.68173 8.92696 3.73728L13.7374 14.5624C13.7596 14.6135 13.7707 14.6669 13.7707 14.7224C13.7707 14.8268 13.7307 14.9246 13.6574 14.9979L13.6596 14.9957Z" fill="black"/>
<path d="M11.111 10.0364C10.8666 10.0364 10.6666 10.2363 10.6666 10.4808H9.72012C9.6779 10.3186 9.61346 10.1652 9.53125 10.023L10.2023 9.35202C10.2889 9.43868 10.4022 9.48311 10.5156 9.48311C10.6289 9.48311 10.7422 9.43868 10.8288 9.35202C11.0022 9.17871 11.0022 8.89653 10.8288 8.72322L10.5156 8.40993L10.2023 8.09664C10.029 7.92333 9.74678 7.92333 9.57347 8.09664C9.40016 8.26995 9.40016 8.55213 9.57347 8.72544L8.90245 9.39646C8.76247 9.31203 8.60916 9.24981 8.44474 9.2076V8.26106C8.68915 8.26106 8.88912 8.06109 8.88912 7.81668C8.88912 7.57227 8.68915 7.3723 8.44474 7.3723H7.55598C7.31157 7.3723 7.1116 7.57227 7.1116 7.81668C7.1116 8.06109 7.31157 8.26106 7.55598 8.26106V9.2076C7.39378 9.24981 7.24047 9.31425 7.09826 9.39646L6.42725 8.72544C6.60056 8.55213 6.60056 8.26995 6.42725 8.09664C6.25394 7.92333 5.97176 7.92333 5.79845 8.09664L5.48516 8.40993L5.17187 8.72322C4.99856 8.89653 4.99856 9.17871 5.17187 9.35202C5.25852 9.43868 5.37184 9.48311 5.48516 9.48311C5.59848 9.48311 5.71179 9.43868 5.79845 9.35202L6.46946 10.023C6.38503 10.163 6.32282 10.3163 6.2806 10.4808H5.33407C5.33407 10.2363 5.1341 10.0364 4.88969 10.0364C4.64528 10.0364 4.4453 10.2363 4.4453 10.4808V11.3695C4.4453 11.6139 4.64528 11.8139 4.88969 11.8139C5.1341 11.8139 5.33407 11.6139 5.33407 11.3695H6.2806C6.32282 11.5317 6.38725 11.685 6.46946 11.8272L5.79845 12.4982C5.62514 12.3249 5.34296 12.3249 5.16965 12.4982C4.99634 12.6716 4.99634 12.9537 5.16965 13.127L5.48294 13.4403L5.79622 13.7536C5.88288 13.8403 5.9962 13.8847 6.10951 13.8847C6.22283 13.8847 6.33615 13.8403 6.4228 13.7536C6.59611 13.5803 6.59611 13.2981 6.4228 13.1248L7.09382 12.4538C7.2338 12.5382 7.38711 12.6005 7.55153 12.6427V13.5892C7.30712 13.5892 7.10715 13.7892 7.10715 14.0336C7.10715 14.278 7.30712 14.478 7.55153 14.478H8.4403C8.68471 14.478 8.88468 14.278 8.88468 14.0336C8.88468 13.7892 8.68471 13.5892 8.4403 13.5892V12.6427C8.6025 12.6005 8.75581 12.536 8.89801 12.4538L9.56903 13.1248C9.39572 13.2981 9.39572 13.5803 9.56903 13.7536C9.65568 13.8403 9.769 13.8847 9.88232 13.8847C9.99563 13.8847 10.109 13.8403 10.1956 13.7536L10.5089 13.4403L10.8222 13.127C10.9955 12.9537 10.9955 12.6716 10.8222 12.4982C10.6489 12.3249 10.3667 12.3249 10.1934 12.4982L9.52237 11.8272C9.6068 11.6872 9.66901 11.5339 9.71123 11.3695H10.6578C10.6578 11.6139 10.8577 11.8139 11.1021 11.8139C11.3466 11.8139 11.5465 11.6139 11.5465 11.3695V10.4808C11.5465 10.2363 11.3466 10.0364 11.1021 10.0364H11.111ZM8.62916 11.5539C8.62916 11.5539 8.62916 11.5539 8.62916 11.5562C8.46918 11.7161 8.24699 11.8139 8.00258 11.8139C7.75817 11.8139 7.53598 11.7139 7.376 11.5539C7.21602 11.394 7.11604 11.1718 7.11604 10.9274C7.11604 10.6829 7.21602 10.4608 7.376 10.3008C7.53598 10.1408 7.75817 10.0408 8.00258 10.0408C8.24699 10.0408 8.46918 10.1408 8.62916 10.3008C8.78914 10.4608 8.88912 10.6829 8.88912 10.9274C8.88912 11.1718 8.78914 11.3917 8.63138 11.5539H8.62916Z" fill="black"/>
</svg>
