<svg width="16" height="16" viewBox="0 0 16 16" fill="none" xmlns="http://www.w3.org/2000/svg">
<path d="M8.7603 9.41261L9.11554 9.76785C9.20852 9.86083 9.33011 9.90851 9.4517 9.90851C9.57329 9.90851 9.69488 9.86083 9.78786 9.76785C9.97383 9.58188 9.97383 9.27909 9.78786 9.09313L9.43263 8.73789C10.012 8.03219 10.3911 7.15721 10.4864 6.19878H10.9871C11.2493 6.19878 11.4639 5.98421 11.4639 5.72195C11.4639 5.45969 11.2493 5.24512 10.9871 5.24512H10.4864C10.3911 4.28669 10.0096 3.4141 9.43263 2.70601L9.78786 2.35077C9.97383 2.1648 9.97383 1.86202 9.78786 1.67605C9.6019 1.49009 9.29911 1.49009 9.11315 1.67605L8.75791 2.03129C8.05221 1.45194 7.17723 1.07287 6.2188 0.9775V0.476829C6.2188 0.214573 6.00423 0 5.74197 0C5.47971 0 5.26514 0.214573 5.26514 0.476829V0.9775C4.30671 1.07287 3.43412 1.45433 2.72603 2.03129L2.37079 1.67605C2.18482 1.49009 1.88204 1.49009 1.69607 1.67605C1.51011 1.86202 1.51011 2.1648 1.69607 2.35077L2.05131 2.70601C1.47196 3.41171 1.09289 4.28669 0.997519 5.24512H0.496849C0.234593 5.24512 0.0200195 5.45969 0.0200195 5.72195C0.0200195 5.98421 0.234593 6.19878 0.496849 6.19878H0.997519C1.09289 7.15721 1.47435 8.0298 2.05131 8.73789L1.69607 9.09313C1.51011 9.27909 1.51011 9.58188 1.69607 9.76785C1.78906 9.86083 1.91065 9.90851 2.03224 9.90851C2.15383 9.90851 2.27542 9.86083 2.3684 9.76785L2.72364 9.41261C3.42935 9.99195 4.30433 10.371 5.26276 10.4664V10.9671C5.26276 11.2293 5.47733 11.4439 5.73958 11.4439C6.00184 11.4439 6.21641 11.2293 6.21641 10.9671V10.4664C7.17484 10.371 8.04744 9.98957 8.75553 9.41261H8.7603ZM5.74435 1.90732C7.84717 1.90732 9.55899 3.61913 9.55899 5.72195C9.55899 7.82477 7.84717 9.53658 5.74435 9.53658C3.64154 9.53658 1.92972 7.82477 1.92972 5.72195C1.92972 3.61913 3.64154 1.90732 5.74435 1.90732Z" fill="black"/>
<path d="M15.6886 13.2749L15.207 13.077C15.2547 12.872 15.281 12.6598 15.281 12.4405C15.281 12.2211 15.2523 12.0042 15.2047 11.7991L15.6863 11.5989C15.9294 11.4987 16.0439 11.2198 15.9437 10.9766C15.8436 10.7334 15.5647 10.619 15.3215 10.7191L14.8375 10.9194C14.6086 10.557 14.2987 10.2471 13.9339 10.0206L14.1342 9.53421C14.2343 9.29103 14.1199 9.01208 13.8767 8.91195C13.6335 8.80943 13.3546 8.92625 13.2544 9.16943L13.0542 9.6558C12.8491 9.60812 12.6369 9.58189 12.42 9.58189C12.203 9.58189 11.9861 9.60812 11.781 9.6558L11.5784 9.16943C11.4782 8.92625 11.1993 8.80943 10.9561 8.91195C10.7129 9.01208 10.5985 9.29103 10.6986 9.53421L10.9013 10.023C10.5389 10.2518 10.2313 10.5594 10.0025 10.9218L9.51371 10.7191C9.26814 10.619 8.99158 10.7334 8.89145 10.9766C8.79131 11.2198 8.90575 11.4987 9.14893 11.5989L9.6353 11.7991C9.58762 12.0066 9.56139 12.2188 9.56139 12.4405C9.56139 12.6622 9.58762 12.8696 9.6353 13.0747L9.15132 13.2749C8.90814 13.3751 8.7937 13.654 8.89383 13.8972C8.97012 14.0808 9.14655 14.1904 9.3349 14.1904C9.3945 14.1904 9.45649 14.1785 9.51609 14.1547L10.0001 13.9544C10.229 14.3192 10.5365 14.6291 10.9013 14.858L10.701 15.342C10.6009 15.5852 10.7153 15.8641 10.9585 15.9642C11.0181 15.9881 11.0801 16 11.1397 16C11.328 16 11.5045 15.8903 11.5808 15.7044L11.7786 15.2228C11.9861 15.2705 12.1983 15.2991 12.42 15.2991C12.6417 15.2991 12.8515 15.2728 13.0565 15.2252L13.2544 15.7044C13.3307 15.888 13.5072 16 13.6955 16C13.7551 16 13.8171 15.9881 13.8767 15.9642C14.1199 15.8641 14.2367 15.5852 14.1342 15.342L13.9339 14.8604C14.2987 14.6315 14.6086 14.3216 14.8375 13.9568L15.3191 14.1571C15.3787 14.1809 15.4407 14.1928 15.5003 14.1928C15.6886 14.1928 15.8651 14.0832 15.9414 13.8996C16.0415 13.6564 15.9271 13.3775 15.6839 13.2773L15.6886 13.2749ZM10.5127 12.4405C10.5127 11.3891 11.3686 10.5332 12.42 10.5332C13.4714 10.5332 14.3273 11.3891 14.3273 12.4405C14.3273 13.4919 13.4714 14.3478 12.42 14.3478C11.3686 14.3478 10.5127 13.4919 10.5127 12.4405Z" fill="black"/>
</svg>
