<svg width="16" height="16" viewBox="0 0 16 16" fill="none" xmlns="http://www.w3.org/2000/svg">
<path d="M15.2528 6.93713L13.138 5.52726C13.0669 5.48056 12.9823 5.45388 12.8978 5.45388H11.1188V3.66375C11.1188 3.41913 10.9187 3.21899 10.6741 3.21899H0.444753C0.200139 3.21899 0 3.41913 0 3.66375V10.7798C0 11.0244 0.200139 11.2246 0.444753 11.2246H1.77901C1.77901 12.0829 2.47728 12.7812 3.33565 12.7812C4.19402 12.7812 4.89229 12.0829 4.89229 11.2246H10.6741C10.7074 11.2246 10.7408 11.2201 10.7741 11.2134H11.5636C11.5636 11.2134 11.5636 11.2223 11.5636 11.2246C11.5636 12.0829 12.2618 12.7812 13.1202 12.7812C13.9786 12.7812 14.6769 12.0829 14.6769 11.2246C14.6769 11.2201 14.6769 11.2157 14.6769 11.2134H15.5664C15.8043 11.2134 16 11.02 16 10.7798V8.33143C16 7.77105 15.722 7.24846 15.255 6.93936L15.2528 6.93713ZM3.33565 11.8917C2.96873 11.8917 2.66852 11.5915 2.66852 11.2246C2.66852 10.8576 2.96873 10.5574 3.33565 10.5574C3.70257 10.5574 4.00278 10.8576 4.00278 11.2246C4.00278 11.5915 3.70257 11.8917 3.33565 11.8917ZM10.2293 10.335H4.61209C4.32967 9.93255 3.86491 9.66792 3.33565 9.66792C2.80639 9.66792 2.34163 9.93255 2.05921 10.335H0.889507V4.1085H10.2293V10.335ZM13.1202 11.8917C12.7533 11.8917 12.4531 11.5915 12.4531 11.2246C12.4531 10.8576 12.7533 10.5574 13.1202 10.5574C13.4871 10.5574 13.7874 10.8576 13.7874 11.2246C13.7874 11.5915 13.4871 11.8917 13.1202 11.8917ZM15.1327 10.3462H14.4033C14.1231 9.93699 13.6517 9.66792 13.118 9.66792C12.5843 9.66792 12.1151 9.93699 11.8327 10.3462H11.1166V6.31892H12.7644L14.7703 7.65763C14.9949 7.80885 15.1305 8.06013 15.1305 8.33143V10.3484L15.1327 10.3462Z" fill="black"/>
</svg>
