<svg width="16" height="16" viewBox="0 0 16 16" fill="none" xmlns="http://www.w3.org/2000/svg">
<path d="M15.5832 3.7573C15.3082 3.7123 15.0531 3.89731 15.0081 4.16732L14.0781 9.75006H4.92021L3.49265 1.66221C3.45015 1.4222 3.24264 1.24969 3.00013 1.24969H0.500021C0.22501 1.24969 0 1.4747 0 1.74972C0 2.02473 0.22501 2.24974 0.500021 2.24974H2.58011L4.00767 10.3376C4.05017 10.5776 4.25768 10.7501 4.50019 10.7501H14.5006C14.7456 10.7501 14.9531 10.5726 14.9931 10.3326L15.9932 4.33233C16.0382 4.05982 15.8557 3.8023 15.5832 3.7573Z" fill="black"/>
<path d="M6.50039 13.7502C6.77654 13.7502 7.00041 13.5264 7.00041 13.2502C7.00041 12.9741 6.77654 12.7502 6.50039 12.7502C6.22423 12.7502 6.00037 12.9741 6.00037 13.2502C6.00037 13.5264 6.22423 13.7502 6.50039 13.7502Z" fill="black"/>
<path d="M6.50031 11.7502C5.67277 11.7502 5.00024 12.4227 5.00024 13.2502C5.00024 14.0778 5.67277 14.7503 6.50031 14.7503C7.32784 14.7503 8.00037 14.0778 8.00037 13.2502C8.00037 12.4227 7.32784 11.7502 6.50031 11.7502ZM6.50031 13.7503C6.2253 13.7503 6.00029 13.5253 6.00029 13.2502C6.00029 12.9752 6.2253 12.7502 6.50031 12.7502C6.77532 12.7502 7.00033 12.9752 7.00033 13.2502C7.00033 13.5253 6.77532 13.7503 6.50031 13.7503Z" fill="black"/>
<path d="M12.5004 13.7502C12.7765 13.7502 13.0004 13.5264 13.0004 13.2502C13.0004 12.9741 12.7765 12.7502 12.5004 12.7502C12.2242 12.7502 12.0004 12.9741 12.0004 13.2502C12.0004 13.5264 12.2242 13.7502 12.5004 13.7502Z" fill="black"/>
<path d="M12.5006 11.7502C11.673 11.7502 11.0005 12.4227 11.0005 13.2502C11.0005 14.0778 11.673 14.7503 12.5006 14.7503C13.3281 14.7503 14.0006 14.0778 14.0006 13.2502C14.0006 12.4227 13.3281 11.7502 12.5006 11.7502ZM12.5006 13.7503C12.2255 13.7503 12.0005 13.5253 12.0005 13.2502C12.0005 12.9752 12.2255 12.7502 12.5006 12.7502C12.7756 12.7502 13.0006 12.9752 13.0006 13.2502C13.0006 13.5253 12.7756 13.7503 12.5006 13.7503Z" fill="black"/>
<path d="M6.64514 7.56747C7.02766 7.94998 7.52768 8.13999 8.0302 8.13999C8.53272 8.13999 9.03274 7.94998 9.41526 7.56747L12.3579 4.62484C13.1204 3.86231 13.1204 2.61976 12.3579 1.85722C11.5954 1.09469 10.3528 1.09469 9.59027 1.85722L8.11771 3.32979L6.64514 4.80235C5.88261 5.56488 5.88261 6.80744 6.64514 7.56997V7.56747ZM10.2953 2.56475C10.6678 2.19224 11.2753 2.19224 11.6479 2.56475C12.0204 2.93727 12.0204 3.5448 11.6479 3.91731L10.5303 5.03486L9.17775 3.6823L10.2953 2.56475ZM7.35267 5.50738L8.47022 4.38983L9.82278 5.74239L8.70523 6.85994C8.33271 7.23245 7.72519 7.23245 7.35267 6.85994C6.98016 6.48742 6.98016 5.8799 7.35267 5.50738Z" fill="black"/>
</svg>
