<svg width="16" height="16" viewBox="0 0 16 16" fill="none" xmlns="http://www.w3.org/2000/svg">
<path d="M15.4623 5.28482L15.3756 5.19817C15.0335 4.85599 14.578 4.66713 14.0936 4.66713H13.7736C13.7003 4.66713 13.6292 4.6849 13.5648 4.72046C12.8138 5.12262 11.9628 5.3337 11.1073 5.3337C10.2519 5.3337 9.40092 5.1204 8.64991 4.72046C8.52993 4.65602 8.3855 4.65158 8.26107 4.70712L5.99028 5.71587L1.07541 7.90001C0.422163 8.19108 0 8.83988 0 9.55534V10.2175C0 10.8329 0.499931 11.3329 1.1154 11.3329H14.8846C15.5001 11.3329 16 10.8329 16 10.2175V6.56687C16 6.08249 15.8111 5.627 15.469 5.28482H15.4623ZM8.4255 5.60255C9.25649 6.00917 10.1786 6.22247 11.1051 6.22247C12.0317 6.22247 13.0271 5.99139 13.8803 5.55589H14.0914C14.338 5.55589 14.5691 5.65144 14.7446 5.82697L14.8313 5.91362C15.0046 6.08915 15.1023 6.32023 15.1023 6.56687V9.11096H10.4519L8.18553 5.70921L8.42327 5.60255H8.4255ZM8.67657 9.11096L6.81461 6.32023L7.3612 6.07804L9.38536 9.11318H8.67657V9.11096ZM6.89904 9.11096L5.44369 6.92904L5.99028 6.68685L7.60783 9.11318H6.89904V9.11096ZM1.43313 8.71101L4.62158 7.29343L5.83252 9.10874H0.997639C1.09318 8.93543 1.24427 8.79322 1.43091 8.70879L1.43313 8.71101ZM15.1046 10.2175C15.1046 10.3419 15.0024 10.4441 14.8779 10.4441H1.11096C0.98653 10.4441 0.884322 10.3419 0.884322 10.2175V9.99972H15.1046V10.2175Z" fill="black"/>
<path d="M13.3271 8.66662C13.9404 8.66662 14.4381 8.16891 14.4381 7.55566C14.4381 6.94241 13.9404 6.4447 13.3271 6.4447C12.7139 6.4447 12.2162 6.94241 12.2162 7.55566C12.2162 8.16891 12.7139 8.66662 13.3271 8.66662ZM13.3271 7.33347C13.4493 7.33347 13.5493 7.43345 13.5493 7.55566C13.5493 7.67786 13.4493 7.77785 13.3271 7.77785C13.2049 7.77785 13.105 7.67786 13.105 7.55566C13.105 7.43345 13.2049 7.33347 13.3271 7.33347Z" fill="black"/>
</svg>
