<svg width="16" height="16" viewBox="0 0 16 16" fill="none" xmlns="http://www.w3.org/2000/svg">
<path d="M13.7761 16C13.6628 16 13.5495 15.9556 13.4628 15.8689L7.99877 10.4048L2.53471 15.8689C2.36139 16.0422 2.07919 16.0422 1.90587 15.8689C1.73255 15.6956 1.73255 15.4134 1.90587 15.2401L7.68324 9.46269C7.85656 9.28937 8.13876 9.28937 8.31208 9.46269L14.0895 15.2401C14.2628 15.4134 14.2628 15.6956 14.0895 15.8689C14.0028 15.9556 13.8895 16 13.7761 16Z" fill="black"/>
<path d="M7.99899 6.66731C7.88566 6.66731 7.77234 6.62286 7.68568 6.5362L1.90831 0.758835C1.73499 0.585514 1.73499 0.303312 1.90831 0.129991C2.08163 -0.0433303 2.36383 -0.0433303 2.53715 0.129991L8.00121 5.59405L13.4653 0.129991C13.6386 -0.0433303 13.9208 -0.0433303 14.0941 0.129991C14.2674 0.303312 14.2674 0.585514 14.0941 0.758835L8.31674 6.5362C8.23008 6.62286 8.11676 6.66731 8.00343 6.66731H7.99899Z" fill="black"/>
<path d="M0.44379 14.2223C0.330465 14.2223 0.21714 14.1779 0.130479 14.0912C-0.042842 13.9179 -0.042842 13.6357 0.130479 13.4624L5.59454 7.99829L0.130479 2.53646C-0.042842 2.36314 -0.042842 2.08094 0.130479 1.90761C0.3038 1.73429 0.586002 1.73429 0.759323 1.90761L6.53669 7.68498C6.71001 7.8583 6.71001 8.14051 6.53669 8.31383L0.759323 14.0912C0.672663 14.1779 0.559338 14.2223 0.446012 14.2223H0.44379Z" fill="black"/>
<path d="M15.5538 14.2223C15.4405 14.2223 15.3271 14.1779 15.2405 14.0912L9.46311 8.31383C9.28979 8.14051 9.28979 7.8583 9.46311 7.68498L15.2405 1.90761C15.4138 1.73429 15.696 1.73429 15.8693 1.90761C16.0426 2.08094 16.0426 2.36314 15.8693 2.53646L10.4053 8.00052L15.8693 13.4646C16.0426 13.6379 16.0426 13.9201 15.8693 14.0934C15.7827 14.1801 15.6693 14.2245 15.556 14.2245L15.5538 14.2223Z" fill="black"/>
</svg>
