<svg width="16" height="16" viewBox="0 0 16 16" fill="none" xmlns="http://www.w3.org/2000/svg">
<path d="M14.2102 10.2153C14.2102 8.99404 13.2151 7.99889 11.9939 7.99889C10.7726 7.99889 9.77748 8.99404 9.77748 10.2153C9.77748 11.2836 10.5377 12.179 11.5484 12.3873V13.101C11.5484 14.2092 10.6463 15.1135 9.5359 15.1135C8.4255 15.1135 7.52343 14.2114 7.52343 13.101V8.57072C10.2496 8.3513 12.4017 6.064 12.4017 3.28467V1.73542C12.4017 0.777947 11.6237 0 10.6662 0H8.8865C8.6427 0 8.44323 0.199474 8.44323 0.443275C8.44323 0.687076 8.6427 0.886549 8.8865 0.886549H10.6662C11.1339 0.886549 11.5151 1.26777 11.5151 1.73542V3.28467C11.5151 5.72268 9.53368 7.70411 7.09567 7.70411C4.65766 7.70411 2.67622 5.72046 2.67622 3.28467V1.73542C2.67622 1.26777 3.05744 0.886549 3.52509 0.886549H5.32257C5.56637 0.886549 5.76585 0.687076 5.76585 0.443275C5.76585 0.199474 5.56637 0 5.32257 0H3.52509C2.56762 0 1.78967 0.777947 1.78967 1.73542V3.28467C1.78967 6.05513 3.92626 8.33578 6.63688 8.5685V13.101C6.63688 14.699 7.93789 16 9.5359 16C11.1339 16 12.4349 14.699 12.4349 13.101V12.3873C13.4478 12.1834 14.2102 11.2858 14.2102 10.2153ZM11.9939 11.5451C11.2602 11.5451 10.664 10.9489 10.664 10.2153C10.664 9.48165 11.2602 8.88544 11.9939 8.88544C12.7275 8.88544 13.3237 9.48165 13.3237 10.2153C13.3237 10.9489 12.7275 11.5451 11.9939 11.5451Z" fill="black"/>
<path d="M5.34485 2.2363V5.96867C5.34485 6.21247 5.54432 6.41194 5.78812 6.41194C6.03192 6.41194 6.2314 6.21247 6.2314 5.96867V4.50808H6.3533C6.65473 4.50808 7.10687 4.84718 7.4504 5.18851L6.99383 5.66281C6.82317 5.8379 6.82982 6.11938 7.00491 6.29004C7.09135 6.37205 7.20217 6.41416 7.31299 6.41416C7.42381 6.41416 7.54571 6.36983 7.63215 6.27896L8.05991 5.83569L8.48767 6.27896C8.57411 6.36983 8.69157 6.41416 8.80682 6.41416C8.92208 6.41416 9.02846 6.37205 9.1149 6.29004C9.28999 6.11938 9.29664 5.84012 9.12598 5.66281L8.67606 5.19737L9.12598 4.73193C9.29664 4.55684 9.28999 4.27536 9.1149 4.1047C8.93981 3.93404 8.65833 3.94069 8.48767 4.11578L8.06656 4.55241C7.99785 4.4837 7.92028 4.41278 7.83605 4.33964C8.25273 4.10692 8.53421 3.66364 8.53421 3.15388C8.53421 2.40474 7.92471 1.79745 7.17779 1.79745H5.78812C5.54432 1.79745 5.34485 1.99693 5.34485 2.24073V2.2363ZM7.64988 3.14944C7.64988 3.40876 7.43932 3.61931 7.18001 3.61931H6.23361V2.67736H7.18001C7.43932 2.67736 7.64988 2.88791 7.64988 3.14723V3.14944Z" fill="black"/>
</svg>
