<svg width="16" height="16" viewBox="0 0 16 16" fill="none" xmlns="http://www.w3.org/2000/svg">
<path d="M14.1983 10.2139C14.1983 8.9928 13.2033 7.99778 11.9822 7.99778C10.7612 7.99778 9.76618 8.9928 9.76618 10.2139C9.76618 11.282 10.5263 12.1773 11.5368 12.3856V13.0992C11.5368 14.2072 10.6349 15.1114 9.52463 15.1114C8.41438 15.1114 7.51244 14.2094 7.51244 13.0992V8.57175C10.2493 8.36344 12.4122 6.07202 12.4122 3.28421V1.73518C12.4122 0.777839 11.6343 0 10.677 0H8.89748C8.65371 0 8.45427 0.199446 8.45427 0.443213C8.45427 0.686981 8.65371 0.886427 8.89748 0.886427H10.677C11.1446 0.886427 11.5257 1.26759 11.5257 1.73518V3.28421C11.5257 5.72188 9.54457 7.70305 7.1069 7.70305C4.66923 7.70305 2.68806 5.72188 2.68806 3.28421V1.73518C2.68806 1.26759 3.06923 0.886427 3.53682 0.886427H5.33405C5.57781 0.886427 5.77726 0.686981 5.77726 0.443213C5.77726 0.199446 5.57781 0 5.33405 0H3.53682C2.57947 0 1.80164 0.777839 1.80164 1.73518V3.28421C1.80164 6.04765 3.92463 8.32355 6.62601 8.56731V13.1014C6.62601 14.6992 7.92684 16 9.52463 16C11.1224 16 12.4232 14.6992 12.4232 13.1014V12.3878C13.436 12.1839 14.1983 11.2864 14.1983 10.2161V10.2139ZM11.9822 11.5435C11.2487 11.5435 10.6526 10.9474 10.6526 10.2139C10.6526 9.48033 11.2487 8.88421 11.9822 8.88421C12.7158 8.88421 13.3119 9.48033 13.3119 10.2139C13.3119 10.9474 12.7158 11.5435 11.9822 11.5435Z" fill="black"/>
<path d="M5.33411 3.56563V4.45206H6.66375V5.7817H7.55017V4.45206H8.87981V3.56563H7.55017V2.23599H6.66375V3.56563H5.33411Z" fill="black"/>
</svg>
