<svg width="16" height="16" viewBox="0 0 16 16" fill="none" xmlns="http://www.w3.org/2000/svg">
<path d="M14.2257 10.2279C14.2257 9.00278 13.2273 8.00445 12.0022 8.00445C10.7771 8.00445 9.77874 9.00278 9.77874 10.2279C9.77874 11.3018 10.5436 12.2001 11.5575 12.4069V13.0739C11.5575 14.1968 10.6659 15.1106 9.56973 15.1106C8.47357 15.1106 7.56862 14.2123 7.56862 13.1095V8.59811C10.2968 8.37132 12.4469 6.08116 12.4469 3.29516V1.80545C12.4469 0.809339 11.6375 0 10.6414 0H8.92048C8.6759 0 8.47579 0.200111 8.47579 0.444692C8.47579 0.689272 8.6759 0.889383 8.92048 0.889383H10.6414C11.1462 0.889383 11.5575 1.30072 11.5575 1.80545V3.29516C11.5575 5.73874 9.56973 7.72874 7.12393 7.72874C4.67813 7.72874 2.66367 5.72763 2.66367 3.26848V1.80545C2.66367 1.30072 3.07501 0.889383 3.57974 0.889383H5.34739C5.59197 0.889383 5.79208 0.689272 5.79208 0.444692C5.79208 0.200111 5.59197 0 5.34739 0H3.57974C2.58363 0 1.77429 0.809339 1.77429 1.80545V3.26848C1.77429 6.06782 3.93772 8.37132 6.67924 8.59811V13.1095C6.67924 14.7037 7.97551 16 9.56973 16C11.164 16 12.4469 14.6882 12.4469 13.0739V12.4069C13.4608 12.2001 14.2257 11.3018 14.2257 10.2279ZM12.0022 11.562C11.2662 11.562 10.6681 10.9639 10.6681 10.2279C10.6681 9.49194 11.2662 8.89383 12.0022 8.89383C12.7382 8.89383 13.3363 9.49194 13.3363 10.2279C13.3363 10.9639 12.7382 11.562 12.0022 11.562Z" fill="black"/>
</svg>
