<svg width="16" height="16" viewBox="0 0 16 16" fill="none" xmlns="http://www.w3.org/2000/svg">
<path d="M8.44442 2.68222V0.888889H9.77776C10.0222 0.888889 10.2222 0.688889 10.2222 0.444444C10.2222 0.2 10.0222 0 9.77776 0H6.2222C5.97776 0 5.77776 0.2 5.77776 0.444444C5.77776 0.688889 5.97776 0.888889 6.2222 0.888889H7.55554V2.68222C4.08665 2.91111 1.33331 5.80667 1.33331 9.33333C1.33331 12.86 4.32442 16 7.99998 16C11.6755 16 14.6666 13.0089 14.6666 9.33333C14.6666 5.65778 11.9133 2.91333 8.44442 2.68222ZM7.99998 15.1111C4.81331 15.1111 2.2222 12.52 2.2222 9.33333C2.2222 6.14667 4.81331 3.55556 7.99998 3.55556C11.1866 3.55556 13.7778 6.14667 13.7778 9.33333C13.7778 12.52 11.1866 15.1111 7.99998 15.1111Z" fill="black"/>
<path d="M8.00011 5.33331C7.75566 5.33331 7.55566 5.53331 7.55566 5.77776V9.33331C7.55566 9.57776 7.75566 9.77776 8.00011 9.77776C8.24455 9.77776 8.44455 9.57776 8.44455 9.33331V5.77776C8.44455 5.53331 8.24455 5.33331 8.00011 5.33331Z" fill="black"/>
</svg>
