<svg width="16" height="16" viewBox="0 0 16 16" fill="none" xmlns="http://www.w3.org/2000/svg">
<path d="M8.05156 8.90514C6.1543 8.90514 4.61243 10.447 4.61243 12.3443C4.61243 14.2415 6.1543 15.7834 8.05156 15.7834C9.94881 15.7834 11.4907 14.2415 11.4907 12.3443C11.4907 10.447 9.94881 8.90514 8.05156 8.90514ZM8.05156 14.637C6.78768 14.637 5.7588 13.6081 5.7588 12.3443C5.7588 11.0804 6.78768 10.0515 8.05156 10.0515C9.31544 10.0515 10.3443 11.0804 10.3443 12.3443C10.3443 13.6081 9.31544 14.637 8.05156 14.637Z" fill="black"/>
<path d="M15.9014 3.12739C15.7237 2.86659 15.3683 2.79494 15.1046 2.97263L13.2045 4.25657C13.0411 4.36834 12.9437 4.55749 12.9523 4.75524C12.9609 4.95299 13.0698 5.13355 13.2446 5.23099L13.5541 5.40581L12.4221 6.17102C12.1584 6.34871 12.0897 6.70408 12.2673 6.96775C12.3791 7.13111 12.5597 7.21995 12.7431 7.21995C12.8549 7.21995 12.9638 7.18843 13.0641 7.12251L14.9642 5.83857C15.1276 5.7268 15.225 5.53764 15.2164 5.33989C15.2078 5.14214 15.0989 4.96159 14.9241 4.86415L14.6145 4.68933L15.7466 3.92412C16.0103 3.74643 16.079 3.39105 15.9014 3.12739Z" fill="black"/>
<path d="M2.84143 4.40557C2.76119 4.22502 2.59209 4.09892 2.39434 4.07026C2.19659 4.04447 2.00171 4.12185 1.87561 4.27374L1.65207 4.54887L1.09607 3.30219C0.967106 3.01273 0.628925 2.88376 0.339465 3.01273C0.0500047 3.14169 -0.0789628 3.47988 0.0500046 3.76934L0.984302 5.86434C1.06455 6.04489 1.23364 6.17099 1.43139 6.19965C1.62914 6.22545 1.82402 6.14807 1.95012 5.99617L2.17367 5.72104L2.72966 6.96773C2.82424 7.17981 3.03345 7.30877 3.25413 7.30877C3.33151 7.30877 3.41175 7.29158 3.48627 7.26005C3.77573 7.13108 3.9047 6.7929 3.77573 6.50344L2.84143 4.40844V4.40557Z" fill="black"/>
<path d="M7.45827 3.55726L7.80505 3.49135L7.42961 4.80395C7.34363 5.10774 7.51845 5.42586 7.82224 5.51184C7.87383 5.52616 7.92828 5.53476 7.97987 5.53476C8.22921 5.53476 8.45848 5.3714 8.53013 5.1192L9.16064 2.91529C9.21509 2.72327 9.16637 2.51979 9.03453 2.37076C8.89984 2.2246 8.70209 2.15582 8.50434 2.19307L8.15756 2.25899L8.533 0.946391C8.61897 0.642601 8.44415 0.324481 8.14036 0.238503C7.83657 0.152525 7.51845 0.327347 7.43247 0.631137L6.80197 2.83505C6.74751 3.02706 6.79623 3.23055 6.92807 3.37957C7.06277 3.52574 7.26338 3.59165 7.45827 3.55726Z" fill="black"/>
</svg>
