<svg width="16" height="16" viewBox="0 0 16 16" fill="none" xmlns="http://www.w3.org/2000/svg">
<path d="M15.5556 7.99996H13.76C13.5311 5.02218 11.0378 2.66663 8 2.66663C4.96222 2.66663 2.46889 5.02218 2.24 7.99996H0.444444C0.2 7.99996 0 8.19996 0 8.4444C0 8.68885 0.2 8.88885 0.444444 8.88885H15.5556C15.8 8.88885 16 8.68885 16 8.4444C16 8.19996 15.8 7.99996 15.5556 7.99996ZM8 3.55551C10.5467 3.55551 12.6422 5.51107 12.8689 7.99996H3.13111C3.35556 5.51107 5.45333 3.55551 8 3.55551Z" fill="black"/>
<path d="M13.7776 10.2222H2.22203C1.97759 10.2222 1.77759 10.4222 1.77759 10.6666C1.77759 10.9111 1.97759 11.1111 2.22203 11.1111H13.7776C14.022 11.1111 14.222 10.9111 14.222 10.6666C14.222 10.4222 14.022 10.2222 13.7776 10.2222Z" fill="black"/>
<path d="M12 12.4445H3.99999C3.75554 12.4445 3.55554 12.6445 3.55554 12.8889C3.55554 13.1333 3.75554 13.3333 3.99999 13.3333H12C12.2444 13.3333 12.4444 13.1333 12.4444 12.8889C12.4444 12.6445 12.2444 12.4445 12 12.4445Z" fill="black"/>
</svg>
