<svg width="16" height="16" viewBox="0 0 16 16" fill="none" xmlns="http://www.w3.org/2000/svg">
<path d="M4.31566 0.0176816C4.12458 -0.0378663 3.92016 0.0421227 3.81573 0.210988L1.93821 3.25057C1.92933 3.2639 1.92266 3.27723 1.91599 3.29279C1.66714 3.81272 1.70713 4.46818 1.97154 4.9259V14.6846C1.97154 15.4089 2.56924 15.9977 3.30469 15.9977C4.04015 15.9977 4.63784 15.4089 4.63784 14.6846V0.44429C4.63784 0.246539 4.50675 0.0710077 4.31566 0.0176816ZM2.70922 3.69718L3.74908 2.01296V5.31251L2.81365 4.5815C2.66478 4.46596 2.56257 4.02824 2.70922 3.6994V3.69718ZM3.30469 15.1112C3.06028 15.1112 2.86031 14.9201 2.86031 14.6868V5.74356L3.74908 6.43902V14.6846C3.74908 14.9179 3.5491 15.1089 3.30469 15.1089V15.1112Z" fill="black"/>
<path d="M13.9275 11.4228C13.6542 11.0318 13.2431 10.7718 12.7743 10.6874C12.4588 10.6318 12.141 10.663 11.8478 10.7718L12.9743 4.38382C13.2431 2.8618 12.7765 1.27758 11.7256 0.142176C11.61 0.0177485 11.4345 -0.0289117 11.2745 0.0177485C11.1123 0.0644088 10.9923 0.199946 10.9612 0.36659L10.4146 3.46394L9.86803 0.36659C9.83914 0.199946 9.71694 0.0644088 9.55474 0.0177485C9.39254 -0.0289117 9.21701 0.0177485 9.10369 0.142176C8.05272 1.27535 7.58612 2.8618 7.85497 4.38382L8.98148 10.7718C8.68819 10.663 8.37046 10.6318 8.05494 10.6874C7.5839 10.7696 7.17506 11.0318 6.90177 11.4228C6.62847 11.8139 6.52182 12.2872 6.60625 12.7582L6.91732 14.5224C7.07063 15.389 7.82609 16 8.67708 16C8.77929 16 8.88372 15.9911 8.98815 15.9733C9.71027 15.8467 10.2546 15.3001 10.4146 14.6291C10.5768 15.3001 11.119 15.8467 11.8411 15.9733C11.9455 15.9911 12.05 16 12.1522 16C13.0032 16 13.7586 15.389 13.9119 14.5224L14.223 12.7604C14.3052 12.2894 14.2008 11.8161 13.9275 11.4251V11.4228ZM10.4146 13.7736L10.1902 12.4983C10.2102 12.5027 10.2302 12.5049 10.2502 12.5071C10.2635 12.5071 10.2769 12.5116 10.2924 12.5116C10.2991 12.5116 10.3057 12.5116 10.3102 12.5138C10.3391 12.516 10.368 12.516 10.3968 12.5183C10.4013 12.5183 10.4057 12.5183 10.4102 12.5183C10.4324 12.5183 10.4568 12.516 10.4791 12.5138C10.5057 12.5138 10.5302 12.5138 10.5546 12.5094C10.5702 12.5094 10.5857 12.5049 10.599 12.5027C10.6124 12.5027 10.6235 12.4983 10.6368 12.496L10.4124 13.7714L10.4146 13.7736ZM10.8523 11.074C10.8723 11.2251 10.8279 11.3717 10.7412 11.4762C10.7279 11.4895 10.7168 11.5028 10.7012 11.5162C10.6968 11.5206 10.6946 11.5228 10.6901 11.5273C10.6501 11.5606 10.6057 11.5873 10.5568 11.605C10.5524 11.605 10.5479 11.6073 10.5457 11.6095C10.5435 11.6095 10.539 11.6095 10.5368 11.6117C10.5235 11.6162 10.5079 11.6184 10.4924 11.6228C10.4813 11.6228 10.4724 11.625 10.4613 11.6273C10.4524 11.6273 10.4435 11.6295 10.4346 11.6295C10.4257 11.6295 10.4168 11.6295 10.4102 11.6295C10.3968 11.6295 10.3835 11.6295 10.3724 11.6273C10.3657 11.6273 10.3613 11.6273 10.3568 11.6273C10.3435 11.6273 10.328 11.6228 10.3146 11.6206C10.3035 11.6184 10.2924 11.6139 10.2813 11.6117C10.2769 11.6117 10.2724 11.6095 10.2658 11.6073C10.2546 11.6028 10.2413 11.5984 10.2302 11.5939C10.2169 11.5873 10.2058 11.5806 10.1924 11.5739C10.188 11.5717 10.1835 11.5695 10.1813 11.5673C10.1702 11.5606 10.1613 11.5539 10.1502 11.5473C10.1413 11.5406 10.1324 11.5339 10.1258 11.5273C10.1213 11.5228 10.1147 11.5184 10.1102 11.5139C10.0991 11.5051 10.0902 11.494 10.0813 11.4828C10.0724 11.4717 10.0613 11.4606 10.0524 11.4495C10.0436 11.4384 10.0369 11.4251 10.028 11.4117C10.0236 11.4051 10.0213 11.3984 10.0169 11.394C10.0125 11.3851 10.008 11.3784 10.0036 11.3695C9.99912 11.3584 9.99468 11.3473 9.99023 11.3362C9.99023 11.3318 9.98801 11.3295 9.98579 11.3251C9.98135 11.3095 9.9769 11.2962 9.97246 11.2806C9.97246 11.2695 9.97024 11.2607 9.96801 11.2495C9.96579 11.2318 9.96357 11.2162 9.96357 11.1984C9.96357 11.1807 9.96357 11.1629 9.96801 11.1473C9.99023 10.9207 10.1813 10.7407 10.4146 10.7407C10.6257 10.7407 10.8035 10.8896 10.8523 11.0873V11.074ZM11.6544 1.55754C12.0966 2.36409 12.261 3.31285 12.0988 4.2305L11.3256 8.62101L10.8679 6.02581L11.6567 1.55754H11.6544ZM9.17701 1.55754L10.6413 9.86084C10.5679 9.84751 10.4924 9.84085 10.4168 9.84085C10.1747 9.84085 9.95024 9.90528 9.75471 10.0186L8.73485 4.23273C8.57265 3.31285 8.73707 2.36632 9.17923 1.55976L9.17701 1.55754ZM8.83484 15.0979C8.34824 15.1846 7.88163 14.8579 7.79498 14.3691L7.48391 12.6049C7.44169 12.3694 7.49502 12.1294 7.63278 11.9339C7.77054 11.7384 7.97718 11.6073 8.2127 11.5651C8.26603 11.5562 8.31713 11.5517 8.37046 11.5517C8.55265 11.5517 8.73041 11.6073 8.88372 11.7139C9.07925 11.8517 9.21256 12.0583 9.25256 12.2938L9.56362 14.0558C9.65028 14.5446 9.32366 15.0112 8.83484 15.0957V15.0979ZM13.3498 12.6071L13.0387 14.3691C12.952 14.8579 12.4854 15.1846 11.9988 15.0979C11.51 15.0112 11.1834 14.5446 11.2701 14.058L11.5811 12.2961C11.6233 12.0605 11.7544 11.8539 11.95 11.7161C12.1455 11.5784 12.3855 11.5251 12.621 11.5673C12.8565 11.6095 13.0631 11.7406 13.2009 11.9361C13.3387 12.1316 13.392 12.3716 13.3498 12.6071Z" fill="black"/>
</svg>
