<svg width="16" height="16" viewBox="0 0 16 16" fill="none" xmlns="http://www.w3.org/2000/svg">
<path d="M15.8656 15.197L12.1676 11.499L13.0504 10.6162C13.2336 10.433 13.2336 10.1349 13.0504 9.95172L5.58871 2.48998C5.40557 2.30685 5.10739 2.30685 4.92425 2.48998L4.04142 3.37281L2.32978 1.66116L3.18912 0.80182C3.37226 0.618681 3.37226 0.320493 3.18912 0.137354C3.00598 -0.0457847 2.7078 -0.0457847 2.52466 0.137354L0.141505 2.52051C-0.0416343 2.70365 -0.0416343 3.00183 0.141505 3.18497C0.233074 3.27654 0.352819 3.3235 0.472563 3.3235C0.592308 3.3235 0.712053 3.27654 0.803622 3.18497L1.66297 2.32563L3.37461 4.03727L2.49179 4.9201C2.30865 5.10324 2.30865 5.40142 2.49179 5.58456L9.95352 13.0463C10.0451 13.1379 10.1648 13.1848 10.2846 13.1848C10.4043 13.1848 10.5241 13.1379 10.6156 13.0463L11.4985 12.1635L15.1965 15.8615C15.288 15.953 15.4078 16 15.5275 16C15.6473 16 15.767 15.953 15.8586 15.8615C16.0417 15.6783 16.0417 15.3801 15.8586 15.197H15.8656ZM10.2869 12.0484L3.48966 5.25116L5.25531 3.48551L12.0526 10.2828L10.2869 12.0484Z" fill="black"/>
</svg>
