<svg width="16" height="16" viewBox="0 0 16 16" fill="none" xmlns="http://www.w3.org/2000/svg">
<path d="M8 16C3.58889 16 0 12.4111 0 8C0 3.58889 3.58889 0 8 0C12.4111 0 16 3.58889 16 8C16 12.4111 12.4111 16 8 16ZM8 0.888889C4.08 0.888889 0.888889 4.08 0.888889 8C0.888889 11.92 4.08 15.1111 8 15.1111C11.92 15.1111 15.1111 11.92 15.1111 8C15.1111 4.08 11.92 0.888889 8 0.888889Z" fill="black"/>
<path d="M7.99995 13.7778C4.81328 13.7778 2.22217 11.1867 2.22217 8C2.22217 4.81333 4.81328 2.22222 7.99995 2.22222C11.1866 2.22222 13.7777 4.81333 13.7777 8C13.7777 11.1867 11.1866 13.7778 7.99995 13.7778ZM7.99995 3.11111C5.30439 3.11111 3.11106 5.30444 3.11106 8C3.11106 10.6956 5.30439 12.8889 7.99995 12.8889C10.6955 12.8889 12.8888 10.6956 12.8888 8C12.8888 5.30444 10.6955 3.11111 7.99995 3.11111Z" fill="black"/>
<path d="M8.00001 11.5556C6.04001 11.5556 4.44446 9.96 4.44446 8C4.44446 6.04 6.04001 4.44444 8.00001 4.44444C9.96001 4.44444 11.5556 6.04 11.5556 8C11.5556 9.96 9.96001 11.5556 8.00001 11.5556ZM8.00001 5.33333C6.5289 5.33333 5.33335 6.52889 5.33335 8C5.33335 9.47111 6.5289 10.6667 8.00001 10.6667C9.47113 10.6667 10.6667 9.47111 10.6667 8C10.6667 6.52889 9.47113 5.33333 8.00001 5.33333Z" fill="black"/>
<path d="M7.99996 9.33333C7.2644 9.33333 6.66663 8.73555 6.66663 8C6.66663 7.26444 7.2644 6.66666 7.99996 6.66666C8.73551 6.66666 9.33329 7.26444 9.33329 8C9.33329 8.73555 8.73551 9.33333 7.99996 9.33333ZM7.99996 7.55555C7.75551 7.55555 7.55551 7.75555 7.55551 8C7.55551 8.24444 7.75551 8.44444 7.99996 8.44444C8.2444 8.44444 8.4444 8.24444 8.4444 8C8.4444 7.75555 8.2444 7.55555 7.99996 7.55555Z" fill="black"/>
</svg>
