<svg width="16" height="16" viewBox="0 0 16 16" fill="none" xmlns="http://www.w3.org/2000/svg">
<path d="M11.5572 7.11212V5.25631C12.075 5.07184 12.4462 4.58066 12.4462 4.00058C12.4462 3.26492 11.8483 2.66706 11.1127 2.66706C10.377 2.66706 9.77915 3.26492 9.77915 4.00058C9.77915 4.58066 10.1503 5.07184 10.6682 5.25631V6.92765L9.02127 8.57455C8.93681 8.659 8.89014 8.77013 8.89014 8.88793V14.6665C8.89014 14.911 9.09016 15.111 9.33464 15.111C9.57912 15.111 9.77915 14.911 9.77915 14.6665V9.0724L11.426 7.4255C11.5105 7.34104 11.5572 7.22992 11.5572 7.11212ZM11.1127 3.55607C11.3571 3.55607 11.5572 3.7561 11.5572 4.00058C11.5572 4.24506 11.3571 4.44509 11.1127 4.44509C10.8682 4.44509 10.6682 4.24506 10.6682 4.00058C10.6682 3.7561 10.8682 3.55607 11.1127 3.55607Z" fill="black"/>
<path d="M7.11203 0C6.37637 0 5.77851 0.597861 5.77851 1.33352C5.77851 1.9136 6.14967 2.40478 6.66752 2.58925V10.0392L3.55598 6.92763V5.25629C4.07383 5.07182 4.44499 4.58064 4.44499 4.00056C4.44499 3.2649 3.84713 2.66704 3.11147 2.66704C2.37581 2.66704 1.77795 3.2649 1.77795 4.00056C1.77795 4.58064 2.14912 5.07182 2.66697 5.25629V7.1121C2.66697 7.22989 2.71364 7.34324 2.7981 7.42548L6.66752 11.2949V15.5555C6.66752 15.8 6.86755 16 7.11203 16C7.35651 16 7.55653 15.8 7.55653 15.5555V2.58925C8.07438 2.40478 8.44555 1.9136 8.44555 1.33352C8.44555 0.597861 7.84769 0 7.11203 0ZM3.11147 3.55605C3.35595 3.55605 3.55598 3.75608 3.55598 4.00056C3.55598 4.24503 3.35595 4.44506 3.11147 4.44506C2.86699 4.44506 2.66697 4.24503 2.66697 4.00056C2.66697 3.75608 2.86699 3.55605 3.11147 3.55605ZM7.11203 1.77802C6.86755 1.77802 6.66752 1.578 6.66752 1.33352C6.66752 1.08904 6.86755 0.889012 7.11203 0.889012C7.35651 0.889012 7.55653 1.08904 7.55653 1.33352C7.55653 1.578 7.35651 1.77802 7.11203 1.77802Z" fill="black"/>
<path d="M12.8908 9.33466C12.1552 9.33466 11.5573 9.93252 11.5573 10.6682C11.5573 10.8726 11.6062 11.0682 11.6885 11.2416L11.2417 11.6883C11.1573 11.7728 11.1106 11.8839 11.1106 12.0017V13.7797C11.1106 14.0242 11.3106 14.2242 11.5551 14.2242C11.7996 14.2242 11.9996 14.0242 11.9996 13.7797V12.1862L12.3152 11.8706C12.4886 11.955 12.6841 12.0017 12.8886 12.0017C13.6243 12.0017 14.2221 11.4038 14.2221 10.6682C14.2221 9.93252 13.6243 9.33466 12.8886 9.33466H12.8908ZM12.8908 11.1127C12.6464 11.1127 12.4463 10.9127 12.4463 10.6682C12.4463 10.4237 12.6464 10.2237 12.8908 10.2237C13.1353 10.2237 13.3353 10.4237 13.3353 10.6682C13.3353 10.9127 13.1353 11.1127 12.8908 11.1127Z" fill="black"/>
</svg>
