<svg width="16" height="16" viewBox="0 0 16 16" fill="none" xmlns="http://www.w3.org/2000/svg">
<path d="M10.2222 8.67778V2.22222C10.2222 0.997778 9.22444 0 8 0C6.77556 0 5.77778 0.997778 5.77778 2.22222V8.67778C4.67556 9.41778 4 10.6667 4 12C4 14.2067 5.79556 16 8 16C10.2044 16 12 14.2067 12 12C12 10.6667 11.3244 9.41778 10.2222 8.67778ZM8 15.1111C6.28444 15.1111 4.88889 13.7156 4.88889 12C4.88889 10.8956 5.48444 9.86444 6.44444 9.30889C6.58222 9.22889 6.66667 9.08222 6.66667 8.92444V7.55556H7.77778C8.02222 7.55556 8.22222 7.35556 8.22222 7.11111C8.22222 6.86667 8.02222 6.66667 7.77778 6.66667H6.66667V5.77778H7.77778C8.02222 5.77778 8.22222 5.57778 8.22222 5.33333C8.22222 5.08889 8.02222 4.88889 7.77778 4.88889H6.66667V4H7.77778C8.02222 4 8.22222 3.8 8.22222 3.55556C8.22222 3.31111 8.02222 3.11111 7.77778 3.11111H6.66667V2.22222C6.66667 1.48667 7.26444 0.888889 8 0.888889C8.73556 0.888889 9.33333 1.48667 9.33333 2.22222V8.92444C9.33333 9.08222 9.41778 9.22889 9.55556 9.30889C10.5156 9.86444 11.1111 10.8956 11.1111 12C11.1111 13.7156 9.71556 15.1111 8 15.1111Z" fill="black"/>
</svg>
