<svg width="16" height="16" viewBox="0 0 16 16" fill="none" xmlns="http://www.w3.org/2000/svg">
<path d="M14.6667 6.22222H12.4445V4.44444C12.4445 1.99333 10.4511 0 8.00003 0C5.54892 0 3.55558 1.99333 3.55558 4.44444V6.22222H1.33336C1.08892 6.22222 0.888916 6.42222 0.888916 6.66667V15.5556C0.888916 15.8 1.08892 16 1.33336 16H14.6667C14.9111 16 15.1111 15.8 15.1111 15.5556V6.66667C15.1111 6.42222 14.9111 6.22222 14.6667 6.22222ZM4.44447 4.44444C4.44447 2.48444 6.04003 0.888889 8.00003 0.888889C9.96003 0.888889 11.5556 2.48444 11.5556 4.44444V6.22222H4.44447V4.44444ZM14.2222 15.1111H1.7778V7.11111H14.2222V15.1111Z" fill="black"/>
<path d="M7.99996 8.00002C6.27551 8.00002 4.87329 9.40224 4.87329 11.1267C4.87329 12.8511 6.27551 14.2533 7.99996 14.2533C9.7244 14.2533 11.1266 12.8511 11.1266 11.1267C11.1266 9.40224 9.7244 8.00002 7.99996 8.00002ZM7.99996 13.3645C6.76662 13.3645 5.76218 12.36 5.76218 11.1267C5.76218 9.89335 6.76662 8.8889 7.99996 8.8889C9.23329 8.8889 10.2377 9.89335 10.2377 11.1267C10.2377 12.36 9.23329 13.3645 7.99996 13.3645Z" fill="black"/>
<path d="M8.88888 10.6667H8.44443V9.7778C8.44443 9.53336 8.24443 9.33336 7.99999 9.33336C7.75554 9.33336 7.55554 9.53336 7.55554 9.7778V11.1111C7.55554 11.3556 7.75554 11.5556 7.99999 11.5556H8.88888C9.13332 11.5556 9.33332 11.3556 9.33332 11.1111C9.33332 10.8667 9.13332 10.6667 8.88888 10.6667Z" fill="black"/>
</svg>
