<svg width="16" height="16" viewBox="0 0 16 16" fill="none" xmlns="http://www.w3.org/2000/svg">
<path d="M14.2235 12.4447C13.8791 12.4447 13.5569 12.5447 13.2836 12.7158L9.17278 8.60495C8.99946 8.43163 8.71725 8.43163 8.54393 8.60495C8.37061 8.77827 8.37061 9.06047 8.54393 9.2338L12.6681 13.358C12.5259 13.6135 12.4437 13.9068 12.4437 14.2201C12.4437 15.2 13.2414 15.9978 14.2213 15.9978C15.2012 15.9978 15.999 15.2 15.999 14.2201C15.999 13.2402 15.2012 12.4425 14.2213 12.4425L14.2235 12.4447ZM14.2235 15.1112C13.7325 15.1112 13.3347 14.7134 13.3347 14.2223C13.3347 13.7313 13.7325 13.3335 14.2235 13.3335C14.7146 13.3335 15.1124 13.7313 15.1124 14.2223C15.1124 14.7134 14.7146 15.1112 14.2235 15.1112Z" fill="black"/>
<path d="M2.6687 5.33394C3.22866 5.33394 3.74641 5.16062 4.17527 4.86508L6.7662 7.45602C6.85286 7.54268 6.96618 7.58712 7.07951 7.58712C7.19283 7.58712 7.30616 7.54268 7.39282 7.45602C7.56614 7.28269 7.56614 7.00049 7.39282 6.82717L4.81078 4.24513C5.13742 3.80294 5.33296 3.25853 5.33296 2.66746C5.33296 1.19645 4.13749 0.000976562 2.66648 0.000976562C2.42205 0.000976562 2.22207 0.200963 2.22207 0.44539C2.22207 0.689818 2.42205 0.889804 2.66648 0.889804C3.64641 0.889804 4.44414 1.68753 4.44414 2.66746C4.44414 3.64739 3.64641 4.44511 2.66648 4.44511C1.68655 4.44511 0.888827 3.64739 0.888827 2.66746C0.888827 2.42303 0.688841 2.22304 0.444414 2.22304C0.199986 2.22304 0 2.42303 0 2.66746C0 4.13847 1.19547 5.33394 2.66648 5.33394H2.6687Z" fill="black"/>
<path d="M6.81499 9.81599L15.8699 0.758836C16.0432 0.585515 16.0432 0.303312 15.8699 0.129991C15.6966 -0.0433303 15.4144 -0.0433303 15.2411 0.129991L6.18615 9.18714L5.164 8.16499C4.99734 7.99833 4.70181 7.99833 4.53515 8.16499L0.682084 12.0203C-0.22452 12.9291 -0.22452 14.4068 0.686528 15.3156C1.1265 15.7556 1.71312 16 2.3353 16H2.33752C2.9597 16 3.54189 15.7578 3.98185 15.32L7.83492 11.467C8.00824 11.2937 8.00824 11.0115 7.83492 10.8381L6.81499 9.81821V9.81599ZM3.35523 14.6912C3.08414 14.9623 2.72416 15.1112 2.33975 15.1112C1.95533 15.1112 1.59313 14.9601 1.31982 14.6868C0.757634 14.1246 0.755412 13.2091 1.31537 12.6491L4.85291 9.10937L6.89499 11.1514L3.35745 14.6912H3.35523Z" fill="black"/>
</svg>
