<svg width="16" height="16" viewBox="0 0 16 16" fill="none" xmlns="http://www.w3.org/2000/svg">
<path d="M15.5556 4.44445H10.6667V2.67778C10.6667 2.18222 10.2622 1.77778 9.76667 1.77778H6.23111C5.73556 1.77778 5.33111 2.18222 5.33111 2.67778V4.44445H0.444444C0.2 4.44445 0 4.64445 0 4.88889V13.7778C0 14.0222 0.2 14.2222 0.444444 14.2222H15.5556C15.8 14.2222 16 14.0222 16 13.7778V4.88889C16 4.64445 15.8 4.44445 15.5556 4.44445ZM6.23333 2.66667L9.77778 2.67778V4.44445H6.22444L6.23333 2.66667ZM5.77778 5.33333H15.1111V7.55556H12.4444V7.11111C12.4444 6.86667 12.2444 6.66667 12 6.66667C11.7556 6.66667 11.5556 6.86667 11.5556 7.11111V7.55556H4.44444V7.11111C4.44444 6.86667 4.24444 6.66667 4 6.66667C3.75556 6.66667 3.55556 6.86667 3.55556 7.11111V7.55556H0.888889V5.33333H5.77778ZM0.888889 13.3333V8.44445H3.55556V8.88889C3.55556 9.13333 3.75556 9.33333 4 9.33333C4.24444 9.33333 4.44444 9.13333 4.44444 8.88889V8.44445H11.5556V8.88889C11.5556 9.13333 11.7556 9.33333 12 9.33333C12.2444 9.33333 12.4444 9.13333 12.4444 8.88889V8.44445H15.1111V13.3333H0.888889Z" fill="black"/>
</svg>
