<svg width="16" height="16" viewBox="0 0 16 16" fill="none" xmlns="http://www.w3.org/2000/svg">
<path d="M13.658 2.34191C12.1471 0.831011 10.1385 1.52588e-05 8.00101 1.52588e-05C6.53011 1.52588e-05 5.33472 1.1954 5.33472 2.66631C5.33472 4.13722 6.53011 5.33261 8.00101 5.33261C8.36096 5.33261 8.7098 5.40371 9.03865 5.54147C9.35638 5.67701 9.64079 5.86809 9.8852 6.1125C10.1296 6.35691 10.3229 6.64354 10.4562 6.96127C10.594 7.29011 10.6651 7.63895 10.6651 7.9989C10.6651 8.35886 10.594 8.7077 10.4562 9.03654C10.3607 9.26317 10.4651 9.52314 10.6918 9.61868C10.7473 9.64312 10.8073 9.65423 10.8651 9.65423C11.0384 9.65423 11.2028 9.55202 11.2739 9.38316C11.4583 8.94544 11.5539 8.47884 11.5539 7.9989C11.5539 7.51897 11.4605 7.05237 11.2739 6.61465C11.0961 6.19249 10.8384 5.81032 10.5118 5.4837C10.2363 5.20818 9.91852 4.98377 9.57191 4.81268C10.234 4.32608 10.6651 3.54619 10.6651 2.66409C10.6651 2.14638 10.514 1.66201 10.2563 1.25317C11.2872 1.59757 12.2338 2.17749 13.0248 2.96849C14.3668 4.31053 15.1067 6.09695 15.1067 7.99668C15.1067 9.89642 14.3668 11.6806 13.0248 13.0249C12.8515 13.1982 12.8515 13.4804 13.0248 13.6537C13.1114 13.7403 13.2247 13.7848 13.338 13.7848C13.4514 13.7848 13.5647 13.7403 13.6513 13.6537C15.1622 12.1428 15.9932 10.1342 15.9932 7.99668C15.9932 5.8592 15.1622 3.85059 13.6513 2.33969L13.658 2.34191ZM9.77854 2.66631C9.77854 3.64618 8.98088 4.44384 8.00101 4.44384C7.02115 4.44384 6.22348 3.64618 6.22348 2.66631C6.22348 1.68645 7.02115 0.888781 8.00101 0.888781C8.98088 0.888781 9.77854 1.68645 9.77854 2.66631Z" fill="black"/>
<path d="M8.00116 10.6652C7.64121 10.6652 7.29237 10.5941 6.96353 10.4563C6.64579 10.323 6.36139 10.1297 6.11698 9.88528C5.87257 9.64087 5.67926 9.35425 5.54595 9.03651C5.40819 8.70767 5.33709 8.35883 5.33709 7.99888C5.33709 7.63893 5.40819 7.29009 5.54595 6.96125C5.64149 6.73461 5.53706 6.47465 5.31042 6.3791C5.08379 6.28356 4.82382 6.39021 4.72828 6.61463C4.54386 7.05234 4.44832 7.51895 4.44832 7.99888C4.44832 8.47881 4.54164 8.94541 4.72828 9.38313C4.90603 9.80529 5.16378 10.1875 5.4904 10.5141C5.76591 10.7896 6.08365 11.014 6.43027 11.1851C5.76814 11.6717 5.33709 12.4516 5.33709 13.3337C5.33709 13.8514 5.48818 14.3358 5.74592 14.7446C4.71495 14.4002 3.76841 13.8203 2.97741 13.0293C1.63538 11.6873 0.89548 9.90084 0.89548 8.0011C0.89548 6.10136 1.63538 4.31717 2.97741 2.97291C3.15072 2.7996 3.15072 2.51742 2.97741 2.34411C2.8041 2.1708 2.52192 2.1708 2.34861 2.34411C0.83771 3.85501 0.00671387 5.86362 0.00671387 8.0011C0.00671387 10.1386 0.83771 12.1472 2.34861 13.6581C3.85951 15.169 5.86812 16 8.0056 16C9.47651 16 10.6719 14.8046 10.6719 13.3337C10.6719 11.8628 9.47651 10.6674 8.0056 10.6674L8.00116 10.6652ZM8.00116 15.109C7.0213 15.109 6.22363 14.3113 6.22363 13.3315C6.22363 12.3516 7.0213 11.5539 8.00116 11.5539C8.98102 11.5539 9.77869 12.3516 9.77869 13.3315C9.77869 14.3113 8.98102 15.109 8.00116 15.109Z" fill="black"/>
</svg>
