<svg width="16" height="16" viewBox="0 0 16 16" fill="none" xmlns="http://www.w3.org/2000/svg">
<path d="M8.91542 0.0377725C8.88875 0.0377725 8.27995 0 7.99999 0C7.72003 0 7.11122 0.0377725 7.08456 0.0377725C7.07789 0.0377725 7.07123 0.0377725 7.06456 0.0377725C3.16955 0.444383 0.00109863 3.4173 0.00109863 6.66352C0.00109863 6.82127 0.0166521 6.97014 0.0299835 7.12568C0.0455369 7.29454 0.156633 7.43897 0.31661 7.49896C0.476588 7.55895 0.654341 7.5234 0.776546 7.40786C0.794322 7.39231 0.816541 7.36787 0.845426 7.33898C1.17871 6.99903 2.18968 5.95917 3.93166 7.45008C4.11386 7.60561 4.38716 7.59006 4.54713 7.4123C4.5538 7.40564 5.23148 6.6924 6.11358 6.67463C6.60463 6.66352 7.089 6.87682 7.55338 7.30343V14.2225C7.55338 14.7135 7.15566 15.1112 6.66462 15.1112C6.17357 15.1112 5.77585 14.7135 5.77585 14.2225C5.77585 13.9781 5.57588 13.7781 5.33147 13.7781C5.08706 13.7781 4.88709 13.9781 4.88709 14.2225C4.88709 15.2023 5.68475 16 6.66462 16C7.64448 16 8.44215 15.2023 8.44215 14.2225V7.30343C8.90431 6.88127 9.38646 6.67463 9.87528 6.67463C10.764 6.68796 11.4417 7.40564 11.4484 7.4123C11.5351 7.50785 11.655 7.55673 11.7772 7.55673C11.8794 7.55673 11.9817 7.52118 12.0661 7.45008C13.8081 5.96139 14.8213 6.99903 15.1545 7.33898C15.1834 7.36787 15.2079 7.39231 15.2234 7.40786C15.3479 7.5234 15.5256 7.55895 15.6856 7.49896C15.8433 7.43897 15.9544 7.29232 15.97 7.12346L15.9744 7.07013C15.9855 6.94126 15.9989 6.80794 15.9989 6.66352C15.9989 3.41953 12.8304 0.446605 8.91542 0.0377725ZM11.795 6.52576C11.424 6.22802 10.7463 5.79919 9.90195 5.78364C9.22648 5.76142 8.59324 6.0125 8.00221 6.50576C7.42451 6.02583 6.8046 5.78364 6.15136 5.78364C6.13358 5.78364 6.11803 5.78364 6.10025 5.78364C5.2537 5.79919 4.57602 6.22802 4.20496 6.52576C3.53172 6.02583 2.86292 5.77475 2.22079 5.77475C1.76974 5.77475 1.33425 5.89918 0.920971 6.14581C1.2387 3.55284 3.90944 1.26649 7.14677 0.924316C7.22454 0.919872 7.76224 0.888765 7.99777 0.888765C8.24662 0.888765 8.8332 0.924316 8.83987 0.924316C12.0816 1.26427 14.7568 3.55062 15.0746 6.14803C14.0725 5.54812 12.9371 5.67699 11.7906 6.52798L11.795 6.52576Z" fill="black"/>
</svg>
