<svg width="16" height="16" viewBox="0 0 16 16" fill="none" xmlns="http://www.w3.org/2000/svg">
<path d="M12.4438 6.22363H10.2219C9.97751 6.22363 9.77753 6.4236 9.77753 6.66801C9.77753 6.91242 9.97751 7.1124 10.2219 7.1124H11.9994V15.1113H4.00058V7.1124H5.7781C6.02251 7.1124 6.22248 6.91242 6.22248 6.66801C6.22248 6.4236 6.02251 6.22363 5.7781 6.22363H3.5562C3.31179 6.22363 3.11182 6.4236 3.11182 6.66801V15.5556C3.11182 15.8 3.31179 16 3.5562 16H12.4438C12.6882 16 12.8882 15.8 12.8882 15.5556V6.66801C12.8882 6.4236 12.6882 6.22363 12.4438 6.22363Z" fill="black"/>
<path d="M4.46691 4.44603C4.58023 4.44603 4.69577 4.4016 4.78242 4.31494L7.55536 1.52423V11.1118C7.55536 11.3562 7.75533 11.5561 7.99974 11.5561C8.24415 11.5561 8.44412 11.3562 8.44412 11.1118V1.51978L11.2415 4.31716C11.4148 4.49047 11.697 4.49047 11.8703 4.31716C12.0436 4.14385 12.0436 3.86167 11.8703 3.68836L8.31525 0.133314C8.29526 0.113317 8.27304 0.0933201 8.2486 0.0777667C8.24193 0.0733229 8.23527 0.071101 8.23082 0.0666572C8.21305 0.0555476 8.19305 0.0444381 8.17305 0.0355505C8.16416 0.0311067 8.15528 0.0311067 8.14639 0.0266629C8.12861 0.0199972 8.10862 0.0133315 8.09084 0.00888767C8.06196 0.00222195 8.03307 0 8.00197 0C7.87976 0 7.76867 0.0488819 7.68646 0.131092L4.15362 3.68614C3.98032 3.85945 3.98254 4.14163 4.15362 4.31494C4.24028 4.4016 4.3536 4.44381 4.46691 4.44381V4.44603Z" fill="black"/>
</svg>
