<svg width="16" height="16" viewBox="0 0 16 16" fill="none" xmlns="http://www.w3.org/2000/svg">
<path d="M15.8337 8.00998C15.5027 7.7456 15.1339 7.53676 14.7406 7.38124C15.2227 6.95467 15.5271 6.3326 15.5271 5.63943C15.5271 4.35306 14.4807 3.30664 13.1943 3.30664C11.908 3.30664 10.8615 4.35306 10.8615 5.63943C10.8615 6.3326 11.1659 6.95245 11.6458 7.37902C11.0193 7.62563 10.4572 8.02109 10.0084 8.53652C9.85956 8.45654 9.70404 8.38767 9.5463 8.32546C10.0262 7.89889 10.3328 7.27682 10.3328 6.58365C10.3328 5.29728 9.28636 4.25086 8 4.25086C6.71364 4.25086 5.66721 5.29728 5.66721 6.58365C5.66721 7.27682 5.97159 7.89667 6.4537 8.32546C6.29596 8.38767 6.14044 8.45654 5.99158 8.53652C5.5428 8.02109 4.98071 7.62785 4.35419 7.37902C4.83408 6.95245 5.13845 6.33037 5.13845 5.63943C5.13845 4.35306 4.09203 3.30664 2.80566 3.30664C1.5193 3.30664 0.472879 4.35306 0.472879 5.63943C0.472879 6.3326 0.777252 6.95467 1.25936 7.38124C0.868342 7.53454 0.497318 7.74338 0.166285 8.00998C-0.0247817 8.16328 -0.0558855 8.44321 0.0974118 8.63428C0.250709 8.82534 0.530643 8.85645 0.72171 8.70315C1.31713 8.22548 2.03918 7.97221 2.80566 7.97221C3.741 7.97221 4.62746 8.36767 5.2562 9.04751C4.35419 9.82289 3.77877 10.9693 3.77877 12.249C3.77877 12.4934 3.97872 12.6933 4.22311 12.6933C4.4675 12.6933 4.66745 12.4934 4.66745 12.249C4.66745 10.4116 6.16265 8.91643 8 8.91643C9.83735 8.91643 11.3326 10.4116 11.3326 12.249C11.3326 12.4934 11.5325 12.6933 11.7769 12.6933C12.0213 12.6933 12.2212 12.4934 12.2212 12.249C12.2212 10.9693 11.6458 9.82289 10.7438 9.04751C11.3703 8.36767 12.259 7.97221 13.1943 7.97221C13.9608 7.97221 14.6807 8.22548 15.2783 8.70315C15.4694 8.85645 15.7493 8.82534 15.9026 8.63428C16.0559 8.44321 16.0248 8.16328 15.8337 8.00998ZM1.366 5.64165C1.366 4.84628 2.01474 4.19754 2.81011 4.19754C3.60548 4.19754 4.25421 4.84628 4.25421 5.64165C4.25421 6.43702 3.60548 7.08575 2.81011 7.08575C2.01474 7.08575 1.366 6.43702 1.366 5.64165ZM6.55812 6.58587C6.55812 5.7905 7.20685 5.14176 8.00222 5.14176C8.79759 5.14176 9.44633 5.7905 9.44633 6.58587C9.44633 7.38124 8.79759 8.02998 8.00222 8.02998C7.20685 8.02998 6.55812 7.38124 6.55812 6.58587ZM11.7502 5.64165C11.7502 4.84628 12.399 4.19754 13.1943 4.19754C13.9897 4.19754 14.6384 4.84628 14.6384 5.64165C14.6384 6.43702 13.9897 7.08575 13.1943 7.08575C12.399 7.08575 11.7502 6.43702 11.7502 5.64165Z" fill="black"/>
</svg>
