<svg width="16" height="16" viewBox="0 0 16 16" fill="none" xmlns="http://www.w3.org/2000/svg">
<path d="M3.11221 0.888888C3.35665 0.888888 3.55665 0.688888 3.55665 0.444444C3.55665 0.2 3.35665 0 3.11221 0H0.445543C0.201098 0 0.00109863 0.2 0.00109863 0.444444C0.00109863 0.688888 0.201098 0.888888 0.445543 0.888888H1.33443V2.66666H0.445543C0.201098 2.66666 0.00109863 2.86666 0.00109863 3.11111V12C0.00109863 12.2444 0.201098 12.4444 0.445543 12.4444H1.33443V15.5555C1.33443 15.8 1.53443 16 1.77887 16C2.02332 16 2.22332 15.8 2.22332 15.5555V12.4444H3.11221C3.35665 12.4444 3.55665 12.2444 3.55665 12V3.11111C3.55665 2.86666 3.35665 2.66666 3.11221 2.66666H2.22332V0.888888H3.11221ZM2.66776 11.5555H0.889987V3.55555H2.66776V11.5555Z" fill="black"/>
<path d="M15.7234 5.70446L10.5234 3.58891C10.4167 3.54446 10.2967 3.54446 10.1879 3.58891L4.98786 5.70446C4.82119 5.77335 4.71008 5.93557 4.71008 6.11557C4.71008 7.53335 4.92342 9.65557 5.92786 11.7267C6.88341 13.6978 8.3123 15.1222 10.1723 15.96C10.2301 15.9867 10.2923 16 10.3545 16C10.4167 16 10.479 15.9867 10.5367 15.96C12.3967 15.1222 13.8256 13.6978 14.7812 11.7267C15.7856 9.65557 15.9967 7.53113 15.999 6.11557C15.999 5.93557 15.8901 5.77113 15.7212 5.70446H15.7234ZM10.3567 15.0645C9.05452 14.4222 5.72119 12.2133 5.60342 6.41335L10.3567 4.48002L15.1101 6.41335C14.9923 12.2133 11.6612 14.4222 10.3567 15.0645Z" fill="black"/>
<path d="M8.64756 9.17556C8.47423 9.00222 8.192 9.00222 8.01867 9.17556C7.84534 9.34889 7.84534 9.63111 8.01867 9.80445L9.652 11.4378C9.73867 11.5244 9.852 11.5689 9.96534 11.5689C10.0787 11.5689 10.192 11.5244 10.2787 11.4378L13.5476 8.16889C13.7209 7.99556 13.7209 7.71334 13.5476 7.54C13.3742 7.36667 13.092 7.36667 12.9187 7.54L9.96534 10.4933L8.64534 9.17334L8.64756 9.17556Z" fill="black"/>
</svg>
