<svg width="16" height="16" viewBox="0 0 16 16" fill="none" xmlns="http://www.w3.org/2000/svg">
<path d="M13.4191 8.12605C13.492 8.05549 13.5367 8.00611 13.5414 7.99905C13.7013 7.82031 13.7013 7.5522 13.5414 7.37346C13.4967 7.32407 12.4454 6.15756 11.1895 6.15756C10.785 6.15756 10.4087 6.31749 10.1312 6.5856C9.85369 6.31749 9.47739 6.15756 9.07288 6.15756C9.02584 6.15756 8.9788 6.16226 8.93177 6.16462C8.8471 5.79538 8.68953 5.45671 8.4614 5.14862C9.26102 4.66179 9.9995 4.14674 10.1947 3.98211C10.7874 3.47882 10.8603 2.58747 10.3593 1.99246C10.0512 1.63027 9.59734 1.46094 9.15519 1.50092C9.06817 1.06583 8.7789 0.677781 8.34381 0.482578C7.90872 0.289728 7.42659 0.334412 7.04559 0.562541C6.77748 0.207413 6.34475 -0.0113076 5.87203 0.000451543C5.49573 0.0122107 5.14531 0.169784 4.88896 0.444949C4.63261 0.720114 4.4962 1.07994 4.50796 1.45624C4.51737 1.71259 4.63026 2.60394 4.80664 3.5235C4.32687 3.56819 3.88708 3.73047 3.48726 4.01033C0.930816 5.80008 0.956686 12.016 1.19893 15.5626C1.21068 15.7366 1.31887 15.8895 1.47644 15.96C1.53759 15.9882 1.60344 16 1.66694 16C1.77042 16 1.8739 15.9647 1.95857 15.8989C2.96045 15.1087 4.35744 13.9398 5.64155 12.6228C6.31182 14.3608 8.12273 15.6778 10.1336 15.6778C12.6759 15.6778 14.9054 13.5729 14.9054 11.1764C14.9054 9.88052 14.3833 8.81749 13.4214 8.12135L13.4191 8.12605ZM9.63967 7.53809C9.66319 7.62511 9.71022 7.70507 9.77608 7.76387C9.79019 7.77798 9.80665 7.78974 9.82311 7.80385C9.9948 7.95437 10.2723 7.95437 10.444 7.80385C10.4581 7.79209 10.4816 7.77327 10.491 7.76387C10.5569 7.70272 10.6039 7.62511 10.6274 7.53809C10.6956 7.27939 10.9285 7.0983 11.1919 7.0983C11.6693 7.0983 12.1679 7.41109 12.5042 7.68626C12.356 7.80855 12.1655 7.94731 11.9539 8.05785C11.761 8.15897 11.6622 8.3824 11.7187 8.59406C11.7681 8.78456 11.7963 8.97036 11.8128 9.13028C11.38 9.08795 10.8062 8.9539 10.4699 8.61758C10.2864 8.43414 9.98774 8.43414 9.8043 8.61758C9.46563 8.95625 8.89178 9.08795 8.4614 9.13028C8.47786 8.97036 8.50373 8.78456 8.55547 8.59406C8.61192 8.3824 8.51314 8.16133 8.32029 8.05785C8.10627 7.94496 7.91812 7.80855 7.76996 7.68626C8.10627 7.41109 8.60486 7.0983 9.08228 7.0983C9.34804 7.0983 9.58087 7.27939 9.64672 7.53809H9.63967ZM5.57569 1.0917C5.66036 0.999982 5.77795 0.948242 5.9026 0.943538C6.17071 0.931779 6.38002 1.13874 6.38708 1.39509C6.38708 1.42331 6.38708 1.46565 6.38708 1.51739C6.38002 1.74787 6.53995 1.94777 6.76572 1.99246C6.9915 2.03714 7.21728 1.91014 7.29724 1.69613C7.31605 1.64909 7.33017 1.60911 7.34192 1.58559C7.44776 1.34805 7.72527 1.23987 7.96281 1.3457C8.20035 1.45153 8.30618 1.72905 8.2027 1.96659C8.19094 1.99246 8.17212 2.02774 8.15096 2.07242C8.04512 2.27703 8.10157 2.52868 8.28736 2.66508C8.47081 2.80149 8.72951 2.78738 8.89414 2.62745C8.93177 2.59218 8.96234 2.56395 8.98115 2.54749C9.17871 2.38051 9.47504 2.40403 9.64437 2.60158C9.81135 2.79914 9.78783 3.09782 9.59028 3.2648C9.4233 3.40591 8.60956 3.97035 7.77231 4.46894C7.4995 4.26668 7.182 4.08559 6.81982 3.92332C6.7328 3.88333 6.64578 3.84806 6.55876 3.81513C6.55171 3.81278 6.5423 3.81043 6.53524 3.80572C6.27419 3.70695 6.02254 3.63169 5.77795 3.58465C5.5851 2.62981 5.4581 1.64674 5.45105 1.42802C5.44634 1.30337 5.49103 1.18343 5.57805 1.0917H5.57569ZM2.08322 14.596C1.83157 9.45954 2.54418 5.82125 4.02583 4.78409C4.39978 4.52068 4.83251 4.41955 5.3311 4.46894C5.3311 4.46894 5.33346 4.46894 5.33581 4.46894C5.41577 4.476 5.49573 4.49011 5.57805 4.50657C5.58981 4.50657 5.59921 4.51128 5.61097 4.51363C5.68388 4.52774 5.75914 4.54655 5.8344 4.56772C5.86967 4.57713 5.9073 4.58889 5.94258 4.60065C6.00138 4.61946 6.06017 4.63592 6.11897 4.65944C6.22245 4.69707 6.32828 4.73705 6.43647 4.78644C6.55171 4.83818 6.65519 4.88992 6.75867 4.94636C6.80571 4.97224 6.85039 4.99811 6.89507 5.02398C6.94211 5.0522 6.98915 5.08042 7.03383 5.11099C7.08793 5.14627 7.13967 5.1792 7.18905 5.21683C7.21728 5.23799 7.2408 5.25916 7.26902 5.28033C7.31841 5.31796 7.36544 5.35558 7.41013 5.39557C7.41483 5.39792 7.41718 5.40027 7.42189 5.40497C7.74174 5.69895 7.94164 6.03291 8.02396 6.41626C7.28078 6.76198 6.75632 7.34289 6.72339 7.37816C6.56582 7.5569 6.56582 7.82501 6.72339 8.00375C6.72809 8.01081 6.77278 8.05785 6.84569 8.13075C5.88379 8.8269 5.36168 9.88993 5.36168 11.1858C5.36168 11.3057 5.37109 11.421 5.38284 11.5386C4.301 12.7027 3.0851 13.7775 2.08322 14.6007V14.596ZM10.1336 14.7418C8.25208 14.7418 6.58698 13.326 6.33769 11.6185C6.33769 11.6044 6.33299 11.5903 6.33063 11.5785C6.31417 11.4468 6.30241 11.3151 6.30241 11.1811C6.30241 10.1251 6.73515 9.30432 7.55124 8.78456C7.48068 9.25258 7.4995 9.61947 7.4995 9.64063C7.51361 9.87817 7.70411 10.0687 7.94164 10.0828C8.00044 10.0875 9.2328 10.151 10.1312 9.55126C10.8556 10.0334 11.801 10.0851 12.1679 10.0851C12.2549 10.0851 12.309 10.0828 12.3208 10.0804C12.5583 10.0663 12.7488 9.87582 12.7629 9.63828C12.7629 9.61947 12.7817 9.25258 12.7112 8.78221C13.5273 9.29962 13.96 10.1204 13.96 11.1787C13.96 13.0767 12.1702 14.7394 10.1289 14.7394L10.1336 14.7418Z" fill="black"/>
</svg>
