<svg width="16" height="16" viewBox="0 0 16 16" fill="none" xmlns="http://www.w3.org/2000/svg">
<path d="M5.77782 9.3333C6.02226 9.3333 6.22226 9.1333 6.22226 8.88886C6.22226 7.90886 7.02004 7.11108 8.00004 7.11108C8.98004 7.11108 9.77782 7.90886 9.77782 8.88886C9.77782 9.1333 9.97782 9.3333 10.2223 9.3333C10.4667 9.3333 10.6667 9.1333 10.6667 8.88886C10.6667 7.88442 10.1089 7.01108 9.28893 6.55553C9.59115 6.23553 9.77782 5.80664 9.77782 5.3333C9.77782 4.3533 8.98004 3.55553 8.00004 3.55553C7.02004 3.55553 6.22226 4.3533 6.22226 5.3333C6.22226 5.80664 6.40893 6.23553 6.71115 6.55553C5.88893 7.01108 5.33337 7.88664 5.33337 8.88886C5.33337 9.1333 5.53337 9.3333 5.77782 9.3333ZM7.11115 5.3333C7.11115 4.84219 7.50893 4.44442 8.00004 4.44442C8.49115 4.44442 8.88893 4.84219 8.88893 5.3333C8.88893 5.82442 8.49115 6.22219 8.00004 6.22219C7.50893 6.22219 7.11115 5.82442 7.11115 5.3333Z" fill="black"/>
<path d="M15.5556 1.77777H0.444444C0.2 1.77777 0 1.97777 0 2.22222V10.6667C0 10.9111 0.2 11.1111 0.444444 11.1111H7.55556V13.3333H4.88889C4.64444 13.3333 4.44444 13.5333 4.44444 13.7778C4.44444 14.0222 4.64444 14.2222 4.88889 14.2222H11.1111C11.3556 14.2222 11.5556 14.0222 11.5556 13.7778C11.5556 13.5333 11.3556 13.3333 11.1111 13.3333H8.44444V11.1111H15.5556C15.8 11.1111 16 10.9111 16 10.6667V2.22222C16 1.97777 15.8 1.77777 15.5556 1.77777ZM15.1111 10.2222H0.888889V2.66666H15.1111V10.2222Z" fill="black"/>
</svg>
