<svg width="16" height="16" viewBox="0 0 16 16" fill="none" xmlns="http://www.w3.org/2000/svg">
<path d="M5.33312 7.77779H6.66645V9.11112C6.66645 9.35557 6.86645 9.55557 7.11089 9.55557H8.88867C9.13312 9.55557 9.33312 9.35557 9.33312 9.11112V7.77779H10.6664C10.9109 7.77779 11.1109 7.57779 11.1109 7.33334V5.55557C11.1109 5.31112 10.9109 5.11112 10.6664 5.11112H9.33312V3.77779C9.33312 3.53334 9.13312 3.33334 8.88867 3.33334H7.11089C6.86645 3.33334 6.66645 3.53334 6.66645 3.77779V5.11112H5.33312C5.08867 5.11112 4.88867 5.31112 4.88867 5.55557V7.33334C4.88867 7.57779 5.08867 7.77779 5.33312 7.77779ZM5.77756 6.00001H7.11089C7.35534 6.00001 7.55534 5.80001 7.55534 5.55557V4.22223H8.44423V5.55557C8.44423 5.80001 8.64423 6.00001 8.88867 6.00001H10.222V6.8889H8.88867C8.64423 6.8889 8.44423 7.0889 8.44423 7.33334V8.66668H7.55534V7.33334C7.55534 7.0889 7.35534 6.8889 7.11089 6.8889H5.77756V6.00001Z" fill="black"/>
<path d="M15.5556 1.77776H0.444444C0.2 1.77776 0 1.97776 0 2.2222V10.6666C0 10.9111 0.2 11.1111 0.444444 11.1111H7.55556V13.3333H4.88889C4.64444 13.3333 4.44444 13.5333 4.44444 13.7778C4.44444 14.0222 4.64444 14.2222 4.88889 14.2222H11.1111C11.3556 14.2222 11.5556 14.0222 11.5556 13.7778C11.5556 13.5333 11.3556 13.3333 11.1111 13.3333H8.44444V11.1111H15.5556C15.8 11.1111 16 10.9111 16 10.6666V2.2222C16 1.97776 15.8 1.77776 15.5556 1.77776ZM15.1111 10.2222H0.888889V2.66664H15.1111V10.2222Z" fill="black"/>
</svg>
