<svg width="16" height="16" viewBox="0 0 16 16" fill="none" xmlns="http://www.w3.org/2000/svg">
<path d="M14.677 15.104H1.323C0.844643 15.104 0.418878 14.8561 0.178446 14.4428C-0.0594819 14.0296 -0.0594819 13.5362 0.178446 13.123L6.85544 1.55718C7.09337 1.14394 7.52164 0.895996 8 0.895996C8.47836 0.895996 8.90412 1.14394 9.14456 1.55718L15.8216 13.123C16.0595 13.5362 16.0595 14.0296 15.8216 14.4428C15.5836 14.8561 15.1554 15.104 14.677 15.104ZM8 1.9003C7.9449 1.9003 7.80715 1.91533 7.7245 2.06059L1.04751 13.6239C0.964859 13.7666 1.01996 13.8944 1.04751 13.9419C1.07506 13.9895 1.15771 14.1022 1.323 14.1022H14.677C14.8423 14.1022 14.9249 13.9895 14.9525 13.9419C14.98 13.8944 15.0351 13.7666 14.9525 13.6239L8.27549 2.05808C8.19285 1.91533 8.0551 1.8978 8 1.8978V1.9003Z" fill="black"/>
<path d="M8.00005 10.596C7.72455 10.596 7.49915 10.3706 7.49915 10.0951V5.58696C7.49915 5.31146 7.72455 5.08606 8.00005 5.08606C8.27554 5.08606 8.50095 5.31146 8.50095 5.58696V10.0951C8.50095 10.3706 8.27554 10.596 8.00005 10.596Z" fill="black"/>
<path d="M8.00005 12.5995C7.86731 12.5995 7.73958 12.547 7.64691 12.4543C7.55174 12.3616 7.49915 12.2314 7.49915 12.0986C7.49915 12.0661 7.49915 12.0335 7.50916 12.001C7.51417 11.9709 7.52419 11.9384 7.53671 11.9083C7.54924 11.8783 7.56677 11.8482 7.5843 11.8206C7.60183 11.7931 7.62187 11.7681 7.64691 11.7455C7.76212 11.6303 7.93493 11.5752 8.09772 11.6078C8.13028 11.6153 8.16033 11.6253 8.19039 11.6378C8.22295 11.6503 8.2505 11.6654 8.27805 11.6829C8.30559 11.7004 8.33064 11.723 8.35318 11.7455C8.37823 11.7681 8.39826 11.7931 8.41579 11.8206C8.43332 11.8482 8.45086 11.8783 8.46338 11.9083C8.4759 11.9384 8.48341 11.9709 8.49093 12.001C8.49844 12.0335 8.50095 12.0661 8.50095 12.0986C8.50095 12.2314 8.44835 12.3616 8.35318 12.4543C8.33064 12.4768 8.30559 12.4969 8.27805 12.5169C8.2505 12.5344 8.22295 12.5495 8.19039 12.562C8.16033 12.5745 8.13028 12.5845 8.09772 12.5895C8.06516 12.597 8.0326 12.5995 8.00005 12.5995Z" fill="black"/>
</svg>
