<svg width="16" height="16" viewBox="0 0 16 16" fill="none" xmlns="http://www.w3.org/2000/svg">
<path d="M14.672 6.67206H14.2205V5.77563C14.2205 5.04381 13.6244 4.44768 12.8925 4.44768C12.7168 4.44768 12.55 4.48327 12.3965 4.54555C12.2452 3.97833 11.7292 3.55792 11.113 3.55792C10.3812 3.55792 9.78507 4.15406 9.78507 4.88588V6.67206H6.21493V4.88588C6.21493 4.15406 5.6188 3.55792 4.88697 3.55792C4.27304 3.55792 3.75476 3.97833 3.6035 4.54555C3.45002 4.48327 3.28319 4.44768 3.10747 4.44768C2.37564 4.44768 1.77951 5.04381 1.77951 5.77563V6.67206H1.32796C0.596135 6.67206 0 7.2682 0 8.00002C0 8.73184 0.596135 9.32798 1.32796 9.32798H1.77951V10.2244C1.77951 10.9562 2.37564 11.5524 3.10747 11.5524C3.28319 11.5524 3.45002 11.5168 3.6035 11.4545C3.75476 12.0217 4.27082 12.4421 4.88697 12.4421C5.6188 12.4421 6.21493 11.846 6.21493 11.1142V9.32798H9.78507V11.1142C9.78507 11.846 10.3812 12.4421 11.113 12.4421C11.727 12.4421 12.2452 12.0217 12.3965 11.4545C12.55 11.5168 12.7168 11.5524 12.8925 11.5524C13.6244 11.5524 14.2205 10.9562 14.2205 10.2244V9.32798H14.672C15.4039 9.32798 16 8.73184 16 8.00002C16 7.2682 15.4039 6.67206 14.672 6.67206ZM1.32573 8.45157C1.0766 8.45157 0.874183 8.24915 0.874183 8.00002C0.874183 7.75089 1.0766 7.54847 1.32573 7.54847H1.77728V8.44934H1.32573V8.45157ZM3.10524 10.676C2.85611 10.676 2.65369 10.4735 2.65369 10.2244V5.77563C2.65369 5.5265 2.85611 5.32408 3.10524 5.32408C3.35437 5.32408 3.55679 5.5265 3.55679 5.77563V10.2244C3.55679 10.4735 3.35437 10.676 3.10524 10.676ZM5.3363 11.1142C5.3363 11.3633 5.13388 11.5657 4.88475 11.5657C4.63562 11.5657 4.4332 11.3633 4.4332 11.1142V4.88588C4.4332 4.63675 4.63562 4.43433 4.88475 4.43433C5.13388 4.43433 5.3363 4.63675 5.3363 4.88588V11.1142ZM6.21493 8.45157V7.55069H9.78507V8.45157H6.21493ZM11.5646 11.1142C11.5646 11.3633 11.3622 11.5657 11.113 11.5657C10.8639 11.5657 10.6615 11.3633 10.6615 11.1142V4.88588C10.6615 4.63675 10.8639 4.43433 11.113 4.43433C11.3622 4.43433 11.5646 4.63675 11.5646 4.88588V11.1142ZM13.3441 10.2244C13.3441 10.4735 13.1417 10.676 12.8925 10.676C12.6434 10.676 12.441 10.4735 12.441 10.2244V5.77563C12.441 5.5265 12.6434 5.32408 12.8925 5.32408C13.1417 5.32408 13.3441 5.5265 13.3441 5.77563V10.2244ZM14.672 8.45157H14.2205V7.55069H14.672C14.9212 7.55069 15.1236 7.75311 15.1236 8.00224C15.1236 8.25137 14.9212 8.45379 14.672 8.45379V8.45157Z" fill="black"/>
</svg>
