<svg width="16" height="16" viewBox="0 0 16 16" fill="none" xmlns="http://www.w3.org/2000/svg">
<path d="M15.729 9.17813C15.2735 8.53591 14.3979 8.3648 13.7357 8.78924L11.2579 10.3737C11.149 10.4426 11.0579 10.5026 10.9735 10.5515H10.5824C10.4357 9.94701 9.88904 9.4959 9.24015 9.4959H6.58015C5.83793 9.4959 4.59571 9.52479 3.92016 9.54257C3.56238 9.55146 3.20905 9.60702 2.86683 9.70702L0.320166 10.4537C0.0846108 10.5226 -0.0509446 10.7692 0.0179442 11.0048C0.0868329 11.2403 0.333499 11.3759 0.569054 11.307L3.11349 10.5603C3.38238 10.4826 3.66016 10.4381 3.93794 10.4315C4.60905 10.4137 5.8446 10.387 6.57571 10.387H9.2357C9.50904 10.387 9.72904 10.6092 9.72904 10.8803C9.72904 11.1515 9.50681 11.3737 9.2357 11.3737H7.10682C6.86237 11.3737 6.66238 11.5737 6.66238 11.8181C6.66238 12.0626 6.86237 12.2626 7.10682 12.2626H9.2357C9.79792 12.2626 10.2824 11.9248 10.4979 11.4426H11.0824C11.1535 11.4426 11.2224 11.4248 11.2846 11.3937C11.4313 11.3181 11.5713 11.2292 11.7335 11.1248L14.2112 9.54035C14.4735 9.37368 14.8201 9.44035 15.0001 9.69368C15.0935 9.82701 15.129 9.98702 15.0957 10.1448C15.0624 10.3048 14.969 10.4381 14.8312 10.5248C14.8246 10.5292 14.8157 10.5337 14.809 10.5403L12.7468 11.9959C11.6179 12.7937 10.3046 13.6426 9.00681 13.6426H5.52016C4.70238 13.6426 3.96683 13.4848 3.13572 13.1337L2.47349 12.7115C2.37794 12.6515 2.26238 12.6292 2.14905 12.6492L0.793498 12.9159C0.553499 12.9626 0.395721 13.1959 0.442388 13.4381C0.489054 13.6781 0.722387 13.8359 0.964609 13.7892L2.14683 13.5581L2.69127 13.9048C2.71127 13.9181 2.73349 13.9292 2.75572 13.9381C3.71571 14.3492 4.56905 14.5314 5.5246 14.5314H9.01126C10.569 14.5314 12.0246 13.5959 13.2646 12.7203L15.3179 11.2715C15.6557 11.0581 15.8935 10.7115 15.9712 10.3203C16.0512 9.92479 15.9624 9.50702 15.729 9.17813Z" fill="black"/>
<path d="M7.68902 8.10036C7.77346 8.1848 7.88457 8.23147 8.00235 8.23147C8.12013 8.23147 8.23346 8.1848 8.31568 8.10036L10.9735 5.44036C11.8823 4.53147 11.8868 3.05592 10.9846 2.1537C10.9646 2.1337 10.9423 2.11592 10.9201 2.10037C10.1112 1.34037 8.88679 1.27148 8.00013 1.88926C7.85568 1.78926 7.66679 1.68037 7.44013 1.60259C6.58457 1.30481 5.68458 1.50926 5.0268 2.1537C4.12014 3.06037 4.12014 4.5337 5.0268 5.44036L7.68679 8.10036H7.68902ZM5.65347 2.78481C5.99569 2.44926 6.36902 2.36259 6.66235 2.36259C6.88457 2.36259 7.06235 2.4137 7.14902 2.44259C7.46235 2.55148 7.66902 2.76259 7.67568 2.77148C7.75791 2.86037 7.87124 2.90926 7.99124 2.9137C8.11568 2.91815 8.22902 2.86926 8.31568 2.78259C8.87568 2.22259 9.78679 2.22259 10.3468 2.78259C10.3623 2.79815 10.3823 2.8137 10.4001 2.82703C10.9135 3.38703 10.8935 4.26481 10.3468 4.8137L8.00235 7.16036L5.65569 4.8137C5.09569 4.2537 5.09569 3.34259 5.65124 2.78703L5.65347 2.78481Z" fill="black"/>
</svg>
