<svg width="16" height="16" viewBox="0 0 16 16" fill="none" xmlns="http://www.w3.org/2000/svg">
<path d="M11.11 4.22221C12.2744 4.22221 13.2211 3.27555 13.2211 2.11111C13.2211 0.946665 12.2744 0 11.11 0C9.94557 0 8.9989 0.946665 8.9989 2.11111C8.9989 3.27555 9.94557 4.22221 11.11 4.22221ZM11.11 0.888887C11.7833 0.888887 12.3322 1.43777 12.3322 2.11111C12.3322 2.78444 11.7833 3.33333 11.11 3.33333C10.4367 3.33333 9.88779 2.78444 9.88779 2.11111C9.88779 1.43777 10.4367 0.888887 11.11 0.888887Z" fill="black"/>
<path d="M13.7767 14.6667H12.1367L13.3167 10.34C13.3523 10.2067 13.3256 10.0622 13.2412 9.95336C13.1567 9.84225 13.0256 9.7778 12.8878 9.7778H11.3678C10.9612 8.34892 9.92338 7.18448 8.5745 6.61114L9.27005 4.85559C9.36116 4.6267 9.24783 4.36893 9.02116 4.27782L5.50784 2.88671C5.27895 2.7956 5.02117 2.90893 4.93006 3.1356L3.93673 5.64226C3.84562 5.87115 3.95895 6.12892 4.18562 6.22003C4.41451 6.31115 4.67228 6.19781 4.76339 5.97115L5.59228 3.87782L8.27894 4.94226L7.72561 6.34003C7.38339 6.26448 7.03006 6.22226 6.66561 6.22226C3.97006 6.22226 1.77673 8.41559 1.77673 11.1111C1.77673 13.8067 3.97006 16 6.66561 16C9.36116 16 11.5545 13.8067 11.5545 11.1111C11.5545 10.9622 11.5456 10.8134 11.5345 10.6667H12.3078L11.1278 14.9933C11.0923 15.1267 11.1189 15.2711 11.2034 15.38C11.2878 15.4911 11.4189 15.5556 11.5567 15.5556H13.7789C14.0234 15.5556 14.2234 15.3556 14.2234 15.1111C14.2234 14.8667 14.0234 14.6667 13.7789 14.6667H13.7767ZM10.4323 9.7778H7.31894L8.24561 7.43781C9.26338 7.87781 10.0589 8.7267 10.4323 9.7778ZM10.6656 11.1111C10.6656 13.3156 8.87005 15.1111 6.66561 15.1111C4.46117 15.1111 2.66562 13.3156 2.66562 11.1111C2.66562 8.9067 4.46117 7.11114 6.66561 7.11114C6.9145 7.11114 7.15672 7.13781 7.39228 7.18003L6.25228 10.0578C6.19895 10.1956 6.2145 10.3489 6.29895 10.4711C6.38339 10.5934 6.51895 10.6667 6.66561 10.6667H10.6389C10.6545 10.8134 10.6656 10.96 10.6656 11.1111Z" fill="black"/>
</svg>
