<svg width="16" height="16" viewBox="0 0 16 16" fill="none" xmlns="http://www.w3.org/2000/svg">
<path d="M5.33263 7.11105C3.61696 7.11105 2.22131 8.5067 2.22131 10.2224C2.22131 11.938 3.61696 13.3337 5.33263 13.3337C7.0483 13.3337 8.44395 11.938 8.44395 10.2224C8.44395 8.5067 7.0483 7.11105 5.33263 7.11105ZM5.33263 12.4447C4.1081 12.4447 3.11026 11.4469 3.11026 10.2224C3.11026 8.99784 4.1081 8 5.33263 8C6.55716 8 7.555 8.99784 7.555 10.2224C7.555 11.4469 6.55716 12.4447 5.33263 12.4447Z" fill="black"/>
<path d="M15.5555 4.88869H11.1108C10.8663 4.88869 10.6663 5.0887 10.6663 5.33316V5.77763C10.6663 6.0221 10.4663 6.22211 10.2218 6.22211C9.97738 6.22211 9.77737 6.0221 9.77737 5.77763V5.33316C9.77737 5.0887 9.57735 4.88869 9.33289 4.88869H5.45041C2.548 4.88869 0.103393 7.19328 0.00338648 10.029C-0.047728 11.4913 0.481196 12.8759 1.4946 13.9271C2.508 14.9782 3.87253 15.5561 5.33263 15.5561C8.27282 15.5561 10.6663 13.1626 10.6663 10.2224C10.6663 10.1357 10.6663 10.0513 10.6596 9.96458L15.6489 8.88006C15.8533 8.83561 16 8.6556 16 8.4467V5.33538C16 5.09092 15.8 4.89091 15.5555 4.89091V4.88869ZM15.1111 8.08668L10.0885 9.17786C9.86404 9.22675 9.71292 9.43788 9.74181 9.66678C9.76625 9.86013 9.77737 10.0424 9.77737 10.2224C9.77737 12.6736 7.7839 14.6671 5.33263 14.6671C4.11477 14.6671 2.97914 14.1849 2.13464 13.3092C1.29014 12.4336 0.847887 11.2802 0.892334 10.0601C0.976784 7.69998 3.02136 5.77763 5.45041 5.77763H8.88842C8.88842 6.51324 9.48624 7.11106 10.2218 7.11106C10.9574 7.11106 11.5553 6.51324 11.5553 5.77763H15.1111V8.08668Z" fill="black"/>
<path d="M10.2218 3.11078C10.4663 3.11078 10.6663 2.91077 10.6663 2.66631V0.888413C10.6663 0.643952 10.4663 0.443939 10.2218 0.443939C9.97736 0.443939 9.77734 0.643952 9.77734 0.888413V2.66631C9.77734 2.91077 9.97736 3.11078 10.2218 3.11078Z" fill="black"/>
<path d="M8.02168 3.7619C8.10836 3.84857 8.2217 3.89302 8.33504 3.89302C8.44838 3.89302 8.56172 3.84857 8.64839 3.7619C8.82174 3.58856 8.82174 3.30632 8.64839 3.13297L7.39053 1.87511C7.21719 1.70177 6.93495 1.70177 6.7616 1.87511C6.58826 2.04846 6.58826 2.3307 6.7616 2.50404L8.01946 3.7619H8.02168Z" fill="black"/>
<path d="M12.1087 3.89302C12.222 3.89302 12.3354 3.84857 12.422 3.7619L13.6799 2.50404C13.8532 2.3307 13.8532 2.04846 13.6799 1.87511C13.5065 1.70177 13.2243 1.70177 13.051 1.87511L11.7931 3.13297C11.6197 3.30632 11.6197 3.58856 11.7931 3.7619C11.8798 3.84857 11.9931 3.89302 12.1064 3.89302H12.1087Z" fill="black"/>
</svg>
