<svg width="16" height="16" viewBox="0 0 16 16" fill="none" xmlns="http://www.w3.org/2000/svg">
<path d="M8.00005 16C7.75564 16 7.55566 15.8 7.55566 15.5556V11.5562C7.55566 11.3118 7.75564 11.1118 8.00005 11.1118C8.24446 11.1118 8.44443 11.3118 8.44443 11.5562V15.5556C8.44443 15.8 8.24446 16 8.00005 16Z" fill="black"/>
<path d="M7.99982 9.77869C7.01996 9.77869 6.22229 8.98102 6.22229 8.00116C6.22229 7.0213 7.01996 6.22363 7.99982 6.22363C8.97968 6.22363 9.77735 7.0213 9.77735 8.00116C9.77735 8.98102 8.97968 9.77869 7.99982 9.77869ZM7.99982 7.1124C7.50878 7.1124 7.11105 7.51012 7.11105 8.00116C7.11105 8.4922 7.50878 8.88993 7.99982 8.88993C8.49086 8.88993 8.88858 8.4922 8.88858 8.00116C8.88858 7.51012 8.49086 7.1124 7.99982 7.1124Z" fill="black"/>
<path d="M11.1418 11.5873C11.0285 11.5873 10.9152 11.5429 10.8285 11.4562C10.6552 11.2829 10.6552 11.0007 10.8285 10.8274C11.584 10.072 11.9995 9.06768 11.9995 7.99894C11.9995 6.9302 11.584 5.92589 10.8285 5.17044C10.0731 4.415 9.06876 3.9995 8.00002 3.9995C6.93128 3.9995 5.92698 4.415 5.17153 5.17044C4.41608 5.92589 4.00058 6.9302 4.00058 7.99894C4.00058 9.06768 4.41608 10.072 5.17153 10.8274C5.34484 11.0007 5.34484 11.2829 5.17153 11.4562C4.99822 11.6295 4.71604 11.6295 4.54273 11.4562C3.61841 10.5341 3.11182 9.30542 3.11182 7.99894C3.11182 6.69245 3.62063 5.46596 4.54273 4.54164C5.46482 3.61955 6.69354 3.11073 8.00002 3.11073C9.30651 3.11073 10.533 3.61955 11.4573 4.54164C12.3794 5.46374 12.8882 6.69245 12.8882 7.99894C12.8882 9.30542 12.3794 10.5319 11.4573 11.4562C11.3707 11.5429 11.2573 11.5873 11.144 11.5873H11.1418Z" fill="black"/>
<path d="M13.3415 13.787C13.2281 13.787 13.1148 13.7425 13.0282 13.6559C12.8549 13.4826 12.8549 13.2004 13.0282 13.0271C14.3702 11.685 15.1101 9.89862 15.1101 7.99888C15.1101 6.09915 14.3702 4.31495 13.0282 2.9707C11.6861 1.62866 9.89971 0.888765 7.99998 0.888765C6.10025 0.888765 4.31605 1.62866 2.97179 2.9707C1.62976 4.31273 0.889863 6.09915 0.889863 7.99888C0.889863 9.89862 1.62976 11.6828 2.97179 13.0271C3.1451 13.2004 3.1451 13.4826 2.97179 13.6559C2.79849 13.8292 2.5163 13.8292 2.34299 13.6559C0.832093 12.145 0.00109863 10.1364 0.00109863 7.99888C0.00109863 5.8614 0.832093 3.85279 2.34299 2.34189C3.85389 0.830995 5.8625 0 7.99998 0C10.1375 0 12.1461 0.830995 13.657 2.34189C15.1679 3.85279 15.9989 5.8614 15.9989 7.99888C15.9989 10.1364 15.1679 12.145 13.657 13.6559C13.5703 13.7425 13.457 13.787 13.3437 13.787H13.3415Z" fill="black"/>
</svg>
