<svg width="16" height="16" viewBox="0 0 16 16" fill="none" xmlns="http://www.w3.org/2000/svg">
<path d="M10.1931 8.3064C11.1597 7.75533 11.8997 6.85763 12.2396 5.77772H12.4441C12.6885 5.77772 12.8885 5.57774 12.8885 5.33331C12.8885 5.08889 12.6885 4.88891 12.4441 4.88891H12.4219C12.4374 4.74225 12.4441 4.5956 12.4441 4.4445C12.4441 1.99359 10.4509 0.000427246 8 0.000427246C5.5491 0.000427246 3.55593 1.99359 3.55593 4.4445C3.55593 4.5556 3.56482 4.66448 3.57371 4.77558C3.56482 4.81336 3.55593 4.85113 3.55593 4.88891V6.66653C3.55593 7.1576 3.15818 7.55535 2.66711 7.55535C2.17604 7.55535 1.7783 7.1576 1.7783 6.66653C1.7783 6.42211 1.57832 6.22213 1.33389 6.22213C1.08947 6.22213 0.889486 6.42211 0.889486 6.66653C0.889486 7.64645 1.6872 8.44416 2.66711 8.44416C3.51815 8.44416 4.22921 7.84421 4.40252 7.04428C4.77583 7.55757 5.25356 7.99087 5.80685 8.3064C2.60712 9.21521 0.200655 12.0639 0.000671974 15.5302C-0.0126602 15.7747 0.173991 15.9858 0.418415 15.9991C0.662839 16.0102 0.873932 15.8258 0.887264 15.5813C1.04947 12.7794 2.83155 10.4329 5.29356 9.42186L7.63781 12.7016C7.72225 12.8194 7.85557 12.8882 8 12.8882C8.14443 12.8882 8.27775 12.8194 8.36219 12.7016L10.7064 9.42186C13.1685 10.4329 14.9505 12.7794 15.1127 15.5813C15.1261 15.8169 15.3216 15.9991 15.5549 15.9991C15.5638 15.9991 15.5727 15.9991 15.5816 15.9991C15.826 15.9858 16.0127 15.7747 15.9993 15.5302C15.7971 12.0639 13.3929 9.21521 10.1931 8.3064ZM4.44697 4.4445C4.44697 2.48466 6.04239 0.889242 8.00222 0.889242C9.96206 0.889242 11.5575 2.48466 11.5575 4.4445C11.5575 6.40433 9.96206 7.99976 8.00222 7.99976C6.04239 7.99976 4.44697 6.40433 4.44697 4.4445ZM8.00222 11.6794L6.17793 9.12633C6.7601 8.97301 7.37116 8.88857 8.00222 8.88857C8.63328 8.88857 9.24212 8.97301 9.82651 9.12633L8.00222 11.6794Z" fill="black"/>
<path d="M10.6688 4.4467C10.6688 4.32893 10.6222 4.21339 10.54 4.13117C10.4355 4.02896 10.2822 3.98007 10.1378 4.00896C10.1089 4.01562 10.0822 4.02451 10.0556 4.03562C10.0267 4.04673 10.0022 4.06007 9.97779 4.07562C9.95335 4.0934 9.93113 4.11117 9.91113 4.13117C9.82669 4.21339 9.78003 4.32893 9.78003 4.4467C9.78003 4.56447 9.82669 4.67557 9.91113 4.76001C9.99334 4.84444 10.1067 4.89111 10.2244 4.89111C10.3422 4.89111 10.4555 4.84444 10.54 4.76001C10.6222 4.67557 10.6688 4.56447 10.6688 4.4467Z" fill="black"/>
</svg>
