<svg width="16" height="16" viewBox="0 0 16 16" fill="none" xmlns="http://www.w3.org/2000/svg">
<path d="M3.55555 13.11C3.49777 13.11 3.43999 13.0989 3.38444 13.0767C3.21777 13.0078 3.1111 12.8456 3.1111 12.6656V11.75C1.36 11.53 0 10.0322 0 8.22112C0 6.26112 1.59555 4.66557 3.55555 4.66557H6.94887C8.90887 4.66557 10.5044 6.26112 10.5044 8.22112C10.5044 10.1811 8.90887 11.7767 6.94887 11.7767H5.07332L3.8711 12.9789C3.78666 13.0633 3.67332 13.11 3.55777 13.11H3.55555ZM3.55555 5.55446C2.08444 5.55446 0.888887 6.75001 0.888887 8.22112C0.888887 9.69223 2.08444 10.8878 3.55555 10.8878C3.79999 10.8878 3.99999 11.0878 3.99999 11.3322V11.5922L4.57554 11.0167C4.65999 10.9322 4.7711 10.8856 4.88888 10.8856H6.94887C8.41998 10.8856 9.61553 9.69001 9.61553 8.2189C9.61553 6.74779 8.41998 5.55224 6.94887 5.55224H3.55555V5.55446Z" fill="black"/>
<path d="M12.4444 11.3322C12.3289 11.3322 12.2155 11.2878 12.1311 11.2011L10.9289 9.99887H9.79777C9.55332 9.99887 9.35332 9.79887 9.35332 9.55443C9.35332 9.30998 9.55332 9.10998 9.79777 9.10998H11.1133C11.2311 9.10998 11.3444 9.15665 11.4267 9.2411L12.0022 9.81665V9.55665C12.0022 9.31221 12.2022 9.11221 12.4466 9.11221C13.9178 9.11221 15.1133 7.91665 15.1133 6.44555C15.1133 4.97444 13.9178 3.77889 12.4466 3.77889H9.05332C8.02888 3.77889 7.08222 4.37666 6.64222 5.30333C6.53555 5.52555 6.27111 5.61888 6.04889 5.51444C5.82666 5.40999 5.73333 5.14333 5.83778 4.92111C6.42444 3.68778 7.68444 2.89 9.0511 2.89H12.4444C14.4044 2.89 16 4.48555 16 6.44555C16 8.25665 14.64 9.75443 12.8889 9.97443V10.89C12.8889 11.07 12.78 11.2322 12.6155 11.3011C12.56 11.3233 12.5022 11.3344 12.4444 11.3344V11.3322Z" fill="black"/>
</svg>
