<svg width="17" height="16" viewBox="0 0 17 16" fill="none" xmlns="http://www.w3.org/2000/svg">
<path d="M14.4951 12.6702C15.4421 11.3543 16.0044 9.74271 16.0044 8.00222C16.0044 6.26174 15.4443 4.65018 14.4951 3.33426C14.4774 3.30314 14.4573 3.27424 14.4351 3.24979C12.9769 1.28036 10.6363 0 8.00222 0C5.36816 0 3.02751 1.28036 1.56932 3.24979C1.5471 3.27424 1.52709 3.30314 1.50931 3.33204C0.560156 4.64796 0 6.25952 0 8C0 9.74048 0.560156 11.3543 1.50931 12.668C1.52709 12.6969 1.54487 12.7258 1.56932 12.7502C3.02751 14.7196 5.36816 16 8.00222 16C10.6363 16 12.9769 14.7196 14.4351 12.7502C14.4596 12.7258 14.4774 12.6969 14.4951 12.6657V12.6702ZM0.904696 8.44679H3.11198C3.15421 9.74937 3.37872 10.9586 3.74548 12.0122H2.1317C1.42706 10.9853 0.986941 9.76493 0.906918 8.44679H0.904696ZM2.12948 3.99222H3.74326C3.37649 5.04585 3.15199 6.25507 3.10975 7.55765H0.902473C0.984718 6.24173 1.42484 5.02139 2.12726 3.99222H2.12948ZM15.0997 7.55765H12.8925C12.8502 6.25507 12.6257 5.04585 12.259 3.99222H13.8727C14.5774 5.01917 15.0175 6.23951 15.0975 7.55765H15.0997ZM12.0011 7.55765H8.44679V3.99222H11.2898C11.6966 5.02584 11.9544 6.25063 12.0011 7.55765ZM8.44679 3.10308V0.935815C9.38705 1.1292 10.2406 1.92942 10.8786 3.10308H8.44679ZM7.55765 0.935815V3.10308H5.12587C5.7616 1.92942 6.61517 1.1292 7.55765 0.935815ZM7.55765 3.99222V7.55765H4.00333C4.05224 6.25063 4.30786 5.02806 4.71464 3.99222H7.55765ZM4.00333 8.44679H7.55765V12.0122H4.71464C4.30786 10.9786 4.05001 9.75382 4.00333 8.44679ZM7.55765 12.9014V15.0686C6.61739 14.8752 5.76382 14.075 5.12587 12.9014H7.55765ZM8.44679 15.0686V12.9014H10.8786C10.2428 14.075 9.38927 14.8752 8.44679 15.0686ZM8.44679 12.0122V8.44679H12.0011C11.9522 9.75382 11.6966 10.9764 11.2898 12.0122H8.44679ZM12.8925 8.44679H15.0997C15.0175 9.76271 14.5774 10.9831 13.875 12.0122H12.2612C12.628 10.9586 12.8525 9.74937 12.8947 8.44679H12.8925ZM13.1525 3.10308H11.9011C11.6166 2.49403 11.2787 1.9561 10.8964 1.50486C11.7499 1.88719 12.5168 2.43179 13.1525 3.10308ZM5.10809 1.50486C4.72576 1.95388 4.38788 2.4918 4.10336 3.10308H2.8519C3.48986 2.43401 4.25451 1.88719 5.10809 1.50486ZM2.8519 12.8991H4.10336C4.38788 13.5082 4.72576 14.0461 5.10809 14.4974C4.25451 14.115 3.48764 13.5704 2.8519 12.8991ZM10.8964 14.4974C11.2787 14.0483 11.6166 13.5104 11.9011 12.8991H13.1525C12.5146 13.5682 11.7499 14.115 10.8964 14.4974Z" fill="black"/>
</svg>
