<svg width="16" height="16" viewBox="0 0 16 16" fill="none" xmlns="http://www.w3.org/2000/svg">
<path d="M5.49545 8.44437C4.91545 8.44437 4.44434 8.91548 4.44434 9.49548C4.44434 9.73993 4.64434 9.93993 4.88878 9.93993C5.13322 9.93993 5.33322 9.73993 5.33322 9.49548C5.33322 9.40659 5.40656 9.33326 5.49545 9.33326H10.5066C10.5954 9.33326 10.6688 9.40659 10.6688 9.49548C10.6688 9.73993 10.8688 9.93993 11.1132 9.93993C11.3577 9.93993 11.5577 9.73993 11.5577 9.49548C11.5577 8.91548 11.0866 8.44437 10.5066 8.44437H8.44656V7.11104H10.5066C10.5954 7.11104 10.6688 7.18437 10.6688 7.27326C10.6688 7.5177 10.8688 7.7177 11.1132 7.7177C11.3577 7.7177 11.5577 7.5177 11.5577 7.27326C11.5577 6.69326 11.0866 6.22215 10.5066 6.22215H8.44656V4.88881H10.5066C10.5954 4.88881 10.6688 4.96215 10.6688 5.05104C10.6688 5.29548 10.8688 5.49548 11.1132 5.49548C11.3577 5.49548 11.5577 5.29548 11.5577 5.05104C11.5577 4.47104 11.0866 3.99993 10.5066 3.99993H8.44656C8.44656 3.75548 8.24656 3.55548 8.00211 3.55548C7.75767 3.55548 7.55767 3.75548 7.55767 3.99993H5.49767C4.91767 3.99993 4.44656 4.47104 4.44656 5.05104C4.44656 5.29548 4.64656 5.49548 4.891 5.49548C5.13545 5.49548 5.33545 5.29548 5.33545 5.05104C5.33545 4.96215 5.40878 4.88881 5.49767 4.88881H7.55767V6.22215H5.49767C4.91767 6.22215 4.44656 6.69326 4.44656 7.27326C4.44656 7.5177 4.64656 7.7177 4.891 7.7177C5.13545 7.7177 5.33545 7.5177 5.33545 7.27326C5.33545 7.18437 5.40878 7.11104 5.49767 7.11104H7.55767V8.44437H5.49767H5.49545Z" fill="black"/>
<path d="M15.5556 1.77777H0.444444C0.2 1.77777 0 1.97777 0 2.22222V11.1111C0 11.3555 0.2 11.5555 0.444444 11.5555H7.55556V13.3333H4.88889C4.64444 13.3333 4.44444 13.5333 4.44444 13.7778C4.44444 14.0222 4.64444 14.2222 4.88889 14.2222H11.1111C11.3556 14.2222 11.5556 14.0222 11.5556 13.7778C11.5556 13.5333 11.3556 13.3333 11.1111 13.3333H8.44444V11.5555H15.5556C15.8 11.5555 16 11.3555 16 11.1111V2.22222C16 1.97777 15.8 1.77777 15.5556 1.77777ZM15.1111 10.6667H0.888889V2.66666H15.1111V10.6667Z" fill="black"/>
</svg>
