<svg width="16" height="16" viewBox="0 0 16 16" fill="none" xmlns="http://www.w3.org/2000/svg">
<path d="M8.00537 4.43212C6.78423 4.43212 5.78931 3.4372 5.78931 2.21606C5.78931 0.994922 6.78203 0 8.00537 0C9.2287 0 10.2214 0.994922 10.2214 2.21606C10.2214 3.4372 9.22651 4.43212 8.00537 4.43212ZM8.00537 0.878518C7.26741 0.878518 6.66782 1.47811 6.66782 2.21606C6.66782 2.95402 7.26741 3.5536 8.00537 3.5536C8.74332 3.5536 9.34291 2.95402 9.34291 2.21606C9.34291 1.47811 8.74332 0.878518 8.00537 0.878518Z" fill="black"/>
<path d="M12.835 16C12.1563 16 11.6051 15.4487 11.6051 14.7701V12.0401H7.53095L2.7584 15.7276C2.49704 15.9297 2.17419 16.0154 1.84914 15.9736C1.52409 15.9319 1.23198 15.765 1.03212 15.5058C0.617016 14.9699 0.715849 14.1946 1.25394 13.7795L5.65092 10.3819V6.95564H2.01606C1.3374 6.95564 0.786131 6.40437 0.786131 5.72571C0.786131 5.04706 1.3374 4.49579 2.01606 4.49579H13.9946C14.6733 4.49579 15.2246 5.04706 15.2246 5.72571C15.2246 6.40437 14.6733 6.95564 13.9946 6.95564H10.362V9.57801H12.835C13.5137 9.57801 14.0649 10.1293 14.0649 10.8079V14.7679C14.0649 15.4465 13.5137 15.9978 12.835 15.9978V16ZM7.3816 11.1615H12.0443C12.2859 11.1615 12.4836 11.3592 12.4836 11.6008V14.7701C12.4836 14.9633 12.6417 15.1215 12.835 15.1215C13.0283 15.1215 13.1864 14.9633 13.1864 14.7701V10.8101C13.1864 10.6169 13.0283 10.4587 12.835 10.4587H9.92272C9.68112 10.4587 9.48346 10.2611 9.48346 10.0195V6.51858C9.48346 6.27698 9.68112 6.07932 9.92272 6.07932H13.9946C14.1879 6.07932 14.3461 5.92118 14.3461 5.72791C14.3461 5.53464 14.1879 5.3765 13.9946 5.3765H2.01606C1.82278 5.3765 1.66465 5.53464 1.66465 5.72791C1.66465 5.92118 1.82278 6.07932 2.01606 6.07932H6.08799C6.32958 6.07932 6.52725 6.27698 6.52725 6.51858V10.5993C6.52725 10.7355 6.46355 10.8628 6.35593 10.9463L1.78764 14.4758C1.6339 14.5944 1.60535 14.8162 1.72395 14.9699C1.78105 15.0446 1.86451 15.0929 1.95895 15.1039C2.0512 15.1149 2.14564 15.0907 2.22031 15.0336L7.11146 11.2538C7.18833 11.1945 7.28277 11.1615 7.37941 11.1615H7.3816Z" fill="black"/>
</svg>
