<svg fill="currentColor" width="16" height="16" viewBox="0 0 16 16" xmlns="http://www.w3.org/2000/svg">
<path d="M12.5764 15.6131C12.4818 15.6131 12.3872 15.5854 12.3065 15.5254L7.99933 12.4318L3.69217 15.5254C3.53068 15.6408 3.31152 15.6408 3.15234 15.5254L3.00699 15.4193C2.84551 15.3017 2.7786 15.0963 2.83858 14.9049L4.44425 9.87331L0.18785 6.74734C0.0286679 6.62968 -0.0382349 6.42205 0.0217469 6.23288L0.0771147 6.06216C0.139404 5.87299 0.314735 5.7438 0.513136 5.7438L5.79384 5.71611L7.45257 0.703019C7.51486 0.513846 7.6925 0.386961 7.8909 0.386961H8.10775C8.30615 0.386961 8.48379 0.513846 8.54608 0.703019L10.2048 5.71611L15.4855 5.7438C15.6839 5.7438 15.8592 5.87299 15.9215 6.06216L15.9769 6.23288C16.0392 6.42205 15.9723 6.62968 15.8108 6.74734L11.5544 9.87331L13.1601 14.9049C13.22 15.094 13.1531 15.3017 12.9917 15.4193L12.8463 15.5254C12.7656 15.5831 12.671 15.6131 12.5741 15.6131H12.5764ZM7.98318 11.4144H8.02009C8.11698 11.4144 8.21157 11.4444 8.29001 11.5021L11.9466 14.1297L10.5785 9.84102C10.5186 9.65184 10.5855 9.44652 10.7446 9.32886L14.3735 6.66198L9.8703 6.63891C9.67189 6.63891 9.49656 6.50972 9.43427 6.32285L8.00163 1.99263L6.56899 6.32285C6.5067 6.51203 6.33137 6.63891 6.13297 6.63891L1.62972 6.66198L5.25862 9.32886C5.4178 9.44652 5.4847 9.65184 5.42472 9.84102L4.05668 14.1297L7.71326 11.5021C7.7917 11.4467 7.88628 11.4144 7.98318 11.4144Z"/>
</svg>
