<svg fill="currentColor" width="16" height="16" viewBox="0 0 16 16" xmlns="http://www.w3.org/2000/svg">
<path d="M11.5858 15.1725C11.5858 15.392 11.4986 15.6024 11.3434 15.7576C11.1883 15.9128 10.9778 16 10.7583 16H5.24171C5.02225 16 4.81177 15.9128 4.65659 15.7576C4.5014 15.6024 4.41422 15.392 4.41422 15.1725C4.41422 14.953 4.5014 14.7426 4.65659 14.5874C4.81177 14.4322 5.02225 14.345 5.24171 14.345H10.7583C10.9778 14.345 11.1883 14.4322 11.3434 14.5874C11.4986 14.7426 11.5858 14.953 11.5858 15.1725ZM14.3441 6.34593C14.3466 7.30734 14.1294 8.2566 13.7091 9.12126C13.2888 9.98592 12.6765 10.7431 11.9189 11.335C11.8163 11.4132 11.7329 11.5138 11.6752 11.6291C11.6175 11.7445 11.5869 11.8715 11.5858 12.0005V12.1384C11.5858 12.5041 11.4405 12.8549 11.1819 13.1136C10.9232 13.3722 10.5724 13.5175 10.2067 13.5175H5.79337C5.4276 13.5175 5.07681 13.3722 4.81817 13.1136C4.55952 12.8549 4.41422 12.5041 4.41422 12.1384V12.0005C4.41407 11.8736 4.38477 11.7485 4.32857 11.6348C4.27237 11.5211 4.19079 11.4218 4.09012 11.3447C3.3346 10.7562 2.72283 10.0036 2.3011 9.14374C1.87938 8.28393 1.65875 7.33946 1.65592 6.38179C1.6373 2.94563 4.41422 0.08458 7.84762 0.00183081C8.69348 -0.018494 9.53485 0.130585 10.3222 0.440293C11.1096 0.750002 11.8271 1.21408 12.4324 1.80522C13.0378 2.39636 13.5187 3.10262 13.847 3.88243C14.1754 4.66223 14.3444 5.49983 14.3441 6.34593ZM12.6891 6.34593C12.6893 5.72046 12.5644 5.10126 12.3216 4.52481C12.0789 3.94835 11.7233 3.42629 11.2757 2.98934C10.8282 2.55239 10.2978 2.2094 9.71565 1.98056C9.13354 1.75171 8.51153 1.64164 7.88624 1.65681C5.34929 1.7175 3.29711 3.83243 3.3109 6.37214C3.31326 7.07994 3.47652 7.77794 3.78832 8.41337C4.10012 9.0488 4.55231 9.60503 5.11069 10.04C5.392 10.2571 5.62322 10.5323 5.78863 10.8468C5.95403 11.1613 6.04973 11.5077 6.0692 11.8625H9.93773C9.95759 11.507 10.0534 11.1599 10.2188 10.8446C10.3841 10.5292 10.6151 10.253 10.8962 10.0345C11.4562 9.59677 11.9088 9.03694 12.2196 8.39769C12.5303 7.75845 12.6909 7.05669 12.6891 6.34593ZM11.3052 5.97908C11.2319 5.3599 10.9871 4.77352 10.5983 4.28613C10.2095 3.79873 9.69215 3.42973 9.10472 3.22077C8.8994 3.15369 8.67598 3.16955 8.48219 3.26496C8.2884 3.36038 8.1396 3.52779 8.06758 3.73143C7.99556 3.93508 8.00602 4.15881 8.09673 4.35485C8.18744 4.55088 8.35121 4.70368 8.55306 4.78059C8.84825 4.88407 9.10861 5.06807 9.30469 5.31179C9.50076 5.55552 9.62474 5.84924 9.66259 6.15975C9.68673 6.37793 9.79655 6.57759 9.9679 6.7148C10.0527 6.78274 10.1501 6.8333 10.2545 6.8636C10.3589 6.8939 10.4682 6.90334 10.5763 6.89139C10.6843 6.87943 10.7889 6.84632 10.8842 6.79393C10.9794 6.74155 11.0634 6.67091 11.1313 6.58607C11.1993 6.50123 11.2498 6.40383 11.2801 6.29945C11.3104 6.19506 11.3199 6.08573 11.3079 5.9777L11.3052 5.97908Z"/>
</svg>
